<svg xmlns="http://www.w3.org/2000/svg" xmlns:xlink="http://www.w3.org/1999/xlink" width="397.539" height="584.982" viewBox="0 0 397.539 584.982">
  <defs>
    <clipPath id="clip-path">
      <rect id="Rectángulo_339404" data-name="Rectángulo 339404" width="175.598" height="64.116" fill="none"/>
    </clipPath>
    <linearGradient id="linear-gradient" x1="1.364" y1="-0.001" x2="2.097" y2="1.022" gradientUnits="objectBoundingBox">
      <stop offset="0" stop-color="#ffc98b"/>
      <stop offset="1" stop-color="#fbab4d"/>
    </linearGradient>
    <linearGradient id="linear-gradient-2" x1="5.536" y1="-0.001" x2="6.269" y2="1.022" xlink:href="#linear-gradient"/>
    <linearGradient id="linear-gradient-3" x1="-7.536" y1="0.5" x2="-8.536" y2="0.5" gradientUnits="objectBoundingBox">
      <stop offset="0" stop-color="#ffc3a4"/>
      <stop offset="1" stop-color="#ffb284"/>
    </linearGradient>
    <linearGradient id="linear-gradient-4" x1="-3.586" y1="0.503" x2="-4.14" y2="0.5" xlink:href="#linear-gradient-3"/>
    <linearGradient id="linear-gradient-5" x1="-8.517" y1="0.966" x2="-8.57" y2="0.367" gradientUnits="objectBoundingBox">
      <stop offset="0" stop-color="#e79796"/>
      <stop offset="1" stop-color="#dc6963"/>
    </linearGradient>
    <linearGradient id="linear-gradient-6" x1="-7.422" y1="0.504" x2="-8.132" y2="0.494" xlink:href="#linear-gradient-5"/>
    <linearGradient id="linear-gradient-7" x1="-3.987" y1="0.189" x2="-3.146" y2="0.628" gradientUnits="objectBoundingBox">
      <stop offset="0" stop-color="#f5fbff"/>
      <stop offset="1" stop-color="#deecf5"/>
    </linearGradient>
    <linearGradient id="linear-gradient-8" x1="-3.552" y1="0.229" x2="-4.273" y2="0.558" xlink:href="#linear-gradient-7"/>
    <linearGradient id="linear-gradient-9" x1="0.389" y1="-17.137" x2="1.38" y2="-17.137" gradientUnits="objectBoundingBox">
      <stop offset="0" stop-color="#ece5ba"/>
      <stop offset="1" stop-color="#c6c09c"/>
    </linearGradient>
    <linearGradient id="linear-gradient-10" x1="-15.644" y1="0.5" x2="-16.644" y2="0.5" xlink:href="#linear-gradient-3"/>
    <linearGradient id="linear-gradient-11" x1="-11.836" y1="0.021" x2="-12.848" y2="0.884" xlink:href="#linear-gradient-3"/>
    <linearGradient id="linear-gradient-12" x1="-7.75" y1="0.262" x2="-8.017" y2="0.752" xlink:href="#linear-gradient-3"/>
    <linearGradient id="linear-gradient-13" x1="-8.653" y1="0.328" x2="-8.949" y2="0.726" xlink:href="#linear-gradient-3"/>
    <linearGradient id="linear-gradient-14" x1="-9.474" y1="0.243" x2="-9.665" y2="0.622" xlink:href="#linear-gradient-3"/>
    <linearGradient id="linear-gradient-15" x1="-4.382" y1="0.889" x2="-4.214" y2="0.362" xlink:href="#linear-gradient-3"/>
    <linearGradient id="linear-gradient-16" x1="-1.999" y1="0.34" x2="-2.744" y2="0.624" xlink:href="#linear-gradient-3"/>
    <linearGradient id="linear-gradient-17" x1="-1.903" y1="0.5" x2="-2.903" y2="0.5" gradientUnits="objectBoundingBox">
      <stop offset="0" stop-color="#b27c5c"/>
      <stop offset="1" stop-color="#a35c3b"/>
    </linearGradient>
    <linearGradient id="linear-gradient-18" x1="-9.738" y1="0.5" x2="-10.738" y2="0.5" xlink:href="#linear-gradient-3"/>
    <linearGradient id="linear-gradient-19" x1="-34.758" y1="0.5" x2="-35.758" y2="0.5" xlink:href="#linear-gradient-3"/>
    <linearGradient id="linear-gradient-20" x1="-10.66" y1="0.5" x2="-11.66" y2="0.5" xlink:href="#linear-gradient-17"/>
    <linearGradient id="linear-gradient-21" x1="-13.668" y1="0.5" x2="-14.668" y2="0.5" xlink:href="#linear-gradient-17"/>
    <linearGradient id="linear-gradient-22" x1="-33.462" y1="0.5" x2="-34.462" y2="0.5" gradientUnits="objectBoundingBox">
      <stop offset="0" stop-color="#ffb284"/>
      <stop offset="1" stop-color="#f08857"/>
    </linearGradient>
    <linearGradient id="linear-gradient-23" x1="0.772" y1="0.5" x2="-0.228" y2="0.5" gradientUnits="objectBoundingBox">
      <stop offset="0" stop-color="#ffd8ab"/>
      <stop offset="1" stop-color="#ffc98b"/>
    </linearGradient>
    <linearGradient id="linear-gradient-24" x1="0.686" y1="0.5" x2="-0.314" y2="0.5" xlink:href="#linear-gradient"/>
    <linearGradient id="linear-gradient-25" x1="1.467" y1="0.5" x2="0.467" y2="0.5" xlink:href="#linear-gradient"/>
    <linearGradient id="linear-gradient-26" x1="-11.755" y1="0.5" x2="-1.208" y2="0.5" xlink:href="#linear-gradient"/>
    <linearGradient id="linear-gradient-27" x1="0.95" y1="0.274" x2="0.925" y2="0.613" xlink:href="#linear-gradient-9"/>
    <linearGradient id="linear-gradient-28" x1="2.57" y1="0.5" x2="1.57" y2="0.5" xlink:href="#linear-gradient"/>
    <linearGradient id="linear-gradient-29" x1="9.542" y1="1.022" x2="9.709" y2="0.181" xlink:href="#linear-gradient-7"/>
  </defs>
  <g id="Grupo_957322" data-name="Grupo 957322" transform="translate(0)">
    <path id="Trazado_1" data-name="Trazado 1" d="M340.23,624.107c-42.533,4.687-86.441-10.3-120.021-40.964-14.308-13.066-27.492-30.714-28.472-51.816-.974-20.989,10.169-39.732,16.973-59.211,15.614-44.7,7.134-99.423-20.92-135-6.264-7.944-13.445-15.058-18.4-24.166s-7.343-21.076-3.1-30.653c4.953-11.176,17.358-15.386,28.079-13.627s20.392,8.114,30.268,13.265a146.611,146.611,0,0,0,94.987,14.455c26.429-5,51.344-17.288,76.359-28.381s50.945-21.192,77.721-21.478,54.866,10.675,71.4,35.131c12.679,18.758,17.34,43.566,16.422,67.387s-6.98,46.957-13.885,69.413c-22.422,72.914-54.315,141.892-94.269,203.882C416.111,631.048,377.782,630.943,340.23,624.107Z" transform="translate(-164.102 -246.525)" fill="#badc61"/>
    <g id="Grupo_957497" data-name="Grupo 957497" transform="translate(-3465.33 22225.59) rotate(73)">
      <path id="Trazado_723482" data-name="Trazado 723482" d="M290.527,142.641s-.5.982-1.443,2.8c-1,1.607-2.34,4.438-4.251,7.084a118.538,118.538,0,0,1-16.36,20.143,120.568,120.568,0,0,1-25.23,19.136,116.953,116.953,0,0,1-31.175,12.007,115.759,115.759,0,0,1-33.286,2.691,119.719,119.719,0,0,1-31-6.389,129.5,129.5,0,0,1-13.039-5.438c-3.936-1.864-7.518-4.1-10.411-5.818a79.352,79.352,0,0,1-6.908-4.566c-1.6-1.153-2.5-1.924-2.5-1.924s.468-1.086,1.434-2.826c.985-1.614,2.329-4.454,4.244-7.106,1.879-2.8,4.159-6.342,6.908-9.705a124.54,124.54,0,0,1,9.429-10.517,120.057,120.057,0,0,1,25.228-19.129,114.876,114.876,0,0,1,31.2-11.881,116.4,116.4,0,0,1,33.308-2.6,121.19,121.19,0,0,1,31.011,6.414,117.163,117.163,0,0,1,23.434,11.155c2.864,1.553,5.306,3.534,6.881,4.557,1.646,1.241,2.52,1.911,2.52,1.911" transform="translate(-20114.605 -10033.907)" fill="#aed144"/>
      <path id="Trazado_723483" data-name="Trazado 723483" d="M212.536,124.079q23.106,9.958,46.212,19.887l-39.621,8.963c-.171-.187-.3-.414-.5-.492Q194.162,141.9,169.718,131.38c-1.592-.679-2.392,1.879-.821,2.567q23.113,9.945,46.233,19.878L175.491,162.8c-.153-.187-.294-.414-.508-.5l-28.234-12.165c-1.6-.677-2.379,1.9-.83,2.567q12.8,5.513,25.568,11.016L117.191,176l.495,2.169,53.152-12.007q-8.292,10.356-16.56,20.73c-1.1,1.349,1.2,2.761,2.248,1.419q9.253-11.536,18.457-23.1l39.472-8.925c-.488.609-.96,1.194-1.443,1.794-3.592,4.51-7.216,9.042-10.811,13.552q-8.188,10.262-16.389,20.541c-1.086,1.358,1.205,2.776,2.257,1.428q15.273-19.134,30.554-38.265l39.468-8.934c-.483.6-.967,1.21-1.45,1.81-3.6,4.51-7.207,9.051-10.8,13.545q-8.218,10.285-16.4,20.557c-1.075,1.342,1.218,2.77,2.284,1.419q15.259-19.107,30.55-38.265l11.4-2.583-.5-2.16-10.409,2.349c-.171-.2-.3-.423-.49-.5Q237.8,132.035,213.343,121.5c-1.6-.663-2.383,1.9-.807,2.574" transform="translate(-20111.779 -10030.081)" fill="#3a8931"/>
      <g id="Grupo_957316" data-name="Grupo 957316" transform="translate(-19999.674 -9891.257)" opacity="0.1">
        <g id="Grupo_957315" data-name="Grupo 957315">
          <g id="Grupo_957314" data-name="Grupo 957314" clip-path="url(#clip-path)">
            <path id="Trazado_723484" data-name="Trazado 723484" d="M114.927,168.873c.009,0,.9.773,2.5,1.927a77.951,77.951,0,0,0,6.9,4.564c2.9,1.724,6.481,3.957,10.413,5.82a130.67,130.67,0,0,0,13.037,5.438,119.906,119.906,0,0,0,31,6.389,115.714,115.714,0,0,0,33.288-2.693,116.8,116.8,0,0,0,31.166-12,120.108,120.108,0,0,0,25.231-19.138,117.909,117.909,0,0,0,16.36-20.143c1.92-2.644,3.253-5.476,4.251-7.084l1.446-2.8Z" transform="translate(-114.927 -129.149)" fill="#211a72"/>
          </g>
        </g>
      </g>
    </g>
    <g id="Grupo_957498" data-name="Grupo 957498" transform="translate(-19074.227 11148.808) rotate(124)">
      <path id="Trazado_723482-2" data-name="Trazado 723482" d="M290.527,142.641s-.5.982-1.443,2.8c-1,1.607-2.34,4.438-4.251,7.084a118.538,118.538,0,0,1-16.36,20.143,120.568,120.568,0,0,1-25.23,19.136,116.953,116.953,0,0,1-31.175,12.007,115.759,115.759,0,0,1-33.286,2.691,119.719,119.719,0,0,1-31-6.389,129.5,129.5,0,0,1-13.039-5.438c-3.936-1.864-7.518-4.1-10.411-5.818a79.352,79.352,0,0,1-6.908-4.566c-1.6-1.153-2.5-1.924-2.5-1.924s.468-1.086,1.434-2.826c.985-1.614,2.329-4.454,4.244-7.106,1.879-2.8,4.159-6.342,6.908-9.705a124.54,124.54,0,0,1,9.429-10.517,120.057,120.057,0,0,1,25.228-19.129,114.876,114.876,0,0,1,31.2-11.881,116.4,116.4,0,0,1,33.308-2.6,121.19,121.19,0,0,1,31.011,6.414,117.163,117.163,0,0,1,23.434,11.155c2.864,1.553,5.306,3.534,6.881,4.557,1.646,1.241,2.52,1.911,2.52,1.911" transform="translate(-20114.605 -10033.907)" fill="#aed144"/>
      <path id="Trazado_723483-2" data-name="Trazado 723483" d="M212.536,124.079q23.106,9.958,46.212,19.887l-39.621,8.963c-.171-.187-.3-.414-.5-.492Q194.162,141.9,169.718,131.38c-1.592-.679-2.392,1.879-.821,2.567q23.113,9.945,46.233,19.878L175.491,162.8c-.153-.187-.294-.414-.508-.5l-28.234-12.165c-1.6-.677-2.379,1.9-.83,2.567q12.8,5.513,25.568,11.016L117.191,176l.495,2.169,53.152-12.007q-8.292,10.356-16.56,20.73c-1.1,1.349,1.2,2.761,2.248,1.419q9.253-11.536,18.457-23.1l39.472-8.925c-.488.609-.96,1.194-1.443,1.794-3.592,4.51-7.216,9.042-10.811,13.552q-8.188,10.262-16.389,20.541c-1.086,1.358,1.205,2.776,2.257,1.428q15.273-19.134,30.554-38.265l39.468-8.934c-.483.6-.967,1.21-1.45,1.81-3.6,4.51-7.207,9.051-10.8,13.545q-8.218,10.285-16.4,20.557c-1.075,1.342,1.218,2.77,2.284,1.419q15.259-19.107,30.55-38.265l11.4-2.583-.5-2.16-10.409,2.349c-.171-.2-.3-.423-.49-.5Q237.8,132.035,213.343,121.5c-1.6-.663-2.383,1.9-.807,2.574" transform="translate(-20111.779 -10030.081)" fill="#3a8931"/>
      <g id="Grupo_957316-2" data-name="Grupo 957316" transform="translate(-19999.674 -9891.257)" opacity="0.1">
        <g id="Grupo_957315-2" data-name="Grupo 957315">
          <g id="Grupo_957314-2" data-name="Grupo 957314" clip-path="url(#clip-path)">
            <path id="Trazado_723484-2" data-name="Trazado 723484" d="M114.927,168.873c.009,0,.9.773,2.5,1.927a77.951,77.951,0,0,0,6.9,4.564c2.9,1.724,6.481,3.957,10.413,5.82a130.67,130.67,0,0,0,13.037,5.438,119.906,119.906,0,0,0,31,6.389,115.714,115.714,0,0,0,33.288-2.693,116.8,116.8,0,0,0,31.166-12,120.108,120.108,0,0,0,25.231-19.138,117.909,117.909,0,0,0,16.36-20.143c1.92-2.644,3.253-5.476,4.251-7.084l1.446-2.8Z" transform="translate(-114.927 -129.149)" fill="#211a72"/>
          </g>
        </g>
      </g>
    </g>
    <g id="Grupo_16" data-name="Grupo 16" transform="translate(3.389 119.065)">
      <ellipse id="Elipse_1" data-name="Elipse 1" cx="9.637" cy="9.637" rx="9.637" ry="9.637" transform="translate(26.576 121.107)" fill="url(#linear-gradient)"/>
      <ellipse id="Elipse_2" data-name="Elipse 2" cx="4.015" cy="4.015" rx="4.015" ry="4.015" transform="translate(29.649 124.319)" fill="#fff" opacity="0.2"/>
      <ellipse id="Elipse_3" data-name="Elipse 3" cx="7.506" cy="7.506" rx="7.506" ry="7.506" transform="translate(0 93.205)" fill="url(#linear-gradient-2)"/>
      <ellipse id="Elipse_4" data-name="Elipse 4" cx="3.128" cy="3.128" rx="3.128" ry="3.128" transform="translate(2.393 95.708)" fill="#fff" opacity="0.2"/>
      <path id="Trazado_2" data-name="Trazado 2" d="M673.141,610.291l-47.383,55.9c-3.737,4.408-7.558,8.89-12.466,11.941s-11.172,4.492-16.541,2.357c-7.025-2.793-10.556-10.672-12.076-18.077-3.685-17.962.427-36.747,7.53-53.65s17.1-32.4,25.9-48.491c14.683-26.853,25.981-53.343,37.284-81.784,9.846,28.293,14.746,57.976,18.066,87.748C675.073,580.743,682.581,599.154,673.141,610.291Z" transform="translate(-551.453 -280.449)" fill="#e2dddd"/>
      <path id="Trazado_3" data-name="Trazado 3" d="M686.616,682.95l1.586,27.256,36.726,2.754-4.68-24.053Z" transform="translate(-656.357 -370.544)" fill="#2680eb"/>
      <path id="Trazado_4" data-name="Trazado 4" d="M273.669,441.113l-39.092,20.841s15.334,190.058,15.334,258.738H433.059S446.879,501.407,452.065,453.1c0,0-39.391-11.663-54.36-11.987S273.669,441.113,273.669,441.113Z" transform="translate(-130.642 -263.918)" fill="#e8e8e8"/>
      <path id="Trazado_5" data-name="Trazado 5" d="M376.739,424.43l33.764,12.8L450.6,426.7l-6.479,34.988-26.4,44.059s-17.008.972-17.008,0S375.6,442.572,375.6,442.572Z" transform="translate(-208.064 -256.63)" fill="#fff"/>
      <path id="Trazado_6" data-name="Trazado 6" d="M368.765,784.78a4.615,4.615,0,0,0-2.476-1.372c-1.625-.137-2.843,1.39-3.781,2.725a81.247,81.247,0,0,1-22.764,21.761,13.479,13.479,0,0,0,16.783.471c1.482-1.176,2.768-2.71,4.56-3.319,2.6-.885,5.368.43,8.01,1.194a15.239,15.239,0,0,0,10.4-.434c1.838-.828,4.2-2.52,4.973-4.484.892-2.273-.5-3.294-2.127-4.731C377.855,792.612,373.29,788.717,368.765,784.78Z" transform="translate(-122.154 -414.806)" fill="url(#linear-gradient-3)"/>
      <path id="Trazado_7" data-name="Trazado 7" d="M685.552,542.141a2.674,2.674,0,0,1,1.7-.317c.876.235,1.257,1.245,1.473,2.126a35.9,35.9,0,0,1-.176,17.724,9.777,9.777,0,0,1-1.867,4.022,4.056,4.056,0,0,1-3.994,1.422,5.709,5.709,0,0,1-2.983-2.839,36.1,36.1,0,0,1-4.849-13.974c-.1-.759-.587-2.516-.237-3.221.414-.836,2.306-1.24,3.135-1.6Z" transform="translate(-614.406 -308.337)" fill="#fda57c"/>
      <path id="Trazado_8" data-name="Trazado 8" d="M691.844,646.868s.069,18.66,12.811,26.219,28.93.216,26.991-9.287-3.369-21.491-6.649-22.84S691.735,644.879,691.844,646.868Z" transform="translate(-666.159 -351.946)" fill="#fda57c"/>
      <path id="Trazado_9" data-name="Trazado 9" d="M451.327,377.587c-22.995,8.607-48.2,8.471-70.43-1.954q1.936-10.484,2.9-21.1a231.2,231.2,0,0,0,.555-34.583,184.274,184.274,0,0,1,60.9-19.877c1.672,13.8,3.1,27.812,4.172,41.836C450.337,353.837,450.991,365.771,451.327,377.587Z" transform="translate(-211.75 -201.831)" fill="url(#linear-gradient-4)"/>
      <path id="Trazado_10" data-name="Trazado 10" d="M435.122,441.226,417.3,448.515l8.909,15.874,15.064.81,10.043-11.987Z" transform="translate(-232.108 -264.031)" fill="url(#linear-gradient-5)"/>
      <path id="Trazado_11" data-name="Trazado 11" d="M448.459,413.506s22.4,15.182,31.961,15.505l-17.332,17.008-16.537-20.4S445.169,418.573,448.459,413.506Z" transform="translate(-277.406 -251.817)" fill="#fff"/>
      <path id="Trazado_12" data-name="Trazado 12" d="M380.893,429.012l16.36,17.008,20.205-18.452-.543-14.062A48.844,48.844,0,0,1,380.893,429.012Z" transform="translate(-177.879 -251.817)" fill="#fff"/>
      <path id="Trazado_13" data-name="Trazado 13" d="M424.354,482.636l-9.506,17.993-.7,8.248,16.643,30.85s17.7-32.145,18.669-32.631,1.765-6.328,1.765-6.328l-11.808-17.321Z" transform="translate(-230.249 -282.278)" fill="url(#linear-gradient-6)"/>
      <path id="Trazado_14" data-name="Trazado 14" d="M484.385,418.1s-17.227,7.622-28.026,15.505l-6.911,32.072h26.565l-15.226,20.409L512.3,517.47l2.268-5.183S479.8,442.444,484.385,418.1Z" transform="translate(-313.331 -253.842)" opacity="0.71" fill="url(#linear-gradient-7)" style="mix-blend-mode: multiply;isolation: isolate"/>
      <path id="Trazado_15" data-name="Trazado 15" d="M484.385,413.506s-17.227,7.622-28.026,15.505l-6.911,32.072h26.565l-15.226,20.41,51.51,31.38,2.268-5.183S479.8,437.848,484.385,413.506Z" transform="translate(-313.331 -251.817)" fill="#e2dddd"/>
      <path id="Trazado_16" data-name="Trazado 16" d="M361.96,418.1s17.228,7.622,28.026,15.505L396.9,465.68H370.332l15.226,20.409-63.886,38.552-2.268-5.184S366.546,442.444,361.96,418.1Z" transform="translate(-122.923 -253.842)" opacity="0.51" fill="url(#linear-gradient-8)" style="mix-blend-mode: multiply;isolation: isolate"/>
      <path id="Trazado_17" data-name="Trazado 17" d="M361.96,413.506s17.228,7.622,28.026,15.505l6.911,32.072H370.332l15.226,20.41-63.886,38.551-2.268-5.183S366.546,437.848,361.96,413.506Z" transform="translate(-122.923 -251.817)" fill="#e2dddd"/>
      <path id="Trazado_18" data-name="Trazado 18" d="M389.556,726.138l-1.421,4.357L350.765,845.7a8.639,8.639,0,0,1-10.891,5.549l-10.27-3.328a8.631,8.631,0,0,1-5.549-10.891l37.376-115.2,1.415-4.357,11.114,3.608Z" transform="translate(-117.946 -385.754)" fill="#afafaf"/>
      <path id="Trazado_19" data-name="Trazado 19" d="M337.614,847.8a3.047,3.047,0,0,1-1.236-3.5l37.068-114.239,16.065,5.213L352.443,849.521a3.046,3.046,0,0,1-3.837,1.957l-10.271-3.333A3.06,3.06,0,0,1,337.614,847.8Z" transform="translate(-124.948 -391.307)" fill="#e8e8e8"/>
      <path id="Trazado_20" data-name="Trazado 20" d="M401.841,721.076l-1.2,3.681-37.371,115.2a8.632,8.632,0,0,1-9.168,5.918,8.656,8.656,0,0,1-2.17-8.849l37.376-115.2,1.415-4.357Z" transform="translate(-145.826 -385.754)" fill="#fff" opacity="0.2"/>
      <path id="Trazado_21" data-name="Trazado 21" d="M348.643,708.245a2.2,2.2,0,0,1-.1.593l-2.372,7.305a2.21,2.21,0,0,1-2.786,1.421l-39.48-12.809a2.217,2.217,0,0,1-1.421-2.786l2.372-7.305a2,2,0,0,1,.263-.537,2.209,2.209,0,0,1,2.523-.884l39.48,12.815A2.2,2.2,0,0,1,348.643,708.245Z" transform="translate(-65.146 -375.032)" fill="#afafaf"/>
      <path id="Trazado_22" data-name="Trazado 22" d="M345.9,708.245a2.2,2.2,0,0,1-2.517.884L303.9,696.32a1.678,1.678,0,1,1,1-3.076l39.48,12.815A2.2,2.2,0,0,1,345.9,708.245Z" transform="translate(-62.407 -375.032)" fill="#fff" opacity="0.2"/>
      <rect id="Rectángulo_1" data-name="Rectángulo 1" width="28.077" height="2.636" transform="translate(270.793 342.89) rotate(-162.013)" opacity="0.5" fill="url(#linear-gradient-9)"/>
      <path id="Trazado_23" data-name="Trazado 23" d="M312.9,805.52l-20.982,2.573,15.862,35.493,11.5-5.718S316.727,810.542,312.9,805.52Z" transform="translate(-29.922 -424.553)" fill="url(#linear-gradient-10)"/>
      <path id="Trazado_24" data-name="Trazado 24" d="M683.33,782.484c-1.86-2-18.583-9.7-15.059-65.426,0,0,33.728,12.84,45.515-.545l7.9,48.9Z" transform="translate(-642.587 -385.333)" fill="#e2dddd"/>
      <path id="Trazado_25" data-name="Trazado 25" d="M333.74,843.622a13.585,13.585,0,0,0,3.588-8.07c.144-3.1-1.136-6.079-2.555-8.839-2.626-5.107-5.924-10.029-10.58-13.39s-10.871-4.952-16.281-3.029c-2.208.785-4.421,2.459-4.589,4.8-.129,1.784.963,3.4,2,4.855l14.18,19.78c1.644,2.293,3.927,7.3,6.673,8.376C329.024,849.212,332.084,845.527,333.74,843.622Z" transform="translate(-54.363 -426.291)" fill="url(#linear-gradient-11)"/>
      <path id="Trazado_26" data-name="Trazado 26" d="M348.439,833.034c-1.216,1.4-2.429,3.491-1.283,4.952a3.856,3.856,0,0,0,3.239,1.024c4.884-.139,9.586-1.808,14.115-3.641a180.026,180.026,0,0,0,16.48-7.661c3.192-1.685,6.435-3.555,8.549-6.482s2.788-7.192.653-10.1c-2.529-3.447-7.734-3.58-11.758-2.135-5.948,2.136-9.882,5.444-14.557,9.34A130.8,130.8,0,0,0,348.439,833.034Z" transform="translate(-132.789 -425.699)" fill="url(#linear-gradient-12)"/>
      <path id="Trazado_27" data-name="Trazado 27" d="M336.9,847.011c-1.738,2.071-3.282,5.021-1.9,7.345a4.892,4.892,0,0,0,4.2,2.107,13.807,13.807,0,0,0,4.763-1.092,108.053,108.053,0,0,0,22.1-10.508c4.879-3.166,9.7-7.462,10.557-13.215a9,9,0,0,0-.995-5.922c-2.837-4.741-5.751-2.252-8.964.082-3.359,2.441-6.937,4.559-10.5,6.682C349.247,836.605,342.133,840.77,336.9,847.011Z" transform="translate(-111.186 -432.269)" fill="url(#linear-gradient-13)"/>
      <path id="Trazado_28" data-name="Trazado 28" d="M329.524,853.388c-4.762,3.095-9.665,6.326-12.771,11.081-1.3,1.983-2.111,4.928-.328,6.489a5.274,5.274,0,0,0,3.662.906,32.66,32.66,0,0,0,10.586-2.038c-.6,2-.908,4.732.969,5.645a4.476,4.476,0,0,0,3.434-.287c5.234-1.929,10.5-4.115,14.7-7.8s7.184-9.141,6.595-14.688c-.44-4.144-5.029-11.328-10.147-10.2-2.372.524-5.3,3.483-7.37,4.826Z" transform="translate(-80.224 -440.797)" fill="url(#linear-gradient-14)"/>
      <path id="Trazado_29" data-name="Trazado 29" d="M151.355,462.655s81.639,112.091,66.088,190.49-98.16,33.644-98.16,33.644-2.06-20.686-6.376-32.348l44.78-35.336-18.179-46.085Z" transform="translate(170.068 -273.474)" fill="#e2dddd"/>
      <ellipse id="Elipse_5" data-name="Elipse 5" cx="4.437" cy="4.437" rx="4.437" ry="4.437" transform="translate(196.481 296.502)" fill="#fff"/>
      <ellipse id="Elipse_6" data-name="Elipse 6" cx="4.437" cy="4.437" rx="4.437" ry="4.437" transform="translate(196.481 377.984)" fill="#fff"/>
      <path id="Trazado_30" data-name="Trazado 30" d="M449.931,341.9c-24.713,20.332-51.034,17.078-65.622,12.624a231.2,231.2,0,0,0,.555-34.583,184.275,184.275,0,0,1,60.9-19.877C447.432,313.864,448.859,327.879,449.931,341.9Z" transform="translate(-212.262 -201.831)" opacity="0.51" fill="url(#linear-gradient-15)" style="mix-blend-mode: multiply;isolation: isolate"/>
      <path id="Trazado_31" data-name="Trazado 31" d="M464.847,213.474c-.627,3.072-1.336,6.153-2.2,9.189-2.327,8.362-5.708,16.388-11.179,23.013-10.934,13.252-29.6,17.851-47.1,19.132a16.959,16.959,0,0,1-12.434-4.227c-8.6-7.562-14.833-17.832-18.715-28.73-4.726-13.288-6.208-27.531-6.644-41.646a298.618,298.618,0,0,1,2.127-46.127c.936-7.571,10.834-11.261,17.987-13.724a109.422,109.422,0,0,1,39.482-5.835c8.825.327,17.841,1.827,25.431,6.371s15.142,14.67,16.069,23.531A194.237,194.237,0,0,1,464.847,213.474Z" transform="translate(-221.075 -124.445)" fill="url(#linear-gradient-16)"/>
      <path id="Trazado_32" data-name="Trazado 32" d="M464.847,213.474c-.627,3.072-1.336,6.153-2.2,9.189l-1.99-7.035s11.052-22.84,4.617-26.431-8.971,13.961-8.971,13.961c-14.278-14.906-13.906-47.626-13.906-47.626-48.6,26.894-68.358-1.945-68.358-1.945l-7.462,36.619a298.618,298.618,0,0,1,2.127-46.127c.936-7.571,10.834-11.261,17.987-13.724a109.422,109.422,0,0,1,39.482-5.835c8.825.327,17.841,1.827,25.431,6.371s15.142,14.67,16.069,23.531A194.237,194.237,0,0,1,464.847,213.474Z" transform="translate(-221.075 -124.445)" fill="url(#linear-gradient-17)"/>
      <path id="Trazado_33" data-name="Trazado 33" d="M509.055,283.241a95.269,95.269,0,0,1-16.182-2.753,113.58,113.58,0,0,0,17.479-15.057c1.206-1.275-.719-3.206-1.928-1.928a110.642,110.642,0,0,1-19.446,16.345,1.382,1.382,0,0,0,.326,2.492,99.345,99.345,0,0,0,19.751,3.628C510.8,286.111,510.794,283.383,509.055,283.241Z" transform="translate(-331.251 -185.535)" opacity="0.51" fill="url(#linear-gradient-18)" style="mix-blend-mode: multiply;isolation: isolate"/>
      <path id="Trazado_34" data-name="Trazado 34" d="M446.106,285.937a16.4,16.4,0,0,1-5.449,12.637c-1.309,1.174.624,3.1,1.928,1.928a19.061,19.061,0,0,0,6.247-14.565C448.784,284.187,446.057,284.179,446.106,285.937Z" transform="translate(-242.446 -195.025)" opacity="0.51" fill="url(#linear-gradient-19)" style="mix-blend-mode: multiply;isolation: isolate"/>
      <path id="Trazado_35" data-name="Trazado 35" d="M525.4,255.508a1.387,1.387,0,0,0-1.363,1.363v5.4a1.363,1.363,0,1,0,2.726,0v-5.4A1.378,1.378,0,0,0,525.4,255.508Z" transform="translate(-367.257 -182.196)" fill="#060405"/>
      <path id="Trazado_36" data-name="Trazado 36" d="M464.4,255.508a1.387,1.387,0,0,0-1.363,1.363v5.4a1.363,1.363,0,1,0,2.727,0v-5.4A1.378,1.378,0,0,0,464.4,255.508Z" transform="translate(-272.128 -182.196)" fill="#060405"/>
      <path id="Trazado_37" data-name="Trazado 37" d="M524.867,225.962a50.559,50.559,0,0,0-15.068,1.721,2.273,2.273,0,0,0,1.208,4.383,45.3,45.3,0,0,1,13.861-1.56,2.29,2.29,0,0,0,2.272-2.272A2.32,2.32,0,0,0,524.867,225.962Z" transform="translate(-358.726 -169.162)" fill="url(#linear-gradient-20)"/>
      <path id="Trazado_38" data-name="Trazado 38" d="M463.165,231.235A30.83,30.83,0,0,0,446.608,227a2.272,2.272,0,1,0,0,4.544,26.155,26.155,0,0,1,14.264,3.612C463.4,236.644,465.688,232.718,463.165,231.235Z" transform="translate(-260.167 -169.629)" fill="url(#linear-gradient-21)"/>
      <path id="Trazado_39" data-name="Trazado 39" d="M425.959,239.9s35.049-2.773,69.281,1.655l-2.268,18.9s-21.274,6.263-31.64-5.939l-4-2.2L454.1,254.3s-15.9,9.494-26.685,6.853C427.412,261.154,422.982,248.185,425.959,239.9Z" transform="translate(-280.293 -174.943)" fill="#fff" opacity="0.2"/>
      <path id="Trazado_40" data-name="Trazado 40" d="M425.959,239.9s35.049-2.773,69.281,1.655l-2.268,18.9s-21.274,6.263-31.64-5.939l-4-2.2L454.1,254.3s-15.9,9.494-26.685,6.853C427.412,261.154,422.982,248.185,425.959,239.9Z" transform="translate(-280.293 -174.943)" fill="none" stroke="#fff" stroke-linecap="round" stroke-linejoin="round" stroke-width="2"/>
      <path id="Trazado_41" data-name="Trazado 41" d="M388.012,243.538l21.919,5.04-1.638,7.057s-8.727-4.754-22.549,6.8Z" transform="translate(-173.064 -176.922)" fill="#fff" stroke="#fff" stroke-linecap="round" stroke-linejoin="round" stroke-width="2"/>
      <path id="Trazado_42" data-name="Trazado 42" d="M382.613,253.258a1.848,1.848,0,0,0-2.487-.652,18.858,18.858,0,0,0-8.3,11.145,1.818,1.818,0,1,0,3.506.967c.132-.5.283-.991.459-1.476q.066-.182.137-.361c.022-.056.042-.106.056-.142.091-.211.186-.421.286-.628a16.952,16.952,0,0,1,1.6-2.644l.1-.128s.17-.213.19-.237q.246-.3.5-.586.492-.546,1.029-1.047.283-.263.577-.514c.1-.083.2-.164.3-.247l.06-.051c.435-.322.878-.628,1.339-.912A1.845,1.845,0,0,0,382.613,253.258Z" transform="translate(-138.182 -180.808)" fill="url(#linear-gradient-22)"/>
      <g id="Grupo_1" data-name="Grupo 1" transform="translate(13.896 173.792)">
        <path id="Trazado_43" data-name="Trazado 43" d="M715.08,589.136a8.627,8.627,0,0,1-3.927,2.282L700.721,594.2a8.636,8.636,0,0,1-10.572-6.125L658.926,471.061l-1.18-4.43,16.848-4.492,10.281-2.741,1.18,4.43,31.224,117.019A8.619,8.619,0,0,1,715.08,589.136Z" transform="translate(-646.748 -445.831)" fill="url(#linear-gradient-23)"/>
        <path id="Trazado_44" data-name="Trazado 44" d="M701.645,594.294a3.047,3.047,0,0,1-2.937-2.263L667.75,475.987l16.318-4.353,30.959,116.044a3.046,3.046,0,0,1-2.158,3.728l-10.433,2.783A3.058,3.058,0,0,1,701.645,594.294Z" transform="translate(-649.903 -451.223)" fill="url(#linear-gradient-24)"/>
        <path id="Trazado_45" data-name="Trazado 45" d="M698.232,589.136a8.651,8.651,0,0,1-8.318-6.422L658.691,465.7l-.945-3.558,10.281-2.741,1.18,4.43L700.43,580.847A8.619,8.619,0,0,1,698.232,589.136Z" transform="translate(-629.901 -445.831)" fill="#fff" opacity="0.2"/>
        <path id="Trazado_46" data-name="Trazado 46" d="M747.685,445.22a2.2,2.2,0,0,1-1.594,1.689l-40.1,10.7a2.209,2.209,0,0,1-1.885-.358,2.184,2.184,0,0,1-.822-1.208l-1.98-7.417a2.289,2.289,0,0,1-.056-.845,2.21,2.21,0,0,1,1.622-1.863l40.106-10.7a2.2,2.2,0,0,1,2.333.811,2.113,2.113,0,0,1,.369.755l1.98,7.423A2.219,2.219,0,0,1,747.685,445.22Z" transform="translate(-701.23 -435.143)" fill="url(#linear-gradient-25)"/>
        <path id="Trazado_47" data-name="Trazado 47" d="M749.622,436.03A2.2,2.2,0,0,1,748,437.887l-40.106,10.7a1.489,1.489,0,1,1-.71-2.668l40.106-10.7A2.2,2.2,0,0,1,749.622,436.03Z" transform="translate(-705.544 -435.143)" fill="#fff" opacity="0.2"/>
        <rect id="Rectángulo_2" data-name="Rectángulo 2" width="2.636" height="28.077" transform="matrix(-0.258, -0.966, 0.966, -0.258, 11.676, 23.347)" fill="url(#linear-gradient-26)"/>
        <path id="Trazado_48" data-name="Trazado 48" d="M744.891,452.813A2.2,2.2,0,0,1,743.3,454.5l-40.1,10.7a1.229,1.229,0,1,1-.291-2.053l40.106-10.7A2.18,2.18,0,0,1,744.891,452.813Z" transform="translate(-698.436 -442.736)" opacity="0.5" fill="url(#linear-gradient-27)" style="mix-blend-mode: multiply;isolation: isolate"/>
      </g>
      <ellipse id="Elipse_7" data-name="Elipse 7" cx="15.112" cy="15.112" rx="15.112" ry="15.112" transform="translate(9.164 133.043)" fill="url(#linear-gradient-28)"/>
      <ellipse id="Elipse_8" data-name="Elipse 8" cx="6.297" cy="6.297" rx="6.297" ry="6.297" transform="translate(13.983 138.081)" fill="#fff" opacity="0.2"/>
      <rect id="Rectángulo_8" data-name="Rectángulo 8" width="48.914" height="30.938" rx="7.774" transform="translate(247.209 258.917)" fill="url(#linear-gradient-29)" style="mix-blend-mode: multiply;isolation: isolate"/>
      <rect id="Rectángulo_9" data-name="Rectángulo 9" width="48.914" height="30.938" rx="7.774" transform="translate(246.213 257.449)" fill="#fff"/>
      <rect id="Rectángulo_10" data-name="Rectángulo 10" width="39.33" height="2.127" transform="translate(251.144 274.386)" fill="#f5cec7"/>
      <rect id="Rectángulo_11" data-name="Rectángulo 11" width="39.33" height="2.127" transform="translate(251.144 279.637)" fill="#f5cec7"/>
      <rect id="Rectángulo_12" data-name="Rectángulo 12" width="48.648" height="8.773" rx="4.386" transform="translate(147.723 67.163)" fill="#fff" opacity="0.2"/>
      <ellipse id="Elipse_9" data-name="Elipse 9" cx="4.243" cy="4.243" rx="4.243" ry="4.243" transform="translate(198.527 67.306)" fill="#fff" opacity="0.2"/>
      <path id="Trazado_141" data-name="Trazado 141" d="M711.292,541.186c2.632-4.676,6.8-8.264,10.877-11.75l16.869-14.414a6.022,6.022,0,0,1,3.086-1.714c2.846-.3,4.442,3.24,4.634,6.1.654,9.7-4.453,19.192-11.825,25.537-5.263,4.53-13.729,9.872-20.817,10.64C706.239,556.432,708.938,545.365,711.292,541.186Z" transform="translate(-690.69 -295.785)" fill="#fda57c"/>
      <path id="Trazado_142" data-name="Trazado 142" d="M709.256,579.68c-.992-2.869-1.019-6.236.667-8.761,2.344-3.512,7.021-4.347,11.094-5.463a45.449,45.449,0,0,0,17.271-9.1c1.9-1.607,4.606-3.448,6.582-1.938a4.522,4.522,0,0,1,1.425,2.707c1.828,8.2-3.168,16.7-10.037,21.525-4.99,3.508-10.825,5.474-16.678,6.994C713.581,587.2,711.391,585.854,709.256,579.68Z" transform="translate(-690.385 -313.662)" fill="#fda57c"/>
      <path id="Trazado_143" data-name="Trazado 143" d="M702.918,605.582a11.834,11.834,0,0,1,5.582-6.639,35.157,35.157,0,0,1,8.278-3.167l13.571-3.917c1.757-.507,3.635-1.015,5.384-.482a6.549,6.549,0,0,1,3.871,3.9c1.939,4.662,0,10.272-3.611,13.8s-8.578,5.314-13.505,6.418c-3.63.813-11.289,3.805-14.884,2.763C703.5,617.072,701.917,609.108,702.918,605.582Z" transform="translate(-680.756 -330.094)" fill="#fda57c"/>
      <path id="Trazado_144" data-name="Trazado 144" d="M693.765,627.717c2.273-2.665,6.006-3.6,9.508-3.668s6.993.586,10.492.43c4.317-.194,8.47-1.605,12.6-2.862,1.986-.6,4.537-1.01,5.8.64,1.379,1.808-.056,4.38-1.61,6.039a37.448,37.448,0,0,1-37.636,9.912,35.167,35.167,0,0,1-.6-4.4A7.06,7.06,0,0,1,693.765,627.717Z" transform="translate(-667.233 -343.286)" fill="#fda57c"/>
    </g>
  </g>
</svg>
