<svg xmlns="http://www.w3.org/2000/svg" width="113" height="113" viewBox="0 0 113 113">
  <g id="Grupo_948334" data-name="Grupo 948334" transform="translate(0)">
    <ellipse id="Elipse_5327" data-name="Elipse 5327" cx="56.5" cy="56.5" rx="56.5" ry="56.5" transform="translate(0)" fill="#0e494d"/>
    <g id="matraz" transform="translate(27.71 27.734)">
      <path id="Trazado_683676" data-name="Trazado 683676" d="M133.025,88.76l-2.856,4.76h-5.712L121.6,88.76,124.456,84h5.712Z" transform="translate(-107.319 -74.003)" fill="#f48827"/>
      <path id="Trazado_683677" data-name="Trazado 683677" d="M349.025,128.76l-2.856,4.76h-5.712l-2.856-4.76,2.856-4.76h5.712Z" transform="translate(-297.612 -109.243)" fill="#789dc3"/>
      <path id="Trazado_683678" data-name="Trazado 683678" d="M277.025,168.76l-2.856,4.76h-5.712l-2.856-4.76,2.856-4.76h5.712Z" transform="translate(-234.181 -144.482)" fill="#d94a56"/>
      <path id="Trazado_683679" data-name="Trazado 683679" d="M277.025,88.76l-2.856,4.76h-5.712L265.6,88.76,268.456,84h5.712Z" transform="translate(-234.181 -74.003)" fill="#42a24f"/>
      <path id="Trazado_683680" data-name="Trazado 683680" d="M205.025,48.76l-2.856,4.76h-5.712L193.6,48.76,196.456,44h5.712Z" transform="translate(-170.75 -38.764)" fill="#789dc3"/>
      <path id="Trazado_683681" data-name="Trazado 683681" d="M277.025,8.76l-2.856,4.76h-5.712L265.6,8.76,268.456,4h5.712Z" transform="translate(-234.181 -3.524)" fill="#f48827"/>
      <path id="Trazado_683682" data-name="Trazado 683682" d="M349.025,48.76l-2.856,4.76h-5.712L337.6,48.76,340.456,44h5.712Z" transform="translate(-297.612 -38.764)" fill="#d94a56"/>
      <path id="Trazado_683683" data-name="Trazado 683683" d="M349.025,208.76l-2.856,4.76h-5.712l-2.856-4.76,2.856-4.76h5.712Z" transform="translate(-297.612 -179.722)" fill="#42a24f"/>
      <path id="Trazado_683684" data-name="Trazado 683684" d="M24.45,133.9h0a1.91,1.91,0,0,0-1.9-1.9H13.025a1.91,1.91,0,0,0-1.9,1.9h0a1.91,1.91,0,0,0,1.9,1.9h0v11.425L2.076,167.322a4.271,4.271,0,0,0-.476,1.809v.952a3.82,3.82,0,0,0,3.808,3.808H30.162a3.82,3.82,0,0,0,3.808-3.808v-.952a3.938,3.938,0,0,0-.476-1.809L22.546,147.233V135.808h0A1.91,1.91,0,0,0,24.45,133.9Z" transform="translate(-1.6 -116.291)" fill="#d3d2d6"/>
      <path id="Trazado_683685" data-name="Trazado 683685" d="M30.162,343.042a3.82,3.82,0,0,0,3.808-3.808v-.952a3.938,3.938,0,0,0-.476-1.809L26.735,324H25.307a1.88,1.88,0,0,0-1.333.571l-.762.762a1.88,1.88,0,0,1-1.333.571h-.286a1.88,1.88,0,0,1-1.333-.571l-.762-.762A1.88,1.88,0,0,0,18.166,324h-.286a1.88,1.88,0,0,0-1.333.571l-.762.762a1.88,1.88,0,0,1-1.333.571h-.286a1.88,1.88,0,0,1-1.333-.571l-.762-.762A1.88,1.88,0,0,0,10.74,324h-1.9l-6.76,12.472a3.938,3.938,0,0,0-.476,1.809v.952a3.82,3.82,0,0,0,3.808,3.808Z" transform="translate(-1.6 -285.441)" fill="#d94a56"/>
      <g id="Grupo_945173" data-name="Grupo 945173" transform="translate(4.76 44.272)">
        <ellipse id="Elipse_5391" data-name="Elipse 5391" cx="2.856" cy="2.856" rx="2.856" ry="2.856" transform="translate(0 3.808)" fill="#fff"/>
        <ellipse id="Elipse_5392" data-name="Elipse 5392" cx="1.904" cy="1.904" rx="1.904" ry="1.904" transform="translate(10.473 5.712)" fill="#fff"/>
        <ellipse id="Elipse_5393" data-name="Elipse 5393" cx="1.904" cy="1.904" rx="1.904" ry="1.904" transform="translate(16.185)" fill="#fff"/>
      </g>
      <g id="Grupo_945174" data-name="Grupo 945174" transform="translate(8.569 32.847)">
        <rect id="Rectángulo_337380" data-name="Rectángulo 337380" width="1.904" height="1.904" transform="translate(0 10.473)" fill="#d3d2d6"/>
        <rect id="Rectángulo_337381" data-name="Rectángulo 337381" width="1.904" height="1.904" transform="translate(3.808 10.473)" fill="#d3d2d6"/>
        <rect id="Rectángulo_337382" data-name="Rectángulo 337382" width="1.904" height="1.904" transform="translate(19.042 19.994)" fill="#d3d2d6"/>
        <rect id="Rectángulo_337383" data-name="Rectángulo 337383" width="1.904" height="1.904" transform="translate(15.233 19.994)" fill="#d3d2d6"/>
        <path id="Trazado_683686" data-name="Trazado 683686" d="M303.351,276v8.093a8.582,8.582,0,1,0,10.949,5.236,8.416,8.416,0,0,0-5.236-5.236V276" transform="translate(-270.98 -276)" fill="#d3d2d6"/>
      </g>
      <path id="Trazado_683687" data-name="Trazado 683687" d="M308.516,413.521a8.574,8.574,0,0,0,8.569-8.474,3.9,3.9,0,0,0-.1-1.047h-1.047a1.88,1.88,0,0,0-1.333.571l-.762.762a1.88,1.88,0,0,1-1.333.571h-.286a1.88,1.88,0,0,1-1.333-.571l-.762-.762A1.88,1.88,0,0,0,308.8,404h-.286a1.88,1.88,0,0,0-1.333.571l-.762.762a1.88,1.88,0,0,1-1.333.571H304.8a1.88,1.88,0,0,1-1.333-.571l-.762-.762a1.88,1.88,0,0,0-1.333-.571h-1.047a8.415,8.415,0,0,0,7.426,9.426C307.85,413.521,308.135,413.521,308.516,413.521Z" transform="translate(-264.72 -355.92)" fill="#789dc3"/>
      <rect id="Rectángulo_337384" data-name="Rectángulo 337384" width="9.521" height="1.904" transform="translate(39.035 31.895)" fill="#858486"/>
      <g id="Grupo_945175" data-name="Grupo 945175" transform="translate(30.419)">
        <rect id="Rectángulo_337385" data-name="Rectángulo 337385" width="1.904" height="1.904" transform="translate(10.521 52.841)" fill="#d3d2d6"/>
        <rect id="Rectángulo_337386" data-name="Rectángulo 337386" width="1.904" height="1.904" transform="translate(14.329 52.841)" fill="#d3d2d6"/>
        <path id="Trazado_683688" data-name="Trazado 683688" d="M270.2,6.189h4.665l2.571,4.284a1,1,0,0,0,.857.476H284v-1.9H278.86l-2.285-3.808L279.145.952,277.527,0l-2.761,4.284h-5.141a1,1,0,0,0-.857.476L266.2,9.045h-5.141a1,1,0,0,0-.857.476l-2.856,4.76a.865.865,0,0,0,0,.952l2.856,4.76a1,1,0,0,0,.857.476H266.2l2.571,4.284a1,1,0,0,0,.857.476h5.712a1,1,0,0,0,.857-.476l2.571-4.284h5.141v-1.9h-5.141l-2.571-4.284a1,1,0,0,0-.857-.476H270.2l-1.142-1.9L267.911,10Zm-10.854,8.569,2.285-3.808h4.665l1.142,1.9,1.142,1.9-1.142,1.9-1.142,1.9h-4.665Zm17.709,4.76-2.285,3.808H270.1l-2.285-3.808,1.142-1.9,1.143-1.9h4.665Z" transform="translate(-257.2)" fill="#d3d2d6"/>
      </g>
      <g id="Grupo_945176" data-name="Grupo 945176" transform="translate(11.425 20.47)">
        <rect id="Rectángulo_337387" data-name="Rectángulo 337387" width="5.712" height="1.904" transform="translate(29.515 15.233)" fill="#858486"/>
        <rect id="Rectángulo_337388" data-name="Rectángulo 337388" width="9.521" height="1.904" transform="translate(0)" fill="#858486"/>
      </g>
      <ellipse id="Elipse_5394" data-name="Elipse 5394" cx="1.904" cy="1.904" rx="1.904" ry="1.904" transform="translate(9.521 8.093)" fill="#789dc3"/>
      <ellipse id="Elipse_5395" data-name="Elipse 5395" cx="2.856" cy="2.856" rx="2.856" ry="2.856" transform="translate(15.233 0.476)" fill="#f48827"/>
      <ellipse id="Elipse_5396" data-name="Elipse 5396" cx="3.808" cy="3.808" rx="3.808" ry="3.808" transform="translate(0 0.476)" fill="#d94a56"/>
    </g>
  </g>
</svg>
