<svg xmlns="http://www.w3.org/2000/svg" width="113" height="113" viewBox="0 0 113 113">
  <g id="Grupo_948333" data-name="Grupo 948333" transform="translate(0)">
    <ellipse id="Elipse_5223" data-name="Elipse 5223" cx="56.5" cy="56.5" rx="56.5" ry="56.5" transform="translate(0)" fill="#0e494d"/>
    <g id="_x33_3" transform="translate(25 25)">
      <g id="Grupo_945004" data-name="Grupo 945004" transform="translate(38.866 19.802)">
        <g id="Grupo_945003" data-name="Grupo 945003" transform="translate(0)">
          <path id="Trazado_683614" data-name="Trazado 683614" d="M50.744,29.386l-4.287,2.571-3.163-.866L44.522,26.1,48.7,24.5a7.8,7.8,0,0,0,.768.8C49.571,25.329,50.744,29.386,50.744,29.386Z" transform="translate(-43.294 -24.501)" fill="#f9c4c0"/>
        </g>
      </g>
      <g id="Grupo_945006" data-name="Grupo 945006" transform="translate(17.027 20.547)">
        <g id="Grupo_945005" data-name="Grupo 945005">
          <path id="Trazado_683615" data-name="Trazado 683615" d="M46.166,31.951,39.9,39.029l-4.277,4.446A5,5,0,0,1,31.6,45.421a3.229,3.229,0,0,1-.561-.046,4.912,4.912,0,0,1-2.593-1.122l-.152-.125-7.078-5.937,5.258-12.936,1.056.072a7.07,7.07,0,0,1,6.234,4.809l.666,1.992,9.158-6.822Z" transform="translate(-21.214 -25.255)" fill="#f1f7ff"/>
        </g>
      </g>
      <g id="Grupo_945008" data-name="Grupo 945008" transform="translate(23.493 25.066)">
        <g id="Grupo_945007" data-name="Grupo 945007">
          <path id="Trazado_683616" data-name="Trazado 683616" d="M41.05,37.859l-5.358,5.666a5,5,0,0,1-4.024,1.946,3.229,3.229,0,0,1-.561-.046A4.912,4.912,0,0,1,28.515,44.3l-.152-.125a11.412,11.412,0,0,1-.607-4.275,19.661,19.661,0,0,1,1.174-6.168c.594-1.63,1.537-3.3,3.153-3.912l-.495.607c.376.9.752,1.808,1.174,2.685a7.474,7.474,0,0,0,1.814,2.566,6.778,6.778,0,0,0,2.7,1.24A19.993,19.993,0,0,0,41.05,37.859Z" transform="translate(-27.752 -29.823)" fill="#c7dafa"/>
        </g>
      </g>
      <g id="Grupo_945100" data-name="Grupo 945100" transform="translate(3.608)">
        <g id="Grupo_945099" data-name="Grupo 945099" transform="translate(0)">
          <g id="Grupo_945011" data-name="Grupo 945011" transform="translate(12.319 49.066)">
            <g id="Grupo_945010" data-name="Grupo 945010">
              <g id="Grupo_945009" data-name="Grupo 945009">
                <path id="Trazado_683617" data-name="Trazado 683617" d="M20.376,66.893,20.1,54.087l10.419.957V66.893Z" transform="translate(-20.103 -54.087)" fill="#363383"/>
              </g>
            </g>
          </g>
          <g id="Grupo_945014" data-name="Grupo 945014" transform="translate(0.551 47.457)">
            <g id="Grupo_945013" data-name="Grupo 945013">
              <g id="Grupo_945012" data-name="Grupo 945012">
                <path id="Trazado_683618" data-name="Trazado 683618" d="M8.205,66.876V53.453L23,52.46,21.832,66.876Z" transform="translate(-8.205 -52.46)" fill="#5150ac"/>
              </g>
            </g>
          </g>
          <g id="Grupo_945098" data-name="Grupo 945098">
            <g id="Grupo_945086" data-name="Grupo 945086" transform="translate(2.611)">
              <g id="Grupo_945085" data-name="Grupo 945085">
                <g id="Grupo_945084" data-name="Grupo 945084">
                  <g id="Grupo_945083" data-name="Grupo 945083">
                    <g id="Grupo_945066" data-name="Grupo 945066">
                      <g id="Grupo_945065" data-name="Grupo 945065">
                        <g id="Grupo_945017" data-name="Grupo 945017" transform="translate(0.001 20.263)">
                          <g id="Grupo_945016" data-name="Grupo 945016">
                            <g id="Grupo_945015" data-name="Grupo 945015">
                              <path id="Trazado_683619" data-name="Trazado 683619" d="M30.239,31.111v20.3H10.289v-22.2a4.24,4.24,0,0,1,4.24-4.24h9.544A6.153,6.153,0,0,1,30.239,31.111Z" transform="translate(-10.289 -24.967)" fill="#79affe"/>
                            </g>
                          </g>
                        </g>
                        <g id="Grupo_945021" data-name="Grupo 945021" transform="translate(0 46.401)">
                          <g id="Grupo_945020" data-name="Grupo 945020" transform="translate(0 0)">
                            <g id="Grupo_945019" data-name="Grupo 945019">
                              <g id="Grupo_945018" data-name="Grupo 945018">
                                <path id="Trazado_683620" data-name="Trazado 683620" d="M0,0H19.952V2.037H0Z" transform="translate(19.952 2.037) rotate(180)"/>
                              </g>
                            </g>
                          </g>
                        </g>
                        <g id="Grupo_945024" data-name="Grupo 945024" transform="translate(19.951 27.421)">
                          <g id="Grupo_945023" data-name="Grupo 945023" transform="translate(0)">
                            <g id="Grupo_945022" data-name="Grupo 945022">
                              <path id="Trazado_683621" data-name="Trazado 683621" d="M31.14,32.611V43.175a3.893,3.893,0,0,1-.681-.5V32.611A.377.377,0,0,1,30.8,32.2.382.382,0,0,1,31.14,32.611Z" transform="translate(-30.459 -32.204)" fill="#f2cf77"/>
                            </g>
                          </g>
                        </g>
                        <g id="Grupo_945028" data-name="Grupo 945028" transform="translate(11.331 45.846)">
                          <g id="Grupo_945027" data-name="Grupo 945027">
                            <g id="Grupo_945026" data-name="Grupo 945026">
                              <g id="Grupo_945025" data-name="Grupo 945025">
                                <path id="Trazado_683622" data-name="Trazado 683622" d="M21.743,53.407v-1.93a.646.646,0,0,1,.645-.645h3.968a.646.646,0,0,1,.645.645v1.93a.646.646,0,0,1-.645.646H22.389A.646.646,0,0,1,21.743,53.407Zm.617-1.93v1.93a.029.029,0,0,0,.029.029l4-.029-.029-1.958Z" transform="translate(-21.743 -50.832)" fill="#fff"/>
                              </g>
                            </g>
                          </g>
                        </g>
                        <g id="Grupo_945061" data-name="Grupo 945061" transform="translate(1.925)">
                          <g id="Grupo_945031" data-name="Grupo 945031" transform="translate(10.894 1.959)">
                            <g id="Grupo_945030" data-name="Grupo 945030" transform="translate(0)">
                              <g id="Grupo_945029" data-name="Grupo 945029">
                                <path id="Trazado_683623" data-name="Trazado 683623" d="M29.637,10.39c0,2.17-1.371,3.928-3.061,3.928a3.366,3.366,0,0,1-3.328-3.507c0-2.17,1.637-4.35,3.328-4.35S29.637,8.22,29.637,10.39Z" transform="translate(-23.248 -6.462)" fill="#333077"/>
                              </g>
                            </g>
                          </g>
                          <g id="Grupo_945034" data-name="Grupo 945034" transform="translate(0 3.107)">
                            <g id="Grupo_945033" data-name="Grupo 945033">
                              <g id="Grupo_945032" data-name="Grupo 945032">
                                <path id="Trazado_683624" data-name="Trazado 683624" d="M12.234,12.425c0,2.558,1.933,6.028,4.26,6.258.082.008.164.008.247.008,2,0,3.618-2.434,4.137-4.77a1.948,1.948,0,0,0,.041-.214,6.35,6.35,0,0,0,.132-1.283,5,5,0,0,0-.313-1.768,4.574,4.574,0,0,0-2.5-2.706,4.013,4.013,0,0,0-1.6-.329.542.542,0,0,0-.115.008,4.062,4.062,0,0,0-2.574,1,1.063,1.063,0,0,0-.148.132,4.8,4.8,0,0,0-.559.592A5.107,5.107,0,0,0,12.234,12.425Z" transform="translate(-12.234 -7.622)" fill="#333077"/>
                              </g>
                            </g>
                          </g>
                          <g id="Grupo_945037" data-name="Grupo 945037" transform="translate(0 4.834)" opacity="0.15">
                            <g id="Grupo_945036" data-name="Grupo 945036">
                              <g id="Grupo_945035" data-name="Grupo 945035">
                                <path id="Trazado_683625" data-name="Trazado 683625" d="M18.361,16.589a14.243,14.243,0,0,1,2.516-2.648c.082-.066.156-.123.239-.181a1.646,1.646,0,0,1-.2-.033,9.485,9.485,0,0,1-1.439-.288c-.888,1.217-2.1,2.237-3.092,2.237-1.817,0-3.684-2.582-3.684-4.4A3.451,3.451,0,0,1,13.3,9.417l-.049-.049a5.107,5.107,0,0,0-1.012,3.076c0,2.558,1.933,6.028,4.26,6.258" transform="translate(-12.234 -9.368)"/>
                              </g>
                            </g>
                          </g>
                          <g id="Grupo_945040" data-name="Grupo 945040" transform="translate(4.501 12.844)">
                            <g id="Grupo_945039" data-name="Grupo 945039">
                              <g id="Grupo_945038" data-name="Grupo 945038">
                                <path id="Trazado_683626" data-name="Trazado 683626" d="M16.785,17.467h6.109v7.416H16.785Z" transform="translate(-16.785 -17.467)" fill="#f9c4c0"/>
                              </g>
                            </g>
                          </g>
                          <g id="Grupo_945043" data-name="Grupo 945043" transform="translate(4.501 11.585)">
                            <g id="Grupo_945042" data-name="Grupo 945042">
                              <g id="Grupo_945041" data-name="Grupo 945041">
                                <path id="Trazado_683627" data-name="Trazado 683627" d="M22.893,16.194v5.7a10.906,10.906,0,0,1-6.109.873V16.194Z" transform="translate(-16.785 -16.194)" fill="#fd9997"/>
                              </g>
                            </g>
                          </g>
                          <g id="Grupo_945046" data-name="Grupo 945046" transform="translate(4.505 3.414)">
                            <g id="Grupo_945045" data-name="Grupo 945045">
                              <g id="Grupo_945044" data-name="Grupo 945044">
                                <path id="Trazado_683628" data-name="Trazado 683628" d="M27.475,13.276v3.676a5.343,5.343,0,0,1-10.686,0V13.276a5.343,5.343,0,0,1,10.686,0Z" transform="translate(-16.789 -7.932)" fill="#f9c4c0"/>
                              </g>
                            </g>
                          </g>
                          <g id="Grupo_945049" data-name="Grupo 945049" transform="translate(0.469 3.107)">
                            <g id="Grupo_945048" data-name="Grupo 945048">
                              <g id="Grupo_945047" data-name="Grupo 945047">
                                <path id="Trazado_683629" data-name="Trazado 683629" d="M12.708,11.257c0,1.817,1.867,4.4,3.684,4.4,1,0,2.2-1.02,3.092-2.237a5.746,5.746,0,0,0,1.283-2.993c0-1.817-2.681-2.8-4.49-2.8A3.748,3.748,0,0,0,13.3,9.4,3.451,3.451,0,0,0,12.708,11.257Z" transform="translate(-12.708 -7.622)" fill="#333077"/>
                              </g>
                            </g>
                          </g>
                          <g id="Grupo_945052" data-name="Grupo 945052" transform="translate(2.025)">
                            <g id="Grupo_945051" data-name="Grupo 945051">
                              <g id="Grupo_945050" data-name="Grupo 945050">
                                <path id="Trazado_683630" data-name="Trazado 683630" d="M29.176,8.835c.48,4.006-14.505,4.416-14.868.561-.462-4.914,5.09-4.914,8.761-4.914S28.9,6.488,29.176,8.835Z" transform="translate(-14.282 -4.481)" fill="#333077"/>
                              </g>
                            </g>
                          </g>
                          <g id="Grupo_945057" data-name="Grupo 945057" transform="translate(9.091 9.87)">
                            <g id="Grupo_945054" data-name="Grupo 945054" transform="translate(0)">
                              <g id="Grupo_945053" data-name="Grupo 945053">
                                <path id="Trazado_683631" data-name="Trazado 683631" d="M22.425,15.137c0,.379-.226.685-.5.685s-.5-.306-.5-.685.226-.677.5-.677S22.425,14.758,22.425,15.137Z" transform="translate(-21.426 -14.46)" fill="#373754"/>
                              </g>
                            </g>
                            <g id="Grupo_945056" data-name="Grupo 945056" transform="translate(3.546)">
                              <g id="Grupo_945055" data-name="Grupo 945055" transform="translate(0)">
                                <path id="Trazado_683632" data-name="Trazado 683632" d="M26.01,15.137c0,.379-.226.685-.5.685s-.5-.306-.5-.685.226-.677.5-.677S26.01,14.758,26.01,15.137Z" transform="translate(-25.01 -14.46)" fill="#373754"/>
                              </g>
                            </g>
                          </g>
                          <g id="Grupo_945060" data-name="Grupo 945060" transform="translate(9.445 13.541)">
                            <g id="Grupo_945059" data-name="Grupo 945059">
                              <g id="Grupo_945058" data-name="Grupo 945058">
                                <path id="Trazado_683633" data-name="Trazado 683633" d="M21.792,18.172c0,.029-.009.057-.009.087a2.027,2.027,0,1,0,4.053,0c0-.03-.008-.057-.009-.087Z" transform="translate(-21.783 -18.172)" fill="#fff"/>
                              </g>
                            </g>
                          </g>
                        </g>
                        <g id="Grupo_945064" data-name="Grupo 945064" transform="translate(2.394 4.883)" opacity="0.15">
                          <g id="Grupo_945063" data-name="Grupo 945063" transform="translate(0)">
                            <g id="Grupo_945062" data-name="Grupo 945062">
                              <path id="Trazado_683634" data-name="Trazado 683634" d="M12.708,11.277c0,1.817,1.867,4.4,3.684,4.4,1,0,2.2-1.02,3.092-2.237A12.242,12.242,0,0,1,13.942,10.1c-.2-.2-.411-.444-.641-.683A3.451,3.451,0,0,0,12.708,11.277Z" transform="translate(-12.708 -9.418)"/>
                            </g>
                          </g>
                        </g>
                      </g>
                    </g>
                    <g id="Grupo_945073" data-name="Grupo 945073" transform="translate(10.434 20.545)">
                      <g id="Grupo_945069" data-name="Grupo 945069" transform="translate(0)">
                        <g id="Grupo_945068" data-name="Grupo 945068">
                          <g id="Grupo_945067" data-name="Grupo 945067">
                            <path id="Trazado_683635" data-name="Trazado 683635" d="M26.532,47.174,24.1,50.07l-3.084-2.9-.183-21.922h1.389Z" transform="translate(-20.837 -25.252)" fill="#353e57"/>
                          </g>
                        </g>
                      </g>
                      <g id="Grupo_945072" data-name="Grupo 945072" transform="translate(0.99 0.003)" opacity="0.08">
                        <g id="Grupo_945071" data-name="Grupo 945071">
                          <g id="Grupo_945070" data-name="Grupo 945070">
                            <path id="Trazado_683636" data-name="Trazado 683636" d="M26.54,47.175l-2.422,2.892-.378-.356,2.344-2.8L21.838,25.256h.4Z" transform="translate(-21.838 -25.256)"/>
                          </g>
                        </g>
                      </g>
                    </g>
                    <g id="Grupo_945076" data-name="Grupo 945076" transform="translate(8.049 20.262)">
                      <g id="Grupo_945075" data-name="Grupo 945075">
                        <g id="Grupo_945074" data-name="Grupo 945074">
                          <path id="Trazado_683637" data-name="Trazado 683637" d="M23.658,24.966l-2.066,3.828-3.167-3.828Z" transform="translate(-18.426 -24.966)" fill="#353e57"/>
                        </g>
                      </g>
                    </g>
                    <g id="Grupo_945079" data-name="Grupo 945079" transform="translate(5.236 19.068)">
                      <g id="Grupo_945078" data-name="Grupo 945078">
                        <g id="Grupo_945077" data-name="Grupo 945077">
                          <path id="Trazado_683638" data-name="Trazado 683638" d="M15.582,24.952l1.19-1.192,3.985,1.192-1.111,2.486Z" transform="translate(-15.582 -23.759)" fill="#5592ff"/>
                        </g>
                      </g>
                    </g>
                    <g id="Grupo_945082" data-name="Grupo 945082" transform="translate(10.411 19.355)">
                      <g id="Grupo_945081" data-name="Grupo 945081" transform="translate(0)">
                        <g id="Grupo_945080" data-name="Grupo 945080">
                          <path id="Trazado_683639" data-name="Trazado 683639" d="M23.279,27.21l-2.466-2.255,2.124-.905.73.905Z" transform="translate(-20.813 -24.05)" fill="#5592ff"/>
                        </g>
                      </g>
                    </g>
                  </g>
                </g>
              </g>
            </g>
            <g id="Grupo_945089" data-name="Grupo 945089" transform="translate(0 20.263)">
              <g id="Grupo_945088" data-name="Grupo 945088">
                <g id="Grupo_945087" data-name="Grupo 945087">
                  <path id="Trazado_683640" data-name="Trazado 683640" d="M23.9,60.189a4.611,4.611,0,0,1-4.611,4.684H7.892l-.013-1.478L7.661,32.9l-.007-1.088-.007-1.24a5.566,5.566,0,0,1,5.574-5.607h2.269l7.5,8.714.2,5.792.264,7.758.429,12.6v.02Z" transform="translate(-7.648 -24.968)" fill="#f1f7ff"/>
                </g>
              </g>
            </g>
            <g id="Grupo_945092" data-name="Grupo 945092" transform="translate(15.342 20.261)">
              <g id="Grupo_945091" data-name="Grupo 945091" transform="translate(0)">
                <g id="Grupo_945090" data-name="Grupo 945090">
                  <path id="Trazado_683641" data-name="Trazado 683641" d="M31.06,64.488V31.443a6.478,6.478,0,0,0-6.478-6.478h-.889l-.534,8.714.894,26.152a5,5,0,0,0,4.534,4.811Z" transform="translate(-23.159 -24.965)" fill="#f1f7ff"/>
                </g>
              </g>
            </g>
            <g id="Grupo_945094" data-name="Grupo 945094" transform="translate(0.013 26.07)">
              <g id="Grupo_945093" data-name="Grupo 945093">
                <path id="Trazado_683642" data-name="Trazado 683642" d="M30.889,42.808a14.541,14.541,0,0,1-3.015,2.113,10.125,10.125,0,0,0-2.243.884A14.8,14.8,0,0,0,23.454,47.3c-.4.317-.785.646-1.174.976a54.308,54.308,0,0,0-6.049,5.7,41.454,41.454,0,0,0-5.291,8.213c-.35.666-.765,1.412-1.5,1.6a2.145,2.145,0,0,1-1.5-.29c-.02-.013-.04-.02-.059-.033L7.662,32.967A10.725,10.725,0,0,1,9.627,31.4a3.394,3.394,0,0,1,1.5-.561,3.948,3.948,0,0,1,2.322.844c2.447,1.57,4.255,4.2,6.385,6.174.93.864,2.336.93,3.352,1.676a9.266,9.266,0,0,0,1.227.8c1.108.6,2.329.957,3.483,1.465C28.633,42.124,32.057,41.667,30.889,42.808Z" transform="translate(-7.662 -30.838)" fill="#c7dafa"/>
              </g>
            </g>
            <g id="Grupo_945097" data-name="Grupo 945097" transform="translate(15.132 28.957)">
              <g id="Grupo_945096" data-name="Grupo 945096" transform="translate(0 0)">
                <g id="Grupo_945095" data-name="Grupo 945095">
                  <path id="Trazado_683643" data-name="Trazado 683643" d="M0,0H.391V26.156H0Z" transform="translate(0 0.013) rotate(-1.949)" fill="#c7dafa"/>
                </g>
              </g>
            </g>
          </g>
        </g>
      </g>
      <g id="Grupo_945102" data-name="Grupo 945102" transform="translate(0 55.166)">
        <g id="Grupo_945101" data-name="Grupo 945101">
          <path id="Trazado_683644" data-name="Trazado 683644" d="M67.3,61.152v5.391a.9.9,0,0,1-.9.9H4.9a.9.9,0,0,1-.9-.9V61.152a.9.9,0,0,1,.9-.9H66.407A.9.9,0,0,1,67.3,61.152Z" transform="translate(-4 -60.255)" fill="#387094"/>
        </g>
      </g>
      <g id="Grupo_945104" data-name="Grupo 945104" transform="translate(0 55.168)">
        <g id="Grupo_945103" data-name="Grupo 945103">
          <path id="Trazado_683645" data-name="Trazado 683645" d="M67.3,61.153v5.39a.9.9,0,0,1-.9.9H4.9a.9.9,0,0,1-.9-.9v-.8H64.988a.9.9,0,0,0,.9-.9V60.256h.521A.9.9,0,0,1,67.3,61.153Z" transform="translate(-4 -60.256)" fill="#315a79"/>
        </g>
      </g>
      <g id="Grupo_945106" data-name="Grupo 945106" transform="translate(26.849 31.9)">
        <g id="Grupo_945105" data-name="Grupo 945105" transform="translate(0)">
          <path id="Trazado_683646" data-name="Trazado 683646" d="M31.705,36.733v8.813a3.228,3.228,0,0,1-.561-.046V36.733Z" transform="translate(-31.145 -36.733)" fill="#c7dafa"/>
        </g>
      </g>
      <g id="Grupo_945108" data-name="Grupo 945108" transform="translate(2.621 21.762)">
        <g id="Grupo_945107" data-name="Grupo 945107">
          <path id="Trazado_683647" data-name="Trazado 683647" d="M14.686,27.864l5.973,9.873,16.4-5.138,2.114,6.522L20.354,47.378a4.588,4.588,0,0,1-5.762-1.816L7.336,33.636A4.706,4.706,0,0,1,8,27.889H8A4.706,4.706,0,0,1,14.686,27.864Z" transform="translate(-6.65 -26.483)" fill="#f1f7ff"/>
        </g>
      </g>
      <g id="Grupo_945142" data-name="Grupo 945142" transform="translate(43.034 37.725)">
        <g id="Grupo_945130" data-name="Grupo 945130" transform="translate(2.981)">
          <g id="Grupo_945115" data-name="Grupo 945115" transform="translate(0)">
            <g id="Grupo_945110" data-name="Grupo 945110" transform="translate(0.731 0.259)">
              <g id="Grupo_945109" data-name="Grupo 945109">
                <path id="Trazado_683648" data-name="Trazado 683648" d="M51.259,42.884V54.6a1.393,1.393,0,0,0,2.786,0V42.884ZM53.553,54.6a.9.9,0,1,1-1.8,0V43.376h1.8Z" transform="translate(-51.259 -42.884)" fill="#c7dafa"/>
              </g>
            </g>
            <g id="Grupo_945112" data-name="Grupo 945112" transform="translate(1.222 5.251)">
              <g id="Grupo_945111" data-name="Grupo 945111">
                <path id="Trazado_683649" data-name="Trazado 683649" d="M51.756,47.93v6.725a.9.9,0,0,0,1.8,0V47.93Z" transform="translate(-51.756 -47.93)" fill="#79affe"/>
              </g>
            </g>
            <g id="Grupo_945114" data-name="Grupo 945114">
              <g id="Grupo_945113" data-name="Grupo 945113">
                <path id="Trazado_683650" data-name="Trazado 683650" d="M54.545,43.373h-3.8a.222.222,0,0,1-.222-.222v-.308a.222.222,0,0,1,.222-.222h3.8a.222.222,0,0,1,.222.222v.308A.222.222,0,0,1,54.545,43.373Z" transform="translate(-50.52 -42.622)" fill="#edf5fc"/>
              </g>
            </g>
          </g>
          <g id="Grupo_945122" data-name="Grupo 945122" transform="translate(4.481)">
            <g id="Grupo_945117" data-name="Grupo 945117" transform="translate(0.731 0.259)">
              <g id="Grupo_945116" data-name="Grupo 945116">
                <path id="Trazado_683651" data-name="Trazado 683651" d="M55.789,42.884V54.6a1.393,1.393,0,0,0,2.786,0V42.884ZM58.084,54.6a.9.9,0,0,1-1.8,0V43.376h1.8Z" transform="translate(-55.789 -42.884)" fill="#c7dafa"/>
              </g>
            </g>
            <g id="Grupo_945119" data-name="Grupo 945119" transform="translate(1.222 5.251)">
              <g id="Grupo_945118" data-name="Grupo 945118">
                <path id="Trazado_683652" data-name="Trazado 683652" d="M56.286,47.93v6.725a.9.9,0,0,0,1.8,0V47.93Z" transform="translate(-56.286 -47.93)" fill="#65f0ac"/>
              </g>
            </g>
            <g id="Grupo_945121" data-name="Grupo 945121">
              <g id="Grupo_945120" data-name="Grupo 945120">
                <path id="Trazado_683653" data-name="Trazado 683653" d="M59.076,43.373h-3.8a.222.222,0,0,1-.222-.222v-.308a.222.222,0,0,1,.222-.222h3.8a.222.222,0,0,1,.222.222v.308A.222.222,0,0,1,59.076,43.373Z" transform="translate(-55.051 -42.622)" fill="#edf5fc"/>
              </g>
            </g>
          </g>
          <g id="Grupo_945129" data-name="Grupo 945129" transform="translate(8.962)">
            <g id="Grupo_945124" data-name="Grupo 945124" transform="translate(0.731 0.259)">
              <g id="Grupo_945123" data-name="Grupo 945123">
                <path id="Trazado_683654" data-name="Trazado 683654" d="M60.32,42.884V54.6a1.393,1.393,0,0,0,2.786,0V42.884ZM62.614,54.6a.9.9,0,1,1-1.8,0V43.376h1.8Z" transform="translate(-60.32 -42.884)" fill="#c7dafa"/>
              </g>
            </g>
            <g id="Grupo_945126" data-name="Grupo 945126" transform="translate(1.222 5.251)">
              <g id="Grupo_945125" data-name="Grupo 945125">
                <path id="Trazado_683655" data-name="Trazado 683655" d="M60.817,47.93v6.725a.9.9,0,0,0,1.8,0V47.93Z" transform="translate(-60.817 -47.93)" fill="#fcba97"/>
              </g>
            </g>
            <g id="Grupo_945128" data-name="Grupo 945128" transform="translate(0)">
              <g id="Grupo_945127" data-name="Grupo 945127">
                <path id="Trazado_683656" data-name="Trazado 683656" d="M63.606,43.373H59.8a.222.222,0,0,1-.222-.222v-.308a.222.222,0,0,1,.222-.222h3.8a.222.222,0,0,1,.222.222v.308A.222.222,0,0,1,63.606,43.373Z" transform="translate(-59.581 -42.622)" fill="#edf5fc"/>
              </g>
            </g>
          </g>
        </g>
        <g id="Grupo_945132" data-name="Grupo 945132" transform="translate(0 16.336)">
          <g id="Grupo_945131" data-name="Grupo 945131">
            <path id="Trazado_683657" data-name="Trazado 683657" d="M47.507,59.137H66.678v1.139H47.507Z" transform="translate(-47.507 -59.137)" fill="#daeaf9"/>
          </g>
        </g>
        <g id="Grupo_945134" data-name="Grupo 945134" transform="translate(0 15.143)">
          <g id="Grupo_945133" data-name="Grupo 945133">
            <path id="Trazado_683658" data-name="Trazado 683658" d="M47.507,57.931H66.678v1.193H47.507Z" transform="translate(-47.507 -57.931)" fill="#edf5fc"/>
          </g>
        </g>
        <g id="Grupo_945136" data-name="Grupo 945136" transform="translate(0 3.49)">
          <g id="Grupo_945135" data-name="Grupo 945135">
            <path id="Trazado_683659" data-name="Trazado 683659" d="M47.507,46.15H66.678v1.193H47.507Z" transform="translate(-47.507 -46.15)" fill="#edf5fc"/>
          </g>
        </g>
        <g id="Grupo_945141" data-name="Grupo 945141" transform="translate(1.492 4.683)">
          <g id="Grupo_945138" data-name="Grupo 945138" transform="translate(14.875)">
            <g id="Grupo_945137" data-name="Grupo 945137" transform="translate(0)">
              <path id="Trazado_683660" data-name="Trazado 683660" d="M64.054,47.356h1.313V59.009H64.054Z" transform="translate(-64.054 -47.356)" fill="#edf5fc"/>
            </g>
          </g>
          <g id="Grupo_945140" data-name="Grupo 945140" transform="translate(0)">
            <g id="Grupo_945139" data-name="Grupo 945139" transform="translate(0)">
              <path id="Trazado_683661" data-name="Trazado 683661" d="M49.015,47.356h1.313V59.009H49.015Z" transform="translate(-49.015 -47.356)" fill="#edf5fc"/>
            </g>
          </g>
        </g>
      </g>
      <g id="Grupo_945161" data-name="Grupo 945161" transform="translate(31.941 39.028)">
        <g id="Grupo_945144" data-name="Grupo 945144" transform="translate(3.434 1.144)" opacity="0.7">
          <g id="Grupo_945143" data-name="Grupo 945143">
            <path id="Trazado_683662" data-name="Trazado 683662" d="M42.751,45.1v5.238a4.979,4.979,0,0,0-2.987,0V45.1Z" transform="translate(-39.763 -45.096)" fill="#5150ac"/>
          </g>
        </g>
        <g id="Grupo_945146" data-name="Grupo 945146" transform="translate(0 6.153)" opacity="0.7">
          <g id="Grupo_945145" data-name="Grupo 945145">
            <path id="Trazado_683663" data-name="Trazado 683663" d="M46.147,55.086a4.918,4.918,0,1,1-3.434-4.7A4.928,4.928,0,0,1,46.147,55.086Z" transform="translate(-36.292 -50.159)" fill="#5150ac"/>
          </g>
        </g>
        <g id="Grupo_945148" data-name="Grupo 945148" transform="translate(3.818 10.921)">
          <g id="Grupo_945147" data-name="Grupo 945147">
            <path id="Trazado_683664" data-name="Trazado 683664" d="M45.207,55.133a1.418,1.418,0,0,0-1.121-.073,3.856,3.856,0,0,0-1.012.55,5.137,5.137,0,0,1-.992.589,2.4,2.4,0,0,1-1.875-.053,3.033,3.033,0,0,0-.047.739,1.02,1.02,0,0,0,.3.661,1.444,1.444,0,0,0,.863.282,5.93,5.93,0,0,0,2.485-.217A3.262,3.262,0,0,0,45,56.882a2.625,2.625,0,0,0,.443-.566c.1-.165.246-.352.221-.551A.921.921,0,0,0,45.207,55.133Z" transform="translate(-40.152 -54.98)" fill="#f99072"/>
          </g>
        </g>
        <g id="Grupo_945150" data-name="Grupo 945150" transform="translate(0.466 9.522)">
          <g id="Grupo_945149" data-name="Grupo 945149">
            <path id="Trazado_683665" data-name="Trazado 683665" d="M45.632,55.811a4.461,4.461,0,0,1-8.869-.687,4.4,4.4,0,0,1,.265-1.511,1.342,1.342,0,0,1,.51-.04,4.744,4.744,0,0,1,3.016,1.375c.307.309.573.661.9.942a1.618,1.618,0,0,0,1.193.434,3.672,3.672,0,0,0,.933-.357,3.629,3.629,0,0,1,1.918-.177C45.546,55.8,45.588,55.8,45.632,55.811Z" transform="translate(-36.763 -53.565)" fill="#fcba97"/>
          </g>
        </g>
        <g id="Grupo_945152" data-name="Grupo 945152" transform="translate(2.482)" opacity="0.7">
          <g id="Grupo_945151" data-name="Grupo 945151">
            <path id="Trazado_683666" data-name="Trazado 683666" d="M43.5,45.083H38.991a.19.19,0,0,1-.19-.19v-.765a.19.19,0,0,1,.19-.19H43.5a.19.19,0,0,1,.19.19v.765A.19.19,0,0,1,43.5,45.083Z" transform="translate(-38.801 -43.939)" fill="#363383"/>
          </g>
        </g>
        <g id="Grupo_945154" data-name="Grupo 945154" transform="translate(5.41 9.644)">
          <g id="Grupo_945153" data-name="Grupo 945153" transform="translate(0)">
            <path id="Trazado_683667" data-name="Trazado 683667" d="M42.35,54.151a.313.313,0,1,1-.127-.424A.312.312,0,0,1,42.35,54.151Z" transform="translate(-41.762 -53.689)" fill="#fcba97"/>
          </g>
        </g>
        <g id="Grupo_945156" data-name="Grupo 945156" transform="translate(6.576 8.2)">
          <g id="Grupo_945155" data-name="Grupo 945155">
            <path id="Trazado_683668" data-name="Trazado 683668" d="M43.529,52.69a.313.313,0,1,1-.127-.424A.312.312,0,0,1,43.529,52.69Z" transform="translate(-42.94 -52.229)" fill="#fcba97"/>
          </g>
        </g>
        <g id="Grupo_945158" data-name="Grupo 945158" transform="translate(4.84 7.531)">
          <g id="Grupo_945157" data-name="Grupo 945157" transform="translate(0)">
            <path id="Trazado_683669" data-name="Trazado 683669" d="M41.913,52.122a.387.387,0,1,1-.157-.524A.386.386,0,0,1,41.913,52.122Z" transform="translate(-41.186 -51.552)" fill="#fcba97"/>
          </g>
        </g>
        <g id="Grupo_945160" data-name="Grupo 945160" transform="translate(3.833 5.087)">
          <g id="Grupo_945159" data-name="Grupo 945159" transform="translate(0)">
            <path id="Trazado_683670" data-name="Trazado 683670" d="M40.895,49.652a.387.387,0,1,1-.157-.524A.386.386,0,0,1,40.895,49.652Z" transform="translate(-40.167 -49.082)" fill="#fcba97"/>
          </g>
        </g>
      </g>
      <g id="Grupo_945168" data-name="Grupo 945168" transform="translate(41.964 15.812)">
        <g id="Grupo_945163" data-name="Grupo 945163" transform="translate(0.518 1.143)">
          <g id="Grupo_945162" data-name="Grupo 945162">
            <path id="Trazado_683671" data-name="Trazado 683671" d="M50.942,21.623v9.785a2,2,0,1,1-3.993,0V21.623Z" transform="translate(-46.949 -21.623)" fill="#f1f7ff"/>
          </g>
        </g>
        <g id="Grupo_945165" data-name="Grupo 945165" transform="translate(0.868 3.024)">
          <g id="Grupo_945164" data-name="Grupo 945164">
            <path id="Trazado_683672" data-name="Trazado 683672" d="M47.3,23.525v7.9a1.647,1.647,0,1,0,3.294,0v-7.9Z" transform="translate(-47.302 -23.525)" fill="#fcba97"/>
          </g>
        </g>
        <g id="Grupo_945167" data-name="Grupo 945167" transform="translate(0)">
          <g id="Grupo_945166" data-name="Grupo 945166">
            <path id="Trazado_683673" data-name="Trazado 683673" d="M51.455,20.8v1.331a.332.332,0,0,1-.342.33H46.767a.332.332,0,0,1-.342-.33V20.8a.332.332,0,0,1,.342-.33h4.346A.332.332,0,0,1,51.455,20.8Z" transform="translate(-46.425 -20.468)" fill="#48609d"/>
          </g>
        </g>
      </g>
      <g id="Grupo_945170" data-name="Grupo 945170" transform="translate(39.398 18.762)">
        <g id="Grupo_945169" data-name="Grupo 945169" transform="translate(0)">
          <path id="Trazado_683674" data-name="Trazado 683674" d="M43.831,25.287l1.94-1.547a1.335,1.335,0,0,1,1.935.293h0a1.335,1.335,0,0,1-.28,1.8l-.449.352a1.336,1.336,0,0,1-.13.09l-2.117,1.288Z" transform="translate(-43.831 -23.449)" fill="#f9c4c0"/>
        </g>
      </g>
      <g id="Grupo_945172" data-name="Grupo 945172" transform="translate(33.037 26.08)">
        <g id="Grupo_945171" data-name="Grupo 945171" transform="translate(0)">
          <path id="Trazado_683675" data-name="Trazado 683675" d="M40.91,34.056l.523,3.645a1.166,1.166,0,0,1-.972,1.317l-.95.15L37.4,32.645s.322-.654.626-1.237a.712.712,0,0,1,1.187-.116l.013.016a.71.71,0,0,1,.077.768l-.292.569,4.222-1.731a.867.867,0,0,1,1.18.635h0a.867.867,0,0,1-.454.939Z" transform="translate(-37.401 -30.849)" fill="#f9c4c0"/>
        </g>
      </g>
    </g>
  </g>
</svg>
