<svg xmlns="http://www.w3.org/2000/svg" width="85" height="85" viewBox="0 0 85 85">
  <g id="Grupo_957553" data-name="Grupo 957553" transform="translate(-332 -866)">
    <circle id="Elipse_7691" data-name="Elipse 7691" cx="42.5" cy="42.5" r="42.5" transform="translate(332 866)" fill="#0e494d"/>
    <g id="microorganismo" transform="translate(348.823 882.823)">
      <g id="Grupo_956471" data-name="Grupo 956471" transform="translate(1.924 27.088)">
        <path id="Trazado_721806" data-name="Trazado 721806" d="M18.962,273.56h.962v3.367h2.405v-.763l-1.783-1.783.68-.68,1.1,1.1v-3.718a1.92,1.92,0,1,1,2.323-2.38,19.286,19.286,0,0,1,3.419-4.992,17.273,17.273,0,0,1-2.527-4.271A23.975,23.975,0,0,0,18,276.927h.962Z" transform="translate(-18 -258.797)" fill="#c7d95d"/>
        <path id="Trazado_721807" data-name="Trazado 721807" d="M374.413,269.269l.136.136v-3.718a1.924,1.924,0,1,1,.962,0V269.4l1.1-1.1.68.68-1.783,1.784v.763h2.405v-2.405h.962v2.405h.481A23.989,23.989,0,0,0,371.1,253.4a17.275,17.275,0,0,1-2.353,4.368A19.182,19.182,0,0,1,374.413,269.269Z" transform="translate(-331.255 -253.398)" fill="#c7d95d"/>
        <path id="Trazado_721808" data-name="Trazado 721808" d="M67.5,366.587v1.573q.205-.91.5-1.785A1.918,1.918,0,0,1,67.5,366.587Z" transform="translate(-62.209 -354.298)" fill="#c7d95d"/>
      </g>
      <g id="Grupo_956472" data-name="Grupo 956472" transform="translate(7.216 31.456)">
        <path id="Trazado_721809" data-name="Trazado 721809" d="M68,306.551q-.289.874-.5,1.785v2.145l1.1-1.1.68.68L67.5,311.842v.763h2.886V302.5h.962v10.1h.481a14.462,14.462,0,0,1,.481-3.7v-3.515h.962v.92a14.439,14.439,0,0,1,2.281-3.378l-3.093-3.314c-.062-.074-.119-.15-.18-.225a19.281,19.281,0,0,0-3.419,4.992A1.862,1.862,0,0,1,68,306.551Z" transform="translate(-67.5 -298.842)" fill="#a7c23b"/>
        <path id="Trazado_721810" data-name="Trazado 721810" d="M341.669,302.84v-2.034h.962v7.216h.962v-10.1h.962v10.1h2.886c0-.263-.009-.523-.02-.783l-1.763-1.764.68-.68.967.967a19.181,19.181,0,0,0-5.663-11.5c-.195.263-.394.522-.6.774L338.4,297.81A14.448,14.448,0,0,1,341.669,302.84Zm0-5.883h.962v2.405h-.962Z" transform="translate(-309.439 -294.259)" fill="#a7c23b"/>
      </g>
      <g id="Grupo_956473" data-name="Grupo 956473" transform="translate(11.545 35.007)">
        <path id="Trazado_721811" data-name="Trazado 721811" d="M121.5,342.178h.962v-6.254h.962v6.254h.962v-3.367h.962v.374a9.594,9.594,0,0,1,1.824-3.245l-3.392-3.435a14.437,14.437,0,0,0-2.281,3.378Z" transform="translate(-120.057 -331.967)" fill="#89a320"/>
        <path id="Trazado_721812" data-name="Trazado 721812" d="M309.681,334.324h.962v3.367h.962v-6.254h.962v6.254h.962V332.51a14.45,14.45,0,0,0-3.271-5.03l-3.368,3.438a9.586,9.586,0,0,1,2.791,6.773v-3.367Z" transform="translate(-285.629 -327.48)" fill="#89a320"/>
        <path id="Trazado_721813" data-name="Trazado 721813" d="M108,392.08h.481v-3.7A14.462,14.462,0,0,0,108,392.08Z" transform="translate(-108 -381.869)" fill="#89a320"/>
      </g>
      <g id="Grupo_956474" data-name="Grupo 956474" transform="translate(16.837 38.445)">
        <path id="Trazado_721814" data-name="Trazado 721814" d="M157.5,370.879h7.983l-6.159-6.238a9.6,9.6,0,0,0-1.824,3.245v2.993Z" transform="translate(-157.5 -364.107)" fill="#6b8014"/>
        <path id="Trazado_721815" data-name="Trazado 721815" d="M251.438,359.641l-6.637,6.773h9.428A9.586,9.586,0,0,0,251.438,359.641Z" transform="translate(-235.469 -359.641)" fill="#6b8014"/>
      </g>
      <path id="Trazado_721816" data-name="Trazado 721816" d="M47.142,423H46.18v.962H4.81V423H3.848v.962H0v4.81H50.991v-4.81H47.142ZM8.178,425.886H4.81v-.962H8.178Zm3.367,1.924H9.14v-.962h2.405Zm1.924-1.924H11.064v-.962h2.405Zm25.5,0H36.078v-.962h2.886Zm4.81,1.924H39.446v-.962h4.329Zm4.329-2.886v.962H44.737v-.962Z" transform="translate(0 -377.782)" fill="#f5ce5a"/>
      <path id="Trazado_721817" data-name="Trazado 721817" d="M420.424,342.962a.962.962,0,1,0-.962.962A.963.963,0,0,0,420.424,342.962Z" transform="translate(-373.763 -305.441)" fill="#ff5c5c"/>
      <path id="Trazado_721818" data-name="Trazado 721818" d="M411.905,336.78a1.724,1.724,0,1,0-.481.068A1.922,1.922,0,0,0,411.905,336.78Zm-1.443-1.856a.962.962,0,1,1,.962.962A.963.963,0,0,1,410.462,334.924Z" transform="translate(-365.725 -297.403)" fill="#fff"/>
      <g id="Grupo_956475" data-name="Grupo 956475" transform="translate(41.37 35.116)">
        <path id="Trazado_721819" data-name="Trazado 721819" d="M410.85,371.655l-.68-.68-1.1,1.1V368.36a1.722,1.722,0,0,1-.962,0v3.718l-.137-.136-.967-.967-.68.68,1.763,1.764.02.02v.763h.962v-.763Z" transform="translate(-404.256 -364.099)" fill="#5f7000"/>
        <rect id="Rectángulo_339240" data-name="Rectángulo 339240" width="0.962" height="10.102" fill="#5f7000"/>
      </g>
      <path id="Trazado_721820" data-name="Trazado 721820" d="M369,355.5v7.216h.962V355.5Z" transform="translate(-329.554 -317.498)" fill="#ffff3d"/>
      <rect id="Rectángulo_339241" data-name="Rectángulo 339241" width="0.962" height="6.254" transform="translate(37.521 38.964)" fill="#5f7000"/>
      <g id="Grupo_956476" data-name="Grupo 956476" transform="translate(35.597 41.851)">
        <rect id="Rectángulo_339242" data-name="Rectángulo 339242" width="0.962" height="3.367" fill="#ffff3d"/>
        <rect id="Rectángulo_339243" data-name="Rectángulo 339243" width="0.962" height="2.405" transform="translate(12.988 0.962)" fill="#ffff3d"/>
      </g>
      <path id="Trazado_721821" data-name="Trazado 721821" d="M55.924,342.962a.962.962,0,1,0-.962.962A.963.963,0,0,0,55.924,342.962Z" transform="translate(-48.227 -305.441)" fill="#ff5c5c"/>
      <path id="Trazado_721822" data-name="Trazado 721822" d="M47.405,336.78a1.957,1.957,0,0,0,1.443-1.856,1.9,1.9,0,0,0-.082-.524,1.941,1.941,0,1,0-1.361,2.38Zm-1.443-1.856a.962.962,0,1,1,.962.962A.963.963,0,0,1,45.962,334.924Z" transform="translate(-40.19 -297.403)" fill="#fff"/>
      <g id="Grupo_956477" data-name="Grupo 956477" transform="translate(4.471 35.116)">
        <path id="Trazado_721823" data-name="Trazado 721823" d="M44.566,374.2v-.763l1.783-1.783-.68-.68-1.1,1.1v-3.718a1.724,1.724,0,0,1-.962,0v3.718l-1.1-1.1-.68.68,1.783,1.783v.763Z" transform="translate(-41.821 -364.098)" fill="#5f7000"/>
        <rect id="Rectángulo_339244" data-name="Rectángulo 339244" width="0.962" height="10.102" transform="translate(5.631)" fill="#5f7000"/>
      </g>
      <path id="Trazado_721824" data-name="Trazado 721824" d="M113.462,355.5H112.5v7.216h.962V355.5Z" transform="translate(-100.474 -317.498)" fill="#ffff3d"/>
      <rect id="Rectángulo_339245" data-name="Rectángulo 339245" width="0.962" height="6.254" transform="translate(13.95 38.964)" fill="#5f7000"/>
      <path id="Trazado_721825" data-name="Trazado 721825" d="M149.462,391.5H148.5v3.367h.962V391.5Z" transform="translate(-132.626 -349.649)" fill="#ffff3d"/>
      <rect id="Rectángulo_339246" data-name="Rectángulo 339246" width="0.962" height="3.367" transform="translate(2.886 41.851)" fill="#5f7000"/>
      <path id="Trazado_721826" data-name="Trazado 721826" d="M173.115,344.312a17.342,17.342,0,0,1-7.826-1.878l7.825,7.927,7.7-7.863A17.335,17.335,0,0,1,173.115,344.312Z" transform="translate(-147.62 -305.828)" fill="#ffd130"/>
      <path id="Trazado_721827" data-name="Trazado 721827" d="M80.5,64.382,83.591,67.7l3.392,3.435,6.159,6.238h1.35l6.637-6.773L104.5,67.16l2.641-2.777c.21-.252.409-.512.6-.774a17.332,17.332,0,1,0-27.423.549C80.378,64.232,80.436,64.308,80.5,64.382Zm13.318,12.3-7.825-7.927a17.254,17.254,0,0,0,15.53.063ZM77.462,53.318a16.355,16.355,0,1,1,4.361,11.119A16.374,16.374,0,0,1,77.462,53.318Z" transform="translate(-68.322 -32.153)"/>
      <path id="Trazado_721828" data-name="Trazado 721828" d="M131.858,190.4c1.664,1.664,4.372,3.344,6.667,3.344a3.483,3.483,0,0,0,2.561-1.007,3.7,3.7,0,0,0,1.254-2.338,2.376,2.376,0,0,0-.767-1.814,14.441,14.441,0,0,0-2.427-1.774,8.43,8.43,0,0,1-3.7-3.7,14.444,14.444,0,0,0-1.774-2.427,2.247,2.247,0,0,0-1.63-.635,3.645,3.645,0,0,0-2.523,1.121,4.273,4.273,0,0,0-.681,4.466A12.6,12.6,0,0,0,131.858,190.4Zm6.01-.734a.962.962,0,1,1-.962-.962A.962.962,0,0,1,137.867,189.662Zm-3.848.962a.481.481,0,1,1,.481-.481A.481.481,0,0,1,134.019,190.624Zm4.81,2.405a.481.481,0,1,1,.481-.481A.481.481,0,0,1,138.829,193.029Zm.962-3.848a.481.481,0,1,1-.481.481A.481.481,0,0,1,139.792,189.181Zm-8.178-7.7a.962.962,0,1,1-.962.962A.962.962,0,0,1,131.614,181.484Zm2.405,4.81a1.443,1.443,0,1,1-1.443-1.443A1.444,1.444,0,0,1,134.019,186.295Zm-.481-2.405a.481.481,0,1,1,.481.481A.481.481,0,0,1,133.538,183.889Zm2.405,2.405a.481.481,0,1,1-.481.481A.481.481,0,0,1,135.943,186.295Z" transform="translate(-114.777 -160.799)" fill="#ccc600"/>
      <g id="Grupo_956478" data-name="Grupo 956478" transform="translate(15.874 20.685)">
        <circle id="Elipse_7692" data-name="Elipse 7692" cx="0.947" cy="0.947" r="0.947" transform="translate(5.424 7.24)" fill="#5f7000"/>
        <circle id="Elipse_7693" data-name="Elipse 7693" cx="0.962" cy="0.962" r="0.962" fill="#5f7000"/>
        <circle id="Elipse_7694" data-name="Elipse 7694" cx="1.42" cy="1.42" r="1.42" transform="translate(0.691 3.454)" fill="#5f7000"/>
        <path id="Trazado_721829" data-name="Trazado 721829" d="M175.981,212.462a.481.481,0,1,0-.481-.481A.481.481,0,0,0,175.981,212.462Z" transform="translate(-172.614 -209.576)" fill="#5f7000"/>
        <path id="Trazado_721830" data-name="Trazado 721830" d="M193.981,239.462a.481.481,0,1,0-.481-.481A.481.481,0,0,0,193.981,239.462Z" transform="translate(-188.69 -233.69)" fill="#5f7000"/>
        <path id="Trazado_721831" data-name="Trazado 721831" d="M175.981,270a.481.481,0,1,0,.481.481A.481.481,0,0,0,175.981,270Z" transform="translate(-172.614 -261.822)" fill="#5f7000"/>
        <path id="Trazado_721832" data-name="Trazado 721832" d="M220.981,292.5a.481.481,0,1,0,.481.481A.481.481,0,0,0,220.981,292.5Z" transform="translate(-212.803 -281.917)" fill="#5f7000"/>
        <path id="Trazado_721833" data-name="Trazado 721833" d="M229.981,266.462a.481.481,0,1,0-.481-.481A.481.481,0,0,0,229.981,266.462Z" transform="translate(-220.841 -257.803)" fill="#5f7000"/>
      </g>
      <path id="Trazado_721834" data-name="Trazado 721834" d="M108.98,170.275l-1.121.685.5.821,1.29-.789a13.684,13.684,0,0,0,5.095,3.2l-.368,1.471.933.233.366-1.464a6.569,6.569,0,0,0,1.268.133,4.924,4.924,0,0,0,1.459-.213l.821,1.641.86-.43-.8-1.6a4.38,4.38,0,0,0,.9-.69,6.987,6.987,0,0,0,.568-.642l1.5,1.124.577-.769-1.547-1.16a3.684,3.684,0,0,0,.437-1.522,3.311,3.311,0,0,0-1.048-2.544,8.27,8.27,0,0,0-.786-.676l1.07-1.071-.68-.68-1.182,1.181c-.335-.225-.676-.446-1.015-.661a7.556,7.556,0,0,1-3.4-3.4c-.1-.152-.193-.3-.291-.455l1.276-1.277-.68-.68-1.14,1.14a9.723,9.723,0,0,0-1.072-1.321,3.094,3.094,0,0,0-1.3-.768v-1.6h-.962v1.45l-.052,0a4.474,4.474,0,0,0-2.657.936l-1.762-1.762-.68.68,1.735,1.736a4.286,4.286,0,0,0-1.047,2.129l-1.522-.288-.179.945,1.626.307a7.238,7.238,0,0,0,.366,2.16A13.314,13.314,0,0,0,108.98,170.275Zm-1.039-9.243a3.645,3.645,0,0,1,2.523-1.121,2.247,2.247,0,0,1,1.63.635,14.45,14.45,0,0,1,1.774,2.427,8.43,8.43,0,0,0,3.7,3.7,14.44,14.44,0,0,1,2.427,1.774,2.377,2.377,0,0,1,.767,1.814,3.7,3.7,0,0,1-1.254,2.338,3.484,3.484,0,0,1-2.561,1.007c-2.3,0-5-1.679-6.667-3.344a12.6,12.6,0,0,1-3.018-4.762A4.273,4.273,0,0,1,107.941,161.031Z" transform="translate(-93.198 -140.663)"/>
      <rect id="Rectángulo_339247" data-name="Rectángulo 339247" width="0.962" height="2.405" transform="translate(39.446 34.154)" fill="#ffff3d"/>
      <path id="Trazado_721835" data-name="Trazado 721835" d="M297,256.5v.722a1.686,1.686,0,0,0,1.684,1.684.722.722,0,0,1,.722.722v.722h.962v-.722a1.686,1.686,0,0,0-1.684-1.684.722.722,0,0,1-.722-.722V256.5Z" transform="translate(-265.251 -229.081)" fill="#de6e52"/>
      <path id="Trazado_721836" data-name="Trazado 721836" d="M321.184,195.184a.722.722,0,0,1-.722.722H319.5v.962h.962a1.686,1.686,0,0,0,1.684-1.684.722.722,0,0,1,.722-.722h.481V193.5h-.481A1.686,1.686,0,0,0,321.184,195.184Z" transform="translate(-285.346 -172.815)" fill="#4f7bd6"/>
      <path id="Trazado_721837" data-name="Trazado 721837" d="M137.646,109.684a.722.722,0,0,1,.722-.722h.481V108h-.481a1.686,1.686,0,0,0-1.684,1.684.722.722,0,0,1-.722.722H135v.962h.962A1.686,1.686,0,0,0,137.646,109.684Z" transform="translate(-120.569 -96.455)"/>
      <g id="Grupo_956479" data-name="Grupo 956479" transform="translate(5.291)">
        <path id="Trazado_721838" data-name="Trazado 721838" d="M51.424,4.329H57.2V3.367H51.424a.963.963,0,0,1-.962-.962V1.924a.963.963,0,0,1,.962-.962h.481a.963.963,0,0,1,.962.962h.962A1.926,1.926,0,0,0,51.905,0h-.481A1.926,1.926,0,0,0,49.5,1.924v.481A1.926,1.926,0,0,0,51.424,4.329Z" transform="translate(-49.5)" fill="#7bcad4"/>
        <rect id="Rectángulo_339248" data-name="Rectángulo 339248" width="1.924" height="0.962" transform="translate(8.659 3.367)" fill="#7bcad4"/>
        <rect id="Rectángulo_339249" data-name="Rectángulo 339249" width="3.848" height="0.962" transform="translate(36.559 6.735)" fill="#7bcad4"/>
        <rect id="Rectángulo_339250" data-name="Rectángulo 339250" width="1.924" height="0.962" transform="translate(33.673 6.735)" fill="#7bcad4"/>
      </g>
      <g id="Grupo_956480" data-name="Grupo 956480" transform="translate(0 45.216)">
        <path id="Trazado_721839" data-name="Trazado 721839" d="M82.521,422.983H45v.962H86.37v-.962H82.521Z" transform="translate(-40.19 -422.981)" fill="#d18947"/>
        <path id="Trazado_721840" data-name="Trazado 721840" d="M443.886,423H441v.962h3.848V423Z" transform="translate(-393.858 -422.998)" fill="#d18947"/>
        <rect id="Rectángulo_339251" data-name="Rectángulo 339251" width="3.367" height="0.962" transform="translate(4.81 1.926)" fill="#d18947"/>
        <rect id="Rectángulo_339252" data-name="Rectángulo 339252" width="2.405" height="0.962" transform="translate(9.14 3.85)" fill="#d18947"/>
        <rect id="Rectángulo_339253" data-name="Rectángulo 339253" width="2.405" height="0.962" transform="translate(11.064 1.926)" fill="#d18947"/>
        <rect id="Rectángulo_339254" data-name="Rectángulo 339254" width="3.367" height="0.962" transform="translate(44.737 1.926)" fill="#d18947"/>
        <rect id="Rectángulo_339255" data-name="Rectángulo 339255" width="4.329" height="0.962" transform="translate(39.446 3.85)" fill="#d18947"/>
        <rect id="Rectángulo_339256" data-name="Rectángulo 339256" width="2.886" height="0.962" transform="translate(36.078 1.926)" fill="#d18947"/>
        <path id="Trazado_721841" data-name="Trazado 721841" d="M3.848,423H0v.962H3.848Z" transform="translate(0 -422.998)" fill="#d18947"/>
      </g>
      <path id="Trazado_721842" data-name="Trazado 721842" d="M101.855,45a16.356,16.356,0,1,0,16.355,16.355A16.374,16.374,0,0,0,101.855,45ZM90.791,54.14h.962a.722.722,0,0,0,.722-.722,1.686,1.686,0,0,1,1.684-1.684h.481V52.7h-.481a.722.722,0,0,0-.722.722A1.686,1.686,0,0,1,91.754,55.1h-.962Zm14.624,19.145-1.5-1.124a6.959,6.959,0,0,1-.568.642,4.38,4.38,0,0,1-.9.69l.8,1.6-.86.43-.821-1.641a4.921,4.921,0,0,1-1.459.213,6.567,6.567,0,0,1-1.268-.133l-.366,1.464-.933-.233.368-1.471a13.682,13.682,0,0,1-5.095-3.2l-1.29.789-.5-.821,1.121-.685a13.317,13.317,0,0,1-2.636-4.483,7.237,7.237,0,0,1-.366-2.16l-1.626-.307.179-.945,1.522.288a4.285,4.285,0,0,1,1.047-2.129l-1.735-1.736.68-.68,1.762,1.762a4.474,4.474,0,0,1,2.657-.936l.052,0v-1.45h.962v1.6a3.091,3.091,0,0,1,1.3.768,9.723,9.723,0,0,1,1.072,1.321l1.14-1.14.68.68-1.276,1.277c.1.152.195.3.291.455a12.371,12.371,0,0,0,1.423,1.978,12.405,12.405,0,0,0,1.978,1.422c.34.215.68.436,1.015.661l1.182-1.181.68.68-1.07,1.071a8.329,8.329,0,0,1,.786.676,3.312,3.312,0,0,1,1.048,2.544,3.684,3.684,0,0,1-.437,1.522l1.547,1.16Zm2.123-11.542-.944.186-.407-2.064c-.164.015-.327.025-.484.025a5.13,5.13,0,0,1-2.578-.666l-1.16,1.731-.8-.536,1.174-1.75a5.543,5.543,0,0,1-1.412-1.82,5.478,5.478,0,0,1-.291-.8l-2.055.406-.186-.944,2.071-.409c-.015-.157-.031-.312-.031-.483a5.245,5.245,0,0,1,.317-1.8,5.128,5.128,0,0,1,.355-.771L99.37,50.882l.535-.8,1.746,1.17a5.2,5.2,0,0,1,1.826-1.409,5.075,5.075,0,0,1,.8-.288l-.406-2.057.944-.186.408,2.068c.159-.015.318-.028.483-.028a5.116,5.116,0,0,1,2.579.662l1.159-1.728.8.536-1.172,1.748a5.68,5.68,0,0,1,1.411,1.822,5.512,5.512,0,0,1,.29.8l2.056-.406.186.944-2.071.409c.015.157.031.312.031.483a5.246,5.246,0,0,1-.317,1.8,5.128,5.128,0,0,1-.355.771l1.737,1.164-.535.8-1.746-1.17A5.2,5.2,0,0,1,107.93,59.4a5.118,5.118,0,0,1-.8.288Zm3.938,9.714h-.962v-.722a.722.722,0,0,0-.722-.722,1.686,1.686,0,0,1-1.684-1.684v-.722h.962v.722a.722.722,0,0,0,.722.722,1.686,1.686,0,0,1,1.684,1.684Zm2.405-9.621a.722.722,0,0,0-.722.722,1.686,1.686,0,0,1-1.684,1.684h-.962V63.28h.962a.722.722,0,0,0,.722-.722,1.686,1.686,0,0,1,1.684-1.684h.481v.962Z" transform="translate(-76.36 -40.19)" fill="#fff"/>
      <path id="Trazado_721843" data-name="Trazado 721843" d="M242.422,100.835a4.295,4.295,0,1,0-2.431,2.228A4.284,4.284,0,0,0,242.422,100.835Zm-4.987,1.006a.581.581,0,1,1,.581-.582A.582.582,0,0,1,237.435,101.841Zm0-2.907a1.163,1.163,0,1,1,1.162-1.163A1.162,1.162,0,0,1,237.435,98.934ZM240.582,100a.822.822,0,1,1,.822-.822A.821.821,0,0,1,240.582,100Z" transform="translate(-209.174 -84.583)" fill="#de6e52"/>
      <path id="Trazado_721844" data-name="Trazado 721844" d="M217.491,77.308l1.746,1.17.535-.8-1.737-1.164a5.125,5.125,0,0,0,.355-.771,5.248,5.248,0,0,0,.317-1.8c0-.171-.016-.326-.031-.483l2.071-.409-.186-.944-2.056.406a5.49,5.49,0,0,0-.29-.8,5.681,5.681,0,0,0-1.411-1.822l1.172-1.748-.8-.536-1.159,1.728a5.116,5.116,0,0,0-2.579-.662c-.165,0-.324.013-.483.028l-.408-2.068-.944.186.406,2.057a5.074,5.074,0,0,0-.8.288,5.2,5.2,0,0,0-1.826,1.409L207.64,69.4l-.535.8,1.737,1.164a5.121,5.121,0,0,0-.355.771,5.245,5.245,0,0,0-.317,1.8c0,.171.016.326.031.483l-2.071.409.186.944,2.055-.406a5.454,5.454,0,0,0,.291.8,5.541,5.541,0,0,0,1.412,1.82l-1.174,1.75.8.536,1.16-1.731a5.13,5.13,0,0,0,2.578.666c.157,0,.32-.01.484-.025l.407,2.064.944-.186-.406-2.057a5.12,5.12,0,0,0,.8-.288A5.2,5.2,0,0,0,217.491,77.308Zm-4.053.938a4.326,4.326,0,0,1-4.048-2.833,4.309,4.309,0,0,1,5.869-5.377,4.327,4.327,0,0,1,2.228,2.431,4.309,4.309,0,0,1-2.575,5.522A4.324,4.324,0,0,1,213.438,78.246Z" transform="translate(-184.095 -59.509)"/>
      <g id="Grupo_956481" data-name="Grupo 956481" transform="translate(27.098 12.026)">
        <circle id="Elipse_7695" data-name="Elipse 7695" cx="1.163" cy="1.163" r="1.163" fill="#fff"/>
        <circle id="Elipse_7696" data-name="Elipse 7696" cx="0.581" cy="0.581" r="0.581" transform="translate(0.581 4.069)" fill="#fff"/>
        <path id="Trazado_721845" data-name="Trazado 721845" d="M286.947,128.813a.822.822,0,1,0,.822.822A.821.821,0,0,0,286.947,128.813Z" transform="translate(-282.637 -127.069)" fill="#fff"/>
      </g>
    </g>
  </g>
</svg>
