<svg xmlns="http://www.w3.org/2000/svg" width="85" height="85" viewBox="0 0 85 85">
  <g id="Grupo_957554" data-name="Grupo 957554" transform="translate(-752 -866)">
    <circle id="Elipse_7690" data-name="Elipse 7690" cx="42.5" cy="42.5" r="42.5" transform="translate(752 866)" fill="#0e494d"/>
    <g id="Layer_79" transform="translate(768.823 882.823)">
      <g id="Grupo_956566" data-name="Grupo 956566" transform="translate(0)">
        <g id="Grupo_956498" data-name="Grupo 956498" transform="translate(0.494 24.116)">
          <g id="Grupo_956497" data-name="Grupo 956497">
            <path id="Trazado_721846" data-name="Trazado 721846" d="M33.866,135.706c-4.212-2.872-5.5-13.4-11.852-13.57-3.11-.084-7.729,3.779-9.533,8.656-2,5.418-2.662,5.6-6.1,8.864a46.307,46.307,0,0,0-3.655,4,1,1,0,0,0-.228.64v2.878a.9.9,0,0,0,.9.9H45.889c-6.355-2.4-4.466-7.214-12.024-12.367Z" transform="translate(-2.5 -122.135)" fill="#fed690"/>
          </g>
        </g>
        <g id="Grupo_956500" data-name="Grupo 956500" transform="translate(26.49 17.085)">
          <g id="Grupo_956499" data-name="Grupo 956499">
            <path id="Trazado_721847" data-name="Trazado 721847" d="M157.6,97.882l-.129-.347c-2.292-6.2-8.164-11.11-12.117-11-5.8.157-8.279,7.1-11.2,12.356,1.754,3.121,3.158,6.736,5.369,8.243,7.558,5.153,5.668,9.962,12.024,12.367h5.269a.9.9,0,0,0,.9-.9V98.545a1.9,1.9,0,0,0-.121-.663Z" transform="translate(-134.162 -86.53)" fill="#feb872"/>
          </g>
        </g>
        <g id="Grupo_956502" data-name="Grupo 956502" transform="translate(0.781 34.8)">
          <g id="Grupo_956501" data-name="Grupo 956501">
            <path id="Trazado_721848" data-name="Trazado 721848" d="M35.032,179.134a9.277,9.277,0,0,1-2.483-2.886c-.565.022-1.125.062-1.669.125-3.862.447-6.332,1.828-10.007,2.446a33.73,33.73,0,0,1-8.306.2c-.352-.032-.7-.069-1.054-.107a24,24,0,0,1-3.963,4.168,45.979,45.979,0,0,0-3.6,3.926c2.221.328,4.406,1.018,6.626,1.425a20.732,20.732,0,0,0,10.145-.5c4.489-1.522,7.506-4.924,12.223-6.024a14.918,14.918,0,0,1,5.157-.235A20.313,20.313,0,0,0,35.032,179.134Z" transform="translate(-3.953 -176.248)" fill="#feb872"/>
          </g>
        </g>
        <g id="Grupo_956504" data-name="Grupo 956504" transform="translate(9.855 25.639)">
          <g id="Grupo_956503" data-name="Grupo 956503">
            <path id="Trazado_721849" data-name="Trazado 721849" d="M63.714,129.849c-1.931,2.036-3.722,4.437-5.96,5.807a9.525,9.525,0,0,1-7.124,1.068c-.034.087-.069.173-.1.26-.221.6-.426,1.13-.62,1.613a16.748,16.748,0,0,0,7.845-.491c3.255-1.1,5.565-3.413,8.733-4.553A14.428,14.428,0,0,0,63.714,129.849Z" transform="translate(-49.909 -129.849)" fill="#fce4be"/>
          </g>
        </g>
        <g id="Grupo_956506" data-name="Grupo 956506" transform="translate(24.477 42.556)">
          <g id="Grupo_956505" data-name="Grupo 956505">
            <path id="Trazado_721850" data-name="Trazado 721850" d="M136.347,215.529a15.26,15.26,0,0,0-8.435,4.192,40.483,40.483,0,0,1-3.948,3.306h19.406C139.092,221.408,138.551,218.7,136.347,215.529Z" transform="translate(-123.965 -215.529)" fill="#feb872"/>
          </g>
        </g>
        <g id="Grupo_956508" data-name="Grupo 956508" transform="translate(27.201 30.759)">
          <g id="Grupo_956507" data-name="Grupo 956507">
            <path id="Trazado_721851" data-name="Trazado 721851" d="M151.18,158.957c-4.671-.785-7.811-2.541-12.72-3.109-.23-.027-.466-.046-.7-.066,1.447,2.764,2.753,5.629,4.658,6.927a18.931,18.931,0,0,1,6.116,6.628,21.965,21.965,0,0,0,2.833,1.2,24.436,24.436,0,0,0,9.245,1.083V159.306A41.7,41.7,0,0,1,151.18,158.957Z" transform="translate(-137.76 -155.782)" fill="#d68649"/>
          </g>
        </g>
        <g id="Grupo_956510" data-name="Grupo 956510" transform="translate(29.52 19.021)">
          <g id="Grupo_956509" data-name="Grupo 956509">
            <path id="Trazado_721852" data-name="Trazado 721852" d="M169.919,105.752l-.13-.349c-.041-.111-.086-.221-.129-.331a12.106,12.106,0,0,1-9.055-1.357c-2.844-1.742-5.121-4.793-7.576-7.381a18.346,18.346,0,0,0-3.525,4.708c4.027,1.449,6.964,4.385,11.1,5.787a21.019,21.019,0,0,0,9.433.7v-1.119A1.882,1.882,0,0,0,169.919,105.752Z" transform="translate(-149.505 -96.334)" fill="#fed690"/>
          </g>
        </g>
        <g id="Grupo_956512" data-name="Grupo 956512" transform="translate(2.808 39.92)">
          <g id="Grupo_956511" data-name="Grupo 956511">
            <path id="Trazado_721853" data-name="Trazado 721853" d="M27.986,202.863c-.936-.935-2.263-.65-10.427-.632-.5.475-1.077,1.006-1.768,1.663-.524.5-1.051,1.04-1.569,1.6,5.785.8,9.626,1.21,12.987-.457C28.214,204.539,28.638,203.515,27.986,202.863Z" transform="translate(-14.222 -202.177)" fill="#d68649"/>
          </g>
        </g>
        <g id="Grupo_956514" data-name="Grupo 956514" transform="translate(41.657 37.173)">
          <g id="Grupo_956513" data-name="Grupo 956513">
            <path id="Trazado_721854" data-name="Trazado 721854" d="M211.372,189.139c-.829.829-.29,2.13.988,2.764a15.5,15.5,0,0,0,7.012,1.464V188.3C213.594,188.23,212.323,188.188,211.372,189.139Z" transform="translate(-210.976 -188.267)" fill="#a57453"/>
          </g>
        </g>
        <g id="Grupo_956517" data-name="Grupo 956517" transform="translate(0 23.622)">
          <g id="Grupo_956516" data-name="Grupo 956516">
            <g id="Grupo_956515" data-name="Grupo 956515">
              <path id="Trazado_721855" data-name="Trazado 721855" d="M44.058,145.605c-3.086-1.168-4.1-2.9-5.395-5.085a19.767,19.767,0,0,0-6.526-7.228c-1.572-1.072-2.741-3.341-3.979-5.744-1.883-3.656-4.018-7.8-8.138-7.911-3.52-.1-8.206,4.1-10.009,8.979-1.744,4.718-2.422,5.351-4.942,7.706-.315.294-.657.614-1.033.971a46.094,46.094,0,0,0-3.7,4.04,1.5,1.5,0,0,0-.342.954v2.878a1.4,1.4,0,0,0,1.4,1.4H43.883a.494.494,0,0,0,.175-.955ZM1.4,145.573a.409.409,0,0,1-.409-.409v-2.878a.511.511,0,0,1,.116-.326,45.184,45.184,0,0,1,3.614-3.953c.374-.355.714-.673,1.027-.966,2.587-2.418,3.368-3.148,5.194-8.084,1.779-4.811,6.171-8.336,8.969-8.336h.088c3.536.1,5.443,3.8,7.287,7.376,1.3,2.517,2.522,4.895,4.3,6.108a18.917,18.917,0,0,1,6.231,6.914,11.613,11.613,0,0,0,3.929,4.551H1.4Z" transform="translate(0 -119.635)"/>
            </g>
          </g>
        </g>
        <g id="Grupo_956519" data-name="Grupo 956519" transform="translate(26.062 16.592)">
          <g id="Grupo_956518" data-name="Grupo 956518">
            <path id="Trazado_721856" data-name="Trazado 721856" d="M156.324,95.7l-.128-.345a20.463,20.463,0,0,0-5.572-8.065c-2.405-2.128-4.968-3.314-7.021-3.26-5.157.139-7.735,5.144-10.228,9.983-.432.838-.878,1.7-1.323,2.511a.494.494,0,1,0,.864.477c.452-.819.9-1.692,1.336-2.535,2.362-4.584,4.8-9.325,9.377-9.448l.114,0c3.6,0,9.247,4.517,11.527,10.682l.13.348a1.4,1.4,0,0,1,.089.49V116.59a.409.409,0,0,1-.409.409h-5.268a.494.494,0,1,0,0,.987h5.268a1.4,1.4,0,0,0,1.4-1.4V96.539a2.367,2.367,0,0,0-.151-.836Z" transform="translate(-131.99 -84.031)"/>
          </g>
        </g>
        <g id="Grupo_956521" data-name="Grupo 956521" transform="translate(31.305 2.802)">
          <g id="Grupo_956520" data-name="Grupo 956520">
            <path id="Trazado_721857" data-name="Trazado 721857" d="M168.616,17.633a.361.361,0,0,1-.254-.209,1.952,1.952,0,0,0-1.787-1.143c-.066,0-.132,0-.2.011a.362.362,0,0,1-.377-.219,3.006,3.006,0,0,0-5.591.038.369.369,0,0,1-.272.235,1.952,1.952,0,0,0-1.6,1.948,1.983,1.983,0,0,0,2.01,1.923l7.776-.04a1.309,1.309,0,0,0,1.316-1.284A1.285,1.285,0,0,0,168.616,17.633Z" transform="translate(-158.544 -14.191)" fill="#dae6f1"/>
          </g>
        </g>
        <g id="Grupo_956523" data-name="Grupo 956523" transform="translate(14.29 5.18)">
          <g id="Grupo_956522" data-name="Grupo 956522">
            <path id="Trazado_721858" data-name="Trazado 721858" d="M83.632,30.081a.4.4,0,0,1-.284-.234,2.182,2.182,0,0,0-2.217-1.266.4.4,0,0,1-.422-.245,3.361,3.361,0,0,0-6.251.043.412.412,0,0,1-.3.262,2.183,2.183,0,0,0-1.783,2.178,2.218,2.218,0,0,0,2.247,2.151l8.694-.044a1.464,1.464,0,0,0,1.471-1.436A1.437,1.437,0,0,0,83.632,30.081Z" transform="translate(-72.371 -26.233)" fill="#dae6f1"/>
          </g>
        </g>
        <g id="Grupo_956525" data-name="Grupo 956525" transform="translate(3.19 7.789)">
          <g id="Grupo_956524" data-name="Grupo 956524">
            <path id="Trazado_721859" data-name="Trazado 721859" d="M33.278,43.63l-.1-.075-3.678.019a2.218,2.218,0,0,1-2.247-2.151,2.177,2.177,0,0,1,.86-1.766l-.052-.04a4.971,4.971,0,0,0-5.909,2.962.6.6,0,0,1-.622.366c-.107-.011-.215-.016-.324-.016a3.227,3.227,0,0,0-2.944,1.9.6.6,0,0,1-.418.348,2.123,2.123,0,0,0-1.691,2.09,2.163,2.163,0,0,0,2.185,2.112H31.195a3.278,3.278,0,0,0,3.306-3.2,3.219,3.219,0,0,0-1.222-2.556Z" transform="translate(-16.157 -39.446)" fill="#c7d7e5"/>
          </g>
        </g>
        <g id="Grupo_956528" data-name="Grupo 956528" transform="translate(30.811 2.309)">
          <g id="Grupo_956527" data-name="Grupo 956527">
            <g id="Grupo_956526" data-name="Grupo 956526">
              <path id="Trazado_721860" data-name="Trazado 721860" d="M166.778,15.159a2.45,2.45,0,0,0-2.2-1.378c-.055,0-.112,0-.167.005a3.48,3.48,0,0,0-3.2-2.095h-.019a3.48,3.48,0,0,0-3.223,2.177,2.439,2.439,0,0,0-1.923,2.425,2.478,2.478,0,0,0,2.493,2.41h.013l7.776-.039a1.8,1.8,0,0,0,1.807-1.778A1.783,1.783,0,0,0,166.778,15.159Zm-.458,2.518-7.776.039h-.008a1.487,1.487,0,0,1-1.506-1.437,1.454,1.454,0,0,1,1.191-1.455.856.856,0,0,0,.643-.542,2.5,2.5,0,0,1,2.33-1.6h.013a2.5,2.5,0,0,1,2.329,1.572.86.86,0,0,0,.888.525c.05-.005.1-.006.153-.008a1.462,1.462,0,0,1,1.328.855.858.858,0,0,0,.606.488.792.792,0,0,1,.633.775A.812.812,0,0,1,166.32,17.677Z" transform="translate(-156.043 -11.692)"/>
            </g>
          </g>
        </g>
        <g id="Grupo_956531" data-name="Grupo 956531" transform="translate(13.796 4.686)">
          <g id="Grupo_956530" data-name="Grupo 956530">
            <g id="Grupo_956529" data-name="Grupo 956529">
              <path id="Trazado_721861" data-name="Trazado 721861" d="M81.773,27.6a2.681,2.681,0,0,0-2.42-1.533H79.34c-.07,0-.139,0-.209.009a3.834,3.834,0,0,0-3.546-2.345h-.021A3.834,3.834,0,0,0,72,26.159a2.668,2.668,0,0,0-2.134,2.66A2.712,2.712,0,0,0,72.6,31.456h.014l8.694-.044a1.956,1.956,0,0,0,1.962-1.93A1.935,1.935,0,0,0,81.773,27.6ZM81.3,30.424l-8.694.044H72.6A1.721,1.721,0,0,1,70.856,28.8a1.684,1.684,0,0,1,1.38-1.685.9.9,0,0,0,.674-.569,2.852,2.852,0,0,1,2.66-1.831h.015a2.853,2.853,0,0,1,2.658,1.794.9.9,0,0,0,.931.551q.084-.009.171-.009h.009a1.693,1.693,0,0,1,1.537.989.9.9,0,0,0,.636.513.944.944,0,0,1,.755.924A.966.966,0,0,1,81.3,30.424Z" transform="translate(-69.869 -23.732)"/>
            </g>
          </g>
        </g>
        <g id="Grupo_956533" data-name="Grupo 956533" transform="translate(2.697 7.295)">
          <g id="Grupo_956532" data-name="Grupo 956532">
            <path id="Trazado_721862" data-name="Trazado 721862" d="M31.579,41.237a.494.494,0,1,0-.614.773A2.716,2.716,0,0,1,32,44.175a2.782,2.782,0,0,1-2.812,2.707H16.335a1.665,1.665,0,0,1-1.691-1.621,1.632,1.632,0,0,1,1.3-1.6,1.1,1.1,0,0,0,.769-.629,2.734,2.734,0,0,1,2.768-1.6,1.1,1.1,0,0,0,1.13-.674,4.477,4.477,0,0,1,5.322-2.668.494.494,0,1,0,.256-.953,5.464,5.464,0,0,0-6.5,3.256.109.109,0,0,1-.113.057c-.124-.012-.25-.019-.374-.019a3.728,3.728,0,0,0-3.394,2.2.11.11,0,0,1-.068.067,2.623,2.623,0,0,0-2.085,2.576,2.654,2.654,0,0,0,2.679,2.6H29.188a3.772,3.772,0,0,0,3.8-3.685,3.7,3.7,0,0,0-1.408-2.947Z" transform="translate(-13.657 -36.946)"/>
          </g>
        </g>
        <g id="Grupo_956535" data-name="Grupo 956535" transform="translate(5.553 27.056)">
          <g id="Grupo_956534" data-name="Grupo 956534">
            <path id="Trazado_721863" data-name="Trazado 721863" d="M30.647,138.244a1.539,1.539,0,0,1-1.224-1.2c0-.02-.059-.02-.059,0a1.539,1.539,0,0,1-1.224,1.2c-.02,0-.02.039,0,.059a1.539,1.539,0,0,1,1.224,1.2c0,.02.059.02.059,0a1.539,1.539,0,0,1,1.224-1.2C30.667,138.284,30.667,138.244,30.647,138.244Z" transform="translate(-28.125 -137.025)" fill="#70d6f9"/>
          </g>
        </g>
        <g id="Grupo_956537" data-name="Grupo 956537" transform="translate(43.774 12.637)">
          <g id="Grupo_956536" data-name="Grupo 956536">
            <path id="Trazado_721864" data-name="Trazado 721864" d="M224.52,65.086h-.474v-.454a.624.624,0,0,0-.632-.632.632.632,0,0,0-.632.612v.474h-.454a.624.624,0,0,0-.632.632.612.612,0,0,0,.632.632h.454V66.8a.624.624,0,0,0,.632.632.632.632,0,0,0,.632-.612V66.35h.454a.624.624,0,0,0,.632-.632A.632.632,0,0,0,224.52,65.086Z" transform="translate(-221.695 -64)" fill="#fc657e"/>
          </g>
        </g>
        <g id="Grupo_956539" data-name="Grupo 956539" transform="translate(47.566 18.264)">
          <g id="Grupo_956538" data-name="Grupo 956538">
            <path id="Trazado_721865" data-name="Trazado 721865" d="M241.571,92.5a.671.671,0,1,0,.671.671A.671.671,0,0,0,241.571,92.5Z" transform="translate(-240.9 -92.5)" fill="#f5c84c"/>
          </g>
        </g>
        <g id="Grupo_956541" data-name="Grupo 956541" transform="translate(17.158)">
          <g id="Grupo_956540" data-name="Grupo 956540">
            <path id="Trazado_721866" data-name="Trazado 721866" d="M87.571,0a.671.671,0,1,0,.671.671A.671.671,0,0,0,87.571,0Z" transform="translate(-86.9)" fill="#87d147"/>
          </g>
        </g>
        <g id="Grupo_956543" data-name="Grupo 956543" transform="translate(10.573 1.451)">
          <g id="Grupo_956542" data-name="Grupo 956542">
            <path id="Trazado_721867" data-name="Trazado 721867" d="M57.173,9.1A2.191,2.191,0,0,1,55.416,7.38c0-.039-.079-.039-.079,0A2.191,2.191,0,0,1,53.58,9.1c-.039,0-.039.059,0,.079a2.191,2.191,0,0,1,1.757,1.718c0,.039.079.039.079,0a2.191,2.191,0,0,1,1.757-1.718C57.213,9.157,57.213,9.1,57.173,9.1Z" transform="translate(-53.55 -7.35)" fill="#f5c84c"/>
          </g>
        </g>
        <g id="Grupo_956545" data-name="Grupo 956545" transform="translate(0.363 39.612)">
          <g id="Grupo_956544" data-name="Grupo 956544">
            <path id="Trazado_721868" data-name="Trazado 721868" d="M36.37,200.73a15.449,15.449,0,0,0-5.234.255,22.677,22.677,0,0,0-6.869,3.24,26.311,26.311,0,0,1-5.4,2.8,20.172,20.172,0,0,1-9.9.486c-.964-.177-1.945-.413-2.893-.642-1.2-.288-2.435-.587-3.672-.774a.494.494,0,0,0-.148.976c1.2.181,2.412.474,3.589.758.961.232,1.955.471,2.946.653a24.222,24.222,0,0,0,4.353.4,18.941,18.941,0,0,0,6.04-.924,27.062,27.062,0,0,0,5.605-2.894,21.588,21.588,0,0,1,6.572-3.117,14.47,14.47,0,0,1,4.9-.236.494.494,0,0,0,.114-.981Z" transform="translate(-1.836 -200.618)"/>
          </g>
        </g>
        <g id="Grupo_956547" data-name="Grupo 956547" transform="translate(7.935 34.31)">
          <g id="Grupo_956546" data-name="Grupo 956546">
            <path id="Trazado_721869" data-name="Trazado 721869" d="M61.537,173.765c-.57.023-1.12.066-1.634.125a29.667,29.667,0,0,0-5.591,1.309,33.422,33.422,0,0,1-4.442,1.14,33.136,33.136,0,0,1-8.179.2q-.479-.044-.956-.1a.494.494,0,0,0-.107.982q.486.053.974.1c1.192.108,2.382.162,3.535.162a30.04,30.04,0,0,0,4.9-.371,34.256,34.256,0,0,0,4.569-1.171,28.464,28.464,0,0,1,5.413-1.272c.491-.057,1.016-.1,1.562-.119a.494.494,0,0,0,.473-.514A.5.5,0,0,0,61.537,173.765Z" transform="translate(-40.187 -173.764)"/>
          </g>
        </g>
        <g id="Grupo_956549" data-name="Grupo 956549" transform="translate(10.206 25.219)">
          <g id="Grupo_956548" data-name="Grupo 956548">
            <path id="Trazado_721870" data-name="Trazado 721870" d="M65.41,127.859a.494.494,0,0,0-.7.021c-.471.5-.939,1.025-1.392,1.534a21.418,21.418,0,0,1-4.4,4.117,8.976,8.976,0,0,1-6.642,1.032.494.494,0,1,0-.2.967,11.284,11.284,0,0,0,2.307.244,9.573,9.573,0,0,0,5.052-1.4,22.121,22.121,0,0,0,4.619-4.3c.448-.5.912-1.024,1.373-1.513A.494.494,0,0,0,65.41,127.859Z" transform="translate(-51.687 -127.725)"/>
          </g>
        </g>
        <g id="Grupo_956551" data-name="Grupo 956551" transform="translate(9.493 28.891)">
          <g id="Grupo_956550" data-name="Grupo 956550">
            <path id="Trazado_721871" data-name="Trazado 721871" d="M65.368,146.641a.494.494,0,0,0-.635-.291,23.424,23.424,0,0,0-4.2,2.225,21.5,21.5,0,0,1-4.4,2.281,16.225,16.225,0,0,1-7.48.491.494.494,0,1,0-.148.976,19.731,19.731,0,0,0,2.963.227,15.656,15.656,0,0,0,4.982-.759,22.237,22.237,0,0,0,4.608-2.377,22.347,22.347,0,0,1,4.024-2.138A.493.493,0,0,0,65.368,146.641Z" transform="translate(-48.08 -146.319)"/>
          </g>
        </g>
        <g id="Grupo_956553" data-name="Grupo 956553" transform="translate(24.09 42.086)">
          <g id="Grupo_956552" data-name="Grupo 956552">
            <path id="Trazado_721872" data-name="Trazado 721872" d="M135.1,213.568a.492.492,0,0,0-.562-.414,15.762,15.762,0,0,0-8.535,4.3,40.48,40.48,0,0,1-3.794,3.188.494.494,0,0,0,.584.8,41.492,41.492,0,0,0,3.887-3.266,14.8,14.8,0,0,1,8.006-4.039A.493.493,0,0,0,135.1,213.568Z" transform="translate(-122.005 -213.148)"/>
          </g>
        </g>
        <g id="Grupo_956555" data-name="Grupo 956555" transform="translate(37.534 43.848)">
          <g id="Grupo_956554" data-name="Grupo 956554">
            <path id="Trazado_721873" data-name="Trazado 721873" d="M202.412,224.338a23.905,23.905,0,0,1-8.885-1.068,21.315,21.315,0,0,1-2.718-1.149.494.494,0,0,0-.442.883,22.285,22.285,0,0,0,2.843,1.2,23.967,23.967,0,0,0,7.631,1.165q.806,0,1.626-.045a.494.494,0,0,0-.055-.986Z" transform="translate(-190.094 -222.068)"/>
          </g>
        </g>
        <g id="Grupo_956557" data-name="Grupo 956557" transform="translate(26.803 30.274)">
          <g id="Grupo_956556" data-name="Grupo 956556">
            <path id="Trazado_721874" data-name="Trazado 721874" d="M158.787,156.851a40.617,40.617,0,0,1-9.141-.354,42.586,42.586,0,0,1-5.663-1.453,37.581,37.581,0,0,0-7.081-1.659c-.192-.022-.387-.039-.582-.056l-.037,0a.493.493,0,1,0-.085.983l.037,0c.185.016.371.032.553.053a36.263,36.263,0,0,1,6.9,1.622,43.428,43.428,0,0,0,5.79,1.484,37.676,37.676,0,0,0,6.174.471c1.041,0,2.11-.035,3.195-.1a.494.494,0,0,0-.064-.986Z" transform="translate(-135.746 -153.323)"/>
          </g>
        </g>
        <g id="Grupo_956559" data-name="Grupo 956559" transform="translate(32.657 18.64)">
          <g id="Grupo_956558" data-name="Grupo 956558">
            <path id="Trazado_721875" data-name="Trazado 721875" d="M182.784,103.443a.493.493,0,0,0-.585-.38,11.547,11.547,0,0,1-8.583-1.32A27.311,27.311,0,0,1,168,96.486c-.57-.64-1.159-1.3-1.75-1.929a.494.494,0,0,0-.719.677c.582.618,1.166,1.274,1.732,1.909a28.014,28.014,0,0,0,5.84,5.442,12.03,12.03,0,0,0,6.351,1.761,14.235,14.235,0,0,0,2.952-.317.493.493,0,0,0,.38-.585Z" transform="translate(-165.395 -94.401)"/>
          </g>
        </g>
        <g id="Grupo_956561" data-name="Grupo 956561" transform="translate(29.122 23.27)">
          <g id="Grupo_956560" data-name="Grupo 956560">
            <path id="Trazado_721876" data-name="Trazado 721876" d="M168.794,124.752a.5.5,0,0,0-.554-.425,20.3,20.3,0,0,1-9.093-.7,27.408,27.408,0,0,1-5.625-2.912,29.438,29.438,0,0,0-5.368-2.836.494.494,0,0,0-.34.927A28.267,28.267,0,0,1,153,121.558a28.171,28.171,0,0,0,5.829,3.009,19.528,19.528,0,0,0,6.25.962,25.093,25.093,0,0,0,3.289-.222.494.494,0,0,0,.425-.554Z" transform="translate(-147.49 -117.853)"/>
          </g>
        </g>
        <g id="Grupo_956563" data-name="Grupo 956563" transform="translate(2.448 39.427)">
          <g id="Grupo_956562" data-name="Grupo 956562">
            <path id="Trazado_721877" data-name="Trazado 721877" d="M26.873,200.511c-.875-.875-1.913-.862-6.28-.812-1.162.013-2.607.03-4.355.035a.494.494,0,0,0,0,.987h0c1.752,0,3.2-.021,4.364-.035,4.2-.049,5.008-.04,5.571.522a.52.52,0,0,1,.159.478,1.406,1.406,0,0,1-.807.9c-3.175,1.575-6.866,1.212-12.566.428a.494.494,0,1,0-.134.978,55.922,55.922,0,0,0,7.3.681,12.7,12.7,0,0,0,5.844-1.2,2.339,2.339,0,0,0,1.342-1.63A1.5,1.5,0,0,0,26.873,200.511Z" transform="translate(-12.4 -199.68)"/>
          </g>
        </g>
        <g id="Grupo_956565" data-name="Grupo 956565" transform="translate(41.163 36.68)">
          <g id="Grupo_956564" data-name="Grupo 956564">
            <path id="Trazado_721878" data-name="Trazado 721878" d="M217.262,190.868a14.937,14.937,0,0,1-6.691-1.412,1.9,1.9,0,0,1-1.1-1.248.8.8,0,0,1,.24-.724c.754-.754,1.792-.766,7.179-.7l.367,0h.006a.494.494,0,0,0,.006-.987l-.367,0c-5.508-.064-6.817-.079-7.889.992a1.779,1.779,0,0,0-.516,1.581,2.839,2.839,0,0,0,1.633,1.973,15.877,15.877,0,0,0,7.12,1.515h0a.494.494,0,0,0,0-.987Z" transform="translate(-208.474 -185.77)"/>
          </g>
        </g>
      </g>
    </g>
  </g>
</svg>
