<svg xmlns="http://www.w3.org/2000/svg" width="85" height="85" viewBox="0 0 85 85">
  <g id="Grupo_957555" data-name="Grupo 957555" transform="translate(-1172 -866)">
    <circle id="Elipse_7689" data-name="Elipse 7689" cx="42.5" cy="42.5" r="42.5" transform="translate(1172 866)" fill="#0e494d"/>
    <g id="pueblo" transform="translate(1188.823 882.822)">
      <path id="Trazado_721879" data-name="Trazado 721879" d="M59.626,155.645l-1.877-3.283a6.26,6.26,0,0,0-4.905-2.847H49.566v13.661l13.115-2.186Z" transform="translate(-44.593 -134.925)" fill="#63aba1"/>
      <path id="Trazado_721880" data-name="Trazado 721880" d="M17.718,152.362l4.931,8.629-9.836,2.186-4.1-2.186V149.515h4.1A6.26,6.26,0,0,1,17.718,152.362Z" transform="translate(-7.841 -134.925)" fill="#83c49a"/>
      <path id="Trazado_721881" data-name="Trazado 721881" d="M375.945,152.783l-5.027,3.771v3.279h10.055v-3.279Z" transform="translate(-333.705 -137.865)" fill="#ffe0a2"/>
      <path id="Trazado_721882" data-name="Trazado 721882" d="M375.945,185.464l-5.027,3.771v6.284h10.055v-6.284Z" transform="translate(-333.705 -167.267)" fill="#fff"/>
      <path id="Trazado_721883" data-name="Trazado 721883" d="M413.678,227.965a.82.82,0,0,1-.82-.82v-3.279a.82.82,0,1,1,1.639,0v3.279A.819.819,0,0,1,413.678,227.965Z" transform="translate(-371.437 -201.079)" fill="#d3552b"/>
      <path id="Trazado_721884" data-name="Trazado 721884" d="M452.637,263.9l-2.186,12.241,2.186,12.241h3.279V263.9Z" transform="translate(-405.259 -237.832)" fill="#a3dc93"/>
      <rect id="Rect치ngulo_339257" data-name="Rect치ngulo 339257" width="46.449" height="24.481" transform="translate(0.929 26.066)" fill="#caed73"/>
      <path id="Trazado_721885" data-name="Trazado 721885" d="M46.977,296.579,41.95,300.35v3.279H52V300.35Z" transform="translate(-37.741 -267.234)" fill="#ffe0a2"/>
      <path id="Trazado_721886" data-name="Trazado 721886" d="M46.977,329.26l-5.027,3.771v4.1H52v-4.1Z" transform="translate(-37.741 -296.636)" fill="#fff"/>
      <path id="Trazado_721887" data-name="Trazado 721887" d="M84.711,371.761a.82.82,0,0,1-.82-.82v-3.279a.82.82,0,1,1,1.639,0v3.279A.82.82,0,0,1,84.711,371.761Z" transform="translate(-75.475 -330.449)" fill="#d3552b"/>
      <path id="Trazado_721888" data-name="Trazado 721888" d="M97.088,375.013l-5.027,3.771v3.279h10.055v-3.279Z" transform="translate(-82.825 -337.799)" fill="#ffe0a2"/>
      <path id="Trazado_721889" data-name="Trazado 721889" d="M97.088,407.694l-5.027,3.771v4.1h10.055v-4.1Z" transform="translate(-82.825 -367.201)" fill="#fff"/>
      <path id="Trazado_721890" data-name="Trazado 721890" d="M134.822,450.2a.82.82,0,0,1-.82-.82V446.1a.82.82,0,0,1,1.639,0v3.279A.82.82,0,0,1,134.822,450.2Z" transform="translate(-120.558 -401.014)" fill="#d3552b"/>
      <path id="Trazado_721891" data-name="Trazado 721891" d="M294.663,377.191v4.372l12.022,5.465h3.279v-9.836Z" transform="translate(-265.101 -339.759)" fill="#ffe0a2"/>
      <path id="Trazado_721892" data-name="Trazado 721892" d="M305.556,420.766l1.093,5.465h9.836v-5.465Z" transform="translate(-274.901 -378.962)" fill="#fff"/>
      <path id="Trazado_721893" data-name="Trazado 721893" d="M328.472,342.332H316.45v4.59h14.208Z" transform="translate(-284.702 -308.397)" fill="#d3552b"/>
      <path id="Trazado_721894" data-name="Trazado 721894" d="M251.088,173.724h6.558v-5.41l-3.279-2.459-3.279,2.459Z" transform="translate(-225.897 -149.625)" fill="#ffe0a2"/>
      <path id="Trazado_721895" data-name="Trazado 721895" d="M251.088,226.3h6.558V201l-3.279-2.459L251.088,201Z" transform="translate(-225.897 -179.027)" fill="#fff"/>
      <path id="Trazado_721896" data-name="Trazado 721896" d="M276.419,439.3a.82.82,0,0,1-.82-.82V435.2a.82.82,0,1,1,1.639,0v3.279A.82.82,0,0,1,276.419,439.3Z" transform="translate(-247.949 -391.213)" fill="#d3552b"/>
      <rect id="Rect치ngulo_339258" data-name="Rect치ngulo 339258" width="6.558" height="3.279" transform="translate(25.191 29.345)" fill="#ffe0a2"/>
      <g id="Grupo_956567" data-name="Grupo 956567" transform="translate(23.826 0.82)">
        <path id="Trazado_721897" data-name="Trazado 721897" d="M406.887,17.72h-3.279V12.255h3.279a2.732,2.732,0,1,1,0,5.465Z" transform="translate(-386.941 -12.255)" fill="#b3efff"/>
        <path id="Trazado_721898" data-name="Trazado 721898" d="M243.492,47.122l-6.011-2.186v4.918h3.279A2.732,2.732,0,0,0,243.492,47.122Z" transform="translate(-237.481 -41.657)" fill="#b3efff"/>
      </g>
      <path id="Trazado_721899" data-name="Trazado 721899" d="M85.086,17.72a2.732,2.732,0,1,0,0-5.465H65.96a2.732,2.732,0,0,0-2.732,2.732H52.3a2.732,2.732,0,0,0,0,5.465H68.419a2.732,2.732,0,0,0,2.732-2.732H85.086Z" transform="translate(-44.593 -11.435)" fill="#d9f7ff"/>
      <path id="Trazado_721900" data-name="Trazado 721900" d="M50.547,128.318h-2.46v-4.966a.819.819,0,0,0,.765-1.427l-6.12-4.59a.82.82,0,0,0-.984,0l-6.121,4.59a.82.82,0,0,0,.765,1.429v4.965H32.568v-4.966a.819.819,0,0,0,.765-1.427l-4.044-3.033V114.93a.82.82,0,0,0-1.639,0v3.962l-4.044,3.033a.82.82,0,0,0,.765,1.429v4.965H18.563L13.869,120.1a7.049,7.049,0,0,0-5.617-3.26H.874a.82.82,0,1,0,0,1.639H8.252a5.424,5.424,0,0,1,4.194,2.434l4.23,7.4H.82a.82.82,0,0,0,0,1.639H24.371V131.6H24.1a.82.82,0,1,0,0,1.639h.273v17.1a.82.82,0,0,0,.82.82H44.863a.82.82,0,0,0,.82-.82v-7.924h.273a.82.82,0,0,0,.74-1.172l-2.186-4.59a.82.82,0,0,0-.74-.467h-11.2v-2.951h.273a.82.82,0,1,0,0-1.639h-.273v-1.639h17.98a.82.82,0,1,0,0-1.639Zm-6.5,21.2H32.568v-7.1H44.044Zm-.791-11.694,1.405,2.951H32.568v-2.951ZM30.929,149.521H26.01V133.236h4.918ZM26.01,131.6V122.17l2.459-1.844,2.459,1.844V131.6Zm12.022-9.426,4.208-3.156,4.208,3.156v6.148H43.06v-2.459a.82.82,0,0,0-1.639,0v2.459H38.032Z" transform="translate(0 -103.072)"/>
      <path id="Trazado_721901" data-name="Trazado 721901" d="M41.467,301.032l-5.792-4.344v-2.1a.819.819,0,0,0,.765-1.427l-6.12-4.59a.82.82,0,0,0-.984,0l-6.12,4.59a.82.82,0,0,0,.765,1.429v5.785a.82.82,0,0,0,.82.82h1.093a.82.82,0,0,0,0-1.639H25.62v-6.148l4.208-3.156,4.208,3.156v3.279l-3.388,2.541V297.1a.82.82,0,1,0-1.639,0v3.279c0,.027,0,.053,0,.079l-.769.577a.82.82,0,0,0,.765,1.429v5.785a.82.82,0,0,0,.82.82H39.882a.82.82,0,0,0,.82-.82v-5.786a.819.819,0,0,0,.765-1.427Zm-5.792,6.393v-2.459a.82.82,0,1,0-1.639,0v2.459H30.648v-6.148l4.208-3.156,4.208,3.156v6.148Z" transform="translate(-20.592 -259.884)"/>
      <path id="Trazado_721902" data-name="Trazado 721902" d="M44.948,13.921h19.4A3.558,3.558,0,0,0,67.8,11.189h13.21a3.552,3.552,0,0,0,0-7.1H77.735a.82.82,0,1,0,0,1.639h3.279a1.913,1.913,0,1,1,0,3.825H67.08a.82.82,0,0,0-.82.82,1.915,1.915,0,0,1-1.913,1.913h-19.4a1.913,1.913,0,1,1,0-3.825H55.877a.82.82,0,0,0,.82-.82,1.915,1.915,0,0,1,1.913-1.913H74.457a.82.82,0,0,0,0-1.639H58.609a3.558,3.558,0,0,0-3.456,2.732h-10.2a3.552,3.552,0,1,0,0,7.1Z" transform="translate(-37.243 -4.085)"/>
      <path id="Trazado_721903" data-name="Trazado 721903" d="M34.59,456.17a.82.82,0,0,0-.82.82v1.093a.82.82,0,1,0,1.639,0V456.99A.819.819,0,0,0,34.59,456.17Z" transform="translate(-30.382 -410.814)"/>
      <path id="Trazado_721904" data-name="Trazado 721904" d="M197.995,336.34a.82.82,0,0,0-.82.82v1.093a.82.82,0,1,0,1.639,0V337.16A.82.82,0,0,0,197.995,336.34Z" transform="translate(-177.393 -303.006)"/>
      <path id="Trazado_721905" data-name="Trazado 721905" d="M464.888,288.409a.82.82,0,0,0-.82.82v1.093a.82.82,0,0,0,1.639,0v-1.093A.819.819,0,0,0,464.888,288.409Z" transform="translate(-417.51 -259.884)"/>
      <circle id="Elipse_7697" data-name="Elipse 7697" cx="0.82" cy="0.82" r="0.82" transform="translate(27.65 20.602)"/>
    </g>
  </g>
</svg>
