<svg xmlns="http://www.w3.org/2000/svg" xmlns:xlink="http://www.w3.org/1999/xlink" width="399.998" height="253.258" viewBox="0 0 399.998 253.258">
  <defs>
    <linearGradient id="linear-gradient" x1="17.03" y1="-4.535" x2="14.908" y2="-4.535" gradientUnits="objectBoundingBox">
      <stop offset="0" stop-color="#ffd8ab"/>
      <stop offset="1" stop-color="#ffc98b"/>
    </linearGradient>
    <linearGradient id="linear-gradient-2" x1="27.507" y1="-4.987" x2="24.72" y2="-4.987" gradientUnits="objectBoundingBox">
      <stop offset="0" stop-color="#ffc98b"/>
      <stop offset="1" stop-color="#fbab4d"/>
    </linearGradient>
    <linearGradient id="linear-gradient-3" x1="10.877" y1="-54.958" x2="9.864" y2="-54.958" xlink:href="#linear-gradient-2"/>
    <linearGradient id="linear-gradient-4" x1="-16.094" y1="255.868" x2="-15.104" y2="255.868" xlink:href="#linear-gradient-2"/>
    <linearGradient id="linear-gradient-5" x1="10.511" y1="-322.297" x2="10.487" y2="-320.203" gradientUnits="objectBoundingBox">
      <stop offset="0" stop-color="#ece5ba"/>
      <stop offset="1" stop-color="#c6c09c"/>
    </linearGradient>
    <linearGradient id="linear-gradient-6" x1="0.838" y1="0.5" x2="-0.162" y2="0.5" gradientUnits="objectBoundingBox">
      <stop offset="0" stop-color="#ffebe6"/>
      <stop offset="1" stop-color="#f5cec7"/>
    </linearGradient>
    <linearGradient id="linear-gradient-7" x1="0.87" y1="0.5" x2="-0.13" y2="0.5" gradientUnits="objectBoundingBox">
      <stop offset="0" stop-color="#e79796"/>
      <stop offset="1" stop-color="#dc6963"/>
    </linearGradient>
    <linearGradient id="linear-gradient-8" x1="0.162" y1="0.5" x2="1.162" y2="0.5" xlink:href="#linear-gradient-7"/>
    <linearGradient id="linear-gradient-9" x1="9.833" y1="-1.811" x2="10.144" y2="-1.364" xlink:href="#linear-gradient-6"/>
    <linearGradient id="linear-gradient-10" x1="11.264" y1="-1.945" x2="11.55" y2="-1.457" xlink:href="#linear-gradient-7"/>
    <linearGradient id="linear-gradient-11" x1="-5.275" y1="127.293" x2="-4.839" y2="127.733" xlink:href="#linear-gradient-6"/>
    <linearGradient id="linear-gradient-12" x1="-4.387" y1="137.7" x2="-3.998" y2="138.208" xlink:href="#linear-gradient-7"/>
    <linearGradient id="linear-gradient-13" x1="45.418" y1="-5.425" x2="45.785" y2="-4.977" xlink:href="#linear-gradient-6"/>
    <linearGradient id="linear-gradient-14" x1="47.088" y1="-5.556" x2="47.42" y2="-5.052" xlink:href="#linear-gradient-7"/>
    <linearGradient id="linear-gradient-15" x1="91.665" y1="130.109" x2="91.984" y2="130.684" xlink:href="#linear-gradient-6"/>
    <linearGradient id="linear-gradient-16" x1="98.668" y1="130.077" x2="98.974" y2="130.687" xlink:href="#linear-gradient-7"/>
    <linearGradient id="linear-gradient-17" x1="103.211" y1="67.594" x2="103.535" y2="68.06" xlink:href="#linear-gradient-6"/>
    <linearGradient id="linear-gradient-18" x1="107.97" y1="68.853" x2="108.272" y2="69.356" xlink:href="#linear-gradient-7"/>
    <linearGradient id="linear-gradient-19" x1="-27.744" y1="46.57" x2="-27.421" y2="47.182" xlink:href="#linear-gradient-6"/>
    <linearGradient id="linear-gradient-20" x1="-29.076" y1="45.804" x2="-28.759" y2="46.449" xlink:href="#linear-gradient-7"/>
    <linearGradient id="linear-gradient-21" x1="-30.94" y1="48.077" x2="-30.618" y2="48.689" xlink:href="#linear-gradient-6"/>
    <linearGradient id="linear-gradient-22" x1="-32.609" y1="47.319" x2="-32.292" y2="47.964" xlink:href="#linear-gradient-7"/>
    <linearGradient id="linear-gradient-23" x1="1" y1="0.5" x2="0" y2="0.5" gradientUnits="objectBoundingBox">
      <stop offset="0" stop-color="#b27c5c"/>
      <stop offset="1" stop-color="#a35c3b"/>
    </linearGradient>
    <linearGradient id="linear-gradient-24" x1="0.534" y1="0.377" x2="0.641" y2="0.735" xlink:href="#linear-gradient-23"/>
    <linearGradient id="linear-gradient-26" x1="1" y1="0.5" x2="0" y2="0.5" gradientUnits="objectBoundingBox">
      <stop offset="0" stop-color="#f5fbff"/>
      <stop offset="1" stop-color="#deecf5"/>
    </linearGradient>
    <linearGradient id="linear-gradient-28" x1="1" y1="0.5" x2="0" y2="0.5" gradientUnits="objectBoundingBox">
      <stop offset="0" stop-color="#c0c5c8"/>
      <stop offset="1" stop-color="#acb7be"/>
    </linearGradient>
    <linearGradient id="linear-gradient-30" x1="0.381" y1="0.083" x2="0.605" y2="0.807" gradientUnits="objectBoundingBox">
      <stop offset="0" stop-color="#ffc3a4"/>
      <stop offset="1" stop-color="#ffb284"/>
    </linearGradient>
    <linearGradient id="linear-gradient-33" x1="1" y1="0.5" x2="0" y2="0.5" xlink:href="#linear-gradient-30"/>
    <linearGradient id="linear-gradient-35" x1="1" y1="0.5" x2="0" y2="0.5" xlink:href="#linear-gradient-7"/>
    <linearGradient id="linear-gradient-36" x1="-0.484" y1="0.5" x2="1.484" y2="0.5" xlink:href="#linear-gradient-26"/>
    <linearGradient id="linear-gradient-37" x1="1" y1="0.5" x2="0" y2="0.5" gradientUnits="objectBoundingBox">
      <stop offset="0" stop-color="#d2d7db"/>
      <stop offset="1" stop-color="#bdc9d1"/>
    </linearGradient>
    <linearGradient id="linear-gradient-59" x1="0.5" y1="0.029" x2="0.5" y2="0.951" xlink:href="#linear-gradient-26"/>
    <linearGradient id="linear-gradient-68" x1="0.583" y1="0.508" x2="0.005" y2="0.543" xlink:href="#linear-gradient-26"/>
    <linearGradient id="linear-gradient-70" x1="0.457" y1="-0.133" x2="0.549" y2="0.519" xlink:href="#linear-gradient-30"/>
    <linearGradient id="linear-gradient-75" x1="56.082" y1="-3.457" x2="53.959" y2="-3.457" xlink:href="#linear-gradient"/>
    <linearGradient id="linear-gradient-76" x1="92.26" y1="-3.811" x2="89.473" y2="-3.811" xlink:href="#linear-gradient-2"/>
    <linearGradient id="linear-gradient-77" x1="34.845" y1="-43.027" x2="33.832" y2="-43.027" xlink:href="#linear-gradient-2"/>
    <linearGradient id="linear-gradient-78" x1="-55.305" y1="200.928" x2="-54.314" y2="200.928" xlink:href="#linear-gradient-2"/>
    <linearGradient id="linear-gradient-79" x1="34.862" y1="-253.275" x2="34.838" y2="-251.18" xlink:href="#linear-gradient-5"/>
    <linearGradient id="linear-gradient-80" x1="60.473" y1="-3.335" x2="58.351" y2="-3.335" xlink:href="#linear-gradient-5"/>
    <linearGradient id="linear-gradient-81" x1="99.542" y1="-3.679" x2="96.755" y2="-3.679" gradientUnits="objectBoundingBox">
      <stop offset="0" stop-color="#c6c09c"/>
      <stop offset="1" stop-color="#a09a63"/>
    </linearGradient>
    <linearGradient id="linear-gradient-82" x1="37.54" y1="-41.685" x2="36.528" y2="-41.685" xlink:href="#linear-gradient-81"/>
    <linearGradient id="linear-gradient-83" x1="-59.714" y1="194.75" x2="-58.723" y2="194.75" xlink:href="#linear-gradient-81"/>
    <linearGradient id="linear-gradient-84" x1="37.601" y1="-245.496" x2="37.576" y2="-243.401" xlink:href="#linear-gradient-5"/>
    <linearGradient id="linear-gradient-85" x1="64.864" y1="-3.214" x2="62.742" y2="-3.214" gradientUnits="objectBoundingBox">
      <stop offset="0" stop-color="#ffcaca"/>
      <stop offset="1" stop-color="#e79796"/>
    </linearGradient>
    <linearGradient id="linear-gradient-86" x1="106.823" y1="-3.547" x2="104.036" y2="-3.547" xlink:href="#linear-gradient-7"/>
    <linearGradient id="linear-gradient-87" x1="40.235" y1="-40.343" x2="39.223" y2="-40.343" xlink:href="#linear-gradient-7"/>
    <linearGradient id="linear-gradient-88" x1="-64.123" y1="188.572" x2="-63.132" y2="188.572" xlink:href="#linear-gradient-7"/>
    <linearGradient id="linear-gradient-89" x1="40.339" y1="-237.717" x2="40.315" y2="-235.622" xlink:href="#linear-gradient-5"/>
    <linearGradient id="linear-gradient-90" x1="0.5" y1="-0.098" x2="0.5" y2="0.774" xlink:href="#linear-gradient-28"/>
    <linearGradient id="linear-gradient-92" x1="0.5" y1="-0.062" x2="0.5" y2="0.695" xlink:href="#linear-gradient-28"/>
    <linearGradient id="linear-gradient-96" x1="1" y1="0.5" x2="0" y2="0.5" xlink:href="#linear-gradient-28"/>
    <linearGradient id="linear-gradient-98" x1="1" y1="0.5" x2="0" y2="0.5" xlink:href="#linear-gradient-2"/>
    <linearGradient id="linear-gradient-100" x1="1" y1="0.5" x2="0" y2="0.5" xlink:href="#linear-gradient-81"/>
  </defs>
  <g id="Grupo_948332" data-name="Grupo 948332" transform="translate(-0.001 0)">
    <g id="Grupo_945662" data-name="Grupo 945662" transform="translate(325.712 165.241)">
      <path id="Trazado_684072" data-name="Trazado 684072" d="M684.486,909.162a3.089,3.089,0,0,1-1.572.426l-3.871,0a3.1,3.1,0,0,1-3.093-3.1l.038-43.422,0-1.644,6.251.007,3.815,0,0,1.644-.039,43.422A3.09,3.09,0,0,1,684.486,909.162Z" transform="translate(-672.883 -857.079)" fill="url(#linear-gradient)"/>
      <path id="Trazado_684073" data-name="Trazado 684073" d="M682.157,910.938a1.093,1.093,0,0,1-.807-1.056l.04-43.06,6.055.006-.04,43.06a1.092,1.092,0,0,1-1.093,1.091l-3.871,0A1.1,1.1,0,0,1,682.157,910.938Z" transform="translate(-676.278 -860.474)" fill="url(#linear-gradient-2)"/>
      <path id="Trazado_684074" data-name="Trazado 684074" d="M678.235,909.173a3.1,3.1,0,0,1-2.285-3l.038-43.422,0-1.32,3.815,0,0,1.644-.039,43.422A3.09,3.09,0,0,1,678.235,909.173Z" transform="translate(-666.633 -857.09)" fill="#fff" opacity="0.2"/>
      <path id="Trazado_684075" data-name="Trazado 684075" d="M683.464,853.655a.788.788,0,0,1-.709.437l-14.88-.013a.792.792,0,0,1-.62-.3.783.783,0,0,1-.173-.495l0-2.752a.823.823,0,0,1,.059-.3.793.793,0,0,1,.735-.495l14.882.014a.787.787,0,0,1,.732.5.761.761,0,0,1,.058.3l0,2.754A.793.793,0,0,1,683.464,853.655Z" transform="translate(-667.083 -849.741)" fill="url(#linear-gradient-3)"/>
      <path id="Trazado_684076" data-name="Trazado 684076" d="M683.588,850.251a.789.789,0,0,1-.734.493l-14.882-.013a.534.534,0,1,1,0-.99l14.882.014A.787.787,0,0,1,683.588,850.251Z" transform="translate(-667.178 -849.741)" fill="#fff" opacity="0.2"/>
      <rect id="Rectángulo_337435" data-name="Rectángulo 337435" width="10.066" height="0.945" transform="translate(13.172 5.296) rotate(-179.937)" fill="url(#linear-gradient-4)"/>
      <path id="Trazado_684077" data-name="Trazado 684077" d="M683.525,859.743a.788.788,0,0,1-.709.437l-14.88-.013a.441.441,0,1,1,.09-.738l14.882.014A.782.782,0,0,1,683.525,859.743Z" transform="translate(-667.144 -855.829)" opacity="0.5" fill="url(#linear-gradient-5)" style="mix-blend-mode: multiply;isolation: isolate"/>
    </g>
    <g id="Grupo_945670" data-name="Grupo 945670" transform="translate(300.974 188.799)">
      <path id="Trazado_684078" data-name="Trazado 684078" d="M702.366,927.646V957.5a5.334,5.334,0,0,1-5.334,5.334H670.375a4.925,4.925,0,0,1-.59-.035,5.333,5.333,0,0,1-4.744-5.3v-29.85Z" transform="translate(-660.401 -922.254)" fill="url(#linear-gradient-6)"/>
      <path id="Rectángulo_337436" data-name="Rectángulo 337436" d="M0,0H20.96A8.438,8.438,0,0,1,29.4,8.438V23.1a8.438,8.438,0,0,1-8.437,8.438H0a0,0,0,0,1,0,0V0A0,0,0,0,1,0,0Z" transform="translate(39.072 8.285) rotate(90)" fill="#fff" opacity="0.5"/>
      <path id="Trazado_684079" data-name="Trazado 684079" d="M699.16,914.253v3.162a1.112,1.112,0,0,1-1.114,1.114H653.672a1.115,1.115,0,0,1-1.117-1.114v-3.162a1.1,1.1,0,0,1,.081-.417,1.116,1.116,0,0,1,1.036-.7h44.374a1.118,1.118,0,0,1,1.114,1.117Z" transform="translate(-652.555 -913.136)" fill="url(#linear-gradient-7)"/>
      <path id="Trazado_684080" data-name="Trazado 684080" d="M699.216,913.836H652.773a1.116,1.116,0,0,1,1.036-.7h44.374A1.112,1.112,0,0,1,699.216,913.836Z" transform="translate(-652.692 -913.136)" fill="#fff" opacity="0.2"/>
      <rect id="Rectángulo_337437" data-name="Rectángulo 337437" width="37.325" height="4.107" transform="translate(4.64 5.392)" opacity="0.2" fill="url(#linear-gradient-8)"/>
      <g id="Grupo_945663" data-name="Grupo 945663" transform="translate(14.088 26.575)">
        <path id="Trazado_684081" data-name="Trazado 684081" d="M721.3,998.032a2.2,2.2,0,0,1-3.119.026l-2.589-2.548a4.4,4.4,0,0,1,1.492-1.83,5.447,5.447,0,0,1,1.886-1.033l2.3,2.266A2.206,2.206,0,0,1,721.3,998.032Z" transform="translate(-712.836 -989.674)" fill="url(#linear-gradient-9)"/>
        <path id="Trazado_684082" data-name="Trazado 684082" d="M729.69,987.62a5.446,5.446,0,0,0-1.886,1.033,4.4,4.4,0,0,0-1.492,1.83h0l-2.092-2.057a2.205,2.205,0,1,1,3.093-3.145Z" transform="translate(-723.56 -984.648)" fill="url(#linear-gradient-10)"/>
        <path id="Trazado_684083" data-name="Trazado 684083" d="M724.683,990.238l-1.971-1.929-2.034-1.992a1.88,1.88,0,1,0-2.643,2.675l1.789,1.752h0l2.215,2.17a1.88,1.88,0,1,0,2.643-2.675Z" transform="translate(-716.854 -985.357)" fill="#fff" opacity="0.1"/>
        <path id="Trazado_684084" data-name="Trazado 684084" d="M723.486,991.821a2.9,2.9,0,0,0-.522-1.017s-4.039-4.021-4.591-4.554a1.735,1.735,0,0,0-.9-.466,1.9,1.9,0,0,1,.37.009,1.878,1.878,0,0,1,1.091.526l2.035,1.992,1.97,1.929A1.873,1.873,0,0,1,723.486,991.821Z" transform="translate(-715.109 -985.358)" fill="#fff" opacity="0.1"/>
        <path id="Trazado_684085" data-name="Trazado 684085" d="M717.742,985.929a2.146,2.146,0,0,1,.965.4c.319.3,4.7,4.67,4.7,4.67a2.307,2.307,0,0,1,.588,1.284,5.234,5.234,0,0,0-.687-1.178l-4.7-4.678A2,2,0,0,0,717.742,985.929Z" transform="translate(-715.699 -985.453)" fill="#fff" opacity="0.1"/>
        <path id="Trazado_684086" data-name="Trazado 684086" d="M721.168,989.672a2.145,2.145,0,0,0,.406.961c.3.316,4.716,4.65,4.716,4.65a2.307,2.307,0,0,0,1.29.575,5.222,5.222,0,0,1-1.184-.675l-4.724-4.653A2,2,0,0,1,721.168,989.672Z" transform="translate(-720.56 -987.805)" fill="#fff" opacity="0.1"/>
      </g>
      <g id="Grupo_945664" data-name="Grupo 945664" transform="translate(34.536 26.575)">
        <path id="Trazado_684087" data-name="Trazado 684087" d="M674.945,984.649a2.2,2.2,0,0,1,2.128,2.28l-.126,3.631a4.4,4.4,0,0,1-2.357.138,5.445,5.445,0,0,1-2.036-.691l.111-3.229A2.206,2.206,0,0,1,674.945,984.649Z" transform="translate(-672.438 -984.647)" fill="url(#linear-gradient-11)"/>
        <path id="Trazado_684088" data-name="Trazado 684088" d="M673.011,999.068a5.444,5.444,0,0,0,2.036.691,4.4,4.4,0,0,0,2.357-.138h0l-.1,2.932a2.206,2.206,0,1,1-4.409-.152Z" transform="translate(-672.895 -993.709)" fill="url(#linear-gradient-12)"/>
        <path id="Trazado_684089" data-name="Trazado 684089" d="M674.094,989.161l-.088,2.757-.092,2.845a1.88,1.88,0,1,0,3.757.138l.081-2.5h0l.1-3.1a1.88,1.88,0,1,0-3.758-.137Z" transform="translate(-673.721 -986.344)" fill="#fff" opacity="0.1"/>
        <path id="Trazado_684090" data-name="Trazado 684090" d="M682.865,988.262a2.9,2.9,0,0,0-.4,1.072s-.229,5.7-.25,6.462a1.73,1.73,0,0,0,.266.98,1.9,1.9,0,0,1-.244-.278,1.881,1.881,0,0,1-.352-1.16l.092-2.846.088-2.756A1.873,1.873,0,0,1,682.865,988.262Z" transform="translate(-681.697 -986.919)" fill="#fff" opacity="0.1"/>
        <path id="Trazado_684091" data-name="Trazado 684091" d="M681.375,996.667a2.143,2.143,0,0,1-.36-.978c.006-.438.263-6.618.263-6.618a2.305,2.305,0,0,1,.548-1.3,5.22,5.22,0,0,0-.4,1.3c-.018.437-.268,6.626-.268,6.626A2,2,0,0,0,681.375,996.667Z" transform="translate(-680.334 -986.609)" fill="#fff" opacity="0.1"/>
        <path id="Trazado_684092" data-name="Trazado 684092" d="M675.059,996.967a2.142,2.142,0,0,0,.433-.948c.027-.438.236-6.619.236-6.619a2.307,2.307,0,0,0-.449-1.339,5.215,5.215,0,0,1,.3,1.329c-.016.437-.232,6.627-.232,6.627A2,2,0,0,1,675.059,996.967Z" transform="translate(-672.022 -986.792)" fill="#fff" opacity="0.1"/>
      </g>
      <g id="Grupo_945665" data-name="Grupo 945665" transform="translate(28.397 27.064)">
        <path id="Trazado_684093" data-name="Trazado 684093" d="M688.33,1004.443a2.2,2.2,0,0,1-2.753-1.465l-1.061-3.475a4.4,4.4,0,0,1,2.185-.9,5.453,5.453,0,0,1,2.15-.008l.944,3.09A2.206,2.206,0,0,1,688.33,1004.443Z" transform="translate(-683.561 -993.847)" fill="url(#linear-gradient-13)"/>
        <path id="Trazado_684094" data-name="Trazado 684094" d="M692.606,990.715a5.45,5.45,0,0,0-2.15.008,4.4,4.4,0,0,0-2.185.9h0l-.857-2.806a2.205,2.205,0,1,1,4.219-1.289Z" transform="translate(-687.317 -985.962)" fill="url(#linear-gradient-14)"/>
        <path id="Trazado_684095" data-name="Trazado 684095" d="M690.854,994.129l-.811-2.635-.838-2.721a1.88,1.88,0,1,0-3.6,1.091l.737,2.393h0l.911,2.964a1.88,1.88,0,1,0,3.6-1.091Z" transform="translate(-684.982 -986.889)" fill="#fff" opacity="0.1"/>
        <path id="Trazado_684096" data-name="Trazado 684096" d="M687.93,996.066a2.9,2.9,0,0,0,.027-1.143s-1.633-5.461-1.863-6.193a1.732,1.732,0,0,0-.57-.84,1.91,1.91,0,0,1,.321.184,1.878,1.878,0,0,1,.709.983l.838,2.722.811,2.635A1.872,1.872,0,0,1,687.93,996.066Z" transform="translate(-682.33 -987.174)" fill="#fff" opacity="0.1"/>
        <path id="Trazado_684097" data-name="Trazado 684097" d="M686.706,987.6a2.144,2.144,0,0,1,.658.808c.137.417,1.9,6.344,1.9,6.344a2.3,2.3,0,0,1-.1,1.409,5.227,5.227,0,0,0-.042-1.363c-.126-.418-1.9-6.353-1.9-6.353A2,2,0,0,0,686.706,987.6Z" transform="translate(-683.818 -986.992)" fill="#fff" opacity="0.1"/>
        <path id="Trazado_684098" data-name="Trazado 684098" d="M691.869,989.048a2.142,2.142,0,0,0-.1,1.038c.116.422,1.926,6.336,1.926,6.336a2.3,2.3,0,0,0,.86,1.12,5.213,5.213,0,0,1-.719-1.158l-1.933-6.344A2,2,0,0,1,691.869,989.048Z" transform="translate(-690.906 -987.901)" fill="#fff" opacity="0.1"/>
      </g>
      <g id="Grupo_945666" data-name="Grupo 945666" transform="translate(21.559 28.322)">
        <path id="Trazado_684099" data-name="Trazado 684099" d="M703.321,991.348a2.2,2.2,0,0,1,2.4-1.991l3.617.339a4.4,4.4,0,0,1,0,2.361,5.437,5.437,0,0,1-.81,1.992l-3.217-.3A2.205,2.205,0,0,1,703.321,991.348Z" transform="translate(-703.311 -989.348)" fill="url(#linear-gradient-15)"/>
        <path id="Trazado_684100" data-name="Trazado 684100" d="M690.487,994.638a5.439,5.439,0,0,0,.81-1.992,4.4,4.4,0,0,0,0-2.361h0l2.921.273a2.205,2.205,0,1,1-.41,4.392Z" transform="translate(-685.269 -989.936)" fill="url(#linear-gradient-16)"/>
        <path id="Trazado_684101" data-name="Trazado 684101" d="M693.836,994.565l2.746.25,2.835.259a1.88,1.88,0,1,0,.358-3.743l-2.494-.227h0l-3.088-.282a1.88,1.88,0,1,0-.358,3.743Z" transform="translate(-691.14 -990.269)" fill="#fff" opacity="0.1"/>
        <path id="Trazado_684102" data-name="Trazado 684102" d="M693.723,998.54a2.9,2.9,0,0,0,1.047.459s5.672.564,6.436.629a1.731,1.731,0,0,0,.994-.208,1.924,1.924,0,0,1-.292.227,1.879,1.879,0,0,1-1.178.282l-2.836-.259-2.745-.25A1.873,1.873,0,0,1,693.723,998.54Z" transform="translate(-692.452 -995.124)" fill="#fff" opacity="0.1"/>
        <path id="Trazado_684103" data-name="Trazado 684103" d="M702,998.613a2.144,2.144,0,0,1-1,.3c-.437-.032-6.591-.651-6.591-.651a2.309,2.309,0,0,1-1.267-.624,5.231,5.231,0,0,0,1.277.479l6.6.656A2.006,2.006,0,0,0,702,998.613Z" transform="translate(-692.037 -994.558)" fill="#fff" opacity="0.1"/>
        <path id="Trazado_684104" data-name="Trazado 684104" d="M701.392,993.029a2.144,2.144,0,0,0-.922-.488c-.436-.053-6.594-.625-6.594-.625a2.308,2.308,0,0,0-1.363.37,5.229,5.229,0,0,1,1.345-.225l6.6.621A2.009,2.009,0,0,1,701.392,993.029Z" transform="translate(-691.195 -990.96)" fill="#fff" opacity="0.1"/>
      </g>
      <g id="Grupo_945667" data-name="Grupo 945667" transform="translate(29.211 20.167)">
        <path id="Trazado_684105" data-name="Trazado 684105" d="M683.2,976.16a2.2,2.2,0,0,1,.984-2.96l3.248-1.627a4.4,4.4,0,0,1,1.249,2,5.445,5.445,0,0,1,.367,2.119l-2.889,1.448A2.205,2.205,0,0,1,683.2,976.16Z" transform="translate(-682.97 -970.024)" fill="url(#linear-gradient-17)"/>
        <path id="Trazado_684106" data-name="Trazado 684106" d="M673.3,973.076a5.446,5.446,0,0,0-.367-2.119,4.4,4.4,0,0,0-1.249-2h0l2.623-1.315a2.205,2.205,0,1,1,1.976,3.944Z" transform="translate(-667.221 -967.404)" fill="url(#linear-gradient-18)"/>
        <path id="Trazado_684107" data-name="Trazado 684107" d="M675.776,975.037l2.463-1.241,2.542-1.281a1.88,1.88,0,1,0-1.677-3.365l-2.236,1.127h0l-2.769,1.395a1.88,1.88,0,1,0,1.677,3.365Z" transform="translate(-672.048 -968.375)" fill="#fff" opacity="0.1"/>
        <path id="Trazado_684108" data-name="Trazado 684108" d="M673.226,979.028a2.9,2.9,0,0,0,1.131-.165s5.111-2.523,5.794-2.872a1.732,1.732,0,0,0,.733-.7,1.926,1.926,0,0,1-.128.347,1.881,1.881,0,0,1-.85.863l-2.543,1.281L674.9,979.02A1.872,1.872,0,0,1,673.226,979.028Z" transform="translate(-671.172 -972.358)" fill="#fff" opacity="0.1"/>
        <path id="Trazado_684109" data-name="Trazado 684109" d="M681.107,974.432a2.145,2.145,0,0,1-.687.785c-.387.2-5.937,2.935-5.937,2.935a2.307,2.307,0,0,1-1.405.141,5.224,5.224,0,0,0,1.336-.269l5.946-2.935A2.007,2.007,0,0,0,681.107,974.432Z" transform="translate(-671.34 -971.82)" fill="#fff" opacity="0.1"/>
        <path id="Trazado_684110" data-name="Trazado 684110" d="M683.3,969.509a2.146,2.146,0,0,0-1.04.074c-.4.185-5.925,2.959-5.925,2.959a2.308,2.308,0,0,0-.961,1.035,5.225,5.225,0,0,1,1.022-.9l5.931-2.967A2.005,2.005,0,0,1,683.3,969.509Z" transform="translate(-674.384 -968.706)" fill="#fff" opacity="0.1"/>
      </g>
      <g id="Grupo_945668" data-name="Grupo 945668" transform="translate(8.553 32.837)">
        <path id="Trazado_684111" data-name="Trazado 684111" d="M731.528,1003.7a2.2,2.2,0,0,1-2.2,2.212l-3.633.01a4.4,4.4,0,0,1-.226-2.35,5.449,5.449,0,0,1,.615-2.061l3.231-.009A2.205,2.205,0,0,1,731.528,1003.7Z" transform="translate(-720.549 -1001.498)" fill="url(#linear-gradient-19)"/>
        <path id="Trazado_684112" data-name="Trazado 684112" d="M745.591,1001.523a5.448,5.448,0,0,0-.615,2.061,4.406,4.406,0,0,0,.226,2.35h0l-2.934.009a2.206,2.206,0,1,1-.013-4.411Z" transform="translate(-740.056 -1001.514)" fill="url(#linear-gradient-20)"/>
        <path id="Trazado_684113" data-name="Trazado 684113" d="M735.613,1001.959l-2.758.014-2.847.014a1.88,1.88,0,1,0,0,3.76l2.5-.013h0l3.1-.015a1.88,1.88,0,1,0,0-3.76Z" transform="translate(-727.528 -1001.787)" fill="#fff" opacity="0.1"/>
        <path id="Trazado_684114" data-name="Trazado 684114" d="M737.674,1002.7a2.9,2.9,0,0,0-1.087-.356s-5.7-.017-6.466-.009a1.733,1.733,0,0,0-.969.3,1.889,1.889,0,0,1,1.415-.648l2.848-.015,2.757-.014A1.873,1.873,0,0,1,737.674,1002.7Z" transform="translate(-728.087 -1001.787)" fill="#fff" opacity="0.1"/>
        <path id="Trazado_684115" data-name="Trazado 684115" d="M728.628,1003.806a2.141,2.141,0,0,1,.964-.4c.438-.01,6.623.017,6.623.017a2.307,2.307,0,0,1,1.321.5,5.22,5.22,0,0,0-1.316-.354l-6.631-.02A2,2,0,0,0,728.628,1003.806Z" transform="translate(-727.754 -1002.698)" fill="#fff" opacity="0.1"/>
        <path id="Trazado_684116" data-name="Trazado 684116" d="M728.741,1009.67a2.141,2.141,0,0,0,.964.4c.438.011,6.623-.01,6.623-.01a2.307,2.307,0,0,0,1.322-.5,5.224,5.224,0,0,1-1.317.353l-6.631.015A2,2,0,0,1,728.741,1009.67Z" transform="translate(-727.909 -1006.563)" fill="#fff" opacity="0.1"/>
      </g>
      <g id="Grupo_945669" data-name="Grupo 945669" transform="translate(19.531 33.008)">
        <path id="Trazado_684117" data-name="Trazado 684117" d="M701.985,1004.158a2.2,2.2,0,0,1-2.2,2.212l-3.633.01a4.406,4.406,0,0,1-.226-2.351,5.448,5.448,0,0,1,.615-2.061l3.231-.01A2.205,2.205,0,0,1,701.985,1004.158Z" transform="translate(-691.007 -1001.959)" fill="url(#linear-gradient-21)"/>
        <path id="Trazado_684118" data-name="Trazado 684118" d="M716.049,1001.985a5.447,5.447,0,0,0-.615,2.061,4.405,4.405,0,0,0,.226,2.35h0l-2.934.009a2.205,2.205,0,1,1-.013-4.411Z" transform="translate(-710.514 -1001.975)" fill="url(#linear-gradient-22)"/>
        <path id="Trazado_684119" data-name="Trazado 684119" d="M706.071,1002.421l-2.758.014-2.847.014a1.88,1.88,0,1,0,0,3.76l2.5-.013h0l3.1-.015a1.88,1.88,0,1,0,0-3.76Z" transform="translate(-697.986 -1002.249)" fill="#fff" opacity="0.1"/>
        <path id="Trazado_684120" data-name="Trazado 684120" d="M708.132,1003.16a2.9,2.9,0,0,0-1.087-.356s-5.7-.017-6.466-.009a1.731,1.731,0,0,0-.969.3,1.885,1.885,0,0,1,1.415-.648l2.848-.014,2.757-.014A1.872,1.872,0,0,1,708.132,1003.16Z" transform="translate(-698.545 -1002.249)" fill="#fff" opacity="0.1"/>
        <path id="Trazado_684121" data-name="Trazado 684121" d="M699.086,1004.268a2.141,2.141,0,0,1,.964-.4c.438-.011,6.622.016,6.622.016a2.306,2.306,0,0,1,1.321.5,5.224,5.224,0,0,0-1.316-.355l-6.631-.021A2.006,2.006,0,0,0,699.086,1004.268Z" transform="translate(-698.212 -1003.159)" fill="#fff" opacity="0.1"/>
        <path id="Trazado_684122" data-name="Trazado 684122" d="M699.2,1010.132a2.143,2.143,0,0,0,.964.4c.438.011,6.623-.01,6.623-.01a2.31,2.31,0,0,0,1.321-.5,5.234,5.234,0,0,1-1.317.353l-6.631.015A2.007,2.007,0,0,1,699.2,1010.132Z" transform="translate(-698.367 -1007.024)" fill="#fff" opacity="0.1"/>
      </g>
      <rect id="Rectángulo_337438" data-name="Rectángulo 337438" width="16.275" height="11.175" rx="2.731" transform="translate(12.122 11.922)" fill="#fff"/>
      <rect id="Rectángulo_337439" data-name="Rectángulo 337439" width="11.008" height="1.1" transform="translate(14.756 19.837)" fill="#f5cec7"/>
      <rect id="Rectángulo_337440" data-name="Rectángulo 337440" width="11.008" height="1.1" transform="translate(14.756 17.509)" fill="#f5cec7"/>
      <path id="Trazado_684123" data-name="Trazado 684123" d="M738.421,927.646V962.83h-7.862a4.925,4.925,0,0,1-.59-.035V927.646Z" transform="translate(-720.585 -922.254)" fill="#fff" opacity="0.2"/>
      <path id="Trazado_684124" data-name="Trazado 684124" d="M711.56,927.646V962.83h-2.494a.525.525,0,0,1-.187-.035V927.646Z" transform="translate(-685.885 -922.254)" fill="#fff" opacity="0.2"/>
    </g>
    <path id="Trazado_684125" data-name="Trazado 684125" d="M819.362,440.089a15.142,15.142,0,0,0,8.424,6.3c3.824,1.116,7.935.668,11.826-.185A58.59,58.59,0,0,0,857,439.331a10.672,10.672,0,0,0,2.418-2,20.13,20.13,0,0,0,4.594-11.25,19.17,19.17,0,0,0-1.206-8.733,19.885,19.885,0,0,0-14.877-11.993,17.8,17.8,0,0,0-2-.232,23.428,23.428,0,0,0-14.241,4.229,38.935,38.935,0,0,0-10.367,10.874,23.972,23.972,0,0,0-4.169,9.575A15.153,15.153,0,0,0,819.362,440.089Z" transform="translate(-577.625 -405.088)" fill="url(#linear-gradient-23)"/>
    <path id="Trazado_684126" data-name="Trazado 684126" d="M791.3,632.114c-1.282,10.481-6.18,20.835-14.714,27.053s-20.91,7.5-29.717,1.677c-7.018-4.641-10.844-12.767-13.6-20.717-.562-1.621-1.094-3.4-.525-5.017.758-2.151,3.13-3.2,5.262-4.009l30.146-11.456,14.833-5.637c2.04-.775,5.478-2.934,7.632-2.9,2.01.031,1.875,1.345,1.805,3.167C792.2,620.164,792.018,626.261,791.3,632.114Z" transform="translate(-474.589 -534.547)" fill="url(#linear-gradient-24)"/>
    <path id="Trazado_684127" data-name="Trazado 684127" d="M727.344,630.2a62.335,62.335,0,0,1-1.474,10.043,113.289,113.289,0,0,0,3.277,54.6c-4.916-8.443-7.476-18.091-8.676-27.787s-1.087-19.5-.974-29.271a45.28,45.28,0,0,1,.834-9.834c.41-1.747,1.867-7.575,4.5-6.29C727.321,622.878,727.394,627.9,727.344,630.2Z" transform="translate(-406.419 -541.064)" fill="url(#linear-gradient-23)"/>
    <path id="Trazado_684128" data-name="Trazado 684128" d="M760.185,887.287l4.958,4.958,7.888-7.889,3.387-3.387-4.958-4.958-5.36,5.36Z" transform="translate(-468.837 -701.008)" fill="url(#linear-gradient-26)"/>
    <path id="Trazado_684129" data-name="Trazado 684129" d="M760.185,881.371v1.354a1.632,1.632,0,0,0,1.634,1.632h5.3l3.387-3.388-4.958-4.958Z" transform="translate(-462.922 -701.008)" fill="url(#linear-gradient-26)" style="mix-blend-mode: multiply;isolation: isolate"/>
    <path id="Trazado_684130" data-name="Trazado 684130" d="M792.758,911.552l2.505,2.506a.66.66,0,0,0,.934,0l2.22-2.22-3.439-3.44-2.22,2.221A.66.66,0,0,0,792.758,911.552Z" transform="translate(-502.868 -721.359)" fill="url(#linear-gradient-28)"/>
    <path id="Rectángulo_337441" data-name="Rectángulo 337441" d="M0,0H4.674a0,0,0,0,1,0,0V12.161a2.205,2.205,0,0,1-2.205,2.205H2.205A2.205,2.205,0,0,1,0,12.161V0A0,0,0,0,1,0,0Z" transform="translate(302.59 177.72)" fill="url(#linear-gradient-28)"/>
    <path id="Trazado_684131" data-name="Trazado 684131" d="M848.376,798.361,835.9,804.068l-8.043-19.823,10.527-4.174Z" transform="translate(-565.943 -640.721)" fill="url(#linear-gradient-30)"/>
    <path id="Trazado_684132" data-name="Trazado 684132" d="M850.649,737.707c1.756,12.621,7.058,25.028,16.1,33.926q1.22,1.2,2.529,2.314c3.6,3.049,7.851,5.615,12.549,6.028,4.09.359,8.131-.94,12-2.326a220.711,220.711,0,0,0,29.934-13.333,109.892,109.892,0,0,0-10.648-29.836c-5.771,1.921-11.357,3.946-17.128,5.864-1.605.532-3.5,1.021-4.9.139-.069-.044-.136-.09-.2-.139-1.7-1.29-1.351-3.876-.952-5.968a56.536,56.536,0,0,0-1.7-27.727,88.424,88.424,0,0,0-19.6,6.711C857.762,718.734,849.125,726.761,850.649,737.707Z" transform="translate(-649.734 -594.585)" fill="url(#linear-gradient-26)"/>
    <path id="Trazado_684133" data-name="Trazado 684133" d="M938.571,749.055c1.756,12.621,7.058,25.028,16.1,33.926q10.388-13.126,20.779-26.255a49.223,49.223,0,0,0,3.558-4.894c-.069-.043-.136-.09-.2-.139-1.7-1.29-1.351-3.876-.952-5.968a56.09,56.09,0,0,0,.952-8.568c-3.223-3.237-5.924-6.656-10.1-8.8a40.227,40.227,0,0,0-12.152-3.645C945.684,730.082,937.047,738.109,938.571,749.055Z" transform="translate(-737.656 -605.933)" fill="url(#linear-gradient-26)" style="mix-blend-mode: multiply;isolation: isolate"/>
    <path id="Trazado_684134" data-name="Trazado 684134" d="M786.373,756.276a10.62,10.62,0,0,0-4.73,13.571,35.333,35.333,0,0,0,3.676,7.022c1.13,1.814,2.418,3.757,4.448,4.43a8.155,8.155,0,0,0,4.475-.137,32.46,32.46,0,0,0,10.015-4.352c1.984-1.3,3.968-3.063,4.234-5.419.208-1.844-.692-3.612-1.565-5.25a39.228,39.228,0,0,0-4.488-7.132,19.717,19.717,0,0,0-7.142-5.278c-1.76-.763-2.531-.394-4.286.291A26.583,26.583,0,0,0,786.373,756.276Z" transform="translate(-508.617 -623.904)" fill="url(#linear-gradient-33)"/>
    <path id="Trazado_684135" data-name="Trazado 684135" d="M1071.447,623.273s-3.724,23.709-25.592,38.422c-17.047,11.47-23.759,32.547-24.766,67.953H921.384s24.643-166.627,99.705-171.886a133.85,133.85,0,0,1,35.607,2.3l6.817,2.731Z" transform="translate(-823.77 -500.822)" fill="url(#linear-gradient-26)"/>
    <path id="Trazado_684136" data-name="Trazado 684136" d="M942.359,589.854l-6.7-1.856-14.023,14.628-4.021,45.793s9.314,8.248,9.452,7.939,7.355-5.568,7.355-5.568l7.939-6.085,7.63-7.241Z" transform="translate(-700.91 -520.026)" fill="#fff"/>
    <path id="Trazado_684137" data-name="Trazado 684137" d="M974.622,722.022v8.319l-3.746,3.572-7.477.958-2.318-7.52,3.22-8,4.891-1.04Z" transform="translate(-741.696 -601.911)" fill="url(#linear-gradient-35)"/>
    <rect id="Rectángulo_337442" data-name="Rectángulo 337442" width="8.661" height="19.142" transform="matrix(-0.867, 0.498, -0.498, -0.867, 308.874, 157.664)" fill="url(#linear-gradient-36)"/>
    <path id="Trazado_684138" data-name="Trazado 684138" d="M775.713,745.246l9.19,16.008a1,1,0,0,0,1.371.371l7.058-4.05,3.032-1.739a1.006,1.006,0,0,0,.37-1.371l-9.19-16.011a1.006,1.006,0,0,0-1.371-.37l-3.031,1.741-1.982,1.137-5.074,2.913A1,1,0,0,0,775.713,745.246Z" transform="translate(-495.007 -614.253)" fill="url(#linear-gradient-37)"/>
    <path id="Trazado_684139" data-name="Trazado 684139" d="M783.871,748.189l9.19,16.009a1,1,0,0,0,1.371.37l.8-.463,6.254-3.587a1.006,1.006,0,0,0,.371-1.371l-9.191-16.009a1,1,0,0,0-1.371-.37l-1.982,1.137-5.074,2.913a.987.987,0,0,0-.292.255A1,1,0,0,0,783.871,748.189Z" transform="translate(-503.164 -617.196)" fill="url(#linear-gradient-28)"/>
    <path id="Trazado_684140" data-name="Trazado 684140" d="M801.479,754.685l9.19,16.009a1,1,0,0,0,1.371.37l.8-.463a1,1,0,0,0,.081-1.117l-9.19-16.008a1,1,0,0,0-1.371-.37l-.8.463A1,1,0,0,0,801.479,754.685Z" transform="translate(-520.772 -623.692)" opacity="0.6" fill="url(#linear-gradient-28)" style="mix-blend-mode: multiply;isolation: isolate"/>
    <rect id="Rectángulo_337443" data-name="Rectángulo 337443" width="14.023" height="45.161" transform="translate(310.495 177.72)" fill="url(#linear-gradient-26)"/>
    <path id="Trazado_684141" data-name="Trazado 684141" d="M707.852,976.058v10.009a1.588,1.588,0,0,0,1.585,1.585h64.094a1.595,1.595,0,0,0,1.585-1.585V976.058a1.586,1.586,0,0,0-1.585-1.585H709.437a1.589,1.589,0,0,0-1.542,1.215A1.561,1.561,0,0,0,707.852,976.058Z" transform="translate(-448.087 -762.88)" fill="url(#linear-gradient-37)"/>
    <path id="Trazado_684142" data-name="Trazado 684142" d="M711.44,978.089V988.1a1.588,1.588,0,0,0,1.585,1.585H777.12a1.536,1.536,0,0,0,.206-.015,1.416,1.416,0,0,0,.046-.37V979.289a1.584,1.584,0,0,0-1.585-1.585H711.695a1.649,1.649,0,0,0-.211.014A1.564,1.564,0,0,0,711.44,978.089Z" transform="translate(-451.675 -764.91)" fill="url(#linear-gradient-28)"/>
    <rect id="Rectángulo_337444" data-name="Rectángulo 337444" width="28.87" height="5.052" transform="translate(281.625 200.816)" fill="url(#linear-gradient-28)"/>
    <path id="Trazado_684143" data-name="Trazado 684143" d="M970.07,573.019s-20.275,12.264-21.306,48.145l.825,15.26-16.7,27.223-9.28-32.135,11.754-8.286L926.7,606.11s6.475-47.589,46.44-39.364A8.72,8.72,0,0,1,970.07,573.019Z" transform="translate(-726.287 -506.071)" fill="url(#linear-gradient-26)"/>
    <path id="Trazado_684144" data-name="Trazado 684144" d="M960.426,721.109s-5.739,12.3-22.339,12.914l-16.7,27.223,25.983-20.068-.412-4.474a28.869,28.869,0,0,0,15.508-10.583S961.422,721.5,960.426,721.109Z" transform="translate(-714.785 -603.67)" fill="url(#linear-gradient-26)"/>
    <path id="Trazado_684145" data-name="Trazado 684145" d="M953.042,590.026s-6.269,19.05-2.1,37.172l-12.6,5.886S932.28,602.92,953.042,590.026Z" transform="translate(-711.359 -521.3)" fill="url(#linear-gradient-26)"/>
    <path id="Trazado_684146" data-name="Trazado 684146" d="M947.393,585.24s-6.269,19.05-2.1,37.172l-12.6,5.886S926.63,598.134,947.393,585.24Z" transform="translate(-703.61 -518.293)" fill="#fff"/>
    <path id="Trazado_684147" data-name="Trazado 684147" d="M933.5,704.923l-4.554,7.974,6.1,1.019.908-1.56S934.478,705.335,933.5,704.923Z" transform="translate(-691.086 -593.499)" fill="url(#linear-gradient-26)"/>
    <path id="Trazado_684148" data-name="Trazado 684148" d="M931.418,701.108l-4.554,7.974,6.1,1.019.908-1.56S932.4,701.52,931.418,701.108Z" transform="translate(-688.233 -591.102)" fill="#fff"/>
    <path id="Trazado_684149" data-name="Trazado 684149" d="M736.432,597.227a77.913,77.913,0,0,0,20.3-.275,79.9,79.9,0,0,0,39.437-17.339c4.452-3.688,8.658-8.146,10.093-13.749,3.749-14.623-2.085-31.586-12.282-42.714a34.492,34.492,0,0,0-21.149-10.839c-12.164-1.443-24.64,4.018-32.85,13.113a48.915,48.915,0,0,0-10.862,20.839,57.642,57.642,0,0,0-1.736,12.861C727.108,571.369,731.135,586.18,736.432,597.227Z" transform="translate(-487.624 -472.32)" fill="url(#linear-gradient-33)"/>
    <path id="Trazado_684150" data-name="Trazado 684150" d="M944.608,699.128l-5.705,2.131-5.43-3.712,1.581-6.393,12.6-5.887,1.5,5.887Z" transform="translate(-705.977 -581.148)" fill="url(#linear-gradient-35)"/>
    <path id="Trazado_684151" data-name="Trazado 684151" d="M779.855,652.085s-22.058,18.909-46.089,3.448l-4.407-2.552Z" transform="translate(-460.818 -560.297)" opacity="0.51" fill="url(#linear-gradient-33)" style="mix-blend-mode: multiply;isolation: isolate"/>
    <path id="Trazado_684152" data-name="Trazado 684152" d="M707.852,1000.021v2.1a1.588,1.588,0,0,0,1.585,1.585h64.094a1.595,1.595,0,0,0,1.585-1.585v-2.1Z" transform="translate(-448.087 -778.933)" opacity="0.6" fill="url(#linear-gradient-28)" style="mix-blend-mode: multiply;isolation: isolate"/>
    <path id="Trazado_684153" data-name="Trazado 684153" d="M820.068,767.851a12.625,12.625,0,0,0-2.306,2.505,4.254,4.254,0,0,0-.666,3.255,4.3,4.3,0,0,0,3.607,2.871,12.651,12.651,0,0,0,4.826-.493,6.81,6.81,0,0,0-.171-6.06C824.266,768.265,822.058,767.841,820.068,767.851Z" transform="translate(-539.682 -633.042)" fill="url(#linear-gradient-33)"/>
    <path id="Trazado_684154" data-name="Trazado 684154" d="M764.183,763.318c.919,3.075-1.541,6.205-1.372,9.41.067,1.271.525,2.658-.146,3.739a2.472,2.472,0,0,1-2.608.982,3.811,3.811,0,0,1-2.3-1.758,8.66,8.66,0,0,1-1.018-2.778,16.619,16.619,0,0,1-.127-7.319c.394-1.687,1.479-4.722,3.276-5.414C761.635,759.507,763.743,761.848,764.183,763.318Z" transform="translate(-455.349 -628.147)" fill="url(#linear-gradient-33)"/>
    <path id="Trazado_684155" data-name="Trazado 684155" d="M831.943,440.089a15.142,15.142,0,0,0,8.424,6.3c3.824,1.116,7.935.668,11.826-.185a58.591,58.591,0,0,0,17.391-6.876,10.672,10.672,0,0,0,2.418-2c-.564.02-1.117.046-1.611.023a35.394,35.394,0,0,1-6.335-.781,16.876,16.876,0,0,1-9.486-5.459c-2.948-3.665-3.6-8.84-2.384-13.385a25.226,25.226,0,0,1,7.559-11.69c.252-.234.506-.463.767-.685a17.8,17.8,0,0,0-2-.232,23.427,23.427,0,0,0-14.241,4.229A38.933,38.933,0,0,0,833.9,420.224a23.972,23.972,0,0,0-4.169,9.575A15.151,15.151,0,0,0,831.943,440.089Z" transform="translate(-590.205 -405.088)" fill="url(#linear-gradient-26)" style="mix-blend-mode: multiply;isolation: isolate"/>
    <path id="Trazado_684156" data-name="Trazado 684156" d="M770.578,749.43a4.876,4.876,0,0,1,2.085,3.564,7.243,7.243,0,0,1-.858,3.122l-3.388,7.6a3.5,3.5,0,0,1-.452.813,2.31,2.31,0,0,1-2.893.314,5,5,0,0,1-1.887-2.479A12.634,12.634,0,0,1,765.4,749.1c.666-.753,1.174-1.535,2.2-1.2A10.321,10.321,0,0,1,770.578,749.43Z" transform="translate(-465.837 -620.455)" fill="url(#linear-gradient-33)"/>
    <path id="Trazado_684157" data-name="Trazado 684157" d="M782.122,737.532a2.532,2.532,0,0,1,2.012.878c.707.928.411,2.245.082,3.364l-2.388,8.137a5.576,5.576,0,0,1-1.405,2.742,3.43,3.43,0,0,1-4.346-.2,5.608,5.608,0,0,1-1.711-4.271,16.611,16.611,0,0,1,.9-4.643,8.885,8.885,0,0,0,.132-4.3C776.45,738.246,780.726,737.532,782.122,737.532Z" transform="translate(-482.255 -613.99)" fill="url(#linear-gradient-33)"/>
    <path id="Trazado_684158" data-name="Trazado 684158" d="M707.852,815.13v25.306a2.008,2.008,0,0,0,2.008,2.007h25.306a2.049,2.049,0,0,0,.6-.09,2.008,2.008,0,0,0,1.4-1.707,1.711,1.711,0,0,0,.011-.211v-11.1a2,2,0,0,0-.587-1.417L722.373,813.71a2,2,0,0,0-1.417-.587h-11.1a2.008,2.008,0,0,0-2.008,2.008Z" transform="translate(-410.143 -661.49)" fill="url(#linear-gradient-37)"/>
    <path id="Trazado_684159" data-name="Trazado 684159" d="M711.44,817.453v25.306a2.008,2.008,0,0,0,2.008,2.008h25.306a2.052,2.052,0,0,0,.6-.09,1.946,1.946,0,0,0,.075-.541v-11.1a2.01,2.01,0,0,0-.587-1.42l-14.212-14.212a2,2,0,0,0-1.418-.587h-11.1a2.036,2.036,0,0,0-.6.09A1.993,1.993,0,0,0,711.44,817.453Z" transform="translate(-413.731 -663.813)" fill="url(#linear-gradient-28)"/>
    <path id="Trazado_684160" data-name="Trazado 684160" d="M511.495,1039.286v5.989h400v-5.989a18.442,18.442,0,0,0-18.443-18.443H529.938A18.443,18.443,0,0,0,511.495,1039.286Z" transform="translate(-511.492 -792.018)" fill="url(#linear-gradient-59)"/>
    <path id="Trazado_684161" data-name="Trazado 684161" d="M824.615,1020.844a5.356,5.356,0,0,0,2.829,1.059q9.971,1.654,19.937,3.309c9.662,1.6,19.387,3.211,29.179,3.055a30.674,30.674,0,0,0,9.824-1.432c2.086-.738,7.7-3.058,7.128-5.991Z" transform="translate(-609.913 -792.018)" fill="url(#linear-gradient-26)" style="mix-blend-mode: multiply;isolation: isolate"/>
    <rect id="Rectángulo_337445" data-name="Rectángulo 337445" width="9.761" height="4.054" transform="translate(313.006 224.772)" fill="url(#linear-gradient-26)"/>
    <path id="Trazado_684162" data-name="Trazado 684162" d="M880.183,950.256c4.3-1.722,9.134-1.03,13.708-.314s9.413,1.4,13.706-.328a3.328,3.328,0,0,1,2.365-.4,2.235,2.235,0,0,1,1.122,2.361,5.685,5.685,0,0,1-2.582,3.966,14.712,14.712,0,0,1-4.5,1.853q-3.537.976-7.155,1.612c-5.488.965-11.365,1.283-16.419-1.065-1.424-.662-3.546-1.542-3.673-3.326C876.6,952.415,878.322,951,880.183,950.256Z" transform="translate(-646.833 -746.943)" fill="url(#linear-gradient-33)"/>
    <path id="Trazado_684163" data-name="Trazado 684163" d="M876.161,971.887a3.857,3.857,0,0,1,2.63,1.373c.758,1.233-.173,2.93-1.48,3.552a9.659,9.659,0,0,1-4.273.5,5.7,5.7,0,0,0-4.073,1.148l7.656.838c1.073.117,2.287.317,2.883,1.217a2.515,2.515,0,0,1-.716,3.153,6.589,6.589,0,0,1-3.283,1.2,9.48,9.48,0,0,0-3.393.93c-.688,1.707-2.841,2.183-4.672,2.367a93.317,93.317,0,0,1-44.208-6.356,10.088,10.088,0,0,1-3.149-1.772,7.187,7.187,0,0,1-1.995-5.578,21.307,21.307,0,0,1,1.4-5.928c.934-2.753,2.129-5.8,4.79-6.97a9.835,9.835,0,0,1,4.676-.475c5.826.42,11.667,1.362,16.943,3.89,2.663,1.276,5.844,1.6,8.708,2.225l10.041,2.185Z" transform="translate(-593.742 -754.42)" fill="url(#linear-gradient-33)"/>
    <path id="Trazado_684164" data-name="Trazado 684164" d="M719.725,542.679c1.038-.049,2.074-.084,3.089-.069a19.2,19.2,0,0,1,.637-12.271,10.3,10.3,0,0,1,4.339-5.43c2.083-1.122,4.961-.975,6.523.8a5.609,5.609,0,0,1,1.03,4.834,12.967,12.967,0,0,1-1.935,4.608,45.4,45.4,0,0,0,62.83,12.6,12.833,12.833,0,0,0,4.825-5.814,13.133,13.133,0,0,0,.876-6.908c-.931-6.506-1.808-13.3-4.073-19.092-3.124-7.99-7.715-15.563-14.258-21.111a40.007,40.007,0,0,0-29.786-9.135,40.042,40.042,0,0,0-27.143,15.294,50.727,50.727,0,0,0-8.84,20.316,132.816,132.816,0,0,0-2.745,16.561A4.446,4.446,0,0,0,719.725,542.679Z" transform="translate(-477.727 -455.598)" fill="url(#linear-gradient-23)"/>
    <rect id="Rectángulo_337446" data-name="Rectángulo 337446" width="399.998" height="9.795" transform="translate(0.001 243.462)" fill="url(#linear-gradient-59)" style="mix-blend-mode: multiply;isolation: isolate"/>
    <ellipse id="Elipse_5409" data-name="Elipse 5409" cx="1.65" cy="2.185" rx="1.65" ry="2.185" transform="translate(200.156 168.259) rotate(-158.082)" fill="#fff"/>
    <ellipse id="Elipse_5410" data-name="Elipse 5410" cx="1.65" cy="2.185" rx="1.65" ry="2.185" transform="translate(191.238 188.725) rotate(-158.082)" fill="#fff"/>
    <path id="Trazado_684165" data-name="Trazado 684165" d="M722.44,551.221c1.038-.049,2.074-.084,3.089-.07a19.2,19.2,0,0,1,.637-12.271,10.305,10.305,0,0,1,4.339-5.43c2.083-1.122,4.961-.975,6.523.8a5.609,5.609,0,0,1,1.03,4.834,12.965,12.965,0,0,1-1.935,4.608,45.4,45.4,0,0,0,62.83,12.6,12.833,12.833,0,0,0,4.825-5.814,60.268,60.268,0,0,1-10.2,1.562,63.033,63.033,0,0,1-30.345-5.41,58.315,58.315,0,0,1-14.82-9.592c-4.634-4.137-8.718-9.176-10.411-15.155-1.727-6.112-.79-12.751,1.582-18.644a43.214,43.214,0,0,1,1.956-4.177,39.552,39.552,0,0,0-12.144,10.463,50.725,50.725,0,0,0-8.84,20.316,132.829,132.829,0,0,0-2.745,16.561A4.446,4.446,0,0,0,722.44,551.221Z" transform="translate(-480.442 -464.14)" fill="url(#linear-gradient-26)" style="mix-blend-mode: multiply;isolation: isolate"/>
    <path id="Trazado_684166" data-name="Trazado 684166" d="M1116.758,835.134s-56.915-14.956-61.452-34.959,19.78-74.868,19.78-74.868l24.143,81.3,34.826,15.425-.8,13.1Z" transform="translate(-935.936 -606.309)" fill="url(#linear-gradient-26)" style="mix-blend-mode: multiply;isolation: isolate"/>
    <path id="Trazado_684167" data-name="Trazado 684167" d="M1029.05,591.444a18.085,18.085,0,0,0-8.434-16.945c-5.96-3.6-13.737-3.339-20.077-.453s-11.376,8.1-15.279,13.864c-7.3,10.79-11,23.549-14.6,36.073-7.5,26.154-26.946,57.773-10.5,79.451,6.292,8.295,16.335,12.68,25.928,16.724,23.168,9.766,48.278,19.581,73.395,18.45a13.508,13.508,0,0,0,4.372-6.884,40.253,40.253,0,0,0,1.267-8.174c.328-3.845.347-7.417.531-11.134a3.416,3.416,0,0,0-3.225-3.583c-25.061-1.313-50.782-10.119-70.76-25.141l23.371-45.555c6.746-13.148,13.631-26.794,14.441-41.549C1029.588,594.64,1030.143,593.059,1029.05,591.444Z" transform="translate(-830.003 -509.871)" fill="url(#linear-gradient-68)"/>
    <path id="Trazado_684168" data-name="Trazado 684168" d="M837.988,706.351a28.573,28.573,0,0,0,4.6-1.713c1-.478,1.885,1.019.876,1.5a31.189,31.189,0,0,1-5.013,1.888A.868.868,0,0,1,837.988,706.351Z" transform="translate(-565.012 -593.262)" fill="#662318"/>
    <path id="Trazado_684169" data-name="Trazado 684169" d="M813.908,678.715a20.332,20.332,0,0,1,14.42,1.228c1.513.717.194,2.963-1.314,2.248a17.565,17.565,0,0,0-12.414-.966A1.3,1.3,0,0,1,813.908,678.715Z" transform="translate(-541.04 -576.536)" fill="url(#linear-gradient-23)"/>
    <path id="Trazado_684170" data-name="Trazado 684170" d="M820.264,726.979a17.664,17.664,0,0,0,4.612,9.039,56.761,56.761,0,0,1,13.787-13.746C832.473,723.731,826.454,725.52,820.264,726.979Z" transform="translate(-553.408 -604.401)" fill="url(#linear-gradient-70)"/>
    <path id="Trazado_684171" data-name="Trazado 684171" d="M896.2,695.966c.487-1.6,3-.917,2.51.692a21.426,21.426,0,0,0-.927,7.07c.058,1.676-2.546,1.673-2.6,0A23.7,23.7,0,0,1,896.2,695.966Z" transform="translate(-641.351 -587.299)" opacity="0.51" fill="url(#linear-gradient-33)" style="mix-blend-mode: multiply;isolation: isolate"/>
    <path id="Trazado_684172" data-name="Trazado 684172" d="M913.33,601.548a18.74,18.74,0,0,1,1.457,11.078c-.276,1.649-2.786.949-2.51-.692a15.631,15.631,0,0,0-1.2-9.072C910.391,601.349,912.635,600.025,913.33,601.548Z" transform="translate(-663.507 -528.116)" opacity="0.51" fill="url(#linear-gradient-33)" style="mix-blend-mode: multiply;isolation: isolate"/>
    <path id="Trazado_684173" data-name="Trazado 684173" d="M814.622,701.195a7.855,7.855,0,0,0-5.824-.593,20.288,20.288,0,0,1-10.688-14.638,30.129,30.129,0,0,1,13.6-3.269,41.365,41.365,0,0,0,15,13.933C823.466,699.991,820.066,701.3,814.622,701.195Z" transform="translate(-533.22 -579.531)" fill="none" stroke="#fff" stroke-linecap="round" stroke-linejoin="round" stroke-width="3"/>
    <path id="Trazado_684174" data-name="Trazado 684174" d="M814.622,701.195a7.855,7.855,0,0,0-5.824-.593,20.288,20.288,0,0,1-10.688-14.638,30.129,30.129,0,0,1,13.6-3.269,41.365,41.365,0,0,0,15,13.933C823.466,699.991,820.066,701.3,814.622,701.195Z" transform="translate(-533.22 -579.531)" fill="#fff" opacity="0.2"/>
    <path id="Trazado_684175" data-name="Trazado 684175" d="M847.683,635.814l-9.208-26.879a15.893,15.893,0,0,0,2.08-6.048l20.726,29.658A30.266,30.266,0,0,0,847.683,635.814Z" transform="translate(-582.794 -529.382)" fill="#fff"/>
    <path id="Trazado_684176" data-name="Trazado 684176" d="M827.677,690.934a3.382,3.382,0,0,0-1.533-1.107c-1-.247-1.961.434-2.762,1.076a8.287,8.287,0,0,0-1.662,1.608,2.8,2.8,0,0,0-.54,2.186,3.329,3.329,0,0,0,2.688,2.159,23.7,23.7,0,0,1,3.562.706,16.577,16.577,0,0,1,2.36,1.4,3.985,3.985,0,0,0,2.593.717,1.913,1.913,0,0,0,1.635-1.572c.055-.818-1.144-1.647-1.677-2.214Z" transform="translate(-549.086 -583.981)" fill="#fff" opacity="0.2"/>
    <path id="Trazado_684177" data-name="Trazado 684177" d="M811.018,715.745a2.3,2.3,0,0,0-1.06.641,1.378,1.378,0,0,0-.529.79.921.921,0,0,0,.228.677,2.281,2.281,0,0,0,.568.461,2.841,2.841,0,0,0,1.557.536,1.229,1.229,0,0,0,1.208-.95c.084-.635-.427-1.01-.761-1.463C811.93,716.031,811.589,715.638,811.018,715.745Z" transform="translate(-523.716 -600.288)" fill="#fff" opacity="0.2"/>
    <path id="Trazado_684178" data-name="Trazado 684178" d="M830.633,619.161l7.936,26.569s1.34,12.328,11.445,15.547l.516-.6s3.7.243,4.377,1.231l1.447-.638s-1.882-1.381-6.132-.748a19.457,19.457,0,0,1-9.119-10.156l-1.285-4.394.405-.139-7.85-22.838Z" transform="translate(-574.951 -539.608)" opacity="0.51" fill="url(#linear-gradient-33)" style="mix-blend-mode: multiply;isolation: isolate"/>
    <rect id="Rectángulo_337447" data-name="Rectángulo 337447" width="30.726" height="3.134" transform="translate(277.537 197.682)" fill="url(#linear-gradient-35)"/>
    <g id="Grupo_945671" data-name="Grupo 945671" transform="translate(123.126 179.089)">
      <path id="Trazado_684179" data-name="Trazado 684179" d="M1229.634,946.426a3.1,3.1,0,0,1-1.572.426l-3.871,0a3.1,3.1,0,0,1-3.093-3.1l.039-43.422,0-1.644,6.251.007,3.815,0,0,1.644-.038,43.422A3.09,3.09,0,0,1,1229.634,946.426Z" transform="translate(-1218.032 -894.343)" fill="url(#linear-gradient-75)"/>
      <path id="Trazado_684180" data-name="Trazado 684180" d="M1227.305,948.2a1.093,1.093,0,0,1-.807-1.056l.04-43.06,6.055.006-.04,43.06a1.092,1.092,0,0,1-1.093,1.091l-3.871,0A1.113,1.113,0,0,1,1227.305,948.2Z" transform="translate(-1221.427 -897.739)" fill="url(#linear-gradient-76)"/>
      <path id="Trazado_684181" data-name="Trazado 684181" d="M1223.383,946.438a3.1,3.1,0,0,1-2.285-3l.039-43.422,0-1.32,3.815,0,0,1.644-.038,43.422A3.09,3.09,0,0,1,1223.383,946.438Z" transform="translate(-1211.781 -894.355)" fill="#fff" opacity="0.2"/>
      <path id="Trazado_684182" data-name="Trazado 684182" d="M1228.613,890.92a.789.789,0,0,1-.709.437l-14.88-.013a.791.791,0,0,1-.619-.3.782.782,0,0,1-.173-.495l0-2.752a.817.817,0,0,1,.059-.3.791.791,0,0,1,.735-.495l14.882.013a.787.787,0,0,1,.733.5.753.753,0,0,1,.058.3l0,2.754A.8.8,0,0,1,1228.613,890.92Z" transform="translate(-1212.232 -887.006)" fill="url(#linear-gradient-77)"/>
      <path id="Trazado_684183" data-name="Trazado 684183" d="M1228.736,887.516a.79.79,0,0,1-.734.493L1213.12,888a.534.534,0,1,1,0-.99l14.882.013A.788.788,0,0,1,1228.736,887.516Z" transform="translate(-1212.326 -887.006)" fill="#fff" opacity="0.2"/>
      <rect id="Rectángulo_337448" data-name="Rectángulo 337448" width="10.066" height="0.945" transform="translate(13.172 5.295) rotate(-179.937)" fill="url(#linear-gradient-78)"/>
      <path id="Trazado_684184" data-name="Trazado 684184" d="M1228.673,897.008a.789.789,0,0,1-.709.437l-14.88-.013a.44.44,0,1,1,.089-.738l14.882.013A.782.782,0,0,1,1228.673,897.008Z" transform="translate(-1212.292 -893.094)" opacity="0.5" fill="url(#linear-gradient-79)" style="mix-blend-mode: multiply;isolation: isolate"/>
    </g>
    <g id="Grupo_945672" data-name="Grupo 945672" transform="translate(100.55 179.089)">
      <path id="Trazado_684185" data-name="Trazado 684185" d="M1290.384,946.426a3.1,3.1,0,0,1-1.572.426l-3.871,0a3.1,3.1,0,0,1-3.093-3.1l.039-43.422,0-1.644,6.251.007,3.815,0,0,1.644-.038,43.422A3.091,3.091,0,0,1,1290.384,946.426Z" transform="translate(-1278.782 -894.343)" fill="url(#linear-gradient-80)"/>
      <path id="Trazado_684186" data-name="Trazado 684186" d="M1288.056,948.2a1.092,1.092,0,0,1-.807-1.056l.04-43.06,6.055.006-.04,43.06a1.092,1.092,0,0,1-1.093,1.091l-3.871,0A1.112,1.112,0,0,1,1288.056,948.2Z" transform="translate(-1282.177 -897.739)" fill="url(#linear-gradient-81)"/>
      <path id="Trazado_684187" data-name="Trazado 684187" d="M1284.133,946.438a3.1,3.1,0,0,1-2.285-3l.039-43.422,0-1.32,3.815,0,0,1.644-.038,43.422A3.091,3.091,0,0,1,1284.133,946.438Z" transform="translate(-1272.531 -894.355)" fill="#fff" opacity="0.2"/>
      <path id="Trazado_684188" data-name="Trazado 684188" d="M1289.363,890.92a.789.789,0,0,1-.709.437l-14.88-.013a.791.791,0,0,1-.62-.3.783.783,0,0,1-.173-.495l0-2.752a.822.822,0,0,1,.059-.3.792.792,0,0,1,.735-.495l14.882.013a.788.788,0,0,1,.733.5.764.764,0,0,1,.057.3l0,2.754A.792.792,0,0,1,1289.363,890.92Z" transform="translate(-1272.982 -887.006)" fill="url(#linear-gradient-82)"/>
      <path id="Trazado_684189" data-name="Trazado 684189" d="M1289.486,887.516a.79.79,0,0,1-.734.493L1273.87,888a.534.534,0,1,1,0-.99l14.882.013A.788.788,0,0,1,1289.486,887.516Z" transform="translate(-1273.076 -887.006)" fill="#fff" opacity="0.2"/>
      <rect id="Rectángulo_337449" data-name="Rectángulo 337449" width="10.066" height="0.945" transform="translate(13.172 5.295) rotate(-179.937)" fill="url(#linear-gradient-83)"/>
      <path id="Trazado_684190" data-name="Trazado 684190" d="M1289.423,897.008a.788.788,0,0,1-.709.437l-14.88-.013a.44.44,0,1,1,.089-.738l14.882.013A.782.782,0,0,1,1289.423,897.008Z" transform="translate(-1273.042 -893.094)" opacity="0.5" fill="url(#linear-gradient-84)" style="mix-blend-mode: multiply;isolation: isolate"/>
    </g>
    <g id="Grupo_945673" data-name="Grupo 945673" transform="translate(77.974 179.089)">
      <path id="Trazado_684191" data-name="Trazado 684191" d="M1351.134,946.426a3.1,3.1,0,0,1-1.572.426l-3.871,0a3.1,3.1,0,0,1-3.093-3.1l.039-43.422,0-1.644,6.251.007,3.815,0,0,1.644-.039,43.422A3.089,3.089,0,0,1,1351.134,946.426Z" transform="translate(-1339.532 -894.343)" fill="url(#linear-gradient-85)"/>
      <path id="Trazado_684192" data-name="Trazado 684192" d="M1348.806,948.2a1.093,1.093,0,0,1-.808-1.056l.04-43.06,6.055.006-.04,43.06a1.092,1.092,0,0,1-1.093,1.091l-3.872,0A1.112,1.112,0,0,1,1348.806,948.2Z" transform="translate(-1342.927 -897.739)" fill="url(#linear-gradient-86)"/>
      <path id="Trazado_684193" data-name="Trazado 684193" d="M1344.883,946.438a3.1,3.1,0,0,1-2.285-3l.039-43.422,0-1.32,3.815,0,0,1.644-.039,43.422A3.089,3.089,0,0,1,1344.883,946.438Z" transform="translate(-1333.281 -894.355)" fill="#fff" opacity="0.2"/>
      <path id="Trazado_684194" data-name="Trazado 684194" d="M1350.113,890.92a.789.789,0,0,1-.709.437l-14.88-.013a.791.791,0,0,1-.62-.3.779.779,0,0,1-.173-.495l0-2.752a.822.822,0,0,1,.059-.3.791.791,0,0,1,.735-.495l14.882.013a.788.788,0,0,1,.733.5.759.759,0,0,1,.057.3l0,2.754A.794.794,0,0,1,1350.113,890.92Z" transform="translate(-1333.732 -887.006)" fill="url(#linear-gradient-87)"/>
      <path id="Trazado_684195" data-name="Trazado 684195" d="M1350.236,887.516a.79.79,0,0,1-.734.493L1334.62,888a.534.534,0,1,1,0-.99l14.882.013A.787.787,0,0,1,1350.236,887.516Z" transform="translate(-1333.826 -887.006)" fill="#fff" opacity="0.2"/>
      <rect id="Rectángulo_337450" data-name="Rectángulo 337450" width="10.066" height="0.945" transform="translate(13.172 5.295) rotate(-179.937)" fill="url(#linear-gradient-88)"/>
      <path id="Trazado_684196" data-name="Trazado 684196" d="M1350.173,897.008a.789.789,0,0,1-.709.437l-14.88-.013a.44.44,0,1,1,.089-.738l14.882.013A.783.783,0,0,1,1350.173,897.008Z" transform="translate(-1333.792 -893.094)" opacity="0.5" fill="url(#linear-gradient-89)" style="mix-blend-mode: multiply;isolation: isolate"/>
    </g>
    <path id="Trazado_684197" data-name="Trazado 684197" d="M1161.46,912.326v2.931a1.044,1.044,0,0,0,.009.136,2.022,2.022,0,0,0,2.019,1.891h94a2.02,2.02,0,0,0,2.016-1.891,1.112,1.112,0,0,0,.009-.136v-2.931a1.648,1.648,0,0,0-.031-.338,2.018,2.018,0,0,0-1.994-1.686h-94a2.022,2.022,0,0,0-2,1.686A1.648,1.648,0,0,0,1161.46,912.326Z" transform="translate(-1101.053 -722.555)" fill="url(#linear-gradient-90)"/>
    <path id="Trazado_684198" data-name="Trazado 684198" d="M1163.99,1020.844v3.705a2.784,2.784,0,0,0,2.783,2.786h94.963a2.785,2.785,0,0,0,2.786-2.786v-3.705Z" transform="translate(-1107 -792.018)" fill="url(#linear-gradient-26)" style="mix-blend-mode: multiply;isolation: isolate"/>
    <rect id="Rectángulo_337451" data-name="Rectángulo 337451" width="98.055" height="6.983" rx="3.492" transform="translate(60.408 225.334)" fill="url(#linear-gradient-92)"/>
    <rect id="Rectángulo_337452" data-name="Rectángulo 337452" width="2.498" height="30.606" transform="translate(66.826 194.728)" fill="url(#linear-gradient-28)"/>
    <rect id="Rectángulo_337453" data-name="Rectángulo 337453" width="2.498" height="30.606" transform="translate(148.984 194.728)" fill="url(#linear-gradient-28)"/>
    <path id="Trazado_684199" data-name="Trazado 684199" d="M1161.545,911.987h97.992a2.018,2.018,0,0,0-1.994-1.686h-94A2.022,2.022,0,0,0,1161.545,911.987Z" transform="translate(-1101.107 -722.555)" fill="#fff" opacity="0.2"/>
    <path id="Trazado_684200" data-name="Trazado 684200" d="M1161.545,1013.132h97.992a2.017,2.017,0,0,0-1.994-1.686h-94A2.022,2.022,0,0,0,1161.545,1013.132Z" transform="translate(-1101.107 -786.113)" fill="#fff" opacity="0.2"/>
    <path id="Trazado_684201" data-name="Trazado 684201" d="M1161.483,924a2.023,2.023,0,0,0,2.019,1.891h94a2.02,2.02,0,0,0,2.016-1.891Z" transform="translate(-1101.068 -731.164)" fill="url(#linear-gradient-28)" style="mix-blend-mode: multiply;isolation: isolate"/>
    <path id="Trazado_684202" data-name="Trazado 684202" d="M1161.483,1025.149a2.023,2.023,0,0,0,2.019,1.892h94a2.021,2.021,0,0,0,2.016-1.892Z" transform="translate(-1101.068 -794.723)" fill="url(#linear-gradient-96)" style="mix-blend-mode: multiply;isolation: isolate"/>
    <ellipse id="Elipse_5411" data-name="Elipse 5411" cx="2.784" cy="2.784" rx="2.784" ry="2.784" transform="translate(80.641 163.863)" fill="url(#linear-gradient-35)"/>
    <ellipse id="Elipse_5412" data-name="Elipse 5412" cx="2.784" cy="2.784" rx="2.784" ry="2.784" transform="translate(129.659 166.647)" fill="url(#linear-gradient-98)"/>
    <ellipse id="Elipse_5413" data-name="Elipse 5413" cx="1.392" cy="1.392" rx="1.392" ry="1.392" transform="translate(91.147 155.717)" fill="url(#linear-gradient-35)"/>
    <ellipse id="Elipse_5414" data-name="Elipse 5414" cx="1.392" cy="1.392" rx="1.392" ry="1.392" transform="translate(104.918 170.204)" fill="url(#linear-gradient-100)"/>
    <path id="Trazado_684203" data-name="Trazado 684203" d="M707.883,815.13v25.306a2.007,2.007,0,0,0,2.008,2.007H735.2a2.049,2.049,0,0,0,.6-.09,2.008,2.008,0,0,0,1.4-1.707H712.986a2.908,2.908,0,0,1-2.908-2.908V813.123h-.188a2.008,2.008,0,0,0-2.008,2.008Z" transform="translate(-410.174 -661.49)" opacity="0.6" fill="url(#linear-gradient-28)" style="mix-blend-mode: multiply;isolation: isolate"/>
    <ellipse id="Elipse_5415" data-name="Elipse 5415" cx="5.018" cy="5.018" rx="5.018" ry="5.018" transform="translate(305.376 162.453)" fill="url(#linear-gradient-37)"/>
    <path id="Trazado_684204" data-name="Trazado 684204" d="M714.612,894.695l14.023,4.124v-6.8H714.612Z" transform="translate(-404.118 -711.07)" fill="url(#linear-gradient-26)" style="mix-blend-mode: multiply;isolation: isolate"/>
    <path id="Trazado_684205" data-name="Trazado 684205" d="M719.324,1012.232l9.761,1.758v-4.054h-9.761Z" transform="translate(-406.318 -785.164)" fill="url(#linear-gradient-26)" style="mix-blend-mode: multiply;isolation: isolate"/>
    <rect id="Rectángulo_337454" data-name="Rectángulo 337454" width="4.674" height="1.297" transform="translate(302.59 180.954)" opacity="0.81" fill="url(#linear-gradient-28)" style="mix-blend-mode: multiply;isolation: isolate"/>
    <rect id="Rectángulo_337455" data-name="Rectángulo 337455" width="25.639" height="1.353" transform="translate(281.625 200.816)" opacity="0.81" fill="url(#linear-gradient-28)" style="mix-blend-mode: multiply;isolation: isolate"/>
    <rect id="Rectángulo_337456" data-name="Rectángulo 337456" width="30.726" height="1.567" transform="translate(277.537 199.249)" fill="url(#linear-gradient-26)" style="mix-blend-mode: multiply;isolation: isolate"/>
    <path id="Trazado_684206" data-name="Trazado 684206" d="M872.787,655.027a77.915,77.915,0,0,0,20.3-.275,29.058,29.058,0,0,1-12.3-4.111c-8.588-5.476-12.7-15.933-14.1-26.023-.943-6.8-.894-13.7-1.215-20.556a57.636,57.636,0,0,0-1.736,12.861C863.464,629.169,867.491,643.98,872.787,655.027Z" transform="translate(-623.98 -530.121)" opacity="0.1" fill="url(#linear-gradient-33)" style="mix-blend-mode: multiply;isolation: isolate"/>
  </g>
</svg>
