<svg xmlns="http://www.w3.org/2000/svg" width="88" height="88" viewBox="0 0 88 88">
  <g id="Grupo_944949" data-name="Grupo 944949" transform="translate(-286 -1575)">
    <circle id="Elipse_4813" data-name="Elipse 4813" cx="44" cy="44" r="44" transform="translate(286 1575)" fill="#0e494d"/>
    <g id="la-contaminacion-del-aire" transform="translate(304.076 1595.801)">
      <path id="Trazado_683368" data-name="Trazado 683368" d="M217.241,247.511a4.66,4.66,0,0,0-4.558-3.7H208.47l-2.333-3.1.558-3.548-.238-.894a4.638,4.638,0,0,0-.2-.585,4.771,4.771,0,0,0-4.413-2.957H194.5c-11.155,0-10.925,22.172.714,22.172,4.329,0,2.2,0,0,0h0l17.692,0a4.658,4.658,0,0,0,4.429-4.43c0-.074.006-.148.006-.223v-1.772A4.676,4.676,0,0,0,217.241,247.511Z" transform="translate(-168.553 -210.551)" fill="#fb6a7d"/>
      <path id="Trazado_683369" data-name="Trazado 683369" d="M127.28,239.014a19.535,19.535,0,0,1,3.943-6.287h-6.646a4.772,4.772,0,0,0-4.324,2.753l-2.8,6.009a19.981,19.981,0,0,0-1.085,5.189v3.567c0,.075,0,.149.006.223a4.658,4.658,0,0,0,4.429,4.43h11.137a6.674,6.674,0,0,0-2.1-4.861,10.077,10.077,0,0,1-2.553-11.024Z" transform="translate(-105.276 -210.551)" fill="#f74960"/>
      <circle id="Elipse_5368" data-name="Elipse 5368" cx="2.218" cy="2.218" r="2.218" transform="translate(22.176 0)" fill="#eceafd"/>
      <path id="Trazado_683370" data-name="Trazado 683370" d="M45.977,92.937a2.958,2.958,0,1,0,.824-5.783.73.73,0,0,1-.643-.368,5.2,5.2,0,0,0-.446-.652.732.732,0,0,1,0-.916,5.172,5.172,0,0,0,1.015-4.373A.736.736,0,0,1,47.163,80a6.668,6.668,0,0,0,3.821-4.169.741.741,0,0,1,.666-.521,6.653,6.653,0,1,0-.731-13.285c-10.005,3.575-15.82,25.718-7.2,32.1a5.179,5.179,0,0,0,1.532-1.015A.731.731,0,0,1,45.977,92.937Z" transform="translate(-35.763 -56.107)" fill="#eceafd"/>
      <path id="Trazado_683371" data-name="Trazado 683371" d="M7.574,39.719a30.435,30.435,0,0,1,7.581-12.743,6.682,6.682,0,0,0-1.681.316.736.736,0,0,1-.884-.368,6.652,6.652,0,1,0-10,8.265.74.74,0,0,1,.21.891,6.645,6.645,0,0,0,.184,5.81.736.736,0,0,1-.212.927,5.175,5.175,0,0,0-.895,7.343.736.736,0,0,1,0,.922,5.174,5.174,0,0,0,6.081,7.989C5.6,54.14,5.283,46.99,7.574,39.719Z" transform="translate(0 -21.056)" fill="#dbd7f7"/>
      <path id="Trazado_683372" data-name="Trazado 683372" d="M483.926,388.84v1.772c0,.075,0,.149-.006.223H482a1.035,1.035,0,0,1-1.035-1.035v-.887A1.035,1.035,0,0,1,482,387.878h1.822A4.68,4.68,0,0,1,483.926,388.84Z" transform="translate(-435.138 -350.918)" fill="#f1cd5e"/>
      <path id="Trazado_683373" data-name="Trazado 683373" d="M119.32,388.913v.887a1.035,1.035,0,0,1-1.035,1.035h-1.916c0-.074-.006-.148-.006-.223v-2.734h1.922A1.035,1.035,0,0,1,119.32,388.913Z" transform="translate(-105.275 -350.918)" fill="#ecb438"/>
      <path id="Trazado_683374" data-name="Trazado 683374" d="M397.377,426.86a4.436,4.436,0,0,0-2.661-4.065c-6.012,0-6.012,8.13,0,8.13A4.436,4.436,0,0,0,397.377,426.86Z" transform="translate(-353.024 -382.508)" fill="#5c576e"/>
      <path id="Trazado_683375" data-name="Trazado 683375" d="M375.912,423.345v-.005a4.436,4.436,0,0,1,2.661-4.06,4.435,4.435,0,0,0-6.209,4.06v.005a4.435,4.435,0,0,0,6.209,4.065A4.436,4.436,0,0,1,375.912,423.345Z" transform="translate(-336.882 -378.993)" fill="#474556"/>
      <path id="Trazado_683376" data-name="Trazado 683376" d="M187.922,426.86a4.436,4.436,0,0,0-2.661-4.065c-6.012,0-6.012,8.13,0,8.13A4.436,4.436,0,0,0,187.922,426.86Z" transform="translate(-163.528 -382.508)" fill="#5c576e"/>
      <path id="Trazado_683377" data-name="Trazado 683377" d="M166.457,423.345v-.005a4.436,4.436,0,0,1,2.661-4.06,4.435,4.435,0,0,0-6.209,4.06v.005a4.435,4.435,0,0,0,6.209,4.065A4.436,4.436,0,0,1,166.457,423.345Z" transform="translate(-147.386 -378.993)" fill="#474556"/>
      <circle id="Elipse_5369" data-name="Elipse 5369" cx="1.478" cy="1.478" r="1.478" transform="translate(38.439 42.874)" fill="#353544"/>
      <circle id="Elipse_5370" data-name="Elipse 5370" cx="1.478" cy="1.478" r="1.478" transform="translate(18.48 42.874)" fill="#353544"/>
      <path id="Trazado_683378" data-name="Trazado 683378" d="M326.881,282.969l.789,2.957h-7.828a1.783,1.783,0,0,1-1.782-1.782v-3.089a1.783,1.783,0,0,1,1.782-1.782H325.9Z" transform="translate(-287.753 -252.662)" fill="#84eafd"/>
      <g id="Grupo_944878" data-name="Grupo 944878" transform="translate(2.957 5.914)">
        <path id="Trazado_683379" data-name="Trazado 683379" d="M33.988,67.975a2.957,2.957,0,0,1,0-5.914.739.739,0,1,1,0,1.478,1.478,1.478,0,1,0,0,2.957.739.739,0,1,1,0,1.478Z" transform="translate(-31.031 -62.061)" fill="#d2c9fc"/>
      </g>
      <g id="Grupo_944879" data-name="Grupo 944879" transform="translate(8.87 18.48)">
        <path id="Trazado_683380" data-name="Trazado 683380" d="M93.829,196.895a.739.739,0,0,1,0-1.479.74.74,0,0,0,.739-.739.739.739,0,0,1,1.478,0A2.22,2.22,0,0,1,93.829,196.895Z" transform="translate(-93.09 -193.938)" fill="#dbd7f7"/>
      </g>
      <g id="Grupo_944880" data-name="Grupo 944880" transform="translate(16.854 26.611)">
        <path id="Trazado_683381" data-name="Trazado 683381" d="M205.559,285.926H209a1.783,1.783,0,0,0,1.782-1.782v-3.089A1.783,1.783,0,0,0,209,279.273h-1.99C203.5,279.492,202.107,284.694,205.559,285.926Z" transform="translate(-201.023 -279.273)" fill="#84eafd"/>
        <path id="Trazado_683382" data-name="Trazado 683382" d="M178.886,280.025,177,284.068a1.305,1.305,0,0,0,1.183,1.858h3.23a9.824,9.824,0,0,1,.614-4.8q.374-.948.836-1.851h-2.789A1.307,1.307,0,0,0,178.886,280.025Z" transform="translate(-176.872 -279.273)" fill="#74ccfc"/>
      </g>
    </g>
  </g>
</svg>
