<svg xmlns="http://www.w3.org/2000/svg" width="88" height="88" viewBox="0 0 88 88">
  <g id="Grupo_957501" data-name="Grupo 957501" transform="translate(13036 11362.484)">
    <g id="Grupo_944947" data-name="Grupo 944947" transform="translate(-13036 -11362.484)">
      <path id="Trazado_640294" data-name="Trazado 640294" d="M44,0A44,44,0,1,1,0,44,44,44,0,0,1,44,0Z" transform="translate(0 0)" fill="#0e494d"/>
      <g id="dieta" transform="translate(12.679 16.262)">
        <rect id="Rectángulo_337379" data-name="Rectángulo 337379" width="6.267" height="4.182" transform="translate(7.359 5.578)" fill="#48c1e1"/>
        <path id="Trazado_683421" data-name="Trazado 683421" d="M58.975,32.556a.625.625,0,0,1-.623.623H50.746a.625.625,0,0,1-.623-.623V28.062a.625.625,0,0,1,.623-.623h7.605a.625.625,0,0,1,.623.623v4.494Z" transform="translate(-44.056 -27.439)" fill="#046699"/>
        <g id="Grupo_944903" data-name="Grupo 944903" transform="translate(6.067 0)" opacity="0.1">
          <path id="Trazado_683422" data-name="Trazado 683422" d="M52.723,32.556V28.062a.625.625,0,0,1,.623-.623h-2.6a.625.625,0,0,0-.623.623v4.494a.625.625,0,0,0,.623.623h2.6A.625.625,0,0,1,52.723,32.556Z" transform="translate(-50.123 -27.439)"/>
        </g>
        <path id="Trazado_683423" data-name="Trazado 683423" d="M27.417,136.4a.121.121,0,0,0,.059-.171.546.546,0,0,1-.078-.268c0-.667,1.48-1.381,3.684-1.381a8.4,8.4,0,0,1,2,.228.121.121,0,0,0,.147-.147,22.347,22.347,0,0,1-.656-4.724c0-.019,0-.038,0-.056q-.01-.345-.011-.692a.506.506,0,0,1,.5-.506h1.094a.121.121,0,0,0,.12-.134,3.748,3.748,0,0,1-.026-.422,3.868,3.868,0,0,1,2.714-3.706.121.121,0,0,0,.073-.168,3.652,3.652,0,0,1,1.768-4.906.121.121,0,0,0,.063-.151,3.652,3.652,0,0,1,1.088-4.025v-5.2a3.485,3.485,0,0,0-3.471-3.479H28.5a3.485,3.485,0,0,0-3.471,3.479v27.872A9.044,9.044,0,0,1,27.417,136.4Z" transform="translate(-22 -96.92)" fill="#a2dff9"/>
        <path id="Trazado_683424" data-name="Trazado 683424" d="M36.964,170.43a.121.121,0,0,0,.073-.168,3.652,3.652,0,0,1,1.768-4.906.121.121,0,0,0,.063-.151,3.652,3.652,0,0,1,1.088-4.025v-2.34H25.03v12.879H35.09A3.869,3.869,0,0,1,36.964,170.43Z" transform="translate(-22 -142.936)" fill="#046699"/>
        <path id="Trazado_683425" data-name="Trazado 683425" d="M28.779,134.886V109.966a3.485,3.485,0,0,1,3.471-3.479H28.5a3.485,3.485,0,0,0-3.471,3.479v27.872a9.048,9.048,0,0,1,2.387-1.444.121.121,0,0,0,.059-.171.546.546,0,0,1-.078-.268C27.4,135.563,27.91,135.156,28.779,134.886Z" transform="translate(-22 -96.919)" opacity="0.1"/>
        <path id="Trazado_683426" data-name="Trazado 683426" d="M238.272,137.679a3.7,3.7,0,0,1,.053.622.121.121,0,0,0,.11.12,3.655,3.655,0,0,1,3.224,2.747.121.121,0,0,0,.083.087.118.118,0,0,0,.034,0,.121.121,0,0,0,.083-.033,3.832,3.832,0,0,1,2.272-1.023.121.121,0,0,0,.11-.117,6.646,6.646,0,0,1,1.943-4.494c.025-.025.051-.048.077-.073a8.338,8.338,0,0,0-2.34-4.613.653.653,0,0,0-.924,0l-5.313,5.325A3.658,3.658,0,0,1,238.272,137.679Z" transform="translate(-208.468 -118.215)" fill="#ef5050"/>
        <g id="Grupo_944904" data-name="Grupo 944904" transform="translate(32.024 15.06)">
          <path id="Trazado_683427" data-name="Trazado 683427" d="M262.013,201.392a.121.121,0,0,0,.083.087.119.119,0,0,0,.034,0,.121.121,0,0,0,.083-.033,3.871,3.871,0,0,1,1.026-.689.9.9,0,0,0-.227-.38l-.881-.883a.908.908,0,0,0-1.284,0l-.007.008A3.647,3.647,0,0,1,262.013,201.392Z" transform="translate(-260.841 -193.498)" fill="#c0272d"/>
          <path id="Trazado_683428" data-name="Trazado 683428" d="M270.483,181.695h-1.246a.908.908,0,1,1,0-1.816h1.246a.908.908,0,0,1,0,1.816Z" transform="translate(-267.423 -176.488)" fill="#c0272d"/>
          <path id="Trazado_683429" data-name="Trazado 683429" d="M267.784,154.56a.908.908,0,0,1-.643-1.549l.882-.883a.908.908,0,0,1,1.285,1.283l-.882.883A.905.905,0,0,1,267.784,154.56Z" transform="translate(-266.146 -151.862)" fill="#c0272d"/>
        </g>
        <path id="Trazado_683430" data-name="Trazado 683430" d="M300.223,154.491a.215.215,0,0,0-.121-.121,6.771,6.771,0,0,0-9.268,6.2c.126-.012.253-.019.382-.019a3.886,3.886,0,0,1,3.8,3.138,6.782,6.782,0,0,0,5.2-9.2Z" transform="translate(-255.071 -138.584)" fill="#89c947"/>
        <path id="Trazado_683431" data-name="Trazado 683431" d="M309.332,182.945a.908.908,0,0,0-1.284,0l-3.14,3.147a3.889,3.889,0,0,1,1.536,1.031l2.889-2.9A.908.908,0,0,0,309.332,182.945Z" transform="translate(-267.467 -163.89)" fill="#d5e962"/>
        <g id="Grupo_944905" data-name="Grupo 944905" transform="translate(12.558 20.515)">
          <path id="Trazado_683432" data-name="Trazado 683432" d="M356.054,202.718a3.306,3.306,0,0,1,.048.56.121.121,0,0,0,.11.12,3.264,3.264,0,0,1,1.392.453.121.121,0,0,0,.153-.024c.1-.118.192-.214.279-.3a6.063,6.063,0,0,1,2.577-1.54,4,4,0,1,0-7.744-1.994A3.282,3.282,0,0,1,356.054,202.718Z" transform="translate(-322.288 -196.929)" fill="#ffc502"/>
          <path id="Trazado_683433" data-name="Trazado 683433" d="M106.573,257.676a6.238,6.238,0,0,1-.76-2.317,3.646,3.646,0,0,1-2.694-2.009,3.983,3.983,0,0,0-2.883,4.326h6.337Z" transform="translate(-100.206 -246.521)" fill="#ffc502"/>
        </g>
        <path id="Trazado_683434" data-name="Trazado 683434" d="M393.423,240.138a3.266,3.266,0,0,1-.268,1.97h5.137a6.236,6.236,0,0,0,.718-5.917.2.2,0,0,0-.044-.067.2.2,0,0,0-.067-.044,6.2,6.2,0,0,0-6.692,1.384c-.128.129-.248.263-.364.4A3.29,3.29,0,0,1,393.423,240.138Z" transform="translate(-343.584 -210.438)" fill="#89c947"/>
        <path id="Trazado_683435" data-name="Trazado 683435" d="M402.678,264.811H403.8l1.79-1.794a.908.908,0,0,0-1.285-1.282l-1.329,1.332A3.26,3.26,0,0,1,402.678,264.811Z" transform="translate(-353.25 -233.142)" fill="#d5e962"/>
        <path id="Trazado_683436" data-name="Trazado 683436" d="M138.569,168.908a3.777,3.777,0,0,0-3.352-2.937,3.784,3.784,0,0,0-6.941-2.077,3.785,3.785,0,0,0-5.836,4.3,3.779,3.779,0,0,0,.977,7.164,6.1,6.1,0,0,1,.372-3.127.077.077,0,0,1,.017-.026.079.079,0,0,1,.026-.017,6.08,6.08,0,0,1,6.561,1.357c.083.084.163.17.241.258a8.341,8.341,0,0,1-.1-1.273.533.533,0,0,1,.532-.533h6.338c-.005-.084-.009-.169-.009-.255A4,4,0,0,1,138.569,168.908Z" transform="translate(-105.408 -145.884)" fill="#368c0e"/>
        <g id="Grupo_944906" data-name="Grupo 944906" transform="translate(19.018 19.622)">
          <path id="Trazado_683437" data-name="Trazado 683437" d="M155.56,193.308h-.016a.908.908,0,0,1-.892-.923,2.887,2.887,0,0,1,2.883-2.833h.046a2.89,2.89,0,0,1,2.081.937.908.908,0,0,1-1.341,1.225,1.053,1.053,0,0,0-.769-.346,1.068,1.068,0,0,0-1.086,1.048A.908.908,0,0,1,155.56,193.308Z" transform="translate(-154.652 -189.552)" fill="#89c947"/>
          <path id="Trazado_683438" data-name="Trazado 683438" d="M196.966,212.078a.909.909,0,0,1-.851-1.224,2.644,2.644,0,0,1,4.912-.117.908.908,0,0,1-1.671.71.817.817,0,0,0-.473-.451.831.831,0,0,0-1.066.49A.908.908,0,0,1,196.966,212.078Z" transform="translate(-191.046 -206.759)" fill="#89c947"/>
        </g>
        <path id="Trazado_683439" data-name="Trazado 683439" d="M324.664,223.855h-.033c0,.008,0,.017,0,.026h1.216a.654.654,0,0,1,.653.654,8.335,8.335,0,0,1-1.58,4.887h9.162a3.407,3.407,0,0,0-2.806-4.806A3.418,3.418,0,0,0,325,222.741a3.428,3.428,0,0,0-.519-.318,3.881,3.881,0,0,1,.186,1.188C324.672,223.691,324.669,223.771,324.664,223.855Z" transform="translate(-284.584 -197.753)" fill="#368c0e"/>
        <path id="Trazado_683440" data-name="Trazado 683440" d="M268.945,212.225c.006-.084.01-.169.01-.255a4,4,0,1,0-8,0c0,.086,0,.17.009.255Z" transform="translate(-228.887 -186.113)" fill="#f7931e"/>
        <path id="Trazado_683441" data-name="Trazado 683441" d="M152.251,242.008a6.2,6.2,0,0,0-6.692-1.384.2.2,0,0,0-.067.044.2.2,0,0,0-.044.067,6.237,6.237,0,0,0,.367,5.367h8.24a8.353,8.353,0,0,1-1.6-3.878Q152.357,242.114,152.251,242.008Z" transform="translate(-127.182 -214.433)" fill="#89c947"/>
        <path id="Trazado_683442" data-name="Trazado 683442" d="M172.259,268.806h2.565l-2.521-2.527a.908.908,0,0,0-1.285,1.282Z" transform="translate(-149.788 -237.136)" fill="#d5e962"/>
        <path id="Trazado_683443" data-name="Trazado 683443" d="M219.358,247.853a8.342,8.342,0,0,0,1.679-5.024.654.654,0,0,0-.653-.654H204.973a.654.654,0,0,0-.653.654A8.342,8.342,0,0,0,206,247.853Z" transform="translate(-179.135 -216.183)" fill="#ef5050"/>
        <g id="Grupo_944907" data-name="Grupo 944907" transform="translate(27.23 27.406)">
          <path id="Trazado_683444" data-name="Trazado 683444" d="M267.966,277.939v-.628a.908.908,0,0,0-1.816,0v.628Z" transform="translate(-260.715 -273.675)" fill="#c0272d"/>
          <path id="Trazado_683445" data-name="Trazado 683445" d="M287.7,271.911h1.412a.908.908,0,0,0-.06-1.216l-.881-.883a.908.908,0,1,0-1.285,1.282Z" transform="translate(-278.704 -267.647)" fill="#c0272d"/>
          <path id="Trazado_683446" data-name="Trazado 683446" d="M238.837,271.911l.815-.817a.908.908,0,0,0-1.285-1.282l-.881.883a.908.908,0,0,0-.06,1.216Z" transform="translate(-235.287 -267.648)" fill="#c0272d"/>
          <path id="Trazado_683447" data-name="Trazado 683447" d="M223.4,255.681h-1.246a.908.908,0,1,1,0-1.816H223.4a.908.908,0,0,1,0,1.816Z" transform="translate(-221.25 -253.865)" fill="#c0272d"/>
          <path id="Trazado_683448" data-name="Trazado 683448" d="M302.361,255.681h-1.247a.908.908,0,0,1,0-1.816h1.247a.908.908,0,0,1,0,1.816Z" transform="translate(-290.65 -253.865)" fill="#c0272d"/>
        </g>
        <path id="Trazado_683449" data-name="Trazado 683449" d="M87.039,295.1a.121.121,0,0,0,.154-.116v-1.536a.787.787,0,1,1,1.573,0v1.536a.121.121,0,0,0,.121.121.115.115,0,0,0,.033,0,8.16,8.16,0,0,1,2.172-.274c2.2,0,3.684.714,3.684,1.381a.546.546,0,0,1-.078.268.121.121,0,0,0,.059.171,8.385,8.385,0,0,1,5.218,6.438.121.121,0,0,0,.12.1.125.125,0,0,0,.043-.008l19.109-7.259a3.238,3.238,0,0,1,4.336,2.426l.166.9a.121.121,0,0,0,.181.082l6.425-3.793a22.511,22.511,0,0,0,.832-6.1.627.627,0,0,0-.626-.627H86.847a.627.627,0,0,0-.626.627,22.566,22.566,0,0,0,.708,5.638Z" transform="translate(-74.954 -257.173)" fill="#e6e9ed"/>
        <path id="Trazado_683450" data-name="Trazado 683450" d="M87.039,295.1a.123.123,0,0,0,.033,0,.121.121,0,0,0,.121-.121v-1.536a.787.787,0,1,1,1.573,0v1.536a.121.121,0,0,0,.121.121.117.117,0,0,0,.033,0,7.881,7.881,0,0,1,1.836-.268,22.6,22.6,0,0,1-.646-5.4.627.627,0,0,1,.626-.627H86.847a.627.627,0,0,0-.626.627,22.566,22.566,0,0,0,.708,5.638Z" transform="translate(-75.634 -257.173)" opacity="0.1"/>
        <path id="Trazado_683451" data-name="Trazado 683451" d="M94.16,322.641a4.206,4.206,0,0,1,.908-.36v-1.725a.908.908,0,0,0-1.816,0v1.725A4.2,4.2,0,0,1,94.16,322.641Z" transform="translate(-81.809 -284.28)" fill="#89c947"/>
        <path id="Trazado_683452" data-name="Trazado 683452" d="M21.468,368.156h-3.28a3.232,3.232,0,0,1-3.182-2.638l-.032-.174A3.22,3.22,0,0,1,17,361.751l7.324-2.783a8.467,8.467,0,0,0-5.422-6.7,3.644,3.644,0,0,1-2.528,1.039.121.121,0,0,0-.062.215,2.667,2.667,0,0,1,1.106,1.485.459.459,0,0,1-.11.363,1.167,1.167,0,0,1-.878.266h0a6.649,6.649,0,0,1-2.956-.914,7.449,7.449,0,0,1-1.2-.82.121.121,0,0,0-.156,0,7.435,7.435,0,0,1-1.2.819,6.648,6.648,0,0,1-2.956.914,1.166,1.166,0,0,1-.878-.266.459.459,0,0,1-.11-.363,2.669,2.669,0,0,1,1.106-1.485.121.121,0,0,0-.062-.215,3.64,3.64,0,0,1-2.528-1.04A8.364,8.364,0,0,0,0,359.932c0,4.61,4.065,8.347,9.078,8.347H21.666C21.8,368.279,21.7,368.23,21.468,368.156Z" transform="translate(0 -312.95)" fill="#ef5050"/>
        <path id="Trazado_683453" data-name="Trazado 683453" d="M3.928,359.933a8.135,8.135,0,0,1,3.649-6.69,3.186,3.186,0,0,1-2.093-.975A8.364,8.364,0,0,0,0,359.933c0,4.61,4.065,8.347,9.078,8.347h3.928C7.992,368.28,3.928,364.543,3.928,359.933Z" transform="translate(0 -312.951)" opacity="0.1"/>
        <path id="Trazado_683454" data-name="Trazado 683454" d="M57.431,339.041c0-.83-1.7-1.5-3.8-1.5a6.747,6.747,0,0,0-3.113.639,6.745,6.745,0,0,0-3.113-.639c-2.1,0-3.8.673-3.8,1.5,0,.681,1.148,1.256,2.721,1.44-.962.77-1.4,1.58-1.011,2.022.52.587,2.3.308,3.983-.622a7.589,7.589,0,0,0,1.224-.833,7.617,7.617,0,0,0,1.224.833c1.68.93,3.464,1.208,3.983.622.392-.443-.048-1.252-1.011-2.022C56.283,340.3,57.431,339.722,57.431,339.041Z" transform="translate(-38.318 -300.005)" fill="#368c0e"/>
        <path id="Trazado_683455" data-name="Trazado 683455" d="M410.127,343.48l-.244-1.315a.839.839,0,0,0-.977-.67l-9.408,1.728,6.007-4.016a.832.832,0,0,0,.264-1.1l-.68-1.2a.841.841,0,0,0-1.159-.309l-7.815,4.613,1.478,7.981,8.963,1.611a.838.838,0,0,0,.979-.7l.2-1.359a.824.824,0,0,0,0-.274.837.837,0,0,0-.637-.663l-7.051-1.617,9.408-1.728A.836.836,0,0,0,410.127,343.48Z" transform="translate(-347.339 -299.069)" fill="#89c947"/>
        <path id="Trazado_683456" data-name="Trazado 683456" d="M122.357,359.015a3.353,3.353,0,0,0,3.3,2.736l28.319-.011a3.347,3.347,0,0,0,3.3-3.95l-1.892-10.214a3.358,3.358,0,0,0-4.5-2.517L124.43,355.111a3.341,3.341,0,0,0-2.105,3.73Z" transform="translate(-107.012 -306.423)" fill="#f7931e"/>
        <g id="Grupo_944908" data-name="Grupo 944908" transform="translate(15.227 38.418)" opacity="0.1">
          <path id="Trazado_683457" data-name="Trazado 683457" d="M122.357,359.016a3.324,3.324,0,0,0,.212.7,3.5,3.5,0,0,1,1.809-1.555l27.631-10.5a3.5,3.5,0,0,1,3.5.587l-.124-.668a3.359,3.359,0,0,0-4.5-2.517L124.43,355.112a3.342,3.342,0,0,0-2.105,3.73Z" transform="translate(-122.269 -344.842)"/>
        </g>
        <g id="Grupo_944909" data-name="Grupo 944909" transform="translate(21.231 41.436)">
          <path id="Trazado_683458" data-name="Trazado 683458" d="M357.77,444.034a.908.908,0,0,0-1.783.341l.747,3.906h1.848Z" transform="translate(-333.65 -434.399)" fill="#ffc502"/>
          <path id="Trazado_683459" data-name="Trazado 683459" d="M317.112,452.91a.908.908,0,1,0-1.784.336l.535,2.837h1.847Z" transform="translate(-297.912 -442.198)" fill="#ffc502"/>
          <path id="Trazado_683460" data-name="Trazado 683460" d="M284.541,373.655a.908.908,0,0,0,1.761-.444l-.864-3.431-1.709.649Z" transform="translate(-270.153 -369.78)" fill="#ffc502"/>
          <path id="Trazado_683461" data-name="Trazado 683461" d="M238.332,446.322a.908.908,0,0,0-1.787.322l.657,3.645h1.845Z" transform="translate(-228.667 -436.401)" fill="#ffc502"/>
          <path id="Trazado_683462" data-name="Trazado 683462" d="M172.068,415.434a.908.908,0,0,0,1.777-.373l-.566-2.7-1.718.653Z" transform="translate(-171.561 -407.21)" fill="#ffc502"/>
        </g>
      </g>
    </g>
  </g>
</svg>
