<svg xmlns="http://www.w3.org/2000/svg" width="88" height="88" viewBox="0 0 88 88">
  <g id="Grupo_957507" data-name="Grupo 957507" transform="translate(16274.752 10978.385)">
    <circle id="Elipse_4813" data-name="Elipse 4813" cx="44" cy="44" r="44" transform="translate(-16274.752 -10978.385)" fill="#0e494d"/>
    <g id="Page-1" transform="translate(-16258.615 -10961.604)">
      <g id="_009---Molten-Metal-Mould" data-name="009---Molten-Metal-Mould">
        <path id="Shape" d="M0,50.82l22.435-3.07,21.018,3.07v6.612H0Z" transform="translate(0 -2.644)" fill="#95a5a5"/>
        <path id="Shape-2" data-name="Shape" d="M42.075,32.039c-.69.529-3.255.74-3.967.74a.46.46,0,0,1-.113-.009,1.868,1.868,0,0,1-1.568-1.294l3.4-1.444Z" transform="translate(-2.017 -1.663)" fill="#2c2f38"/>
        <path id="Shape-3" data-name="Shape" d="M51.993,7.027l-3.306-.27L46.76,4.363A1.865,1.865,0,0,1,48.7,4.315a.081.081,0,0,1,.057.028C49.188,4.646,51.8,6.387,51.993,7.027Z" transform="translate(-2.589 -0.225)" fill="#2c2f38"/>
        <path id="Shape-4" data-name="Shape" d="M24.957,7.207a.033.033,0,0,0-.009.019c-.822,1.455,1.265.926.764,2.692-.038.132-2.842,2.409-2.871,2.541L0,3.013V0H7.519Z" fill="#95a5a5"/>
        <path id="Shape-5" data-name="Shape" d="M39.822,1.16,45.905,4.2,47.52,5l1.294.652h.009c.435,1.4,2.3,3.278,2.21,4.27a35.63,35.63,0,0,1-2.8,10.57,29.756,29.756,0,0,1-4.921,8.417c-.368.416-2.749.907-3.306,1.332H40l-1.87-.179-1.984-.189L31.32,29.4Z" transform="translate(-1.734 -0.064)" fill="#95a5a5"/>
        <path id="Shape-6" data-name="Shape" d="M56.493,21.373c-1.6,5.63-5.469,9.616-9.229,9.9h-.047l-1.587-.161c.009,0,.009,0,.019-.009h.009c1.086-.756.076-2.125.68-2.947a31.2,31.2,0,0,0,3.967-7.529,30.308,30.308,0,0,0,2.059-8.643c.066-.964,2.031-2.456,1.71-3.693C56.956,10.614,58.042,15.9,56.493,21.373Z" transform="translate(-2.527 -0.459)" fill="#95a5a5"/>
        <path id="Shape-7" data-name="Shape" d="M38.09,32.93a.46.46,0,0,0,.113.009H38.09Z" transform="translate(-2.109 -1.823)" fill="#5e5f62"/>
        <path id="Shape-8" data-name="Shape" d="M24.371,38h7.814a1.889,1.889,0,0,1,1.442.669L43.453,50.28H0L9.824,38.669A1.889,1.889,0,0,1,11.267,38Z" transform="translate(0 -2.104)" fill="#bdc3c7"/>
        <path id="Shape-9" data-name="Shape" d="M20.762,42.058C17.456,42.257,15,43,15,43.891s2.409,1.615,5.668,1.823c.6.047,1.237.066,1.889.066.321,0,.633-.009.945-.019,3.731-.113,6.612-.907,6.612-1.87,0-.926-2.664-1.691-6.178-1.861" transform="translate(-0.831 -2.327)" fill="#e57e25"/>
        <circle id="Oval" cx="1.889" cy="1.889" r="1.889" transform="translate(12.28 24.56)" fill="#f3d55b"/>
        <circle id="Oval-2" data-name="Oval" cx="0.945" cy="0.945" r="0.945" transform="translate(7.557 20.782)" fill="#f29c1f"/>
        <circle id="Oval-3" data-name="Oval" cx="0.945" cy="0.945" r="0.945" transform="translate(10.391 16.059)" fill="#f29c1f"/>
        <path id="Shape-10" data-name="Shape" d="M43.614,14.212c0,.009,0,.009-.009.019a21.425,21.425,0,0,1-.652,3.146,21.718,21.718,0,0,1-2.843,6.2c0,.009-.009.009-.009.019a15.978,15.978,0,0,1-3.438,3.722,8.658,8.658,0,0,1-5.781,2.031h-.028a5.116,5.116,0,0,1-1.067-.161l-5.413-5.328a19.024,19.024,0,0,1-.236-11.392c.028-.132.066-.255.1-.387a22.1,22.1,0,0,1,2-4.846.033.033,0,0,1,.009-.019C29.123,2.121,33.657-.8,37.672.336a6.566,6.566,0,0,1,1.681.746c.009.009.019.019.028.019,2.286,1.445,3.779,4.307,4.26,7.822v.009A20.2,20.2,0,0,1,43.614,14.212Z" transform="translate(-1.294 -0.005)" fill="#bdc3c7"/>
        <path id="Shape-11" data-name="Shape" d="M40.17,16.443a18.024,18.024,0,0,1-1.19,3.1,37.25,37.25,0,0,0-4.487-1.464c-5.29-1.332-6.556.076-6.556.076a9.52,9.52,0,0,0-.982,1.294,17.048,17.048,0,0,1,.6-6.584C29.25,6.9,33.444,2.869,36.93,3.851a4.013,4.013,0,0,1,1.578.879C40.8,6.742,41.577,11.474,40.17,16.443Z" transform="translate(-1.488 -0.205)" fill="#f3d55b"/>
        <path id="Shape-12" data-name="Shape" d="M38.655,20.351a12.719,12.719,0,0,1-4.005,4.978,16.6,16.6,0,0,0-2.673,2.192c-.2.208-.4.416-.6.633v.009c-.567.623-1.152,1.3-1.729,2.031-2.957,3.731-5.819,8.766-5.819,14.273H21c0-9.21,1.615-15.539,3.24-19.592v-.009a25.273,25.273,0,0,1,2.39-4.61,9.52,9.52,0,0,1,.982-1.294s1.266-1.407,6.556-.076A37.25,37.25,0,0,1,38.655,20.351Z" transform="translate(-1.163 -1.014)" fill="#f29c1f"/>
        <path id="Shape-13" data-name="Shape" d="M53.844,11.766a30.308,30.308,0,0,1-2.059,8.643,31.2,31.2,0,0,1-3.967,7.529,12.578,12.578,0,0,1-2.569,2.947h-.009c-.009.009-.009.009-.019.009a2.605,2.605,0,0,1-1.54.52l-5.469-.057a3.86,3.86,0,0,0,2.173-.935h.009a10.28,10.28,0,0,0,1.417-1.332,29.756,29.756,0,0,0,4.921-8.417,35.63,35.63,0,0,0,2.8-10.57,12.55,12.55,0,0,0-.321-4.27H49.2A2.645,2.645,0,0,0,48.28,4.36l3.892,1.729a2.679,2.679,0,0,1,1.483,1.984h.009A12.23,12.23,0,0,1,53.844,11.766Z" transform="translate(-2.116 -0.241)" fill="#5e5f62"/>
      </g>
    </g>
  </g>
</svg>
