<svg xmlns="http://www.w3.org/2000/svg" width="88" height="88" viewBox="0 0 88 88">
  <g id="Grupo_957508" data-name="Grupo 957508" transform="translate(15976 11191)">
    <circle id="Elipse_4814" data-name="Elipse 4814" cx="44" cy="44" r="44" transform="translate(-15976 -11191)" fill="#0e494d"/>
    <g id="ciudad" transform="translate(-15959 -11174)">
      <path id="Trazado_683463" data-name="Trazado 683463" d="M84.627,147.431H98.408v30.827H84.627Z" transform="translate(-72.026 -124.224)" fill="#6da3f2"/>
      <path id="Trazado_683464" data-name="Trazado 683464" d="M88.242,116.128l-3.615-2.146v5.648h3.615Z" transform="translate(-72.026 -96.423)" fill="#3d4151"/>
      <path id="Trazado_683465" data-name="Trazado 683465" d="M0,0H5.818V24.332H0Z" transform="translate(32.2 54.035) rotate(180)" fill="#3d4151"/>
      <path id="Trazado_683466" data-name="Trazado 683466" d="M214.476,175.478H200.7V144.086l13.781,8.811Z" transform="translate(-168.496 -121.443)" fill="#e26488"/>
      <path id="Trazado_683467" data-name="Trazado 683467" d="M10,259.486H27.967v11.907H10Z" transform="translate(-10 -217.358)" fill="#ced2dd"/>
      <path id="Trazado_683468" data-name="Trazado 683468" d="M282.311,282.311h8.052v8.052h-8.052Z" transform="translate(-236.33 -236.329)" fill="#ba4572"/>
      <g id="Grupo_944910" data-name="Grupo 944910">
        <path id="Trazado_683469" data-name="Trazado 683469" d="M10,189.577h6.162v11.8H10Z" transform="translate(-10 -159.253)" fill="#3d4151"/>
        <path id="Trazado_683470" data-name="Trazado 683470" d="M0,0H6.439V6.439H0Z" transform="translate(12.601 42.128) rotate(180)" fill="#3d4151"/>
        <path id="Trazado_683471" data-name="Trazado 683471" d="M27.734,288.2H31.9V291H27.734Z" transform="translate(-24.74 -241.226)" fill="#3d4151"/>
        <path id="Trazado_683472" data-name="Trazado 683472" d="M73.987,288.2h4.168V291H73.987Z" transform="translate(-63.183 -241.226)" fill="#3d4151"/>
        <path id="Trazado_683473" data-name="Trazado 683473" d="M103.6,175.521h2.176v3.253H103.6Z" transform="translate(-87.791 -147.571)" fill="#3d4151"/>
        <path id="Trazado_683474" data-name="Trazado 683474" d="M134.387,175.521h2.176v3.253h-2.176Z" transform="translate(-113.384 -147.571)" fill="#3d4151"/>
        <path id="Trazado_683475" data-name="Trazado 683475" d="M103.6,217.5h2.176v3.253H103.6Z" transform="translate(-87.791 -182.465)" fill="#3d4151"/>
        <path id="Trazado_683476" data-name="Trazado 683476" d="M134.387,217.5h2.176v3.253h-2.176Z" transform="translate(-113.384 -182.465)" fill="#3d4151"/>
        <path id="Trazado_683477" data-name="Trazado 683477" d="M219.663,206.146h2.176V209.4h-2.176Z" transform="translate(-184.261 -173.024)" fill="#3d4151"/>
        <path id="Trazado_683478" data-name="Trazado 683478" d="M250.456,206.146h2.176V209.4h-2.176Z" transform="translate(-209.854 -173.024)" fill="#3d4151"/>
        <path id="Trazado_683479" data-name="Trazado 683479" d="M219.663,248.128h2.176v3.253h-2.176Z" transform="translate(-184.261 -207.918)" fill="#3d4151"/>
        <path id="Trazado_683480" data-name="Trazado 683480" d="M250.456,248.128h2.176v3.253h-2.176Z" transform="translate(-209.854 -207.918)" fill="#3d4151"/>
        <path id="Trazado_683481" data-name="Trazado 683481" d="M227.173,300.907h4.84v4.913h-4.84Z" transform="translate(-190.503 -251.785)" fill="#3d4151"/>
        <path id="Trazado_683482" data-name="Trazado 683482" d="M299.2,305.53h2.35v4.132H299.2Z" transform="translate(-250.365 -255.627)" fill="#3d4151"/>
        <path id="Trazado_683483" data-name="Trazado 683483" d="M134.387,259.486h2.176v3.253h-2.176Z" transform="translate(-113.384 -217.358)" fill="#3d4151"/>
        <path id="Trazado_683484" data-name="Trazado 683484" d="M52.377,26.927a5.294,5.294,0,0,1,2.793.748,4.333,4.333,0,0,0,2.3.691h8.107a.895.895,0,0,0,.51-1.63,9.36,9.36,0,0,1-2.623-2.721,3.263,3.263,0,0,0-2.654-1.665,2.879,2.879,0,0,1-2.386-1.541,4.393,4.393,0,0,0-7.565-.086,2.936,2.936,0,0,1-2.6,1.474,3.417,3.417,0,0,0-1.005.151,2.712,2.712,0,0,0-1.763,2.106,3.961,3.961,0,0,1-1.625,2.374l0,0a.844.844,0,0,0,.483,1.537h2.941a4.332,4.332,0,0,0,2.3-.691,5.294,5.294,0,0,1,2.793-.749Z" transform="translate(-37.843 -17.151)" fill="#3d4151"/>
        <path id="Trazado_683485" data-name="Trazado 683485" d="M207.574,15.525a6.6,6.6,0,0,0,1.658-.207,7.641,7.641,0,0,1,3.723-.007,7,7,0,0,0,1.685.215H217a.8.8,0,0,0,.291-1.539,6.783,6.783,0,0,0-.855-.256,2.942,2.942,0,0,1-1.932-1.521,1.919,1.919,0,0,0-1.742-1.148,4.413,4.413,0,0,0-1.625.292,1.268,1.268,0,0,1-1.54-.528,1.719,1.719,0,0,0-1.548-.831,2.388,2.388,0,0,0-2.02,1.373,1.955,1.955,0,0,1-1.583.975,2.448,2.448,0,0,0-2.168,1.515,4.131,4.131,0,0,1-.244.46.784.784,0,0,0,.654,1.21Z" transform="translate(-169.502 -9.99)" fill="#3d4151"/>
        <path id="Trazado_683486" data-name="Trazado 683486" d="M236.153,62.772H237.6a1.092,1.092,0,0,0,1.089-1.168l0-.039a1.695,1.695,0,0,0-2.568-1.318,2.8,2.8,0,0,0-.876.823,1.09,1.09,0,0,0,.905,1.7Z" transform="translate(-197.057 -51.557)" fill="#3d4151"/>
        <path id="Trazado_683487" data-name="Trazado 683487" d="M32.634,102.266a1.274,1.274,0,0,1,.681-1.059l.174-.091a.824.824,0,0,0-.183-1.529l-1.421-.353a1.257,1.257,0,0,1-.165-2.387l3.041-1.219A1.426,1.426,0,0,0,34.5,92.9a25.205,25.205,0,0,0-2.7-.343.323.323,0,0,1,0-.644,17.043,17.043,0,0,1,3.979.13c3.834.608,2.854,2.963,1.722,3.65a24.188,24.188,0,0,1-3.538,1.724.569.569,0,0,0-.059,1.042,5.713,5.713,0,0,1,.808.507,1.608,1.608,0,0,1-.075,2.64,4.7,4.7,0,0,1-.441.258,1.678,1.678,0,0,0-.818.905c-.092.25-.2.551-.289.866a.2.2,0,0,1-.382-.026A6.609,6.609,0,0,1,32.634,102.266Z" transform="translate(-27.396 -78.032)" fill="#3d4151"/>
        <path id="Trazado_683488" data-name="Trazado 683488" d="M232.391,112.408a2.989,2.989,0,0,1,1.673-2.548,9.24,9.24,0,0,0,.837-.468,1.567,1.567,0,0,0-.474-2.845,56.974,56.974,0,0,1-6.846-2.177,1.976,1.976,0,0,1,.33-3.786c2.275-.442,4.465-.928,6.311-1.362a1.26,1.26,0,0,0-.066-2.466A131.947,131.947,0,0,0,217.166,94.9a.418.418,0,0,0-.074.832c2.8.36,5.89.807,8.785,1.329a.968.968,0,0,1,.113,1.877,22.835,22.835,0,0,0-2.606.989,2.415,2.415,0,0,0-.372,4.179,23.078,23.078,0,0,0,8.513,3.433.786.786,0,0,1,.39,1.326,3.013,3.013,0,0,0-.839,1.639,3.908,3.908,0,0,0,.095,1.762l.311,1.122a.405.405,0,0,0,.791-.057Z" transform="translate(-181.82 -80.566)" fill="#3d4151"/>
        <circle id="Elipse_5371" data-name="Elipse 5371" cx="1.078" cy="1.078" r="1.078" transform="translate(2.356 2.363)" fill="#3d4151"/>
        <circle id="Elipse_5372" data-name="Elipse 5372" cx="0.673" cy="0.673" r="0.673" transform="translate(27.779 2.096)" fill="#3d4151"/>
        <circle id="Elipse_5373" data-name="Elipse 5373" cx="0.673" cy="0.673" r="0.673" transform="translate(16.691 13.972)" fill="#3d4151"/>
        <circle id="Elipse_5374" data-name="Elipse 5374" cx="1.254" cy="1.254" r="1.254" transform="translate(28.493 18.053)" fill="#3d4151"/>
        <circle id="Elipse_5375" data-name="Elipse 5375" cx="0.875" cy="0.875" r="0.875" transform="translate(50.573 9.076)" fill="#3d4151"/>
        <circle id="Elipse_5376" data-name="Elipse 5376" cx="0.673" cy="0.673" r="0.673" transform="translate(51.137 0.905)" fill="#3d4151"/>
        <path id="Trazado_683489" data-name="Trazado 683489" d="M39.8,169.743a1.179,1.179,0,0,1,.022-1.127.338.338,0,0,1,.586.144,1.386,1.386,0,0,1-.051.977.307.307,0,0,1-.558.005Z" transform="translate(-34.671 -141.733)" fill="#3d4151"/>
        <path id="Trazado_683490" data-name="Trazado 683490" d="M302.954,220.9a1.772,1.772,0,0,1,.034-1.693.507.507,0,0,1,.881.216,2.083,2.083,0,0,1-.075,1.469.461.461,0,0,1-.84.008Z" transform="translate(-253.337 -183.721)" fill="#3d4151"/>
      </g>
    </g>
  </g>
</svg>
