<svg xmlns="http://www.w3.org/2000/svg" width="88" height="88" viewBox="0 0 88 88">
  <g id="Grupo_957504" data-name="Grupo 957504" transform="translate(16229.412 10158.216)">
    <circle id="Elipse_4814" data-name="Elipse 4814" cx="44" cy="44" r="44" transform="translate(-16229.412 -10158.216)" fill="#0e494d"/>
    <g id="orina-oscura" transform="translate(-16207.551 -10136.745)">
      <g id="Grupo_944944" data-name="Grupo 944944" transform="translate(0 4.23)">
        <path id="Trazado_683509" data-name="Trazado 683509" d="M72.725,164.446H56.693a4.35,4.35,0,0,1-4.322-3.815l-.839-6.833,0-7.728-1.9-7.728-1.149-9.356H80.933l-3.886,31.645A4.35,4.35,0,0,1,72.725,164.446Z" transform="translate(-46.553 -121.274)" fill="#e3f2ff"/>
        <path id="Trazado_683510" data-name="Trazado 683510" d="M277.3,128.985l-3.886,31.645a4.35,4.35,0,0,1-4.322,3.815h3.815a4.35,4.35,0,0,0,4.322-3.815l3.886-31.645H277.3Z" transform="translate(-246.74 -121.273)" fill="#cfe9ff"/>
        <g id="Grupo_944940" data-name="Grupo 944940" transform="translate(4.994 25.442)">
          <path id="Trazado_683511" data-name="Trazado 683511" d="M82.377,334.407a4.35,4.35,0,0,0,4.322,3.815h16.032a4.35,4.35,0,0,0,4.322-3.815l1.709-13.915H92.521l-10.968,7.08Z" transform="translate(-81.553 -320.492)" fill="#ffbe30"/>
        </g>
        <path id="Trazado_683512" data-name="Trazado 683512" d="M275.127,320.492l-1.709,13.915a4.35,4.35,0,0,1-4.322,3.815h3.815a4.35,4.35,0,0,0,4.322-3.815l1.709-13.915h-3.815Z" transform="translate(-246.74 -295.05)" fill="#ffaf00"/>
        <g id="Grupo_944942" data-name="Grupo 944942" transform="translate(3.102 17.065)">
          <path id="Trazado_683513" data-name="Trazado 683513" d="M72.713,245.47h-9.7l-1.892-15.456h11.6a2.609,2.609,0,0,1,2.612,2.606v10.245A2.609,2.609,0,0,1,72.713,245.47Z" transform="translate(-61.117 -230.014)" fill="#fff"/>
          <g id="Grupo_944941" data-name="Grupo 944941" transform="translate(0.574 4.688)">
            <path id="Trazado_683514" data-name="Trazado 683514" d="M75.717,281.361a.715.715,0,0,0-.715-.715H67.314l.175,1.431H75A.715.715,0,0,0,75.717,281.361Z" transform="translate(-67.314 -280.646)" fill="#99caf7"/>
            <path id="Trazado_683515" data-name="Trazado 683515" d="M81.225,330.942a.715.715,0,0,0-.715-.715H73.384l.175,1.431H80.51A.715.715,0,0,0,81.225,330.942Z" transform="translate(-72.822 -325.637)" fill="#99caf7"/>
          </g>
        </g>
        <path id="Trazado_683516" data-name="Trazado 683516" d="M62.182,55.134H29.348a1.739,1.739,0,0,1-1.739-1.739V47.424a1.739,1.739,0,0,1,1.739-1.739H62.182a1.739,1.739,0,0,1,1.739,1.739v5.97A1.739,1.739,0,0,1,62.182,55.134Z" transform="translate(-27.609 -45.685)" fill="#ff4c30"/>
        <g id="Grupo_944943" data-name="Grupo 944943" transform="translate(2.8 1.929)">
          <path id="Trazado_683517" data-name="Trazado 683517" d="M58.571,66.523a.715.715,0,0,0-.715.715V71.4a.715.715,0,1,0,1.431,0v-4.16A.715.715,0,0,0,58.571,66.523Z" transform="translate(-57.856 -66.523)" fill="#db0606"/>
          <path id="Trazado_683518" data-name="Trazado 683518" d="M98.106,66.523a.715.715,0,0,0-.715.715V71.4a.715.715,0,0,0,1.431,0v-4.16A.715.715,0,0,0,98.106,66.523Z" transform="translate(-93.731 -66.523)" fill="#db0606"/>
          <path id="Trazado_683519" data-name="Trazado 683519" d="M137.64,66.523a.715.715,0,0,0-.715.715V71.4a.715.715,0,1,0,1.431,0v-4.16A.715.715,0,0,0,137.64,66.523Z" transform="translate(-129.605 -66.523)" fill="#db0606"/>
          <path id="Trazado_683520" data-name="Trazado 683520" d="M177.175,66.523a.715.715,0,0,0-.715.715V71.4a.715.715,0,1,0,1.431,0v-4.16A.715.715,0,0,0,177.175,66.523Z" transform="translate(-165.479 -66.523)" fill="#db0606"/>
          <path id="Trazado_683521" data-name="Trazado 683521" d="M216.709,66.523a.715.715,0,0,0-.715.715V71.4a.715.715,0,1,0,1.431,0v-4.16A.715.715,0,0,0,216.709,66.523Z" transform="translate(-201.353 -66.523)" fill="#db0606"/>
          <path id="Trazado_683522" data-name="Trazado 683522" d="M256.243,66.523a.715.715,0,0,0-.715.715V71.4a.715.715,0,1,0,1.431,0v-4.16A.715.715,0,0,0,256.243,66.523Z" transform="translate(-237.227 -66.523)" fill="#db0606"/>
          <path id="Trazado_683523" data-name="Trazado 683523" d="M295.777,66.523a.715.715,0,0,0-.715.715V71.4a.715.715,0,1,0,1.431,0v-4.16A.715.715,0,0,0,295.777,66.523Z" transform="translate(-273.101 -66.523)" fill="#db0606"/>
          <path id="Trazado_683524" data-name="Trazado 683524" d="M335.311,66.523a.715.715,0,0,0-.715.715V71.4a.715.715,0,0,0,1.431,0v-4.16A.715.715,0,0,0,335.311,66.523Z" transform="translate(-308.975 -66.523)" fill="#db0606"/>
          <path id="Trazado_683525" data-name="Trazado 683525" d="M374.846,66.523a.715.715,0,0,0-.715.715V71.4a.715.715,0,1,0,1.431,0v-4.16A.715.715,0,0,0,374.846,66.523Z" transform="translate(-344.85 -66.523)" fill="#db0606"/>
        </g>
      </g>
      <path id="Trazado_683526" data-name="Trazado 683526" d="M372.59,0s-5.427,6.432-5.427,11.3a5.427,5.427,0,0,0,10.853,0c0-4.5-5.427-11.3-5.427-11.3Z" transform="translate(-335.727)" fill="#ffbe30"/>
      <path id="Trazado_683527" data-name="Trazado 683527" d="M406.74,0s-.886,1.051-1.942,2.624c1.569,2.39,3.554,5.952,3.554,8.677a5.415,5.415,0,0,1-3.519,5.068,5.43,5.43,0,0,0,7.334-5.068c0-4.5-5.427-11.3-5.427-11.3Z" transform="translate(-369.877)" fill="#ffaf00"/>
      <path id="Trazado_683528" data-name="Trazado 683528" d="M396.8,117.336a1.437,1.437,0,0,1-1.438-1.433.715.715,0,1,0-1.431,0,2.869,2.869,0,0,0,2.869,2.863.715.715,0,1,0,0-1.431Z" transform="translate(-360.02 -104.524)" fill="#ff9500"/>
    </g>
  </g>
</svg>
