<svg xmlns="http://www.w3.org/2000/svg" width="88" height="88" viewBox="0 0 88 88">
  <g id="Grupo_957505" data-name="Grupo 957505" transform="translate(16229.412 9918.216)">
    <circle id="Elipse_4813" data-name="Elipse 4813" cx="44" cy="44" r="44" transform="translate(-16229.412 -9918.216)" fill="#0e494d"/>
    <g id="bioquimico" transform="translate(-16210.474 -9901.428)">
      <path id="Trazado_683529" data-name="Trazado 683529" d="M40.15,43.522V42.283A5.025,5.025,0,0,0,36.788,41H35.107s-.841,5.044-2.522,7.567L27.54,45.2,22.5,48.567C20.815,46.044,19.974,41,19.974,41H17.452a4.2,4.2,0,0,0-4.2,4.2v6.726L11.567,41H4L6.522,57.815H36.787a1.681,1.681,0,0,1-1.552-2.328Z" transform="translate(-3.159 -9.35)" fill="#f2fbff"/>
      <path id="Trazado_683530" data-name="Trazado 683530" d="M9,26h5.044V36.929H9Z" transform="translate(-3.956 -6.961)" fill="#71caf0"/>
      <path id="Trazado_683531" data-name="Trazado 683531" d="M44.261,24.2a2.1,2.1,0,1,0,0-4.2H43v4.2Z" transform="translate(-9.371 -6.005)" fill="#fad3ac"/>
      <path id="Trazado_683532" data-name="Trazado 683532" d="M19.1,20a2.1,2.1,0,1,0,0,4.2h1.261V20Z" transform="translate(-5.23 -6.005)" fill="#fad3ac"/>
      <path id="Trazado_683533" data-name="Trazado 683533" d="M37.894,12.341a3.723,3.723,0,0,0-5.62-1.647,3.723,3.723,0,0,1-4.137.128l-.367-.23A3.723,3.723,0,0,0,22.2,12.77L21,18.407v5.885h.042a9.244,9.244,0,0,0,18.412,0H39.5V18.407Z" transform="translate(-5.867 -4.413)" fill="#fce0b9"/>
      <path id="Trazado_683534" data-name="Trazado 683534" d="M57.683,53.575,55.751,48.87l-2.98-7.259V31.522h.42a1.261,1.261,0,0,0,0-2.522h-7.57a1.261,1.261,0,0,0,0,2.522h.42V41.611L41.127,53.575A1.681,1.681,0,0,0,42.679,55.9H56.131A1.681,1.681,0,0,0,57.683,53.575Z" transform="translate(-9.052 -7.439)" fill="#71caf0"/>
      <path id="Trazado_683535" data-name="Trazado 683535" d="M27.61,9.534l.367.23a3.723,3.723,0,0,0,4.137-.128,3.723,3.723,0,0,1,5.62,1.647l1.6,6.066-.351-8.387A6.638,6.638,0,0,0,29.814,3.9L25.885,5.579A5.885,5.885,0,0,0,20,11.464l.841,5.885,1.2-5.637A3.723,3.723,0,0,1,27.61,9.534Z" transform="translate(-5.708 -3.354)" fill="#665642"/>
      <circle id="Elipse_5381" data-name="Elipse 5381" cx="1.681" cy="1.681" r="1.681" transform="translate(42.037 12.313)" fill="#fca947"/>
      <circle id="Elipse_5382" data-name="Elipse 5382" cx="1.681" cy="1.681" r="1.681" transform="translate(39.514 3.065)" fill="#fca947"/>
      <path id="Trazado_683536" data-name="Trazado 683536" d="M49.771,52.451a5.405,5.405,0,0,0-4.42-.717l-2.246.612-1.98,4.82a1.682,1.682,0,0,0,1.553,2.328H56.131a1.681,1.681,0,0,0,1.552-2.328L55.751,52.46A5.4,5.4,0,0,1,49.771,52.451Z" transform="translate(-9.052 -11.029)" fill="#fca947"/>
      <path id="Trazado_683537" data-name="Trazado 683537" d="M42.679,59.636H52.737l-.467-.184A20.041,20.041,0,0,1,43.3,52.436l-.189.051-1.98,4.82A1.682,1.682,0,0,0,42.679,59.636Z" transform="translate(-9.052 -11.171)" fill="#e68f29"/>
      <path id="Trazado_683538" data-name="Trazado 683538" d="M31.2,36.809A9.2,9.2,0,0,1,27,35.8v3.533l4.2,5.044,4.2-5.044V35.8A9.2,9.2,0,0,1,31.2,36.809Z" transform="translate(-6.822 -8.522)" fill="#fce0b9"/>
      <path id="Trazado_683539" data-name="Trazado 683539" d="M25.885,6.962l3.929-1.684a6.638,6.638,0,0,1,9.172,5.066l.282,6.743.068.261-.351-8.387A6.638,6.638,0,0,0,29.814,3.9L25.885,5.579A5.885,5.885,0,0,0,20,11.464l.072.507A5.882,5.882,0,0,1,25.885,6.962Z" transform="translate(-5.708 -3.354)" fill="#735f47"/>
      <path id="Trazado_683540" data-name="Trazado 683540" d="M28.842,36.405l5.229,4.88L35.7,39.331V35.8a9.127,9.127,0,0,1-6.859.607Z" transform="translate(-7.116 -8.522)" fill="#fad3ac"/>
      <path id="Trazado_683541" data-name="Trazado 683541" d="M47,34.333v4.484H48.12a2.242,2.242,0,1,0,0-4.484Z" transform="translate(-10.008 -8.288)" fill="#60accc"/>
      <path id="Trazado_683542" data-name="Trazado 683542" d="M49.044,36.681A1.681,1.681,0,0,0,47.363,35H44.841a.841.841,0,0,0-.841.841v1.681a.841.841,0,0,0,.841.841h2.522A1.681,1.681,0,0,0,49.044,36.681Z" transform="translate(-9.53 -8.394)" fill="#fce0b9"/>
      <path id="Trazado_683543" data-name="Trazado 683543" d="M54.225,35h-2a2.1,2.1,0,0,0-2.1,2.1v4.2a2.1,2.1,0,0,0,2.1,2.1H54.57l-.346-.841Z" transform="translate(-10.505 -8.394)" fill="#60accc"/>
      <path id="Trazado_683544" data-name="Trazado 683544" d="M51,37.681v3.363a1.681,1.681,0,0,0,1.681,1.681h3.365a.841.841,0,0,0,.841-.841V36.841A.841.841,0,0,0,56.044,36H52.679A1.681,1.681,0,0,0,51,37.681Z" transform="translate(-10.645 -8.554)" fill="#fce0b9"/>
      <path id="Trazado_683545" data-name="Trazado 683545" d="M39.567,40.522,36.2,38v1.681L32,44.726l5.044,3.363C38.726,45.567,39.567,40.522,39.567,40.522Z" transform="translate(-7.619 -8.872)" fill="#f2fbff"/>
      <path id="Trazado_683546" data-name="Trazado 683546" d="M26.363,38,23,40.522s.841,5.044,2.522,7.567l5.044-3.363-4.2-5.044Z" transform="translate(-6.185 -8.872)" fill="#f2fbff"/>
      <path id="Trazado_683547" data-name="Trazado 683547" d="M31.522,33.522A2.522,2.522,0,0,0,34.044,31H29A2.522,2.522,0,0,0,31.522,33.522Z" transform="translate(-7.141 -7.757)" fill="#fab69b"/>
      <path id="Trazado_683548" data-name="Trazado 683548" d="M9,39v3.363a2.522,2.522,0,1,0,5.044,0V39Z" transform="translate(-3.956 -9.032)" fill="#78af4f"/>
      <path id="Trazado_683549" data-name="Trazado 683549" d="M11.522,43.522A2.522,2.522,0,0,1,9,41v1.681a2.522,2.522,0,0,0,5.044,0V41A2.522,2.522,0,0,1,11.522,43.522Z" transform="translate(-3.956 -9.35)" fill="#619c35"/>
      <path id="Trazado_683550" data-name="Trazado 683550" d="M12.924,30.333a2.227,2.227,0,0,0-1.711.809,2,2,0,0,0-.952-.248H9V37.62h.252v-2.69h1.009a2,2,0,0,0,1.359-.536,2.224,2.224,0,0,0,1.3.424h1.122V30.334H12.924Z" transform="translate(-3.956 -7.651)" fill="#60accc"/>
      <path id="Trazado_683551" data-name="Trazado 683551" d="M8.044,39.407V34.363h.841a1.681,1.681,0,1,0,0-3.363H3.841A.841.841,0,0,0,3,31.841l1.1,7.567Z" transform="translate(-3 -7.757)" fill="#fce0b9"/>
      <path id="Trazado_683552" data-name="Trazado 683552" d="M12,32.681a1.681,1.681,0,0,0,1.681,1.681H16.2a.841.841,0,0,0,.841-.841V31.841A.841.841,0,0,0,16.2,31H13.681A1.681,1.681,0,0,0,12,32.681Z" transform="translate(-4.433 -7.757)" fill="#fce0b9"/>
      <path id="Trazado_683553" data-name="Trazado 683553" d="M47,32h6.728v.841H47Z" transform="translate(-10.008 -7.917)" fill="#60accc"/>
      <path id="Trazado_683554" data-name="Trazado 683554" d="M37.879,41s-.841,5.044-2.522,7.567l-.061-.041c-.008.013-.016.029-.024.041l-5-3.334,0,0s-5.016,3.3-5.024,3.292l-.061.04-.1-.3a25.673,25.673,0,0,1-2.332-7.223c0-.028-.008-.045-.008-.045H21.4c.487,2.478,1.295,6.84,2.671,9.306a.844.844,0,0,0,1.207.294l4.189-2.791V57.815h1.681V47.923L35.17,50.6a.845.845,0,0,0,1.207-.3c1.376-2.466,2.455-6.828,3-9.306Z" transform="translate(-5.931 -9.35)" fill="#dae2e6"/>
      <path id="Trazado_683555" data-name="Trazado 683555" d="M21,56h1.681v4.2H21Z" transform="translate(-5.867 -11.739)" fill="#dae2e6"/>
      <ellipse id="Elipse_5383" data-name="Elipse 5383" cx="0.841" cy="1.261" rx="0.841" ry="1.261" transform="translate(19.337 15.676)" fill="#2b2210"/>
      <ellipse id="Elipse_5384" data-name="Elipse 5384" cx="0.841" cy="1.261" rx="0.841" ry="1.261" transform="translate(27.744 15.676)" fill="#2b2210"/>
      <circle id="Elipse_5385" data-name="Elipse 5385" cx="0.42" cy="0.42" r="0.42" transform="translate(20.178 16.517)" fill="#fff"/>
      <circle id="Elipse_5386" data-name="Elipse 5386" cx="0.42" cy="0.42" r="0.42" transform="translate(28.585 16.517)" fill="#fff"/>
      <path id="Trazado_683556" data-name="Trazado 683556" d="M32,22.522a3.363,3.363,0,0,0,3.363,3.363h4.2A1.681,1.681,0,0,0,41.248,24.2V20H32Z" transform="translate(-7.619 -6.005)" fill="#cee6f0" opacity="0.65"/>
      <path id="Trazado_683557" data-name="Trazado 683557" d="M22.681,25.885h4.2a3.363,3.363,0,0,0,3.363-3.363V20H21v4.2A1.681,1.681,0,0,0,22.681,25.885Z" transform="translate(-5.867 -6.005)" fill="#cee6f0" opacity="0.65"/>
      <path id="Trazado_683558" data-name="Trazado 683558" d="M39.567,25.363h-4.2A3.363,3.363,0,0,1,32,22v.841A3.363,3.363,0,0,0,35.363,26.2h4.2a1.681,1.681,0,0,0,1.681-1.681v-.841A1.681,1.681,0,0,1,39.567,25.363Z" transform="translate(-7.619 -6.324)" fill="#cee6f0" opacity="0.65"/>
      <path id="Trazado_683559" data-name="Trazado 683559" d="M26.885,25.363h-4.2A1.681,1.681,0,0,1,21,23.681v.841A1.681,1.681,0,0,0,22.681,26.2h4.2a3.363,3.363,0,0,0,3.363-3.363V22A3.363,3.363,0,0,1,26.885,25.363Z" transform="translate(-5.867 -6.324)" fill="#cee6f0" opacity="0.65"/>
      <g id="Grupo_944952" data-name="Grupo 944952" transform="translate(41.196 3.906)">
        <circle id="Elipse_5387" data-name="Elipse 5387" cx="0.42" cy="0.42" r="0.42" fill="#fff"/>
        <circle id="Elipse_5388" data-name="Elipse 5388" cx="0.42" cy="0.42" r="0.42" transform="translate(2.522 9.248)" fill="#fff"/>
        <circle id="Elipse_5389" data-name="Elipse 5389" cx="0.42" cy="0.42" r="0.42" transform="translate(3.363 39.514)" fill="#fff"/>
        <circle id="Elipse_5390" data-name="Elipse 5390" cx="0.841" cy="0.841" r="0.841" transform="translate(0.841 39.514)" fill="#fff"/>
      </g>
    </g>
  </g>
</svg>
