<svg xmlns="http://www.w3.org/2000/svg" width="88" height="88" viewBox="0 0 88 88">
  <g id="Grupo_957506" data-name="Grupo 957506" transform="translate(16228.912 9803)">
    <path id="Trazado_640294" data-name="Trazado 640294" d="M44,0A44,44,0,1,1,0,44,44,44,0,0,1,44,0Z" transform="translate(-16228.912 -9803)" fill="#0e494d"/>
    <g id="experimentar" transform="translate(-16229.515 -9786)">
      <g id="Grupo_944964" data-name="Grupo 944964" transform="translate(18.603 2.241)">
        <g id="Grupo_944953" data-name="Grupo 944953" transform="translate(0)">
          <path id="Trazado_683560" data-name="Trazado 683560" d="M28.9,48.631a1.761,1.761,0,0,1,1.759-1.759h3.586V43.665h-.9a.431.431,0,0,1-.431-.43V40.418a.431.431,0,0,1,.431-.431h7.526a.431.431,0,0,1,.431.431v2.817a.431.431,0,0,1-.431.43h-.9v3.206h5.943V43.665h-.9a.431.431,0,0,1-.431-.43V40.418a.431.431,0,0,1,.431-.431h2.166v-17.7a1.072,1.072,0,0,0-1.072-1.072H19.675A1.072,1.072,0,0,0,18.6,22.288v36.38a1.072,1.072,0,0,0,1.072,1.072H28.9Z" transform="translate(-18.603 -21.216)" fill="#ffdfcf"/>
          <path id="Trazado_683561" data-name="Trazado 683561" d="M129.064,277.484v11.11h3.971V277.1H129.45A.386.386,0,0,0,129.064,277.484Z" transform="translate(-117.396 -250.069)" fill="#ffdfcf"/>
          <path id="Trazado_683562" data-name="Trazado 683562" d="M220.863,277.1h5.943v11.5h-5.943Z" transform="translate(-199.498 -250.069)" fill="#ffdfcf"/>
        </g>
        <path id="Trazado_683563" data-name="Trazado 683563" d="M341.863,32.461H326.729l-.486.106V45.538a.751.751,0,0,0,.751.751h14.612a.751.751,0,0,0,.751-.751V32.567Z" transform="translate(-293.747 -31.273)" fill="#f9f3f1"/>
        <g id="Grupo_944954" data-name="Grupo 944954" transform="translate(32.496 1.293)">
          <path id="Trazado_683564" data-name="Trazado 683564" d="M329.764,46.433V33.461h-3.521V46.433a.751.751,0,0,0,.751.751h3.521A.751.751,0,0,1,329.764,46.433Z" transform="translate(-326.243 -33.461)" fill="#efe2dd"/>
        </g>
        <g id="Grupo_944955" data-name="Grupo 944955" transform="translate(0 0)">
          <path id="Trazado_683565" data-name="Trazado 683565" d="M23.125,58.668V22.288A1.072,1.072,0,0,1,24.2,21.216H19.675A1.072,1.072,0,0,0,18.6,22.288v36.38a1.072,1.072,0,0,0,1.072,1.072H24.2A1.072,1.072,0,0,1,23.125,58.668Z" transform="translate(-18.603 -21.216)" fill="#ffcebf"/>
        </g>
        <g id="Grupo_944959" data-name="Grupo 944959" transform="translate(4.167 4.286)">
          <g id="Grupo_944956" data-name="Grupo 944956" transform="translate(0)">
            <path id="Trazado_683566" data-name="Trazado 683566" d="M63.942,61.793H60.373a.536.536,0,0,0-.464.268l-1.785,3.091a.536.536,0,0,0,0,.536l1.939,3.359h4.188l2.094-3.627-1.939-3.359A.536.536,0,0,0,63.942,61.793Z" transform="translate(-58.053 -61.793)" fill="#ffd15b"/>
          </g>
          <g id="Grupo_944957" data-name="Grupo 944957" transform="translate(6.199 3.627)">
            <path id="Trazado_683567" data-name="Trazado 683567" d="M122.713,96.13h-3.879l-2.094,3.627,2.094,3.627h3.879a.536.536,0,0,0,.464-.268l1.785-3.091a.536.536,0,0,0,0-.536L123.177,96.4A.536.536,0,0,0,122.713,96.13Z" transform="translate(-116.74 -96.13)" fill="#feb137"/>
          </g>
          <g id="Grupo_944958" data-name="Grupo 944958" transform="translate(0 7.254)">
            <path id="Trazado_683568" data-name="Trazado 683568" d="M64.252,130.466H60.064l-1.939,3.359a.536.536,0,0,0,0,.536l1.785,3.091a.536.536,0,0,0,.464.268h3.569a.536.536,0,0,0,.464-.268l1.939-3.359Z" transform="translate(-58.053 -130.466)" fill="#ffc344"/>
          </g>
        </g>
        <g id="Grupo_944960" data-name="Grupo 944960" transform="translate(3.375 22.244)">
          <path id="Trazado_683569" data-name="Trazado 683569" d="M57.823,233.378H51.345a.792.792,0,1,1,0-1.584h6.478a.792.792,0,1,1,0,1.584Z" transform="translate(-50.553 -231.794)" fill="#fff"/>
        </g>
        <g id="Grupo_944961" data-name="Grupo 944961" transform="translate(3.375 25.493)">
          <path id="Trazado_683570" data-name="Trazado 683570" d="M55.134,264.142H51.345a.792.792,0,0,1,0-1.585h3.789a.792.792,0,0,1,0,1.585Z" transform="translate(-50.553 -262.558)" fill="#fff"/>
        </g>
        <g id="Grupo_944962" data-name="Grupo 944962" transform="translate(3.375 28.743)">
          <path id="Trazado_683571" data-name="Trazado 683571" d="M55.134,294.906H51.345a.792.792,0,0,1,0-1.585h3.789a.792.792,0,0,1,0,1.585Z" transform="translate(-50.553 -293.321)" fill="#fff"/>
        </g>
        <g id="Grupo_944963" data-name="Grupo 944963" transform="translate(3.375 31.992)">
          <path id="Trazado_683572" data-name="Trazado 683572" d="M55.134,325.669H51.345a.792.792,0,0,1,0-1.584h3.789a.792.792,0,0,1,0,1.584Z" transform="translate(-50.553 -324.085)" fill="#fff"/>
        </g>
      </g>
      <g id="Grupo_944983" data-name="Grupo 944983" transform="translate(28.792 20.907)">
        <g id="Grupo_944982" data-name="Grupo 944982" transform="translate(4.014)">
          <g id="Grupo_944969" data-name="Grupo 944969">
            <g id="Grupo_944965" data-name="Grupo 944965" transform="translate(1.331 3.784)">
              <path id="Trazado_683573" data-name="Trazado 683573" d="M165.66,233.744H171.6v3.206H165.66Z" transform="translate(-165.66 -233.744)" fill="#c8effe"/>
            </g>
            <path id="Trazado_683574" data-name="Trazado 683574" d="M165.66,277.1v15.486a2.968,2.968,0,1,0,5.937,0V277.1Z" transform="translate(-164.329 -268.735)" fill="#01c0fa"/>
            <path id="Trazado_683575" data-name="Trazado 683575" d="M168.373,292.584V277.1H165.66v15.486a2.968,2.968,0,0,0,4.325,2.64A2.968,2.968,0,0,1,168.373,292.584Z" transform="translate(-164.329 -268.735)" fill="#08a9f1"/>
            <g id="Grupo_944966" data-name="Grupo 944966" transform="translate(1.331 10.467)">
              <path id="Trazado_683576" data-name="Trazado 683576" d="M167.5,297.014H165.66V298.6H167.5a.792.792,0,0,0,0-1.584Z" transform="translate(-165.66 -297.014)" fill="#0290cf"/>
              <path id="Trazado_683577" data-name="Trazado 683577" d="M167.5,328.022H165.66v1.585H167.5a.792.792,0,0,0,0-1.585Z" transform="translate(-165.66 -324.747)" fill="#0290cf"/>
              <path id="Trazado_683578" data-name="Trazado 683578" d="M167.5,359.031H165.66v1.584H167.5a.792.792,0,0,0,0-1.584Z" transform="translate(-165.66 -352.48)" fill="#0290cf"/>
              <path id="Trazado_683579" data-name="Trazado 683579" d="M167.5,390.04H165.66v1.584H167.5a.792.792,0,0,0,0-1.584Z" transform="translate(-165.66 -380.214)" fill="#0290cf"/>
            </g>
            <g id="Grupo_944967" data-name="Grupo 944967" transform="translate(0 0)">
              <path id="Trazado_683580" data-name="Trazado 683580" d="M161.125,201.812H153.6a.536.536,0,0,1-.536-.536v-2.817a.536.536,0,0,1,.536-.536h7.526a.536.536,0,0,1,.536.536v2.817A.536.536,0,0,1,161.125,201.812Z" transform="translate(-153.063 -197.922)" fill="#c8effe"/>
            </g>
            <g id="Grupo_944968" data-name="Grupo 944968">
              <path id="Trazado_683581" data-name="Trazado 683581" d="M156.355,200.015a.536.536,0,0,1-.536-.536v-1.557H153.6a.536.536,0,0,0-.536.536v2.817a.536.536,0,0,0,.536.536h7.526a.536.536,0,0,0,.536-.536v-1.26Z" transform="translate(-153.063 -197.922)" fill="#99e6fc"/>
            </g>
          </g>
          <g id="Grupo_944977" data-name="Grupo 944977" transform="translate(11.669)">
            <g id="Grupo_944971" data-name="Grupo 944971" transform="translate(1.331 3.784)">
              <g id="Grupo_944970" data-name="Grupo 944970" transform="translate(0 4.58)">
                <path id="Trazado_683582" data-name="Trazado 683582" d="M276.129,277.1h5.937v3h-5.937Z" transform="translate(-276.129 -277.098)" fill="#c8effe"/>
              </g>
              <path id="Trazado_683583" data-name="Trazado 683583" d="M276.129,233.744h5.937v3.206h-5.937Z" transform="translate(-276.129 -233.744)" fill="#c8effe"/>
            </g>
            <g id="Grupo_944972" data-name="Grupo 944972" transform="translate(1.331 11.259)">
              <path id="Trazado_683584" data-name="Trazado 683584" d="M276.129,304.514V317.1a2.968,2.968,0,1,0,5.937,0v-12.59Z" transform="translate(-276.129 -304.514)" fill="#bbec6c"/>
            </g>
            <g id="Grupo_944973" data-name="Grupo 944973" transform="translate(1.331 11.259)">
              <path id="Trazado_683585" data-name="Trazado 683585" d="M278.821,317.1v-12.59h-2.692V317.1a2.968,2.968,0,0,0,4.315,2.646A2.968,2.968,0,0,1,278.821,317.1Z" transform="translate(-276.129 -304.514)" fill="#a2e62e"/>
            </g>
            <g id="Grupo_944974" data-name="Grupo 944974" transform="translate(1.331 13.743)">
              <path id="Trazado_683586" data-name="Trazado 683586" d="M277.971,328.022h-1.843v1.585h1.843a.792.792,0,0,0,0-1.585Z" transform="translate(-276.128 -328.022)" fill="#97d729"/>
              <path id="Trazado_683587" data-name="Trazado 683587" d="M277.971,359.031h-1.843v1.584h1.843a.792.792,0,1,0,0-1.584Z" transform="translate(-276.128 -355.755)" fill="#97d729"/>
              <path id="Trazado_683588" data-name="Trazado 683588" d="M277.971,390.04h-1.843v1.584h1.843a.792.792,0,0,0,0-1.584Z" transform="translate(-276.128 -383.489)" fill="#97d729"/>
            </g>
            <g id="Grupo_944975" data-name="Grupo 944975" transform="translate(0 0)">
              <path id="Trazado_683589" data-name="Trazado 683589" d="M271.594,201.812h-7.526a.536.536,0,0,1-.536-.536v-2.817a.536.536,0,0,1,.536-.536h7.526a.536.536,0,0,1,.536.536v2.817A.536.536,0,0,1,271.594,201.812Z" transform="translate(-263.532 -197.922)" fill="#c8effe"/>
            </g>
            <g id="Grupo_944976" data-name="Grupo 944976">
              <path id="Trazado_683590" data-name="Trazado 683590" d="M266.824,200.015a.536.536,0,0,1-.536-.536v-1.557h-2.219a.536.536,0,0,0-.536.536v2.817a.536.536,0,0,0,.536.536h7.526a.536.536,0,0,0,.536-.536v-1.26Z" transform="translate(-263.532 -197.922)" fill="#99e6fc"/>
            </g>
          </g>
          <g id="Grupo_944981" data-name="Grupo 944981" transform="translate(23.338)">
            <g id="Grupo_944978" data-name="Grupo 944978" transform="translate(1.331 3.784)">
              <path id="Trazado_683591" data-name="Trazado 683591" d="M386.6,233.744h5.937v3.206H386.6Z" transform="translate(-386.597 -233.744)" fill="#c8effe"/>
            </g>
            <path id="Trazado_683592" data-name="Trazado 683592" d="M386.6,277.1v15.486a2.968,2.968,0,1,0,5.937,0V277.1Z" transform="translate(-385.266 -268.735)" fill="#fd9468"/>
            <path id="Trazado_683593" data-name="Trazado 683593" d="M389.309,292.584V277.1H386.6v15.486a2.968,2.968,0,0,0,4.324,2.641A2.968,2.968,0,0,1,389.309,292.584Z" transform="translate(-385.267 -268.735)" fill="#fe7d43"/>
            <g id="Grupo_944979" data-name="Grupo 944979" transform="translate(0 0)">
              <path id="Trazado_683594" data-name="Trazado 683594" d="M382.063,201.812h-7.526a.536.536,0,0,1-.536-.536v-2.817a.536.536,0,0,1,.536-.536h7.526a.536.536,0,0,1,.536.536v2.817A.536.536,0,0,1,382.063,201.812Z" transform="translate(-374.001 -197.922)" fill="#c8effe"/>
            </g>
            <g id="Grupo_944980" data-name="Grupo 944980">
              <path id="Trazado_683595" data-name="Trazado 683595" d="M377.292,200.015a.536.536,0,0,1-.536-.536v-1.557h-2.219a.536.536,0,0,0-.536.536v2.817a.536.536,0,0,0,.536.536h7.526a.536.536,0,0,0,.536-.536v-1.26Z" transform="translate(-374.001 -197.922)" fill="#99e6fc"/>
            </g>
          </g>
        </g>
        <path id="Trazado_683596" data-name="Trazado 683596" d="M153.163,263.1H116.928a1.867,1.867,0,0,0-1.864,1.865v19.481l.18.106h1.4V264.962a.28.28,0,0,1,.28-.28h36.235a.28.28,0,0,1,.28.28v19.587h1.4l.18-.106V264.962A1.867,1.867,0,0,0,153.163,263.1Z" transform="translate(-115.064 -256.213)" fill="#e1d3ce"/>
      </g>
      <g id="Grupo_944992" data-name="Grupo 944992" transform="translate(51.099 0)">
        <g id="Grupo_944986" data-name="Grupo 944986">
          <g id="Grupo_944984" data-name="Grupo 944984" transform="translate(0)">
            <path id="Trazado_683597" data-name="Trazado 683597" d="M342.356,3.535H326.243V.751A.751.751,0,0,1,326.994,0h14.612a.751.751,0,0,1,.751.751V3.535Z" transform="translate(-326.243 0)" fill="#fd6930"/>
          </g>
          <g id="Grupo_944985" data-name="Grupo 944985">
            <path id="Trazado_683598" data-name="Trazado 683598" d="M329.776,3.535h-3.534V.751A.751.751,0,0,1,326.993,0h2.784Z" transform="translate(-326.242 0)" fill="#ef4424"/>
          </g>
        </g>
        <g id="Grupo_944991" data-name="Grupo 944991" transform="translate(2.898 6.11)">
          <g id="Grupo_944987" data-name="Grupo 944987">
            <path id="Trazado_683599" data-name="Trazado 683599" d="M363.2,59.428h-8.732a.792.792,0,0,1,0-1.584H363.2a.792.792,0,0,1,0,1.584Z" transform="translate(-353.68 -57.844)" fill="#b9acac"/>
          </g>
          <g id="Grupo_944988" data-name="Grupo 944988" transform="translate(3.72 3.077)">
            <path id="Trazado_683600" data-name="Trazado 683600" d="M394.7,88.562h-5.013a.792.792,0,1,1,0-1.584H394.7a.792.792,0,0,1,0,1.584Z" transform="translate(-388.893 -86.978)" fill="#b9acac"/>
          </g>
          <g id="Grupo_944989" data-name="Grupo 944989" transform="translate(0 3.077)">
            <path id="Trazado_683601" data-name="Trazado 683601" d="M355.726,88.562h-1.254a.792.792,0,0,1,0-1.584h1.254a.792.792,0,0,1,0,1.584Z" transform="translate(-353.68 -86.978)" fill="#b9acac"/>
          </g>
          <g id="Grupo_944990" data-name="Grupo 944990" transform="translate(0 6.155)">
            <path id="Trazado_683602" data-name="Trazado 683602" d="M359.51,117.7h-5.038a.792.792,0,0,1,0-1.584h5.038a.792.792,0,0,1,0,1.584Z" transform="translate(-353.68 -116.111)" fill="#b9acac"/>
          </g>
        </g>
      </g>
      <g id="Grupo_944993" data-name="Grupo 944993" transform="translate(41.633 5.735)">
        <path id="Trazado_683603" data-name="Trazado 683603" d="M238.6,55.877h-1.179a.792.792,0,1,1,0-1.584H238.6a.792.792,0,1,1,0,1.584Z" transform="translate(-236.629 -54.293)" fill="#fff"/>
      </g>
      <g id="Grupo_944994" data-name="Grupo 944994" transform="translate(32.841 5.735)">
        <path id="Trazado_683604" data-name="Trazado 683604" d="M160.725,55.877h-6.541a.792.792,0,0,1,0-1.584h6.541a.792.792,0,0,1,0,1.584Z" transform="translate(-153.392 -54.293)" fill="#fff"/>
      </g>
      <g id="Grupo_944995" data-name="Grupo 944995" transform="translate(38.845 8.844)">
        <path id="Trazado_683605" data-name="Trazado 683605" d="M215,85.314h-3.967a.792.792,0,0,1,0-1.584H215a.792.792,0,0,1,0,1.584Z" transform="translate(-210.236 -83.73)" fill="#fff"/>
      </g>
      <g id="Grupo_944996" data-name="Grupo 944996" transform="translate(38.845 11.954)">
        <path id="Trazado_683606" data-name="Trazado 683606" d="M215,114.752h-3.967a.792.792,0,1,1,0-1.584H215a.792.792,0,1,1,0,1.584Z" transform="translate(-210.236 -113.168)" fill="#fff"/>
      </g>
      <g id="Grupo_944997" data-name="Grupo 944997" transform="translate(38.845 15.064)">
        <path id="Trazado_683607" data-name="Trazado 683607" d="M215,144.19h-3.967a.792.792,0,1,1,0-1.584H215a.792.792,0,1,1,0,1.584Z" transform="translate(-210.236 -142.606)" fill="#fff"/>
      </g>
      <g id="Grupo_944998" data-name="Grupo 944998" transform="translate(28.792 49.137)">
        <path id="Trazado_683608" data-name="Trazado 683608" d="M153.163,470.121H116.928a1.864,1.864,0,0,1-1.864-1.864v-3.082h39.964v3.082A1.865,1.865,0,0,1,153.163,470.121Z" transform="translate(-115.064 -465.175)" fill="#cdbfba"/>
      </g>
      <path id="Trazado_683609" data-name="Trazado 683609" d="M120.224,468.257v-3.082h-5.16v3.082a1.864,1.864,0,0,0,1.864,1.864h5.16A1.865,1.865,0,0,1,120.224,468.257Z" transform="translate(-86.272 -416.038)" fill="#b9acac"/>
      <g id="Grupo_944999" data-name="Grupo 944999" transform="translate(57.474 31.374)">
        <path id="Trazado_683610" data-name="Trazado 683610" d="M388.439,328.022H386.6v1.585h1.842a.792.792,0,0,0,0-1.585Z" transform="translate(-386.597 -324.747)" fill="#ef4424"/>
        <path id="Trazado_683611" data-name="Trazado 683611" d="M389.232,359.823a.792.792,0,0,0-.792-.792H386.6v1.584h1.842A.792.792,0,0,0,389.232,359.823Z" transform="translate(-386.597 -352.48)" fill="#ef4424"/>
        <path id="Trazado_683612" data-name="Trazado 683612" d="M389.232,390.832a.792.792,0,0,0-.792-.792H386.6v1.584h1.842A.792.792,0,0,0,389.232,390.832Z" transform="translate(-386.597 -380.214)" fill="#ef4424"/>
        <path id="Trazado_683613" data-name="Trazado 683613" d="M388.439,297.014H386.6V298.6h1.842a.792.792,0,1,0,0-1.584Z" transform="translate(-386.597 -297.014)" fill="#ef4424"/>
      </g>
    </g>
  </g>
</svg>
