<svg xmlns="http://www.w3.org/2000/svg" width="334.021" height="14.583" viewBox="0 0 334.021 14.583">
  <g id="Grupo_983773" data-name="Grupo 983773" transform="translate(-370 -9459.417)">
    <path id="Trazado_725445" data-name="Trazado 725445" d="M7.985,10.179H3.346l-.562,3.752h5.47L8.018,15.51H.57L2.345,3.659H9.735L9.5,5.246H4.078l-.5,3.345H8.23Zm7.049-1.693L14.2,8.453a1.885,1.885,0,0,0-.989.256,2.175,2.175,0,0,0-.72.72l-.912,6.08H9.6L10.916,6.7h1.807l-.057,1.245a3.391,3.391,0,0,1,1.009-1.038,2.306,2.306,0,0,1,1.27-.37,1.863,1.863,0,0,1,.33.028,2.025,2.025,0,0,1,.281.069Zm5.852,0-.838-.033a1.885,1.885,0,0,0-.989.256,2.175,2.175,0,0,0-.72.72l-.912,6.08H15.449L16.768,6.7h1.807l-.057,1.245a3.391,3.391,0,0,1,1.009-1.038,2.306,2.306,0,0,1,1.27-.37,1.863,1.863,0,0,1,.33.028,2.025,2.025,0,0,1,.281.069Zm.562,2.54A5.539,5.539,0,0,1,23,7.761,4.318,4.318,0,0,1,26.145,6.54a3.181,3.181,0,0,1,2.743,1.27,4.216,4.216,0,0,1,.643,3.215l-.024.171a5.606,5.606,0,0,1-1.563,3.272,4.331,4.331,0,0,1-3.15,1.213,3.185,3.185,0,0,1-2.743-1.266,4.17,4.17,0,0,1-.627-3.219ZM23.4,11.2a3.624,3.624,0,0,0,.179,2.12,1.458,1.458,0,0,0,1.449.785,2.035,2.035,0,0,0,1.652-.822,4.319,4.319,0,0,0,.855-2.084l.024-.171a3.55,3.55,0,0,0-.2-2.1,1.473,1.473,0,0,0-1.453-.794,2.017,2.017,0,0,0-1.648.83,4.251,4.251,0,0,0-.834,2.067Zm12.616-2.71-.838-.033a1.885,1.885,0,0,0-.989.256,2.175,2.175,0,0,0-.72.72l-.912,6.08H30.581L31.9,6.7h1.807l-.057,1.245a3.391,3.391,0,0,1,1.009-1.038,2.306,2.306,0,0,1,1.27-.37,1.863,1.863,0,0,1,.33.028,2.025,2.025,0,0,1,.281.069Zm9.873,7.024a5.624,5.624,0,0,1-.077-.639,4.685,4.685,0,0,1,0-.647,4.3,4.3,0,0,1-1.225,1.038,3.06,3.06,0,0,1-1.551.419,2.556,2.556,0,0,1-1.982-.716,2.226,2.226,0,0,1-.468-1.937,2.728,2.728,0,0,1,1.3-2.015,5.547,5.547,0,0,1,2.959-.688h1.538l.114-.773a1.284,1.284,0,0,0-.236-1.095,1.438,1.438,0,0,0-1.115-.378,1.892,1.892,0,0,0-1.115.326,1.173,1.173,0,0,0-.529.83l-1.9.008-.016-.049a2.6,2.6,0,0,1,1.2-1.868,4.526,4.526,0,0,1,2.7-.785,3.306,3.306,0,0,1,2.34.79,2.393,2.393,0,0,1,.639,2.238l-.594,3.915a7.514,7.514,0,0,0-.081,1.058,5.273,5.273,0,0,0,.09.969Zm-2.206-1.416a2.746,2.746,0,0,0,1.384-.383,2.393,2.393,0,0,0,.936-.863l.2-1.286H44.63a2.252,2.252,0,0,0-1.4.431,1.56,1.56,0,0,0-.659,1,.893.893,0,0,0,.2.81A1.237,1.237,0,0,0,43.686,14.094ZM58,11.4a5.8,5.8,0,0,1-1.367,3.142,3.534,3.534,0,0,1-2.71,1.14,2.514,2.514,0,0,1-1.367-.354,2.37,2.37,0,0,1-.879-1.03l-.423,1.213h-1.6l1.9-12.7h1.978L52.794,7.7A3.484,3.484,0,0,1,53.9,6.842a3.1,3.1,0,0,1,1.376-.3,2.481,2.481,0,0,1,2.324,1.3,5.232,5.232,0,0,1,.427,3.39Zm-1.953-.171a4.363,4.363,0,0,0-.138-2.247,1.34,1.34,0,0,0-1.376-.822,2.138,2.138,0,0,0-1.131.3,2.681,2.681,0,0,0-.847.83l-.545,3.663a1.605,1.605,0,0,0,.582.826,1.814,1.814,0,0,0,1.078.289,1.924,1.924,0,0,0,1.575-.728,4,4,0,0,0,.777-1.941ZM64.417,13.1a.8.8,0,0,0-.273-.757,3.466,3.466,0,0,0-1.388-.529,5.172,5.172,0,0,1-2.247-.936,1.711,1.711,0,0,1-.594-1.66,2.782,2.782,0,0,1,1.2-1.913,4.241,4.241,0,0,1,2.58-.765,3.4,3.4,0,0,1,2.4.814A2.04,2.04,0,0,1,66.778,9.3l-.016.049h-1.9a1.1,1.1,0,0,0-.289-.944,1.417,1.417,0,0,0-1.078-.383,1.821,1.821,0,0,0-1.123.33,1.186,1.186,0,0,0-.5.794.743.743,0,0,0,.248.724,3.5,3.5,0,0,0,1.38.472A5.121,5.121,0,0,1,65.8,11.3a1.77,1.77,0,0,1,.582,1.689,2.744,2.744,0,0,1-1.245,1.966,4.7,4.7,0,0,1-2.694.728,3.473,3.473,0,0,1-2.548-.891,2.155,2.155,0,0,1-.7-2.006l.016-.049h1.848a1.148,1.148,0,0,0,.4,1.115,2,2,0,0,0,1.221.35,2.18,2.18,0,0,0,1.2-.305A1.1,1.1,0,0,0,64.417,13.1Zm3.655-2.076a5.539,5.539,0,0,1,1.551-3.264A4.318,4.318,0,0,1,72.768,6.54a3.181,3.181,0,0,1,2.743,1.27,4.216,4.216,0,0,1,.643,3.215l-.024.171a5.606,5.606,0,0,1-1.563,3.272,4.331,4.331,0,0,1-3.15,1.213,3.185,3.185,0,0,1-2.743-1.266,4.17,4.17,0,0,1-.627-3.219Zm1.953.171a3.624,3.624,0,0,0,.179,2.12,1.458,1.458,0,0,0,1.449.785,2.035,2.035,0,0,0,1.652-.822A4.319,4.319,0,0,0,74.16,11.2l.024-.171a3.55,3.55,0,0,0-.2-2.1,1.473,1.473,0,0,0-1.453-.794,2.017,2.017,0,0,0-1.648.83,4.251,4.251,0,0,0-.834,2.067Zm9.287,4.314H77.335l1.9-12.7h1.978Zm7.887,0,.016-1.262a3.555,3.555,0,0,1-1.2,1.066,3.236,3.236,0,0,1-1.538.366,2.371,2.371,0,0,1-2.051-.94,3.9,3.9,0,0,1-.391-2.885L82.8,6.7h1.97L84,11.872a2.791,2.791,0,0,0,.1,1.754,1.2,1.2,0,0,0,1.083.444A2.661,2.661,0,0,0,86.4,13.8a2.422,2.422,0,0,0,.887-.773L88.242,6.7h1.978L88.9,15.51ZM95.144,4.563,94.818,6.7H96.4l-.22,1.465H94.6l-.724,4.867a.932.932,0,0,0,.106.79.781.781,0,0,0,.6.22,1.84,1.84,0,0,0,.317-.028,2.148,2.148,0,0,0,.309-.077L95.2,15.388a2.534,2.534,0,0,1-.627.216,3.461,3.461,0,0,1-.733.077,1.967,1.967,0,0,1-1.6-.647,2.474,2.474,0,0,1-.338-2l.724-4.867H91.286l.22-1.465h1.343l.326-2.141Zm1.84,6.463a5.539,5.539,0,0,1,1.551-3.264A4.318,4.318,0,0,1,101.68,6.54a3.181,3.181,0,0,1,2.743,1.27,4.216,4.216,0,0,1,.643,3.215l-.024.171a5.606,5.606,0,0,1-1.563,3.272,4.331,4.331,0,0,1-3.15,1.213,3.185,3.185,0,0,1-2.743-1.266,4.17,4.17,0,0,1-.627-3.219Zm1.953.171a3.624,3.624,0,0,0,.179,2.12,1.458,1.458,0,0,0,1.449.785,2.035,2.035,0,0,0,1.652-.822,4.319,4.319,0,0,0,.855-2.084l.024-.171a3.55,3.55,0,0,0-.2-2.1,1.473,1.473,0,0,0-1.453-.794,2.017,2.017,0,0,0-1.648.83,4.251,4.251,0,0,0-.834,2.067Z" transform="translate(369.43 9457.118)" fill="#12263f"/>
    <path id="Trazado_725446" data-name="Trazado 725446" d="M7.985,10.145H3.346L2.784,13.9h5.47l-.236,1.579H.57L2.345,3.625H9.735L9.5,5.212H4.078l-.5,3.345H8.23Z" transform="translate(507.527 9457.151)" fill="#12263f"/>
    <path id="Trazado_725447" data-name="Trazado 725447" d="M6.021,11.27h-4.8l.244-1.6h4.8Zm9.385,1.262.033.708.049.008.269-.716L18.377,6.7H20.42L15.976,15.51H14.258L12.435,6.7h2.043ZM25.532,15.51a5.625,5.625,0,0,1-.077-.639,4.685,4.685,0,0,1,0-.647,4.3,4.3,0,0,1-1.225,1.038,3.06,3.06,0,0,1-1.551.419,2.556,2.556,0,0,1-1.982-.716,2.226,2.226,0,0,1-.468-1.937,2.728,2.728,0,0,1,1.3-2.015,5.547,5.547,0,0,1,2.959-.688h1.538l.114-.773a1.284,1.284,0,0,0-.236-1.095,1.438,1.438,0,0,0-1.115-.378,1.892,1.892,0,0,0-1.115.326,1.173,1.173,0,0,0-.529.83l-1.9.008-.016-.049a2.6,2.6,0,0,1,1.2-1.868,4.526,4.526,0,0,1,2.7-.785,3.306,3.306,0,0,1,2.34.79,2.393,2.393,0,0,1,.639,2.238l-.594,3.915a7.514,7.514,0,0,0-.081,1.058,5.274,5.274,0,0,0,.09.969Zm-2.206-1.416a2.746,2.746,0,0,0,1.384-.383,2.393,2.393,0,0,0,.936-.863l.2-1.286H24.27a2.252,2.252,0,0,0-1.4.431,1.56,1.56,0,0,0-.659,1,.893.893,0,0,0,.2.81A1.237,1.237,0,0,0,23.326,14.094ZM31.4,15.51H29.422l1.9-12.7H33.3Zm2.523-4.485a5.539,5.539,0,0,1,1.551-3.264A4.318,4.318,0,0,1,38.62,6.54a3.181,3.181,0,0,1,2.743,1.27,4.216,4.216,0,0,1,.643,3.215l-.024.171a5.606,5.606,0,0,1-1.563,3.272,4.331,4.331,0,0,1-3.15,1.213,3.185,3.185,0,0,1-2.743-1.266A4.17,4.17,0,0,1,33.9,11.2Zm1.953.171a3.624,3.624,0,0,0,.179,2.12A1.458,1.458,0,0,0,37.5,14.1a2.035,2.035,0,0,0,1.652-.822,4.319,4.319,0,0,0,.855-2.084l.024-.171a3.55,3.55,0,0,0-.2-2.1,1.473,1.473,0,0,0-1.453-.794,2.017,2.017,0,0,0-1.648.83,4.251,4.251,0,0,0-.834,2.067Zm12.616-2.71-.838-.033a1.885,1.885,0,0,0-.989.256,2.175,2.175,0,0,0-.72.72l-.912,6.08H43.056L44.375,6.7h1.807l-.057,1.245a3.391,3.391,0,0,1,1.009-1.038,2.306,2.306,0,0,1,1.27-.37,1.863,1.863,0,0,1,.33.028,2.025,2.025,0,0,1,.281.069Zm8.074,4.045.033.708.049.008.269-.716L59.539,6.7h2.043L57.138,15.51H55.42L53.6,6.7H55.64Zm8.547,3.15a3.312,3.312,0,0,1-2.8-1.229,3.966,3.966,0,0,1-.651-3.142l.049-.326a5.474,5.474,0,0,1,1.563-3.231,4.131,4.131,0,0,1,3-1.213,2.827,2.827,0,0,1,2.483,1.107,3.907,3.907,0,0,1,.513,2.914l-.155,1.066H63.6a2.768,2.768,0,0,0,.334,1.811,1.7,1.7,0,0,0,1.53.663,4.764,4.764,0,0,0,1.416-.2,4.675,4.675,0,0,0,1.188-.558l.448,1.294a5.036,5.036,0,0,1-1.445.741A5.989,5.989,0,0,1,65.114,15.681Zm.92-7.554a1.778,1.778,0,0,0-1.294.562,3.267,3.267,0,0,0-.814,1.441l.016.049h3.427l.024-.155a2.027,2.027,0,0,0-.187-1.388A1.271,1.271,0,0,0,66.034,8.128Zm9.531.358-.838-.033a1.885,1.885,0,0,0-.989.256,2.175,2.175,0,0,0-.72.72l-.912,6.08H70.128L71.447,6.7h1.807L73.2,7.949a3.391,3.391,0,0,1,1.009-1.038,2.306,2.306,0,0,1,1.27-.37,1.863,1.863,0,0,1,.33.028,2.025,2.025,0,0,1,.281.069Zm.537,2.743a6.642,6.642,0,0,1,1.408-3.435A3.459,3.459,0,0,1,80.246,6.54a2.371,2.371,0,0,1,1.221.305,2.467,2.467,0,0,1,.863.867l.741-4.9h1.978l-1.9,12.7h-1.6L81.475,14.4a3.7,3.7,0,0,1-1.172.956,3.144,3.144,0,0,1-1.441.33,2.549,2.549,0,0,1-2.312-1.192,4.409,4.409,0,0,1-.472-3.089Zm1.953.171a3.253,3.253,0,0,0,.167,1.966,1.412,1.412,0,0,0,1.388.7,2.153,2.153,0,0,0,1.083-.273,2.611,2.611,0,0,0,.838-.777l.578-3.826a1.676,1.676,0,0,0-.6-.761,1.734,1.734,0,0,0-1-.273,1.909,1.909,0,0,0-1.6.863,4.868,4.868,0,0,0-.826,2.206Zm12.519,4.11a5.624,5.624,0,0,1-.077-.639,4.684,4.684,0,0,1,0-.647,4.3,4.3,0,0,1-1.225,1.038,3.06,3.06,0,0,1-1.551.419,2.556,2.556,0,0,1-1.982-.716,2.226,2.226,0,0,1-.468-1.937,2.728,2.728,0,0,1,1.3-2.015,5.547,5.547,0,0,1,2.959-.688h1.538l.114-.773a1.284,1.284,0,0,0-.236-1.095,1.438,1.438,0,0,0-1.115-.378,1.892,1.892,0,0,0-1.115.326,1.173,1.173,0,0,0-.529.83l-1.9.008-.016-.049a2.6,2.6,0,0,1,1.2-1.868,4.526,4.526,0,0,1,2.7-.785,3.306,3.306,0,0,1,2.34.79,2.393,2.393,0,0,1,.639,2.238l-.594,3.915a7.513,7.513,0,0,0-.081,1.058,5.273,5.273,0,0,0,.09.969Zm-2.206-1.416a2.746,2.746,0,0,0,1.384-.383,2.393,2.393,0,0,0,.936-.863l.2-1.286H89.313a2.252,2.252,0,0,0-1.4.431,1.56,1.56,0,0,0-.659,1,.893.893,0,0,0,.2.81A1.237,1.237,0,0,0,88.369,14.094Zm6.243-2.865A6.642,6.642,0,0,1,96.02,7.794,3.459,3.459,0,0,1,98.755,6.54a2.371,2.371,0,0,1,1.221.305,2.467,2.467,0,0,1,.863.867l.741-4.9h1.978l-1.9,12.7h-1.6L99.984,14.4a3.7,3.7,0,0,1-1.172.956,3.144,3.144,0,0,1-1.441.33,2.549,2.549,0,0,1-2.312-1.192,4.409,4.409,0,0,1-.472-3.089Zm1.953.171a3.253,3.253,0,0,0,.167,1.966,1.412,1.412,0,0,0,1.388.7A2.154,2.154,0,0,0,99.2,13.8a2.611,2.611,0,0,0,.838-.777l.578-3.826a1.676,1.676,0,0,0-.6-.761,1.734,1.734,0,0,0-1-.273,1.909,1.909,0,0,0-1.6.863,4.868,4.868,0,0,0-.826,2.206Zm10.923,4.281a3.312,3.312,0,0,1-2.8-1.229,3.966,3.966,0,0,1-.651-3.142l.049-.326a5.474,5.474,0,0,1,1.563-3.231,4.131,4.131,0,0,1,3-1.213,2.827,2.827,0,0,1,2.483,1.107,3.907,3.907,0,0,1,.513,2.914l-.155,1.066h-5.51a2.768,2.768,0,0,0,.334,1.811,1.7,1.7,0,0,0,1.53.663,4.765,4.765,0,0,0,1.416-.2,4.675,4.675,0,0,0,1.188-.558l.448,1.294a5.035,5.035,0,0,1-1.445.741A5.989,5.989,0,0,1,107.489,15.681Zm.92-7.554a1.778,1.778,0,0,0-1.294.562,3.267,3.267,0,0,0-.814,1.441l.016.049h3.427l.024-.155a2.027,2.027,0,0,0-.187-1.388A1.271,1.271,0,0,0,108.409,8.128Zm9.531.358-.838-.033a1.885,1.885,0,0,0-.989.256,2.175,2.175,0,0,0-.72.72l-.912,6.08H112.5L113.821,6.7h1.807l-.057,1.245a3.391,3.391,0,0,1,1.009-1.038,2.306,2.306,0,0,1,1.27-.37,1.863,1.863,0,0,1,.33.028,2.024,2.024,0,0,1,.281.069Zm.562,2.54a5.539,5.539,0,0,1,1.551-3.264A4.318,4.318,0,0,1,123.2,6.54a3.181,3.181,0,0,1,2.743,1.27,4.216,4.216,0,0,1,.643,3.215l-.024.171A5.606,5.606,0,0,1,125,14.468a4.331,4.331,0,0,1-3.15,1.213,3.185,3.185,0,0,1-2.743-1.266,4.17,4.17,0,0,1-.627-3.219Zm1.953.171a3.624,3.624,0,0,0,.179,2.12,1.458,1.458,0,0,0,1.449.785,2.035,2.035,0,0,0,1.652-.822,4.319,4.319,0,0,0,.855-2.084l.024-.171a3.55,3.55,0,0,0-.2-2.1,1.473,1.473,0,0,0-1.453-.794,2.017,2.017,0,0,0-1.648.83,4.251,4.251,0,0,0-.834,2.067Z" transform="translate(577.37 9457.118)" fill="#12263f"/>
    <path id="Trazado_725448" data-name="Trazado 725448" d="M8.475,8.894H1.458L1.7,7.25H8.719Zm-.521,3.451H.937l.244-1.636H8.2Z" transform="translate(480.925 9457.304)" fill="#12263f"/>
    <path id="Trazado_725449" data-name="Trazado 725449" d="M8.475,8.894H1.458L1.7,7.25H8.719Zm-.521,3.451H.937l.244-1.636H8.2Z" transform="translate(534.06 9457.304)" fill="#12263f"/>
    <path id="Trazado_725452" data-name="Trazado 725452" d="M5.273,9.727l2.953-4.1h2.328L6.266,11.352,8.75,17H6.609L4.891,12.836,1.859,17H-.477l4.383-5.82L1.477,5.625H3.6Z" transform="translate(559.867 9457)" fill="#12263f"/>
    <path id="Trazado_721367" data-name="Trazado 721367" d="M17861.629-5005.639h-8.822v-1.042h8.822Z" transform="translate(-17290.578 14466.098)" fill="#12263f"/>
  </g>
</svg>
