<svg xmlns="http://www.w3.org/2000/svg" width="376.766" height="46.847" viewBox="0 0 376.766 46.847">
  <g id="Grupo_983774" data-name="Grupo 983774" transform="translate(-871.305 -9487.318)">
    <path id="Trazado_725453" data-name="Trazado 725453" d="M7.648,11.922H3.117l-.609,3.5H7.8L7.531,17H.3L2.273,5.625h7.18L9.172,7.219H3.93l-.547,3.141H7.922Z" transform="translate(1001.5 9500)" fill="#12263f"/>
    <path id="Trazado_725454" data-name="Trazado 725454" d="M5.273,9.727l2.953-4.1h2.328L6.266,11.352,8.75,17H6.609L4.891,12.836,1.859,17H-.477l4.383-5.82L1.477,5.625H3.6ZM18.852,17H17.008l1.578-9.094-2.875.953L16,7.18l4.5-1.594h.281Zm7.633.156a2.72,2.72,0,0,1-2.234-1.02,4.363,4.363,0,0,1-.734-2.77,10.777,10.777,0,0,1,.078-1.156l.3-2.031a6.729,6.729,0,0,1,1.477-3.57A3.564,3.564,0,0,1,28.2,5.469a2.746,2.746,0,0,1,2.23,1,4.264,4.264,0,0,1,.738,2.75,10.6,10.6,0,0,1-.078,1.156l-.3,1.977A7.069,7.069,0,0,1,29.309,16,3.511,3.511,0,0,1,26.484,17.156Zm2.8-7.086q.1-.891.1-1.266-.039-1.766-1.289-1.82a1.753,1.753,0,0,0-1.531.7,4.994,4.994,0,0,0-.812,2.336L25.4,12.492a10.172,10.172,0,0,0-.086,1.273q0,1.828,1.281,1.883,1.766.1,2.273-2.758Zm6.094,7.086a2.72,2.72,0,0,1-2.234-1.02,4.363,4.363,0,0,1-.734-2.77,10.776,10.776,0,0,1,.078-1.156l.3-2.031a6.729,6.729,0,0,1,1.477-3.57A3.564,3.564,0,0,1,37.1,5.469a2.746,2.746,0,0,1,2.23,1,4.264,4.264,0,0,1,.738,2.75,10.6,10.6,0,0,1-.078,1.156l-.3,1.977A7.069,7.069,0,0,1,38.207,16,3.511,3.511,0,0,1,35.383,17.156Zm2.8-7.086q.1-.891.1-1.266Q38.25,7.039,37,6.984a1.753,1.753,0,0,0-1.531.7,4.994,4.994,0,0,0-.812,2.336L34.3,12.492a10.173,10.173,0,0,0-.086,1.273q0,1.828,1.281,1.883,1.766.1,2.273-2.758Z" transform="translate(1208 9500.465)" fill="#12263f"/>
    <path id="Trazado_725455" data-name="Trazado 725455" d="M5.5,9.836l-.664-.07A2.42,2.42,0,0,0,2.7,10.992L1.656,17H.242L1.711,8.547l1.367-.008-.211.984A2.527,2.527,0,0,1,4.984,8.375a2.594,2.594,0,0,1,.672.117Z" transform="translate(1014.5 9506)" fill="#12263f"/>
    <path id="Trazado_725456" data-name="Trazado 725456" d="M7.648,11.922H3.117l-.609,3.5H7.8L7.531,17H.3L2.273,5.625h7.18L9.172,7.219H3.93l-.547,3.141H7.922Zm6.859-1.641a3.411,3.411,0,0,0-.727-.078,2.168,2.168,0,0,0-1.937,1.008L10.828,17H8.977l1.461-8.453L12.2,8.539l-.187.961a2.419,2.419,0,0,1,2-1.125,3.039,3.039,0,0,1,.711.117Zm5.531,0a3.411,3.411,0,0,0-.727-.078,2.168,2.168,0,0,0-1.937,1.008L16.359,17H14.508l1.461-8.453,1.758-.008-.187.961a2.419,2.419,0,0,1,2-1.125,3.039,3.039,0,0,1,.711.117Zm.164,2.461a5.562,5.562,0,0,1,.73-2.258,4.335,4.335,0,0,1,1.535-1.57,3.794,3.794,0,0,1,2.078-.523,3.139,3.139,0,0,1,3.027,2.117,4.887,4.887,0,0,1,.254,2.172,5.665,5.665,0,0,1-.73,2.375,4.318,4.318,0,0,1-1.547,1.582,3.848,3.848,0,0,1-2.09.52,3.136,3.136,0,0,1-3.016-2.105,4.824,4.824,0,0,1-.266-2.145Zm1.82,1.07a2.232,2.232,0,0,0,.434,1.316,1.387,1.387,0,0,0,1.1.52,1.948,1.948,0,0,0,1.6-.734,3.863,3.863,0,0,0,.809-2.07l.047-.766a2.7,2.7,0,0,0-.4-1.57,1.4,1.4,0,0,0-1.156-.6,2.024,2.024,0,0,0-1.875,1.164,4.349,4.349,0,0,0-.523,1.672A6.541,6.541,0,0,0,22.023,13.813ZM34.2,10.281a3.411,3.411,0,0,0-.727-.078,2.168,2.168,0,0,0-1.937,1.008L30.523,17H28.672l1.461-8.453,1.758-.008L31.7,9.5a2.419,2.419,0,0,1,2-1.125,3.039,3.039,0,0,1,.711.117ZM43.172,17a2.507,2.507,0,0,1-.078-.789,3.134,3.134,0,0,1-2.258.945,2.589,2.589,0,0,1-1.824-.707,2.18,2.18,0,0,1-.676-1.754,2.588,2.588,0,0,1,1.156-2.1,5.034,5.034,0,0,1,2.938-.766l1.2.016.109-.578a1.744,1.744,0,0,0,0-.57,1.017,1.017,0,0,0-1.117-.867,1.685,1.685,0,0,0-1.043.3,1.3,1.3,0,0,0-.551.848l-1.852.016a2.318,2.318,0,0,1,.555-1.371A3.289,3.289,0,0,1,41.063,8.7a4.5,4.5,0,0,1,1.75-.312,2.956,2.956,0,0,1,2.156.832,2.466,2.466,0,0,1,.641,2.074l-.648,3.961-.062.7a2.5,2.5,0,0,0,.117.9L45.008,17Zm-1.906-1.359a2.041,2.041,0,0,0,1.086-.27,2.861,2.861,0,0,0,.852-.738l.289-1.6-.883-.008a3.1,3.1,0,0,0-1.672.395,1.447,1.447,0,0,0-.711,1.082.957.957,0,0,0,.23.824A1.127,1.127,0,0,0,41.266,15.641Zm13.289-2.828a6.878,6.878,0,0,1-.691,2.332,3.826,3.826,0,0,1-1.328,1.543,3.133,3.133,0,0,1-1.785.477,2.485,2.485,0,0,1-2.133-1.086l-.3.922h-1.7L48.7,5h1.859l-.844,4.367a2.872,2.872,0,0,1,2.242-.977,2.4,2.4,0,0,1,1.918.9,3.878,3.878,0,0,1,.73,2.375A10.892,10.892,0,0,1,54.555,12.813Zm-1.781-1.047a2.218,2.218,0,0,0-.352-1.332,1.22,1.22,0,0,0-1.016-.5,2.178,2.178,0,0,0-1.891,1.078l-.609,3.5a1.475,1.475,0,0,0,1.477,1.1,1.841,1.841,0,0,0,1.543-.719A4.075,4.075,0,0,0,52.7,12.8Q52.766,12.141,52.773,11.766Zm7.719,2.891q.133-.773-1-1.074a12.763,12.763,0,0,1-1.551-.48,2.138,2.138,0,0,1-1.555-2.094,2.378,2.378,0,0,1,1.035-1.887,3.794,3.794,0,0,1,2.387-.73A3.266,3.266,0,0,1,62,9.148a2.417,2.417,0,0,1,.832,1.945l-1.836-.008a1.185,1.185,0,0,0-.32-.918,1.307,1.307,0,0,0-.922-.348,1.817,1.817,0,0,0-1.059.3,1.135,1.135,0,0,0-.512.8q-.109.711,1,.988a10.976,10.976,0,0,1,1.641.512,2.14,2.14,0,0,1,1.492,2.125,2.336,2.336,0,0,1-.527,1.4,3.077,3.077,0,0,1-1.309.914,4.477,4.477,0,0,1-1.742.293,3.437,3.437,0,0,1-2.293-.8,2.512,2.512,0,0,1-.895-2.023l1.789.008a1.361,1.361,0,0,0,.406,1.031,1.57,1.57,0,0,0,1.07.359,2.126,2.126,0,0,0,1.145-.285A1.094,1.094,0,0,0,60.492,14.656Zm3.477-1.914a5.562,5.562,0,0,1,.73-2.258,4.335,4.335,0,0,1,1.535-1.57,3.794,3.794,0,0,1,2.078-.523,3.139,3.139,0,0,1,3.027,2.117,4.887,4.887,0,0,1,.254,2.172,5.665,5.665,0,0,1-.73,2.375,4.319,4.319,0,0,1-1.547,1.582,3.848,3.848,0,0,1-2.09.52,3.136,3.136,0,0,1-3.016-2.105,4.824,4.824,0,0,1-.266-2.145Zm1.82,1.07a2.232,2.232,0,0,0,.434,1.316,1.387,1.387,0,0,0,1.1.52,1.948,1.948,0,0,0,1.6-.734,3.863,3.863,0,0,0,.809-2.07l.047-.766a2.7,2.7,0,0,0-.4-1.57,1.4,1.4,0,0,0-1.156-.6,2.024,2.024,0,0,0-1.875,1.164,4.349,4.349,0,0,0-.523,1.672A6.541,6.541,0,0,0,65.789,13.813ZM74.406,17H72.555L74.641,5h1.852Zm7.3-.836a3.066,3.066,0,0,1-2.406.992,2.355,2.355,0,0,1-1.363-.406,2.113,2.113,0,0,1-.773-1.09,3.99,3.99,0,0,1-.137-1.645l.914-5.469h1.852l-.922,5.492a2.911,2.911,0,0,0-.008.563.95.95,0,0,0,.977,1.008,2.236,2.236,0,0,0,1.984-.984l1.063-6.078h1.852L83.273,17H81.539Zm7.625-9.672-.359,2.055h1.445l-.242,1.406H88.719l-.8,4.734a1.619,1.619,0,0,0-.008.352q.047.508.625.531a3.529,3.529,0,0,0,.656-.07l-.125,1.484a4.245,4.245,0,0,1-1.164.164,1.729,1.729,0,0,1-1.449-.66,2.389,2.389,0,0,1-.379-1.707l.789-4.828H85.516l.25-1.406h1.344l.359-2.055Zm1.3,6.25a5.562,5.562,0,0,1,.73-2.258A4.335,4.335,0,0,1,92.9,8.914a3.794,3.794,0,0,1,2.078-.523A3.139,3.139,0,0,1,98,10.508a4.887,4.887,0,0,1,.254,2.172,5.665,5.665,0,0,1-.73,2.375,4.319,4.319,0,0,1-1.547,1.582,3.848,3.848,0,0,1-2.09.52,3.136,3.136,0,0,1-3.016-2.105,4.824,4.824,0,0,1-.266-2.145Zm1.82,1.07a2.232,2.232,0,0,0,.434,1.316,1.387,1.387,0,0,0,1.1.52,1.948,1.948,0,0,0,1.6-.734,3.863,3.863,0,0,0,.809-2.07l.047-.766a2.7,2.7,0,0,0-.4-1.57,1.4,1.4,0,0,0-1.156-.6,2.024,2.024,0,0,0-1.875,1.164,4.349,4.349,0,0,0-.523,1.672A6.541,6.541,0,0,0,92.453,13.813Z" transform="translate(871 9499.465)" fill="#12263f"/>
    <path id="Trazado_725457" data-name="Trazado 725457" d="M4.414,12.93H.422L.7,11.4H4.688ZM12.57,14.57l2.672-6.023h1.977L13.055,17H11.445L9.9,8.547h1.859ZM21.906,17a2.507,2.507,0,0,1-.078-.789,3.134,3.134,0,0,1-2.258.945,2.589,2.589,0,0,1-1.824-.707A2.18,2.18,0,0,1,17.07,14.7a2.588,2.588,0,0,1,1.156-2.1,5.034,5.034,0,0,1,2.938-.766l1.2.016.109-.578a1.744,1.744,0,0,0,0-.57,1.017,1.017,0,0,0-1.117-.867,1.685,1.685,0,0,0-1.043.3,1.3,1.3,0,0,0-.551.848l-1.852.016a2.318,2.318,0,0,1,.555-1.371A3.289,3.289,0,0,1,19.8,8.7a4.5,4.5,0,0,1,1.75-.312,2.956,2.956,0,0,1,2.156.832,2.466,2.466,0,0,1,.641,2.074L23.7,15.258l-.062.7a2.5,2.5,0,0,0,.117.9L23.742,17ZM20,15.641a2.041,2.041,0,0,0,1.086-.27,2.861,2.861,0,0,0,.852-.738l.289-1.6-.883-.008a3.1,3.1,0,0,0-1.672.395,1.447,1.447,0,0,0-.711,1.082.957.957,0,0,0,.23.824A1.127,1.127,0,0,0,20,15.641ZM27.328,17H25.477L27.563,5h1.852Zm2.516-4.258a5.562,5.562,0,0,1,.73-2.258,4.335,4.335,0,0,1,1.535-1.57,3.794,3.794,0,0,1,2.078-.523,3.139,3.139,0,0,1,3.027,2.117,4.887,4.887,0,0,1,.254,2.172,5.665,5.665,0,0,1-.73,2.375,4.318,4.318,0,0,1-1.547,1.582,3.848,3.848,0,0,1-2.09.52,3.136,3.136,0,0,1-3.016-2.105,4.824,4.824,0,0,1-.266-2.145Zm1.82,1.07a2.232,2.232,0,0,0,.434,1.316,1.387,1.387,0,0,0,1.1.52,1.948,1.948,0,0,0,1.6-.734,3.863,3.863,0,0,0,.809-2.07l.047-.766a2.7,2.7,0,0,0-.4-1.57,1.4,1.4,0,0,0-1.156-.6,2.024,2.024,0,0,0-1.875,1.164,4.349,4.349,0,0,0-.523,1.672A6.541,6.541,0,0,0,31.664,13.813Zm12.18-3.531a3.411,3.411,0,0,0-.727-.078,2.168,2.168,0,0,0-1.937,1.008L40.164,17H38.313l1.461-8.453,1.758-.008-.187.961a2.419,2.419,0,0,1,2-1.125,3.039,3.039,0,0,1,.711.117Zm7.273,4.289,2.672-6.023h1.977L51.6,17H49.992L48.445,8.547H50.3Zm8.258,2.586a3.541,3.541,0,0,1-1.91-.555,3.156,3.156,0,0,1-1.2-1.453,4.32,4.32,0,0,1-.293-2.055l.023-.32a5.657,5.657,0,0,1,.754-2.316A4.3,4.3,0,0,1,58.281,8.9a3.713,3.713,0,0,1,1.984-.508,2.769,2.769,0,0,1,2.379,1.182,4.337,4.337,0,0,1,.6,3l-.109.814h-5.32A2.3,2.3,0,0,0,58.219,15a1.61,1.61,0,0,0,1.313.631,2.847,2.847,0,0,0,2.2-1.039l.938.984a3.563,3.563,0,0,1-1.4,1.176A4.166,4.166,0,0,1,59.375,17.156Zm.789-7.25q-1.469-.047-2.2,2.078l3.508.008.031-.164a2.451,2.451,0,0,0,.008-.7,1.438,1.438,0,0,0-.437-.875A1.385,1.385,0,0,0,60.164,9.906Zm9.32.375a3.411,3.411,0,0,0-.727-.078,2.168,2.168,0,0,0-1.937,1.008L65.8,17H63.953l1.461-8.453,1.758-.008-.187.961a2.419,2.419,0,0,1,2-1.125,3.039,3.039,0,0,1,.711.117Zm.406,2.484a6.7,6.7,0,0,1,.7-2.344,3.968,3.968,0,0,1,1.352-1.551,3.121,3.121,0,0,1,1.789-.488,2.5,2.5,0,0,1,2.016.961L76.563,5h1.859L76.336,17H74.68l.125-.875a2.946,2.946,0,0,1-2.312,1.039,2.325,2.325,0,0,1-1.887-.91,3.975,3.975,0,0,1-.762-2.379,6.316,6.316,0,0,1,.023-.945Zm1.8.727a2.6,2.6,0,0,0,.3,1.539,1.2,1.2,0,0,0,1.059.586A2.175,2.175,0,0,0,74.9,14.578l.633-3.633a1.445,1.445,0,0,0-1.422-1.008,1.9,1.9,0,0,0-1.711.938A5,5,0,0,0,71.688,13.492ZM83.344,17a2.507,2.507,0,0,1-.078-.789,3.134,3.134,0,0,1-2.258.945,2.589,2.589,0,0,1-1.824-.707,2.18,2.18,0,0,1-.676-1.754,2.588,2.588,0,0,1,1.156-2.1,5.034,5.034,0,0,1,2.938-.766l1.2.016.109-.578a1.744,1.744,0,0,0,0-.57A1.017,1.017,0,0,0,82.8,9.828a1.685,1.685,0,0,0-1.043.3,1.3,1.3,0,0,0-.551.848l-1.852.016a2.318,2.318,0,0,1,.555-1.371A3.289,3.289,0,0,1,81.234,8.7a4.5,4.5,0,0,1,1.75-.312,2.956,2.956,0,0,1,2.156.832,2.466,2.466,0,0,1,.641,2.074l-.648,3.961-.062.7a2.5,2.5,0,0,0,.117.9L85.18,17Zm-1.906-1.359a2.041,2.041,0,0,0,1.086-.27,2.861,2.861,0,0,0,.852-.738l.289-1.6-.883-.008a3.1,3.1,0,0,0-1.672.395A1.447,1.447,0,0,0,80.4,14.5a.957.957,0,0,0,.23.824A1.127,1.127,0,0,0,81.438,15.641ZM87.2,12.766a6.7,6.7,0,0,1,.7-2.344,3.968,3.968,0,0,1,1.352-1.551,3.121,3.121,0,0,1,1.789-.488,2.5,2.5,0,0,1,2.016.961L93.875,5h1.859L93.648,17H91.992l.125-.875A2.946,2.946,0,0,1,89.8,17.164a2.325,2.325,0,0,1-1.887-.91,3.975,3.975,0,0,1-.762-2.379,6.316,6.316,0,0,1,.023-.945Zm1.8.727a2.6,2.6,0,0,0,.3,1.539,1.2,1.2,0,0,0,1.059.586,2.175,2.175,0,0,0,1.852-1.039l.633-3.633a1.445,1.445,0,0,0-1.422-1.008,1.9,1.9,0,0,0-1.711.938A5,5,0,0,0,89,13.492Zm10.461,3.664a3.541,3.541,0,0,1-1.91-.555,3.156,3.156,0,0,1-1.2-1.453,4.32,4.32,0,0,1-.293-2.055l.023-.32a5.657,5.657,0,0,1,.754-2.316A4.3,4.3,0,0,1,98.367,8.9a3.713,3.713,0,0,1,1.984-.508,2.769,2.769,0,0,1,2.379,1.182,4.337,4.337,0,0,1,.6,3l-.109.814H97.9A2.3,2.3,0,0,0,98.3,15a1.61,1.61,0,0,0,1.313.631,2.847,2.847,0,0,0,2.2-1.039l.938.984a3.563,3.563,0,0,1-1.4,1.176A4.166,4.166,0,0,1,99.461,17.156Zm.789-7.25q-1.469-.047-2.2,2.078l3.508.008.031-.164a2.451,2.451,0,0,0,.008-.7,1.437,1.437,0,0,0-.437-.875A1.385,1.385,0,0,0,100.25,9.906Zm9.32.375a3.411,3.411,0,0,0-.727-.078,2.168,2.168,0,0,0-1.937,1.008L105.891,17h-1.852L105.5,8.547l1.758-.008-.187.961a2.419,2.419,0,0,1,2-1.125,3.039,3.039,0,0,1,.711.117Zm.164,2.461a5.562,5.562,0,0,1,.73-2.258A4.335,4.335,0,0,1,112,8.914a3.794,3.794,0,0,1,2.078-.523,3.139,3.139,0,0,1,3.027,2.117,4.887,4.887,0,0,1,.254,2.172,5.665,5.665,0,0,1-.73,2.375,4.319,4.319,0,0,1-1.547,1.582,3.848,3.848,0,0,1-2.09.52,3.136,3.136,0,0,1-3.016-2.105,4.824,4.824,0,0,1-.266-2.145Zm1.82,1.07a2.232,2.232,0,0,0,.434,1.316,1.387,1.387,0,0,0,1.1.52,1.948,1.948,0,0,0,1.6-.734,3.863,3.863,0,0,0,.809-2.07l.047-.766a2.7,2.7,0,0,0-.4-1.57,1.4,1.4,0,0,0-1.156-.6,2.024,2.024,0,0,0-1.875,1.164,4.349,4.349,0,0,0-.523,1.672A6.541,6.541,0,0,0,111.555,13.813Z" transform="translate(1078.5 9485)" fill="#12263f"/>
    <path id="Trazado_725458" data-name="Trazado 725458" d="M3.453,14.57,6.125,8.547H8.1L3.938,17H2.328L.781,8.547H2.641ZM12.789,17a2.507,2.507,0,0,1-.078-.789,3.134,3.134,0,0,1-2.258.945,2.589,2.589,0,0,1-1.824-.707A2.18,2.18,0,0,1,7.953,14.7a2.588,2.588,0,0,1,1.156-2.1,5.034,5.034,0,0,1,2.938-.766l1.2.016.109-.578a1.744,1.744,0,0,0,0-.57,1.017,1.017,0,0,0-1.117-.867,1.685,1.685,0,0,0-1.043.3,1.3,1.3,0,0,0-.551.848L8.8,10.992a2.318,2.318,0,0,1,.555-1.371A3.289,3.289,0,0,1,10.68,8.7a4.5,4.5,0,0,1,1.75-.312,2.956,2.956,0,0,1,2.156.832,2.466,2.466,0,0,1,.641,2.074l-.648,3.961-.062.7a2.5,2.5,0,0,0,.117.9L14.625,17Zm-1.906-1.359a2.041,2.041,0,0,0,1.086-.27,2.861,2.861,0,0,0,.852-.738l.289-1.6-.883-.008a3.1,3.1,0,0,0-1.672.395A1.447,1.447,0,0,0,9.844,14.5a.957.957,0,0,0,.23.824A1.127,1.127,0,0,0,10.883,15.641ZM18.211,17H16.359L18.445,5H20.3Zm2.516-4.258a5.562,5.562,0,0,1,.73-2.258,4.335,4.335,0,0,1,1.535-1.57,3.794,3.794,0,0,1,2.078-.523A3.139,3.139,0,0,1,28.1,10.508a4.887,4.887,0,0,1,.254,2.172,5.665,5.665,0,0,1-.73,2.375,4.318,4.318,0,0,1-1.547,1.582,3.848,3.848,0,0,1-2.09.52,3.136,3.136,0,0,1-3.016-2.105,4.824,4.824,0,0,1-.266-2.145Zm1.82,1.07a2.232,2.232,0,0,0,.434,1.316,1.387,1.387,0,0,0,1.1.52,1.948,1.948,0,0,0,1.6-.734,3.863,3.863,0,0,0,.809-2.07l.047-.766a2.7,2.7,0,0,0-.4-1.57,1.4,1.4,0,0,0-1.156-.6A2.024,2.024,0,0,0,23.1,11.07a4.349,4.349,0,0,0-.523,1.672A6.541,6.541,0,0,0,22.547,13.813Zm12.18-3.531A3.411,3.411,0,0,0,34,10.2a2.168,2.168,0,0,0-1.937,1.008L31.047,17H29.2l1.461-8.453,1.758-.008-.187.961a2.419,2.419,0,0,1,2-1.125,3.039,3.039,0,0,1,.711.117ZM42,14.57l2.672-6.023h1.977L42.484,17H40.875L39.328,8.547h1.859Zm8.258,2.586a3.541,3.541,0,0,1-1.91-.555,3.156,3.156,0,0,1-1.2-1.453,4.32,4.32,0,0,1-.293-2.055l.023-.32a5.657,5.657,0,0,1,.754-2.316A4.3,4.3,0,0,1,49.164,8.9a3.713,3.713,0,0,1,1.984-.508,2.769,2.769,0,0,1,2.379,1.182,4.337,4.337,0,0,1,.6,3l-.109.814H48.7A2.3,2.3,0,0,0,49.1,15a1.61,1.61,0,0,0,1.313.631,2.847,2.847,0,0,0,2.2-1.039l.938.984a3.563,3.563,0,0,1-1.4,1.176A4.166,4.166,0,0,1,50.258,17.156Zm.789-7.25q-1.469-.047-2.2,2.078l3.508.008.031-.164a2.451,2.451,0,0,0,.008-.7,1.438,1.438,0,0,0-.437-.875A1.385,1.385,0,0,0,51.047,9.906Zm9.32.375a3.411,3.411,0,0,0-.727-.078A2.168,2.168,0,0,0,57.7,11.211L56.688,17H54.836L56.3,8.547l1.758-.008-.187.961a2.419,2.419,0,0,1,2-1.125,3.039,3.039,0,0,1,.711.117Zm.406,2.484a6.7,6.7,0,0,1,.7-2.344,3.968,3.968,0,0,1,1.352-1.551,3.121,3.121,0,0,1,1.789-.488,2.5,2.5,0,0,1,2.016.961L67.445,5H69.3L67.219,17H65.563l.125-.875a2.946,2.946,0,0,1-2.312,1.039,2.325,2.325,0,0,1-1.887-.91,3.975,3.975,0,0,1-.762-2.379,6.316,6.316,0,0,1,.023-.945Zm1.8.727a2.6,2.6,0,0,0,.3,1.539,1.2,1.2,0,0,0,1.059.586,2.175,2.175,0,0,0,1.852-1.039l.633-3.633a1.445,1.445,0,0,0-1.422-1.008,1.9,1.9,0,0,0-1.711.938A5,5,0,0,0,62.57,13.492ZM74.227,17a2.507,2.507,0,0,1-.078-.789,3.134,3.134,0,0,1-2.258.945,2.589,2.589,0,0,1-1.824-.707,2.18,2.18,0,0,1-.676-1.754,2.588,2.588,0,0,1,1.156-2.1,5.034,5.034,0,0,1,2.938-.766l1.2.016.109-.578a1.744,1.744,0,0,0,0-.57,1.017,1.017,0,0,0-1.117-.867,1.685,1.685,0,0,0-1.043.3,1.3,1.3,0,0,0-.551.848l-1.852.016a2.318,2.318,0,0,1,.555-1.371A3.289,3.289,0,0,1,72.117,8.7a4.5,4.5,0,0,1,1.75-.312,2.956,2.956,0,0,1,2.156.832,2.466,2.466,0,0,1,.641,2.074l-.648,3.961-.062.7a2.5,2.5,0,0,0,.117.9L76.063,17ZM72.32,15.641a2.041,2.041,0,0,0,1.086-.27,2.861,2.861,0,0,0,.852-.738l.289-1.6-.883-.008a3.1,3.1,0,0,0-1.672.395,1.447,1.447,0,0,0-.711,1.082.957.957,0,0,0,.23.824A1.127,1.127,0,0,0,72.32,15.641Zm5.766-2.875a6.7,6.7,0,0,1,.7-2.344,3.968,3.968,0,0,1,1.352-1.551,3.121,3.121,0,0,1,1.789-.488,2.5,2.5,0,0,1,2.016.961L84.758,5h1.859L84.531,17H82.875L83,16.125a2.946,2.946,0,0,1-2.312,1.039,2.325,2.325,0,0,1-1.887-.91,3.975,3.975,0,0,1-.762-2.379,6.316,6.316,0,0,1,.023-.945Zm1.8.727a2.6,2.6,0,0,0,.3,1.539,1.2,1.2,0,0,0,1.059.586,2.175,2.175,0,0,0,1.852-1.039l.633-3.633A1.445,1.445,0,0,0,82.3,9.938a1.9,1.9,0,0,0-1.711.938A5,5,0,0,0,79.883,13.492Zm10.461,3.664a3.541,3.541,0,0,1-1.91-.555,3.156,3.156,0,0,1-1.2-1.453,4.32,4.32,0,0,1-.293-2.055l.023-.32a5.657,5.657,0,0,1,.754-2.316A4.3,4.3,0,0,1,89.25,8.9a3.713,3.713,0,0,1,1.984-.508,2.769,2.769,0,0,1,2.379,1.182,4.337,4.337,0,0,1,.6,3l-.109.814h-5.32A2.3,2.3,0,0,0,89.188,15a1.61,1.61,0,0,0,1.313.631,2.847,2.847,0,0,0,2.2-1.039l.938.984a3.563,3.563,0,0,1-1.4,1.176A4.166,4.166,0,0,1,90.344,17.156Zm.789-7.25q-1.469-.047-2.2,2.078l3.508.008.031-.164a2.451,2.451,0,0,0,.008-.7,1.437,1.437,0,0,0-.437-.875A1.385,1.385,0,0,0,91.133,9.906Zm9.32.375a3.411,3.411,0,0,0-.727-.078,2.168,2.168,0,0,0-1.937,1.008L96.773,17H94.922l1.461-8.453,1.758-.008-.187.961a2.419,2.419,0,0,1,2-1.125,3.039,3.039,0,0,1,.711.117Zm.164,2.461a5.562,5.562,0,0,1,.73-2.258,4.335,4.335,0,0,1,1.535-1.57,3.794,3.794,0,0,1,2.078-.523,3.139,3.139,0,0,1,3.027,2.117,4.887,4.887,0,0,1,.254,2.172,5.665,5.665,0,0,1-.73,2.375,4.319,4.319,0,0,1-1.547,1.582,3.848,3.848,0,0,1-2.09.52,3.136,3.136,0,0,1-3.016-2.105,4.824,4.824,0,0,1-.266-2.145Zm1.82,1.07a2.232,2.232,0,0,0,.434,1.316,1.387,1.387,0,0,0,1.1.52,1.948,1.948,0,0,0,1.6-.734,3.863,3.863,0,0,0,.809-2.07l.047-.766a2.7,2.7,0,0,0-.4-1.57,1.4,1.4,0,0,0-1.156-.6,2.024,2.024,0,0,0-1.875,1.164,4.349,4.349,0,0,0-.523,1.672A6.541,6.541,0,0,0,102.438,13.813Z" transform="translate(1081 9517)" fill="#12263f"/>
    <path id="Trazado_725459" data-name="Trazado 725459" d="M7.883,10.906H1.336l.281-1.578H8.156ZM7.3,14.219H.766l.273-1.57H7.586Z" transform="translate(976 9499.465)" fill="#12263f"/>
    <path id="Trazado_725460" data-name="Trazado 725460" d="M7.883,10.906H1.336l.281-1.578H8.156ZM7.3,14.219H.766l.273-1.57H7.586Z" transform="translate(1027 9499.465)" fill="#12263f"/>
    <path id="Trazado_725461" data-name="Trazado 725461" d="M5.273,9.727l2.953-4.1h2.328L6.266,11.352,8.75,17H6.609L4.891,12.836,1.859,17H-.477l4.383-5.82L1.477,5.625H3.6Z" transform="translate(1059.5 9485)" fill="#12263f"/>
    <path id="Trazado_721367" data-name="Trazado 721367" d="M17861.275-5005.681h-8.469v-1h8.469Z" transform="translate(-16791.041 14494)" fill="#12263f"/>
    <path id="Trazado_721369" data-name="Trazado 721369" d="M17968.369-4923H17814.5v-1h153.873Z" transform="translate(-16764.498 14434)" fill="#12263f"/>
  </g>
</svg>
