<svg xmlns="http://www.w3.org/2000/svg" width="189" height="56" viewBox="0 0 189 56">
  <g id="Grupo_983786" data-name="Grupo 983786" transform="translate(-706 -9852)">
    <path id="Trazado_725559" data-name="Trazado 725559" d="M0,0H189V56H0Z" transform="translate(706 9852)" fill="#badc61"/>
    <path id="Trazado_725560" data-name="Trazado 725560" d="M2.508,15.422H7.523L7.242,17H.3L2.281,5.625h1.93Zm15.3-2.133a4.418,4.418,0,0,1-1.6,2.84,4.794,4.794,0,0,1-3.2,1.027,3.775,3.775,0,0,1-1.9-.516,3.335,3.335,0,0,1-1.277-1.434,5.35,5.35,0,0,1-.516-2.129,11.519,11.519,0,0,1,.219-2.426A7.662,7.662,0,0,1,10.551,7.9,5.158,5.158,0,0,1,12.4,6.063a4.721,4.721,0,0,1,2.441-.594,3.633,3.633,0,0,1,2.684,1.066,4.185,4.185,0,0,1,1.051,2.855H16.664a2.8,2.8,0,0,0-.512-1.762,1.824,1.824,0,0,0-1.4-.566,2.64,2.64,0,0,0-2.133.913,5.344,5.344,0,0,0-1.156,2.771L11.3,11.785l-.07.8a4.711,4.711,0,0,0,.113,1.51,1.97,1.97,0,0,0,.621,1.077,1.812,1.812,0,0,0,1.133.394A2.605,2.605,0,0,0,15.9,13.3Z" transform="translate(750 9869)" fill="#12263f"/>
    <path id="Trazado_725561" data-name="Trazado 725561" d="M5.438,9.977h2.6l-.25,1.555H5.2l-.477,3.031H3.07l.477-3.031H.836l.25-1.555h2.7L4.25,7.031H5.9Zm1.219,7.016H.211l.242-1.531H6.9Zm8.125-1.508h4.3L18.813,17H12.148l.234-1.336,5.063-5.586H13.422L13.7,8.547h6.43L19.9,9.836Zm14.57-.828q.133-.773-1-1.074A12.763,12.763,0,0,1,26.8,13.1a2.138,2.138,0,0,1-1.555-2.094,2.378,2.378,0,0,1,1.035-1.887,3.794,3.794,0,0,1,2.387-.73,3.266,3.266,0,0,1,2.191.758,2.417,2.417,0,0,1,.832,1.945l-1.836-.008a1.185,1.185,0,0,0-.32-.918,1.307,1.307,0,0,0-.922-.348,1.817,1.817,0,0,0-1.059.3,1.135,1.135,0,0,0-.512.8q-.109.711,1,.988a10.976,10.976,0,0,1,1.641.512,2.14,2.14,0,0,1,1.492,2.125,2.336,2.336,0,0,1-.527,1.4,3.077,3.077,0,0,1-1.309.914,4.477,4.477,0,0,1-1.742.293,3.437,3.437,0,0,1-2.293-.8,2.512,2.512,0,0,1-.895-2.023l1.789.008a1.361,1.361,0,0,0,.406,1.031,1.57,1.57,0,0,0,1.07.359,2.126,2.126,0,0,0,1.145-.285A1.094,1.094,0,0,0,29.352,14.656Z" transform="translate(813 9870)" fill="#12263f"/>
    <path id="Trazado_725562" data-name="Trazado 725562" d="M7.883,10.906H1.336l.281-1.578H8.156ZM7.3,14.219H.766l.273-1.57H7.586Z" transform="translate(776.5 9869)" fill="#12263f"/>
    <g id="Grupo_948214" data-name="Grupo 948214" transform="translate(-30 2020)">
      <text id="X" transform="translate(824 7850)" fill="#12263f" font-size="16" font-family="Roboto-MediumItalic, Roboto" font-weight="500" font-style="italic"><tspan x="0" y="17">X</tspan></text>
      <path id="Trazado_721367" data-name="Trazado 721367" d="M17852.807-5006.181h8.469" transform="translate(-17026.541 12859)" fill="none" stroke="#000" stroke-width="1"/>
    </g>
  </g>
</svg>
