<svg xmlns="http://www.w3.org/2000/svg" width="189" height="56" viewBox="0 0 189 56">
  <g id="Grupo_983788" data-name="Grupo 983788" transform="translate(-496 -11470)">
    <path id="Trazado_725565" data-name="Trazado 725565" d="M0,0H189V56H0Z" transform="translate(496 11470)" fill="#badc61"/>
    <path id="Trazado_725566" data-name="Trazado 725566" d="M20.09,13.781,22.5,8.547h2.453l-4.945,9.727a4.231,4.231,0,0,1-1.246,1.641,2.723,2.723,0,0,1-1.652.523,5.035,5.035,0,0,1-1.062-.164l.164-1.719.3.016a1.651,1.651,0,0,0,1.578-.789l.484-.9L17.2,8.547H19.48ZM36.3,11.172H29.512l.328-1.844h6.789Zm-.586,3.383H28.926l.328-1.844h6.789ZM42.168,17a2.281,2.281,0,0,1-.086-.766,2.863,2.863,0,0,1-2.156.922,2.594,2.594,0,0,1-1.84-.723,2.186,2.186,0,0,1-.684-1.746,2.527,2.527,0,0,1,1.16-2.121,5.266,5.266,0,0,1,2.965-.738l1.031.016.109-.508a1.764,1.764,0,0,0,.023-.492.846.846,0,0,0-.277-.574.955.955,0,0,0-.629-.215,1.345,1.345,0,0,0-.875.254,1.231,1.231,0,0,0-.461.777l-2.211.008a2.457,2.457,0,0,1,1.113-1.965,4.312,4.312,0,0,1,2.613-.738,3.117,3.117,0,0,1,2.25.855,2.5,2.5,0,0,1,.68,2.121l-.648,4.047-.039.5a2.412,2.412,0,0,0,.133.938L44.332,17Zm-1.7-1.555a2.017,2.017,0,0,0,1.664-.828l.273-1.461-.766-.008a2.139,2.139,0,0,0-1.758.742,1.292,1.292,0,0,0-.242.633.75.75,0,0,0,.176.668A.891.891,0,0,0,40.473,15.445Zm10.742-4.812h2.734l-.359,2.039H50.863l-.555,3.188h-2.1l.555-3.187h-2.75l.359-2.039h2.742l.531-3.055h2.1ZM62.348,12.8A6.061,6.061,0,0,1,61.129,16a3.033,3.033,0,0,1-2.547,1.164,2.357,2.357,0,0,1-2.031-1.078L56.23,17H54.223L56.3,5h2.211L57.66,9.32a2.634,2.634,0,0,1,2.063-.93,2.385,2.385,0,0,1,1.926.879,3.89,3.89,0,0,1,.746,2.387A9.132,9.132,0,0,1,62.348,12.8Zm-2.187-.165a6.554,6.554,0,0,0,.047-1.034q-.086-1.364-1.125-1.387a1.833,1.833,0,0,0-1.617.885l-.609,3.37a1.258,1.258,0,0,0,1.266.878q1.625.047,1.992-2.367Zm4.055-1.039a1.161,1.161,0,0,1,.336-.883,1.238,1.238,0,0,1,.883-.375,1.207,1.207,0,0,1,.879.32,1.157,1.157,0,0,1,.387.859,1.172,1.172,0,0,1-.34.879,1.187,1.187,0,0,1-.895.371,1.207,1.207,0,0,1-.867-.309A1.142,1.142,0,0,1,64.215,11.594ZM77.2,13.2a4.254,4.254,0,0,1-.8,2.09,4.375,4.375,0,0,1-1.75,1.4,5.329,5.329,0,0,1-2.328.465,3.936,3.936,0,0,1-1.961-.52A3.443,3.443,0,0,1,69.039,15.2a5.312,5.312,0,0,1-.543-2.168,10.634,10.634,0,0,1,.2-2.391A7.578,7.578,0,0,1,69.6,8.1a5.666,5.666,0,0,1,1.551-1.758,4.679,4.679,0,0,1,2.891-.875,3.839,3.839,0,0,1,2.8,1.09A4.384,4.384,0,0,1,77.98,9.5L75.7,9.492a2.391,2.391,0,0,0-.43-1.578,1.753,1.753,0,0,0-1.336-.531,2.319,2.319,0,0,0-1.926.836A5.027,5.027,0,0,0,71,10.773a14.155,14.155,0,0,0-.219,2.445,2.434,2.434,0,0,0,.461,1.52,1.543,1.543,0,0,0,1.18.512,2.356,2.356,0,0,0,1.676-.5,2.625,2.625,0,0,0,.832-1.535Zm7.648,1.453H80.879L79.707,17H77.184L83.262,5.625h2.117L87.543,17H85.207Zm-3.031-1.9h2.742l-.641-4.234Z" transform="translate(538 11488)" fill="#12263f"/>
  </g>
</svg>
