<svg xmlns="http://www.w3.org/2000/svg" width="401" height="56" viewBox="0 0 401 56">
  <g id="Grupo_983787" data-name="Grupo 983787" transform="translate(-181 -10861)">
    <path id="Trazado_725563" data-name="Trazado 725563" d="M0,0H401V56H0Z" transform="translate(181 10861)" fill="#badc61"/>
    <path id="Trazado_725564" data-name="Trazado 725564" d="M2.781,15.117H7.609L7.281,17H.164L2.141,5.625H4.43ZM17.922,13.2a4.254,4.254,0,0,1-.8,2.09,4.375,4.375,0,0,1-1.75,1.4,5.329,5.329,0,0,1-2.328.465,3.936,3.936,0,0,1-1.961-.52A3.443,3.443,0,0,1,9.762,15.2a5.312,5.312,0,0,1-.543-2.168,10.634,10.634,0,0,1,.2-2.391A7.578,7.578,0,0,1,10.324,8.1a5.666,5.666,0,0,1,1.551-1.758,4.679,4.679,0,0,1,2.891-.875,3.839,3.839,0,0,1,2.8,1.09A4.384,4.384,0,0,1,18.7,9.5l-2.281-.008a2.391,2.391,0,0,0-.43-1.578,1.752,1.752,0,0,0-1.336-.531,2.319,2.319,0,0,0-1.926.836,5.027,5.027,0,0,0-1.012,2.555,14.155,14.155,0,0,0-.219,2.445,2.434,2.434,0,0,0,.461,1.52,1.543,1.543,0,0,0,1.18.512,2.356,2.356,0,0,0,1.676-.5,2.625,2.625,0,0,0,.832-1.535Zm8.8-2.031H19.938l.328-1.844h6.789Zm-.586,3.383H19.352l.328-1.844h6.789ZM36.93,9.531l2.68-3.906h2.75l-4.18,5.75L40.539,17H38.008l-1.492-3.969L33.773,17H30.992l4.273-5.844L32.977,5.625h2.5Zm14.133.109h2.492l-.3,1.883H50.773l-.445,2.844H48.391l.445-2.844H46.3l.3-1.883h2.539l.422-2.68h1.93Zm1.125,7.352H45.625l.289-1.836h6.563Zm8.578-1.828,3.984.016L64.43,17h-6.82l.258-1.492,4.711-5.117-3.711-.016.32-1.828h6.586l-.25,1.445Zm10-.547q.125-.625-.867-.906l-.711-.18q-2.523-.7-2.453-2.453a2.428,2.428,0,0,1,1.059-1.949,3.942,3.942,0,0,1,2.457-.738,3.536,3.536,0,0,1,2.313.758,2.5,2.5,0,0,1,.9,1.977l-2.187-.008a.963.963,0,0,0-1.078-1.1,1.552,1.552,0,0,0-.895.258,1.061,1.061,0,0,0-.465.7q-.117.625.945.883l.313.07a6.285,6.285,0,0,1,1.648.59,2.488,2.488,0,0,1,.879.824,2.04,2.04,0,0,1,.285,1.18,2.251,2.251,0,0,1-.52,1.406,3.18,3.18,0,0,1-1.359.93,4.736,4.736,0,0,1-1.816.3,3.568,3.568,0,0,1-2.344-.809,2.607,2.607,0,0,1-.953-2.051l2.078.016a1.142,1.142,0,0,0,1.3,1.227,1.845,1.845,0,0,0,1-.25A.987.987,0,0,0,70.766,14.617Zm15.086-3.445H79.063l.328-1.844H86.18Zm-.586,3.383H78.477l.328-1.844h6.789ZM98.336,17H90.758l.258-1.641,4.039-3.789A8.947,8.947,0,0,0,96.7,9.68a2.214,2.214,0,0,0,.3-1.422,1.061,1.061,0,0,0-1.117-.992,1.6,1.6,0,0,0-1.254.523A2.453,2.453,0,0,0,94.023,9.2l-2.2.008a3.889,3.889,0,0,1,2.152-3.277,4.405,4.405,0,0,1,2.051-.473,3.5,3.5,0,0,1,2.469.891,2.756,2.756,0,0,1,.781,2.289A5.546,5.546,0,0,1,97.375,12L96.25,13.07l-2.328,2.094,4.7.016Zm4.7-6.687,1.055.008a2.055,2.055,0,0,0,1.348-.445,1.737,1.737,0,0,0,.629-1.2,1.261,1.261,0,0,0-.242-1.012,1.23,1.23,0,0,0-.961-.395,1.642,1.642,0,0,0-1.1.348,1.494,1.494,0,0,0-.559.941l-2.2.016a2.952,2.952,0,0,1,1.184-2.254,4.165,4.165,0,0,1,2.707-.863,3.716,3.716,0,0,1,2.547.9,2.739,2.739,0,0,1,.852,2.3,3.078,3.078,0,0,1-2.07,2.547,2.381,2.381,0,0,1,1.121,1.043,2.826,2.826,0,0,1,.309,1.5,3.267,3.267,0,0,1-.633,1.813,3.7,3.7,0,0,1-1.547,1.2,4.962,4.962,0,0,1-2.094.395,3.557,3.557,0,0,1-2.484-.91,3.03,3.03,0,0,1-.945-2.363h2.188a1.412,1.412,0,0,0,.355,1.035,1.385,1.385,0,0,0,1.035.418,1.933,1.933,0,0,0,1.313-.435,1.761,1.761,0,0,0,.641-1.179,1.428,1.428,0,0,0-.277-1.2,1.553,1.553,0,0,0-1.152-.439l-1.3-.008Zm12.859,2.406h1.25l-.32,1.82h-1.25L115.141,17h-2.2l.43-2.461h-4.516L109.008,13l5.8-7.375h2.3ZM111.3,12.7l2.391.016.773-4.047-.2.281Zm6.648,7.148-1.164-.633.57-.914a4.9,4.9,0,0,0,.641-1.57l.289-1.656h1.859l-.227,1.438A5.172,5.172,0,0,1,117.945,19.852Zm4.828-8.477,1.531-5.75h6.219l-.3,1.883h-4.367l-.75,2.461a3.016,3.016,0,0,1,1.641-.437,2.693,2.693,0,0,1,2.262,1.035,3.855,3.855,0,0,1,.676,2.73,4.423,4.423,0,0,1-.66,2.023,3.852,3.852,0,0,1-1.488,1.383,4.108,4.108,0,0,1-2.031.461,3.613,3.613,0,0,1-1.746-.441,3.12,3.12,0,0,1-1.223-1.2,3.409,3.409,0,0,1-.445-1.7h2.164a1.7,1.7,0,0,0,.383,1.09,1.259,1.259,0,0,0,.953.41,1.545,1.545,0,0,0,1.285-.57,2.845,2.845,0,0,0,.605-1.594,2.02,2.02,0,0,0-.27-1.406,1.3,1.3,0,0,0-1.105-.531,2.195,2.195,0,0,0-1.531.609Zm17.281-1.734h2.492l-.3,1.883h-2.484l-.445,2.844h-1.937l.445-2.844h-2.539l.3-1.883h2.539l.422-2.68h1.93Zm1.125,7.352h-6.562l.289-1.836h6.563Zm6.633-4.586a13.2,13.2,0,0,1,1.668-4.988,7.175,7.175,0,0,1,3.246-3.066l.375,1.258q-2.672,2.039-3.383,6.555a19.378,19.378,0,0,0-.258,2.75q-.039,3.211,1.469,4.461l-.492,1.18a5.13,5.13,0,0,1-2.359-3.242,10.87,10.87,0,0,1-.4-3.312,13.121,13.121,0,0,1,.1-1.406ZM157.648,17h-2.2l1.5-8.656-2.766.836.344-1.93,4.75-1.641.289-.008Zm3.961,2.852-1.164-.633.57-.914a4.9,4.9,0,0,0,.641-1.57l.289-1.656H163.8l-.227,1.438A5.172,5.172,0,0,1,161.609,19.852ZM172.977,5.5,172.8,7.367l-.43.008a4.28,4.28,0,0,0-3.867,2.953A3.049,3.049,0,0,1,170.8,9.4a2.518,2.518,0,0,1,1.559.516,2.868,2.868,0,0,1,.934,1.367A4.677,4.677,0,0,1,173.5,13.2a4.54,4.54,0,0,1-.668,2.043,4.039,4.039,0,0,1-1.5,1.438,3.915,3.915,0,0,1-2.008.488,3.276,3.276,0,0,1-1.918-.629,3.391,3.391,0,0,1-1.168-1.637,5.156,5.156,0,0,1-.242-2.266l.086-.7a7.646,7.646,0,0,1,2.152-4.684A6.109,6.109,0,0,1,172.68,5.5Zm-2.93,5.7a1.734,1.734,0,0,0-1.023.282,2.541,2.541,0,0,0-.75.759l-.1.7a5.964,5.964,0,0,0-.031.767,2.062,2.062,0,0,0,.336,1.182,1.069,1.069,0,0,0,.906.454,1.5,1.5,0,0,0,1.055-.376,2.33,2.33,0,0,0,.7-1.072,3.145,3.145,0,0,0,.148-1.37,1.68,1.68,0,0,0-.395-.967A1.117,1.117,0,0,0,170.047,11.2Zm11.344,1.523h1.25l-.32,1.82h-1.25L180.641,17h-2.2l.43-2.461h-4.516L174.508,13l5.8-7.375h2.3ZM176.8,12.7l2.391.016.773-4.047-.2.281Zm5.969,7.875-.375-1.234q2.68-2.07,3.383-6.625a19.275,19.275,0,0,0,.242-2.7q.039-3.211-1.453-4.469l.492-1.18a4.565,4.565,0,0,1,1.582,1.457,6.725,6.725,0,0,1,.977,2.309,11.6,11.6,0,0,1,.3,2.781,13.865,13.865,0,0,1-.75,4.223,11.039,11.039,0,0,1-1.84,3.441A6.68,6.68,0,0,1,182.766,20.578ZM198,9.531l2.68-3.906h2.75l-4.18,5.75L201.609,17h-2.531l-1.492-3.969L194.844,17h-2.781l4.273-5.844-2.289-5.531h2.5ZM211.844,17h-2.2l1.5-8.656-2.766.836.344-1.93,4.75-1.641.289-.008Zm8.984,0h-2.2l1.5-8.656-2.766.836.344-1.93,4.75-1.641.289-.008Zm3.961,2.852-1.164-.633.57-.914a4.9,4.9,0,0,0,.641-1.57l.289-1.656h1.859l-.227,1.438A5.172,5.172,0,0,1,224.789,19.852Zm9.586-7.406a2.919,2.919,0,0,1-2.055.875,2.618,2.618,0,0,1-1.594-.5,2.88,2.88,0,0,1-.973-1.371,4.375,4.375,0,0,1-.223-1.9,4.716,4.716,0,0,1,.8-2.273,4.133,4.133,0,0,1,1.789-1.5,3.737,3.737,0,0,1,1.594-.3,2.925,2.925,0,0,1,2.242.984,4.19,4.19,0,0,1,.945,2.555,7.063,7.063,0,0,1-.023,1.1l-.086.672a7.587,7.587,0,0,1-2.121,4.656,6.149,6.149,0,0,1-4.457,1.68h-.164l.172-1.891h.117a4.212,4.212,0,0,0,2.531-.668A4.236,4.236,0,0,0,234.375,12.445ZM232.93,11.6a1.956,1.956,0,0,0,1.656-.959l.133-.944a6.307,6.307,0,0,0,.039-.741,2.247,2.247,0,0,0-.312-1.2,1,1,0,0,0-.859-.468,1.432,1.432,0,0,0-1.012.4,2.536,2.536,0,0,0-.68,1.119,3.519,3.519,0,0,0-.168,1.411,1.741,1.741,0,0,0,.371,1A1.059,1.059,0,0,0,232.93,11.6Zm16.422-.43h-6.789l.328-1.844h6.789Zm-.586,3.383h-6.789l.328-1.844h6.789ZM257.891,17h-7.578l.258-1.641,4.039-3.789a8.947,8.947,0,0,0,1.648-1.891,2.214,2.214,0,0,0,.3-1.422,1.061,1.061,0,0,0-1.117-.992,1.6,1.6,0,0,0-1.254.523,2.453,2.453,0,0,0-.613,1.414l-2.2.008a3.889,3.889,0,0,1,2.152-3.277,4.405,4.405,0,0,1,2.051-.473,3.5,3.5,0,0,1,2.469.891,2.756,2.756,0,0,1,.781,2.289A5.546,5.546,0,0,1,256.93,12L255.8,13.07l-2.328,2.094,4.7.016Zm4.7-6.687,1.055.008a2.055,2.055,0,0,0,1.348-.445,1.737,1.737,0,0,0,.629-1.2,1.261,1.261,0,0,0-.242-1.012,1.23,1.23,0,0,0-.961-.395,1.642,1.642,0,0,0-1.1.348,1.494,1.494,0,0,0-.559.941l-2.2.016a2.952,2.952,0,0,1,1.184-2.254,4.165,4.165,0,0,1,2.707-.863,3.716,3.716,0,0,1,2.547.9,2.739,2.739,0,0,1,.852,2.3,3.078,3.078,0,0,1-2.07,2.547,2.381,2.381,0,0,1,1.121,1.043,2.826,2.826,0,0,1,.309,1.5,3.267,3.267,0,0,1-.633,1.813,3.7,3.7,0,0,1-1.547,1.2,4.962,4.962,0,0,1-2.094.395,3.557,3.557,0,0,1-2.484-.91,3.03,3.03,0,0,1-.945-2.363h2.188a1.412,1.412,0,0,0,.355,1.035,1.385,1.385,0,0,0,1.035.418,1.933,1.933,0,0,0,1.313-.435,1.761,1.761,0,0,0,.641-1.179,1.428,1.428,0,0,0-.277-1.2,1.553,1.553,0,0,0-1.152-.439l-1.3-.008Zm12.859,2.406h1.25l-.32,1.82h-1.25L274.7,17h-2.2l.43-2.461h-4.516L268.563,13l5.8-7.375h2.3Zm-4.594-.016,2.391.016.773-4.047-.2.281Zm6.648,7.148-1.164-.633.57-.914a4.9,4.9,0,0,0,.641-1.57l.289-1.656H279.7l-.227,1.438A5.172,5.172,0,0,1,277.5,19.852Zm4.828-8.477,1.531-5.75h6.219l-.3,1.883h-4.367l-.75,2.461a3.016,3.016,0,0,1,1.641-.437,2.693,2.693,0,0,1,2.262,1.035,3.855,3.855,0,0,1,.676,2.73,4.423,4.423,0,0,1-.66,2.023,3.852,3.852,0,0,1-1.488,1.383,4.108,4.108,0,0,1-2.031.461,3.613,3.613,0,0,1-1.746-.441,3.12,3.12,0,0,1-1.223-1.2,3.409,3.409,0,0,1-.445-1.7h2.164a1.7,1.7,0,0,0,.383,1.09,1.259,1.259,0,0,0,.953.41,1.545,1.545,0,0,0,1.285-.57,2.845,2.845,0,0,0,.605-1.594,2.02,2.02,0,0,0-.27-1.406,1.3,1.3,0,0,0-1.105-.531,2.195,2.195,0,0,0-1.531.609Zm13.344-.742h2.734l-.359,2.039H295.32l-.555,3.188h-2.1l.555-3.187h-2.75l.359-2.039h2.742l.531-3.055h2.1ZM303.922,17h-2.2l1.5-8.656-2.766.836.344-1.93,4.75-1.641.289-.008Zm9.68-4.555a2.919,2.919,0,0,1-2.055.875,2.618,2.618,0,0,1-1.594-.5,2.88,2.88,0,0,1-.973-1.371,4.375,4.375,0,0,1-.223-1.9,4.715,4.715,0,0,1,.8-2.273,4.133,4.133,0,0,1,1.789-1.5,3.737,3.737,0,0,1,1.594-.3,2.925,2.925,0,0,1,2.242.984,4.19,4.19,0,0,1,.945,2.555,7.059,7.059,0,0,1-.023,1.1l-.086.672a7.587,7.587,0,0,1-2.121,4.656,6.149,6.149,0,0,1-4.457,1.68h-.164l.172-1.891h.117a4.212,4.212,0,0,0,2.531-.668A4.236,4.236,0,0,0,313.6,12.445Zm-1.445-.844a1.956,1.956,0,0,0,1.656-.959l.133-.944a6.31,6.31,0,0,0,.039-.741,2.247,2.247,0,0,0-.312-1.2,1,1,0,0,0-.859-.468,1.432,1.432,0,0,0-1.012.4,2.536,2.536,0,0,0-.68,1.119,3.519,3.519,0,0,0-.168,1.411,1.741,1.741,0,0,0,.371,1A1.059,1.059,0,0,0,312.156,11.6Zm4.711,8.25-1.164-.633.57-.914a4.9,4.9,0,0,0,.641-1.57l.289-1.656h1.859l-.227,1.438A5.172,5.172,0,0,1,316.867,19.852Zm4.828-8.477,1.531-5.75h6.219l-.3,1.883h-4.367l-.75,2.461a3.016,3.016,0,0,1,1.641-.437,2.693,2.693,0,0,1,2.262,1.035,3.855,3.855,0,0,1,.676,2.73,4.423,4.423,0,0,1-.66,2.023,3.852,3.852,0,0,1-1.488,1.383,4.108,4.108,0,0,1-2.031.461,3.613,3.613,0,0,1-1.746-.441,3.12,3.12,0,0,1-1.223-1.2,3.409,3.409,0,0,1-.445-1.7h2.164a1.7,1.7,0,0,0,.383,1.09,1.259,1.259,0,0,0,.953.41,1.545,1.545,0,0,0,1.285-.57,2.845,2.845,0,0,0,.605-1.594,2.02,2.02,0,0,0-.27-1.406,1.3,1.3,0,0,0-1.105-.531,2.195,2.195,0,0,0-1.531.609Z" transform="translate(213 10879)" fill="#12263f"/>
  </g>
</svg>
