<svg xmlns="http://www.w3.org/2000/svg" width="505" height="147" viewBox="0 0 505 147">
  <g id="Grupo_983781" data-name="Grupo 983781" transform="translate(-180 -7650)">
    <path id="Trazado_725529" data-name="Trazado 725529" d="M0,0H505V147H0Z" transform="translate(180 7650)" fill="#badc61"/>
    <path id="Trazado_725530" data-name="Trazado 725530" d="M.3,17,2.273,5.625l3.078.008A4.213,4.213,0,0,1,7.8,6.34,3.975,3.975,0,0,1,9.289,8.293a5.822,5.822,0,0,1,.281,2.746l-.086.617a6.82,6.82,0,0,1-1.035,2.785,5.569,5.569,0,0,1-2.066,1.887A5.839,5.839,0,0,1,3.6,17ZM3.93,7.219l-1.422,8.2,1.141.008a3.554,3.554,0,0,0,2.566-.98,4.709,4.709,0,0,0,1.309-2.707,9.127,9.127,0,0,0,.148-2.07A2.787,2.787,0,0,0,7.012,7.9a2.209,2.209,0,0,0-1.637-.672Zm10.242,9.938a3.541,3.541,0,0,1-1.91-.555,3.156,3.156,0,0,1-1.2-1.453,4.32,4.32,0,0,1-.293-2.055l.023-.32a5.657,5.657,0,0,1,.754-2.316A4.3,4.3,0,0,1,13.078,8.9a3.713,3.713,0,0,1,1.984-.508,2.769,2.769,0,0,1,2.379,1.182,4.337,4.337,0,0,1,.6,3l-.109.814h-5.32A2.3,2.3,0,0,0,13.016,15a1.61,1.61,0,0,0,1.313.631,2.847,2.847,0,0,0,2.2-1.039l.938.984a3.563,3.563,0,0,1-1.4,1.176A4.166,4.166,0,0,1,14.172,17.156Zm.789-7.25q-1.469-.047-2.2,2.078l3.508.008.031-.164a2.451,2.451,0,0,0,.008-.7,1.438,1.438,0,0,0-.437-.875A1.385,1.385,0,0,0,14.961,9.906Zm8.844,4.75q.133-.773-1-1.074a12.763,12.763,0,0,1-1.551-.48A2.138,2.138,0,0,1,19.7,11.008,2.378,2.378,0,0,1,20.73,9.121a3.794,3.794,0,0,1,2.387-.73,3.266,3.266,0,0,1,2.191.758,2.417,2.417,0,0,1,.832,1.945L24.3,11.086a1.185,1.185,0,0,0-.32-.918,1.307,1.307,0,0,0-.922-.348,1.817,1.817,0,0,0-1.059.3,1.135,1.135,0,0,0-.512.8q-.109.711,1,.988a10.976,10.976,0,0,1,1.641.512,2.14,2.14,0,0,1,1.492,2.125,2.336,2.336,0,0,1-.527,1.4,3.077,3.077,0,0,1-1.309.914,4.477,4.477,0,0,1-1.742.293,3.437,3.437,0,0,1-2.293-.8,2.512,2.512,0,0,1-.895-2.023l1.789.008a1.361,1.361,0,0,0,.406,1.031,1.57,1.57,0,0,0,1.07.359,2.126,2.126,0,0,0,1.145-.285A1.094,1.094,0,0,0,23.8,14.656Zm6.359-.086,2.672-6.023h1.977L30.648,17H29.039L27.492,8.547h1.859Zm6.4,2.43H34.711L36.18,8.547h1.852ZM36.445,6.383a1.044,1.044,0,0,1,.281-.734,1.03,1.03,0,0,1,.758-.32.985.985,0,0,1,.754.277.96.96,0,0,1,.3.715.988.988,0,0,1-.293.734,1.074,1.074,0,0,1-.746.3,1,1,0,0,1-.75-.27A.929.929,0,0,1,36.445,6.383ZM43.656,17a2.507,2.507,0,0,1-.078-.789,3.134,3.134,0,0,1-2.258.945,2.589,2.589,0,0,1-1.824-.707A2.18,2.18,0,0,1,38.82,14.7a2.588,2.588,0,0,1,1.156-2.1,5.034,5.034,0,0,1,2.938-.766l1.2.016.109-.578a1.744,1.744,0,0,0,0-.57,1.017,1.017,0,0,0-1.117-.867,1.685,1.685,0,0,0-1.043.3,1.3,1.3,0,0,0-.551.848l-1.852.016a2.318,2.318,0,0,1,.555-1.371A3.289,3.289,0,0,1,41.547,8.7a4.5,4.5,0,0,1,1.75-.312,2.956,2.956,0,0,1,2.156.832,2.466,2.466,0,0,1,.641,2.074l-.648,3.961-.062.7a2.5,2.5,0,0,0,.117.9L45.492,17ZM41.75,15.641a2.041,2.041,0,0,0,1.086-.27,2.861,2.861,0,0,0,.852-.738l.289-1.6-.883-.008a3.1,3.1,0,0,0-1.672.395,1.447,1.447,0,0,0-.711,1.082.957.957,0,0,0,.23.824A1.127,1.127,0,0,0,41.75,15.641Zm9.047.008a1.81,1.81,0,0,0,1.828-1.437l1.75-.008a2.993,2.993,0,0,1-.605,1.523,3.52,3.52,0,0,1-1.332,1.07,3.7,3.7,0,0,1-1.7.359,3.184,3.184,0,0,1-1.852-.562,3.11,3.11,0,0,1-1.117-1.512,4.836,4.836,0,0,1-.234-2.152l.023-.273a5.531,5.531,0,0,1,.715-2.223,4.173,4.173,0,0,1,1.5-1.535,3.766,3.766,0,0,1,2.047-.508,2.957,2.957,0,0,1,2.2.91,3.215,3.215,0,0,1,.82,2.285H53.109a1.889,1.889,0,0,0-.355-1.187,1.3,1.3,0,0,0-1.027-.492,1.876,1.876,0,0,0-1.711.922,5.146,5.146,0,0,0-.672,2.688Q49.289,15.617,50.8,15.648ZM57.281,17H55.43L56.9,8.547H58.75ZM57.164,6.383a1.044,1.044,0,0,1,.281-.734,1.03,1.03,0,0,1,.758-.32.985.985,0,0,1,.754.277.96.96,0,0,1,.3.715.988.988,0,0,1-.293.734,1.074,1.074,0,0,1-.746.3,1,1,0,0,1-.75-.27A.929.929,0,0,1,57.164,6.383ZM59.8,12.742a5.562,5.562,0,0,1,.73-2.258,4.335,4.335,0,0,1,1.535-1.57,3.794,3.794,0,0,1,2.078-.523,3.139,3.139,0,0,1,3.027,2.117,4.887,4.887,0,0,1,.254,2.172,5.665,5.665,0,0,1-.73,2.375,4.319,4.319,0,0,1-1.547,1.582,3.848,3.848,0,0,1-2.09.52,3.136,3.136,0,0,1-3.016-2.105,4.824,4.824,0,0,1-.266-2.145Zm1.82,1.07a2.232,2.232,0,0,0,.434,1.316,1.387,1.387,0,0,0,1.1.52,1.948,1.948,0,0,0,1.6-.734,3.863,3.863,0,0,0,.809-2.07l.047-.766a2.7,2.7,0,0,0-.4-1.57,1.4,1.4,0,0,0-1.156-.6,2.024,2.024,0,0,0-1.875,1.164,4.349,4.349,0,0,0-.523,1.672A6.541,6.541,0,0,0,61.617,13.813ZM65.227,5h2.227L64.984,7.367l-1.609,0Zm6.219,3.539-.187.992a3.226,3.226,0,0,1,2.508-1.141,2.044,2.044,0,0,1,1.758.848,3.383,3.383,0,0,1,.422,2.3L75.031,17H73.18l.922-5.484a2.806,2.806,0,0,0,.008-.625A1,1,0,0,0,73,9.938a2.25,2.25,0,0,0-1.852,1.039L70.094,17H68.242L69.7,8.547Zm12.672,0-.164.9a3.259,3.259,0,0,1,2.5-1.047,2.427,2.427,0,0,1,1.324.367,1.738,1.738,0,0,1,.715.93,3.406,3.406,0,0,1,2.688-1.3,2.195,2.195,0,0,1,1.832.848,3.235,3.235,0,0,1,.449,2.285L92.547,17H90.7l.922-5.492a2.879,2.879,0,0,0,.008-.633,1.034,1.034,0,0,0-1.156-.937A1.949,1.949,0,0,0,88.656,11.2l-.023.172L87.664,17H85.8l.922-5.469a2.806,2.806,0,0,0,.008-.625,1.043,1.043,0,0,0-1.156-.969,2.042,2.042,0,0,0-1.734.93L82.773,17H80.922l1.461-8.453Zm14.219,8.617a3.541,3.541,0,0,1-1.91-.555,3.156,3.156,0,0,1-1.2-1.453,4.32,4.32,0,0,1-.293-2.055l.023-.32a5.657,5.657,0,0,1,.754-2.316A4.3,4.3,0,0,1,97.242,8.9a3.713,3.713,0,0,1,1.984-.508,2.769,2.769,0,0,1,2.379,1.182,4.337,4.337,0,0,1,.6,3l-.109.814h-5.32A2.3,2.3,0,0,0,97.18,15a1.61,1.61,0,0,0,1.313.631,2.847,2.847,0,0,0,2.2-1.039l.938.984a3.563,3.563,0,0,1-1.4,1.176A4.166,4.166,0,0,1,98.336,17.156Zm.789-7.25q-1.469-.047-2.2,2.078l3.508.008.031-.164a2.451,2.451,0,0,0,.008-.7,1.437,1.437,0,0,0-.437-.875A1.385,1.385,0,0,0,99.125,9.906Zm4.2,2.859a6.7,6.7,0,0,1,.7-2.344,3.968,3.968,0,0,1,1.352-1.551,3.121,3.121,0,0,1,1.789-.488,2.5,2.5,0,0,1,2.016.961L109.992,5h1.859l-2.086,12h-1.656l.125-.875a2.946,2.946,0,0,1-2.312,1.039,2.325,2.325,0,0,1-1.887-.91,3.975,3.975,0,0,1-.762-2.379,6.316,6.316,0,0,1,.023-.945Zm1.8.727a2.6,2.6,0,0,0,.3,1.539,1.2,1.2,0,0,0,1.059.586,2.175,2.175,0,0,0,1.852-1.039l.633-3.633a1.445,1.445,0,0,0-1.422-1.008,1.9,1.9,0,0,0-1.711.938A5,5,0,0,0,105.117,13.492Zm8.6,3.508h-1.852l1.469-8.453h1.852ZM113.6,6.383a1.044,1.044,0,0,1,.281-.734,1.03,1.03,0,0,1,.758-.32.985.985,0,0,1,.754.277.96.96,0,0,1,.3.715.988.988,0,0,1-.293.734,1.074,1.074,0,0,1-.746.3,1,1,0,0,1-.75-.27A.929.929,0,0,1,113.6,6.383ZM120.813,17a2.507,2.507,0,0,1-.078-.789,3.134,3.134,0,0,1-2.258.945,2.589,2.589,0,0,1-1.824-.707,2.18,2.18,0,0,1-.676-1.754,2.588,2.588,0,0,1,1.156-2.1,5.034,5.034,0,0,1,2.938-.766l1.2.016.109-.578a1.744,1.744,0,0,0,0-.57,1.017,1.017,0,0,0-1.117-.867,1.685,1.685,0,0,0-1.043.3,1.3,1.3,0,0,0-.551.848l-1.852.016a2.318,2.318,0,0,1,.555-1.371A3.289,3.289,0,0,1,118.7,8.7a4.5,4.5,0,0,1,1.75-.312,2.956,2.956,0,0,1,2.156.832,2.466,2.466,0,0,1,.641,2.074l-.648,3.961-.062.7a2.5,2.5,0,0,0,.117.9l-.008.141Zm-1.906-1.359a2.041,2.041,0,0,0,1.086-.27,2.861,2.861,0,0,0,.852-.738l.289-1.6-.883-.008a3.1,3.1,0,0,0-1.672.395,1.447,1.447,0,0,0-.711,1.082.957.957,0,0,0,.23.824A1.127,1.127,0,0,0,118.906,15.641Zm17.063-4.734h-6.547l.281-1.578h6.539Zm-.578,3.313h-6.539l.273-1.57h6.547Z" transform="translate(217 7748)" fill="#12263f"/>
    <path id="Trazado_725531" data-name="Trazado 725531" d="M6.594,14.016q.172-1.125-1.227-1.672l-.633-.234a5.912,5.912,0,0,1-2.508-1.461,2.613,2.613,0,0,1-.672-1.961,2.949,2.949,0,0,1,.66-1.707A3.85,3.85,0,0,1,3.789,5.844a5.152,5.152,0,0,1,2.078-.375,4.157,4.157,0,0,1,1.891.465A3.059,3.059,0,0,1,9.023,7.16,3.4,3.4,0,0,1,9.43,8.953L7.508,8.945a1.8,1.8,0,0,0-.395-1.383,1.813,1.813,0,0,0-1.355-.516,2.524,2.524,0,0,0-1.543.43,1.719,1.719,0,0,0-.738,1.2Q3.32,9.672,4.8,10.242l.586.211a5.688,5.688,0,0,1,2.5,1.5A2.777,2.777,0,0,1,8.516,14a3.077,3.077,0,0,1-.633,1.676,3.554,3.554,0,0,1-1.535,1.105,5.583,5.583,0,0,1-2.16.375,4.494,4.494,0,0,1-2.027-.469A3.247,3.247,0,0,1,.32,13.555l1.93.008a1.811,1.811,0,0,0,.477,1.492,2.182,2.182,0,0,0,1.547.539,2.7,2.7,0,0,0,1.566-.4A1.673,1.673,0,0,0,6.594,14.016Z" transform="translate(380 7748)" fill="#12263f"/>
    <path id="Trazado_725532" data-name="Trazado 725532" d="M6.594,14.016q.172-1.125-1.227-1.672l-.633-.234a5.912,5.912,0,0,1-2.508-1.461,2.613,2.613,0,0,1-.672-1.961,2.949,2.949,0,0,1,.66-1.707A3.85,3.85,0,0,1,3.789,5.844a5.152,5.152,0,0,1,2.078-.375,4.157,4.157,0,0,1,1.891.465A3.059,3.059,0,0,1,9.023,7.16,3.4,3.4,0,0,1,9.43,8.953L7.508,8.945a1.8,1.8,0,0,0-.395-1.383,1.813,1.813,0,0,0-1.355-.516,2.524,2.524,0,0,0-1.543.43,1.719,1.719,0,0,0-.738,1.2Q3.32,9.672,4.8,10.242l.586.211a5.688,5.688,0,0,1,2.5,1.5A2.777,2.777,0,0,1,8.516,14a3.077,3.077,0,0,1-.633,1.676,3.554,3.554,0,0,1-1.535,1.105,5.583,5.583,0,0,1-2.16.375,4.494,4.494,0,0,1-2.027-.469A3.247,3.247,0,0,1,.32,13.555l1.93.008a1.811,1.811,0,0,0,.477,1.492,2.182,2.182,0,0,0,1.547.539,2.7,2.7,0,0,0,1.566-.4A1.673,1.673,0,0,0,6.594,14.016Z" transform="translate(443.5 7736)" fill="#12263f"/>
    <path id="Trazado_725533" data-name="Trazado 725533" d="M7.883,10.906H1.336l.281-1.578H8.156ZM7.3,14.219H.766l.273-1.57H7.586Z" transform="translate(409 7748)" fill="#12263f"/>
    <path id="Trazado_725534" data-name="Trazado 725534" d="M7.883,10.906H1.336l.281-1.578H8.156ZM7.3,14.219H.766l.273-1.57H7.586Z" transform="translate(481 7748)" fill="#12263f"/>
    <path id="Trazado_725535" data-name="Trazado 725535" d="M5.352,12.406H2.727L1.93,17H.453L2.43,5.625l3.422.008a3.814,3.814,0,0,1,2.727.907,2.83,2.83,0,0,1,.789,2.448,3.241,3.241,0,0,1-.777,1.885A4.247,4.247,0,0,1,6.75,12.1l1.766,4.8-.008.1H6.945ZM2.938,11.172l2.156.008a3.012,3.012,0,0,0,1.9-.6,2.326,2.326,0,0,0,.906-1.6,1.837,1.837,0,0,0-.391-1.531,2.087,2.087,0,0,0-1.547-.586L3.688,6.859Z" transform="translate(389 7756)" fill="#12263f"/>
    <path id="Trazado_725536" data-name="Trazado 725536" d="M5.273,9.727l2.953-4.1h2.328L6.266,11.352,8.75,17H6.609L4.891,12.836,1.859,17H-.477l4.383-5.82L1.477,5.625H3.6Z" transform="translate(443.5 7762)" fill="#12263f"/>
    <path id="Trazado_721367" data-name="Trazado 721367" d="M17852.807-5006.181h8.469" transform="translate(-17407.041 12771)" fill="none" stroke="#000" stroke-width="1"/>
    <path id="Trazado_721368" data-name="Trazado 721368" d="M17852.809-5006.181h24.7" transform="translate(-17414.809 12765)" fill="none" stroke="#000" stroke-width="1"/>
    <path id="Trazado_725537" data-name="Trazado 725537" d="M5.273,9.727l2.953-4.1h2.328L6.266,11.352,8.75,17H6.609L4.891,12.836,1.859,17H-.477l4.383-5.82L1.477,5.625H3.6Z" transform="translate(578.5 7763)" fill="#12263f"/>
    <path id="Trazado_721367-2" data-name="Trazado 721367" d="M17852.807-5006.181h8.469" transform="translate(-17272.041 12772)" fill="none" stroke="#000" stroke-width="1"/>
    <path id="Trazado_725538" data-name="Trazado 725538" d="M3.3,8.539l-.187.992A3.226,3.226,0,0,1,5.625,8.391a2.044,2.044,0,0,1,1.758.848,3.383,3.383,0,0,1,.422,2.3L6.891,17H5.039l.922-5.484a2.806,2.806,0,0,0,.008-.625,1,1,0,0,0-1.109-.953,2.25,2.25,0,0,0-1.852,1.039L1.953,17H.1L1.563,8.547Z" transform="translate(551 7668)" fill="#12263f"/>
    <path id="Trazado_725539" data-name="Trazado 725539" d="M6.469,8.539l-.187.992A3.226,3.226,0,0,1,8.789,8.391a2.044,2.044,0,0,1,1.758.848,3.383,3.383,0,0,1,.422,2.3L10.055,17H8.2l.922-5.484a2.806,2.806,0,0,0,.008-.625,1,1,0,0,0-1.109-.953,2.25,2.25,0,0,0-1.852,1.039L5.117,17H3.266L4.727,8.547ZM20.234,12.93H16.242l.273-1.531h3.992ZM29.945,17H28.1L29.68,7.906,26.8,8.859l.289-1.68,4.5-1.594h.281Z" transform="translate(569.275 7732.854)" fill="#12263f"/>
    <path id="Trazado_725540" data-name="Trazado 725540" d="M7.516,17H.086L.3,15.617l4.727-4.539A4.315,4.315,0,0,0,6.484,8.742,1.675,1.675,0,0,0,6.234,7.5,1.283,1.283,0,0,0,5.18,6.977a1.915,1.915,0,0,0-1.461.543A2.542,2.542,0,0,0,3,9.086l-1.844.008a3.844,3.844,0,0,1,.637-1.883,3.8,3.8,0,0,1,1.484-1.3,4.194,4.194,0,0,1,2-.441,3.358,3.358,0,0,1,2.348.859,2.644,2.644,0,0,1,.762,2.219,5.665,5.665,0,0,1-1.914,3.367l-.484.477L2.7,15.484H7.758Z" transform="translate(623.5 7666)" fill="#12263f"/>
    <path id="Trazado_725541" data-name="Trazado 725541" d="M4.6,17H2.752L4.221,8.547H6.072ZM4.486,6.383a1.044,1.044,0,0,1,.281-.734,1.03,1.03,0,0,1,.758-.32.985.985,0,0,1,.754.277.96.96,0,0,1,.3.715.988.988,0,0,1-.293.734,1.074,1.074,0,0,1-.746.3,1,1,0,0,1-.75-.27A.929.929,0,0,1,4.486,6.383Zm9.945,4.523H7.885l.281-1.578h6.539Zm-.578,3.313H7.314l.273-1.57h6.547ZM20.322,17H18.479l1.578-9.094-2.875.953.289-1.68,4.5-1.594h.281Z" transform="translate(539.139 7708)" fill="#12263f"/>
    <path id="Trazado_725542" data-name="Trazado 725542" d="M3.477,5.273H4.523V20.438H3.477Zm9.8,4.453,2.953-4.1h2.328l-4.289,5.727L16.75,17H14.609l-1.719-4.164L9.859,17H7.523l4.383-5.82L9.477,5.625H11.6ZM19.992,17H18.141l1.469-8.453h1.852ZM19.875,6.383a1.044,1.044,0,0,1,.281-.734,1.03,1.03,0,0,1,.758-.32.985.985,0,0,1,.754.277.96.96,0,0,1,.3.715.988.988,0,0,1-.293.734,1.074,1.074,0,0,1-.746.3,1,1,0,0,1-.75-.27A.929.929,0,0,1,19.875,6.383ZM30.3,12.93H26.3l.273-1.531H30.57Zm9.977-3.2,2.953-4.1h2.328l-4.289,5.727L43.75,17H41.609l-1.719-4.164L36.859,17H34.523l4.383-5.82-2.43-5.555H38.6Zm8.1-4.453h1.047V20.438H48.375Z" transform="translate(558 7683)" fill="#12263f"/>
    <path id="Trazado_721307" data-name="Trazado 721307" d="M17852.807-5006.181h8.469" transform="translate(-17250.766 12691)" fill="none" stroke="#000" stroke-width="1"/>
    <path id="Trazado_721308" data-name="Trazado 721308" d="M17798.584-5162.409h-11l5.912,8.956-5.912,10.371h11" transform="translate(-17240.584 12851.082)" fill="none" stroke="#000" stroke-width="2"/>
    <path id="Trazado_721309" data-name="Trazado 721309" d="M17814.5-4923.5h96" transform="translate(-17278 12656.354)" fill="none" stroke="#000" stroke-width="1"/>
    <path id="Trazado_721369" data-name="Trazado 721369" d="M17814.5-4923.5h137.154" transform="translate(-17303.498 12683.318)" fill="none" stroke="#000" stroke-width="1"/>
    <path id="Trazado_721370" data-name="Trazado 721370" d="M17878.738-3713.907H17752.8l-4.621,87.854-4.949-35.524-1.65,2.343" transform="translate(-17230.584 11379.907)" fill="none" stroke="#000" stroke-width="1"/>
  </g>
</svg>
