<svg xmlns="http://www.w3.org/2000/svg" width="128" height="128" viewBox="0 0 128 128">
  <g id="Grupo_983784" data-name="Grupo 983784" transform="translate(-474 -9111)">
    <path id="Trazado_725450" data-name="Trazado 725450" d="M15,0h98a15,15,0,0,1,15,15v98a15,15,0,0,1-15,15H15A15,15,0,0,1,0,113V15A15,15,0,0,1,15,0Z" transform="translate(474 9111)" fill="#0e494d"/>
    <path id="Trazado_725444" data-name="Trazado 725444" d="M53.039,49H31.945V65.25H57.023V74H20.539V17.125H56.945v8.789h-25v14.3H53.039ZM94.68,61.734H76.242L72.414,74H60.5L79.68,17.125h11.68L110.461,74H98.547ZM79.055,52.789H91.906L85.617,32.75h-.234Z" transform="translate(472.5 9129.438)" fill="#fff"/>
  </g>
</svg>
