<svg xmlns="http://www.w3.org/2000/svg" width="128" height="128" viewBox="0 0 128 128">
  <g id="Grupo_983785" data-name="Grupo 983785" transform="translate(-999 -9111)">
    <path id="Trazado_725558" data-name="Trazado 725558" d="M15,0h98a15,15,0,0,1,15,15v98a15,15,0,0,1-15,15H15A15,15,0,0,1,0,113V15A15,15,0,0,1,15,0Z" transform="translate(999 9111)" fill="#0e494d"/>
    <path id="Trazado_725443" data-name="Trazado 725443" d="M39,49H17.906V65.25H42.984V74H6.5V17.125H42.906v8.789h-25v14.3H39Zm23.4,2.266V74H50.992V17.125H70.68q9.727,0,15.215,4.434t5.488,12.363a12.47,12.47,0,0,1-2.324,7.559,16.188,16.188,0,0,1-6.777,5.137,12.24,12.24,0,0,1,7.246,4.961,15.729,15.729,0,0,1,2.207,8.594v4.18a20.676,20.676,0,0,0,.645,4.98,6.849,6.849,0,0,0,2.207,3.848V74H82.828a6.315,6.315,0,0,1-2.012-4.141,36.377,36.377,0,0,1-.449-5.586V60.25a9.039,9.039,0,0,0-2.324-6.621,8.816,8.816,0,0,0-6.582-2.363Zm0-8.789h8.086q4.8,0,7.148-2.031a7.529,7.529,0,0,0,2.344-6.016,8.277,8.277,0,0,0-2.363-6.211q-2.363-2.3-6.934-2.3H62.4Z" transform="translate(1012.5 9129.875)" fill="#fff"/>
  </g>
</svg>
