<svg xmlns="http://www.w3.org/2000/svg" xmlns:xlink="http://www.w3.org/1999/xlink" width="715" height="344" viewBox="0 0 715 344">
  <defs>
    <clipPath id="clip-path">
      <ellipse id="Elipse_7701" data-name="Elipse 7701" cx="54.241" cy="112.2" rx="54.241" ry="112.2" fill="none" stroke="#000" stroke-miterlimit="10" stroke-width="3.392"/>
    </clipPath>
    <clipPath id="clip-path-2">
      <ellipse id="Elipse_7704" data-name="Elipse 7704" cx="54.241" cy="112.2" rx="54.241" ry="112.2" fill="none" stroke="#000" stroke-miterlimit="10" stroke-width="4.523"/>
    </clipPath>
  </defs>
  <g id="Grupo_983773" data-name="Grupo 983773" transform="translate(-705 -946)">
    <path id="Trazado_725452" data-name="Trazado 725452" d="M20,0H695a20,20,0,0,1,20,20V324a20,20,0,0,1-20,20H20A20,20,0,0,1,0,324V20A20,20,0,0,1,20,0Z" transform="translate(705 946)" fill="#e4ebf2"/>
    <path id="Trazado_725453" data-name="Trazado 725453" d="M98.015,12.658V17H94.93V4.2h5.106a5.948,5.948,0,0,1,2.6.541,4.074,4.074,0,0,1,1.749,1.538A4.2,4.2,0,0,1,105,8.545a3.7,3.7,0,0,1-1.34,2.993,5.561,5.561,0,0,1-3.678,1.121Zm0-2.382h2.021a1.906,1.906,0,0,0,1.367-.448,1.665,1.665,0,0,0,.47-1.266,2.059,2.059,0,0,0-.483-1.433,1.712,1.712,0,0,0-1.318-.545H98.015ZM109.634,17h-2.971V7.49h2.971ZM106.488,5.029a1.334,1.334,0,0,1,.457-1.043,1.934,1.934,0,0,1,2.373,0,1.334,1.334,0,0,1,.457,1.043,1.334,1.334,0,0,1-.457,1.043,1.934,1.934,0,0,1-2.373,0A1.334,1.334,0,0,1,106.488,5.029Zm13.8,7.286a5.735,5.735,0,0,1-1,3.538,3.2,3.2,0,0,1-2.694,1.323,2.742,2.742,0,0,1-2.153-.958v4.438H111.48V7.49h2.769l.088.879a2.742,2.742,0,0,1,2.241-1.055,3.224,3.224,0,0,1,2.733,1.3,5.805,5.805,0,0,1,.976,3.564Zm-2.962-.185q0-2.531-1.477-2.531a1.394,1.394,0,0,0-1.406.756V14.1a1.439,1.439,0,0,0,1.424.791q1.415,0,1.459-2.443Zm8.868,5.045a4.889,4.889,0,0,1-3.542-1.305,4.507,4.507,0,0,1-1.354-3.4v-.246a5.84,5.84,0,0,1,.541-2.575,3.955,3.955,0,0,1,1.578-1.727,4.763,4.763,0,0,1,2.461-.611,4.117,4.117,0,0,1,3.164,1.244,4.887,4.887,0,0,1,1.16,3.467v1.151h-5.889a2.135,2.135,0,0,0,.694,1.257,2.066,2.066,0,0,0,1.389.457,2.662,2.662,0,0,0,2.2-.984l1.354,1.6a3.784,3.784,0,0,1-1.569,1.217A5.3,5.3,0,0,1,126.193,17.176ZM125.859,9.6q-1.3,0-1.547,1.723H127.3v-.229a1.467,1.467,0,0,0-.36-1.1A1.434,1.434,0,0,0,125.859,9.6Zm8.982-4.474V7.49h1.564V9.547h-1.564V13.9a1.111,1.111,0,0,0,.193.747,1.037,1.037,0,0,0,.765.211,4.345,4.345,0,0,0,.738-.053v2.118a5.466,5.466,0,0,1-1.67.255,3.1,3.1,0,0,1-2.259-.721,2.954,2.954,0,0,1-.729-2.188V9.547h-1.213V7.49h1.213V5.126ZM142.927,17a3.344,3.344,0,0,1-.281-.853,2.754,2.754,0,0,1-2.285,1.028,3.374,3.374,0,0,1-2.285-.813,2.588,2.588,0,0,1-.94-2.043,2.66,2.66,0,0,1,1.143-2.338,5.821,5.821,0,0,1,3.322-.791h.914v-.5q0-1.316-1.134-1.316a.927.927,0,0,0-1.055,1.042h-2.962a2.655,2.655,0,0,1,1.173-2.239,4.931,4.931,0,0,1,2.993-.86A4.323,4.323,0,0,1,144.4,8.2a3.086,3.086,0,0,1,1.081,2.435v4.21a4.311,4.311,0,0,0,.4,2V17Zm-1.854-1.934a1.652,1.652,0,0,0,.918-.237,1.487,1.487,0,0,0,.523-.536V12.772h-.861q-1.547,0-1.547,1.389a.848.848,0,0,0,.272.655A.986.986,0,0,0,141.073,15.066Zm17.938-.457h-4.228L154.045,17h-3.3l4.693-12.8h2.9L163.072,17h-3.313Zm-3.489-2.382h2.751l-1.38-4.438ZM52.387,40.008l3.25-9.383h1.641L53.059,42H51.73L47.52,30.625h1.633ZM57.832,37.7a4.993,4.993,0,0,1,.488-2.234A3.643,3.643,0,0,1,59.68,33.93a3.7,3.7,0,0,1,1.988-.539,3.565,3.565,0,0,1,2.793,1.2,4.6,4.6,0,0,1,1.066,3.18v.1a5.036,5.036,0,0,1-.473,2.215A3.589,3.589,0,0,1,63.7,41.609a3.743,3.743,0,0,1-2.02.547,3.556,3.556,0,0,1-2.785-1.2A4.575,4.575,0,0,1,57.832,37.8Zm1.453.172a3.616,3.616,0,0,0,.652,2.258,2.211,2.211,0,0,0,3.5-.012,3.955,3.955,0,0,0,.648-2.418,3.61,3.61,0,0,0-.66-2.254,2.1,2.1,0,0,0-1.754-.863,2.075,2.075,0,0,0-1.727.852A3.925,3.925,0,0,0,59.285,37.867ZM68.91,42H67.465V30H68.91Zm7.531-.836a3.07,3.07,0,0,1-2.477.992,2.628,2.628,0,0,1-2.059-.785,3.4,3.4,0,0,1-.715-2.324v-5.5h1.445v5.461q0,1.922,1.563,1.922A2.163,2.163,0,0,0,76.4,39.7V33.547h1.445V42H76.473ZM81.4,33.547l.039.938a3.122,3.122,0,0,1,2.508-1.094,2.417,2.417,0,0,1,2.414,1.359,3.2,3.2,0,0,1,1.1-.984,3.242,3.242,0,0,1,1.6-.375q2.781,0,2.828,2.945V42H90.441V36.422a1.941,1.941,0,0,0-.414-1.355,1.823,1.823,0,0,0-1.391-.449,1.916,1.916,0,0,0-1.336.48,1.949,1.949,0,0,0-.617,1.293V42H85.23V36.461a1.613,1.613,0,0,0-1.8-1.844,1.934,1.934,0,0,0-1.945,1.211V42H80.035V33.547Zm16.172,8.609a3.693,3.693,0,0,1-2.8-1.129,4.19,4.19,0,0,1-1.078-3.02v-.266a5.073,5.073,0,0,1,.48-2.246,3.748,3.748,0,0,1,1.344-1.547,3.378,3.378,0,0,1,1.871-.559,3.166,3.166,0,0,1,2.563,1.086,4.7,4.7,0,0,1,.914,3.109v.6H95.145a3,3,0,0,0,.73,2.02,2.3,2.3,0,0,0,1.777.77,2.517,2.517,0,0,0,1.3-.312,3.259,3.259,0,0,0,.93-.828l.883.688A3.55,3.55,0,0,1,97.574,42.156Zm-.18-7.578a1.928,1.928,0,0,0-1.469.637A3.1,3.1,0,0,0,95.191,37h4.234v-.109a2.753,2.753,0,0,0-.594-1.707A1.815,1.815,0,0,0,97.395,34.578Zm6.516-1.031.047,1.063a3.08,3.08,0,0,1,2.531-1.219q2.68,0,2.7,3.023V42h-1.445V36.406a1.946,1.946,0,0,0-.418-1.352,1.675,1.675,0,0,0-1.277-.437,2.086,2.086,0,0,0-1.234.375,2.546,2.546,0,0,0-.828.984V42h-1.445V33.547Zm7.414,7.7a.905.905,0,0,1,.223-.625.848.848,0,0,1,.668-.25.874.874,0,0,1,.676.25.887.887,0,0,1,.23.625.839.839,0,0,1-.23.6.89.89,0,0,1-.676.242.8.8,0,0,1-.891-.844Zm.008-6.9a.905.905,0,0,1,.223-.625.848.848,0,0,1,.668-.25.874.874,0,0,1,.676.25.887.887,0,0,1,.23.625.839.839,0,0,1-.23.6.89.89,0,0,1-.676.242.8.8,0,0,1-.891-.844ZM125.16,38.18h1.578v1.18H125.16V42h-1.453V39.359h-5.18v-.852l5.094-7.883h1.539Zm-4.992,0h3.539V32.6l-.172.313Zm13.344-4.633.039.938a3.122,3.122,0,0,1,2.508-1.094,2.417,2.417,0,0,1,2.414,1.359,3.2,3.2,0,0,1,1.1-.984,3.242,3.242,0,0,1,1.6-.375q2.781,0,2.828,2.945V42h-1.445V36.422a1.941,1.941,0,0,0-.414-1.355,1.823,1.823,0,0,0-1.391-.449,1.917,1.917,0,0,0-1.336.48,1.949,1.949,0,0,0-.617,1.293V42H137.34V36.461a1.613,1.613,0,0,0-1.8-1.844,1.934,1.934,0,0,0-1.945,1.211V42h-1.445V33.547Zm14.4,7.227H153.3V42h-6.9V30.625h1.508Zm18.773-5.445h2.844v1.18h-2.844v3.234h-1.3V36.508h-3.008v-1.18h3.008V32.1h1.3ZM169.191,42h-6.523V40.813h6.523Zm10.625,0h-1.453V32.367l-2.914,1.07V32.125l4.141-1.555h.227Zm9.7-8.453.039.938a3.122,3.122,0,0,1,2.508-1.094,2.417,2.417,0,0,1,2.414,1.359,3.2,3.2,0,0,1,1.1-.984,3.242,3.242,0,0,1,1.6-.375q2.781,0,2.828,2.945V42h-1.445V36.422a1.941,1.941,0,0,0-.414-1.355,1.823,1.823,0,0,0-1.391-.449,1.917,1.917,0,0,0-1.336.48,1.949,1.949,0,0,0-.617,1.293V42h-1.453V36.461a1.613,1.613,0,0,0-1.8-1.844,1.934,1.934,0,0,0-1.945,1.211V42h-1.445V33.547Zm14.4,7.227h5.391V42h-6.9V30.625h1.508Z" transform="translate(705 1213)" fill="#12263f"/>
    <path id="Trazado_725454" data-name="Trazado 725454" d="M98.34,12.658V17H95.255V4.2h5.106a5.948,5.948,0,0,1,2.6.541,4.074,4.074,0,0,1,1.749,1.538,4.2,4.2,0,0,1,.62,2.263,3.7,3.7,0,0,1-1.34,2.993,5.561,5.561,0,0,1-3.678,1.121Zm0-2.382h2.021a1.906,1.906,0,0,0,1.367-.448,1.665,1.665,0,0,0,.47-1.266,2.059,2.059,0,0,0-.483-1.433,1.712,1.712,0,0,0-1.318-.545H98.34ZM109.959,17h-2.971V7.49h2.971ZM106.813,5.029a1.334,1.334,0,0,1,.457-1.043,1.934,1.934,0,0,1,2.373,0,1.334,1.334,0,0,1,.457,1.043,1.334,1.334,0,0,1-.457,1.043,1.934,1.934,0,0,1-2.373,0A1.334,1.334,0,0,1,106.813,5.029Zm13.8,7.286a5.735,5.735,0,0,1-1,3.538,3.2,3.2,0,0,1-2.694,1.323,2.742,2.742,0,0,1-2.153-.958v4.438h-2.962V7.49h2.769l.088.879A2.742,2.742,0,0,1,116.9,7.314a3.224,3.224,0,0,1,2.733,1.3,5.805,5.805,0,0,1,.976,3.564Zm-2.962-.185q0-2.531-1.477-2.531a1.394,1.394,0,0,0-1.406.756V14.1a1.439,1.439,0,0,0,1.424.791q1.415,0,1.459-2.443Zm8.868,5.045a4.889,4.889,0,0,1-3.542-1.305,4.507,4.507,0,0,1-1.354-3.4v-.246a5.84,5.84,0,0,1,.541-2.575,3.955,3.955,0,0,1,1.578-1.727,4.763,4.763,0,0,1,2.461-.611,4.117,4.117,0,0,1,3.164,1.244,4.887,4.887,0,0,1,1.16,3.467v1.151h-5.889a2.135,2.135,0,0,0,.694,1.257,2.066,2.066,0,0,0,1.389.457,2.662,2.662,0,0,0,2.2-.984l1.354,1.6a3.784,3.784,0,0,1-1.569,1.217A5.3,5.3,0,0,1,126.518,17.176ZM126.184,9.6q-1.3,0-1.547,1.723h2.988v-.229a1.467,1.467,0,0,0-.36-1.1A1.434,1.434,0,0,0,126.184,9.6Zm8.982-4.474V7.49h1.564V9.547h-1.564V13.9a1.111,1.111,0,0,0,.193.747,1.037,1.037,0,0,0,.765.211,4.345,4.345,0,0,0,.738-.053v2.118a5.466,5.466,0,0,1-1.67.255,3.1,3.1,0,0,1-2.259-.721,2.954,2.954,0,0,1-.729-2.188V9.547h-1.213V7.49H132.2V5.126ZM143.252,17a3.344,3.344,0,0,1-.281-.853,2.754,2.754,0,0,1-2.285,1.028,3.374,3.374,0,0,1-2.285-.813,2.588,2.588,0,0,1-.94-2.043,2.66,2.66,0,0,1,1.143-2.338,5.821,5.821,0,0,1,3.322-.791h.914v-.5q0-1.316-1.134-1.316a.927.927,0,0,0-1.055,1.042h-2.962a2.655,2.655,0,0,1,1.173-2.239,4.931,4.931,0,0,1,2.993-.86,4.323,4.323,0,0,1,2.874.888,3.086,3.086,0,0,1,1.081,2.435v4.21a4.311,4.311,0,0,0,.4,2V17ZM141.4,15.066a1.652,1.652,0,0,0,.918-.237,1.487,1.487,0,0,0,.523-.536V12.772h-.861q-1.547,0-1.547,1.389a.848.848,0,0,0,.272.655A.986.986,0,0,0,141.4,15.066ZM152.068,17V4.2h4.6a6.509,6.509,0,0,1,3.757.905,3.012,3.012,0,0,1,1.288,2.628,3.045,3.045,0,0,1-.457,1.7,2.663,2.663,0,0,1-1.345,1.037,2.7,2.7,0,0,1,1.538.984,2.862,2.862,0,0,1,.536,1.758,3.388,3.388,0,0,1-1.191,2.826,5.667,5.667,0,0,1-3.529.962Zm3.085-5.44v3.067h2.021a1.923,1.923,0,0,0,1.283-.382,1.338,1.338,0,0,0,.448-1.077,1.419,1.419,0,0,0-1.591-1.608Zm0-2.021h1.608a2.285,2.285,0,0,0,1.441-.37,1.314,1.314,0,0,0,.431-1.067,1.379,1.379,0,0,0-.466-1.168,2.493,2.493,0,0,0-1.5-.357h-1.512ZM46.324,40.008l3.25-9.383h1.641L47,42H45.668L41.457,30.625H43.09ZM51.77,37.7a4.993,4.993,0,0,1,.488-2.234,3.643,3.643,0,0,1,1.359-1.531,3.7,3.7,0,0,1,1.988-.539,3.565,3.565,0,0,1,2.793,1.2,4.6,4.6,0,0,1,1.066,3.18v.1a5.036,5.036,0,0,1-.473,2.215,3.589,3.589,0,0,1-1.352,1.527,3.743,3.743,0,0,1-2.02.547,3.556,3.556,0,0,1-2.785-1.2A4.575,4.575,0,0,1,51.77,37.8Zm1.453.172a3.616,3.616,0,0,0,.652,2.258,2.211,2.211,0,0,0,3.5-.012A3.955,3.955,0,0,0,58.02,37.7a3.61,3.61,0,0,0-.66-2.254,2.1,2.1,0,0,0-1.754-.863,2.075,2.075,0,0,0-1.727.852A3.925,3.925,0,0,0,53.223,37.867ZM62.848,42H61.4V30h1.445Zm7.531-.836a3.07,3.07,0,0,1-2.477.992,2.628,2.628,0,0,1-2.059-.785,3.4,3.4,0,0,1-.715-2.324v-5.5h1.445v5.461q0,1.922,1.563,1.922a2.163,2.163,0,0,0,2.2-1.234V33.547h1.445V42H70.41Zm4.961-7.617.039.938a3.122,3.122,0,0,1,2.508-1.094A2.417,2.417,0,0,1,80.3,34.75a3.2,3.2,0,0,1,1.1-.984,3.242,3.242,0,0,1,1.6-.375q2.781,0,2.828,2.945V42H84.379V36.422a1.941,1.941,0,0,0-.414-1.355,1.823,1.823,0,0,0-1.391-.449,1.916,1.916,0,0,0-1.336.48,1.949,1.949,0,0,0-.617,1.293V42H79.168V36.461a1.613,1.613,0,0,0-1.8-1.844,1.934,1.934,0,0,0-1.945,1.211V42H73.973V33.547Zm16.172,8.609a3.693,3.693,0,0,1-2.8-1.129,4.19,4.19,0,0,1-1.078-3.02v-.266a5.073,5.073,0,0,1,.48-2.246,3.748,3.748,0,0,1,1.344-1.547,3.378,3.378,0,0,1,1.871-.559,3.166,3.166,0,0,1,2.563,1.086,4.7,4.7,0,0,1,.914,3.109v.6H89.082a3,3,0,0,0,.73,2.02,2.3,2.3,0,0,0,1.777.77,2.517,2.517,0,0,0,1.3-.312,3.259,3.259,0,0,0,.93-.828l.883.688A3.55,3.55,0,0,1,91.512,42.156Zm-.18-7.578a1.928,1.928,0,0,0-1.469.637A3.1,3.1,0,0,0,89.129,37h4.234v-.109a2.753,2.753,0,0,0-.594-1.707A1.815,1.815,0,0,0,91.332,34.578Zm6.516-1.031.047,1.063a3.08,3.08,0,0,1,2.531-1.219q2.68,0,2.7,3.023V42h-1.445V36.406a1.946,1.946,0,0,0-.418-1.352,1.675,1.675,0,0,0-1.277-.437,2.086,2.086,0,0,0-1.234.375,2.546,2.546,0,0,0-.828.984V42H96.48V33.547Zm7.414,7.7a.905.905,0,0,1,.223-.625.848.848,0,0,1,.668-.25.874.874,0,0,1,.676.25.887.887,0,0,1,.23.625.839.839,0,0,1-.23.6.89.89,0,0,1-.676.242.8.8,0,0,1-.891-.844Zm.008-6.9a.905.905,0,0,1,.223-.625.848.848,0,0,1,.668-.25.874.874,0,0,1,.676.25.887.887,0,0,1,.23.625.839.839,0,0,1-.23.6.89.89,0,0,1-.676.242.8.8,0,0,1-.891-.844ZM119.1,38.18h1.578v1.18H119.1V42h-1.453V39.359h-5.18v-.852l5.094-7.883H119.1Zm-4.992,0h3.539V32.6l-.172.313Zm7.977,6.086-.82-.562a3.77,3.77,0,0,0,.766-2.109v-1.3h1.414v1.133A3.559,3.559,0,0,1,123.055,43,3.7,3.7,0,0,1,122.082,44.266Zm10.172-7.117a6.61,6.61,0,0,1-.867,3.773,3.6,3.6,0,0,1-5.406.027,6.274,6.274,0,0,1-.906-3.605v-1.93a6.463,6.463,0,0,1,.867-3.727,3.668,3.668,0,0,1,5.422-.043,6.237,6.237,0,0,1,.891,3.629Zm-1.445-1.977a5.3,5.3,0,0,0-.516-2.676,1.775,1.775,0,0,0-1.633-.84,1.751,1.751,0,0,0-1.617.836,5.171,5.171,0,0,0-.523,2.57v2.313a5.381,5.381,0,0,0,.535,2.723,1.771,1.771,0,0,0,1.621.879,1.747,1.747,0,0,0,1.59-.828,5.186,5.186,0,0,0,.543-2.609Zm8.766-1.625.039.938a3.122,3.122,0,0,1,2.508-1.094,2.417,2.417,0,0,1,2.414,1.359,3.2,3.2,0,0,1,1.1-.984,3.242,3.242,0,0,1,1.6-.375q2.781,0,2.828,2.945V42h-1.445V36.422a1.941,1.941,0,0,0-.414-1.355,1.823,1.823,0,0,0-1.391-.449,1.917,1.917,0,0,0-1.336.48,1.949,1.949,0,0,0-.617,1.293V42H143.4V36.461a1.613,1.613,0,0,0-1.8-1.844,1.934,1.934,0,0,0-1.945,1.211V42h-1.445V33.547Zm14.4,7.227h5.391V42h-6.9V30.625h1.508Zm18.773-5.445h2.844v1.18h-2.844v3.234h-1.3V36.508h-3.008v-1.18h3.008V32.1h1.3ZM175.254,42H168.73V40.813h6.523Zm10.625,0h-1.453V32.367l-2.914,1.07V32.125l4.141-1.555h.227Zm9.7-8.453.039.938a3.122,3.122,0,0,1,2.508-1.094,2.417,2.417,0,0,1,2.414,1.359,3.2,3.2,0,0,1,1.1-.984,3.242,3.242,0,0,1,1.6-.375q2.781,0,2.828,2.945V42h-1.445V36.422a1.941,1.941,0,0,0-.414-1.355,1.823,1.823,0,0,0-1.391-.449,1.917,1.917,0,0,0-1.336.48,1.949,1.949,0,0,0-.617,1.293V42H199.41V36.461a1.613,1.613,0,0,0-1.8-1.844,1.934,1.934,0,0,0-1.945,1.211V42h-1.445V33.547Zm14.4,7.227h5.391V42h-6.9V30.625h1.508Z" transform="translate(1163 1213)" fill="#12263f"/>
    <g id="Grupo_956594" data-name="Grupo 956594" transform="translate(786.042 1076.559)">
      <g id="Grupo_956593" data-name="Grupo 956593">
        <path id="Trazado_721912" data-name="Trazado 721912" d="M449.7,723.04V825.153a4.089,4.089,0,0,0,.031.463,3.177,3.177,0,0,0-.031.408s3.267,15.651,7.3,15.651,7.3-15.651,7.3-15.651a3.177,3.177,0,0,0-.031-.408,4.089,4.089,0,0,0,.031-.463V723.04a24.392,24.392,0,0,1-14.594,0Z" transform="translate(-449.703 -723.04)" fill="silver"/>
      </g>
    </g>
    <path id="Trazado_721913" data-name="Trazado 721913" d="M464.8,594.351a7.283,7.283,0,0,0-3.078-5.946c0-.072.01-.143.01-.216v-4.653a4.23,4.23,0,1,0-8.46,0v4.653c0,.073.008.144.011.216a7.281,7.281,0,0,0-3.078,5.946V758.987c0,.211.014.419.031.625-.017.182-.031.365-.031.551,0,0,3.267,21.131,7.3,21.131s7.3-21.131,7.3-21.131c0-.186-.014-.369-.032-.551.017-.206.032-.414.032-.625Z" transform="translate(336.129 413.899)" fill="none" stroke="#000" stroke-miterlimit="10" stroke-width="1"/>
    <path id="Trazado_725459" data-name="Trazado 725459" d="M0,0H14.594" transform="translate(786.334 1169.893)" fill="none" stroke="#000" stroke-width="1"/>
    <path id="Trazado_725460" data-name="Trazado 725460" d="M0,0H14.594" transform="translate(786.303 1154.458)" fill="none" stroke="#000" stroke-width="1"/>
    <path id="Trazado_725461" data-name="Trazado 725461" d="M0,0H14.594" transform="translate(786.303 1124.375)" fill="none" stroke="#000" stroke-width="1"/>
    <path id="Trazado_725462" data-name="Trazado 725462" d="M0,0H14.594" transform="translate(786.303 1108.793)" fill="none" stroke="#000" stroke-width="1"/>
    <path id="Trazado_725463" data-name="Trazado 725463" d="M0,0H14.594" transform="translate(786.303 1093.184)" fill="none" stroke="#000" stroke-width="1"/>
    <path id="Trazado_725464" data-name="Trazado 725464" d="M0,0H14.594" transform="translate(786.303 1063.215)" fill="none" stroke="#000" stroke-width="1"/>
    <path id="Trazado_725465" data-name="Trazado 725465" d="M0,0H14.594" transform="translate(786.303 1047.472)" fill="none" stroke="#000" stroke-width="1"/>
    <path id="Trazado_725466" data-name="Trazado 725466" d="M0,0H14.594" transform="translate(786.303 1017.318)" fill="none" stroke="#000" stroke-width="1"/>
    <path id="Trazado_725467" data-name="Trazado 725467" d="M0,0H14.335" transform="translate(786.593 1077.89)" fill="none" stroke="#000" stroke-width="1.137"/>
    <path id="Trazado_725468" data-name="Trazado 725468" d="M0,0H14.3" transform="translate(786.593 1032.73)" fill="none" stroke="#000" stroke-width="1.136"/>
    <g id="Grupo_956595" data-name="Grupo 956595" transform="translate(792.987 1008.929)">
      <text id="_0" data-name="0" transform="translate(2.178 5)" fill="#a20b00" font-size="5" font-family="Roboto-Medium, Roboto" font-weight="500"><tspan x="0" y="0">0</tspan></text>
      <text id="_1" data-name="1" transform="translate(3.75 19.823)" font-size="5" font-family="Roboto-Medium, Roboto" font-weight="500"><tspan x="0" y="0">1</tspan></text>
      <text id="_2" data-name="2" transform="translate(3.75 36.248)" font-size="5" font-family="Roboto-Medium, Roboto" font-weight="500"><tspan x="0" y="0">2</tspan></text>
      <text id="_3" data-name="3" transform="translate(3.75 51.207)" font-size="5" font-family="Roboto-Medium, Roboto" font-weight="500"><tspan x="0" y="0">3</tspan></text>
      <text id="_4" data-name="4" transform="translate(3.75 65.962)" font-size="5" font-family="Roboto-Medium, Roboto" font-weight="500"><tspan x="0" y="0">4</tspan></text>
      <text id="_5" data-name="5" transform="translate(3.75 81.314)" font-size="5" font-family="Roboto-Medium, Roboto" font-weight="500"><tspan x="0" y="0">5</tspan></text>
      <text id="_6" data-name="6" transform="translate(3.75 97.227)" font-size="5" font-family="Roboto-Medium, Roboto" font-weight="500"><tspan x="0" y="0">6</tspan></text>
      <text id="_7" data-name="7" transform="translate(3.75 111.892)" font-size="5" font-family="Roboto-Medium, Roboto" font-weight="500"><tspan x="0" y="0">7</tspan></text>
      <text id="_8" data-name="8" transform="translate(3.75 127.417)" font-size="5" font-family="Roboto-Medium, Roboto" font-weight="500"><tspan x="0" y="0">8</tspan></text>
      <text id="_9" data-name="9" transform="translate(3.75 143.153)" font-size="5" font-family="Roboto-Medium, Roboto" font-weight="500"><tspan x="0" y="0">9</tspan></text>
      <text id="_10" data-name="10" transform="translate(0 159.312)" font-size="6" font-family="Roboto-Medium, Roboto" font-weight="500"><tspan x="0" y="0">10</tspan></text>
    </g>
    <path id="Trazado_725469" data-name="Trazado 725469" d="M11.992,0c6.623,0,11.992,11.106,11.992,24.806S18.615,49.612,11.992,49.612,0,38.506,0,24.806,5.369,0,11.992,0Z" transform="translate(781.731 1060.383)" fill="none" stroke="#000" stroke-width="2"/>
    <g id="Grupo_956601" data-name="Grupo 956601" transform="translate(922.232 981.811)" clip-path="url(#clip-path)">
      <g id="Grupo_956600" data-name="Grupo 956600" transform="translate(19.498 -303.857)">
        <g id="Grupo_956598" data-name="Grupo 956598" transform="translate(0 377.02)">
          <g id="Grupo_956597" data-name="Grupo 956597">
            <path id="Trazado_721914" data-name="Trazado 721914" d="M718.168,685.82v461.865a18.411,18.411,0,0,0,.143,2.093,14.36,14.36,0,0,0-.143,1.846s14.777,70.791,33,70.791,33-70.791,33-70.791a14.339,14.339,0,0,0-.143-1.846,18.383,18.383,0,0,0,.143-2.093V685.82a110.319,110.319,0,0,1-66.01,0Z" transform="translate(-718.168 -685.82)" fill="silver"/>
          </g>
        </g>
        <path id="Trazado_721915" data-name="Trazado 721915" d="M786.449,103.75a32.938,32.938,0,0,0-13.92-26.9c.016-.326.049-.648.049-.979V54.828a19.134,19.134,0,1,0-38.268,0V75.875c0,.331.033.653.049.979a32.937,32.937,0,0,0-13.92,26.9V848.414c0,.954.064,1.892.143,2.825-.079.823-.143,1.651-.143,2.492,0,0,14.777,95.578,33.005,95.578s33-95.578,33-95.578c0-.841-.063-1.669-.142-2.492.079-.934.142-1.871.142-2.825Z" transform="translate(-719.122 -35.694)" fill="none" stroke="#000" stroke-miterlimit="10" stroke-width="4.523"/>
        <line id="Línea_2860" data-name="Línea 2860" x2="66.009" transform="translate(1.318 799.177)" fill="none" stroke="#000" stroke-miterlimit="10" stroke-width="4.523"/>
        <line id="Línea_2861" data-name="Línea 2861" x2="66.009" transform="translate(1.178 729.368)" fill="none" stroke="#000" stroke-miterlimit="10" stroke-width="4.523"/>
        <line id="Línea_2862" data-name="Línea 2862" x2="66.009" transform="translate(1.178 593.3)" fill="none" stroke="#000" stroke-miterlimit="10" stroke-width="4.523"/>
        <line id="Línea_2863" data-name="Línea 2863" x2="66.009" transform="translate(1.178 522.819)" fill="none" stroke="#000" stroke-miterlimit="10" stroke-width="4.523"/>
        <line id="Línea_2864" data-name="Línea 2864" x2="66.009" transform="translate(1.178 452.217)" fill="none" stroke="#000" stroke-miterlimit="10" stroke-width="4.523"/>
        <line id="Línea_2865" data-name="Línea 2865" x2="66.009" transform="translate(1.178 316.669)" fill="none" stroke="#000" stroke-miterlimit="10" stroke-width="4.523"/>
        <line id="Línea_2866" data-name="Línea 2866" x2="66.009" transform="translate(1.178 245.46)" fill="none" stroke="#000" stroke-miterlimit="10" stroke-width="4.523"/>
        <line id="Línea_2867" data-name="Línea 2867" x2="66.009" transform="translate(1.178 109.075)" fill="none" stroke="#000" stroke-miterlimit="10" stroke-width="4.523"/>
        <line id="Línea_2868" data-name="Línea 2868" x2="64.837" transform="translate(2.491 383.042)" fill="none" stroke="#000" stroke-miterlimit="10" stroke-width="5.142"/>
        <line id="Línea_2869" data-name="Línea 2869" x2="64.697" transform="translate(2.491 178.783)" fill="none" stroke="#000" stroke-miterlimit="10" stroke-width="5.136"/>
        <g id="Grupo_956599" data-name="Grupo 956599" transform="translate(31.411 72.588)">
          <text id="_0-2" data-name="0" transform="translate(9.852 28)" fill="#a20b00" font-size="30" font-family="Roboto-Medium, Roboto" font-weight="500"><tspan x="0" y="0">0</tspan></text>
          <text id="_1-2" data-name="1" transform="translate(16.964 95.045)" font-size="30" font-family="Roboto-Medium, Roboto" font-weight="500"><tspan x="0" y="0">1</tspan></text>
          <text id="_2-2" data-name="2" transform="translate(16.964 169.338)" font-size="30" font-family="Roboto-Medium, Roboto" font-weight="500"><tspan x="0" y="0">2</tspan></text>
          <text id="_3-2" data-name="3" transform="translate(16.964 236.998)" font-size="30" font-family="Roboto-Medium, Roboto" font-weight="500"><tspan x="0" y="0">3</tspan></text>
          <text id="_4-2" data-name="4" transform="translate(16.964 303.736)" font-size="30" font-family="Roboto-Medium, Roboto" font-weight="500"><tspan x="0" y="0">4</tspan></text>
          <text id="_5-2" data-name="5" transform="translate(16.964 373.171)" font-size="30" font-family="Roboto-Medium, Roboto" font-weight="500"><tspan x="0" y="0">5</tspan></text>
          <text id="_6-2" data-name="6" transform="translate(16.964 445.148)" font-size="30" font-family="Roboto-Medium, Roboto" font-weight="500"><tspan x="0" y="0">6</tspan></text>
          <text id="_7-2" data-name="7" transform="translate(16.964 511.477)" font-size="30" font-family="Roboto-Medium, Roboto" font-weight="500"><tspan x="0" y="0">7</tspan></text>
          <text id="_8-2" data-name="8" transform="translate(16.964 581.701)" font-size="30" font-family="Roboto-Medium, Roboto" font-weight="500"><tspan x="0" y="0">8</tspan></text>
          <text id="_9-2" data-name="9" transform="translate(16.964 652.872)" font-size="30" font-family="Roboto-Medium, Roboto" font-weight="500"><tspan x="0" y="0">9</tspan></text>
          <text id="_10-2" data-name="10" transform="translate(0 721.44)" font-size="30" font-family="Roboto-Medium, Roboto" font-weight="500"><tspan x="0" y="0">10</tspan></text>
        </g>
      </g>
    </g>
    <path id="Trazado_725470" data-name="Trazado 725470" d="M54.241,0C84.2,0,108.482,50.234,108.482,112.2S84.2,224.4,54.241,224.4,0,174.166,0,112.2,24.285,0,54.241,0Z" transform="translate(922.232 981.811)" fill="none" stroke="#000" stroke-width="3.392"/>
    <g id="Grupo_956604" data-name="Grupo 956604" transform="translate(1099.309 1079.836)">
      <g id="Grupo_956603" data-name="Grupo 956603">
        <path id="Trazado_721916" data-name="Trazado 721916" d="M989.894,728.691v99.293a3.879,3.879,0,0,0,.031.45,3.019,3.019,0,0,0-.031.4s3.267,15.219,7.3,15.219,7.3-15.219,7.3-15.219a3,3,0,0,0-.031-.4,3.852,3.852,0,0,0,.031-.45V728.691a25.053,25.053,0,0,1-14.594,0Z" transform="translate(-989.894 -728.691)" fill="silver"/>
      </g>
    </g>
    <path id="Trazado_721917" data-name="Trazado 721917" d="M1004.99,594.351a7.283,7.283,0,0,0-3.078-5.946c0-.072.01-.143.01-.216v-4.653a4.23,4.23,0,1,0-8.46,0v4.653c0,.073.008.144.011.216a7.281,7.281,0,0,0-3.078,5.946V758.987c0,.211.014.419.031.625-.017.182-.031.365-.031.551,0,0,3.267,21.131,7.3,21.131s7.3-21.131,7.3-21.131c0-.186-.015-.369-.032-.551.017-.206.032-.414.032-.625Z" transform="translate(109.204 413.899)" fill="none" stroke="#000" stroke-miterlimit="10" stroke-width="1"/>
    <path id="Trazado_725471" data-name="Trazado 725471" d="M0,0H14.594" transform="translate(1099.6 1169.893)" fill="none" stroke="#000" stroke-width="1"/>
    <path id="Trazado_725472" data-name="Trazado 725472" d="M0,0H14.594" transform="translate(1099.569 1154.458)" fill="none" stroke="#000" stroke-width="1"/>
    <path id="Trazado_725473" data-name="Trazado 725473" d="M0,0H14.594" transform="translate(1099.569 1124.375)" fill="none" stroke="#000" stroke-width="1"/>
    <path id="Trazado_725474" data-name="Trazado 725474" d="M0,0H14.594" transform="translate(1099.569 1108.793)" fill="none" stroke="#000" stroke-width="1"/>
    <path id="Trazado_725475" data-name="Trazado 725475" d="M0,0H14.594" transform="translate(1099.569 1093.184)" fill="none" stroke="#000" stroke-width="1"/>
    <path id="Trazado_725476" data-name="Trazado 725476" d="M0,0H14.594" transform="translate(1099.569 1063.215)" fill="none" stroke="#000" stroke-width="1"/>
    <path id="Trazado_725477" data-name="Trazado 725477" d="M0,0H14.594" transform="translate(1099.569 1047.472)" fill="none" stroke="#000" stroke-width="1"/>
    <path id="Trazado_725478" data-name="Trazado 725478" d="M0,0H14.594" transform="translate(1099.569 1017.318)" fill="none" stroke="#000" stroke-width="1"/>
    <path id="Trazado_725479" data-name="Trazado 725479" d="M0,0H7.006" transform="translate(1099.6 1166.754)" fill="none" stroke="#000" stroke-width="0.693"/>
    <path id="Trazado_725480" data-name="Trazado 725480" d="M0,0H7.006" transform="translate(1099.6 1164.616)" fill="none" stroke="#000" stroke-width="0.693"/>
    <path id="Trazado_725481" data-name="Trazado 725481" d="M0,0H9.216" transform="translate(1099.6 1161.195)" fill="none" stroke="#000" stroke-width="0.911"/>
    <path id="Trazado_725482" data-name="Trazado 725482" d="M0,0H9.216" transform="translate(1099.6 1157.774)" fill="none" stroke="#000" stroke-width="0.911"/>
    <path id="Trazado_725483" data-name="Trazado 725483" d="M0,0H9.216" transform="translate(1099.6 1152.201)" fill="none" stroke="#000" stroke-width="0.911"/>
    <path id="Trazado_725484" data-name="Trazado 725484" d="M0,0H9.216" transform="translate(1099.6 1148.924)" fill="none" stroke="#000" stroke-width="0.911"/>
    <path id="Trazado_725485" data-name="Trazado 725485" d="M0,0H9.216" transform="translate(1099.6 1145.646)" fill="none" stroke="#000" stroke-width="0.911"/>
    <path id="Trazado_725486" data-name="Trazado 725486" d="M0,0H9.216" transform="translate(1099.6 1142.369)" fill="none" stroke="#000" stroke-width="0.911"/>
    <path id="Trazado_725487" data-name="Trazado 725487" d="M0,0H9.216" transform="translate(1099.6 1139.896)" fill="none" stroke="#000" stroke-width="0.911"/>
    <path id="Trazado_725488" data-name="Trazado 725488" d="M0,0H9.216" transform="translate(1099.6 1136.619)" fill="none" stroke="#000" stroke-width="0.911"/>
    <path id="Trazado_725489" data-name="Trazado 725489" d="M0,0H9.216" transform="translate(1099.6 1133.342)" fill="none" stroke="#000" stroke-width="0.911"/>
    <path id="Trazado_725490" data-name="Trazado 725490" d="M0,0H9.216" transform="translate(1099.6 1129.755)" fill="none" stroke="#000" stroke-width="0.911"/>
    <path id="Trazado_725491" data-name="Trazado 725491" d="M0,0H9.216" transform="translate(1099.6 1126.539)" fill="none" stroke="#000" stroke-width="0.911"/>
    <path id="Trazado_725492" data-name="Trazado 725492" d="M0,0H9.216" transform="translate(1099.6 1121.098)" fill="none" stroke="#000" stroke-width="0.911"/>
    <path id="Trazado_725493" data-name="Trazado 725493" d="M0,0H9.216" transform="translate(1099.6 1117.82)" fill="none" stroke="#000" stroke-width="0.911"/>
    <path id="Trazado_725494" data-name="Trazado 725494" d="M0,0H9.216" transform="translate(1099.6 1114.543)" fill="none" stroke="#000" stroke-width="0.911"/>
    <path id="Trazado_725495" data-name="Trazado 725495" d="M0,0H9.216" transform="translate(1099.6 1112.008)" fill="none" stroke="#000" stroke-width="0.911"/>
    <path id="Trazado_725496" data-name="Trazado 725496" d="M0,0H9.216" transform="translate(1099.6 1105.206)" fill="none" stroke="#000" stroke-width="0.911"/>
    <path id="Trazado_725497" data-name="Trazado 725497" d="M0,0H9.216" transform="translate(1099.859 1101.929)" fill="none" stroke="#000" stroke-width="0.911"/>
    <path id="Trazado_725498" data-name="Trazado 725498" d="M0,0H9.216" transform="translate(1099.859 1099.852)" fill="none" stroke="#000" stroke-width="0.911"/>
    <path id="Trazado_725499" data-name="Trazado 725499" d="M0,0H9.216" transform="translate(1099.859 1096.518)" fill="none" stroke="#000" stroke-width="0.911"/>
    <path id="Trazado_725500" data-name="Trazado 725500" d="M0,0H9.216" transform="translate(1099.859 1089.85)" fill="none" stroke="#000" stroke-width="0.911"/>
    <path id="Trazado_725501" data-name="Trazado 725501" d="M0,0H9.216" transform="translate(1099.859 1087.664)" fill="none" stroke="#000" stroke-width="0.911"/>
    <path id="Trazado_725502" data-name="Trazado 725502" d="M0,0H9.216" transform="translate(1099.859 1084.293)" fill="none" stroke="#000" stroke-width="0.911"/>
    <path id="Trazado_725503" data-name="Trazado 725503" d="M0,0H9.216" transform="translate(1099.859 1080.922)" fill="none" stroke="#000" stroke-width="0.911"/>
    <path id="Trazado_725504" data-name="Trazado 725504" d="M0,0H9.216" transform="translate(1099.859 1075.328)" fill="none" stroke="#000" stroke-width="0.911"/>
    <path id="Trazado_725505" data-name="Trazado 725505" d="M0,0H9.216" transform="translate(1099.859 1072.068)" fill="none" stroke="#000" stroke-width="0.911"/>
    <path id="Trazado_725506" data-name="Trazado 725506" d="M0,0H9.216" transform="translate(1099.859 1068.513)" fill="none" stroke="#000" stroke-width="0.911"/>
    <path id="Trazado_725507" data-name="Trazado 725507" d="M0,0H9.216" transform="translate(1099.859 1059.733)" fill="none" stroke="#000" stroke-width="0.911"/>
    <path id="Trazado_725508" data-name="Trazado 725508" d="M0,0H9.216" transform="translate(1099.859 1057.548)" fill="none" stroke="#000" stroke-width="0.911"/>
    <path id="Trazado_725509" data-name="Trazado 725509" d="M0,0H9.216" transform="translate(1099.859 1055.362)" fill="none" stroke="#000" stroke-width="0.911"/>
    <path id="Trazado_725510" data-name="Trazado 725510" d="M0,0H9.216" transform="translate(1099.859 1053.177)" fill="none" stroke="#000" stroke-width="0.911"/>
    <path id="Trazado_725511" data-name="Trazado 725511" d="M0,0H9.216" transform="translate(1099.859 1050.731)" fill="none" stroke="#000" stroke-width="0.911"/>
    <path id="Trazado_725512" data-name="Trazado 725512" d="M0,0H9.216" transform="translate(1099.859 1045.323)" fill="none" stroke="#000" stroke-width="0.911"/>
    <path id="Trazado_725513" data-name="Trazado 725513" d="M0,0H9.216" transform="translate(1099.859 1043.175)" fill="none" stroke="#000" stroke-width="0.911"/>
    <path id="Trazado_725514" data-name="Trazado 725514" d="M0,0H9.216" transform="translate(1099.859 1040.804)" fill="none" stroke="#000" stroke-width="0.911"/>
    <path id="Trazado_725515" data-name="Trazado 725515" d="M0,0H9.216" transform="translate(1099.859 1038.434)" fill="none" stroke="#000" stroke-width="0.911"/>
    <path id="Trazado_725516" data-name="Trazado 725516" d="M0,0H9.216" transform="translate(1099.859 1036.248)" fill="none" stroke="#000" stroke-width="0.911"/>
    <path id="Trazado_725517" data-name="Trazado 725517" d="M0,0H9.216" transform="translate(1099.859 1034.063)" fill="none" stroke="#000" stroke-width="0.911"/>
    <path id="Trazado_725518" data-name="Trazado 725518" d="M0,0H9.216" transform="translate(1099.859 1031.877)" fill="none" stroke="#000" stroke-width="0.911"/>
    <path id="Trazado_725519" data-name="Trazado 725519" d="M0,0H9.216" transform="translate(1099.859 1029.506)" fill="none" stroke="#000" stroke-width="0.911"/>
    <path id="Trazado_725520" data-name="Trazado 725520" d="M0,0H9.216" transform="translate(1099.859 1026.283)" fill="none" stroke="#000" stroke-width="0.911"/>
    <path id="Trazado_725521" data-name="Trazado 725521" d="M0,0H9.216" transform="translate(1099.859 1023.061)" fill="none" stroke="#000" stroke-width="0.911"/>
    <g id="Grupo_956605" data-name="Grupo 956605" transform="translate(1106.254 1008.929)">
      <text id="_0-3" data-name="0" transform="translate(2.178 5)" fill="#a20b00" font-size="5" font-family="Roboto-Medium, Roboto" font-weight="500"><tspan x="0" y="0">0</tspan></text>
      <text id="_1-3" data-name="1" transform="translate(3.75 19.823)" font-size="5" font-family="Roboto-Medium, Roboto" font-weight="500"><tspan x="0" y="0">1</tspan></text>
      <text id="_2-3" data-name="2" transform="translate(3.75 36.248)" font-size="5" font-family="Roboto-Medium, Roboto" font-weight="500"><tspan x="0" y="0">2</tspan></text>
      <text id="_3-3" data-name="3" transform="translate(3.75 51.207)" font-size="5" font-family="Roboto-Medium, Roboto" font-weight="500"><tspan x="0" y="0">3</tspan></text>
      <text id="_4-3" data-name="4" transform="translate(3.75 65.962)" font-size="5" font-family="Roboto-Medium, Roboto" font-weight="500"><tspan x="0" y="0">4</tspan></text>
      <text id="_5-3" data-name="5" transform="translate(3.75 81.314)" font-size="5" font-family="Roboto-Medium, Roboto" font-weight="500"><tspan x="0" y="0">5</tspan></text>
      <text id="_6-3" data-name="6" transform="translate(3.75 97.227)" font-size="5" font-family="Roboto-Medium, Roboto" font-weight="500"><tspan x="0" y="0">6</tspan></text>
      <text id="_7-3" data-name="7" transform="translate(3.75 111.892)" font-size="5" font-family="Roboto-Medium, Roboto" font-weight="500"><tspan x="0" y="0">7</tspan></text>
      <text id="_8-3" data-name="8" transform="translate(3.75 127.417)" font-size="5" font-family="Roboto-Medium, Roboto" font-weight="500"><tspan x="0" y="0">8</tspan></text>
      <text id="_9-3" data-name="9" transform="translate(3.75 143.153)" font-size="5" font-family="Roboto-Medium, Roboto" font-weight="500"><tspan x="0" y="0">9</tspan></text>
      <text id="_10-3" data-name="10" transform="translate(0 159.312)" font-size="6" font-family="Roboto-Medium, Roboto" font-weight="500"><tspan x="0" y="0">10</tspan></text>
    </g>
    <path id="Trazado_725522" data-name="Trazado 725522" d="M11.992,0c6.623,0,11.992,11.106,11.992,24.806S18.615,49.612,11.992,49.612,0,38.506,0,24.806,5.369,0,11.992,0Z" transform="translate(1094.821 1060.59)" fill="none" stroke="#000" stroke-width="2"/>
    <g id="Grupo_956611" data-name="Grupo 956611" transform="translate(1235.62 982.75)" clip-path="url(#clip-path-2)">
      <g id="Grupo_956610" data-name="Grupo 956610" transform="translate(20.297 -304.797)">
        <g id="Grupo_956608" data-name="Grupo 956608" transform="translate(0 391.844)">
          <g id="Grupo_956607" data-name="Grupo 956607">
            <path id="Trazado_721918" data-name="Trazado 721918" d="M1259.945,711.382v449.106a17.415,17.415,0,0,0,.143,2.035,13.586,13.586,0,0,0-.143,1.8s14.777,68.835,33,68.835,33-68.835,33-68.835a13.586,13.586,0,0,0-.143-1.8,17.415,17.415,0,0,0,.143-2.035V711.382a113.3,113.3,0,0,1-66.01,0Z" transform="translate(-1259.945 -711.382)" fill="silver"/>
          </g>
        </g>
        <path id="Trazado_721919" data-name="Trazado 721919" d="M1328.226,103.75a32.938,32.938,0,0,0-13.92-26.9c.016-.326.049-.648.049-.979V54.828a19.134,19.134,0,1,0-38.268,0V75.875c0,.331.033.653.049.979a32.937,32.937,0,0,0-13.92,26.9V848.414c0,.954.063,1.892.143,2.825-.079.823-.143,1.651-.143,2.492,0,0,14.777,95.578,33.005,95.578s33-95.578,33-95.578c0-.841-.063-1.669-.143-2.492.079-.934.143-1.871.143-2.825Z" transform="translate(-1260.899 -35.694)" fill="none" stroke="#000" stroke-miterlimit="10" stroke-width="4.523"/>
        <line id="Línea_2921" data-name="Línea 2921" x2="66.009" transform="translate(1.318 799.177)" fill="none" stroke="#000" stroke-miterlimit="10" stroke-width="4.523"/>
        <line id="Línea_2922" data-name="Línea 2922" x2="66.009" transform="translate(1.178 729.368)" fill="none" stroke="#000" stroke-miterlimit="10" stroke-width="4.523"/>
        <line id="Línea_2923" data-name="Línea 2923" x2="66.009" transform="translate(1.178 593.3)" fill="none" stroke="#000" stroke-miterlimit="10" stroke-width="4.523"/>
        <line id="Línea_2924" data-name="Línea 2924" x2="66.009" transform="translate(1.178 522.819)" fill="none" stroke="#000" stroke-miterlimit="10" stroke-width="4.523"/>
        <line id="Línea_2925" data-name="Línea 2925" x2="66.009" transform="translate(1.178 452.217)" fill="none" stroke="#000" stroke-miterlimit="10" stroke-width="4.523"/>
        <line id="Línea_2926" data-name="Línea 2926" x2="66.009" transform="translate(1.178 316.669)" fill="none" stroke="#000" stroke-miterlimit="10" stroke-width="4.523"/>
        <line id="Línea_2927" data-name="Línea 2927" x2="66.009" transform="translate(1.178 245.46)" fill="none" stroke="#000" stroke-miterlimit="10" stroke-width="4.523"/>
        <line id="Línea_2928" data-name="Línea 2928" x2="66.009" transform="translate(1.178 109.075)" fill="none" stroke="#000" stroke-miterlimit="10" stroke-width="4.523"/>
        <line id="Línea_2929" data-name="Línea 2929" x2="31.687" transform="translate(1.318 784.983)" fill="none" stroke="#000" stroke-miterlimit="10" stroke-width="3.134"/>
        <line id="Línea_2930" data-name="Línea 2930" x2="31.687" transform="translate(1.318 775.313)" fill="none" stroke="#000" stroke-miterlimit="10" stroke-width="3.134"/>
        <line id="Línea_2931" data-name="Línea 2931" x2="41.686" transform="translate(1.318 759.839)" fill="none" stroke="#000" stroke-miterlimit="10" stroke-width="4.123"/>
        <line id="Línea_2932" data-name="Línea 2932" x2="41.686" transform="translate(1.318 744.366)" fill="none" stroke="#000" stroke-miterlimit="10" stroke-width="4.123"/>
        <line id="Línea_2933" data-name="Línea 2933" x2="41.686" transform="translate(1.318 719.159)" fill="none" stroke="#000" stroke-miterlimit="10" stroke-width="4.123"/>
        <line id="Línea_2934" data-name="Línea 2934" x2="41.686" transform="translate(1.318 704.336)" fill="none" stroke="#000" stroke-miterlimit="10" stroke-width="4.123"/>
        <line id="Línea_2935" data-name="Línea 2935" x2="41.686" transform="translate(1.318 689.512)" fill="none" stroke="#000" stroke-miterlimit="10" stroke-width="4.123"/>
        <line id="Línea_2936" data-name="Línea 2936" x2="41.686" transform="translate(1.318 674.689)" fill="none" stroke="#000" stroke-miterlimit="10" stroke-width="4.123"/>
        <line id="Línea_2937" data-name="Línea 2937" x2="41.686" transform="translate(1.318 663.502)" fill="none" stroke="#000" stroke-miterlimit="10" stroke-width="4.123"/>
        <line id="Línea_2938" data-name="Línea 2938" x2="41.686" transform="translate(1.318 648.678)" fill="none" stroke="#000" stroke-miterlimit="10" stroke-width="4.123"/>
        <line id="Línea_2939" data-name="Línea 2939" x2="41.686" transform="translate(1.318 633.855)" fill="none" stroke="#000" stroke-miterlimit="10" stroke-width="4.123"/>
        <line id="Línea_2940" data-name="Línea 2940" x2="41.686" transform="translate(1.318 617.633)" fill="none" stroke="#000" stroke-miterlimit="10" stroke-width="4.123"/>
        <line id="Línea_2941" data-name="Línea 2941" x2="41.686" transform="translate(1.318 603.089)" fill="none" stroke="#000" stroke-miterlimit="10" stroke-width="4.123"/>
        <line id="Línea_2942" data-name="Línea 2942" x2="41.686" transform="translate(1.318 578.477)" fill="none" stroke="#000" stroke-miterlimit="10" stroke-width="4.123"/>
        <line id="Línea_2943" data-name="Línea 2943" x2="41.686" transform="translate(1.318 563.654)" fill="none" stroke="#000" stroke-miterlimit="10" stroke-width="4.123"/>
        <line id="Línea_2944" data-name="Línea 2944" x2="41.686" transform="translate(1.318 548.83)" fill="none" stroke="#000" stroke-miterlimit="10" stroke-width="4.123"/>
        <line id="Línea_2945" data-name="Línea 2945" x2="41.686" transform="translate(1.318 537.363)" fill="none" stroke="#000" stroke-miterlimit="10" stroke-width="4.123"/>
        <line id="Línea_2946" data-name="Línea 2946" x2="41.686" transform="translate(1.318 506.598)" fill="none" stroke="#000" stroke-miterlimit="10" stroke-width="4.123"/>
        <line id="Línea_2947" data-name="Línea 2947" x2="41.686" transform="translate(2.491 491.774)" fill="none" stroke="#000" stroke-miterlimit="10" stroke-width="4.123"/>
        <line id="Línea_2948" data-name="Línea 2948" x2="41.686" transform="translate(2.491 482.376)" fill="none" stroke="#000" stroke-miterlimit="10" stroke-width="4.123"/>
        <line id="Línea_2949" data-name="Línea 2949" x2="41.686" transform="translate(2.491 467.296)" fill="none" stroke="#000" stroke-miterlimit="10" stroke-width="4.123"/>
        <line id="Línea_2950" data-name="Línea 2950" x2="41.686" transform="translate(2.491 437.137)" fill="none" stroke="#000" stroke-miterlimit="10" stroke-width="4.123"/>
        <line id="Línea_2951" data-name="Línea 2951" x2="41.686" transform="translate(2.491 427.252)" fill="none" stroke="#000" stroke-miterlimit="10" stroke-width="4.123"/>
        <line id="Línea_2952" data-name="Línea 2952" x2="41.686" transform="translate(2.491 412.005)" fill="none" stroke="#000" stroke-miterlimit="10" stroke-width="4.123"/>
        <line id="Línea_2953" data-name="Línea 2953" x2="41.686" transform="translate(2.491 396.758)" fill="none" stroke="#000" stroke-miterlimit="10" stroke-width="4.123"/>
        <line id="Línea_2954" data-name="Línea 2954" x2="41.686" transform="translate(2.491 371.458)" fill="none" stroke="#000" stroke-miterlimit="10" stroke-width="4.123"/>
        <line id="Línea_2955" data-name="Línea 2955" x2="41.686" transform="translate(2.491 356.714)" fill="none" stroke="#000" stroke-miterlimit="10" stroke-width="4.123"/>
        <line id="Línea_2956" data-name="Línea 2956" x2="41.686" transform="translate(2.491 340.629)" fill="none" stroke="#000" stroke-miterlimit="10" stroke-width="4.123"/>
        <line id="Línea_2957" data-name="Línea 2957" x2="41.686" transform="translate(2.491 300.919)" fill="none" stroke="#000" stroke-miterlimit="10" stroke-width="4.123"/>
        <line id="Línea_2958" data-name="Línea 2958" x2="41.686" transform="translate(2.491 291.034)" fill="none" stroke="#000" stroke-miterlimit="10" stroke-width="4.123"/>
        <line id="Línea_2959" data-name="Línea 2959" x2="41.686" transform="translate(2.491 281.148)" fill="none" stroke="#000" stroke-miterlimit="10" stroke-width="4.123"/>
        <line id="Línea_2960" data-name="Línea 2960" x2="41.686" transform="translate(2.491 271.263)" fill="none" stroke="#000" stroke-miterlimit="10" stroke-width="4.123"/>
        <line id="Línea_2961" data-name="Línea 2961" x2="41.686" transform="translate(2.491 260.205)" fill="none" stroke="#000" stroke-miterlimit="10" stroke-width="4.123"/>
        <line id="Línea_2962" data-name="Línea 2962" x2="41.686" transform="translate(2.491 235.742)" fill="none" stroke="#000" stroke-miterlimit="10" stroke-width="4.123"/>
        <line id="Línea_2963" data-name="Línea 2963" x2="41.686" transform="translate(2.491 226.025)" fill="none" stroke="#000" stroke-miterlimit="10" stroke-width="4.123"/>
        <line id="Línea_2964" data-name="Línea 2964" x2="41.686" transform="translate(2.491 215.301)" fill="none" stroke="#000" stroke-miterlimit="10" stroke-width="4.123"/>
        <line id="Línea_2965" data-name="Línea 2965" x2="41.686" transform="translate(2.491 204.578)" fill="none" stroke="#000" stroke-miterlimit="10" stroke-width="4.123"/>
        <line id="Línea_2966" data-name="Línea 2966" x2="41.686" transform="translate(2.491 194.693)" fill="none" stroke="#000" stroke-miterlimit="10" stroke-width="4.123"/>
        <line id="Línea_2967" data-name="Línea 2967" x2="41.686" transform="translate(2.491 184.807)" fill="none" stroke="#000" stroke-miterlimit="10" stroke-width="4.123"/>
        <line id="Línea_2968" data-name="Línea 2968" x2="41.686" transform="translate(2.491 174.922)" fill="none" stroke="#000" stroke-miterlimit="10" stroke-width="4.123"/>
        <line id="Línea_2969" data-name="Línea 2969" x2="41.686" transform="translate(2.491 164.199)" fill="none" stroke="#000" stroke-miterlimit="10" stroke-width="4.123"/>
        <line id="Línea_2970" data-name="Línea 2970" x2="41.686" transform="translate(2.491 149.622)" fill="none" stroke="#000" stroke-miterlimit="10" stroke-width="4.123"/>
        <line id="Línea_2971" data-name="Línea 2971" x2="41.686" transform="translate(2.491 135.045)" fill="none" stroke="#000" stroke-miterlimit="10" stroke-width="4.123"/>
        <g id="Grupo_956609" data-name="Grupo 956609" transform="translate(31.413 72.588)">
          <text id="_0-4" data-name="0" transform="translate(9.85 28)" fill="#a20b00" font-size="30" font-family="Roboto-Medium, Roboto" font-weight="500"><tspan x="0" y="0">0</tspan></text>
          <text id="_1-4" data-name="1" transform="translate(16.963 95.045)" font-size="30" font-family="Roboto-Medium, Roboto" font-weight="500"><tspan x="0" y="0">1</tspan></text>
          <text id="_2-4" data-name="2" transform="translate(16.963 169.338)" font-size="30" font-family="Roboto-Medium, Roboto" font-weight="500"><tspan x="0" y="0">2</tspan></text>
          <text id="_3-4" data-name="3" transform="translate(16.963 236.998)" font-size="30" font-family="Roboto-Medium, Roboto" font-weight="500"><tspan x="0" y="0">3</tspan></text>
          <text id="_4-4" data-name="4" transform="translate(16.963 303.736)" font-size="30" font-family="Roboto-Medium, Roboto" font-weight="500"><tspan x="0" y="0">4</tspan></text>
          <text id="_5-4" data-name="5" transform="translate(16.963 373.171)" font-size="30" font-family="Roboto-Medium, Roboto" font-weight="500"><tspan x="0" y="0">5</tspan></text>
          <text id="_6-4" data-name="6" transform="translate(16.963 445.148)" font-size="30" font-family="Roboto-Medium, Roboto" font-weight="500"><tspan x="0" y="0">6</tspan></text>
          <text id="_7-4" data-name="7" transform="translate(16.963 511.477)" font-size="30" font-family="Roboto-Medium, Roboto" font-weight="500"><tspan x="0" y="0">7</tspan></text>
          <text id="_8-4" data-name="8" transform="translate(16.963 581.701)" font-size="30" font-family="Roboto-Medium, Roboto" font-weight="500"><tspan x="0" y="0">8</tspan></text>
          <text id="_9-4" data-name="9" transform="translate(16.963 652.872)" font-size="30" font-family="Roboto-Medium, Roboto" font-weight="500"><tspan x="0" y="0">9</tspan></text>
          <text id="_10-4" data-name="10" transform="translate(0 721.44)" font-size="30" font-family="Roboto-Medium, Roboto" font-weight="500"><tspan x="0" y="0">10</tspan></text>
        </g>
      </g>
    </g>
    <path id="Trazado_725523" data-name="Trazado 725523" d="M54.241,0C84.2,0,108.482,50.234,108.482,112.2S84.2,224.4,54.241,224.4,0,174.166,0,112.2,24.285,0,54.241,0Z" transform="translate(1235.62 982.75)" fill="none" stroke="#000" stroke-width="4.523"/>
    <path id="Trazado_725455" data-name="Trazado 725455" d="M0,75.55,170.206,0" transform="translate(793.724 984.832)" fill="none" stroke="#000" stroke-width="2"/>
    <path id="Trazado_725456" data-name="Trazado 725456" d="M0,0,170.206,93.2" transform="translate(793.724 1109.994)" fill="none" stroke="#000" stroke-width="2"/>
    <path id="Trazado_725457" data-name="Trazado 725457" d="M0,0,170.206,93.2" transform="translate(1105.158 1109.994)" fill="none" stroke="#000" stroke-width="2"/>
    <path id="Trazado_725458" data-name="Trazado 725458" d="M0,74.751,170.206,0" transform="translate(1105.158 986.074)" fill="none" stroke="#000" stroke-width="2"/>
  </g>
</svg>
