<svg xmlns="http://www.w3.org/2000/svg" width="283.905" height="43.879" viewBox="0 0 283.905 43.879">
  <g id="Grupo_983783" data-name="Grupo 983783" transform="translate(-866.817 -8152.847)">
    <path id="Trazado_725550" data-name="Trazado 725550" d="M6.594,14.016q.172-1.125-1.227-1.672l-.633-.234a5.912,5.912,0,0,1-2.508-1.461,2.613,2.613,0,0,1-.672-1.961,2.949,2.949,0,0,1,.66-1.707A3.85,3.85,0,0,1,3.789,5.844a5.152,5.152,0,0,1,2.078-.375,4.157,4.157,0,0,1,1.891.465A3.059,3.059,0,0,1,9.023,7.16,3.4,3.4,0,0,1,9.43,8.953L7.508,8.945a1.8,1.8,0,0,0-.395-1.383,1.813,1.813,0,0,0-1.355-.516,2.524,2.524,0,0,0-1.543.43,1.719,1.719,0,0,0-.738,1.2Q3.32,9.672,4.8,10.242l.586.211a5.688,5.688,0,0,1,2.5,1.5A2.777,2.777,0,0,1,8.516,14a3.077,3.077,0,0,1-.633,1.676,3.554,3.554,0,0,1-1.535,1.105,5.583,5.583,0,0,1-2.16.375,4.494,4.494,0,0,1-2.027-.469A3.247,3.247,0,0,1,.32,13.555l1.93.008a1.811,1.811,0,0,0,.477,1.492,2.182,2.182,0,0,0,1.547.539,2.7,2.7,0,0,0,1.566-.4A1.673,1.673,0,0,0,6.594,14.016Z" transform="translate(866.5 8160.439)" fill="#12263f"/>
    <path id="Trazado_725551" data-name="Trazado 725551" d="M5.352,12.406H2.727L1.93,17H.453L2.43,5.625l3.422.008a3.814,3.814,0,0,1,2.727.907,2.83,2.83,0,0,1,.789,2.448,3.241,3.241,0,0,1-.777,1.885A4.247,4.247,0,0,1,6.75,12.1l1.766,4.8-.008.1H6.945ZM2.938,11.172l2.156.008a3.012,3.012,0,0,0,1.9-.6,2.326,2.326,0,0,0,.906-1.6,1.837,1.837,0,0,0-.391-1.531,2.087,2.087,0,0,0-1.547-.586L3.688,6.859Z" transform="translate(875.5 8168.38)" fill="#12263f"/>
    <path id="Trazado_725552" data-name="Trazado 725552" d="M7.883,10.906H1.336l.281-1.578H8.156ZM7.3,14.219H.766l.273-1.57H7.586Z" transform="translate(891 8160.439)" fill="#12263f"/>
    <path id="Trazado_725553" data-name="Trazado 725553" d="M7.883,10.906H1.336l.281-1.578H8.156ZM7.3,14.219H.766l.273-1.57H7.586Z" transform="translate(971 8160.953)" fill="#12263f"/>
    <path id="Trazado_725554" data-name="Trazado 725554" d="M16.414,17H14.57l1.578-9.094-2.875.953.289-1.68,4.5-1.594h.281Zm8.9,0H23.469l1.578-9.094-2.875.953.289-1.68,4.5-1.594h.281Zm3.953,2.563-.992-.625a6.077,6.077,0,0,0,1.133-2.164l.289-1.609h1.664l-.2,1.258A4.8,4.8,0,0,1,29.266,19.563Zm5.359-4.078a4.168,4.168,0,0,0,2.7-.8,4.872,4.872,0,0,0,1.555-2.449,3.144,3.144,0,0,1-2.25,1.016,2.642,2.642,0,0,1-1.531-.48,2.759,2.759,0,0,1-.969-1.34A4.442,4.442,0,0,1,33.9,9.492a4.889,4.889,0,0,1,.66-2.078,4,4,0,0,1,1.449-1.461,3.6,3.6,0,0,1,1.945-.484,2.986,2.986,0,0,1,1.59.465,2.907,2.907,0,0,1,1.051,1.258,4.978,4.978,0,0,1,.43,1.824,9.824,9.824,0,0,1-.18,2.086A7.618,7.618,0,0,1,38.7,15.523a5.873,5.873,0,0,1-4.172,1.531h-.172l.148-1.578Zm2.461-3.711a1.888,1.888,0,0,0,1.094-.316,2.977,2.977,0,0,0,.891-.918l.1-.758.031-.547a3.087,3.087,0,0,0-.32-1.613,1.184,1.184,0,0,0-1.031-.629,1.781,1.781,0,0,0-1.6.938,3.513,3.513,0,0,0-.508,2.281,1.936,1.936,0,0,0,.406,1.117A1.227,1.227,0,0,0,37.086,11.773Z" transform="translate(906.5 8147.38)" fill="#12263f"/>
    <path id="Trazado_725555" data-name="Trazado 725555" d="M3.918,17.156a2.72,2.72,0,0,1-2.234-1.02,4.363,4.363,0,0,1-.734-2.77,10.776,10.776,0,0,1,.078-1.156l.3-2.031a6.729,6.729,0,0,1,1.477-3.57A3.564,3.564,0,0,1,5.637,5.469a2.746,2.746,0,0,1,2.23,1,4.264,4.264,0,0,1,.738,2.75,10.6,10.6,0,0,1-.078,1.156l-.3,1.977A7.069,7.069,0,0,1,6.742,16,3.511,3.511,0,0,1,3.918,17.156Zm2.8-7.086q.1-.891.1-1.266-.039-1.766-1.289-1.82A1.753,1.753,0,0,0,4,7.68a4.994,4.994,0,0,0-.812,2.336l-.359,2.477a10.172,10.172,0,0,0-.086,1.273q0,1.828,1.281,1.883,1.766.1,2.273-2.758Zm2.414,9.492-.992-.625a6.077,6.077,0,0,0,1.133-2.164l.289-1.609H11.23l-.2,1.258A4.8,4.8,0,0,1,9.137,19.563Zm7.172-2.406a2.72,2.72,0,0,1-2.234-1.02,4.363,4.363,0,0,1-.734-2.77,10.776,10.776,0,0,1,.078-1.156l.3-2.031A6.729,6.729,0,0,1,15.2,6.609a3.564,3.564,0,0,1,2.828-1.141,2.746,2.746,0,0,1,2.23,1A4.264,4.264,0,0,1,21,9.219a10.6,10.6,0,0,1-.078,1.156l-.3,1.977A7.069,7.069,0,0,1,19.133,16,3.511,3.511,0,0,1,16.309,17.156Zm2.8-7.086q.1-.891.1-1.266-.039-1.766-1.289-1.82a1.753,1.753,0,0,0-1.531.7,4.994,4.994,0,0,0-.812,2.336l-.359,2.477a10.172,10.172,0,0,0-.086,1.273q0,1.828,1.281,1.883,1.766.1,2.273-2.758Zm9.3,2.875h1.375l-.266,1.523H28.16L27.715,17H25.863l.438-2.531H21.535l.164-1.25,6.016-7.594h1.977Zm-4.672,0h2.82l.883-4.773-.187.266ZM38.832,8.563a3.192,3.192,0,0,1-2,2.625,2.817,2.817,0,0,1,1.035,1.133,2.87,2.87,0,0,1,.277,1.516,3.3,3.3,0,0,1-1.227,2.426,4.116,4.116,0,0,1-2.789.895,3.413,3.413,0,0,1-2.41-.9,2.751,2.751,0,0,1-.793-2.285A3.4,3.4,0,0,1,33.2,11.094a2.576,2.576,0,0,1-.867-1.051A2.8,2.8,0,0,1,32.1,8.7a3.3,3.3,0,0,1,1.156-2.363,3.743,3.743,0,0,1,2.6-.863,3.518,3.518,0,0,1,1.637.414,2.509,2.509,0,0,1,1.059,1.094A2.956,2.956,0,0,1,38.832,8.563Zm-2.516,5.18a1.753,1.753,0,0,0-.3-1.3,1.37,1.37,0,0,0-1.125-.527,1.92,1.92,0,0,0-1.414.543,2.218,2.218,0,0,0-.68,1.41,1.658,1.658,0,0,0,.313,1.285,1.422,1.422,0,0,0,1.125.5,1.937,1.937,0,0,0,1.418-.523A2.156,2.156,0,0,0,36.316,13.742Zm.656-5.117a1.647,1.647,0,0,0-.262-1.164,1.168,1.168,0,0,0-.98-.477,1.609,1.609,0,0,0-1.215.484,2.077,2.077,0,0,0-.59,1.3,1.638,1.638,0,0,0,.266,1.18,1.179,1.179,0,0,0,.969.461,1.606,1.606,0,0,0,1.223-.492A2.1,2.1,0,0,0,36.973,8.625ZM47.73,8.563a3.192,3.192,0,0,1-2,2.625,2.817,2.817,0,0,1,1.035,1.133,2.87,2.87,0,0,1,.277,1.516,3.3,3.3,0,0,1-1.227,2.426,4.116,4.116,0,0,1-2.789.895,3.413,3.413,0,0,1-2.41-.9,2.751,2.751,0,0,1-.793-2.285A3.4,3.4,0,0,1,42.1,11.094a2.576,2.576,0,0,1-.867-1.051A2.8,2.8,0,0,1,41,8.7a3.3,3.3,0,0,1,1.156-2.363,3.743,3.743,0,0,1,2.6-.863,3.518,3.518,0,0,1,1.637.414,2.509,2.509,0,0,1,1.059,1.094A2.956,2.956,0,0,1,47.73,8.563Zm-2.516,5.18a1.753,1.753,0,0,0-.3-1.3,1.37,1.37,0,0,0-1.125-.527,1.92,1.92,0,0,0-1.414.543,2.218,2.218,0,0,0-.68,1.41A1.658,1.658,0,0,0,42,15.152a1.422,1.422,0,0,0,1.125.5,1.937,1.937,0,0,0,1.418-.523A2.156,2.156,0,0,0,45.215,13.742Zm.656-5.117a1.647,1.647,0,0,0-.262-1.164,1.168,1.168,0,0,0-.98-.477,1.609,1.609,0,0,0-1.215.484,2.077,2.077,0,0,0-.59,1.3,1.638,1.638,0,0,0,.266,1.18,1.179,1.179,0,0,0,.969.461,1.606,1.606,0,0,0,1.223-.492A2.1,2.1,0,0,0,45.871,8.625Zm9.242,4.32h1.375l-.266,1.523H54.855L54.41,17H52.559L53,14.469H48.23l.164-1.25L54.41,5.625h1.977Zm-4.672,0h2.82l.883-4.773-.187.266Zm8.07-1.609L60,5.625h5.953L65.7,7.266H61.316l-.8,2.727a3.449,3.449,0,0,1,1.734-.453A2.64,2.64,0,0,1,64.469,10.6a3.859,3.859,0,0,1,.637,2.711,4.19,4.19,0,0,1-1.281,2.8A3.823,3.823,0,0,1,61,17.164,3.237,3.237,0,0,1,58.7,16.25a3.3,3.3,0,0,1-.934-2.328h1.773a2.047,2.047,0,0,0,.449,1.246,1.439,1.439,0,0,0,1.105.465A1.811,1.811,0,0,0,62.547,15a3.023,3.023,0,0,0,.707-1.75,2.292,2.292,0,0,0-.32-1.566A1.439,1.439,0,0,0,61.7,11.07a2.018,2.018,0,0,0-.895.16,3.311,3.311,0,0,0-.77.488Zm7.844,4.75a1.052,1.052,0,0,1,.3-.777,1.1,1.1,0,0,1,.77-.316,1.021,1.021,0,0,1,.77.277.993.993,0,0,1,.309.754,1.03,1.03,0,0,1-.3.754,1.092,1.092,0,0,1-.773.316,1.028,1.028,0,0,1-.77-.273A.962.962,0,0,1,66.355,16.086Zm3.469,0a1.052,1.052,0,0,1,.3-.777,1.1,1.1,0,0,1,.77-.316,1.021,1.021,0,0,1,.77.277.993.993,0,0,1,.309.754,1.03,1.03,0,0,1-.3.754,1.092,1.092,0,0,1-.773.316,1.028,1.028,0,0,1-.77-.273A.962.962,0,0,1,69.824,16.086Zm3.344,0a1.052,1.052,0,0,1,.3-.777,1.1,1.1,0,0,1,.77-.316,1.021,1.021,0,0,1,.77.277.993.993,0,0,1,.309.754,1.03,1.03,0,0,1-.3.754,1.092,1.092,0,0,1-.773.316,1.028,1.028,0,0,1-.77-.273A.962.962,0,0,1,73.168,16.086Zm4.2,0a1.052,1.052,0,0,1,.3-.777,1.1,1.1,0,0,1,.77-.316,1.021,1.021,0,0,1,.77.277.993.993,0,0,1,.309.754,1.03,1.03,0,0,1-.3.754,1.092,1.092,0,0,1-.773.316,1.028,1.028,0,0,1-.77-.273A.962.962,0,0,1,77.371,16.086Zm4.414,0a1.052,1.052,0,0,1,.3-.777,1.1,1.1,0,0,1,.77-.316,1.021,1.021,0,0,1,.77.277.993.993,0,0,1,.309.754,1.03,1.03,0,0,1-.3.754,1.092,1.092,0,0,1-.773.316,1.028,1.028,0,0,1-.77-.273A.962.962,0,0,1,81.785,16.086Z" transform="translate(989 8160.953)" fill="#12263f"/>
    <path id="Trazado_725556" data-name="Trazado 725556" d="M4.25,17.156a2.72,2.72,0,0,1-2.234-1.02,4.363,4.363,0,0,1-.734-2.77,10.776,10.776,0,0,1,.078-1.156l.3-2.031a6.729,6.729,0,0,1,1.477-3.57A3.564,3.564,0,0,1,5.969,5.469a2.746,2.746,0,0,1,2.23,1,4.264,4.264,0,0,1,.738,2.75,10.6,10.6,0,0,1-.078,1.156l-.3,1.977A7.069,7.069,0,0,1,7.074,16,3.511,3.511,0,0,1,4.25,17.156Zm2.8-7.086q.1-.891.1-1.266-.039-1.766-1.289-1.82a1.753,1.753,0,0,0-1.531.7,4.994,4.994,0,0,0-.812,2.336l-.359,2.477a10.172,10.172,0,0,0-.086,1.273q0,1.828,1.281,1.883,1.766.1,2.273-2.758Zm2.414,9.492-.992-.625a6.077,6.077,0,0,0,1.133-2.164L9.9,15.164h1.664l-.2,1.258A4.8,4.8,0,0,1,9.469,19.563Zm7.172-2.406a2.72,2.72,0,0,1-2.234-1.02,4.363,4.363,0,0,1-.734-2.77,10.776,10.776,0,0,1,.078-1.156l.3-2.031a6.729,6.729,0,0,1,1.477-3.57,3.564,3.564,0,0,1,2.828-1.141,2.746,2.746,0,0,1,2.23,1,4.264,4.264,0,0,1,.738,2.75,10.6,10.6,0,0,1-.078,1.156l-.3,1.977A7.069,7.069,0,0,1,19.465,16,3.511,3.511,0,0,1,16.641,17.156Zm2.8-7.086q.1-.891.1-1.266-.039-1.766-1.289-1.82a1.753,1.753,0,0,0-1.531.7,4.994,4.994,0,0,0-.812,2.336l-.359,2.477a10.172,10.172,0,0,0-.086,1.273q0,1.828,1.281,1.883,1.766.1,2.273-2.758Zm9.3,2.875h1.375l-.266,1.523H28.492L28.047,17H26.2l.438-2.531H21.867l.164-1.25,6.016-7.594h1.977Zm-4.672,0H26.9l.883-4.773-.187.266ZM39.164,8.563a3.192,3.192,0,0,1-2,2.625A2.817,2.817,0,0,1,38.2,12.32a2.87,2.87,0,0,1,.277,1.516,3.3,3.3,0,0,1-1.227,2.426,4.116,4.116,0,0,1-2.789.895,3.413,3.413,0,0,1-2.41-.9,2.751,2.751,0,0,1-.793-2.285,3.4,3.4,0,0,1,2.273-2.875,2.576,2.576,0,0,1-.867-1.051A2.8,2.8,0,0,1,32.43,8.7a3.3,3.3,0,0,1,1.156-2.363,3.743,3.743,0,0,1,2.6-.863,3.518,3.518,0,0,1,1.637.414,2.509,2.509,0,0,1,1.059,1.094A2.956,2.956,0,0,1,39.164,8.563Zm-2.516,5.18a1.753,1.753,0,0,0-.3-1.3,1.37,1.37,0,0,0-1.125-.527,1.92,1.92,0,0,0-1.414.543,2.218,2.218,0,0,0-.68,1.41,1.658,1.658,0,0,0,.313,1.285,1.422,1.422,0,0,0,1.125.5,1.937,1.937,0,0,0,1.418-.523A2.156,2.156,0,0,0,36.648,13.742ZM37.3,8.625a1.647,1.647,0,0,0-.262-1.164,1.168,1.168,0,0,0-.98-.477,1.609,1.609,0,0,0-1.215.484,2.077,2.077,0,0,0-.59,1.3,1.638,1.638,0,0,0,.266,1.18,1.179,1.179,0,0,0,.969.461,1.606,1.606,0,0,0,1.223-.492A2.1,2.1,0,0,0,37.3,8.625Zm10.758-.062a3.192,3.192,0,0,1-2,2.625A2.817,2.817,0,0,1,47.1,12.32a2.87,2.87,0,0,1,.277,1.516,3.3,3.3,0,0,1-1.227,2.426,4.116,4.116,0,0,1-2.789.895,3.413,3.413,0,0,1-2.41-.9,2.751,2.751,0,0,1-.793-2.285,3.4,3.4,0,0,1,2.273-2.875,2.576,2.576,0,0,1-.867-1.051A2.8,2.8,0,0,1,41.328,8.7a3.3,3.3,0,0,1,1.156-2.363,3.743,3.743,0,0,1,2.6-.863,3.518,3.518,0,0,1,1.637.414,2.509,2.509,0,0,1,1.059,1.094A2.956,2.956,0,0,1,48.063,8.563Zm-2.516,5.18a1.753,1.753,0,0,0-.3-1.3,1.37,1.37,0,0,0-1.125-.527,1.92,1.92,0,0,0-1.414.543,2.218,2.218,0,0,0-.68,1.41,1.658,1.658,0,0,0,.313,1.285,1.422,1.422,0,0,0,1.125.5,1.937,1.937,0,0,0,1.418-.523A2.156,2.156,0,0,0,45.547,13.742ZM46.2,8.625a1.647,1.647,0,0,0-.262-1.164,1.168,1.168,0,0,0-.98-.477,1.609,1.609,0,0,0-1.215.484,2.077,2.077,0,0,0-.59,1.3,1.638,1.638,0,0,0,.266,1.18,1.179,1.179,0,0,0,.969.461,1.606,1.606,0,0,0,1.223-.492A2.1,2.1,0,0,0,46.2,8.625Z" transform="translate(1102.648 8160.953)" fill="#12263f"/>
    <path id="Trazado_725557" data-name="Trazado 725557" d="M8.973,17H1.543l.219-1.383,4.727-4.539A4.315,4.315,0,0,0,7.941,8.742,1.675,1.675,0,0,0,7.691,7.5a1.283,1.283,0,0,0-1.055-.527,1.915,1.915,0,0,0-1.461.543,2.542,2.542,0,0,0-.719,1.566l-1.844.008A3.844,3.844,0,0,1,3.25,7.211a3.8,3.8,0,0,1,1.484-1.3,4.194,4.194,0,0,1,2-.441,3.358,3.358,0,0,1,2.348.859,2.644,2.644,0,0,1,.762,2.219,5.665,5.665,0,0,1-1.914,3.367l-.484.477L4.16,15.484H9.215Zm8.336-4.055h1.375l-.266,1.523H17.051L16.605,17H14.754l.438-2.531H10.426l.164-1.25,6.016-7.594h1.977Zm-4.672,0h2.82l.883-4.773-.187.266Zm9.867-2.5,1.008.008a2.346,2.346,0,0,0,1.523-.492,1.867,1.867,0,0,0,.7-1.312,1.559,1.559,0,0,0-.281-1.215,1.383,1.383,0,0,0-1.094-.457,1.871,1.871,0,0,0-1.273.43,1.815,1.815,0,0,0-.648,1.172l-1.852.008a3.09,3.09,0,0,1,.6-1.633A3.463,3.463,0,0,1,22.57,5.848a4.348,4.348,0,0,1,1.848-.379,3.4,3.4,0,0,1,2.4.887A2.761,2.761,0,0,1,27.6,8.648a2.533,2.533,0,0,1-.578,1.434A4.2,4.2,0,0,1,25.5,11.2a2.364,2.364,0,0,1,1.438,2.172v.375a3.38,3.38,0,0,1-1.254,2.484,4.156,4.156,0,0,1-2.824.922,3.721,3.721,0,0,1-1.727-.41,2.82,2.82,0,0,1-1.176-1.133,3.128,3.128,0,0,1-.379-1.668l1.844.008A1.65,1.65,0,0,0,21.8,15.16a1.55,1.55,0,0,0,1.176.48,1.988,1.988,0,0,0,1.449-.5,2.093,2.093,0,0,0,.691-1.391,1.546,1.546,0,0,0-.355-1.32,1.816,1.816,0,0,0-1.293-.477l-1.2-.008Zm5.711,9.117-.992-.625a6.077,6.077,0,0,0,1.133-2.164l.289-1.609h1.664l-.2,1.258A4.8,4.8,0,0,1,28.215,19.563ZM33.1,11.336,34.59,5.625h5.953l-.258,1.641H35.9l-.8,2.727a3.449,3.449,0,0,1,1.734-.453A2.64,2.64,0,0,1,39.055,10.6a3.859,3.859,0,0,1,.637,2.711,4.19,4.19,0,0,1-1.281,2.8,3.823,3.823,0,0,1-2.82,1.055,3.237,3.237,0,0,1-2.309-.914,3.3,3.3,0,0,1-.934-2.328h1.773a2.047,2.047,0,0,0,.449,1.246,1.439,1.439,0,0,0,1.105.465A1.811,1.811,0,0,0,37.133,15a3.023,3.023,0,0,0,.707-1.75,2.292,2.292,0,0,0-.32-1.566,1.439,1.439,0,0,0-1.234-.613,2.018,2.018,0,0,0-.895.16,3.311,3.311,0,0,0-.77.488Z" transform="translate(912.5 8177.163)" fill="#12263f"/>
    <path id="Trazado_721369" data-name="Trazado 721369" d="M17814.5-4923.5h52.922" transform="translate(-16907.92 13096.271)" fill="none" stroke="#000" stroke-width="1"/>
    <g id="Grupo_948220" data-name="Grupo 948220" transform="translate(125.006 -68.62)">
      <path id="Trazado_721372" data-name="Trazado 721372" d="M17766-3463l5.145,5.145-5.145,5.145" transform="translate(-16799.504 11700)" fill="none" stroke="#000" stroke-width="2"/>
      <path id="Trazado_721373" data-name="Trazado 721373" d="M17742.994-3452.71h16.363" transform="translate(-16788 11694.854)" fill="none" stroke="#000" stroke-width="2"/>
      <path id="Trazado_721374" data-name="Trazado 721374" d="M17742.994-3463v10.569" transform="translate(-16788 11700)" fill="none" stroke="#000" stroke-width="2"/>
    </g>
  </g>
</svg>
