<svg xmlns="http://www.w3.org/2000/svg" width="245.695" height="74.673" viewBox="0 0 245.695 74.673">
  <g id="Grupo_983779" data-name="Grupo 983779" transform="translate(-908.305 -6596.327)">
    <path id="Trazado_725525" data-name="Trazado 725525" d="M.3,17,2.273,5.625l3.078.008A4.213,4.213,0,0,1,7.8,6.34,3.975,3.975,0,0,1,9.289,8.293a5.822,5.822,0,0,1,.281,2.746l-.086.617a6.82,6.82,0,0,1-1.035,2.785,5.569,5.569,0,0,1-2.066,1.887A5.839,5.839,0,0,1,3.6,17ZM3.93,7.219l-1.422,8.2,1.141.008a3.554,3.554,0,0,0,2.566-.98,4.709,4.709,0,0,0,1.309-2.707,9.127,9.127,0,0,0,.148-2.07A2.787,2.787,0,0,0,7.012,7.9a2.209,2.209,0,0,0-1.637-.672Zm10.242,9.938a3.541,3.541,0,0,1-1.91-.555,3.156,3.156,0,0,1-1.2-1.453,4.32,4.32,0,0,1-.293-2.055l.023-.32a5.657,5.657,0,0,1,.754-2.316A4.3,4.3,0,0,1,13.078,8.9a3.713,3.713,0,0,1,1.984-.508,2.769,2.769,0,0,1,2.379,1.182,4.337,4.337,0,0,1,.6,3l-.109.814h-5.32A2.3,2.3,0,0,0,13.016,15a1.61,1.61,0,0,0,1.313.631,2.847,2.847,0,0,0,2.2-1.039l.938.984a3.563,3.563,0,0,1-1.4,1.176A4.166,4.166,0,0,1,14.172,17.156Zm.789-7.25q-1.469-.047-2.2,2.078l3.508.008.031-.164a2.451,2.451,0,0,0,.008-.7,1.438,1.438,0,0,0-.437-.875A1.385,1.385,0,0,0,14.961,9.906Zm8.844,4.75q.133-.773-1-1.074a12.763,12.763,0,0,1-1.551-.48A2.138,2.138,0,0,1,19.7,11.008,2.378,2.378,0,0,1,20.73,9.121a3.794,3.794,0,0,1,2.387-.73,3.266,3.266,0,0,1,2.191.758,2.417,2.417,0,0,1,.832,1.945L24.3,11.086a1.185,1.185,0,0,0-.32-.918,1.307,1.307,0,0,0-.922-.348,1.817,1.817,0,0,0-1.059.3,1.135,1.135,0,0,0-.512.8q-.109.711,1,.988a10.976,10.976,0,0,1,1.641.512,2.14,2.14,0,0,1,1.492,2.125,2.336,2.336,0,0,1-.527,1.4,3.077,3.077,0,0,1-1.309.914,4.477,4.477,0,0,1-1.742.293,3.437,3.437,0,0,1-2.293-.8,2.512,2.512,0,0,1-.895-2.023l1.789.008a1.361,1.361,0,0,0,.406,1.031,1.57,1.57,0,0,0,1.07.359,2.126,2.126,0,0,0,1.145-.285A1.094,1.094,0,0,0,23.8,14.656Zm6.359-.086,2.672-6.023h1.977L30.648,17H29.039L27.492,8.547h1.859Zm6.4,2.43H34.711L36.18,8.547h1.852ZM36.445,6.383a1.044,1.044,0,0,1,.281-.734,1.03,1.03,0,0,1,.758-.32.985.985,0,0,1,.754.277.96.96,0,0,1,.3.715.988.988,0,0,1-.293.734,1.074,1.074,0,0,1-.746.3,1,1,0,0,1-.75-.27A.929.929,0,0,1,36.445,6.383ZM43.656,17a2.507,2.507,0,0,1-.078-.789,3.134,3.134,0,0,1-2.258.945,2.589,2.589,0,0,1-1.824-.707A2.18,2.18,0,0,1,38.82,14.7a2.588,2.588,0,0,1,1.156-2.1,5.034,5.034,0,0,1,2.938-.766l1.2.016.109-.578a1.744,1.744,0,0,0,0-.57,1.017,1.017,0,0,0-1.117-.867,1.685,1.685,0,0,0-1.043.3,1.3,1.3,0,0,0-.551.848l-1.852.016a2.318,2.318,0,0,1,.555-1.371A3.289,3.289,0,0,1,41.547,8.7a4.5,4.5,0,0,1,1.75-.312,2.956,2.956,0,0,1,2.156.832,2.466,2.466,0,0,1,.641,2.074l-.648,3.961-.062.7a2.5,2.5,0,0,0,.117.9L45.492,17ZM41.75,15.641a2.041,2.041,0,0,0,1.086-.27,2.861,2.861,0,0,0,.852-.738l.289-1.6-.883-.008a3.1,3.1,0,0,0-1.672.395,1.447,1.447,0,0,0-.711,1.082.957.957,0,0,0,.23.824A1.127,1.127,0,0,0,41.75,15.641Zm9.047.008a1.81,1.81,0,0,0,1.828-1.437l1.75-.008a2.993,2.993,0,0,1-.605,1.523,3.52,3.52,0,0,1-1.332,1.07,3.7,3.7,0,0,1-1.7.359,3.184,3.184,0,0,1-1.852-.562,3.11,3.11,0,0,1-1.117-1.512,4.836,4.836,0,0,1-.234-2.152l.023-.273a5.531,5.531,0,0,1,.715-2.223,4.173,4.173,0,0,1,1.5-1.535,3.766,3.766,0,0,1,2.047-.508,2.957,2.957,0,0,1,2.2.91,3.215,3.215,0,0,1,.82,2.285H53.109a1.889,1.889,0,0,0-.355-1.187,1.3,1.3,0,0,0-1.027-.492,1.876,1.876,0,0,0-1.711.922,5.146,5.146,0,0,0-.672,2.688Q49.289,15.617,50.8,15.648ZM57.281,17H55.43L56.9,8.547H58.75ZM57.164,6.383a1.044,1.044,0,0,1,.281-.734,1.03,1.03,0,0,1,.758-.32.985.985,0,0,1,.754.277.96.96,0,0,1,.3.715.988.988,0,0,1-.293.734,1.074,1.074,0,0,1-.746.3,1,1,0,0,1-.75-.27A.929.929,0,0,1,57.164,6.383ZM59.8,12.742a5.562,5.562,0,0,1,.73-2.258,4.335,4.335,0,0,1,1.535-1.57,3.794,3.794,0,0,1,2.078-.523,3.139,3.139,0,0,1,3.027,2.117,4.887,4.887,0,0,1,.254,2.172,5.665,5.665,0,0,1-.73,2.375,4.319,4.319,0,0,1-1.547,1.582,3.848,3.848,0,0,1-2.09.52,3.136,3.136,0,0,1-3.016-2.105,4.824,4.824,0,0,1-.266-2.145Zm1.82,1.07a2.232,2.232,0,0,0,.434,1.316,1.387,1.387,0,0,0,1.1.52,1.948,1.948,0,0,0,1.6-.734,3.863,3.863,0,0,0,.809-2.07l.047-.766a2.7,2.7,0,0,0-.4-1.57,1.4,1.4,0,0,0-1.156-.6,2.024,2.024,0,0,0-1.875,1.164,4.349,4.349,0,0,0-.523,1.672A6.541,6.541,0,0,0,61.617,13.813ZM65.227,5h2.227L64.984,7.367l-1.609,0Zm6.219,3.539-.187.992a3.226,3.226,0,0,1,2.508-1.141,2.044,2.044,0,0,1,1.758.848,3.383,3.383,0,0,1,.422,2.3L75.031,17H73.18l.922-5.484a2.806,2.806,0,0,0,.008-.625A1,1,0,0,0,73,9.938a2.25,2.25,0,0,0-1.852,1.039L70.094,17H68.242L69.7,8.547Zm12.672,0-.164.9a3.259,3.259,0,0,1,2.5-1.047,2.427,2.427,0,0,1,1.324.367,1.738,1.738,0,0,1,.715.93,3.406,3.406,0,0,1,2.688-1.3,2.195,2.195,0,0,1,1.832.848,3.235,3.235,0,0,1,.449,2.285L92.547,17H90.7l.922-5.492a2.879,2.879,0,0,0,.008-.633,1.034,1.034,0,0,0-1.156-.937A1.949,1.949,0,0,0,88.656,11.2l-.023.172L87.664,17H85.8l.922-5.469a2.806,2.806,0,0,0,.008-.625,1.043,1.043,0,0,0-1.156-.969,2.042,2.042,0,0,0-1.734.93L82.773,17H80.922l1.461-8.453Zm14.219,8.617a3.541,3.541,0,0,1-1.91-.555,3.156,3.156,0,0,1-1.2-1.453,4.32,4.32,0,0,1-.293-2.055l.023-.32a5.657,5.657,0,0,1,.754-2.316A4.3,4.3,0,0,1,97.242,8.9a3.713,3.713,0,0,1,1.984-.508,2.769,2.769,0,0,1,2.379,1.182,4.337,4.337,0,0,1,.6,3l-.109.814h-5.32A2.3,2.3,0,0,0,97.18,15a1.61,1.61,0,0,0,1.313.631,2.847,2.847,0,0,0,2.2-1.039l.938.984a3.563,3.563,0,0,1-1.4,1.176A4.166,4.166,0,0,1,98.336,17.156Zm.789-7.25q-1.469-.047-2.2,2.078l3.508.008.031-.164a2.451,2.451,0,0,0,.008-.7,1.437,1.437,0,0,0-.437-.875A1.385,1.385,0,0,0,99.125,9.906Zm4.2,2.859a6.7,6.7,0,0,1,.7-2.344,3.968,3.968,0,0,1,1.352-1.551,3.121,3.121,0,0,1,1.789-.488,2.5,2.5,0,0,1,2.016.961L109.992,5h1.859l-2.086,12h-1.656l.125-.875a2.946,2.946,0,0,1-2.312,1.039,2.325,2.325,0,0,1-1.887-.91,3.975,3.975,0,0,1-.762-2.379,6.316,6.316,0,0,1,.023-.945Zm1.8.727a2.6,2.6,0,0,0,.3,1.539,1.2,1.2,0,0,0,1.059.586,2.175,2.175,0,0,0,1.852-1.039l.633-3.633a1.445,1.445,0,0,0-1.422-1.008,1.9,1.9,0,0,0-1.711.938A5,5,0,0,0,105.117,13.492Zm8.6,3.508h-1.852l1.469-8.453h1.852ZM113.6,6.383a1.044,1.044,0,0,1,.281-.734,1.03,1.03,0,0,1,.758-.32.985.985,0,0,1,.754.277.96.96,0,0,1,.3.715.988.988,0,0,1-.293.734,1.074,1.074,0,0,1-.746.3,1,1,0,0,1-.75-.27A.929.929,0,0,1,113.6,6.383ZM120.813,17a2.507,2.507,0,0,1-.078-.789,3.134,3.134,0,0,1-2.258.945,2.589,2.589,0,0,1-1.824-.707,2.18,2.18,0,0,1-.676-1.754,2.588,2.588,0,0,1,1.156-2.1,5.034,5.034,0,0,1,2.938-.766l1.2.016.109-.578a1.744,1.744,0,0,0,0-.57,1.017,1.017,0,0,0-1.117-.867,1.685,1.685,0,0,0-1.043.3,1.3,1.3,0,0,0-.551.848l-1.852.016a2.318,2.318,0,0,1,.555-1.371A3.289,3.289,0,0,1,118.7,8.7a4.5,4.5,0,0,1,1.75-.312,2.956,2.956,0,0,1,2.156.832,2.466,2.466,0,0,1,.641,2.074l-.648,3.961-.062.7a2.5,2.5,0,0,0,.117.9l-.008.141Zm-1.906-1.359a2.041,2.041,0,0,0,1.086-.27,2.861,2.861,0,0,0,.852-.738l.289-1.6-.883-.008a3.1,3.1,0,0,0-1.672.395,1.447,1.447,0,0,0-.711,1.082.957.957,0,0,0,.23.824A1.127,1.127,0,0,0,118.906,15.641Zm17.063-4.734h-6.547l.281-1.578h6.539Zm-.578,3.313h-6.539l.273-1.57h6.547Z" transform="translate(908 6623)" fill="#12263f"/>
    <path id="Trazado_725526" data-name="Trazado 725526" d="M2.094,17H.242L1.711,8.547H3.563ZM1.977,6.383a1.044,1.044,0,0,1,.281-.734,1.03,1.03,0,0,1,.758-.32.985.985,0,0,1,.754.277.96.96,0,0,1,.3.715.988.988,0,0,1-.293.734,1.074,1.074,0,0,1-.746.3,1,1,0,0,1-.75-.27A.929.929,0,0,1,1.977,6.383Z" transform="translate(1077 6591)" fill="#12263f"/>
    <path id="Trazado_725527" data-name="Trazado 725527" d="M2.094,17H.242L1.711,8.547H3.563ZM1.977,6.383a1.044,1.044,0,0,1,.281-.734,1.03,1.03,0,0,1,.758-.32.985.985,0,0,1,.754.277.96.96,0,0,1,.3.715.988.988,0,0,1-.293.734,1.074,1.074,0,0,1-.746.3,1,1,0,0,1-.75-.27A.929.929,0,0,1,1.977,6.383Z" transform="translate(1106 6654)" fill="#12263f"/>
    <path id="Trazado_725528" data-name="Trazado 725528" d="M5.008,17H3.164L4.742,7.906l-2.875.953.289-1.68,4.5-1.594h.281Z" transform="translate(1074 6631)" fill="#12263f"/>
    <g id="Grupo_948111" data-name="Grupo 948111" transform="translate(59 -30)">
      <text id="_Xi_-_X_" data-name="│Xi - X│" transform="translate(1025 6636)" fill="#12263f" font-size="16" font-family="SegoeUISymbol, Segoe UI Symbol"><tspan x="0" y="17">│</tspan><tspan y="17" font-family="Roboto-MediumItalic, Roboto" font-weight="500" font-style="italic">Xi - X</tspan><tspan y="17">│</tspan></text>
      <path id="Trazado_721307" data-name="Trazado 721307" d="M17852.807-5006.181h8.469" transform="translate(-16783.766 11644)" fill="none" stroke="#000" stroke-width="1"/>
    </g>
    <path id="Trazado_721308" data-name="Trazado 721308" d="M17798.584-5162.409h-11l5.912,8.956-5.912,10.371h11" transform="translate(-16714.584 11774.082)" fill="none" stroke="#000" stroke-width="2"/>
    <path id="Trazado_721309" data-name="Trazado 721309" d="M17814.5-4923.5h83.361" transform="translate(-16747 11577)" fill="none" stroke="#000" stroke-width="1"/>
  </g>
</svg>
