<svg xmlns="http://www.w3.org/2000/svg" xmlns:xlink="http://www.w3.org/1999/xlink" width="820" height="185.869" viewBox="0 0 820 185.869">
  <defs>
    <linearGradient id="linear-gradient" y1="0.5" x2="1" y2="0.5" gradientUnits="objectBoundingBox">
      <stop offset="0" stop-color="#ef1c24"/>
      <stop offset="0.022" stop-color="#ef1e24"/>
      <stop offset="0.037" stop-color="#ef2724"/>
      <stop offset="0.05" stop-color="#f03624"/>
      <stop offset="0.061" stop-color="#f14b24"/>
      <stop offset="0.072" stop-color="#f36724"/>
      <stop offset="0.094" stop-color="#f36923"/>
      <stop offset="0.111" stop-color="#f37322"/>
      <stop offset="0.125" stop-color="#f3831f"/>
      <stop offset="0.139" stop-color="#f4991c"/>
      <stop offset="0.151" stop-color="#f5b617"/>
      <stop offset="0.157" stop-color="#f6c615"/>
      <stop offset="0.179" stop-color="#f6c915"/>
      <stop offset="0.199" stop-color="#f6d418"/>
      <stop offset="0.219" stop-color="#f6e71c"/>
      <stop offset="0.225" stop-color="#f7ee1e"/>
      <stop offset="0.245" stop-color="#f1eb1f"/>
      <stop offset="0.269" stop-color="#e2e524"/>
      <stop offset="0.296" stop-color="#c9db2c"/>
      <stop offset="0.314" stop-color="#b6d333"/>
      <stop offset="0.336" stop-color="#abcf36"/>
      <stop offset="0.374" stop-color="#90c540"/>
      <stop offset="0.386" stop-color="#87c244"/>
      <stop offset="0.466" stop-color="#88c145"/>
      <stop offset="0.525" stop-color="#4fb849"/>
      <stop offset="0.576" stop-color="#35aa45"/>
      <stop offset="0.636" stop-color="#25b46f"/>
      <stop offset="0.699" stop-color="#0abab7"/>
      <stop offset="0.75" stop-color="#4690ce"/>
      <stop offset="0.801" stop-color="#3a54a2"/>
      <stop offset="0.877" stop-color="#59519d"/>
      <stop offset="0.936" stop-color="#64459d"/>
      <stop offset="1" stop-color="#462c82"/>
    </linearGradient>
  </defs>
  <g id="Grupo_983776" data-name="Grupo 983776" transform="translate(-390 -3666.775)">
    <g id="Grupo_946520" data-name="Grupo 946520" transform="translate(390 3749.989)">
      <path id="Trazado_719164" data-name="Trazado 719164" d="M64.667,112.078A27.334,27.334,0,1,1,37.333,84.743,27.334,27.334,0,0,1,64.667,112.078Z" transform="translate(-10 -84.743)" fill="#ef1c24"/>
      <path id="Trazado_719165" data-name="Trazado 719165" d="M93.332,112.078A27.333,27.333,0,1,1,66,84.743,27.332,27.332,0,0,1,93.332,112.078Z" transform="translate(16 -84.743)" fill="#ff7a19"/>
      <path id="Trazado_719166" data-name="Trazado 719166" d="M122,112.078A27.335,27.335,0,1,1,94.668,84.743,27.334,27.334,0,0,1,122,112.078Z" transform="translate(42 -84.743)" fill="#f6c615"/>
      <path id="Trazado_719167" data-name="Trazado 719167" d="M150.666,112.078a27.333,27.333,0,1,1-27.333-27.335A27.332,27.332,0,0,1,150.666,112.078Z" transform="translate(68.001 -84.743)" fill="#f5e500"/>
      <path id="Trazado_719168" data-name="Trazado 719168" d="M179.334,112.078A27.334,27.334,0,1,1,152,84.743,27.332,27.332,0,0,1,179.334,112.078Z" transform="translate(94 -84.743)" fill="#b6d333"/>
      <path id="Trazado_719169" data-name="Trazado 719169" d="M208,112.078a27.334,27.334,0,1,1-27.333-27.335A27.332,27.332,0,0,1,208,112.078Z" transform="translate(120.001 -84.743)" fill="#86c144"/>
      <path id="Trazado_719170" data-name="Trazado 719170" d="M236.67,112.078a27.335,27.335,0,1,1-27.335-27.335A27.334,27.334,0,0,1,236.67,112.078Z" transform="translate(146.001 -84.743)" fill="#4fb849"/>
      <path id="Trazado_719171" data-name="Trazado 719171" d="M265.332,112.078A27.332,27.332,0,1,1,238,84.743,27.332,27.332,0,0,1,265.332,112.078Z" transform="translate(172.002 -84.743)" fill="#34a944"/>
      <path id="Trazado_719172" data-name="Trazado 719172" d="M294,112.078a27.335,27.335,0,1,1-27.333-27.335A27.334,27.334,0,0,1,294,112.078Z" transform="translate(198.001 -84.743)" fill="#25b46f"/>
      <path id="Trazado_719173" data-name="Trazado 719173" d="M322.669,112.078a27.334,27.334,0,1,1-27.333-27.335A27.334,27.334,0,0,1,322.669,112.078Z" transform="translate(224.002 -84.743)" fill="#0abab7"/>
      <path id="Trazado_719174" data-name="Trazado 719174" d="M351.336,112.078A27.334,27.334,0,1,1,324,84.743,27.334,27.334,0,0,1,351.336,112.078Z" transform="translate(250.002 -84.743)" fill="#4690ce"/>
      <path id="Trazado_719175" data-name="Trazado 719175" d="M380,112.078a27.332,27.332,0,1,1-27.333-27.335A27.334,27.334,0,0,1,380,112.078Z" transform="translate(276.002 -84.743)" fill="#3a54a2"/>
      <path id="Trazado_719176" data-name="Trazado 719176" d="M408.668,112.078a27.334,27.334,0,1,1-27.333-27.335A27.334,27.334,0,0,1,408.668,112.078Z" transform="translate(302.001 -84.743)" fill="#59519d"/>
      <path id="Trazado_719177" data-name="Trazado 719177" d="M437.335,112.078A27.334,27.334,0,1,1,410,84.743,27.334,27.334,0,0,1,437.335,112.078Z" transform="translate(328.001 -84.743)" fill="#64459d"/>
      <path id="Trazado_719178" data-name="Trazado 719178" d="M466,112.078a27.332,27.332,0,1,1-27.333-27.335A27.334,27.334,0,0,1,466,112.078Z" transform="translate(354.001 -84.743)" fill="#422e82"/>
    </g>
    <g id="Grupo_946521" data-name="Grupo 946521" transform="translate(415.902 3699.5)">
      <path id="Trazado_719179" data-name="Trazado 719179" d="M354.447,103.035h-2.86V78.767a17.661,17.661,0,0,0-17.64-17.64H44.083a17.659,17.659,0,0,0-17.64,17.64v24.268h-2.86V78.767a20.522,20.522,0,0,1,20.5-20.5H333.947a20.522,20.522,0,0,1,20.5,20.5Z" transform="translate(-23.583 -58.267)" fill="gray"/>
    </g>
    <g id="Grupo_946522" data-name="Grupo 946522" transform="translate(853.237 3699.5)">
      <path id="Trazado_719180" data-name="Trazado 719180" d="M583.781,103.035h-2.86V78.767a17.661,17.661,0,0,0-17.64-17.64H273.417a17.659,17.659,0,0,0-17.64,17.64v24.268h-2.86V78.767a20.522,20.522,0,0,1,20.5-20.5H563.281a20.522,20.522,0,0,1,20.5,20.5Z" transform="translate(-252.917 -58.267)" fill="gray"/>
    </g>
    <g id="Grupo_946523" data-name="Grupo 946523" transform="translate(798.574 3700.931)">
      <rect id="Rect치ngulo_337604" data-name="Rect치ngulo 337604" width="2.86" height="43.338" fill="gray"/>
    </g>
    <g id="Grupo_946524" data-name="Grupo 946524" transform="translate(412.153 3768.954)">
      <path id="Trazado_719181" data-name="Trazado 719181" d="M31.976,105.447a6.42,6.42,0,0,1-1.4,4.369,4.751,4.751,0,0,1-3.772,1.609,4.769,4.769,0,0,1-3.772-1.609,6.386,6.386,0,0,1-1.413-4.369v-4.783a6.432,6.432,0,0,1,1.4-4.357,4.727,4.727,0,0,1,3.761-1.619,4.772,4.772,0,0,1,3.783,1.619,6.4,6.4,0,0,1,1.413,4.357Zm-2.2-5.24a4.43,4.43,0,0,0-.784-2.771,2.624,2.624,0,0,0-2.212-1.016,2.581,2.581,0,0,0-2.189,1.016,4.477,4.477,0,0,0-.772,2.771V105.9a4.451,4.451,0,0,0,.789,2.78,2.865,2.865,0,0,0,4.4.006,4.518,4.518,0,0,0,.772-2.786Z" transform="translate(-21.617 -94.688)" fill="#fff"/>
    </g>
    <g id="Grupo_946525" data-name="Grupo 946525" transform="translate(467.738 3768.954)">
      <path id="Trazado_719182" data-name="Trazado 719182" d="M56.518,111.191H54.306V96.955l-3.541.034v-1.7l5.753-.6Z" transform="translate(-50.765 -94.688)" fill="#fff"/>
    </g>
    <g id="Grupo_946526" data-name="Grupo 946526" transform="translate(521.766 3768.954)">
      <path id="Trazado_719183" data-name="Trazado 719183" d="M89.334,111.191h-10.1v-1.508l5.107-6.089a15.514,15.514,0,0,0,1.848-2.632,4.4,4.4,0,0,0,.486-1.974,2.635,2.635,0,0,0-.658-1.848,2.346,2.346,0,0,0-1.821-.721A2.729,2.729,0,0,0,82,97.3a3.272,3.272,0,0,0-.753,2.2H79.12l-.021-.067a4.384,4.384,0,0,1,1.329-3.37,5.1,5.1,0,0,1,3.766-1.379,4.73,4.73,0,0,1,3.429,1.205,4.137,4.137,0,0,1,1.253,3.118,4.952,4.952,0,0,1-.711,2.513A27.717,27.717,0,0,1,86,104.61l-4.1,4.8.023.057h7.409Z" transform="translate(-79.097 -94.688)" fill="#fff"/>
    </g>
    <g id="Grupo_946527" data-name="Grupo 946527" transform="translate(576.231 3768.954)">
      <path id="Trazado_719184" data-name="Trazado 719184" d="M112.79,101.938a2.577,2.577,0,0,0,2.082-.732,3.112,3.112,0,0,0,.61-2.05,2.9,2.9,0,0,0-.666-1.983,2.492,2.492,0,0,0-1.972-.753,2.94,2.94,0,0,0-2.107.788,2.6,2.6,0,0,0-.831,1.972h-2.1l-.032-.067a3.884,3.884,0,0,1,1.384-3.129,5.308,5.308,0,0,1,3.688-1.295,5.153,5.153,0,0,1,3.553,1.144,4.281,4.281,0,0,1,1.285,3.37,3.812,3.812,0,0,1-.6,2.079,4.022,4.022,0,0,1-1.671,1.463,3.859,3.859,0,0,1,1.871,1.491,4.38,4.38,0,0,1,.643,2.42,4.469,4.469,0,0,1-1.413,3.5,5.292,5.292,0,0,1-3.671,1.268,5.809,5.809,0,0,1-3.66-1.224,3.747,3.747,0,0,1-1.526-3.234l.023-.067h2.1a2.643,2.643,0,0,0,.856,1.995,3.075,3.075,0,0,0,2.206.81,2.734,2.734,0,0,0,2.111-.833,3.069,3.069,0,0,0,.772-2.174,3.253,3.253,0,0,0-.709-2.29,2.927,2.927,0,0,0-2.229-.759h-1.812v-1.711Z" transform="translate(-107.658 -94.688)" fill="#fff"/>
    </g>
    <g id="Grupo_946528" data-name="Grupo 946528" transform="translate(630.365 3769.188)">
      <path id="Trazado_719185" data-name="Trazado 719185" d="M145.218,105.6h2.246v1.72h-2.246v3.755h-2.189v-3.755h-6.983v-1.24l6.85-11.274h2.323Zm-6.816,0h4.626V97.973l-.067-.011-.214.559Z" transform="translate(-136.045 -94.811)" fill="#fff"/>
    </g>
    <g id="Grupo_946529" data-name="Grupo 946529" transform="translate(685.979 3769.188)">
      <path id="Trazado_719186" data-name="Trazado 719186" d="M165.411,103.85l.94-9.039H174.5v1.955h-6.291l-.524,4.682a5.007,5.007,0,0,1,1.161-.643,4.094,4.094,0,0,1,1.453-.263,4.433,4.433,0,0,1,3.536,1.415,6.626,6.626,0,0,1-.032,7.872,4.84,4.84,0,0,1-3.827,1.486,5.241,5.241,0,0,1-3.442-1.129,3.9,3.9,0,0,1-1.318-3.318l.023-.067h1.989a2.713,2.713,0,0,0,.765,2.061,2.751,2.751,0,0,0,1.983.732,2.6,2.6,0,0,0,2.168-.984,4.262,4.262,0,0,0,.77-2.693,3.885,3.885,0,0,0-.776-2.515,2.626,2.626,0,0,0-2.163-.959,3.448,3.448,0,0,0-1.876.391,2.285,2.285,0,0,0-.862,1.205Z" transform="translate(-165.209 -94.811)" fill="#fff"/>
    </g>
    <g id="Grupo_946530" data-name="Grupo 946530" transform="translate(740.426 3768.954)">
      <path id="Trazado_719187" data-name="Trazado 719187" d="M199.391,94.688a9.6,9.6,0,0,1,1.9.189,6.944,6.944,0,0,1,1.552.481l-.469,1.688a8.022,8.022,0,0,0-1.341-.452,6.873,6.873,0,0,0-1.642-.174,2.947,2.947,0,0,0-2.487,1.306,5.46,5.46,0,0,0-.955,3.309V102.3a5,5,0,0,1,1.615-1.074,5.161,5.161,0,0,1,2.006-.391,4.179,4.179,0,0,1,3.324,1.407,5.448,5.448,0,0,1,1.222,3.7,5.685,5.685,0,0,1-1.367,4,4.771,4.771,0,0,1-3.694,1.491,4.843,4.843,0,0,1-3.776-1.714,6.812,6.812,0,0,1-1.52-4.687V101.28a6.939,6.939,0,0,1,1.625-4.727A5.113,5.113,0,0,1,199.391,94.688Zm-.526,7.788a3.432,3.432,0,0,0-1.781.441,2.947,2.947,0,0,0-1.135,1.19v1.129a5.333,5.333,0,0,0,.9,3.269,2.675,2.675,0,0,0,2.206,1.2,2.44,2.44,0,0,0,2.117-1.045,4.593,4.593,0,0,0,.744-2.721,3.767,3.767,0,0,0-.8-2.525A2.8,2.8,0,0,0,198.865,102.476Z" transform="translate(-193.76 -94.688)" fill="#fff"/>
    </g>
    <g id="Grupo_946531" data-name="Grupo 946531" transform="translate(794.645 3769.188)">
      <path id="Trazado_719188" data-name="Trazado 719188" d="M232.986,96.543a24.191,24.191,0,0,0-4.167,6.468,17.332,17.332,0,0,0-1.083,6.291v1.777h-2.2V109.3a15.747,15.747,0,0,1,1.358-6.642,29.086,29.086,0,0,1,3.928-6.118h-8.627V94.811h10.794Z" transform="translate(-222.192 -94.811)" fill="#fff"/>
    </g>
    <g id="Grupo_946532" data-name="Grupo 946532" transform="translate(849.37 3768.954)">
      <path id="Trazado_719189" data-name="Trazado 719189" d="M261.034,99.078a3.664,3.664,0,0,1-.715,2.241,4.331,4.331,0,0,1-1.9,1.447,4.761,4.761,0,0,1,2.224,1.531,3.774,3.774,0,0,1,.837,2.424,4.3,4.3,0,0,1-1.457,3.475,5.568,5.568,0,0,1-3.717,1.23,5.99,5.99,0,0,1-3.9-1.23,4.216,4.216,0,0,1-1.514-3.475,3.727,3.727,0,0,1,.854-2.424,4.92,4.92,0,0,1,2.307-1.543,4.281,4.281,0,0,1-1.978-1.436,3.625,3.625,0,0,1-.727-2.241,3.986,3.986,0,0,1,1.369-3.263,5.431,5.431,0,0,1,3.57-1.127,5.1,5.1,0,0,1,3.414,1.133A4.037,4.037,0,0,1,261.034,99.078Zm-1.743,7.6a2.957,2.957,0,0,0-.866-2.191,2.916,2.916,0,0,0-2.14-.86,3.185,3.185,0,0,0-2.29.86,2.89,2.89,0,0,0-.906,2.191,2.843,2.843,0,0,0,.9,2.2,3.288,3.288,0,0,0,2.317.828,2.89,2.89,0,0,0,2.984-3.028Zm-.458-7.565a2.675,2.675,0,0,0-.732-1.934,2.422,2.422,0,0,0-1.815-.759,2.752,2.752,0,0,0-1.968.73,2.582,2.582,0,0,0-.77,1.962,2.658,2.658,0,0,0,2.759,2.782,2.373,2.373,0,0,0,1.806-.77A2.831,2.831,0,0,0,258.833,99.112Z" transform="translate(-250.889 -94.688)" fill="#fff"/>
    </g>
    <g id="Grupo_946533" data-name="Grupo 946533" transform="translate(903.936 3768.954)">
      <path id="Trazado_719190" data-name="Trazado 719190" d="M284.063,109.705a3.273,3.273,0,0,0,2.563-1.1,4.506,4.506,0,0,0,.978-3.106v-1.384a3.57,3.57,0,0,1-1.335,1.2,3.808,3.808,0,0,1-1.749.408,4.761,4.761,0,0,1-3.682-1.447,6.549,6.549,0,0,1,.084-8.034,4.553,4.553,0,0,1,3.509-1.558,5.185,5.185,0,0,1,3.911,1.529,5.984,5.984,0,0,1,1.474,4.325v4.939a5.829,5.829,0,0,1-1.609,4.375,5.682,5.682,0,0,1-4.144,1.569,8.938,8.938,0,0,1-1.76-.179,7.905,7.905,0,0,1-1.682-.524l.336-1.676a6.242,6.242,0,0,0,1.445.507A8.015,8.015,0,0,0,284.063,109.705Zm.458-5.7a3.407,3.407,0,0,0,1.937-.524,3.078,3.078,0,0,0,1.146-1.341v-1.922a4.309,4.309,0,0,0-.816-2.811,2.8,2.8,0,0,0-2.29-.988,2.406,2.406,0,0,0-1.995,1.066,5.282,5.282,0,0,0-.061,5.486A2.4,2.4,0,0,0,284.52,104.005Z" transform="translate(-279.503 -94.688)" fill="#fff"/>
    </g>
    <g id="Grupo_946534" data-name="Grupo 946534" transform="translate(953.302 3768.954)">
      <path id="Trazado_719191" data-name="Trazado 719191" d="M311.143,111.191h-2.212V96.955l-3.541.034v-1.7l5.753-.6Z" transform="translate(-305.39 -94.688)" fill="#fff"/>
      <path id="Trazado_719192" data-name="Trazado 719192" d="M322.024,105.447a6.411,6.411,0,0,1-1.4,4.369,5.223,5.223,0,0,1-7.542,0,6.386,6.386,0,0,1-1.413-4.369v-4.783a6.432,6.432,0,0,1,1.4-4.357,5.2,5.2,0,0,1,7.542,0,6.39,6.39,0,0,1,1.415,4.357Zm-2.2-5.24a4.43,4.43,0,0,0-.782-2.771,2.624,2.624,0,0,0-2.212-1.016,2.581,2.581,0,0,0-2.189,1.016,4.477,4.477,0,0,0-.772,2.771V105.9a4.463,4.463,0,0,0,.788,2.78,2.867,2.867,0,0,0,4.4.006,4.517,4.517,0,0,0,.77-2.786Z" transform="translate(-299.699 -94.688)" fill="#fff"/>
    </g>
    <g id="Grupo_946535" data-name="Grupo 946535" transform="translate(1007.969 3768.954)">
      <path id="Trazado_719193" data-name="Trazado 719193" d="M339.81,111.191H337.6V96.955l-3.541.034v-1.7l5.753-.6Z" transform="translate(-334.057 -94.688)" fill="#fff"/>
      <path id="Trazado_719194" data-name="Trazado 719194" d="M346.567,111.191h-2.212V96.955l-3.543.034v-1.7l5.755-.6Z" transform="translate(-327.93 -94.688)" fill="#fff"/>
    </g>
    <g id="Grupo_946536" data-name="Grupo 946536" transform="translate(1062.637 3768.954)">
      <path id="Trazado_719195" data-name="Trazado 719195" d="M368.477,111.191h-2.212V96.955l-3.541.034v-1.7l5.753-.6Z" transform="translate(-362.724 -94.688)" fill="#fff"/>
      <path id="Trazado_719196" data-name="Trazado 719196" d="M379.383,111.191h-10.1v-1.508l5.107-6.089a15.517,15.517,0,0,0,1.848-2.632,4.4,4.4,0,0,0,.486-1.974,2.628,2.628,0,0,0-.66-1.848,2.341,2.341,0,0,0-1.821-.721,2.725,2.725,0,0,0-2.195.883,3.264,3.264,0,0,0-.755,2.2h-2.122l-.023-.067a4.393,4.393,0,0,1,1.331-3.37,5.1,5.1,0,0,1,3.764-1.379,4.731,4.731,0,0,1,3.431,1.205,4.136,4.136,0,0,1,1.251,3.118,4.968,4.968,0,0,1-.709,2.513,28.263,28.263,0,0,1-2.161,3.085l-4.1,4.8.023.057h7.409Z" transform="translate(-356.901 -94.688)" fill="#fff"/>
    </g>
    <g id="Grupo_946537" data-name="Grupo 946537" transform="translate(1117.304 3768.954)">
      <path id="Trazado_719197" data-name="Trazado 719197" d="M397.144,111.191h-2.212V96.955l-3.541.034v-1.7l5.753-.6Z" transform="translate(-391.391 -94.688)" fill="#fff"/>
      <path id="Trazado_719198" data-name="Trazado 719198" d="M402.836,101.938a2.579,2.579,0,0,0,2.084-.732,3.112,3.112,0,0,0,.61-2.05,2.9,2.9,0,0,0-.666-1.983,2.5,2.5,0,0,0-1.972-.753,2.937,2.937,0,0,0-2.107.788,2.6,2.6,0,0,0-.831,1.972h-2.1l-.032-.067a3.884,3.884,0,0,1,1.384-3.129,5.308,5.308,0,0,1,3.688-1.295,5.153,5.153,0,0,1,3.553,1.144,4.281,4.281,0,0,1,1.285,3.37,3.8,3.8,0,0,1-.6,2.079,4.022,4.022,0,0,1-1.67,1.463,3.856,3.856,0,0,1,1.873,1.491,4.4,4.4,0,0,1,.643,2.42,4.469,4.469,0,0,1-1.413,3.5,5.3,5.3,0,0,1-3.671,1.268,5.809,5.809,0,0,1-3.659-1.224,3.742,3.742,0,0,1-1.526-3.234l.023-.067h2.1a2.643,2.643,0,0,0,.856,1.995,3.074,3.074,0,0,0,2.206.81,2.736,2.736,0,0,0,2.111-.833,3.067,3.067,0,0,0,.77-2.174,3.252,3.252,0,0,0-.709-2.29,2.921,2.921,0,0,0-2.229-.759h-1.81v-1.711Z" transform="translate(-385.663 -94.688)" fill="#fff"/>
    </g>
    <g id="Grupo_946538" data-name="Grupo 946538" transform="translate(1171.971 3768.954)">
      <path id="Trazado_719199" data-name="Trazado 719199" d="M425.811,111.191H423.6V96.955l-3.541.034v-1.7l5.753-.6Z" transform="translate(-420.058 -94.688)" fill="#fff"/>
      <path id="Trazado_719200" data-name="Trazado 719200" d="M435.266,105.6h2.246v1.72h-2.246v3.755h-2.189v-3.755h-6.983v-1.24l6.85-11.274h2.323Zm-6.816,0h4.626V97.973l-.067-.011-.214.559Z" transform="translate(-414.584 -94.576)" fill="#fff"/>
    </g>
    <g id="Grupo_946539" data-name="Grupo 946539" transform="translate(417.333 3849.415)">
      <rect id="Rect치ngulo_337605" data-name="Rect치ngulo 337605" width="765.342" height="3.229" fill="url(#linear-gradient)"/>
    </g>
    <path id="Trazado_725476" data-name="Trazado 725476" d="M20.761,14.021H15.8L14.767,17H12.455L17.289,4.2h2L24.127,17h-2.32Zm-4.333-1.793h3.709L18.282,6.919ZM18.95.775h2.435L18.95,3.438l-1.714,0Zm10.327,14.7A1.931,1.931,0,0,0,30.6,15a1.591,1.591,0,0,0,.563-1.151H33.18a3.137,3.137,0,0,1-.554,1.657,3.632,3.632,0,0,1-1.406,1.217,4.191,4.191,0,0,1-1.916.448,4.055,4.055,0,0,1-3.164-1.292,5.124,5.124,0,0,1-1.169-3.568V12.1a5.039,5.039,0,0,1,1.16-3.476,4.018,4.018,0,0,1,3.164-1.305,3.907,3.907,0,0,1,2.764.989,3.542,3.542,0,0,1,1.121,2.6H31.167a1.956,1.956,0,0,0-.558-1.345,1.8,1.8,0,0,0-1.332-.527,1.879,1.879,0,0,0-1.6.751,3.834,3.834,0,0,0-.571,2.281V12.4a3.9,3.9,0,0,0,.558,2.307A1.878,1.878,0,0,0,29.277,15.471ZM37.064,17H34.929V7.49h2.136ZM34.8,5.012a1.147,1.147,0,0,1,.312-.824A1.173,1.173,0,0,1,36,3.86a1.188,1.188,0,0,1,.9.328,1.138,1.138,0,0,1,.316.824,1.112,1.112,0,0,1-.316.811,1.2,1.2,0,0,1-.9.323,1.182,1.182,0,0,1-.892-.323A1.12,1.12,0,0,1,34.8,5.012Zm4.192,7.163a5.654,5.654,0,0,1,1.02-3.529,3.267,3.267,0,0,1,2.733-1.332,3.1,3.1,0,0,1,2.443,1.055V3.5h2.136V17H45.388l-.105-.984a3.148,3.148,0,0,1-2.558,1.16,3.248,3.248,0,0,1-2.7-1.345A5.861,5.861,0,0,1,38.989,12.175Zm2.136.185a3.958,3.958,0,0,0,.558,2.263,1.811,1.811,0,0,0,1.586.813,2.017,2.017,0,0,0,1.916-1.169V10.206a1.986,1.986,0,0,0-1.9-1.143,1.824,1.824,0,0,0-1.6.822A4.408,4.408,0,0,0,41.125,12.359Zm8.024-.2A5.607,5.607,0,0,1,49.7,9.639a4.044,4.044,0,0,1,1.556-1.723,4.383,4.383,0,0,1,2.3-.6,4.154,4.154,0,0,1,3.125,1.239,4.874,4.874,0,0,1,1.3,3.287l.009.5a5.658,5.658,0,0,1-.541,2.514A4,4,0,0,1,55.9,16.569a4.415,4.415,0,0,1-2.325.606,4.125,4.125,0,0,1-3.221-1.34,5.133,5.133,0,0,1-1.208-3.573Zm2.136.185a3.832,3.832,0,0,0,.606,2.3,1.971,1.971,0,0,0,1.688.831,1.95,1.95,0,0,0,1.683-.844,4.232,4.232,0,0,0,.6-2.47,3.782,3.782,0,0,0-.62-2.285A2.089,2.089,0,0,0,51.9,9.859,4.152,4.152,0,0,0,51.285,12.342Z" transform="translate(546.169 3666)" fill="#12263f"/>
    <path id="Trazado_725477" data-name="Trazado 725477" d="M14.37,14.021H9.413L8.375,17H6.064L10.9,4.2h2L17.736,17h-2.32Zm-4.333-1.793h3.709L11.891,6.919ZM21.251,17H19.116V3.5h2.136Zm6.231-1.529A1.931,1.931,0,0,0,28.81,15a1.591,1.591,0,0,0,.563-1.151h2.013a3.137,3.137,0,0,1-.554,1.657,3.632,3.632,0,0,1-1.406,1.217,4.191,4.191,0,0,1-1.916.448,4.055,4.055,0,0,1-3.164-1.292,5.124,5.124,0,0,1-1.169-3.568V12.1a5.039,5.039,0,0,1,1.16-3.476A4.018,4.018,0,0,1,27.5,7.314a3.907,3.907,0,0,1,2.764.989,3.542,3.542,0,0,1,1.121,2.6H29.373a1.956,1.956,0,0,0-.558-1.345,1.8,1.8,0,0,0-1.332-.527,1.879,1.879,0,0,0-1.6.751,3.834,3.834,0,0,0-.571,2.281V12.4a3.9,3.9,0,0,0,.558,2.307A1.878,1.878,0,0,0,27.483,15.471ZM38.68,17a3.3,3.3,0,0,1-.246-.888,3.593,3.593,0,0,1-4.834.246,2.615,2.615,0,0,1-.905-2.021A2.7,2.7,0,0,1,33.824,12a5.473,5.473,0,0,1,3.23-.813h1.31v-.624a1.666,1.666,0,0,0-.413-1.182,1.638,1.638,0,0,0-1.257-.444,1.881,1.881,0,0,0-1.2.365,1.129,1.129,0,0,0-.466.927H32.9a2.37,2.37,0,0,1,.519-1.463A3.455,3.455,0,0,1,34.826,7.7a4.955,4.955,0,0,1,1.991-.387,3.99,3.99,0,0,1,2.663.839,2.993,2.993,0,0,1,1.02,2.36V14.8a4.861,4.861,0,0,0,.36,2.048V17Zm-2.347-1.538a2.429,2.429,0,0,0,1.191-.308,2.055,2.055,0,0,0,.839-.826V12.535H37.212a3.148,3.148,0,0,0-1.784.413,1.338,1.338,0,0,0-.6,1.169,1.248,1.248,0,0,0,.409.98A1.583,1.583,0,0,0,36.333,15.462ZM45.008,17H42.873V3.5h2.136Zm4.6,0H47.469V7.49H49.6ZM47.337,5.012a1.147,1.147,0,0,1,.312-.824,1.173,1.173,0,0,1,.892-.328,1.188,1.188,0,0,1,.9.328,1.138,1.138,0,0,1,.316.824,1.112,1.112,0,0,1-.316.811,1.2,1.2,0,0,1-.9.323,1.182,1.182,0,0,1-.892-.323A1.12,1.12,0,0,1,47.337,5.012ZM53.912,7.49l.062,1.1a3.419,3.419,0,0,1,2.769-1.274q2.971,0,3.023,3.4V17H57.629V10.839a1.958,1.958,0,0,0-.391-1.34,1.645,1.645,0,0,0-1.279-.435,2.058,2.058,0,0,0-1.925,1.169V17H51.9V7.49Zm7.629,4.667a5.607,5.607,0,0,1,.554-2.518A4.044,4.044,0,0,1,63.65,7.917a4.383,4.383,0,0,1,2.3-.6,4.154,4.154,0,0,1,3.125,1.239,4.874,4.874,0,0,1,1.3,3.287l.009.5a5.658,5.658,0,0,1-.541,2.514,4,4,0,0,1-1.547,1.714,4.415,4.415,0,0,1-2.325.606,4.125,4.125,0,0,1-3.221-1.34,5.133,5.133,0,0,1-1.208-3.573Zm2.136.185a3.832,3.832,0,0,0,.606,2.3,1.971,1.971,0,0,0,1.688.831,1.95,1.95,0,0,0,1.683-.844,4.232,4.232,0,0,0,.6-2.47,3.782,3.782,0,0,0-.62-2.285,2.089,2.089,0,0,0-3.344-.013A4.152,4.152,0,0,0,63.676,12.342Z" transform="translate(978.169 3666)" fill="#12263f"/>
    <path id="Trazado_725478" data-name="Trazado 725478" d="M20.54,17H18.316l-5.7-9.079V17H10.388V4.2h2.224l5.722,9.114V4.2H20.54Zm6.609.176A4.419,4.419,0,0,1,23.857,15.9,4.639,4.639,0,0,1,22.6,12.491v-.264a5.706,5.706,0,0,1,.549-2.544,4.181,4.181,0,0,1,1.542-1.745A4.078,4.078,0,0,1,26.9,7.314a3.733,3.733,0,0,1,3,1.239,5.24,5.24,0,0,1,1.059,3.507v.861H24.75a2.856,2.856,0,0,0,.787,1.863,2.362,2.362,0,0,0,1.736.686,2.892,2.892,0,0,0,2.391-1.187l1.151,1.1a3.845,3.845,0,0,1-1.525,1.323A4.774,4.774,0,0,1,27.149,17.176Zm-.255-8.147a1.8,1.8,0,0,0-1.419.615,3.189,3.189,0,0,0-.69,1.714h4.069V11.2a2.6,2.6,0,0,0-.571-1.622A1.785,1.785,0,0,0,26.894,9.028Zm11.487,7.04a3.312,3.312,0,0,1-2.672,1.107,2.952,2.952,0,0,1-2.342-.905,3.851,3.851,0,0,1-.8-2.619V7.49h2.136v6.135q0,1.811,1.5,1.811a2.111,2.111,0,0,0,2.1-1.116V7.49h2.136V17H38.434ZM45.3,5.179V7.49h1.679V9.072H45.3v5.309a1.169,1.169,0,0,0,.215.787,1,1,0,0,0,.769.242,3.29,3.29,0,0,0,.747-.088v1.652a5.26,5.26,0,0,1-1.406.2q-2.461,0-2.461-2.716V9.072H41.6V7.49h1.564V5.179Zm8.288,4.263a5.285,5.285,0,0,0-.87-.07A1.959,1.959,0,0,0,50.739,10.5V17H48.6V7.49h2.039l.053,1.063a2.406,2.406,0,0,1,2.145-1.239,2,2,0,0,1,.756.123ZM60.354,17a3.3,3.3,0,0,1-.246-.888,3.593,3.593,0,0,1-4.834.246,2.615,2.615,0,0,1-.905-2.021A2.7,2.7,0,0,1,55.5,12a5.473,5.473,0,0,1,3.23-.813h1.31v-.624a1.666,1.666,0,0,0-.413-1.182,1.638,1.638,0,0,0-1.257-.444,1.881,1.881,0,0,0-1.2.365,1.129,1.129,0,0,0-.466.927H54.571a2.37,2.37,0,0,1,.519-1.463A3.455,3.455,0,0,1,56.5,7.7a4.955,4.955,0,0,1,1.991-.387,3.99,3.99,0,0,1,2.663.839,2.993,2.993,0,0,1,1.02,2.36V14.8a4.861,4.861,0,0,0,.36,2.048V17Zm-2.347-1.538a2.429,2.429,0,0,0,1.191-.308,2.055,2.055,0,0,0,.839-.826V12.535H58.886a3.148,3.148,0,0,0-1.784.413,1.338,1.338,0,0,0-.6,1.169,1.248,1.248,0,0,0,.409.98A1.583,1.583,0,0,0,58.007,15.462ZM66.682,17H64.546V3.5h2.136Z" transform="translate(761.5 3666)" fill="#12263f"/>
  </g>
</svg>
