<svg xmlns="http://www.w3.org/2000/svg" xmlns:xlink="http://www.w3.org/1999/xlink" width="385.86" height="846.433" viewBox="0 0 385.86 846.433">
  <defs>
    <clipPath id="clip-path">
      <rect id="Rectángulo_339904" data-name="Rectángulo 339904" width="385.86" height="92.463" fill="none"/>
    </clipPath>
    <clipPath id="clip-path-2">
      <rect id="Rectángulo_339885" data-name="Rectángulo 339885" width="271.644" height="790.771" fill="none"/>
    </clipPath>
  </defs>
  <g id="Grupo_957612" data-name="Grupo 957612" transform="translate(-180 -7675)">
    <g id="Grupo_957611" data-name="Grupo 957611" transform="translate(180 8428.969)" opacity="0.472">
      <g id="Grupo_957610" data-name="Grupo 957610" transform="translate(0 0)" clip-path="url(#clip-path)">
        <path id="Trazado_725323" data-name="Trazado 725323" d="M385.86,46.233c0,25.534-86.378,46.233-192.931,46.233S0,71.766,0,46.233,86.377,0,192.93,0,385.86,20.7,385.86,46.233" transform="translate(0 0)" fill="#efece6"/>
      </g>
    </g>
    <g id="Grupo_957609" data-name="Grupo 957609" transform="translate(0 -116)">
      <g id="Grupo_957601" data-name="Grupo 957601" transform="translate(251 7791)">
        <g id="Grupo_957600" data-name="Grupo 957600" clip-path="url(#clip-path-2)">
          <path id="Trazado_725213" data-name="Trazado 725213" d="M77.107,86.51c16.22,29.759,20.929,51.721,33.707,83.113,2.764,6.788,12.547,21.23,14.843,28.19,2.557,7.758-20.844,18.1-29.726,10.691-18.237-15.209-25.706-35.133-39.5-54.466S31.55,112.358,31.1,88.614c-.072-3.752.159-7.644,1.873-10.984,10.436-20.335,32.589-12.3,44.131,8.88" transform="translate(81.523 70.287)" fill="#d3d0c9"/>
          <path id="Trazado_725214" data-name="Trazado 725214" d="M4.76,114.535c-5.941,11.34,4.442,16.71,13.289,9.072,7.324-6.323,10.027-13.717,9.105-21.6C22.2,108.956,15.17,91.626,4.76,114.535" transform="translate(238.092 108.847)" fill="#e89e85"/>
          <path id="Trazado_725215" data-name="Trazado 725215" d="M79.249,145.658c3.107-4.213,15.147-18.868,15.029-24.1a41.63,41.63,0,0,1-11.389-5.695c-4.762-3.667-10.172-6.825-13.417-11.885-6.28,10.529-8.808,14.467-16.9,19.035-8.169,4.609-14.918,3.289-23.862,6.116-21.9,6.925-36.165,39.423-8.5,44.067,17.305,2.9,46.132-10.038,59.041-27.537" transform="translate(167.15 110.946)" fill="#d3d0c9"/>
          <path id="Trazado_725216" data-name="Trazado 725216" d="M45.032,140.3a47.8,47.8,0,0,1,.637-8.733c.61-2.811,2.237-5.087,3.762-7.464.415-.645-.446-1.6-1.1-1.1-5.544,4.18-5.571,10.982-4.961,17.3a.833.833,0,0,0,1.664,0" transform="translate(133.002 131.096)" fill="#e2dfd8"/>
          <path id="Trazado_725217" data-name="Trazado 725217" d="M43.981,138.6c-1.782-4.907-.062-8.727,1.815-13.233a.966.966,0,0,0-1.408-1.081c-4.533,3.446-4.328,10.323-1.974,14.974.434.856,1.9.26,1.567-.659" transform="translate(141.511 132.463)" fill="#e2dfd8"/>
          <rect id="Rectángulo_339883" data-name="Rectángulo 339883" width="23.312" height="4.735" transform="translate(269.931 167.194) rotate(-158.802)" fill="#81addf"/>
          <path id="Trazado_725218" data-name="Trazado 725218" d="M33.312,77.321,2.739,156.166a8.75,8.75,0,1,0,16.315,6.327L49.629,83.648Z" transform="translate(217.58 82.504)" fill="#b6dbff"/>
          <path id="Trazado_725219" data-name="Trazado 725219" d="M27.549,91.251,8.14,141.3a8.75,8.75,0,0,0,16.317,6.327L43.866,97.578Z" transform="translate(212.177 97.368)" fill="#c43ad6"/>
          <path id="Trazado_725220" data-name="Trazado 725220" d="M11.115,97.4a2.641,2.641,0,1,0,3.417-1.507A2.64,2.64,0,0,0,11.115,97.4" transform="translate(232.822 102.125)" fill="#fff"/>
          <path id="Trazado_725221" data-name="Trazado 725221" d="M14.515,104.252a3.475,3.475,0,1,0,4.5-1.984,3.476,3.476,0,0,0-4.5,1.984" transform="translate(220.898 108.871)" fill="#fff"/>
          <path id="Trazado_725222" data-name="Trazado 725222" d="M18.708,115.138a3.058,3.058,0,1,0,3.956-1.745,3.059,3.059,0,0,0-3.956,1.745" transform="translate(208.784 120.772)" fill="#fff"/>
          <path id="Trazado_725223" data-name="Trazado 725223" d="M16.324,110.343a1.991,1.991,0,1,0,2.576-1.137,1.991,1.991,0,0,0-2.576,1.137" transform="translate(218.01 116.382)" fill="#fff"/>
          <path id="Trazado_725224" data-name="Trazado 725224" d="M16.158,99.078a1.072,1.072,0,1,0,.612,1.387,1.071,1.071,0,0,0-.612-1.387" transform="translate(224.42 105.641)" fill="#fff"/>
          <path id="Trazado_725225" data-name="Trazado 725225" d="M21.523,110.533a1.073,1.073,0,1,0,.612,1.389,1.074,1.074,0,0,0-.612-1.389" transform="translate(207.966 117.866)" fill="#fff"/>
          <path id="Trazado_725226" data-name="Trazado 725226" d="M38,113.345a34.444,34.444,0,0,0-3.63-11.433C31.817,96.852,16.07,89.8,14.018,91.7c-.161,2.53,9.25,7.15,11.344,11.259-3.237,1.383-17.431-8.729-19.2-6.292-1.424,2.97,18.891,12.619,14.126,12.609-6.627-1.647-17.338-8.045-17.185-4.324,4.86,3.936,15.935,9.233,16.057,11.325-2.642-.878-14.351-4.99-12.2-2.154.982,1.294,10.778,6.908,12.2,7.218,13.2,4.7,16.912-.6,18.845-8" transform="translate(227.245 97.511)" fill="#e89e85"/>
          <path id="Trazado_725227" data-name="Trazado 725227" d="M180.222,29.182c4.3,4.262,13.572,10.408,5.44,24.2-2.5,4.239-4.911,8.729-4.027,13.572,1.315,7.208.535,5.655,3.545,9.552,3.448,4.463,8.177,11.218,1.753,16.9-1.862,1.647-11.77,8.39-6.387,15.244,5.058,6.443,5.736,16.237,1.976,23.513-2.664,5.159-2.9,8.963-5.331,14.24-3.107,6.755-1.689,14.9-4.659,21.714a7.657,7.657,0,0,1-3.005,3.779,7.952,7.952,0,0,1-2.966.833c-8.01.953-16.468-2.53-24.015.318-6.054,2.286-9.957,8.09-15.133,11.976-7.468,5.6-17.313,6.98-26.646,6.679-10.3-.335-20.962-2.691-28.945-9.217s-9.138-14.589-12.8-24.226c-5.914-15.54,11.46-22.555,9.818-33.852-1.2-8.235-8.471-14.876-6.2-20.276a37.446,37.446,0,0,1,5.97-10.31C75.014,86.243,72.1,78.281,69.7,73.5s-3.382-10.856-.405-15.3c1.6-2.392,4.115-3.985,6.176-5.99,3.235-3.152,4.965-10.356,4.413-14.839C76.926,13.39,93.421,13.82,97.7,11.747,100.91,10.2,98.742-1.16,123.457.1c9.932.5,16.983,10.122,32.2,8.278,22.46-2.722,17.94,14.238,24.569,20.807" transform="translate(-37.919 0)" fill="#fb2d5d"/>
          <path id="Trazado_725228" data-name="Trazado 725228" d="M57.206,356.07c-.872,6.106-6.691,20.164-4.558,22.382,2.433,2.524,55.8,5.221,77.233,2.011,10.2-1.228,8.318-7.52-2.433-11.464-5.866-2.15-14.643-3.109-27.264-6.691-7.71,3.144-42.978-6.238-42.978-6.238" transform="translate(27.179 379.939)" fill="#090d46"/>
          <path id="Trazado_725229" data-name="Trazado 725229" d="M97.362,349.983s-4.928,16.3,0,19.879,18.723,6.2,18.723,6.2a20.416,20.416,0,0,1-7.555,8.541c-5.585,3.613-38.73-2.482-38.73-2.482s5.225-16.472,5.883-30.152,22.336-9.021,21.679-1.989" transform="translate(11.279 366.183)" fill="#e89e85"/>
          <path id="Trazado_725230" data-name="Trazado 725230" d="M97.541,386.15c-1.7,9.825,2.89,16.416,8.231,18.61,6.174,2.536,18.157-.953,23.589-6.687,8.677-9.161,6.11-24.428,5.507-32.306-.612-8.014-29.145-5.213-31.967,2.768-4.02,11.369-4.273,11.336-5.36,17.615" transform="translate(-64.923 385.172)" fill="#090d46"/>
          <path id="Trazado_725231" data-name="Trazado 725231" d="M127.4,355.006s2.1,26.5,2.507,31.714-3.258,17.039-18.1,15.914C97.7,401.564,95.241,395.369,99.376,384.9s7.882-15.953,7.935-33.178,18.719-10.837,20.092,3.285" transform="translate(-59.963 364.217)" fill="#e89e85"/>
          <path id="Trazado_725232" data-name="Trazado 725232" d="M66.045,392.108c-.281,30.367,4.566,108.17,4.12,154.114,12.766,7.464,29.435.891,29.435.891,4.022-54.719,9.285-99.036,15.354-155.228,4.1-37.984,9.215-129.121,14.781-155.7,2.687.651-1.339,92.041-4.434,138.95-3.934,59.6-11.29,86.146-13.585,168.579,15.286,4.537,24.017,2.509,27.984-1.435,6.387-44.956,24.461-121.281,30.547-166.159,9.293-68.539,23.318-136.712,10.906-204.758-20.7,7.8-100.214,1.184-121.992.94-3.991,19.72-2.46,42.461-3.987,62.687-2.044,27.031,10.873,103.385,10.873,157.119" transform="translate(-27.991 182.848)" fill="#4639b9"/>
          <path id="Trazado_725233" data-name="Trazado 725233" d="M128.073,58.817,55.394,98.242S85.308,181,83.254,215.959s0,54.315,0,54.315l109.505-12.047s2.412-57.125,1.335-89.023S176.5,83.65,176.5,83.65Z" transform="translate(-37.229 62.76)" fill="#6861e2"/>
          <path id="Trazado_725234" data-name="Trazado 725234" d="M77.782,71.279c-1.608,5.1-2.27,12.371-3.518,15.013-4.372,9.254,35.433,29.2,45.264,26.344,4.779-1.389,11.772-13.609,11.582-18.583-8.059.887-8.4-4.262-12.439-11.29C116.333,78.7,115.425,74,114.553,69.39q-2.121-11.2-4.239-22.392a4.517,4.517,0,0,0-1.145-2.658,4.5,4.5,0,0,0-2.619-.814c-6.267-.583-29.05-10.964-28.767-4.254.951,22.417,2.053,25.5,0,32.008" transform="translate(-12.286 39.503)" fill="#d18774"/>
          <path id="Trazado_725235" data-name="Trazado 725235" d="M75.144,83.648s16.121,21.9,40.628,13.374,9.37-29.492,9.37-29.492l-11.354-8.9s7.259,11.336.974,30.95c0,0-33.166-23.289-39.617-17.967s0,12.036,0,12.036" transform="translate(-7.519 62.559)" fill="#6861e2"/>
          <path id="Trazado_725236" data-name="Trazado 725236" d="M91.477,82.353c-3.179,2.9,0,81.243,8.8,94.2,8.57,12.623,10.319,68.948,5.476,83.413C73.312,356.876,73.312,401.7,73.312,446.339c27.8,9.221,75.286,14.459,104.208,9.854.535-25.4,4.893-43.4,8.932-68.483,2.542-15.794,13.14-182.546,1.9-235.348C187.668,149.18,165.915,101.1,155.451,81c-6.825-13.1-9.382-26.169-22.469-20.085-12.417,5.773-31.413,12.222-41.506,21.439" transform="translate(-73.312 63.357)" fill="#e2dfd8"/>
          <path id="Trazado_725237" data-name="Trazado 725237" d="M51.734,61.533c12,1.709,28.331,9.984,31.034,14.18,3.77,5.856,2.015,17.359,4.056,26.619,7.129,32.366,21.067,30.865,21.067,53.174,0,27.146-11.451,41.909-12.94,89.389-1.282,40.9,30.218,104.063,14.951,202.592-23.109,4.6-31.888,5.321-54,5.321.25-13.754,0-35.985-4.957-72.14-4.973-36.256-3.167-94.418-3.714-107.847-1.939-47.4-2.075-66.294,6.058-114.656,5.5-32.7-1.155-66.207-1.559-96.632" transform="translate(62.19 65.658)" fill="#e2dfd8"/>
          <path id="Trazado_725238" data-name="Trazado 725238" d="M78.194,129.635c-.279,29.972-.649,59.965-1.631,89.924-.98,29.852-4.655,59.969-4.678,89.792,0,2.088,3.388,2.7,3.762.509,4.9-28.771,4.279-59.425,5.2-88.539.961-30.559,1.569-61.141-.029-91.685a1.311,1.311,0,0,0-2.621,0" transform="translate(41.254 136.975)" fill="#d3d0c9"/>
          <path id="Trazado_725239" data-name="Trazado 725239" d="M91.813,192.725c6.433.13,12.865.285,19.3.391,5.583.093,11.526.866,16.917-.668a1.423,1.423,0,0,0,0-2.722c-5.349-1.521-11.377-.761-16.917-.668-6.433.11-12.865.26-19.3.391a1.639,1.639,0,0,0,0,3.276" transform="translate(-43.901 201.442)" fill="#d3d0c9"/>
          <path id="Trazado_725240" data-name="Trazado 725240" d="M53.065,190.754a75.237,75.237,0,0,0,19.622.219c1.877-.254,1.877-3.537,0-3.791a75.237,75.237,0,0,0-19.622.219c-1.66.223-1.662,3.127,0,3.353" transform="translate(90.437 199.15)" fill="#d3d0c9"/>
          <path id="Trazado_725241" data-name="Trazado 725241" d="M90.894,107.115a52.881,52.881,0,0,0,12.2-2.148c3.1-.969,7.295-1.945,9.056-4.843a1.451,1.451,0,0,0-1.24-2.16c-3.119-.2-6,2.017-8.917,3.008a56.133,56.133,0,0,1-11.1,2.565c-2.222.275-2.342,3.741,0,3.578" transform="translate(-25.053 104.518)" fill="#d3d0c9"/>
          <path id="Trazado_725242" data-name="Trazado 725242" d="M102.537,110.8c3.925-9.374.273-13.283,6.484-21.326l14.114,12.917a100.989,100.989,0,0,1,3.836-13.816c5.223,4.649,7.187,9.438,11.735,14.75,2.456-8.653,3.694-15.881,0-25.778C134.9,67.351,128.817,64.389,121.151,64A60.863,60.863,0,0,1,118.1,91.449C110.082,86.562,88.051,67.225,80.38,53.6c0,0-9.994,9-9.994,15.428,0,7.747,25.4,34.3,32.151,41.779" transform="translate(-14.882 57.188)" fill="#4639b9"/>
          <path id="Trazado_725243" data-name="Trazado 725243" d="M37,81.96a22.761,22.761,0,1,0,27.7-16.4A22.761,22.761,0,0,0,37,81.96" transform="translate(114.845 69.188)" fill="#090d46"/>
          <rect id="Rectángulo_339884" data-name="Rectángulo 339884" width="6.818" height="41.341" transform="translate(162.064 216.686) rotate(-165.622)" fill="#090d46"/>
          <path id="Trazado_725244" data-name="Trazado 725244" d="M38.948,80.8A18.445,18.445,0,1,0,61.394,67.511,18.446,18.446,0,0,0,38.948,80.8" transform="translate(117.072 71.417)" fill="#b6dbff"/>
          <path id="Trazado_725245" data-name="Trazado 725245" d="M64.831,95.8l-5.655,22.078a4.827,4.827,0,1,1-9.351-2.4L55.478,93.4Z" transform="translate(104.139 99.661)" fill="#fad349"/>
          <path id="Trazado_725246" data-name="Trazado 725246" d="M56,79.244l-12.21,7.23a1.785,1.785,0,0,1-1.819-3.07l12.21-7.23A1.785,1.785,0,0,1,56,79.244" transform="translate(129.8 81.001)" fill="#fff"/>
          <path id="Trazado_725247" data-name="Trazado 725247" d="M64.013,74.474,45.019,85.723a1.785,1.785,0,0,1-1.819-3.07L62.194,71.4a1.785,1.785,0,0,1,1.819,3.07" transform="translate(119.247 75.911)" fill="#fff"/>
          <path id="Trazado_725248" data-name="Trazado 725248" d="M55.891,72.8l-6.513,3.857a1.784,1.784,0,0,1-1.817-3.07l6.511-3.857a1.785,1.785,0,0,1,1.819,3.07" transform="translate(118.356 74.126)" fill="#fff"/>
          <path id="Trazado_725249" data-name="Trazado 725249" d="M90.681,111.413c1.036-.5,17.617-.527,17.338-2.933-.225-1.939-15.428-1.643-12.667-1.937,9.9-1.058,18.552-2.545,16.387-3.932-3.216-2.137-11.679-.779-17.9-1.645,3.287-1.507,7.642-1.143,10.984-1.313s12.377-.358,9.366-2.993c-5.2-1.114-13.895-2.222-19.17-1.559,3.074-3.328,19.7-2.8,14.527-6.571-5.815-.074-11.629-.188-17.444-.225a14.786,14.786,0,0,0-8.75,3.429c-3.94,3.907-7.487,11.088-10.12,16.09C70.161,113.669,56.316,120.7,46.1,129.213c-9.442,14.3-2.809,27.934,9.246,18.479,4.884-3.832,12.822-17.005,19.606-22.316,3.6-2.815,7.369-1.248,9.688-3.717,1.926-2.048,5.308-9.895,6.036-10.246" transform="translate(70.802 94.225)" fill="#e89e85"/>
          <path id="Trazado_725250" data-name="Trazado 725250" d="M71.821,154.538c9.285,28.174,9.9,35.768,26.115,60.729,5.261,8.1,11.331,12.927,24.1,8.818,10.352-3.332,59.367-41.808,78.87-57.629a197.658,197.658,0,0,1-18.448-30.377,563.317,563.317,0,0,1-63.164,40.3C115.87,155.367,106.029,61.263,80.127,68.6,68.142,72,61.736,84.809,61.478,97.463c-.254,12.3,2.3,32.678,10.343,57.075" transform="translate(-56.3 72.768)" fill="#efebe4"/>
          <path id="Trazado_725251" data-name="Trazado 725251" d="M74.4,118.072a3.888,3.888,0,1,1-3.888-3.888,3.888,3.888,0,0,1,3.888,3.888" transform="translate(59.529 121.838)" fill="#d3d0c9"/>
          <path id="Trazado_725252" data-name="Trazado 725252" d="M81.28,122.841a3.888,3.888,0,1,1-3.888-3.888,3.888,3.888,0,0,1,3.888,3.888" transform="translate(38.428 126.927)" fill="#d3d0c9"/>
          <path id="Trazado_725253" data-name="Trazado 725253" d="M110.3,122.441c-5.445,7.479-11.119,18.951-9.035,28.457.436,1.982,3.036,1.6,3.646,0,1.579-4.144,1.873-8.735,3.148-13A62.814,62.814,0,0,1,114,124.6c1.4-2.441-2.108-4.347-3.7-2.162" transform="translate(-51.101 129.626)" fill="#e2dfd8"/>
          <path id="Trazado_725254" data-name="Trazado 725254" d="M100.381,124.028c-3.258,10.149-4.012,22.754,1.949,32.051a1.544,1.544,0,0,0,2.809-1.184c-2.511-10.43-4.713-19.362-1.891-30.077a1.488,1.488,0,0,0-2.867-.79" transform="translate(-35.875 131.23)" fill="#e2dfd8"/>
          <path id="Trazado_725255" data-name="Trazado 725255" d="M73.605,79.428C75.848,94.711,87.731,105,96.7,110.747s14.209,9.87,22.973,3.82c3.617-2.5,10.544-9.792,12.6-13.673,4.126-7.764,5.939-12.237,7.177-20.941,1.525-10.709-1.778-18.256.732-31.547,2.007-10.631,2.449-19.033-2.861-28.457C128.6,4.471,104.216,5.372,89.435,7.836,82.771,8.948,76.652,13.444,72.814,19c-11.79,17.08-3.235,32.986.792,60.424" transform="translate(-8.055 6.867)" fill="#e89e85"/>
          <path id="Trazado_725256" data-name="Trazado 725256" d="M92.262,45.309a12.837,12.837,0,0,1-5.705.312c-2.741-.587-2.743-4.957,0-5.544a12.806,12.806,0,0,1,5.705.31,2.573,2.573,0,0,1,0,4.922" transform="translate(2.896 42.554)" fill="#e8866b"/>
          <path id="Trazado_725257" data-name="Trazado 725257" d="M74.884,46.158l-2.714.12a3.04,3.04,0,1,1,.808-5.978l2.627.529a2.691,2.691,0,0,1,1.943,2.977,2.729,2.729,0,0,1-2.664,2.352" transform="translate(51.123 42.923)" fill="#e8866b"/>
          <path id="Trazado_725258" data-name="Trazado 725258" d="M97.689,25.975c2.053,13.384-10.953,14.7-8.138,23.161,3.5,10.509-.3,15.265-6.5,21.939-1.544,1.664-4.217,1.083-6.484,1.2-2.989.157-5.986-1.435-8.892-.717-2.33-13.9-4.316-28.143-1.933-42.037C66.906,22.764,82.79,7.487,83.532,7.28s55.312-6.017,63.386,2.817c6.209,6.8,8.752,16.237,9.378,25.42.267,3.89-.688,8.723-5.453,7.948-4.161-.676-8.717-4.562-12.654-2.964-10.951,4.442-9.541-11.654-23.566-7.386-8.229,2.505-15.37-5.722-16.933-7.142" transform="translate(-18.362 5.562)" fill="#fb2d5d"/>
          <path id="Trazado_725259" data-name="Trazado 725259" d="M101.007,32.568c-4.6,2.987-4.6,8.994-3.254,13.963s6.484,9.374,11.627,9.589c6.842.285,5.961-7.793,5.527-12.508-1.184-12.894-8.6-14.49-13.9-11.044" transform="translate(-44.008 33.073)" fill="#e89e85"/>
          <path id="Trazado_725260" data-name="Trazado 725260" d="M89.743,37.8c0,3.018-1.428,5.463-3.191,5.463S83.36,40.814,83.36,37.8s1.428-5.463,3.192-5.463,3.191,2.445,3.191,5.463" transform="translate(9.592 34.5)" fill="#090d46"/>
          <path id="Trazado_725261" data-name="Trazado 725261" d="M77.164,37.8c0,3.018-1.426,5.463-3.189,5.463s-3.192-2.445-3.192-5.463,1.428-5.463,3.192-5.463,3.189,2.445,3.189,5.463" transform="translate(48.169 34.5)" fill="#090d46"/>
          <path id="Trazado_725262" data-name="Trazado 725262" d="M109.221,34.174a4.96,4.96,0,0,0-6.416-.539c-2.4,1.536-3.237,4.581-3.049,7.295.217,3.09,2.379,10.492,6.6,9.471a.844.844,0,0,0,.5-1.232c-.748-.984-1.836-1.515-2.573-2.528a10.939,10.939,0,0,1-1.561-3.624c-.883-3.285.289-10.527,5.314-7.311.949.606,1.937-.748,1.18-1.532" transform="translate(-43.991 34.906)" fill="#d18774"/>
          <path id="Trazado_725263" data-name="Trazado 725263" d="M103.52,36.236c-2.389-.85-4.717.217-4.721,2.954a5.73,5.73,0,0,0,4.221,5.653.807.807,0,0,0,.62-1.468,6.8,6.8,0,0,1-2.4-3.735c-.283-1.432.4-1.722,1.707-1.327,1.341.405,1.864-1.618.573-2.077" transform="translate(-36.839 38.361)" fill="#d18774"/>
          <path id="Trazado_725264" data-name="Trazado 725264" d="M78.656,36.428C78.741,43.3,80.591,49.045,83.3,55.3c.4.934-.039,2.286-1.269,2.212a42.846,42.846,0,0,0-5.775.308,1.007,1.007,0,0,1-.5-1.864,14.3,14.3,0,0,1,6.28-1.383l-1.269,2.212c-2.751-6.424-5.91-13.545-4.227-20.646a1.087,1.087,0,0,1,2.125.287" transform="translate(32.623 37.739)" fill="#d18774"/>
          <path id="Trazado_725265" data-name="Trazado 725265" d="M94.8,52.368c-6.588,3.216-14.343,3.034-19.416-2.855a1.152,1.152,0,0,1,1.391-1.8c2.439,1.189,4.353,3.15,7.018,3.95,3.535,1.06,6.871-.089,10.248-1.1,1.048-.312,1.778,1.3.759,1.8" transform="translate(21.172 50.765)" fill="#d18774"/>
          <path id="Trazado_725266" data-name="Trazado 725266" d="M96.125,30.437c-1.654-.49-3-1.647-4.742-2.057-3.214-.757-5.478.544-8.231,2.007a.844.844,0,0,1-1.017-1.319c2.026-2.6,5.538-3.491,8.7-3,2.055.318,5.035,1.265,6.307,3.041.469.655-.306,1.542-1.021,1.329" transform="translate(5.005 27.678)" fill="#fb2d5d"/>
          <path id="Trazado_725267" data-name="Trazado 725267" d="M68.784,29.108c1.277-1.784,4.25-2.722,6.307-3.041,3.169-.492,6.677.4,8.7,3a.844.844,0,0,1-1.017,1.321c-2.743-1.459-5.017-2.764-8.231-2.009-1.738.409-3.09,1.569-4.742,2.059-.711.211-1.49-.674-1.021-1.329" transform="translate(45.758 27.677)" fill="#fb2d5d"/>
          <path id="Trazado_725268" data-name="Trazado 725268" d="M108.949,13.074c2.979,5.046.176,11-4.233,13.783-4.252,2.683-5.98,6.019-5.862,11.236.081,3.6,2.437,8.5-1.627,10.554A.83.83,0,0,1,96.1,47.519c3.287-5.875-1.364-13.37,3.233-19.223,3.442-4.388,12.3-6.135,8-14.277a.937.937,0,0,1,1.616-.945" transform="translate(-36.952 13.463)" fill="#fc4777"/>
          <path id="Trazado_725269" data-name="Trazado 725269" d="M123.037,12.105c-3.677,1.641-8.175,3.1-10.319,6.894-2.71,4.791-.845,12.619-2.491,18.134-2.216,7.433-9.808,13.56-6.081,21.4.533,1.124-.872,2.441-1.827,1.41-7.063-7.638,3.2-16,5.436-23.492,2.005-6.726-1.118-14.657,3.619-20.418,2.793-3.4,6.871-4.514,10.842-5.877,1.127-.384,1.931,1.453.821,1.949" transform="translate(-58.37 10.781)" fill="#fc4777"/>
          <path id="Trazado_725270" data-name="Trazado 725270" d="M121.142,24.323c-9.655,5.184-14.511-.728-21.892-5.569-5.583-3.663-10.315.781-16.158-.242-5.668-.992-9.833-8.611-16.272-5.221a.857.857,0,0,1-.864-1.478c2.706-1.689,4.353-1.922,7.295-1.052,6.4,1.893,6.885,6.788,15.511,5.434,3.888-.612,6.129-2.214,9.8-.4,7.962,3.931,10.346,12.417,21.861,7.3.816-.362,1.54.785.717,1.228" transform="translate(14.654 10.955)" fill="#fc4777"/>
          <path id="Trazado_725271" data-name="Trazado 725271" d="M121.776,15.619c-3.194,1.86-7.34,4.13-11.2,3.316-2.46-.521-2.768-1.4-4.8-2.7-5.143-3.289-7.795-5.294-13.833-3.419C81.03,16.2,80.888,1.691,68.713,7.233c-.515.234-1.2-.449-.664-.862,9.184-7.1,11.59,2.336,19.178,4.467,4.38,1.23,7.282-2.315,11.728-1.637a10.22,10.22,0,0,1,3.934,1.716c3.907,2.536,3.264,3.776,8.378,4.953,4.442,1.021,5.928.568,9.758-1.534a.744.744,0,0,1,.75,1.284" transform="translate(9.247 4.018)" fill="#fc4777"/>
          <path id="Trazado_725272" data-name="Trazado 725272" d="M110.885,44.545c2.017,2.534,3.735,5.376,1.379,8.252-1.972,2.406-4.992,2.842-5.757,6.42-.75,3.514,1.155,6.7,1.523,10.091.085.785-.988.891-1.354.368a14.556,14.556,0,0,1-2.011-11.66,8.593,8.593,0,0,1,2.245-3.83c2.52-2.439,6.156-3.851,2.6-8.584-.587-.783.754-1.831,1.37-1.056" transform="translate(-57.147 47.241)" fill="#fc4777"/>
          <path id="Trazado_725273" data-name="Trazado 725273" d="M115.63,38.791c6.97,6.571,5.287,11.59.852,18.438-3.154,4.868-1.788,9.539-.318,14.816.556,2,1.342,3.836,1.116,5.943-.411,3.853-3.142,6.474-6.056,8.789a1.05,1.05,0,0,1-1.484-1.484c2.144-2.46,4.907-4.554,5.259-8.21.1-.98-2.086-6.329-2.373-7.228-.941-2.954-1.761-5-1.007-8.074,2.181-8.874,13.5-11.073,2.917-21.894a.775.775,0,0,1,1.1-1.1" transform="translate(-74.911 41.156)" fill="#fc4777"/>
          <path id="Trazado_725274" data-name="Trazado 725274" d="M64.8,68.272a33.1,33.1,0,0,0,2.387-3.8c2.766-5.821,1.447-8.682-1.174-13.756-1.59-3.076-3.6-5.728-4-9.279-.67-5.941,2.908-11.817,5.639-16.793.343-.624,1.449-.2,1.18.5-2.72,7.032-6.085,12.954-3.44,20.931,1.141,3.442,4.541,5.9,5.349,9.537,1.062,4.785-1.575,10.24-4.982,13.4-.49.455-1.36-.138-.963-.744" transform="translate(72.644 25.979)" fill="#fc4777"/>
          <path id="Trazado_725275" data-name="Trazado 725275" d="M66.818,52.776c-.287,6.011,6.5,15.931-.606,20.389-.767.48-1.889-.523-1.3-1.3,4.485-5.988-.074-12.5.99-19.209.083-.521.945-.4.92.124" transform="translate(68.345 55.824)" fill="#fc4777"/>
          <path id="Trazado_725276" data-name="Trazado 725276" d="M71.694,55.88c1.176,2.954,1.22,7.559-1.685,9.577-.513.356-1.079-.229-.974-.748.267-1.308.9-2.5,1.147-3.822a10.425,10.425,0,0,0-.2-4.533.889.889,0,0,1,1.714-.473" transform="translate(56.524 58.977)" fill="#fc4777"/>
        </g>
      </g>
      <g id="Grupo_957604" data-name="Grupo 957604" transform="translate(164.777 8040.218)">
        <rect id="Rectángulo_339886" data-name="Rectángulo 339886" width="32.664" height="63.829" transform="translate(269.142 116.461)" fill="#4639b9"/>
        <g id="Grupo_957607" data-name="Grupo 957607" transform="translate(-13.249 1.783)">
          <rect id="Rectángulo_339887" data-name="Rectángulo 339887" width="32.795" height="64.084" transform="translate(270.217 116.927)" fill="#4639b9"/>
          <g id="Grupo_957606" data-name="Grupo 957606">
            <g id="Grupo_957608" data-name="Grupo 957608">
              <path id="Trazado_725277" data-name="Trazado 725277" d="M290.9,3.467H99.219a9.129,9.129,0,0,0-9.13,9.13V117.69a9.129,9.129,0,0,0,9.13,9.13H290.9a9.129,9.129,0,0,0,9.13-9.13V12.6a9.129,9.129,0,0,0-9.13-9.13" transform="translate(91.557 3.523)" fill="#090d46"/>
              <rect id="Rectángulo_339888" data-name="Rectángulo 339888" width="188.07" height="105.228" transform="translate(192.58 16.052)" fill="#fad349"/>
              <rect id="Rectángulo_339889" data-name="Rectángulo 339889" width="118.258" height="9.138" transform="translate(227.486 181.011)" fill="#090d46"/>
              <path id="Trazado_725278" data-name="Trazado 725278" d="M164.256,30.955a6.253,6.253,0,1,0,6.253,6.253,6.253,6.253,0,0,0-6.253-6.253" transform="translate(160.577 31.459)" fill="#fb2d5d"/>
              <path id="Trazado_725279" data-name="Trazado 725279" d="M210.22,57.731c-1.22-.978-2.573-1.96-3.988-2.938,1.415-.978,2.768-1.958,3.988-2.938,6.64-5.321,9.408-9.874,8-13.168s-6.6-4.46-15.04-3.363a83.76,83.76,0,0,0-11.567,2.456c-1.732-13.384-5.557-24.129-11.249-24.129S170.848,24.4,169.116,37.792c-12.991-3.643-24.381-4.341-26.607.9C140.674,43,146.056,49,154.5,54.793c-8.442,5.8-13.824,11.793-11.989,16.106,1.127,2.653,4.605,3.787,9.448,3.787,4.718,0,10.749-1.1,17.157-2.9,1.732,13.394,5.559,24.149,11.255,24.149s9.517-10.745,11.249-24.131a83.49,83.49,0,0,0,11.567,2.458,44.01,44.01,0,0,0,5.589.4c5.16,0,8.392-1.272,9.45-3.762,1.4-3.295-1.365-7.847-8-13.168m-6.757-20.262a41.574,41.574,0,0,1,5.3-.377c4.1,0,6.789.845,7.468,2.442.94,2.208-1.815,6.184-7.37,10.634-1.381,1.109-2.92,2.222-4.559,3.329a115.223,115.223,0,0,0-11.858-6.7c-.133-2.315-.321-4.609-.567-6.841a82.235,82.235,0,0,1,11.582-2.482M184.341,64.133q-2.011.856-3.968,1.619c-1.321-.516-2.647-1.053-3.978-1.619-2.1-.891-4.085-1.809-6.011-2.736-.1-2.135-.165-4.323-.165-6.6s.067-4.47.165-6.6c1.926-.925,3.912-1.843,6.011-2.736q1.984-.844,3.958-1.611c1.315.514,2.635,1.034,3.988,1.611,2.061.875,4.059,1.794,6.011,2.734.1,2.135.165,4.325.165,6.605s-.067,4.47-.165,6.605c-1.952.94-3.95,1.859-6.011,2.734m5.878-.278c-.115,1.786-.268,3.5-.448,5.164q-3.154-.962-6.43-2.147c.615-.25,1.236-.488,1.847-.748,1.716-.73,3.385-1.492,5.031-2.268m-12.84,3.018q-3.318,1.207-6.414,2.139c-.179-1.659-.333-3.375-.448-5.162,1.663.786,3.341,1.555,5.033,2.272.611.26,1.22.5,1.829.75m-9.214-6.565c-3.615-1.825-6.874-3.682-9.747-5.515,2.873-1.833,6.132-3.69,9.747-5.515-.073,1.837-.109,3.682-.109,5.515s.036,3.678.109,5.515m2.353-14.572c.115-1.784.268-3.5.448-5.162,2.053.623,4.194,1.347,6.4,2.147-.6.248-1.206.484-1.811.742-1.692.718-3.369,1.486-5.033,2.272m12.834-3.024q3.266-1.192,6.42-2.143c.179,1.661.333,3.377.448,5.164-1.645-.776-3.315-1.538-5.031-2.268-.609-.258-1.224-.5-1.837-.752m9.22,6.571c3.514,1.774,6.789,3.625,9.747,5.511-2.958,1.885-6.232,3.736-9.747,5.511.073-1.835.109-3.68.109-5.511s-.036-3.676-.109-5.511m-12.2-33.468c3.545,0,7.382,8.749,9.15,22.568-2.974.9-6.043,1.95-9.158,3.145-3.051-1.167-6.13-2.234-9.144-3.139,1.766-13.824,5.605-22.574,9.152-22.574M144.5,39.534c.679-1.6,3.317-2.444,7.41-2.444a66.2,66.2,0,0,1,16.945,2.869c-.246,2.234-.436,4.531-.569,6.849A118.852,118.852,0,0,0,156.423,53.5c-8.632-5.835-13.094-11.213-11.924-13.963m0,30.519c-1.169-2.75,3.293-8.128,11.924-13.963a119.257,119.257,0,0,0,11.862,6.69c.133,2.321.323,4.619.571,6.857-13.412,3.785-22.968,3.678-24.357.415m35.87,23.72c-3.547,0-7.388-8.755-9.154-22.584,3.02-.907,6.1-1.958,9.154-3.127,3.111,1.194,6.178,2.25,9.15,3.143-1.768,13.82-5.605,22.568-9.15,22.568m35.866-23.72c-.942,2.21-5.716,2.978-12.771,2.065a82.232,82.232,0,0,1-11.582-2.482c.246-2.232.434-4.525.567-6.841a115.222,115.222,0,0,0,11.858-6.7c1.639,1.107,3.178,2.22,4.559,3.329,5.555,4.45,8.309,8.426,7.37,10.634" transform="translate(144.466 13.873)" fill="#c43ad6"/>
              <path id="Trazado_725280" data-name="Trazado 725280" d="M107.576,64.849l-1.518-1.341,19.05-21.584L111.429,19.88l1.72-1.069,14.473,23.324Z" transform="translate(107.785 19.118)" fill="#fff"/>
              <path id="Trazado_725281" data-name="Trazado 725281" d="M142.378,47.117l-27.452-5.952,28.93-21,1.19,1.637-25.27,18.344,23.03,4.994Z" transform="translate(116.799 20.492)" fill="#fff"/>
              <path id="Trazado_725282" data-name="Trazado 725282" d="M116.487,69.507l-2.02-.127,2.541-40.661L138.446,63.44,136.724,64.5,118.63,35.2Z" transform="translate(116.331 29.187)" fill="#fff"/>
              <path id="Trazado_725283" data-name="Trazado 725283" d="M117.379,21.834a5.473,5.473,0,1,1-5.472-5.472,5.472,5.472,0,0,1,5.472,5.472" transform="translate(108.167 16.629)" fill="#c43ad6"/>
              <path id="Trazado_725284" data-name="Trazado 725284" d="M124.36,33.084a5.473,5.473,0,1,1-5.472-5.472,5.472,5.472,0,0,1,5.472,5.472" transform="translate(115.262 28.062)" fill="#4639b9"/>
              <path id="Trazado_725285" data-name="Trazado 725285" d="M123.2,51.675a5.473,5.473,0,1,1-5.472-5.472,5.472,5.472,0,0,1,5.472,5.472" transform="translate(114.082 46.956)" fill="#c43ad6"/>
              <path id="Trazado_725286" data-name="Trazado 725286" d="M136.878,35.8a5.473,5.473,0,1,1-5.472-5.47,5.472,5.472,0,0,1,5.472,5.47" transform="translate(127.984 30.821)" fill="#090d46"/>
              <path id="Trazado_725287" data-name="Trazado 725287" d="M137.8,23.328a5.473,5.473,0,1,1-5.472-5.472,5.472,5.472,0,0,1,5.472,5.472" transform="translate(128.922 18.147)" fill="#4639b9"/>
              <path id="Trazado_725288" data-name="Trazado 725288" d="M134.164,48.961a5.473,5.473,0,1,1-5.472-5.472,5.472,5.472,0,0,1,5.472,5.472" transform="translate(125.226 44.198)" fill="#fb2d5d"/>
              <path id="Trazado_725289" data-name="Trazado 725289" d="M114.665,44.07a5.473,5.473,0,1,1-5.472-5.472,5.472,5.472,0,0,1,5.472,5.472" transform="translate(105.409 39.227)" fill="#090d46"/>
              <rect id="Rectángulo_339890" data-name="Rectángulo 339890" width="14.779" height="315.493" transform="translate(39.075 211.39)" fill="#090d46"/>
              <rect id="Rectángulo_339891" data-name="Rectángulo 339891" width="14.779" height="315.493" transform="translate(390.965 211.39)" fill="#090d46"/>
              <rect id="Rectángulo_339892" data-name="Rectángulo 339892" width="379.738" height="30.186" transform="translate(28.472 190.148)" fill="#4639b9"/>
              <rect id="Rectángulo_339893" data-name="Rectángulo 339893" width="43.975" height="8.944" transform="translate(62.098 132.759)" fill="#4639b9"/>
              <path id="Trazado_725290" data-name="Trazado 725290" d="M44.868,70.279l18.969,29.813L74.681,95.24,60.474,70.279Z" transform="translate(45.599 71.424)" fill="#d3d0c9"/>
              <rect id="Rectángulo_339894" data-name="Rectángulo 339894" width="62.221" height="24.808" transform="translate(81.094 82.718) rotate(-73.196)" fill="#090d46"/>
              <rect id="Rectángulo_339895" data-name="Rectángulo 339895" width="26.157" height="11.765" transform="translate(105.324 25.039) rotate(-73.196)" fill="#4639b9"/>
              <rect id="Rectángulo_339896" data-name="Rectángulo 339896" width="10.007" height="34.124" transform="translate(73.742 90.951) rotate(-73.196)" fill="#4639b9"/>
              <rect id="Rectángulo_339897" data-name="Rectángulo 339897" width="23.478" height="12.831" transform="matrix(0.289, -0.957, 0.957, 0.289, 77.147, 116.504)" fill="#090d46"/>
              <rect id="Rectángulo_339898" data-name="Rectángulo 339898" width="38.571" height="21.614" transform="translate(108.145 78.956) rotate(-73.196)" fill="#4639b9"/>
              <path id="Trazado_725291" data-name="Trazado 725291" d="M97.168,153.274c-.349-4.523,26.778-60.309-3.914-111.148C81.989,23.463,69.8,23.358,65.012,30.082c-3.966,5.575-2.53,15.294,5.942,27.974,10.245,15.336,7.059,55.7-18.693,95.217Z" transform="translate(53.112 26.441)" fill="#efebe4"/>
              <rect id="Rectángulo_339899" data-name="Rectángulo 339899" width="104.44" height="10.434" transform="translate(53.853 179.714)" fill="#090d46"/>
              <path id="Trazado_725292" data-name="Trazado 725292" d="M85.833,102.287s0-25.341-17.891-26.087-19.379,26.087-19.379,26.087Z" transform="translate(49.355 77.427)" fill="#4639b9"/>
              <path id="Trazado_725293" data-name="Trazado 725293" d="M67.9,86.964a6.708,6.708,0,1,1-6.708-6.708A6.709,6.709,0,0,1,67.9,86.964" transform="translate(55.367 81.564)" fill="#090d46"/>
              <path id="Trazado_725294" data-name="Trazado 725294" d="M72.662,35.248a6.708,6.708,0,1,1-6.708-6.708,6.709,6.709,0,0,1,6.708,6.708" transform="translate(60.211 29.005)" fill="#090d46"/>
              <path id="Trazado_725295" data-name="Trazado 725295" d="M66.744,33.264a2.772,2.772,0,1,1-2.772-2.772,2.772,2.772,0,0,1,2.772,2.772" transform="translate(62.196 30.989)" fill="#4639b9"/>
              <rect id="Rectángulo_339900" data-name="Rectángulo 339900" width="23.851" height="4.845" transform="translate(367.848 107.4)" fill="#81addf"/>
              <path id="Trazado_725296" data-name="Trazado 725296" d="M240.317,108.982a34.361,34.361,0,0,1-6.91,20.727,10.681,10.681,0,0,1-8.563,4.248H186.7a10.681,10.681,0,0,1-8.563-4.248,34.465,34.465,0,0,1,18.693-54.045V55.675h17.887v19.99a34.373,34.373,0,0,1,25.6,33.317" transform="translate(174.015 56.582)" fill="#b6dbff"/>
              <path id="Trazado_725297" data-name="Trazado 725297" d="M240.317,88.447a34.361,34.361,0,0,1-6.91,20.727,10.681,10.681,0,0,1-8.563,4.248H186.7a10.681,10.681,0,0,1-8.563-4.248,34.64,34.64,0,0,1-4.563-33.293h64.4a34.477,34.477,0,0,1,2.347,12.566" transform="translate(174.015 77.117)" fill="#fb2d5d"/>
              <path id="Trazado_725298" data-name="Trazado 725298" d="M179.973,85.621a2.257,2.257,0,1,1-2.258-2.258,2.258,2.258,0,0,1,2.258,2.258" transform="translate(178.317 84.721)" fill="#fff"/>
              <path id="Trazado_725299" data-name="Trazado 725299" d="M200.7,86.159a5.217,5.217,0,1,1-5.216-5.218,5.217,5.217,0,0,1,5.216,5.218" transform="translate(193.366 82.26)" fill="#fff"/>
              <path id="Trazado_725300" data-name="Trazado 725300" d="M191.491,89.561a3.108,3.108,0,1,1-3.107-3.107,3.106,3.106,0,0,1,3.107,3.107" transform="translate(188.294 87.863)" fill="#fff"/>
              <path id="Trazado_725301" data-name="Trazado 725301" d="M204.514,82.134a2.041,2.041,0,1,1-2.04-2.04,2.04,2.04,0,0,1,2.04,2.04" transform="translate(203.697 81.399)" fill="#fff"/>
              <path id="Trazado_725302" data-name="Trazado 725302" d="M183.007,89.022a2.042,2.042,0,1,1-2.04-2.038,2.041,2.041,0,0,1,2.04,2.038" transform="translate(181.839 88.401)" fill="#fff"/>
              <path id="Trazado_725303" data-name="Trazado 725303" d="M190.262,81.841a3.418,3.418,0,1,1-3.418-3.418,3.418,3.418,0,0,1,3.418,3.418" transform="translate(186.415 79.701)" fill="#fff"/>
              <path id="Trazado_725304" data-name="Trazado 725304" d="M199.635,90.863a2.1,2.1,0,1,1-2.1-2.1,2.1,2.1,0,0,1,2.1,2.1" transform="translate(198.625 90.212)" fill="#fff"/>
              <path id="Trazado_725305" data-name="Trazado 725305" d="M141.129,60.46v61.848a6.517,6.517,0,0,1-6.531,6.507H98.465a6.515,6.515,0,0,1-6.527-6.507V60.46Z" transform="translate(93.436 61.445)" fill="#b6dbff"/>
              <rect id="Rectángulo_339901" data-name="Rectángulo 339901" width="56.646" height="6.164" transform="translate(181.646 115.733)" fill="#81addf"/>
              <path id="Trazado_725306" data-name="Trazado 725306" d="M141.129,72.925V109.64a6.517,6.517,0,0,1-6.531,6.507H98.465a6.515,6.515,0,0,1-6.527-6.507V72.925Z" transform="translate(93.436 74.113)" fill="#c43ad6"/>
              <path id="Trazado_725307" data-name="Trazado 725307" d="M106.366,82.507a5.077,5.077,0,1,1-5.077-5.077,5.076,5.076,0,0,1,5.077,5.077" transform="translate(97.78 78.692)" fill="#fff"/>
              <path id="Trazado_725308" data-name="Trazado 725308" d="M110.548,79.249a2.167,2.167,0,1,1-2.165-2.165,2.166,2.166,0,0,1,2.165,2.165" transform="translate(107.945 78.34)" fill="#fff"/>
              <path id="Trazado_725309" data-name="Trazado 725309" d="M108.225,88.086a2.719,2.719,0,1,1-2.72-2.72,2.718,2.718,0,0,1,2.72,2.72" transform="translate(104.462 86.757)" fill="#fff"/>
              <path id="Trazado_725310" data-name="Trazado 725310" d="M100.77,89.528a1.02,1.02,0,1,1-1.02-1.02,1.02,1.02,0,0,1,1.02,1.02" transform="translate(100.339 89.95)" fill="#fff"/>
              <path id="Trazado_725311" data-name="Trazado 725311" d="M115.973,84.789a3.17,3.17,0,1,1-3.17-3.17,3.17,3.17,0,0,1,3.17,3.17" transform="translate(111.42 82.949)" fill="#fff"/>
              <path id="Trazado_725312" data-name="Trazado 725312" d="M110.758,91.093a1.592,1.592,0,1,1-1.593-1.591,1.592,1.592,0,0,1,1.593,1.591" transform="translate(109.327 90.96)" fill="#fff"/>
              <path id="Trazado_725313" data-name="Trazado 725313" d="M183.118,122.917a6.518,6.518,0,0,1-6.529,6.507H140.433a6.5,6.5,0,0,1-6.507-6.507l7.333-20.594,8.317-23.365V59.751h17.889V78.958l8.319,23.365Z" transform="translate(136.108 60.724)" fill="#b6dbff"/>
              <rect id="Rectángulo_339902" data-name="Rectángulo 339902" width="23.851" height="4.845" transform="translate(282.696 115.622)" fill="#81addf"/>
              <path id="Trazado_725314" data-name="Trazado 725314" d="M183.118,101.459a6.518,6.518,0,0,1-6.529,6.507H140.433a6.5,6.5,0,0,1-6.507-6.507l7.333-20.594h34.525Z" transform="translate(136.108 82.182)" fill="#ea9639"/>
              <path id="Trazado_725315" data-name="Trazado 725315" d="M145.23,87.218a2.512,2.512,0,1,1-2.512-2.51,2.512,2.512,0,0,1,2.512,2.51" transform="translate(142.489 86.088)" fill="#fff"/>
              <path id="Trazado_725316" data-name="Trazado 725316" d="M156.711,87.959a4.371,4.371,0,1,1-4.371-4.371,4.372,4.372,0,0,1,4.371,4.371" transform="translate(150.379 84.95)" fill="#fff"/>
              <path id="Trazado_725317" data-name="Trazado 725317" d="M148.757,92.078a2.612,2.612,0,1,1-2.613-2.613,2.614,2.614,0,0,1,2.613,2.613" transform="translate(145.872 90.923)" fill="#fff"/>
              <path id="Trazado_725318" data-name="Trazado 725318" d="M156.437,91.02a1.555,1.555,0,1,1-1.555-1.555,1.554,1.554,0,0,1,1.555,1.555" transform="translate(155.826 90.923)" fill="#fff"/>
              <path id="Trazado_725319" data-name="Trazado 725319" d="M140.819,90.489a1.531,1.531,0,1,1-1.53-1.53,1.531,1.531,0,0,1,1.53,1.53" transform="translate(140 90.408)" fill="#fff"/>
              <path id="Trazado_725320" data-name="Trazado 725320" d="M125.88,317.86H39.7l-6.5-99.931h99.173Z" transform="translate(33.746 221.48)" fill="#d3d0c9"/>
              <rect id="Rectángulo_339903" data-name="Rectángulo 339903" width="109.225" height="18.415" transform="translate(61.926 420.994)" fill="#090d46"/>
              <path id="Trazado_725321" data-name="Trazado 725321" d="M131.31,189.187h-93.4l-6.5,39.538H137.809Z" transform="translate(31.927 192.269)" fill="#090d46"/>
              <path id="Trazado_725322" data-name="Trazado 725322" d="M109.481,228.724V189.187H40.756v39.537" transform="translate(41.42 192.269)" fill="#4639b9"/>
            </g>
          </g>
        </g>
      </g>
    </g>
  </g>
</svg>
