<svg xmlns="http://www.w3.org/2000/svg" width="290" height="164" viewBox="0 0 290 164">
  <g id="Grupo_983759" data-name="Grupo 983759" transform="translate(-390 -9519)">
    <path id="Trazado_725461" data-name="Trazado 725461" d="M19,0H271a19,19,0,0,1,19,19V145a19,19,0,0,1-19,19H19A19,19,0,0,1,0,145V19A19,19,0,0,1,19,0Z" transform="translate(390 9519)" fill="#e4ebf2"/>
    <path id="Trazado_725462" data-name="Trazado 725462" d="M8.5-10.547,5.172-7.562,3.859,0H.922L4.875-22.75H7.813L5.875-11.672,17.469-22.75H21.25L10.672-12.562,17.75,0H14.484Z" transform="translate(420 9615)" fill="#12263f"/>
    <path id="Trazado_725463" data-name="Trazado 725463" d="M18.266-7.25a9.069,9.069,0,0,1-3.2,5.594A8.953,8.953,0,0,1,8.984.313,7.087,7.087,0,0,1,5.3-.727,6.565,6.565,0,0,1,2.844-3.586a10.68,10.68,0,0,1-.969-4.133,13.246,13.246,0,0,1,.109-2.5l.266-1.875a14.151,14.151,0,0,1,3.6-8.086,9.089,9.089,0,0,1,6.977-2.883,6.806,6.806,0,0,1,5.078,2.07,8.234,8.234,0,0,1,1.984,5.57H16.969q-.2-4.781-3.75-5.156l-.516-.031a6.038,6.038,0,0,0-4.93,2.2A11.885,11.885,0,0,0,5.219-12.2L4.875-9.844,4.781-8.469A7.734,7.734,0,0,0,5.8-3.9a3.859,3.859,0,0,0,3.32,1.758,5.849,5.849,0,0,0,3.93-1.141A7.59,7.59,0,0,0,15.422-7.2Zm3.391-1.234a13.155,13.155,0,0,1,1.422-4.656,8.061,8.061,0,0,1,2.734-3.109,6.253,6.253,0,0,1,3.578-.984,5.281,5.281,0,0,1,4.344,2.063L35.359-24h2.828L34.031,0H31.453l.3-1.812A6.232,6.232,0,0,1,26.813.313a4.671,4.671,0,0,1-3.734-1.836,8,8,0,0,1-1.5-4.758A15.2,15.2,0,0,1,21.656-8.484Zm2.719,1.615a5.858,5.858,0,0,0,.8,3.464,2.875,2.875,0,0,0,2.469,1.264Q30.094-2.031,32-4.606l1.344-7.8a3.508,3.508,0,0,0-3.406-2.372,4.286,4.286,0,0,0-2.945,1.007,6.511,6.511,0,0,0-1.937,2.949A12.164,12.164,0,0,0,24.375-6.869Z" transform="translate(476 9615)" fill="#12263f"/>
    <path id="Trazado_725464" data-name="Trazado 725464" d="M6.547-7.8,4.328-5.812,3.328,0H.5L4.672-24H7.5L5-9.656l1.734-1.75,6-5.5h3.672L8.641-9.7,13.984,0H10.891Z" transform="translate(601 9615)" fill="#12263f"/>
    <path id="Trazado_725465" data-name="Trazado 725465" d="M6.547-4.266l6.016-12.641h3.125L5.656,2.813Q3.562,6.922.281,6.875a9.21,9.21,0,0,1-1.7-.281l.25-2.344.734.078a3.707,3.707,0,0,0,2.32-.6A5.544,5.544,0,0,0,3.609,1.578L4.625-.359,1.7-16.906H4.656Z" transform="translate(551 9591)" fill="#12263f"/>
    <path id="Trazado_725466" data-name="Trazado 725466" d="M6.547-4.266l6.016-12.641h3.125L5.656,2.813Q3.562,6.922.281,6.875a9.21,9.21,0,0,1-1.7-.281l.25-2.344.734.078a3.707,3.707,0,0,0,2.32-.6A5.544,5.544,0,0,0,3.609,1.578L4.625-.359,1.7-16.906H4.656Z" transform="translate(635 9591)" fill="#12263f"/>
    <path id="Trazado_725467" data-name="Trazado 725467" d="M11.549,2.286H-1.922L-1.514,0H11.958Z" transform="translate(547 9601)" fill="#12263f"/>
    <path id="Trazado_725468" data-name="Trazado 725468" d="M11.549,2.286H-1.922L-1.514,0H11.958Z" transform="translate(632 9601)" fill="#12263f"/>
    <path id="Trazado_725469" data-name="Trazado 725469" d="M3.547,0H.734L4.891-24H7.719Z" transform="translate(541 9635)" fill="#12263f"/>
    <path id="Trazado_725470" data-name="Trazado 725470" d="M11.219-1.672A6.529,6.529,0,0,1,6.172.313,4.213,4.213,0,0,1,2.586-1.422a6.633,6.633,0,0,1-.867-4.562L3.531-16.906H6.359L4.531-5.937A7.285,7.285,0,0,0,4.5-4.594a2.8,2.8,0,0,0,.672,1.766,2.293,2.293,0,0,0,1.656.688,5.073,5.073,0,0,0,4.688-2.453l2.125-12.312h2.828L13.531,0H10.859Z" transform="translate(542 9628)" fill="#12263f"/>
    <path id="Trazado_725471" data-name="Trazado 725471" d="M3.547,0H.734L4.891-24H7.719Z" transform="translate(625 9635)" fill="#12263f"/>
    <path id="Trazado_725472" data-name="Trazado 725472" d="M11.219-1.672A6.529,6.529,0,0,1,6.172.313,4.213,4.213,0,0,1,2.586-1.422a6.633,6.633,0,0,1-.867-4.562L3.531-16.906H6.359L4.531-5.937A7.285,7.285,0,0,0,4.5-4.594a2.8,2.8,0,0,0,.672,1.766,2.293,2.293,0,0,0,1.656.688,5.073,5.073,0,0,0,4.688-2.453l2.125-12.312h2.828L13.531,0H10.859Z" transform="translate(627 9628)" fill="#12263f"/>
    <path id="Trazado_725473" data-name="Trazado 725473" d="M9.741,0H.236L.461-1.446,5.968-6.8l1-.995a5.885,5.885,0,0,0,1.917-3.2,2.372,2.372,0,0,0-.441-1.841,2.074,2.074,0,0,0-1.62-.754,3.055,3.055,0,0,0-2.246.784,3.6,3.6,0,0,0-1.1,2.261l-1.835.01A5.193,5.193,0,0,1,2.5-12.966,4.712,4.712,0,0,1,4.373-14.6,5.392,5.392,0,0,1,6.9-15.135a4.143,4.143,0,0,1,2.948,1.123,3.327,3.327,0,0,1,.938,2.8A7.147,7.147,0,0,1,8.521-7.065l-.943.954-4.8,4.563H9.987Z" transform="translate(521 9602)" fill="#12263f"/>
    <path id="Trazado_725474" data-name="Trazado 725474" d="M15.531-12.719H2.875l.438-2.516H15.984ZM14.406-6.234H1.75l.438-2.5H14.859Z" transform="translate(450 9616)" fill="#12263f"/>
    <path id="Trazado_725475" data-name="Trazado 725475" d="M15.531-12.719H2.875l.438-2.516H15.984ZM14.406-6.234H1.75l.438-2.5H14.859Z" transform="translate(575 9616)" fill="#12263f"/>
  </g>
</svg>
