<svg xmlns="http://www.w3.org/2000/svg" width="123" height="122.886" viewBox="0 0 123 122.886">
  <g id="_038---Improved-Sense-of-Smell" data-name="038---Improved-Sense-of-Smell" transform="translate(0 0.085)">
    <path id="Oval" d="M23,0A23,23,0,1,1,0,23,23,23,0,0,1,23,0Z" transform="translate(77 -0.086)" fill="#d4f1e5"/>
    <path id="Shape" d="M49.233,26.822c-1.131,0-1.176-.314-5.636-4.774A2.082,2.082,0,0,1,46.541,19.1l2.467,2.467L60.06,6.833a2.082,2.082,0,1,1,3.331,2.5L50.9,25.989A2.082,2.082,0,0,1,49.233,26.822Z" transform="translate(46.546 6.446)" fill="#0e494d"/>
    <path id="Shape-2" data-name="Shape" d="M88.432,74.958a18.739,18.739,0,0,1-24.59,17.8,29.075,29.075,0,0,1-38.27,0,18.739,18.739,0,1,1-9.057-36.271L29.34,11.6a15.978,15.978,0,0,1,30.733,0L72.9,56.489A18.739,18.739,0,0,1,88.432,74.958Z" transform="translate(1.101 -0.048)" fill="#fdd7ad"/>
    <path id="Shape-3" data-name="Shape" d="M13.516,44.223a5.205,5.205,0,1,1-2.186-9.1Z" transform="translate(5.41 37.829)" fill="#59474e"/>
    <path id="Shape-4" data-name="Shape" d="M37.1,35.124a5.205,5.205,0,1,1-2.186,9.1Z" transform="translate(37.778 37.829)" fill="#59474e"/>
    <g id="Grupo_946427" data-name="Grupo 946427" transform="translate(0 99.896)">
      <path id="Shape-5" data-name="Shape" d="M24.376,48.611a2.082,2.082,0,0,0-2.27-.452c-.558.231-.156-.071-6.923,6.7A2.082,2.082,0,0,0,18.127,57.8l2.694-2.692v3.3a8.329,8.329,0,0,1-8.329,8.329H2.082a2.082,2.082,0,0,0,0,4.164H12.493A12.505,12.505,0,0,0,24.986,58.41v-3.3L27.678,57.8a2.082,2.082,0,0,0,2.944-2.944Z" transform="translate(0 -47.999)" fill="#3b97d3"/>
      <path id="Shape-6" data-name="Shape" d="M58.138,66.74H47.727A8.329,8.329,0,0,1,39.4,58.411v-3.3L42.091,57.8a2.082,2.082,0,0,0,2.944-2.944L38.788,48.61a2.082,2.082,0,0,0-2.27-.452c-.558.231-.156-.071-6.923,6.7A2.082,2.082,0,0,0,32.54,57.8l2.694-2.69v3.3A12.505,12.505,0,0,0,47.727,70.9H58.138a2.082,2.082,0,1,0,0-4.164Z" transform="translate(31.395 -48)" fill="#3b97d3"/>
      <path id="Shape-7" data-name="Shape" d="M27.788,51.611a2.082,2.082,0,0,0-2.27-.452c-.558.231-.156-.071-6.923,6.7A2.082,2.082,0,0,0,21.54,60.8l2.694-2.692v7.467a2.082,2.082,0,0,0,4.164,0V58.108L31.091,60.8a2.082,2.082,0,1,0,2.944-2.944Z" transform="translate(19.491 -44.752)" fill="#3b97d3"/>
    </g>
    <path id="Shape-8" data-name="Shape" d="M38.232,66.314A31.268,31.268,0,0,1,7,35.082a2.082,2.082,0,0,1,4.164,0,27.068,27.068,0,1,0,54.136,0,2.082,2.082,0,0,1,4.164,0A31.268,31.268,0,0,1,38.232,66.314Z" transform="translate(7.575 35.664)" fill="#f9c795"/>
  </g>
</svg>
