<svg id="antiolor" xmlns="http://www.w3.org/2000/svg" width="112.625" height="112.625" viewBox="0 0 112.625 112.625">
  <g id="Grupo_946428" data-name="Grupo 946428" transform="translate(23.824 1.512)">
    <path id="Trazado_684800" data-name="Trazado 684800" d="M108.3,39.363a32.489,32.489,0,0,0,32.489,32.489l21.3-36.376-21.3-28.6A32.489,32.489,0,0,0,108.3,39.363Z" transform="translate(-108.304 -6.874)" fill="#fff5f5"/>
    <path id="Trazado_684801" data-name="Trazado 684801" d="M256,6.874V71.852a32.489,32.489,0,1,0,0-64.978Z" transform="translate(-223.511 -6.874)" fill="#dfe9f2"/>
  </g>
  <g id="Grupo_946440" data-name="Grupo 946440" transform="translate(0 58.29)">
    <g id="Grupo_946429" data-name="Grupo 946429" transform="translate(2.354)">
      <path id="Trazado_684802" data-name="Trazado 684802" d="M58.183,298.3V277.623l3.7,3.7,4.666-4.666L54.883,264.991l-2.5,14.628,2.5,18.677,1.63,2.013Z" transform="translate(-43.218 -264.991)" fill="#00ca76"/>
      <path id="Trazado_684803" data-name="Trazado 684803" d="M15.368,281.323l3.7-3.7V298.3l1.562,1.681,1.738-1.681V264.991L10.7,276.657Z" transform="translate(-10.702 -264.991)" fill="#a3e686"/>
    </g>
    <g id="Grupo_946430" data-name="Grupo 946430" transform="translate(86.94)">
      <path id="Trazado_684804" data-name="Trazado 684804" d="M442.715,298.3V277.623l3.7,3.7,4.666-4.666-11.666-11.666-2.5,14.628,2.5,18.677,1.72,1.681Z" transform="translate(-427.749 -264.991)" fill="#00ca76"/>
      <path id="Trazado_684805" data-name="Trazado 684805" d="M399.9,281.323l3.7-3.7V298.3l1.84,1.286,1.46-1.286V264.991l-11.666,11.666Z" transform="translate(-395.233 -264.991)" fill="#a3e686"/>
    </g>
    <g id="Grupo_946439" data-name="Grupo 946439" transform="translate(0 33.305)">
      <g id="Grupo_946431" data-name="Grupo 946431">
        <path id="Trazado_684806" data-name="Trazado 684806" d="M0,416.4v21.03H56.313l11.666-11.575L56.312,416.4H31.339l-3.3,2.3-3.3-2.3H17.319l-3.3,2.3-3.3-2.3Z" transform="translate(0 -416.398)" fill="#ffd82e"/>
        <path id="Trazado_684807" data-name="Trazado 684807" d="M312.313,416.4H256v21.03h24.974l3.3-2.014,3.3,2.014h7.421l3.3-1.807,3.3,1.807h10.72Z" transform="translate(-199.688 -416.398)" fill="#fdbe00"/>
      </g>
      <g id="Grupo_946432" data-name="Grupo 946432" transform="translate(95.306 10.515)">
        <path id="Trazado_684808" data-name="Trazado 684808" d="M433.266,464.2h6.6v10.515h-6.6Z" transform="translate(-433.266 -464.199)" fill="#fd9d23"/>
      </g>
      <g id="Grupo_946434" data-name="Grupo 946434" transform="translate(81.286 10.515)">
        <g id="Grupo_946433" data-name="Grupo 946433">
          <path id="Trazado_684809" data-name="Trazado 684809" d="M369.531,464.2h6.6v10.515h-6.6Z" transform="translate(-369.531 -464.199)" fill="#fd9d23"/>
        </g>
      </g>
      <g id="Grupo_946436" data-name="Grupo 946436" transform="translate(24.74 0)">
        <g id="Grupo_946435" data-name="Grupo 946435">
          <path id="Trazado_684810" data-name="Trazado 684810" d="M112.469,416.4h6.6v10.515h-6.6Z" transform="translate(-112.469 -416.398)" fill="#fdbe00"/>
        </g>
      </g>
      <g id="Grupo_946438" data-name="Grupo 946438" transform="translate(10.72 0)">
        <g id="Grupo_946437" data-name="Grupo 946437">
          <path id="Trazado_684811" data-name="Trazado 684811" d="M48.734,416.4h6.6v10.515h-6.6Z" transform="translate(-48.734 -416.398)" fill="#fdbe00"/>
        </g>
      </g>
    </g>
  </g>
  <g id="Grupo_946441" data-name="Grupo 946441" transform="translate(22.312)">
    <path id="Trazado_684812" data-name="Trazado 684812" d="M108.03,34a27.433,27.433,0,0,1,27.4-27.4l3.959-2.912L135.432,0a34,34,0,0,0,0,68l2.908-3.581L135.432,61.4A27.433,27.433,0,0,1,108.03,34Z" transform="translate(-101.431)" fill="#ff6379"/>
    <path id="Trazado_684813" data-name="Trazado 684813" d="M256,0V6.6a27.4,27.4,0,0,1,0,54.8V68a34,34,0,0,0,0-68Z" transform="translate(-221.999)" fill="#e30058"/>
  </g>
  <g id="Grupo_946442" data-name="Grupo 946442" transform="translate(38.935 22.342)">
    <path id="Trazado_684814" data-name="Trazado 684814" d="M239.32,101.569a7.187,7.187,0,0,1-.485,2.825,15.069,15.069,0,0,0,0,9.895,8.478,8.478,0,0,1,0,5.651,13.6,13.6,0,0,0-.835,4.947h3.959l2.908-9.963-2.908-13.354Z" transform="translate(-224.582 -101.569)" fill="#adcfff"/>
    <path id="Trazado_684815" data-name="Trazado 684815" d="M259.959,101.569H256v23.317h2.64a7.2,7.2,0,0,1,.485-2.825,15.07,15.07,0,0,0,0-9.895,8.477,8.477,0,0,1,0-5.65A13.593,13.593,0,0,0,259.959,101.569Z" transform="translate(-238.622 -101.569)" fill="#9af"/>
    <path id="Trazado_684816" data-name="Trazado 684816" d="M184.919,101.569h-6.6a7.187,7.187,0,0,1-.485,2.825,15.069,15.069,0,0,0,0,9.895,8.477,8.477,0,0,1,0,5.651,13.6,13.6,0,0,0-.835,4.947h6.6a7.189,7.189,0,0,1,.485-2.825,15.069,15.069,0,0,0,0-9.895,8.478,8.478,0,0,1,0-5.65A13.59,13.59,0,0,0,184.919,101.569Z" transform="translate(-177 -101.569)" fill="#adcfff"/>
    <path id="Trazado_684817" data-name="Trazado 684817" d="M305.6,109.341a7.187,7.187,0,0,1,.485-2.825,13.6,13.6,0,0,0,.835-4.947h-6.6a7.187,7.187,0,0,1-.485,2.825,15.069,15.069,0,0,0,0,9.894,8.479,8.479,0,0,1,0,5.651,13.6,13.6,0,0,0-.835,4.947h6.6a7.2,7.2,0,0,1,.485-2.825,15.07,15.07,0,0,0,0-9.895A7.194,7.194,0,0,1,305.6,109.341Z" transform="translate(-272.164 -101.569)" fill="#9af"/>
  </g>
</svg>
