<svg xmlns="http://www.w3.org/2000/svg" width="90" height="90" viewBox="0 0 90 90">
  <g id="Grupo_957593" data-name="Grupo 957593" transform="translate(0 0.491)">
    <rect id="Rectángulo_339863" data-name="Rectángulo 339863" width="90" height="90" transform="translate(0 -0.491)" fill="none"/>
    <g id="matraz" transform="translate(8.733 8.733)">
      <path id="Trazado_725157" data-name="Trazado 725157" d="M149.989,93.829l-3.5,5.829H139.5L136,93.829,139.5,88h6.994Z" transform="translate(-116.182 -75.177)" fill="#f48827"/>
      <path id="Trazado_725158" data-name="Trazado 725158" d="M365.989,133.829l-3.5,5.829H355.5l-3.5-5.829L355.5,128h6.994Z" transform="translate(-300.708 -109.348)" fill="#789dc3"/>
      <path id="Trazado_725159" data-name="Trazado 725159" d="M293.989,173.829l-3.5,5.829H283.5l-3.5-5.829L283.5,168h6.994Z" transform="translate(-239.199 -143.52)" fill="#d94a56"/>
      <path id="Trazado_725160" data-name="Trazado 725160" d="M293.989,93.829l-3.5,5.829H283.5L280,93.829,283.5,88h6.994Z" transform="translate(-239.199 -75.177)" fill="#42a24f"/>
      <path id="Trazado_725161" data-name="Trazado 725161" d="M221.989,53.829l-3.5,5.829H211.5L208,53.829,211.5,48h6.994Z" transform="translate(-177.691 -41.006)" fill="#789dc3"/>
      <path id="Trazado_725162" data-name="Trazado 725162" d="M293.989,13.829l-3.5,5.829H283.5L280,13.829,283.5,8h6.994Z" transform="translate(-239.199 -6.834)" fill="#f48827"/>
      <path id="Trazado_725163" data-name="Trazado 725163" d="M365.989,53.829l-3.5,5.829H355.5L352,53.829,355.5,48h6.994Z" transform="translate(-300.708 -41.006)" fill="#d94a56"/>
      <path id="Trazado_725164" data-name="Trazado 725164" d="M365.989,213.829l-3.5,5.829H355.5l-3.5-5.829L355.5,208h6.994Z" transform="translate(-300.708 -177.691)" fill="#42a24f"/>
      <path id="Trazado_725165" data-name="Trazado 725165" d="M35.978,138.331h0A2.338,2.338,0,0,0,33.646,136H21.989a2.338,2.338,0,0,0-2.331,2.331h0a2.338,2.338,0,0,0,2.331,2.331h0v13.989l-13.406,24.6A5.229,5.229,0,0,0,8,181.464v1.166a4.677,4.677,0,0,0,4.663,4.663H42.972a4.677,4.677,0,0,0,4.663-4.663v-1.166a4.822,4.822,0,0,0-.583-2.215l-13.406-24.6V140.663h0A2.338,2.338,0,0,0,35.978,138.331Z" transform="translate(-6.834 -116.182)" fill="#d3d2d6"/>
      <path id="Trazado_725166" data-name="Trazado 725166" d="M36.138,181.624H5.829A5.772,5.772,0,0,1,0,175.8v-1.166a5.858,5.858,0,0,1,.7-2.8l13.289-24.364V134.761a3.412,3.412,0,0,1-2.1-4.43A3.507,3.507,0,0,1,15.155,128H26.812a3.435,3.435,0,0,1,3.5,3.5,3.4,3.4,0,0,1-2.331,3.264v12.707l13.289,24.364a5.858,5.858,0,0,1,.7,2.8V175.8A5.772,5.772,0,0,1,36.138,181.624ZM15.155,130.331a1.166,1.166,0,0,0,0,2.331,1.1,1.1,0,0,1,1.166,1.166v13.989a1.051,1.051,0,0,1-.117.583L2.8,173a2.676,2.676,0,0,0-.466,1.632V175.8a3.435,3.435,0,0,0,3.5,3.5H36.138a3.435,3.435,0,0,0,3.5-3.5h0v-1.166A2.676,2.676,0,0,0,39.169,173L25.763,148.4a1.051,1.051,0,0,1-.117-.583V133.829a1.1,1.1,0,0,1,1.166-1.166,1.166,1.166,0,0,0,0-2.331Z" transform="translate(0 -109.348)"/>
      <path id="Trazado_725167" data-name="Trazado 725167" d="M42.972,351.315a4.677,4.677,0,0,0,4.663-4.663v-1.166a4.822,4.822,0,0,0-.583-2.215L38.775,328H37.027a2.3,2.3,0,0,0-1.632.7l-.933.933a2.3,2.3,0,0,1-1.632.7h-.35a2.3,2.3,0,0,1-1.632-.7l-.933-.933a2.3,2.3,0,0,0-1.632-.7h-.35a2.3,2.3,0,0,0-1.632.7l-.933.933a2.3,2.3,0,0,1-1.632.7h-.35a2.3,2.3,0,0,1-1.632-.7l-.933-.933a2.3,2.3,0,0,0-1.632-.7H16.86L8.583,343.271A4.822,4.822,0,0,0,8,345.486v1.166a4.677,4.677,0,0,0,4.663,4.663Z" transform="translate(-6.834 -280.205)" fill="#d94a56"/>
      <path id="Trazado_725168" data-name="Trazado 725168" d="M36.138,345.646H5.829A5.772,5.772,0,0,1,0,339.818v-1.166a5.858,5.858,0,0,1,.7-2.8l8.277-15.271A1.391,1.391,0,0,1,10.025,320h1.749a3.175,3.175,0,0,1,2.448,1.049l.933.933a1.058,1.058,0,0,0,.816.35h.35a1.058,1.058,0,0,0,.816-.35l.933-.933A3.355,3.355,0,0,1,20.517,320h.35a3.175,3.175,0,0,1,2.448,1.049l.933.933a1.058,1.058,0,0,0,.816.35h.35a1.058,1.058,0,0,0,.816-.35l.933-.933A3.355,3.355,0,0,1,29.61,320h1.749a1.224,1.224,0,0,1,1.049.583l8.277,15.271a5.858,5.858,0,0,1,.7,2.8v1.166C41.967,343.082,39.4,345.646,36.138,345.646ZM10.725,322.331,2.8,337.02a2.676,2.676,0,0,0-.466,1.632v1.166a3.435,3.435,0,0,0,3.5,3.5H36.138a3.435,3.435,0,0,0,3.5-3.5h0v-1.166a2.676,2.676,0,0,0-.466-1.632l-7.927-14.688H30.193a1.058,1.058,0,0,0-.816.35l-.933.933a3.825,3.825,0,0,1-2.565,1.049h-.35a3.175,3.175,0,0,1-2.448-1.049l-.933-.933a1.058,1.058,0,0,0-.816-.35h-.35a1.058,1.058,0,0,0-.816.35l-.933.933a4.347,4.347,0,0,1-2.681,1.049H16.2a3.175,3.175,0,0,1-2.448-1.049l-.933-.933a1.058,1.058,0,0,0-.816-.35Z" transform="translate(0 -273.37)"/>
      <circle id="Elipse_7761" data-name="Elipse 7761" cx="3.448" cy="3.448" r="3.448" transform="translate(6.896 59.483)" fill="#fff"/>
      <path id="Trazado_725169" data-name="Trazado 725169" d="M44.663,409.326a4.663,4.663,0,1,1,4.663-4.663A4.677,4.677,0,0,1,44.663,409.326Zm0-6.994a2.331,2.331,0,1,0,2.331,2.331A2.338,2.338,0,0,0,44.663,402.331Z" transform="translate(-34.171 -341.713)"/>
      <circle id="Elipse_7762" data-name="Elipse 7762" cx="2.463" cy="2.463" r="2.463" transform="translate(19.702 61.453)" fill="#fff"/>
      <path id="Trazado_725170" data-name="Trazado 725170" d="M131.5,422.994a3.5,3.5,0,1,1,3.5-3.5A3.435,3.435,0,0,1,131.5,422.994Zm0-4.663a1.166,1.166,0,1,0,1.166,1.166A1.1,1.1,0,0,0,131.5,418.331Z" transform="translate(-109.348 -355.382)"/>
      <circle id="Elipse_7763" data-name="Elipse 7763" cx="2.463" cy="2.463" r="2.463" transform="translate(26.598 54.557)" fill="#fff"/>
      <path id="Trazado_725171" data-name="Trazado 725171" d="M179.5,374.994a3.5,3.5,0,1,1,3.5-3.5A3.435,3.435,0,0,1,179.5,374.994Zm0-4.663a1.166,1.166,0,1,0,1.166,1.166A1.1,1.1,0,0,0,179.5,370.331Z" transform="translate(-150.354 -314.376)"/>
      <rect id="Rectángulo_339852" data-name="Rectángulo 339852" width="1.97" height="1.97" transform="translate(11.821 53.572)"/>
      <rect id="Rectángulo_339853" data-name="Rectángulo 339853" width="1.97" height="1.97" transform="translate(16.747 53.572)"/>
      <rect id="Rectángulo_339854" data-name="Rectángulo 339854" width="1.97" height="1.97" transform="translate(35.464 65.393)"/>
      <rect id="Rectángulo_339855" data-name="Rectángulo 339855" width="1.97" height="1.97" transform="translate(30.539 65.393)"/>
      <path id="Trazado_725172" data-name="Trazado 725172" d="M319.032,280v9.909a10.508,10.508,0,1,0,13.406,6.412,10.3,10.3,0,0,0-6.412-6.412V280" transform="translate(-266.573 -239.199)" fill="#d3d2d6"/>
      <path id="Trazado_725173" data-name="Trazado 725173" d="M315.657,311.475a11.682,11.682,0,0,1-4.663-22.382V280h2.331v9.909a1.12,1.12,0,0,1-.816,1.049A9.328,9.328,0,1,0,324.4,296.67a9.26,9.26,0,0,0-5.712-5.712,1.12,1.12,0,0,1-.816-1.049V280H320.2v9.093a11.674,11.674,0,0,1,6.062,15.388A11.494,11.494,0,0,1,315.657,311.475Z" transform="translate(-259.702 -239.199)"/>
      <path id="Trazado_725174" data-name="Trazado 725174" d="M324.768,419.657a10.5,10.5,0,0,0,10.492-10.375,4.783,4.783,0,0,0-.117-1.282H333.86a2.3,2.3,0,0,0-1.632.7l-.933.933a2.3,2.3,0,0,1-1.632.7h-.35a2.3,2.3,0,0,1-1.632-.7l-.933-.933a2.3,2.3,0,0,0-1.632-.7h-.35a2.3,2.3,0,0,0-1.632.7l-.933.933a2.3,2.3,0,0,1-1.632.7h-.35a2.3,2.3,0,0,1-1.632-.7l-.933-.933a2.3,2.3,0,0,0-1.632-.7h-1.282a10.3,10.3,0,0,0,9.093,11.541C323.952,419.657,324.3,419.657,324.768,419.657Z" transform="translate(-268.812 -348.547)" fill="#789dc3"/>
      <path id="Trazado_725175" data-name="Trazado 725175" d="M315.657,413.989A11.592,11.592,0,0,1,304,402.448a5.675,5.675,0,0,1,.117-1.4A1.24,1.24,0,0,1,305.282,400h1.282a3.175,3.175,0,0,1,2.448,1.049l.933.933a1.058,1.058,0,0,0,.816.35h.35a1.058,1.058,0,0,0,.816-.35l.933-.933A3.355,3.355,0,0,1,315.308,400h.35a3.175,3.175,0,0,1,2.448,1.049l.933.933a1.058,1.058,0,0,0,.816.35h.35a1.058,1.058,0,0,0,.816-.35l.933-.933A3.355,3.355,0,0,1,324.4,400h1.282a1.24,1.24,0,0,1,1.166,1.049,11.56,11.56,0,0,1-10.142,12.823A2.3,2.3,0,0,1,315.657,413.989Zm-9.326-11.657a9.326,9.326,0,1,0,18.652,0h-.233a1.058,1.058,0,0,0-.816.35l-.933.933a3.355,3.355,0,0,1-2.448,1.049h-.35a3.175,3.175,0,0,1-2.448-1.049l-.933-.933a1.058,1.058,0,0,0-.816-.35h-.35a1.058,1.058,0,0,0-.816.35l-.933.933a4.347,4.347,0,0,1-2.681,1.049h-.35a3.175,3.175,0,0,1-2.448-1.049l-.933-.933a1.058,1.058,0,0,0-.816-.35Z" transform="translate(-259.702 -341.713)"/>
      <rect id="Rectángulo_339856" data-name="Rectángulo 339856" width="13.792" height="1.97" transform="translate(49.256 39.78)"/>
      <rect id="Rectángulo_339857" data-name="Rectángulo 339857" width="2.955" height="1.97" transform="translate(52.212 65.393)"/>
      <rect id="Rectángulo_339858" data-name="Rectángulo 339858" width="1.97" height="1.97" transform="translate(57.137 65.393)"/>
      <path id="Trazado_725176" data-name="Trazado 725176" d="M213.048,53.406l-1.982-1.166,3.148-5.246-2.8-4.663H205.7l-2.8,4.663,3.147,5.246-1.982,1.166-3.5-5.829a1.059,1.059,0,0,1,0-1.166l3.5-5.829A.923.923,0,0,1,205,40H212a1.224,1.224,0,0,1,1.049.583l3.5,5.829a1.059,1.059,0,0,1,0,1.166Z" transform="translate(-171.198 -34.171)"/>
      <path id="Trazado_725177" data-name="Trazado 725177" d="M283.316,93.989h-6.994a1.224,1.224,0,0,1-1.049-.583l-3.5-5.829a1.059,1.059,0,0,1,0-1.166l3.5-5.829A1.224,1.224,0,0,1,276.321,80h6.994a1.224,1.224,0,0,1,1.049.583l3.5,5.829a1.059,1.059,0,0,1,0,1.166l-3.5,5.829A1.224,1.224,0,0,1,283.316,93.989Zm-6.295-2.331h5.712l2.8-4.663-2.8-4.663h-5.712l-2.8,4.663Z" transform="translate(-232.023 -68.343)"/>
      <path id="Trazado_725178" data-name="Trazado 725178" d="M355.316,133.989h-6.994a1.224,1.224,0,0,1-1.049-.583l-3.5-5.829a1.059,1.059,0,0,1,0-1.166l3.5-5.829a1.224,1.224,0,0,1,1.049-.583h6.994a1.224,1.224,0,0,1,1.049.583l3.5,5.829a1.059,1.059,0,0,1,0,1.166l-3.5,5.829A1.224,1.224,0,0,1,355.316,133.989Zm-6.295-2.331h5.712l2.8-4.663-2.8-4.663h-5.712l-2.8,4.663Z" transform="translate(-293.532 -102.514)"/>
      <path id="Trazado_725179" data-name="Trazado 725179" d="M422.512,211.577h-2.331v-.816l-3.381-5.6L418.782,204l3.5,5.829c.233.117.233.35.233.583Z" transform="translate(-356.065 -174.274)"/>
      <path id="Trazado_725180" data-name="Trazado 725180" d="M355.316,53.989h-6.994a1.224,1.224,0,0,1-1.049-.583l-3.5-5.829a1.059,1.059,0,0,1,0-1.166l3.5-5.829A1.224,1.224,0,0,1,348.321,40h6.994a1.224,1.224,0,0,1,1.049.583l3.148,5.246h6.295V48.16h-6.994a1.224,1.224,0,0,1-1.049-.583l-3.147-5.246H348.9l-2.8,4.663,2.8,4.663h6.412Z" transform="translate(-293.532 -34.171)"/>
      <rect id="Rectángulo_339859" data-name="Rectángulo 339859" width="6.896" height="1.97" transform="translate(65.018 23.033)"/>
      <rect id="Rectángulo_339860" data-name="Rectángulo 339860" width="6.761" height="2.331" transform="translate(66.271 1.78) rotate(120.972)"/>
      <path id="Trazado_725181" data-name="Trazado 725181" d="M284.341,13.989h-6.994a1.224,1.224,0,0,1-1.049-.583l-3.5-5.829,1.982-1.166,3.147,5.246h5.712l2.8-4.663-2.8-4.663h-6.3V0h6.994a1.224,1.224,0,0,1,1.049.583l3.5,5.829a1.059,1.059,0,0,1,0,1.166l-3.5,5.829A1.224,1.224,0,0,1,284.341,13.989Z" transform="translate(-233.048)"/>
      <path id="Trazado_725182" data-name="Trazado 725182" d="M284.341,173.989h-6.994v-2.331h6.3l2.8-4.663-2.8-4.663h-5.712l-3.147,5.246-1.982-1.166,3.5-5.829a1.224,1.224,0,0,1,1.049-.583h6.994a1.224,1.224,0,0,1,1.049.583l3.5,5.829a1.059,1.059,0,0,1,0,1.166l-3.5,5.829A1.224,1.224,0,0,1,284.341,173.989Z" transform="translate(-233.048 -136.685)"/>
      <path id="Trazado_725183" data-name="Trazado 725183" d="M130.331,88.16H128V86.994a.874.874,0,0,1,.117-.583l3.5-5.829A1.224,1.224,0,0,1,132.663,80h6.994v2.331h-6.295l-3.031,5.013Z" transform="translate(-109.348 -68.343)"/>
      <rect id="Rectángulo_339861" data-name="Rectángulo 339861" width="6.896" height="1.97" transform="translate(52.212 44.706)"/>
      <rect id="Rectángulo_339862" data-name="Rectángulo 339862" width="11.821" height="2.955" transform="translate(14.777 25.003)"/>
      <circle id="Elipse_7764" data-name="Elipse 7764" cx="2.463" cy="2.463" r="2.463" transform="translate(12.807 10.226)" fill="#789dc3"/>
      <path id="Trazado_725184" data-name="Trazado 725184" d="M83.5,70.994a3.5,3.5,0,1,1,3.5-3.5A3.435,3.435,0,0,1,83.5,70.994Zm0-4.663A1.166,1.166,0,1,0,84.663,67.5,1.1,1.1,0,0,0,83.5,66.331Z" transform="translate(-68.343 -54.674)"/>
      <circle id="Elipse_7765" data-name="Elipse 7765" cx="3.448" cy="3.448" r="3.448" transform="translate(19.702 1.36)" fill="#f48827"/>
      <path id="Trazado_725185" data-name="Trazado 725185" d="M132.663,9.326a4.663,4.663,0,1,1,4.663-4.663A4.677,4.677,0,0,1,132.663,9.326Zm0-6.994a2.331,2.331,0,1,0,2.331,2.331A2.338,2.338,0,0,0,132.663,2.331Z" transform="translate(-109.348 0)"/>
      <ellipse id="Elipse_7766" data-name="Elipse 7766" cx="4.926" cy="4.433" rx="4.926" ry="4.433" transform="translate(0.985 1.36)" fill="#d94a56"/>
      <path id="Trazado_725186" data-name="Trazado 725186" d="M5.829,11.657A5.772,5.772,0,0,1,0,5.829,5.772,5.772,0,0,1,5.829,0a5.772,5.772,0,0,1,5.829,5.829A5.772,5.772,0,0,1,5.829,11.657Zm0-9.326a3.435,3.435,0,0,0-3.5,3.5,3.435,3.435,0,0,0,3.5,3.5,3.435,3.435,0,0,0,3.5-3.5A3.435,3.435,0,0,0,5.829,2.331Z"/>
    </g>
  </g>
</svg>
