<svg xmlns="http://www.w3.org/2000/svg" width="89" height="90" viewBox="0 0 89 90">
  <g id="Grupo_957592" data-name="Grupo 957592" transform="translate(-0.456 0.491)">
    <rect id="Rectángulo_339864" data-name="Rectángulo 339864" width="89" height="90" transform="translate(0.456 -0.491)" fill="none"/>
    <g id="laboratorio" transform="translate(7.277 7.277)">
      <g id="Grupo_957590" data-name="Grupo 957590" transform="translate(1.205 1.205)">
        <g id="Grupo_957577" data-name="Grupo 957577" transform="translate(7.232)">
          <path id="Trazado_725187" data-name="Trazado 725187" d="M53.8,2H21.054a2.372,2.372,0,0,0-1,.217v9.426a2.418,2.418,0,0,1-2.411,2.411H8.217a2.372,2.372,0,0,0-.217,1V55.215a2.235,2.235,0,0,0,4.231,1A36.737,36.737,0,0,0,15,48.73l.9-3.6a2.811,2.811,0,0,1,2.736-2.145,2.828,2.828,0,0,1,2.82,2.6l.94,12.27c.036.53.06,1.061.06,1.6a20.6,20.6,0,0,1-.675,5.219H42.954a2.418,2.418,0,0,1,2.411-2.411,2.428,2.428,0,0,1-2.411-2.411,2.418,2.418,0,0,1,2.411-2.411,2.428,2.428,0,0,1-2.411-2.411,2.418,2.418,0,0,1,2.411-2.411H41.749a2.428,2.428,0,0,1-2.411-2.411A2.418,2.418,0,0,1,41.749,47.8H46.57V35.749H44.16a1.209,1.209,0,0,1-1.205-1.205V29.722a1.209,1.209,0,0,1,1.205-1.205H56.213V4.411A2.418,2.418,0,0,0,53.8,2Z" transform="translate(-8 -2)" fill="#e6e9ed"/>
        </g>
        <g id="Grupo_957578" data-name="Grupo 957578" transform="translate(4.821 67.498)">
          <path id="Trazado_725188" data-name="Trazado 725188" d="M6,58H20.464v4.821H6Z" transform="translate(-6 -58)" fill="#ff826e"/>
        </g>
        <g id="Grupo_957579" data-name="Grupo 957579" transform="translate(26.517 43.392)">
          <path id="Trazado_725189" data-name="Trazado 725189" d="M24,38h7.232V52.464H24Z" transform="translate(-24 -38)" fill="#b4dd7f"/>
        </g>
        <g id="Grupo_957580" data-name="Grupo 957580" transform="translate(36.16 4.821)">
          <path id="Trazado_725190" data-name="Trazado 725190" d="M32,6H46.464V20.464H32Z" transform="translate(-32 -6)" fill="#ff826e"/>
        </g>
        <g id="Grupo_957581" data-name="Grupo 957581" transform="translate(7.449 0.217)">
          <path id="Trazado_725191" data-name="Trazado 725191" d="M20.016,2.18v9.426a2.418,2.418,0,0,1-2.411,2.411H8.18a2.431,2.431,0,0,1,.494-.711L19.305,2.674A2.431,2.431,0,0,1,20.016,2.18Z" transform="translate(-8.18 -2.18)" fill="#b4dd7f"/>
        </g>
        <g id="Grupo_957582" data-name="Grupo 957582" transform="translate(42.186 26.517)">
          <path id="Trazado_725192" data-name="Trazado 725192" d="M55.08,24H38.205A1.209,1.209,0,0,0,37,25.205v4.821a1.209,1.209,0,0,0,1.205,1.205H55.08a1.209,1.209,0,0,0,1.205-1.205V25.205A1.209,1.209,0,0,0,55.08,24Z" transform="translate(-37 -24)" fill="#fcd770"/>
        </g>
        <g id="Grupo_957583" data-name="Grupo 957583" transform="translate(45.802 33.749)">
          <path id="Trazado_725193" data-name="Trazado 725193" d="M50.848,30h1.205v7.232H46.027a1.209,1.209,0,0,0-1.205,1.205,3.611,3.611,0,0,0,3.616,3.616h3.616v20.49a6.027,6.027,0,1,1-12.053,0V61.338h1.205a2.418,2.418,0,0,0,2.411-2.411,2.428,2.428,0,0,0-2.411-2.411,2.418,2.418,0,0,0,2.411-2.411A2.428,2.428,0,0,0,41.205,51.7a2.418,2.418,0,0,0,2.411-2.411,2.428,2.428,0,0,0-2.411-2.411H40V30H50.848Z" transform="translate(-40 -30)" fill="#ffeaa7"/>
        </g>
        <g id="Grupo_957584" data-name="Grupo 957584" transform="translate(50.624 40.981)">
          <path id="Trazado_725194" data-name="Trazado 725194" d="M65.7,40.821V55.285l-4.05,3.242a7.2,7.2,0,0,1-4.508,1.579H51.232V40.821H47.616A3.611,3.611,0,0,1,44,37.205,1.209,1.209,0,0,1,45.205,36H57.138a7.2,7.2,0,0,1,4.508,1.579Z" transform="translate(-44 -36)" fill="#f0d0b4"/>
        </g>
        <g id="Grupo_957585" data-name="Grupo 957585" transform="translate(42.186 60.266)">
          <path id="Trazado_725195" data-name="Trazado 725195" d="M43.521,52.711a2.357,2.357,0,0,1,.711,1.7,2.418,2.418,0,0,1-2.411,2.411H39.411A2.428,2.428,0,0,1,37,54.411,2.418,2.418,0,0,1,39.411,52h2.411A2.357,2.357,0,0,1,43.521,52.711Z" transform="translate(-37 -52)" fill="#f0d0b4"/>
        </g>
        <g id="Grupo_957586" data-name="Grupo 957586" transform="translate(42.186 55.445)">
          <path id="Trazado_725196" data-name="Trazado 725196" d="M39.411,52.821A2.428,2.428,0,0,1,37,50.411,2.418,2.418,0,0,1,39.411,48h2.411a2.428,2.428,0,0,1,2.411,2.411,2.418,2.418,0,0,1-2.411,2.411Z" transform="translate(-37 -48)" fill="#f0d0b4"/>
        </g>
        <g id="Grupo_957587" data-name="Grupo 957587" transform="translate(42.186 50.624)">
          <path id="Trazado_725197" data-name="Trazado 725197" d="M39.411,48.821A2.428,2.428,0,0,1,37,46.411,2.418,2.418,0,0,1,39.411,44h2.411a2.428,2.428,0,0,1,2.411,2.411,2.418,2.418,0,0,1-2.411,2.411Z" transform="translate(-37 -44)" fill="#f0d0b4"/>
        </g>
        <g id="Grupo_957588" data-name="Grupo 957588" transform="translate(38.57 45.802)">
          <path id="Trazado_725198" data-name="Trazado 725198" d="M41.232,40v4.821H36.411A2.428,2.428,0,0,1,34,42.411,2.418,2.418,0,0,1,36.411,40Z" transform="translate(-34 -40)" fill="#f0d0b4"/>
        </g>
        <g id="Grupo_957589" data-name="Grupo 957589" transform="translate(0 33.749)">
          <path id="Trazado_725199" data-name="Trazado 725199" d="M23.636,52.106c.036.53.06,1.061.06,1.6a20.6,20.6,0,0,1-.675,5.219,21.348,21.348,0,0,1-.82,2.531l-.916,2.29H6.821L5.254,59.82a20.815,20.815,0,0,1-1.217-4.327L2.169,44.247A12.305,12.305,0,0,1,2,42.258a12.134,12.134,0,0,1,3.556-8.582L9.232,30V49.466a2.235,2.235,0,0,0,4.231,1,36.737,36.737,0,0,0,2.772-7.485l.9-3.6a2.811,2.811,0,0,1,2.736-2.145,2.828,2.828,0,0,1,2.82,2.6Z" transform="translate(-2 -30)" fill="#f0d0b4"/>
        </g>
      </g>
      <g id="Grupo_957591" data-name="Grupo 957591" transform="translate(0 0)">
        <path id="Trazado_725200" data-name="Trazado 725200" d="M71.232,43.829a8.475,8.475,0,0,0-5.27-1.848h-4.7V37.16h1.205a2.413,2.413,0,0,0,2.411-2.411V29.928a2.413,2.413,0,0,0-2.411-2.411H58.855V4.616A3.62,3.62,0,0,0,55.239,1H22.49a3.6,3.6,0,0,0-2.558,1.059L9.291,12.7a3.589,3.589,0,0,0-1.059,2.556v20.2L4.905,38.783A13.238,13.238,0,0,0,1,48.209,13.505,13.505,0,0,0,1.181,50.4L3.056,61.648a22.038,22.038,0,0,0,1.279,4.571l1.486,3.717V75.73H22.7V69.936l.832-2.079c.233-.582.43-1.174.612-1.769H43.408A3.611,3.611,0,0,0,46.8,68.5a7.232,7.232,0,0,0,14.464,0h4.7a8.478,8.478,0,0,0,5.271-1.848l4.5-3.6V47.429ZM43.186,51.624a1.205,1.205,0,1,1,0-2.411H46.8v2.411ZM45.6,60.061A1.207,1.207,0,0,1,46.8,58.855h2.411a1.205,1.205,0,1,1,0,2.411H46.8A1.207,1.207,0,0,1,45.6,60.061Zm3.616-3.616H46.8a1.205,1.205,0,1,1,0-2.411h2.411a1.205,1.205,0,1,1,0,2.411ZM45.6,34.749V29.928h2.411v4.821Zm4.821-4.821h2.411v4.821H50.418Zm4.821,0H57.65v4.821H55.239Zm7.233,4.821H60.061V29.928h2.411ZM20.285,5.115v6.733a1.207,1.207,0,0,1-1.205,1.205H12.347Zm0,68.2H8.232V70.909H20.285Zm1-6.357L20.674,68.5H7.843l-1.27-3.175a19.724,19.724,0,0,1-1.139-4.07L3.558,50a11.223,11.223,0,0,1-.147-1.8,10.846,10.846,0,0,1,3.2-7.721l1.622-1.624v16.55a3.44,3.44,0,0,0,6.517,1.539,37.821,37.821,0,0,0,2.857-7.721l.9-3.614a1.619,1.619,0,0,1,3.186.269l.944,12.261q.056.752.057,1.509a19.6,19.6,0,0,1-1.407,7.305Zm3.752-9L24.1,45.7a4.03,4.03,0,0,0-7.927-.669l-.9,3.614a35.41,35.41,0,0,1-2.673,7.227,1.029,1.029,0,0,1-1.95-.459V15.464H19.08A3.62,3.62,0,0,0,22.7,11.848V3.411H55.239a1.207,1.207,0,0,1,1.205,1.205v22.9H45.6a2.413,2.413,0,0,0-2.411,2.411v4.821A2.413,2.413,0,0,0,45.6,37.16H46.8V46.8H43.186a3.616,3.616,0,1,0,0,7.232h.222a3.5,3.5,0,0,0,.718,3.616,3.561,3.561,0,0,0,0,4.821,3.583,3.583,0,0,0-.718,1.205H24.732a22.034,22.034,0,0,0,.375-4.02Q25.106,58.809,25.041,57.963ZM45.6,64.882A1.207,1.207,0,0,1,46.8,63.677h2.411a1.205,1.205,0,0,1,0,2.411H46.8A1.207,1.207,0,0,1,45.6,64.882Zm8.437,8.437A4.826,4.826,0,0,1,49.213,68.5a3.6,3.6,0,0,0,2.676-6.027,3.561,3.561,0,0,0,0-4.821,3.6,3.6,0,0,0-2.676-6.027V37.16h9.643v4.821H54.034a2.413,2.413,0,0,0-2.411,2.411,4.826,4.826,0,0,0,4.821,4.821h2.411V68.5A4.826,4.826,0,0,1,54.034,73.319ZM73.319,61.893l-3.593,2.875a6.055,6.055,0,0,1-3.764,1.32h-4.7V49.213h.706l1.144,1.144a8.383,8.383,0,0,0,5.966,2.472h1.826V50.418H69.083a5.989,5.989,0,0,1-4.262-1.766L62.97,46.8H56.445a2.413,2.413,0,0,1-2.411-2.411H65.962a6.052,6.052,0,0,1,3.765,1.321l3.592,2.873Z" transform="translate(-1 -1)"/>
        <path id="Trazado_725201" data-name="Trazado 725201" d="M47.874,5H31V21.875H47.874ZM45.464,19.464H33.411V7.411H45.464Z" transform="translate(5.16 -0.179)"/>
        <path id="Trazado_725202" data-name="Trazado 725202" d="M21,5h9.643V7.411H21Z" transform="translate(3.106 -0.179)"/>
        <path id="Trazado_725203" data-name="Trazado 725203" d="M21,9h9.643v2.411H21Z" transform="translate(3.106 0.643)"/>
        <path id="Trazado_725204" data-name="Trazado 725204" d="M21,13h9.643v2.411H21Z" transform="translate(3.106 1.464)"/>
        <path id="Trazado_725205" data-name="Trazado 725205" d="M21,17h9.643v2.411H21Z" transform="translate(3.106 2.285)"/>
        <path id="Trazado_725206" data-name="Trazado 725206" d="M11,21H38.722v2.411H11Z" transform="translate(1.053 3.106)"/>
        <path id="Trazado_725207" data-name="Trazado 725207" d="M11,25h2.411v2.411H11Z" transform="translate(1.053 3.928)"/>
        <path id="Trazado_725208" data-name="Trazado 725208" d="M15,25H37.9v2.411H15Z" transform="translate(1.875 3.928)"/>
        <path id="Trazado_725209" data-name="Trazado 725209" d="M11,29H38.722v2.411H11Z" transform="translate(1.053 4.749)"/>
        <path id="Trazado_725210" data-name="Trazado 725210" d="M23,53.875h9.643V37H23Zm2.411-14.464h4.821V51.464H25.411Z" transform="translate(3.517 6.392)"/>
        <path id="Trazado_725211" data-name="Trazado 725211" d="M23,33H36.259v2.411H23Z" transform="translate(3.517 5.57)"/>
      </g>
    </g>
  </g>
</svg>
