<svg xmlns="http://www.w3.org/2000/svg" width="613.393" height="399.314" viewBox="0 0 613.393 399.314">
  <g id="Grupo_983760" data-name="Grupo 983760" transform="translate(-810 -1954)">
    <path id="Trazado_684725" data-name="Trazado 684725" d="M199.719,0c110.3,0,199.719,89.39,199.719,199.657S310.02,399.314,199.719,399.314,0,309.925,0,199.657,89.417,0,199.719,0Z" transform="translate(931.347 1954)" fill="#c6e5d8"/>
    <path id="Trazado_684686" data-name="Trazado 684686" d="M1037.483,462.2s3.807,47.708-8.11,65.031a122.6,122.6,0,0,1-210.9-123.9c7.133-14.338,38.057-21.467,38.057-21.467s12.315-32.035,24.82-37.227A122.821,122.821,0,0,1,996.5,356.029c6.014,4.034,12.255,18.946,12.255,18.946s12.332,2.638,15.785,7.013a122.766,122.766,0,0,1,17.643,30.5C1048.858,429.2,1037.483,462.2,1037.483,462.2Z" transform="translate(228.422 1618.747)" fill="#9e9569"/>
    <path id="Trazado_684687" data-name="Trazado 684687" d="M959.653,408c-3.644,1.873-2.105,7.484-5.727,9.214-6.211,2.968-21.53-8.374-20.078-16,1.572-8.252,23.048-13.494,30.236-6.55,4.627,4.47,1.479,12.2,6.092,14.546,3.912,1.991,11.179-1.016,13.042-6.191,2.46-6.835-5.92-13.526-6.628-14.077-8.487-6.6-20.951-4.137-25.538-3.231-9.908,1.955-12.378,5.634-16.929,3.91-4.806-1.82-5.46-7.212-6.943-11.589a123.013,123.013,0,0,0-62.872,58.691c3.95,6.482,14.542,7.932,17.389,19.043,1.5,5.843-.135,10.5,3.612,13.874,3.816,3.431,8.3,1.1,11.293,4.8,1.776,2.191.9,3.875,1.77,11.226.838,7.093,1.257,10.64,3.177,12.835,5.537,6.33,20.441,2.781,20.68.381.158-1.589-6.223-1.543-8.175-6.1-2.035-4.756,3.265-8.635,1.382-13.033-2.066-4.825-9.679-3.044-11.626-7.345-2.01-4.439,2.985-13.217,10.2-16.479,10.581-4.785,17.153,6.269,27.583,2.864,12.98-4.237,10.62-23.9,26.262-30.04,7.887-3.094,13.588-.095,14.85-3.04C985.089,420.133,966.884,404.284,959.653,408Z" transform="translate(182.597 1585.356)" fill="#afafaf"/>
    <path id="Trazado_684688" data-name="Trazado 684688" d="M1147.768,897.163c8.375-2.641,15.792-.3,18.67.61a32.094,32.094,0,0,1,12.668,7.192c7.787,7.339,4.985,12.8,11.615,17.864,7.166,5.475,15.6,3.04,16.618,6.99.552,2.139-1.9,2.937-4.258,7.722-4.183,8.491-.929,15.041-4.9,17.288-2.17,1.228-6.487,1.166-6.487,1.165a25.391,25.391,0,0,1-1.671,8.963c-1.2,2.673-2.273,2.513-5.214,6.056-4.119,4.963-3.191,6.705-6.163,9.949-4.444,4.851-8.246,2.84-10.941,6.162-5.685,7.008,6.786,21.431,2.537,25.8-3.219,3.306-15.279.071-20.127-7.76-3.418-5.522-.4-8.731-1.736-21.827a110.627,110.627,0,0,0-5.515-23.86c-3.391-9.935-6.2-13.725-4.656-19.815,1.327-5.242,4.268-5.837,4.154-9.759-.218-7.468-10.984-8.822-11.758-15.738S1139.635,899.728,1147.768,897.163Z" transform="translate(-25.557 1180.456)" fill="#d3bba3"/>
    <path id="Trazado_684689" data-name="Trazado 684689" d="M1647.956,668.2c-16.752-5.238-21.093-6.759-28.631-5.23-6.519,1.323-11.881,4.256-22.605,10.124-10.225,5.595-12.131,8.143-12.964,9.4-4.738,7.154-3.252,15.526-1.652,24.546,1.4,7.874,2.924,16.478,8.356,18.369,2.6.906,4.1-.427,12.552-3.266,10.794-3.625,16.191-5.438,18.054-3.581,3.711,3.7-9.694,16.17-5.2,26.362,3.008,6.819,11.187,6.175,13.451,13.918,1.544,5.277-1.666,7.59-.872,12.955.611,4.124,3.3,8.076,6.7,11.135A122.668,122.668,0,0,0,1647.956,668.2Z" transform="translate(-377.358 1363.036)" fill="#d3bba3"/>
    <path id="Trazado_684690" data-name="Trazado 684690" d="M1591.84,456.188a123.086,123.086,0,0,0-28.04-25.958c-1.01,3.428-1.185,6.849-.021,9.669,1.626,3.939,5.436,5.7,4.86,9.23-.568,3.487-4.986,6.138-8.689,6.95-6.316,1.385-9.994-2.705-12.276-.825-3.427,2.822,3.111,13.482-.419,16.41-2.311,1.917-6-1.919-10.276-.006-4.05,1.811-7.029,8.062-4.964,12.68,1.606,3.59,5.854,5.284,9.227,5.415,2.83.11,6.7-.817,17.923-11.808,10.367-10.155,12.026-14.227,16.014-13.991,6.7.4,10.9,12.415,12.225,11.78,1.235-.589-4.9-9.755-2.4-15.229C1586.058,458.189,1588.513,456.864,1591.84,456.188Z" transform="translate(-338.885 1544.551)" fill="#d3bba3"/>
    <path id="Trazado_684691" data-name="Trazado 684691" d="M890.935,585.647a124.277,124.277,0,1,1,48.518-9.792A123.9,123.9,0,0,1,890.935,585.647Zm0-248.78c-68.489,0-124.21,55.7-124.21,124.172s55.721,124.172,124.21,124.172,124.21-55.7,124.21-124.172S959.425,336.867,890.935,336.867Z" transform="translate(259.229 1617.882)" fill="#363e44"/>
    <g id="Grupo_946334" data-name="Grupo 946334" transform="translate(956.27 2048.349)">
      <g id="Grupo_946324" data-name="Grupo 946324" transform="translate(83.07 106.599)">
        <path id="Trazado_684692" data-name="Trazado 684692" d="M949.351,1405.64a566.156,566.156,0,0,1-15.4-130.9l-.094-.792H845.034c0,.053,0,.106,0,.159a566.189,566.189,0,0,1-15.4,131.533Z" transform="translate(-829.632 -1270.012)" fill="#636363"/>
        <path id="Trazado_725141" data-name="Trazado 725141" d="M0,0H92.279V3.936H0Z" transform="translate(13.72)" fill="#12263f"/>
      </g>
      <g id="Grupo_946325" data-name="Grupo 946325" transform="translate(145.632 74.928)">
        <path id="Trazado_684693" data-name="Trazado 684693" d="M1264.021,1295.462a698.389,698.389,0,0,1-19-161.466l-.116-.977H1135.345c0,.065,0,.13,0,.2a698.4,698.4,0,0,1-19,162.248Z" transform="translate(-1116.347 -1128.163)" fill="#afafaf"/>
        <path id="Trazado_684694" data-name="Trazado 684694" d="M1608.011,1295.461h34.235a698.369,698.369,0,0,1-19-161.466l-.116-.977h-21.45A806.005,806.005,0,0,0,1608.011,1295.461Z" transform="translate(-1494.572 -1128.163)" fill="#afafaf"/>
        <rect id="Rectángulo_337511" data-name="Rectángulo 337511" width="113.827" height="4.855" transform="translate(16.923)" fill="#afafaf"/>
      </g>
      <g id="Grupo_946326" data-name="Grupo 946326" transform="translate(303.704)">
        <path id="Trazado_684695" data-name="Trazado 684695" d="M1867.325,1009.4h-26.558l4.813-242.012h16.933Z" transform="translate(-1840.767 -767.386)" fill="#fff"/>
        <path id="Trazado_684696" data-name="Trazado 684696" d="M1907.94,1009.4h11.9l-4.812-242.012h-7.088Z" transform="translate(-1893.282 -767.385)" fill="#f7f1eb"/>
        <path id="Trazado_684697" data-name="Trazado 684697" d="M1879.007,781.957l-.29-14.572h-16.933l-.29,14.572Z" transform="translate(-1856.971 -767.385)" fill="#d87355"/>
        <path id="Trazado_684698" data-name="Trazado 684698" d="M1858.863,914.246h18.661l-.29-14.572h-18.081Z" transform="translate(-1854.915 -870.808)" fill="#d87355"/>
        <path id="Trazado_684699" data-name="Trazado 684699" d="M1856.232,1046.536h19.809l-.29-14.572h-19.229Z" transform="translate(-1852.858 -974.231)" fill="#d87355"/>
        <path id="Trazado_684700" data-name="Trazado 684700" d="M1853.6,1178.825h20.957l-.29-14.572h-20.377Z" transform="translate(-1850.801 -1077.654)" fill="#d87355"/>
      </g>
      <g id="Grupo_946327" data-name="Grupo 946327" transform="translate(347.016)">
        <path id="Trazado_684701" data-name="Trazado 684701" d="M2065.819,1009.4h-26.558l4.813-242.012h16.933Z" transform="translate(-2039.261 -767.386)" fill="#fff"/>
        <path id="Trazado_684702" data-name="Trazado 684702" d="M2106.435,1009.4h11.9l-4.812-242.012h-7.088Z" transform="translate(-2091.777 -767.385)" fill="#f7f1eb"/>
        <path id="Trazado_684703" data-name="Trazado 684703" d="M2077.5,781.957l-.29-14.572h-16.933l-.29,14.572Z" transform="translate(-2055.466 -767.385)" fill="#d87355"/>
        <path id="Trazado_684704" data-name="Trazado 684704" d="M2057.358,914.246h18.661l-.29-14.572h-18.081Z" transform="translate(-2053.409 -870.808)" fill="#d87355"/>
        <path id="Trazado_684705" data-name="Trazado 684705" d="M2054.727,1046.536h19.808l-.289-14.572h-19.229Z" transform="translate(-2051.352 -974.231)" fill="#d87355"/>
        <path id="Trazado_684706" data-name="Trazado 684706" d="M2052.1,1178.825h20.957l-.29-14.572h-20.377Z" transform="translate(-2049.295 -1077.654)" fill="#d87355"/>
      </g>
      <g id="Grupo_946328" data-name="Grupo 946328" transform="translate(79.984 136.792)">
        <rect id="Rectángulo_337512" data-name="Rectángulo 337512" width="62.814" height="73.534" transform="translate(2.86 32.026)" fill="#f6f6f6"/>
        <path id="Trazado_684707" data-name="Trazado 684707" d="M828.6,1427.276a31.4,31.4,0,0,1,31.407-31.4h0a31.4,31.4,0,0,1,31.407,31.4Z" transform="translate(-825.741 -1395.531)" fill="#f6f6f6"/>
        <rect id="Rectángulo_337513" data-name="Rectángulo 337513" width="68.31" height="4.672" transform="translate(0 31.746)" fill="#12263f"/>
        <path id="Trazado_684708" data-name="Trazado 684708" d="M889.614,1500.06a.218.218,0,0,1-.218-.218v-77.4A30.721,30.721,0,0,1,907.39,1394.3a.218.218,0,1,1,.178.4,30.284,30.284,0,0,0-17.735,27.741v77.4A.218.218,0,0,1,889.614,1500.06Z" transform="translate(-873.27 -1394.282)" fill="#363e44"/>
      </g>
      <g id="Grupo_946330" data-name="Grupo 946330" transform="translate(268.536 194.301)">
        <path id="Trazado_725140" data-name="Trazado 725140" d="M0,0H61.571V48.051H0Z" transform="translate(25.935)" fill="#afafaf"/>
        <rect id="Rectángulo_337515" data-name="Rectángulo 337515" width="61.571" height="48.051" fill="#f6f6f6"/>
        <g id="Grupo_946329" data-name="Grupo 946329" transform="translate(6.323 6.679)">
          <rect id="Rectángulo_337516" data-name="Rectángulo 337516" width="9.642" height="9.639" fill="#e0aa63"/>
          <rect id="Rectángulo_337517" data-name="Rectángulo 337517" width="9.642" height="9.639" transform="translate(0 19.244)" fill="#e0aa63"/>
          <rect id="Rectángulo_337518" data-name="Rectángulo 337518" width="9.642" height="9.639" transform="translate(19.25)" fill="#e0aa63"/>
          <rect id="Rectángulo_337519" data-name="Rectángulo 337519" width="9.642" height="9.639" transform="translate(19.25 19.244)" fill="#e0aa63"/>
          <rect id="Rectángulo_337520" data-name="Rectángulo 337520" width="9.642" height="9.639" transform="translate(38.5)" fill="#e0aa63"/>
          <rect id="Rectángulo_337521" data-name="Rectángulo 337521" width="9.642" height="9.639" transform="translate(38.5 19.244)" fill="#e0aa63"/>
        </g>
      </g>
      <g id="Grupo_946333" data-name="Grupo 946333" transform="translate(0 144.12)">
        <path id="Trazado_684709" data-name="Trazado 684709" d="M465.669,1446.813v-18.948l16.731,18.948v-18.948l16.731,18.948v-18.948l32.7,37.038-32.478,4.337-50.42-4.337v-37.038Z" transform="translate(-448.938 -1427.865)" fill="#636363"/>
        <g id="Grupo_946332" data-name="Grupo 946332" transform="translate(0 37.037)">
          <rect id="Rectángulo_337522" data-name="Rectángulo 337522" width="82.898" height="61.069" transform="translate(82.898 61.069) rotate(180)" fill="#636363"/>
          <g id="Grupo_946331" data-name="Grupo 946331" transform="translate(12.353 8.27)">
            <path id="Trazado_684710" data-name="Trazado 684710" d="M737.8,1654.481h-9.929a.218.218,0,0,1-.218-.218v-18.546a.218.218,0,0,1,.218-.218H737.8a.218.218,0,0,1,.218.218v18.546A.218.218,0,0,1,737.8,1654.481Zm-9.711-.437h9.493v-18.109h-9.493Z" transform="translate(-679.191 -1635.499)" fill="#363e44"/>
            <path id="Trazado_684711" data-name="Trazado 684711" d="M626.75,1654.481h-9.929a.218.218,0,0,1-.218-.218v-18.546a.218.218,0,0,1,.218-.218h9.929a.218.218,0,0,1,.218.218v18.546A.218.218,0,0,1,626.75,1654.481Zm-9.711-.437h9.493v-18.109h-9.493Z" transform="translate(-592.371 -1635.499)" fill="#363e44"/>
            <path id="Trazado_684712" data-name="Trazado 684712" d="M515.7,1654.481h-9.93a.218.218,0,0,1-.218-.218v-18.546a.218.218,0,0,1,.218-.218h9.93a.218.218,0,0,1,.218.218v18.546A.218.218,0,0,1,515.7,1654.481Zm-9.711-.437h9.493v-18.109h-9.493Z" transform="translate(-505.549 -1635.499)" fill="#363e44"/>
          </g>
        </g>
      </g>
    </g>
    <g id="Grupo_946341" data-name="Grupo 946341" transform="translate(953.57 1959.952)">
      <path id="Trazado_684713" data-name="Trazado 684713" d="M805.1,449.826c7.87-6.117,8.029-28.077,4.362-34.8-8.526-15.621-23.183-13.358-23.183-13.358s-.93-30.343-22.7-37.333c-12.063-3.872-31.005-5.216-44.631,23.363-2.565-2.307-10.688-11.617-32.184-12.062-17.474-.362-31.143,9.6-36.927,31.215-6.064-16.653-27.169-25.573-44.054-23.182-36.327,5.143-44.5,34.639-44.974,55.11-14.348-18.753-32.279-21.383-51.5-14.111-15.607,5.9-22.716,29.524-22.641,47.743-4.582-1.9-22.189-2.42-35.681,6.309-16.955,10.97-26.055,46.518,14.03,67.906,2.571,43.6,79.615,52.332,108.83-2.074,3.081,3.011,13.718,21.831,37.55,21.686,21.768-.132,29.667-13.171,33.651-17.185,2.481,17.271,15.084,29.63,31.963,32.12,12.41,1.831,31.057-8.57,29.115-23.01,2.018,1.358,17.238,11.227,35.817,5.551,21.921-6.7,28.06-28.781,28.394-30.069,15.95,3.621,27.891-9.552,30.027-14.077a37.474,37.474,0,0,0,1.431-29.435c-.9-1.843-3.159-13.134-23.44-16.471-14.764-2.429-24.911,3.295-27.75,5.137a50.957,50.957,0,0,0,8.663-30.069,48.971,48.971,0,0,0-4.091-17.56,8.8,8.8,0,0,0,16.339-2.371c6.613-13.774,25.184-.3,25.84,9.024.449,6.383-1.122,11.318-1.534,11.954C799.539,449.77,801.874,449.826,805.1,449.826Z" transform="translate(-436.565 -362.277)" fill="#363e44" opacity="0.293"/>
      <g id="Grupo_946340" data-name="Grupo 946340" transform="translate(36.598 38.013)">
        <g id="Grupo_946336" data-name="Grupo 946336" transform="translate(82.801 108.918)">
          <path id="Trazado_684714" data-name="Trazado 684714" d="M1006.393,1112.061a.218.218,0,0,1-.218-.218V1098.37c0-8.71-5.793-15.8-12.913-15.8h-9.289a.218.218,0,1,1,0-.436h9.289c7.361,0,13.35,7.282,13.35,16.233v13.472A.218.218,0,0,1,1006.393,1112.061Z" transform="translate(-983.754 -1071.992)" fill="#f7f1eb"/>
          <g id="Grupo_946335" data-name="Grupo 946335" transform="translate(33.971)">
            <path id="Trazado_684715" data-name="Trazado 684715" d="M1139.656,1073.282a.218.218,0,0,1-.218-.218v-17c0-11.262,7.3-20.424,16.267-20.424h11.354a.218.218,0,1,1,0,.437h-11.354c-8.729,0-15.831,8.967-15.831,19.988v17A.218.218,0,0,1,1139.656,1073.282Z" transform="translate(-1139.438 -1035.641)" fill="#f7f1eb"/>
          </g>
        </g>
        <g id="Grupo_946339" data-name="Grupo 946339" transform="translate(137.149 71.285)">
          <g id="Grupo_946337" data-name="Grupo 946337" transform="translate(0 8.71)">
            <path id="Trazado_684716" data-name="Trazado 684716" d="M1267.553,940.733a.218.218,0,0,1-.218-.218v-17a20.014,20.014,0,0,0-19.994-19.988h-14.3a.218.218,0,1,1,0-.436h14.3a20.451,20.451,0,0,1,20.431,20.424v17A.218.218,0,0,1,1267.553,940.733Z" transform="translate(-1232.824 -903.091)" fill="#f7f1eb"/>
          </g>
          <g id="Grupo_946338" data-name="Grupo 946338" transform="translate(66.474 8.71)">
            <path id="Trazado_684717" data-name="Trazado 684717" d="M1537.684,940.733a.218.218,0,0,1-.218-.218v-17c0-11.262,7.3-20.424,16.267-20.424h11.353a.218.218,0,1,1,0,.436h-11.353c-8.729,0-15.831,8.967-15.831,19.988v17A.218.218,0,0,1,1537.684,940.733Z" transform="translate(-1537.466 -903.091)" fill="#f7f1eb"/>
          </g>
          <path id="Trazado_684718" data-name="Trazado 684718" d="M1467.5,909.156a.218.218,0,0,1-.218-.218V863.393a.218.218,0,0,1,.437,0v45.544A.218.218,0,0,1,1467.5,909.156Z" transform="translate(-1416.125 -863.175)" fill="#f7f1eb"/>
        </g>
        <path id="Trazado_684719" data-name="Trazado 684719" d="M638.276,1115.02a13.548,13.548,0,0,1-13.445-12.03,19.943,19.943,0,0,1-5.654-39.222.218.218,0,0,1,.111.422,19.506,19.506,0,0,0,5.73,38.357.219.219,0,0,1,.226.2,13.116,13.116,0,0,0,24.986,4.171.218.218,0,0,1,.4.181A13.573,13.573,0,0,1,638.276,1115.02Z" transform="translate(-604.29 -948.708)" fill="#f7f1eb"/>
        <path id="Trazado_684720" data-name="Trazado 684720" d="M1039.826,572.51a.219.219,0,0,1-.2-.124c-.036-.076-3.583-7.659,2.328-12.256,4.453-3.462,11.941-.871,13.719-.18a19.717,19.717,0,0,1,.414-8.835,19.952,19.952,0,0,1,37.483-2.708.218.218,0,0,1-.4.176,19.512,19.512,0,0,0-36.994,11.676.218.218,0,0,1-.3.243c-.088-.038-8.887-3.735-13.654-.028-5.631,4.379-2.237,11.65-2.2,11.723a.218.218,0,0,1-.2.313Z" transform="translate(-943.785 -536.496)" fill="#f7f1eb"/>
        <path id="Trazado_684721" data-name="Trazado 684721" d="M1523.528,562.347a.218.218,0,0,1-.218-.218,25.65,25.65,0,0,1,46.939-14.3,11.008,11.008,0,0,1,18.21,8.321.218.218,0,1,1-.436,0,10.571,10.571,0,0,0-17.67-7.83.218.218,0,0,1-.329-.041,25.213,25.213,0,0,0-46.277,13.85A.218.218,0,0,1,1523.528,562.347Z" transform="translate(-1322.776 -536.487)" fill="#f7f1eb"/>
      </g>
    </g>
    <g id="Grupo_946343" data-name="Grupo 946343" transform="translate(973.391 2079.018)">
      <path id="Trazado_684722" data-name="Trazado 684722" d="M549.2,541.848H527.63l-4.812-76.006h31.191Z" transform="translate(-522.818 -465.843)" fill="#feda9b"/>
      <rect id="Rectángulo_337523" data-name="Rectángulo 337523" width="21.566" height="18.39" transform="translate(4.813 86.482)" fill="#feda9b"/>
    </g>
    <g id="Grupo_946344" data-name="Grupo 946344" transform="translate(977.984 2078.8)">
      <path id="Trazado_684723" data-name="Trazado 684723" d="M570.469,541.284H548.9a.218.218,0,0,1-.218-.2l-4.813-76.006a.218.218,0,0,1,.218-.232h31.191a.218.218,0,0,1,.218.232l-4.813,76.006A.218.218,0,0,1,570.469,541.284Zm-21.361-.437h21.156l4.785-75.569H544.323Z" transform="translate(-543.872 -464.842)" fill="#363e44"/>
      <path id="Trazado_684724" data-name="Trazado 684724" d="M587.712,880H566.146a.218.218,0,0,1-.218-.218V861.4a.218.218,0,0,1,.218-.218h21.566a.218.218,0,0,1,.218.218v18.39A.218.218,0,0,1,587.712,880Zm-21.348-.436h21.13V861.614h-21.13Z" transform="translate(-561.115 -774.696)" fill="#363e44"/>
    </g>
    <path id="Trazado_725142" data-name="Trazado 725142" d="M0,0H356.042V6.342H0Z" transform="translate(956.27 2290.574)" fill="#727997"/>
    <path id="Trazado_725476" data-name="Trazado 725476" d="M15,0H153a15,15,0,0,1,15,15V50a15,15,0,0,1-15,15H15A15,15,0,0,1,0,50V15A15,15,0,0,1,15,0Z" transform="translate(810 2220.657)" fill="#34bc85"/>
    <path id="Trazado_725477" data-name="Trazado 725477" d="M54.579,17H51.942L46.809,8.58V17H44.172V4.2h2.637l5.142,8.438V4.2h2.628Zm1.74-4.843a5.64,5.64,0,0,1,.545-2.522,3.989,3.989,0,0,1,1.569-1.714,4.577,4.577,0,0,1,2.377-.606,4.33,4.33,0,0,1,3.142,1.178,4.727,4.727,0,0,1,1.358,3.2l.018.65a4.97,4.97,0,0,1-1.222,3.511,4.735,4.735,0,0,1-6.561,0,5.058,5.058,0,0,1-1.226-3.586Zm2.54.18a3.555,3.555,0,0,0,.51,2.073,1.831,1.831,0,0,0,2.9.009,3.89,3.89,0,0,0,.519-2.267,3.519,3.519,0,0,0-.519-2.06,1.686,1.686,0,0,0-1.459-.731,1.658,1.658,0,0,0-1.441.726A3.955,3.955,0,0,0,58.859,12.338ZM72.236,9.872a6.9,6.9,0,0,0-.914-.07,1.86,1.86,0,0,0-1.89.976V17h-2.54V7.49h2.4l.07,1.134a2.354,2.354,0,0,1,2.118-1.31,2.662,2.662,0,0,1,.791.114Zm3.6-2.382.079,1.063a3.342,3.342,0,0,1,2.733-1.239,2.536,2.536,0,0,1,2.522,1.45,3.265,3.265,0,0,1,2.856-1.45,2.836,2.836,0,0,1,2.3.9,4.141,4.141,0,0,1,.756,2.711V17H84.541V10.922a1.818,1.818,0,0,0-.316-1.185,1.4,1.4,0,0,0-1.116-.374,1.585,1.585,0,0,0-1.582,1.092L81.535,17h-2.54V10.93a1.8,1.8,0,0,0-.325-1.2,1.414,1.414,0,0,0-1.107-.37,1.645,1.645,0,0,0-1.564.9V17h-2.54V7.49ZM94.551,17a2.821,2.821,0,0,1-.255-.853,3.073,3.073,0,0,1-2.4,1.028,3.376,3.376,0,0,1-2.316-.809,2.6,2.6,0,0,1-.918-2.039,2.687,2.687,0,0,1,1.121-2.32,5.529,5.529,0,0,1,3.239-.817h1.169v-.545a1.567,1.567,0,0,0-.338-1.055,1.331,1.331,0,0,0-1.068-.4,1.513,1.513,0,0,0-1.006.308,1.045,1.045,0,0,0-.365.844h-2.54a2.551,2.551,0,0,1,.51-1.529,3.37,3.37,0,0,1,1.441-1.1,5.253,5.253,0,0,1,2.092-.4,4.15,4.15,0,0,1,2.791.883,3.09,3.09,0,0,1,1.033,2.483V14.8a4.546,4.546,0,0,0,.378,2.048V17Zm-2.1-1.767a2.188,2.188,0,0,0,1.037-.25,1.645,1.645,0,0,0,.7-.672V12.676h-.949q-1.907,0-2.03,1.318l-.009.149a1.017,1.017,0,0,0,.334.782A1.3,1.3,0,0,0,92.451,15.233Zm11.391-.861a.818.818,0,0,0-.461-.734,5.241,5.241,0,0,0-1.481-.479q-3.393-.712-3.393-2.883a2.613,2.613,0,0,1,1.05-2.114,4.237,4.237,0,0,1,2.747-.848,4.56,4.56,0,0,1,2.9.853,2.687,2.687,0,0,1,1.085,2.215h-2.54a1.229,1.229,0,0,0-.352-.9,1.488,1.488,0,0,0-1.1-.356,1.52,1.52,0,0,0-.993.29.916.916,0,0,0-.352.738.783.783,0,0,0,.4.681,4.114,4.114,0,0,0,1.349.448,11.019,11.019,0,0,1,1.6.426,2.628,2.628,0,0,1,2.013,2.558,2.481,2.481,0,0,1-1.116,2.1,4.815,4.815,0,0,1-2.883.8,5.029,5.029,0,0,1-2.123-.426,3.561,3.561,0,0,1-1.455-1.169,2.716,2.716,0,0,1-.527-1.6h2.408a1.326,1.326,0,0,0,.5,1.037,1.987,1.987,0,0,0,1.248.36,1.839,1.839,0,0,0,1.1-.277A.861.861,0,0,0,103.841,14.372ZM16.263,42H13.714V32.49h2.549Zm-2.7-11.971a1.251,1.251,0,0,1,.382-.94,1.436,1.436,0,0,1,1.042-.369,1.44,1.44,0,0,1,1.037.369,1.342,1.342,0,0,1,0,1.89,1.629,1.629,0,0,1-2.065,0A1.247,1.247,0,0,1,13.564,30.029Zm7.128,2.461.079,1.1A3.32,3.32,0,0,1,23.5,32.314a2.759,2.759,0,0,1,2.25.888,4.142,4.142,0,0,1,.756,2.654V42h-2.54V35.9a1.654,1.654,0,0,0-.352-1.176,1.572,1.572,0,0,0-1.169-.366,1.747,1.747,0,0,0-1.608.916V42H18.3V32.49Zm10.784-2.338V32.49H33.1v1.863H31.477V39.1a1.133,1.133,0,0,0,.2.756,1.015,1.015,0,0,0,.773.229,4.051,4.051,0,0,0,.747-.062v1.925a5.229,5.229,0,0,1-1.538.229,2.425,2.425,0,0,1-2.725-2.7V34.354H27.548V32.49h1.389V30.152Zm7.418,12.023a4.668,4.668,0,0,1-3.406-1.283,4.561,4.561,0,0,1-1.314-3.419v-.246a5.745,5.745,0,0,1,.554-2.562,4.064,4.064,0,0,1,1.569-1.74,4.4,4.4,0,0,1,2.316-.611,3.947,3.947,0,0,1,3.072,1.23,5,5,0,0,1,1.121,3.489v1.037H36.75a2.36,2.36,0,0,0,.743,1.494,2.245,2.245,0,0,0,1.569.563,2.742,2.742,0,0,0,2.294-1.063l1.248,1.4a3.813,3.813,0,0,1-1.547,1.261A5.075,5.075,0,0,1,38.895,42.176Zm-.29-7.813a1.587,1.587,0,0,0-1.226.512,2.651,2.651,0,0,0-.6,1.466H40.31v-.2a1.891,1.891,0,0,0-.457-1.311A1.638,1.638,0,0,0,38.6,34.362Zm10.986.51a6.9,6.9,0,0,0-.914-.07,1.86,1.86,0,0,0-1.89.976V42h-2.54V32.49h2.4l.07,1.134a2.354,2.354,0,0,1,2.118-1.31,2.662,2.662,0,0,1,.791.114Zm3.56-2.382.079,1.1a3.32,3.32,0,0,1,2.733-1.274,2.759,2.759,0,0,1,2.25.888,4.142,4.142,0,0,1,.756,2.654V42h-2.54V35.9a1.654,1.654,0,0,0-.352-1.176,1.572,1.572,0,0,0-1.169-.366,1.747,1.747,0,0,0-1.608.916V42H50.76V32.49ZM66.4,42a2.821,2.821,0,0,1-.255-.853,3.073,3.073,0,0,1-2.4,1.028,3.376,3.376,0,0,1-2.316-.809,2.6,2.6,0,0,1-.918-2.039,2.687,2.687,0,0,1,1.121-2.32,5.529,5.529,0,0,1,3.239-.817h1.169v-.545a1.567,1.567,0,0,0-.338-1.055,1.331,1.331,0,0,0-1.068-.4,1.513,1.513,0,0,0-1.006.308,1.045,1.045,0,0,0-.365.844h-2.54a2.551,2.551,0,0,1,.51-1.529,3.37,3.37,0,0,1,1.441-1.1,5.253,5.253,0,0,1,2.092-.4,4.15,4.15,0,0,1,2.791.883,3.09,3.09,0,0,1,1.033,2.483V39.8a4.546,4.546,0,0,0,.378,2.048V42Zm-2.1-1.767a2.188,2.188,0,0,0,1.037-.25,1.645,1.645,0,0,0,.7-.672V37.676h-.949q-1.907,0-2.03,1.318l-.009.149a1.017,1.017,0,0,0,.334.782A1.3,1.3,0,0,0,64.3,40.233Zm10.2-.105a1.666,1.666,0,0,0,1.143-.387,1.355,1.355,0,0,0,.457-1.028H78.48a3.258,3.258,0,0,1-.527,1.771,3.48,3.48,0,0,1-1.419,1.248,4.442,4.442,0,0,1-1.991.444,4.129,4.129,0,0,1-3.217-1.3A5.13,5.13,0,0,1,70.148,37.3v-.167a5.071,5.071,0,0,1,1.169-3.507,4.08,4.08,0,0,1,3.208-1.31,4,4,0,0,1,2.861,1.015,3.594,3.594,0,0,1,1.094,2.7H76.1a1.745,1.745,0,0,0-.457-1.206,1.7,1.7,0,0,0-2.5.183,3.749,3.749,0,0,0-.453,2.1v.264a3.8,3.8,0,0,0,.448,2.113A1.549,1.549,0,0,0,74.5,40.128ZM82.611,42H80.063V32.49h2.549Zm-2.7-11.971a1.251,1.251,0,0,1,.382-.94,1.648,1.648,0,0,1,2.079,0,1.342,1.342,0,0,1,0,1.89,1.629,1.629,0,0,1-2.065,0A1.247,1.247,0,0,1,79.913,30.029Zm4.395,7.128a5.64,5.64,0,0,1,.545-2.522,3.989,3.989,0,0,1,1.569-1.714,4.577,4.577,0,0,1,2.377-.606,4.33,4.33,0,0,1,3.142,1.178,4.727,4.727,0,0,1,1.358,3.2l.018.65a4.97,4.97,0,0,1-1.222,3.511,4.735,4.735,0,0,1-6.561,0,5.058,5.058,0,0,1-1.226-3.586Zm2.54.18a3.555,3.555,0,0,0,.51,2.073,1.831,1.831,0,0,0,2.9.009,3.89,3.89,0,0,0,.519-2.267,3.519,3.519,0,0,0-.519-2.06,1.686,1.686,0,0,0-1.459-.731,1.658,1.658,0,0,0-1.441.726A3.955,3.955,0,0,0,86.848,37.338ZM97.219,32.49l.079,1.1a3.32,3.32,0,0,1,2.733-1.274,2.759,2.759,0,0,1,2.25.888,4.142,4.142,0,0,1,.756,2.654V42H100.5V35.9a1.654,1.654,0,0,0-.352-1.176,1.572,1.572,0,0,0-1.169-.366,1.747,1.747,0,0,0-1.608.916V42h-2.54V32.49ZM110.473,42a2.821,2.821,0,0,1-.255-.853,3.073,3.073,0,0,1-2.4,1.028,3.376,3.376,0,0,1-2.316-.809,2.6,2.6,0,0,1-.918-2.039,2.687,2.687,0,0,1,1.121-2.32,5.529,5.529,0,0,1,3.239-.817h1.169v-.545a1.567,1.567,0,0,0-.338-1.055,1.331,1.331,0,0,0-1.068-.4,1.513,1.513,0,0,0-1.006.308,1.045,1.045,0,0,0-.365.844h-2.54a2.551,2.551,0,0,1,.51-1.529,3.37,3.37,0,0,1,1.441-1.1,5.253,5.253,0,0,1,2.092-.4,4.15,4.15,0,0,1,2.791.883,3.09,3.09,0,0,1,1.033,2.483V39.8a4.546,4.546,0,0,0,.378,2.048V42Zm-2.1-1.767a2.188,2.188,0,0,0,1.037-.25,1.645,1.645,0,0,0,.7-.672V37.676h-.949q-1.907,0-2.03,1.318l-.009.149a1.017,1.017,0,0,0,.334.782A1.3,1.3,0,0,0,108.372,40.233ZM117.293,42h-2.549V28.5h2.549Zm6.469.176a4.668,4.668,0,0,1-3.406-1.283,4.561,4.561,0,0,1-1.314-3.419v-.246a5.745,5.745,0,0,1,.554-2.562,4.064,4.064,0,0,1,1.569-1.74,4.4,4.4,0,0,1,2.316-.611,3.947,3.947,0,0,1,3.072,1.23,5,5,0,0,1,1.121,3.489v1.037h-6.056a2.36,2.36,0,0,0,.743,1.494,2.245,2.245,0,0,0,1.569.563,2.742,2.742,0,0,0,2.294-1.063l1.248,1.4a3.813,3.813,0,0,1-1.547,1.261A5.075,5.075,0,0,1,123.762,42.176Zm-.29-7.813a1.587,1.587,0,0,0-1.226.512,2.651,2.651,0,0,0-.6,1.466h3.533v-.2a1.891,1.891,0,0,0-.457-1.311A1.638,1.638,0,0,0,123.472,34.362Zm10.793,5.01a.818.818,0,0,0-.461-.734,5.241,5.241,0,0,0-1.481-.479q-3.393-.712-3.393-2.883a2.613,2.613,0,0,1,1.05-2.114,4.237,4.237,0,0,1,2.747-.848,4.56,4.56,0,0,1,2.9.853,2.687,2.687,0,0,1,1.085,2.215h-2.54a1.229,1.229,0,0,0-.352-.9,1.488,1.488,0,0,0-1.1-.356,1.52,1.52,0,0,0-.993.29.916.916,0,0,0-.352.738.783.783,0,0,0,.4.681,4.114,4.114,0,0,0,1.349.448,11.019,11.019,0,0,1,1.6.426,2.628,2.628,0,0,1,2.013,2.558,2.481,2.481,0,0,1-1.116,2.1,4.815,4.815,0,0,1-2.883.8,5.029,5.029,0,0,1-2.123-.426,3.561,3.561,0,0,1-1.455-1.169,2.716,2.716,0,0,1-.527-1.6h2.408a1.326,1.326,0,0,0,.5,1.037,1.987,1.987,0,0,0,1.248.36,1.839,1.839,0,0,0,1.1-.277A.861.861,0,0,0,134.265,39.372Z" transform="translate(819 2228.657)" fill="#12263f"/>
    <path id="Trazado_725144" data-name="Trazado 725144" d="M15,0H163a15,15,0,0,1,15,15V48a15,15,0,0,1-15,15H15A15,15,0,0,1,0,48V15A15,15,0,0,1,15,0Z" transform="translate(1245.393 1983)" fill="#34bc85"/>
    <path id="Trazado_725478" data-name="Trazado 725478" d="M22.166,17H19.529L14.4,8.58V17H11.759V4.2H14.4l5.142,8.438V4.2h2.628Zm1.74-4.843a5.64,5.64,0,0,1,.545-2.522A3.989,3.989,0,0,1,26.02,7.921,4.577,4.577,0,0,1,28.4,7.314a4.33,4.33,0,0,1,3.142,1.178,4.727,4.727,0,0,1,1.358,3.2l.018.65a4.97,4.97,0,0,1-1.222,3.511,4.247,4.247,0,0,1-3.278,1.323,4.268,4.268,0,0,1-3.283-1.318,5.058,5.058,0,0,1-1.226-3.586Zm2.54.18a3.555,3.555,0,0,0,.51,2.073,1.831,1.831,0,0,0,2.9.009,3.89,3.89,0,0,0,.519-2.267,3.519,3.519,0,0,0-.519-2.06A1.686,1.686,0,0,0,28.4,9.362a1.658,1.658,0,0,0-1.441.726A3.955,3.955,0,0,0,26.446,12.338ZM39.823,9.872a6.9,6.9,0,0,0-.914-.07,1.86,1.86,0,0,0-1.89.976V17h-2.54V7.49h2.4l.07,1.134a2.354,2.354,0,0,1,2.118-1.31,2.662,2.662,0,0,1,.791.114Zm3.6-2.382.079,1.063a3.342,3.342,0,0,1,2.733-1.239,2.536,2.536,0,0,1,2.522,1.45,3.265,3.265,0,0,1,2.856-1.45,2.836,2.836,0,0,1,2.3.9,4.141,4.141,0,0,1,.756,2.711V17H52.127V10.922a1.818,1.818,0,0,0-.316-1.185,1.4,1.4,0,0,0-1.116-.374,1.585,1.585,0,0,0-1.582,1.092L49.122,17h-2.54V10.93a1.8,1.8,0,0,0-.325-1.2,1.414,1.414,0,0,0-1.107-.37,1.645,1.645,0,0,0-1.564.9V17h-2.54V7.49ZM62.138,17a2.821,2.821,0,0,1-.255-.853,3.073,3.073,0,0,1-2.4,1.028,3.376,3.376,0,0,1-2.316-.809,2.6,2.6,0,0,1-.918-2.039,2.687,2.687,0,0,1,1.121-2.32,5.529,5.529,0,0,1,3.239-.817h1.169v-.545a1.567,1.567,0,0,0-.338-1.055,1.331,1.331,0,0,0-1.068-.4,1.513,1.513,0,0,0-1.006.308,1.045,1.045,0,0,0-.365.844H56.46a2.551,2.551,0,0,1,.51-1.529,3.37,3.37,0,0,1,1.441-1.1,5.253,5.253,0,0,1,2.092-.4,4.15,4.15,0,0,1,2.791.883,3.09,3.09,0,0,1,1.033,2.483V14.8a4.546,4.546,0,0,0,.378,2.048V17Zm-2.1-1.767a2.188,2.188,0,0,0,1.037-.25,1.645,1.645,0,0,0,.7-.672V12.676h-.949q-1.907,0-2.03,1.318l-.009.149a1.017,1.017,0,0,0,.334.782A1.3,1.3,0,0,0,60.038,15.233Zm11.391-.861a.818.818,0,0,0-.461-.734,5.241,5.241,0,0,0-1.481-.479q-3.393-.712-3.393-2.883a2.613,2.613,0,0,1,1.05-2.114,4.237,4.237,0,0,1,2.747-.848,4.56,4.56,0,0,1,2.9.853,2.687,2.687,0,0,1,1.085,2.215h-2.54a1.229,1.229,0,0,0-.352-.9,1.488,1.488,0,0,0-1.1-.356,1.52,1.52,0,0,0-.993.29.916.916,0,0,0-.352.738.783.783,0,0,0,.4.681,4.114,4.114,0,0,0,1.349.448,11.019,11.019,0,0,1,1.6.426A2.628,2.628,0,0,1,73.9,14.267a2.481,2.481,0,0,1-1.116,2.1,4.815,4.815,0,0,1-2.883.8,5.029,5.029,0,0,1-2.123-.426,3.561,3.561,0,0,1-1.455-1.169,2.716,2.716,0,0,1-.527-1.6H68.2a1.326,1.326,0,0,0,.5,1.037,1.987,1.987,0,0,0,1.248.36,1.839,1.839,0,0,0,1.1-.277A.861.861,0,0,0,71.428,14.372Zm11.628-9.22V7.49h1.626V9.354H83.056V14.1a1.133,1.133,0,0,0,.2.756,1.015,1.015,0,0,0,.773.229,4.051,4.051,0,0,0,.747-.062v1.925a5.229,5.229,0,0,1-1.538.229,2.425,2.425,0,0,1-2.725-2.7V9.354H79.127V7.49h1.389V5.152Zm7.418,12.023a4.668,4.668,0,0,1-3.406-1.283,4.561,4.561,0,0,1-1.314-3.419v-.246a5.745,5.745,0,0,1,.554-2.562,4.064,4.064,0,0,1,1.569-1.74,4.4,4.4,0,0,1,2.316-.611,3.947,3.947,0,0,1,3.072,1.23,5,5,0,0,1,1.121,3.489v1.037H88.33a2.36,2.36,0,0,0,.743,1.494,2.245,2.245,0,0,0,1.569.563,2.742,2.742,0,0,0,2.294-1.063l1.248,1.4a3.813,3.813,0,0,1-1.547,1.261A5.075,5.075,0,0,1,90.474,17.176Zm-.29-7.813a1.587,1.587,0,0,0-1.226.512,2.651,2.651,0,0,0-.6,1.466h3.533v-.2a1.891,1.891,0,0,0-.457-1.311A1.638,1.638,0,0,0,90.184,9.362ZM90.413,3.5h2.769L90.747,6.225H88.681Zm9.369,11.628a1.666,1.666,0,0,0,1.143-.387,1.355,1.355,0,0,0,.457-1.028h2.382a3.258,3.258,0,0,1-.527,1.771,3.48,3.48,0,0,1-1.419,1.248,4.442,4.442,0,0,1-1.991.444,4.129,4.129,0,0,1-3.217-1.3A5.13,5.13,0,0,1,95.431,12.3v-.167A5.071,5.071,0,0,1,96.6,8.624a4.08,4.08,0,0,1,3.208-1.31,4,4,0,0,1,2.861,1.015,3.594,3.594,0,0,1,1.094,2.7h-2.382a1.745,1.745,0,0,0-.457-1.206,1.7,1.7,0,0,0-2.5.183,3.749,3.749,0,0,0-.453,2.1v.264a3.8,3.8,0,0,0,.448,2.113A1.549,1.549,0,0,0,99.782,15.128Zm7.77-7.638.079,1.1a3.32,3.32,0,0,1,2.733-1.274,2.759,2.759,0,0,1,2.25.888,4.142,4.142,0,0,1,.756,2.654V17h-2.54V10.9a1.654,1.654,0,0,0-.352-1.176,1.572,1.572,0,0,0-1.169-.366,1.747,1.747,0,0,0-1.608.916V17h-2.54V7.49ZM117.975,17h-2.549V7.49h2.549Zm-2.7-11.971a1.251,1.251,0,0,1,.382-.94,1.648,1.648,0,0,1,2.079,0,1.244,1.244,0,0,1,.387.94,1.247,1.247,0,0,1-.391.949,1.629,1.629,0,0,1-2.065,0A1.247,1.247,0,0,1,115.277,5.029Zm8.745,10.1a1.666,1.666,0,0,0,1.143-.387,1.355,1.355,0,0,0,.457-1.028H128a3.258,3.258,0,0,1-.527,1.771,3.48,3.48,0,0,1-1.419,1.248,4.442,4.442,0,0,1-1.991.444,4.129,4.129,0,0,1-3.217-1.3,5.13,5.13,0,0,1-1.178-3.582v-.167a5.071,5.071,0,0,1,1.169-3.507,4.08,4.08,0,0,1,3.208-1.31,4,4,0,0,1,2.861,1.015,3.594,3.594,0,0,1,1.094,2.7h-2.382a1.745,1.745,0,0,0-.457-1.206,1.7,1.7,0,0,0-2.5.183,3.749,3.749,0,0,0-.453,2.1v.264a3.8,3.8,0,0,0,.448,2.113A1.549,1.549,0,0,0,124.022,15.128ZM134.964,17a2.821,2.821,0,0,1-.255-.853,3.073,3.073,0,0,1-2.4,1.028,3.376,3.376,0,0,1-2.316-.809,2.6,2.6,0,0,1-.918-2.039,2.687,2.687,0,0,1,1.121-2.32,5.529,5.529,0,0,1,3.239-.817H134.6v-.545a1.567,1.567,0,0,0-.338-1.055,1.331,1.331,0,0,0-1.068-.4,1.513,1.513,0,0,0-1.006.308,1.045,1.045,0,0,0-.365.844h-2.54a2.551,2.551,0,0,1,.51-1.529,3.37,3.37,0,0,1,1.441-1.1,5.253,5.253,0,0,1,2.092-.4,4.15,4.15,0,0,1,2.791.883,3.09,3.09,0,0,1,1.033,2.483V14.8a4.546,4.546,0,0,0,.378,2.048V17Zm-2.1-1.767a2.188,2.188,0,0,0,1.037-.25,1.645,1.645,0,0,0,.7-.672V12.676h-.949q-1.907,0-2.03,1.318l-.009.149a1.017,1.017,0,0,0,.334.782A1.3,1.3,0,0,0,132.864,15.233Zm11.391-.861a.818.818,0,0,0-.461-.734,5.241,5.241,0,0,0-1.481-.479q-3.393-.712-3.393-2.883a2.613,2.613,0,0,1,1.05-2.114,4.237,4.237,0,0,1,2.747-.848,4.56,4.56,0,0,1,2.9.853,2.687,2.687,0,0,1,1.085,2.215h-2.54a1.229,1.229,0,0,0-.352-.9,1.488,1.488,0,0,0-1.1-.356,1.52,1.52,0,0,0-.993.29.916.916,0,0,0-.352.738.783.783,0,0,0,.4.681,4.114,4.114,0,0,0,1.349.448,11.019,11.019,0,0,1,1.6.426,2.628,2.628,0,0,1,2.013,2.558,2.481,2.481,0,0,1-1.116,2.1,4.815,4.815,0,0,1-2.883.8,5.029,5.029,0,0,1-2.123-.426,3.561,3.561,0,0,1-1.455-1.169,2.716,2.716,0,0,1-.527-1.6h2.408a1.326,1.326,0,0,0,.5,1.037,1.987,1.987,0,0,0,1.248.36,1.839,1.839,0,0,0,1.1-.277A.861.861,0,0,0,144.254,14.372ZM32.11,40.128a1.666,1.666,0,0,0,1.143-.387,1.355,1.355,0,0,0,.457-1.028h2.382a3.258,3.258,0,0,1-.527,1.771,3.48,3.48,0,0,1-1.419,1.248,4.442,4.442,0,0,1-1.991.444,4.129,4.129,0,0,1-3.217-1.3A5.13,5.13,0,0,1,27.76,37.3v-.167a5.071,5.071,0,0,1,1.169-3.507,4.08,4.08,0,0,1,3.208-1.31A4,4,0,0,1,35,33.33a3.594,3.594,0,0,1,1.094,2.7H33.71a1.745,1.745,0,0,0-.457-1.206,1.7,1.7,0,0,0-2.5.183,3.749,3.749,0,0,0-.453,2.1v.264a3.8,3.8,0,0,0,.448,2.113A1.549,1.549,0,0,0,32.11,40.128Zm5.036-2.971a5.64,5.64,0,0,1,.545-2.522,3.989,3.989,0,0,1,1.569-1.714,4.577,4.577,0,0,1,2.377-.606,4.33,4.33,0,0,1,3.142,1.178,4.727,4.727,0,0,1,1.358,3.2l.018.65a4.97,4.97,0,0,1-1.222,3.511,4.735,4.735,0,0,1-6.561,0,5.058,5.058,0,0,1-1.226-3.586Zm2.54.18a3.555,3.555,0,0,0,.51,2.073,1.831,1.831,0,0,0,2.9.009,3.89,3.89,0,0,0,.519-2.267,3.519,3.519,0,0,0-.519-2.06,1.686,1.686,0,0,0-1.459-.731,1.658,1.658,0,0,0-1.441.726A3.955,3.955,0,0,0,39.687,37.338ZM50.4,42H47.852V28.5H50.4Zm1.7-4.843a5.64,5.64,0,0,1,.545-2.522,3.989,3.989,0,0,1,1.569-1.714,4.577,4.577,0,0,1,2.377-.606,4.33,4.33,0,0,1,3.142,1.178,4.727,4.727,0,0,1,1.358,3.2l.018.65a4.97,4.97,0,0,1-1.222,3.511,4.735,4.735,0,0,1-6.561,0A5.058,5.058,0,0,1,52.1,37.271Zm2.54.18a3.555,3.555,0,0,0,.51,2.073,1.831,1.831,0,0,0,2.9.009,3.89,3.89,0,0,0,.519-2.267,3.519,3.519,0,0,0-.519-2.06,1.686,1.686,0,0,0-1.459-.731,1.658,1.658,0,0,0-1.441.726A3.955,3.955,0,0,0,54.637,37.338ZM65.052,32.49l.079,1.063a3.342,3.342,0,0,1,2.733-1.239,2.536,2.536,0,0,1,2.522,1.45,3.265,3.265,0,0,1,2.856-1.45,2.836,2.836,0,0,1,2.3.9,4.141,4.141,0,0,1,.756,2.711V42H73.753V35.922a1.818,1.818,0,0,0-.316-1.185,1.4,1.4,0,0,0-1.116-.374,1.585,1.585,0,0,0-1.582,1.092L70.747,42h-2.54V35.93a1.8,1.8,0,0,0-.325-1.2,1.414,1.414,0,0,0-1.107-.37,1.645,1.645,0,0,0-1.564.9V42H62.67V32.49Zm21.771,4.843a5.758,5.758,0,0,1-.976,3.564,3.231,3.231,0,0,1-2.725,1.279,2.969,2.969,0,0,1-2.47-1.187L80.538,42H78.253V28.5h2.54v4.843A2.893,2.893,0,0,1,83.1,32.314a3.258,3.258,0,0,1,2.729,1.279,5.767,5.767,0,0,1,.989,3.6Zm-2.54-.194a3.8,3.8,0,0,0-.457-2.111,1.544,1.544,0,0,0-1.362-.666,1.675,1.675,0,0,0-1.67,1v3.764a1.7,1.7,0,0,0,1.688,1A1.569,1.569,0,0,0,84.1,38.911,6.294,6.294,0,0,0,84.282,37.139ZM91.067,42H88.519V32.49h2.549Zm-2.7-11.971a1.251,1.251,0,0,1,.382-.94,1.648,1.648,0,0,1,2.079,0,1.342,1.342,0,0,1,0,1.89,1.629,1.629,0,0,1-2.065,0A1.247,1.247,0,0,1,88.369,30.029ZM98.67,42a2.821,2.821,0,0,1-.255-.853,3.073,3.073,0,0,1-2.4,1.028,3.376,3.376,0,0,1-2.316-.809,2.6,2.6,0,0,1-.918-2.039,2.687,2.687,0,0,1,1.121-2.32,5.529,5.529,0,0,1,3.239-.817H98.31v-.545a1.567,1.567,0,0,0-.338-1.055,1.331,1.331,0,0,0-1.068-.4A1.513,1.513,0,0,0,95.9,34.5a1.045,1.045,0,0,0-.365.844h-2.54a2.551,2.551,0,0,1,.51-1.529,3.37,3.37,0,0,1,1.441-1.1,5.253,5.253,0,0,1,2.092-.4,4.15,4.15,0,0,1,2.791.883,3.09,3.09,0,0,1,1.033,2.483V39.8a4.546,4.546,0,0,0,.378,2.048V42Zm-2.1-1.767a2.188,2.188,0,0,0,1.037-.25,1.645,1.645,0,0,0,.7-.672V37.676H97.36q-1.907,0-2.03,1.318l-.009.149a1.017,1.017,0,0,0,.334.782A1.3,1.3,0,0,0,96.569,40.233Zm8.578-7.743.079,1.1a3.32,3.32,0,0,1,2.733-1.274,2.759,2.759,0,0,1,2.25.888,4.142,4.142,0,0,1,.756,2.654V42h-2.54V35.9a1.654,1.654,0,0,0-.352-1.176,1.572,1.572,0,0,0-1.169-.366,1.747,1.747,0,0,0-1.608.916V42h-2.54V32.49ZM118.4,42a2.821,2.821,0,0,1-.255-.853,3.073,3.073,0,0,1-2.4,1.028,3.376,3.376,0,0,1-2.316-.809,2.6,2.6,0,0,1-.918-2.039,2.687,2.687,0,0,1,1.121-2.32,5.529,5.529,0,0,1,3.239-.817h1.169v-.545a1.567,1.567,0,0,0-.338-1.055,1.331,1.331,0,0,0-1.068-.4,1.513,1.513,0,0,0-1.006.308,1.045,1.045,0,0,0-.365.844h-2.54a2.551,2.551,0,0,1,.51-1.529,3.37,3.37,0,0,1,1.441-1.1,5.253,5.253,0,0,1,2.092-.4,4.15,4.15,0,0,1,2.791.883,3.09,3.09,0,0,1,1.033,2.483V39.8a4.546,4.546,0,0,0,.378,2.048V42Zm-2.1-1.767a2.188,2.188,0,0,0,1.037-.25,1.645,1.645,0,0,0,.7-.672V37.676h-.949q-1.907,0-2.03,1.318l-.009.149a1.017,1.017,0,0,0,.334.782A1.3,1.3,0,0,0,116.3,40.233Zm11.391-.861a.818.818,0,0,0-.461-.734,5.241,5.241,0,0,0-1.481-.479q-3.393-.712-3.393-2.883a2.613,2.613,0,0,1,1.05-2.114,4.237,4.237,0,0,1,2.747-.848,4.56,4.56,0,0,1,2.9.853,2.687,2.687,0,0,1,1.085,2.215h-2.54a1.229,1.229,0,0,0-.352-.9,1.488,1.488,0,0,0-1.1-.356,1.52,1.52,0,0,0-.993.29.916.916,0,0,0-.352.738.783.783,0,0,0,.4.681,4.114,4.114,0,0,0,1.349.448,11.019,11.019,0,0,1,1.6.426,2.628,2.628,0,0,1,2.013,2.558,2.481,2.481,0,0,1-1.116,2.1,4.815,4.815,0,0,1-2.883.8,5.029,5.029,0,0,1-2.123-.426,3.561,3.561,0,0,1-1.455-1.169,2.716,2.716,0,0,1-.527-1.6h2.408a1.326,1.326,0,0,0,.5,1.037,1.987,1.987,0,0,0,1.248.36,1.839,1.839,0,0,0,1.1-.277A.861.861,0,0,0,127.691,39.372Z" transform="translate(1255.393 1991)" fill="#12263f"/>
    <path id="Trazado_683361" data-name="Trazado 683361" d="M15,0H152.606a15,15,0,0,1,15,15V27.862a15,15,0,0,1-15,15H15a15,15,0,0,1-15-15V15A15,15,0,0,1,15,0Z" transform="matrix(1, -0.017, 0.017, 1, 837.523, 2048.927)" fill="#34bc85"/>
    <path id="Trazado_725479" data-name="Trazado 725479" d="M14.432,12.315h-2.1V17H9.694V4.2h4.755a5.375,5.375,0,0,1,3.5,1.011,3.488,3.488,0,0,1,1.23,2.856,3.937,3.937,0,0,1-.567,2.184,3.866,3.866,0,0,1-1.718,1.393l2.769,5.229V17h-2.83Zm-2.1-2.136h2.127A2.178,2.178,0,0,0,16,9.674a1.806,1.806,0,0,0,.545-1.393,1.933,1.933,0,0,0-.514-1.424,2.137,2.137,0,0,0-1.578-.519H12.331Zm13.061,7a4.668,4.668,0,0,1-3.406-1.283,4.561,4.561,0,0,1-1.314-3.419v-.246a5.745,5.745,0,0,1,.554-2.562,4.064,4.064,0,0,1,1.569-1.74,4.4,4.4,0,0,1,2.316-.611,3.947,3.947,0,0,1,3.072,1.23A5,5,0,0,1,29.3,12.034v1.037H23.247a2.36,2.36,0,0,0,.743,1.494,2.245,2.245,0,0,0,1.569.563,2.742,2.742,0,0,0,2.294-1.063l1.248,1.4a3.813,3.813,0,0,1-1.547,1.261A5.075,5.075,0,0,1,25.392,17.176ZM25.1,9.362a1.587,1.587,0,0,0-1.226.512,2.651,2.651,0,0,0-.6,1.466h3.533v-.2a1.891,1.891,0,0,0-.457-1.311A1.638,1.638,0,0,0,25.1,9.362Zm10.793,5.01a.818.818,0,0,0-.461-.734,5.241,5.241,0,0,0-1.481-.479q-3.393-.712-3.393-2.883a2.613,2.613,0,0,1,1.05-2.114,4.237,4.237,0,0,1,2.747-.848,4.56,4.56,0,0,1,2.9.853,2.687,2.687,0,0,1,1.085,2.215H35.8a1.229,1.229,0,0,0-.352-.9,1.488,1.488,0,0,0-1.1-.356,1.52,1.52,0,0,0-.993.29.916.916,0,0,0-.352.738.783.783,0,0,0,.4.681,4.114,4.114,0,0,0,1.349.448,11.019,11.019,0,0,1,1.6.426,2.628,2.628,0,0,1,2.013,2.558,2.481,2.481,0,0,1-1.116,2.1,4.815,4.815,0,0,1-2.883.8,5.029,5.029,0,0,1-2.123-.426,3.561,3.561,0,0,1-1.455-1.169,2.716,2.716,0,0,1-.527-1.6h2.408a1.326,1.326,0,0,0,.5,1.037,1.987,1.987,0,0,0,1.248.36,1.839,1.839,0,0,0,1.1-.277A.861.861,0,0,0,35.895,14.372ZM39.6,12.157a5.64,5.64,0,0,1,.545-2.522,3.989,3.989,0,0,1,1.569-1.714,4.577,4.577,0,0,1,2.377-.606,4.33,4.33,0,0,1,3.142,1.178,4.727,4.727,0,0,1,1.358,3.2l.018.65a4.97,4.97,0,0,1-1.222,3.511,4.735,4.735,0,0,1-6.561,0A5.058,5.058,0,0,1,39.6,12.271Zm2.54.18a3.555,3.555,0,0,0,.51,2.073,1.831,1.831,0,0,0,2.9.009,3.89,3.89,0,0,0,.519-2.267,3.519,3.519,0,0,0-.519-2.06,1.686,1.686,0,0,0-1.459-.731,1.658,1.658,0,0,0-1.441.726A3.955,3.955,0,0,0,42.144,12.338ZM52.857,17H50.309V3.5h2.549Zm7.787-.967a3.185,3.185,0,0,1-2.6,1.143,3,3,0,0,1-2.333-.879,3.752,3.752,0,0,1-.822-2.575V7.49h2.54v6.151q0,1.487,1.354,1.487a1.834,1.834,0,0,0,1.775-.9V7.49h2.549V17H60.715Zm8.332-.905a1.666,1.666,0,0,0,1.143-.387,1.355,1.355,0,0,0,.457-1.028h2.382a3.258,3.258,0,0,1-.527,1.771,3.48,3.48,0,0,1-1.419,1.248,4.442,4.442,0,0,1-1.991.444,4.129,4.129,0,0,1-3.217-1.3A5.13,5.13,0,0,1,64.626,12.3v-.167a5.071,5.071,0,0,1,1.169-3.507A4.08,4.08,0,0,1,69,7.314,4,4,0,0,1,71.864,8.33a3.594,3.594,0,0,1,1.094,2.7H70.576a1.745,1.745,0,0,0-.457-1.206,1.7,1.7,0,0,0-2.5.183,3.749,3.749,0,0,0-.453,2.1v.264a3.8,3.8,0,0,0,.448,2.113A1.549,1.549,0,0,0,68.977,15.128ZM77.089,17H74.54V7.49h2.549Zm-2.7-11.971a1.251,1.251,0,0,1,.382-.94,1.648,1.648,0,0,1,2.079,0,1.244,1.244,0,0,1,.387.94,1.247,1.247,0,0,1-.391.949,1.629,1.629,0,0,1-2.065,0A1.247,1.247,0,0,1,74.391,5.029Zm4.395,7.128a5.64,5.64,0,0,1,.545-2.522A3.989,3.989,0,0,1,80.9,7.921a4.577,4.577,0,0,1,2.377-.606,4.33,4.33,0,0,1,3.142,1.178,4.727,4.727,0,0,1,1.358,3.2l.018.65a4.97,4.97,0,0,1-1.222,3.511,4.735,4.735,0,0,1-6.561,0,5.058,5.058,0,0,1-1.226-3.586Zm2.54.18a3.555,3.555,0,0,0,.51,2.073,1.831,1.831,0,0,0,2.9.009,3.89,3.89,0,0,0,.519-2.267,3.519,3.519,0,0,0-.519-2.06,1.686,1.686,0,0,0-1.459-.731,1.658,1.658,0,0,0-1.441.726A3.955,3.955,0,0,0,81.325,12.338ZM91.7,7.49l.079,1.1a3.32,3.32,0,0,1,2.733-1.274,2.759,2.759,0,0,1,2.25.888,4.142,4.142,0,0,1,.756,2.654V17h-2.54V10.9a1.654,1.654,0,0,0-.352-1.176,1.572,1.572,0,0,0-1.169-.366,1.747,1.747,0,0,0-1.608.916V17h-2.54V7.49Zm12.12,9.686a4.668,4.668,0,0,1-3.406-1.283A4.561,4.561,0,0,1,99.1,12.474v-.246a5.745,5.745,0,0,1,.554-2.562,4.064,4.064,0,0,1,1.569-1.74,4.4,4.4,0,0,1,2.316-.611,3.947,3.947,0,0,1,3.072,1.23,5,5,0,0,1,1.121,3.489v1.037h-6.056a2.36,2.36,0,0,0,.743,1.494,2.245,2.245,0,0,0,1.569.563,2.742,2.742,0,0,0,2.294-1.063l1.248,1.4a3.813,3.813,0,0,1-1.547,1.261A5.075,5.075,0,0,1,103.816,17.176Zm-.29-7.813a1.587,1.587,0,0,0-1.226.512,2.651,2.651,0,0,0-.6,1.466h3.533v-.2a1.891,1.891,0,0,0-.457-1.311A1.638,1.638,0,0,0,103.526,9.362Zm10.793,5.01a.818.818,0,0,0-.461-.734,5.241,5.241,0,0,0-1.481-.479q-3.393-.712-3.393-2.883a2.613,2.613,0,0,1,1.05-2.114,4.237,4.237,0,0,1,2.747-.848,4.56,4.56,0,0,1,2.9.853,2.687,2.687,0,0,1,1.085,2.215h-2.54a1.229,1.229,0,0,0-.352-.9,1.488,1.488,0,0,0-1.1-.356,1.52,1.52,0,0,0-.993.29.916.916,0,0,0-.352.738.783.783,0,0,0,.4.681,4.114,4.114,0,0,0,1.349.448,11.019,11.019,0,0,1,1.6.426,2.628,2.628,0,0,1,2.013,2.558,2.481,2.481,0,0,1-1.116,2.1,4.815,4.815,0,0,1-2.883.8,5.029,5.029,0,0,1-2.123-.426,3.561,3.561,0,0,1-1.455-1.169,2.716,2.716,0,0,1-.527-1.6h2.408a1.326,1.326,0,0,0,.5,1.037,1.987,1.987,0,0,0,1.248.36,1.839,1.839,0,0,0,1.1-.277A.861.861,0,0,0,114.319,14.372Z" transform="translate(852.523 2059.001)" fill="#12263f"/>
    <path id="Trazado_725480" data-name="Trazado 725480" d="M15,0H153a15,15,0,0,1,15,15V50a15,15,0,0,1-15,15H15A15,15,0,0,1,0,50V15A15,15,0,0,1,15,0Z" transform="translate(1196.207 2209.372)" fill="#34bc85"/>
    <path id="Trazado_725481" data-name="Trazado 725481" d="M24.718,17H22.081L16.948,8.58V17H14.312V4.2h2.637l5.142,8.438V4.2h2.628Zm1.74-4.843A5.64,5.64,0,0,1,27,9.635a3.989,3.989,0,0,1,1.569-1.714,4.577,4.577,0,0,1,2.377-.606,4.33,4.33,0,0,1,3.142,1.178,4.727,4.727,0,0,1,1.358,3.2l.018.65a4.97,4.97,0,0,1-1.222,3.511,4.247,4.247,0,0,1-3.278,1.323,4.268,4.268,0,0,1-3.283-1.318,5.058,5.058,0,0,1-1.226-3.586Zm2.54.18a3.555,3.555,0,0,0,.51,2.073,1.831,1.831,0,0,0,2.9.009,3.89,3.89,0,0,0,.519-2.267,3.519,3.519,0,0,0-.519-2.06,1.686,1.686,0,0,0-1.459-.731,1.658,1.658,0,0,0-1.441.726A3.955,3.955,0,0,0,29,12.338ZM42.375,9.872a6.9,6.9,0,0,0-.914-.07,1.86,1.86,0,0,0-1.89.976V17h-2.54V7.49h2.4l.07,1.134a2.354,2.354,0,0,1,2.118-1.31,2.662,2.662,0,0,1,.791.114Zm3.6-2.382.079,1.063a3.342,3.342,0,0,1,2.733-1.239,2.536,2.536,0,0,1,2.522,1.45,3.265,3.265,0,0,1,2.856-1.45,2.836,2.836,0,0,1,2.3.9,4.141,4.141,0,0,1,.756,2.711V17H54.68V10.922a1.818,1.818,0,0,0-.316-1.185,1.4,1.4,0,0,0-1.116-.374,1.585,1.585,0,0,0-1.582,1.092L51.674,17h-2.54V10.93a1.8,1.8,0,0,0-.325-1.2,1.414,1.414,0,0,0-1.107-.37,1.645,1.645,0,0,0-1.564.9V17H43.6V7.49ZM64.69,17a2.821,2.821,0,0,1-.255-.853,3.073,3.073,0,0,1-2.4,1.028,3.376,3.376,0,0,1-2.316-.809,2.6,2.6,0,0,1-.918-2.039,2.687,2.687,0,0,1,1.121-2.32,5.529,5.529,0,0,1,3.239-.817H64.33v-.545a1.567,1.567,0,0,0-.338-1.055,1.331,1.331,0,0,0-1.068-.4,1.513,1.513,0,0,0-1.006.308,1.045,1.045,0,0,0-.365.844h-2.54a2.551,2.551,0,0,1,.51-1.529,3.37,3.37,0,0,1,1.441-1.1,5.253,5.253,0,0,1,2.092-.4,4.15,4.15,0,0,1,2.791.883,3.09,3.09,0,0,1,1.033,2.483V14.8a4.546,4.546,0,0,0,.378,2.048V17Zm-2.1-1.767a2.188,2.188,0,0,0,1.037-.25,1.645,1.645,0,0,0,.7-.672V12.676h-.949q-1.907,0-2.03,1.318l-.009.149a1.017,1.017,0,0,0,.334.782A1.3,1.3,0,0,0,62.59,15.233ZM83.165,4.2v8.429a4.315,4.315,0,0,1-1.314,3.322,5.066,5.066,0,0,1-3.59,1.222,5.123,5.123,0,0,1-3.56-1.187,4.242,4.242,0,0,1-1.345-3.261V4.2h2.637v8.446a2.438,2.438,0,0,0,.6,1.833,2.311,2.311,0,0,0,1.666.576q2.224,0,2.259-2.338V4.2ZM95.733,17H93.1L87.964,8.58V17H85.327V4.2h2.637l5.142,8.438V4.2h2.628Zm10-5.563h-5.062v3.445h5.941V17H98.036V4.2H106.6V6.339h-5.924v3.05h5.063Zm7.2,1.107h-4.948V10.5h4.948Zm9.905-1.107h-5.062v3.445h5.941V17H115.14V4.2H123.7V6.339h-5.924v3.05h5.063ZM135.671,17h-2.637L127.9,8.58V17h-2.637V4.2H127.9l5.142,8.438V4.2h2.628ZM30.787,42h-2.54V32.2l-3.032.936V31.084l5.3-1.9h.272Zm6.741-7.523h1.354a1.907,1.907,0,0,0,1.433-.483,1.771,1.771,0,0,0,.466-1.283,1.566,1.566,0,0,0-.461-1.2,1.788,1.788,0,0,0-1.27-.431,1.874,1.874,0,0,0-1.222.4,1.279,1.279,0,0,0-.492,1.042h-2.54a3.124,3.124,0,0,1,.541-1.8,3.6,3.6,0,0,1,1.512-1.244,5.045,5.045,0,0,1,2.14-.448A4.785,4.785,0,0,1,42.168,30a3.314,3.314,0,0,1,1.151,2.676,2.693,2.693,0,0,1-.536,1.617,3.483,3.483,0,0,1-1.406,1.134,3.18,3.18,0,0,1,1.613,1.16,3.147,3.147,0,0,1,.532,1.828,3.369,3.369,0,0,1-1.244,2.733,5,5,0,0,1-3.292,1.028,4.741,4.741,0,0,1-3.133-1.011,3.3,3.3,0,0,1-1.217-2.672h2.54a1.472,1.472,0,0,0,.541,1.178,2.255,2.255,0,0,0,2.751-.022,1.654,1.654,0,0,0,.514-1.27q0-1.916-2.109-1.916H37.528Zm16.444-3.856L49.024,42H46.343L51.3,31.251H44.937V29.2h9.035ZM64.37,42H55.6V40.26l4.14-4.412A10.212,10.212,0,0,0,61,34.222a2.612,2.612,0,0,0,.409-1.318,1.955,1.955,0,0,0-.431-1.34,1.555,1.555,0,0,0-1.23-.488,1.677,1.677,0,0,0-1.358.593,2.35,2.35,0,0,0-.5,1.56H55.343a4.2,4.2,0,0,1,.558-2.136,3.934,3.934,0,0,1,1.578-1.516,4.8,4.8,0,0,1,2.312-.549,4.54,4.54,0,0,1,3.072.949,3.358,3.358,0,0,1,1.094,2.681,4.3,4.3,0,0,1-.492,1.934,10.745,10.745,0,0,1-1.687,2.294l-2.909,3.067h5.5ZM66.3,35.707l.738-6.5h7.172v2.118H69.125l-.316,2.751a4.027,4.027,0,0,1,1.925-.483A3.689,3.689,0,0,1,73.6,34.723,4.529,4.529,0,0,1,74.635,37.9a4.64,4.64,0,0,1-.523,2.219,3.691,3.691,0,0,1-1.5,1.521,4.678,4.678,0,0,1-2.3.541,4.968,4.968,0,0,1-2.153-.47,3.819,3.819,0,0,1-1.569-1.323,3.605,3.605,0,0,1-.611-1.942h2.514a1.878,1.878,0,0,0,.558,1.244,1.769,1.769,0,0,0,1.252.444,1.562,1.562,0,0,0,1.327-.62,2.87,2.87,0,0,0,.466-1.753,2.374,2.374,0,0,0-.536-1.67,1.967,1.967,0,0,0-1.521-.58,2.2,2.2,0,0,0-1.468.475l-.246.229Zm10.178,5.045a1.279,1.279,0,0,1,.409-.984,1.588,1.588,0,0,1,2.057,0,1.279,1.279,0,0,1,.409.984,1.261,1.261,0,0,1-.4.971,1.614,1.614,0,0,1-2.065,0A1.261,1.261,0,0,1,76.481,40.752Zm0-7.2a1.279,1.279,0,0,1,.409-.984,1.588,1.588,0,0,1,2.057,0,1.279,1.279,0,0,1,.409.984,1.261,1.261,0,0,1-.4.971,1.614,1.614,0,0,1-2.065,0A1.261,1.261,0,0,1,76.481,33.554ZM94.586,42H85.815V40.26l4.14-4.412a10.212,10.212,0,0,0,1.261-1.626,2.612,2.612,0,0,0,.409-1.318,1.955,1.955,0,0,0-.431-1.34,1.555,1.555,0,0,0-1.23-.488,1.677,1.677,0,0,0-1.358.593,2.35,2.35,0,0,0-.5,1.56H85.56a4.2,4.2,0,0,1,.558-2.136A3.934,3.934,0,0,1,87.7,29.577a4.8,4.8,0,0,1,2.312-.549,4.54,4.54,0,0,1,3.072.949,3.358,3.358,0,0,1,1.094,2.681,4.3,4.3,0,0,1-.492,1.934,10.745,10.745,0,0,1-1.687,2.294l-2.909,3.067h5.5Zm10.169-5.291a6.483,6.483,0,0,1-1.1,4.061,4.39,4.39,0,0,1-6.416.026,6.293,6.293,0,0,1-1.134-3.955V34.485a6.4,6.4,0,0,1,1.112-4.069,4.4,4.4,0,0,1,6.4-.013,6.273,6.273,0,0,1,1.134,3.951Zm-2.54-2.59a4.686,4.686,0,0,0-.435-2.318,1.47,1.47,0,0,0-1.358-.726,1.444,1.444,0,0,0-1.323.691,4.385,4.385,0,0,0-.453,2.16V37.04a4.919,4.919,0,0,0,.426,2.327,1.451,1.451,0,0,0,1.367.761,1.426,1.426,0,0,0,1.345-.73,4.8,4.8,0,0,0,.431-2.235Zm12.867,2.59a6.483,6.483,0,0,1-1.1,4.061,4.39,4.39,0,0,1-6.416.026,6.293,6.293,0,0,1-1.134-3.955V34.485a6.4,6.4,0,0,1,1.112-4.069,4.4,4.4,0,0,1,6.4-.013,6.273,6.273,0,0,1,1.134,3.951Zm-2.54-2.59a4.686,4.686,0,0,0-.435-2.318,1.47,1.47,0,0,0-1.358-.726,1.444,1.444,0,0,0-1.323.691,4.385,4.385,0,0,0-.453,2.16V37.04a4.919,4.919,0,0,0,.426,2.327,1.451,1.451,0,0,0,1.367.761,1.426,1.426,0,0,0,1.345-.73,4.8,4.8,0,0,0,.431-2.235Zm11.769,3.064h1.45v2.048h-1.45V42h-2.54V39.231h-5.247l-.114-1.6,5.335-8.429h2.566Zm-5.37,0h2.83V32.666l-.167.29Z" transform="translate(1205.207 2217.372)" fill="#12263f"/>
  </g>
</svg>
