<svg xmlns="http://www.w3.org/2000/svg" xmlns:xlink="http://www.w3.org/1999/xlink" width="568.216" height="449" viewBox="0 0 568.216 449">
  <defs>
    <clipPath id="clip-path">
      <path id="Trazado_684731" data-name="Trazado 684731" d="M138.465,293.336s-67.1-10.1-84.18-67.764-23.233-92.939,5.05-116.212,33.335-18.222,56.9-38.425S166.7,21.776,220.6,29.521s74.434,35.354,86.218,64.648.674,59.726-10.438,78.854-17.172,37.311-19.193,58.86S244.194,300.917,138.465,293.336Z" transform="translate(-39.797 -28.236)" fill="#98d1b9"/>
    </clipPath>
    <clipPath id="clip-path-3">
      <path id="Trazado_684743" data-name="Trazado 684743" d="M138.465,293.336s-67.1-10.1-84.18-67.764-23.233-92.939,5.05-116.212,33.335-18.222,56.9-38.425S166.7,21.776,220.6,29.521s74.434,35.354,86.218,64.648.674,59.726-10.438,78.854-17.172,37.311-19.193,58.86S244.194,300.917,138.465,293.336Z" transform="translate(-39.797 -28.236)" fill="none"/>
    </clipPath>
  </defs>
  <g id="Grupo_983758" data-name="Grupo 983758" transform="translate(-518.216 -2780)">
    <path id="Trazado_725145" data-name="Trazado 725145" d="M190.313,432.643S87.95,417.236,61.9,329.27,26.456,187.492,69.6,151.989s44.319-31.269,80.274-62.087S233.39,18.381,315.606,30.2s113.548,53.932,131.525,98.62,1.028,91.111-15.923,120.291-26.2,56.917-29.278,89.79S351.6,444.207,190.313,432.643Z" transform="translate(542.152 2778.123)" fill="#bff2dd"/>
    <g id="Grupo_946416" data-name="Grupo 946416" transform="translate(653.432 2871)">
      <path id="Trazado_684726" data-name="Trazado 684726" d="M138.465,293.29s-67.1-10.1-84.18-67.764-23.233-92.939,5.05-116.212,29.052-20.5,52.622-40.7S166.7,21.73,220.6,29.474s74.434,35.354,86.218,64.648.674,59.726-10.438,78.854-17.172,37.311-19.193,58.86S244.194,300.871,138.465,293.29Z" transform="translate(-39.797 -28.103)" fill="#f0faf6"/>
      <g id="Grupo_946367" data-name="Grupo 946367" transform="translate(0 0.087)">
        <g id="Grupo_946366" data-name="Grupo 946366" clip-path="url(#clip-path)">
          <g id="Grupo_946365" data-name="Grupo 946365" transform="translate(-6.845 17.11)">
            <path id="Trazado_684727" data-name="Trazado 684727" d="M29.3,275.893s44-11.224,82.157-10.326,124.807,13.02,187.21-5.836c0,0-14.815,83.054-35.018,96.523S162.64,402.5,94.849,371.069,29.3,275.893,29.3,275.893Z" transform="translate(-29.295 -125.945)" fill="#98d1b9"/>
            <path id="Trazado_684728" data-name="Trazado 684728" d="M95.427,99.379s30.079-8.53,76.32-8.53S274.556,80.973,313.165,60.77l-8.979-6.285S268.91,78.2,218.887,82.769,121.466,88.156,95.427,99.379Z" transform="translate(-52.32 -54.485)" fill="#98d1b9"/>
            <path id="Trazado_684729" data-name="Trazado 684729" d="M34.818,166.581s64.648-23.794,104.155-21.55S250.76,151.317,317.2,133.808l-4.939-4.939s-34.569,13.469-94.278,14.815-65.1-4.041-104.6-.9S34.818,166.581,34.818,166.581Z" transform="translate(-31.218 -80.383)" fill="#98d1b9"/>
            <path id="Trazado_684730" data-name="Trazado 684730" d="M31.555,198.3s38.982-23.055,83.856-13.73S237.5,197.482,316.517,155.73l5.387,10.826s-82.606,44.282-186.312,26.6C135.592,193.161,87.343,177.111,31.555,198.3Z" transform="translate(-30.082 -89.735)" fill="#98d1b9"/>
          </g>
        </g>
      </g>
      <g id="Grupo_946368" data-name="Grupo 946368" transform="translate(76.701 106.614)">
        <path id="Trazado_684732" data-name="Trazado 684732" d="M248.745,195.571c-1.788-.093-3.458-.838-5.211-1.166-1.626-.3-3.254-.613-4.891-.834-.7-.095-1.384-.3-2.085-.37a14.462,14.462,0,0,0-2.511.214c-1.419.1-2.826.01-4.244-.02-1.554-1.151-4.18-.69-5.934-.686a34.29,34.29,0,0,1-3.932-.452,12.436,12.436,0,0,0-3.83.474,12.634,12.634,0,0,1-2.306.487,12.179,12.179,0,0,1-2.248-.338,21.463,21.463,0,0,0-2.886-.237,35.878,35.878,0,0,0-4.325.155c-1.339.132-2.731.611-4.054.662-1.25.048-2.3-.728-3.522-.878a16.184,16.184,0,0,0-4.142.168c-1.3.175-2.56.582-3.856.737-1.616.194-3.306-.347-4.953-.276a18.109,18.109,0,0,0-3.631.624c-.523.134-1.058.381-1.581.482-.754.145-.748-.11-1.2-.527a7.5,7.5,0,0,0-4.895-2.076c-2.507-.147-4.546-.059-6.452,1.633-.426.378.348.04-.52.364-.389.145-.512.035-.883.284a1.728,1.728,0,0,0-.834,1.45,3.2,3.2,0,0,0-2.362.615c-.211.154-.4.473-.591.594a6.212,6.212,0,0,1-1.62.422c-1.081.342-2.643,1.884-1.2,2.825a.315.315,0,0,0,.115.046.3.3,0,0,0,.281.169,10.59,10.59,0,0,0,3.479-.2,6.5,6.5,0,0,0,1.1-.27c1.069-.572.431-1.15,2.173-.88a20.164,20.164,0,0,1,3.054.3c1.225.418,2.109,1.019,3.5.891a4.827,4.827,0,0,0,1.5-.4,5.582,5.582,0,0,1,2.75-.6,7.379,7.379,0,0,0,3.814-.484,11.765,11.765,0,0,1,1.957-.794,13.982,13.982,0,0,1,3.156-.247c1.68-.011,3.328.009,5-.126,1.438-.116,2.843-.1,4.279-.323,2.07-.315,4.359-.892,6.4-.278a19.863,19.863,0,0,0,3.417.564,26.927,26.927,0,0,0,5.574-.329,22.5,22.5,0,0,0,4.243-.948,28.858,28.858,0,0,1,4.388-.675,40.865,40.865,0,0,1,4.38.272,51.87,51.87,0,0,0,5.319.093,25.515,25.515,0,0,1,5.535.042c.835.092,1.695-.074,2.518.026.8.1,1.44.588,2.233.679,1.744.2,3.542-.463,5.3-.344.866.059,1.648.448,2.508.5a21.266,21.266,0,0,0,2.736-.331A.337.337,0,0,0,248.745,195.571Z" transform="translate(-157.467 -191.664)" fill="#317156"/>
        <path id="Trazado_684733" data-name="Trazado 684733" d="M158.1,275.317V203.935l5.051-.337,2.694,71.382Z" transform="translate(-157.688 -195.819)" fill="#317156"/>
      </g>
      <g id="Grupo_946369" data-name="Grupo 946369" transform="translate(12.192 117.422)">
        <path id="Trazado_684734" data-name="Trazado 684734" d="M110.926,209.265a5.528,5.528,0,0,0-2.457.026c-1.579.057-3.133.325-4.719.269-1.274-.046-2.437-.64-3.715-.7-.57-.025-1.176.108-1.748.129a6.757,6.757,0,0,1-1.765.059c-.126-.048-.307-.309-.479-.382a1.872,1.872,0,0,0-.653-.089,11.9,11.9,0,0,0-3.674.514c-.474.13-.825.364-1.261.521-.574.208-.32.14-.845-.136a5.558,5.558,0,0,0-2.814-.336c-1.177.036-2.375.093-3.543.235-.942.115-1.88-.7-2.907-.779a15.563,15.563,0,0,0-2.107-.027c-.535.033-1.062.312-1.562.345-.683.046-.842-.386-1.364-.572a4.72,4.72,0,0,0-1.74-.04,16.752,16.752,0,0,0-3.54.714c-.881.236-1.142-.233-2.005-.372-1.244-.2-4.163-.117-4.281,1.621-.016.24.27.788.215.949-.043.125-.679.266-.8.3a10.438,10.438,0,0,0-2.07.59c-.35.207-.23.266-.561.574-.617.576-1.47.407-1.789,1.338a1.469,1.469,0,0,0-.087.447.28.28,0,0,0,.194.471h.021a.773.773,0,0,0,.272.127.255.255,0,0,0,.289-.106c1.285.065,2.824.2,3.8-.528.35-.259.57-.581.927-.844a3.368,3.368,0,0,1,1.857-.346c1.963-.184,3.938-.15,5.9-.387.828-.1,1.643-.286,2.466-.4a27.159,27.159,0,0,1,2.8-.16c2.062-.067,3.831.868,5.908.681a7.935,7.935,0,0,1,3.713.356,6.691,6.691,0,0,0,2.335.376,7.817,7.817,0,0,0,2.638-.364c1.019-.362,1.766-1.248,2.8-1.527a22.364,22.364,0,0,1,5.991-.469,51.878,51.878,0,0,0,6.208-.461c1.021-.123,2.027-.468,3.03-.69.405-.09,1.159-.1,1.239-.624A.283.283,0,0,0,110.926,209.265Z" transform="translate(-58.531 -208.245)" fill="#458b6e"/>
        <path id="Trazado_684735" data-name="Trazado 684735" d="M58.5,276.613v-58.46l4.136-.276,2.206,58.46Z" transform="translate(-58.5 -211.599)" fill="#458b6e"/>
      </g>
      <path id="Trazado_684736" data-name="Trazado 684736" d="M166.439,79.963c-.37-3.06-4.073-4.582-6.727-4.849a12.736,12.736,0,0,0-5.179.787c-1.175.349-1.583-.2-2.577-.839a12.416,12.416,0,0,0-2.383-1.229c-2.436-.9-5.535-.5-6.878,1.893a1.714,1.714,0,0,0-2.04-.015,4.274,4.274,0,0,0-3.064-1.6c-.54-.033-1.278.278-1.759.092-.463-.18-1.089-1.1-1.56-1.424a8.22,8.22,0,0,0-8.246-.565,6.918,6.918,0,0,0-11.693-.287,7.013,7.013,0,0,0-10.763,7.95,3.616,3.616,0,0,0-2.172.235c-.924.375-.589.257-1.575-.148a4.211,4.211,0,0,0-4.443.836A6.75,6.75,0,0,0,82.4,84.355a2.558,2.558,0,0,0-3.07,2.433,1.942,1.942,0,0,0-2.278,1.572,4.278,4.278,0,1,0-4.344,7.37.287.287,0,0,0,.373-.03c2.57,2.05,6.746.629,9.564-.268,1.31-.417,2.792-1.243,4.172-1.121a7.426,7.426,0,0,0,2.28.024,5.508,5.508,0,0,0,3.735-2.742,10.061,10.061,0,0,0,11.506-.348,4.7,4.7,0,0,0,1.39,3.472,2.62,2.62,0,0,0,3.069.235c.5-.37.568-.823.828-1.355.656-1.346,1.524-1.523,2.394-2.476a2.033,2.033,0,0,0,.553-1.867,8.891,8.891,0,0,0,9.128-4.408,10.806,10.806,0,0,0,15.581,2.092,5.6,5.6,0,0,0,8.4,2.861,7.79,7.79,0,0,1,.814-.669,2.775,2.775,0,0,1,1.416-.089,7.095,7.095,0,0,0,6.253-3.625c1.827,1.284,4.2,2.5,6.427,1.566a3.733,3.733,0,0,0,2.392-3.766C164.8,83.754,166.671,81.883,166.439,79.963Z" transform="translate(-50.522 -42.289)" fill="#77af97"/>
      <path id="Trazado_684737" data-name="Trazado 684737" d="M241.327,68.995a6.565,6.565,0,0,0-5.194.452,4.75,4.75,0,0,0-1.145.92,10.507,10.507,0,0,0-5.1-1.459,15.152,15.152,0,0,0-10.4,4.037c-.012,0-.028-.006-.04-.011a22.192,22.192,0,0,1-2.8-2.055,16.141,16.141,0,0,0-3.566-1.816,9.061,9.061,0,0,0-6.433.035,3.255,3.255,0,0,1-1.53.527,12.731,12.731,0,0,1-1.577-.494,9.662,9.662,0,0,0-3.382.036c-.76.113-.755.183-1.21-.524a10.872,10.872,0,0,0-.716-.988,11.428,11.428,0,0,0-2.216-2.062,12.1,12.1,0,0,0-5.631-2.167,11.008,11.008,0,0,0-3.028.064,2.345,2.345,0,0,1-1.667-.08c-.468-.213-.9-.493-1.39-.666a7.481,7.481,0,0,0-5.927.436c-1.193.637-1.7-.106-2.9-.435a6.959,6.959,0,0,0-2.816-.171c-.835.118-1.927.86-2.6.417-.9-.6-1.6-1.649-2.523-2.3a13.919,13.919,0,0,0-13.719-1.364,14.2,14.2,0,0,0-7.9,10.968,3.534,3.534,0,0,0-5.219,3.594,3.22,3.22,0,0,0-2.942,1.723,7.764,7.764,0,0,0-13.4,6.729,2.3,2.3,0,0,0-1.939,3.818,2.173,2.173,0,0,0-1.246,3.388.351.351,0,0,0,0,.037c.577,2.731,3.343,3.76,5.885,3.329a12.1,12.1,0,0,0,7.234-4.561,3.563,3.563,0,0,0,3.787-.151,2.513,2.513,0,0,0,2.824,1.673c.56-.1,1.048-.7,1.555-.721.252-.01.956.512,1.22.617a7.774,7.774,0,0,0,1.223.37,8.529,8.529,0,0,0,8.239-2.76c1.151,3.837,5.981,5.056,9.513,3.834a9.786,9.786,0,0,0,2.89-1.589,3.151,3.151,0,0,1,1.881-.93c.516-.068,1.03-.061,1.546-.157a9.315,9.315,0,0,0,4.488-2.207c.546-.49.506-.746,1.112-.479.481.212,1.014.978,1.413,1.334.552.493,1.121.967,1.711,1.413a18.3,18.3,0,0,0,3.343,2.049,11.735,11.735,0,0,0,6.456,1.091,9.62,9.62,0,0,0,3.139-.946,8.046,8.046,0,0,0,1.213-.762c.4-.306.868-1.046,1.29-1.25.591-.284,1.458.024,2.16-.206a3.23,3.23,0,0,0,1.548-1.122,4.827,4.827,0,0,0,4.7.763,7.789,7.789,0,0,0,6.979,6.873c4.384.436,8.227-2.189,11.015-5.315.64-.718,1.242-1.47,1.828-2.233.92-1.2,1.059-.956,2.417-.774a10.917,10.917,0,0,0,5.243-.625,11.177,11.177,0,0,0,6.6-6.448c2.893,1.9,7.28,1.147,8.933-2.073A6.3,6.3,0,0,0,241.327,68.995Z" transform="translate(-67.984 -38.553)" fill="#98d1b9"/>
      <path id="Trazado_684738" data-name="Trazado 684738" d="M146.314,233.3l-.842-12.643-19.51,1.115-7.117-113.753-9.2.22.6,87.336h0l-6.864,6.722v13.884l-15.994.327-1.347,51.869,73.6-4.2V232.4Z" transform="translate(-55.898 -55.928)" fill="#458b6e"/>
      <g id="Grupo_946372" data-name="Grupo 946372" transform="translate(0 0.087)">
        <g id="Grupo_946371" data-name="Grupo 946371" clip-path="url(#clip-path)">
          <g id="Grupo_946370" data-name="Grupo 946370" transform="translate(215.168 32.952)">
            <path id="Trazado_684739" data-name="Trazado 684739" d="M448.243,119.582a14.411,14.411,0,0,0-10.068-11.344c4.58-8.2,2.742-19.58-4.677-25.43-7.445-5.871-19.845-5.468-26,2.255-2.605,3.27-3.171,8.769.415,11.232a4.3,4.3,0,0,0-3.013,6.638,6.382,6.382,0,0,0-2.714,3.331,6.621,6.621,0,0,0-.392,2.3c.016,1.1.464,1.439-.589,2.054a19.766,19.766,0,0,0-7.725,8.428,20.137,20.137,0,0,0,3.194,21.92,5.651,5.651,0,0,0-1.068,8.717,5.852,5.852,0,0,0-1.328,8.711.28.28,0,0,0,.139.141l.022.01a.258.258,0,0,0,.053.024c6.414,3.007,13.576,4.4,20.554,2.858a22.912,22.912,0,0,0,9.519-4.258c1.469-1.228,2.375-3.4,1.038-4.921l2.626-1.105a.346.346,0,0,0,.242-.325l-.137-2.522a5.917,5.917,0,0,0,6.313-4.978,6.44,6.44,0,0,0,8.336-1.428,6.825,6.825,0,0,0-.4-8.465A14.71,14.71,0,0,0,448.243,119.582Z" transform="translate(-377.442 -78.788)" fill="#98d1b9"/>
            <path id="Trazado_684740" data-name="Trazado 684740" d="M369.894,280.631s15.153-28.535,16.031-81.51h31.4s-.421,63.439,10.9,81.51Z" transform="translate(-369.894 -120.684)" fill="#98d1b9"/>
          </g>
        </g>
      </g>
      <g id="Grupo_946374" data-name="Grupo 946374" transform="translate(0 0.087)">
        <g id="Grupo_946373" data-name="Grupo 946373" clip-path="url(#clip-path-3)">
          <path id="Trazado_684742" data-name="Trazado 684742" d="M245.134,272.894v-17.82l-15.04-1.122,1.571-39.283-39.36-3.774-4.459,63.2-75,4.1V265.311l-38.28,1.346L72.646,246.7l-14.892.486-21.622.706-3.29,80.19,150.786,5.783H286.886l4.49-57.724Z" transform="translate(-37.375 -91.832)" fill="#317156"/>
        </g>
      </g>
      <path id="Trazado_684744" data-name="Trazado 684744" d="M82,109.1H72.8L71.06,211.742l14.892-.486Z" transform="translate(-50.682 -56.303)" fill="#317156"/>
      <g id="Grupo_946376" data-name="Grupo 946376" transform="translate(0 0.087)">
        <g id="Grupo_946375" data-name="Grupo 946375" clip-path="url(#clip-path-3)">
          <path id="Trazado_684745" data-name="Trazado 684745" d="M254.12,329.583l-2.244,18.092-107.219,4.517L143.9,341.1l-44.446,4.666L97.412,316.9l-47.786,1.8L51.2,387.512l95.764-1.376s135.7-2.318,137.141-4.128,3.45-52.425,3.45-52.425Z" transform="translate(-43.219 -128.738)" fill="#204636"/>
        </g>
      </g>
      <g id="Grupo_946407" data-name="Grupo 946407" transform="translate(0 0.087)">
        <g id="Grupo_946406" data-name="Grupo 946406" clip-path="url(#clip-path-3)">
          <g id="Grupo_946405" data-name="Grupo 946405" transform="translate(-9.605 165.378)">
            <g id="Grupo_946377" data-name="Grupo 946377" transform="translate(0 0)">
              <rect id="Rectángulo_337541" data-name="Rectángulo 337541" width="120.075" height="0.673" transform="translate(0 9.745) rotate(-4.655)" fill="#635b6a"/>
            </g>
            <g id="Grupo_946378" data-name="Grupo 946378" transform="translate(0.908 11.215)">
              <rect id="Rectángulo_337542" data-name="Rectángulo 337542" width="120.075" height="0.673" transform="translate(0 9.745) rotate(-4.655)" fill="#635b6a"/>
            </g>
            <g id="Grupo_946379" data-name="Grupo 946379" transform="translate(3.493 9.715)">
              <rect id="Rectángulo_337543" data-name="Rectángulo 337543" width="0.674" height="11.252" transform="translate(0 0.054) rotate(-4.626)" fill="#635b6a"/>
            </g>
            <g id="Grupo_946380" data-name="Grupo 946380" transform="translate(20.497 8.34)">
              <rect id="Rectángulo_337544" data-name="Rectángulo 337544" width="0.674" height="11.252" transform="translate(0 0.054) rotate(-4.626)" fill="#635b6a"/>
            </g>
            <g id="Grupo_946381" data-name="Grupo 946381" transform="translate(37.501 6.964)">
              <rect id="Rectángulo_337545" data-name="Rectángulo 337545" width="0.674" height="11.251" transform="translate(0 0.054) rotate(-4.627)" fill="#635b6a"/>
            </g>
            <g id="Grupo_946382" data-name="Grupo 946382" transform="translate(54.506 5.588)">
              <rect id="Rectángulo_337546" data-name="Rectángulo 337546" width="0.674" height="11.251" transform="translate(0 0.054) rotate(-4.627)" fill="#635b6a"/>
            </g>
            <g id="Grupo_946383" data-name="Grupo 946383" transform="translate(71.51 4.212)">
              <rect id="Rectángulo_337547" data-name="Rectángulo 337547" width="0.674" height="11.252" transform="matrix(0.997, -0.081, 0.081, 0.997, 0, 0.054)" fill="#635b6a"/>
            </g>
            <g id="Grupo_946384" data-name="Grupo 946384" transform="translate(88.514 2.836)">
              <rect id="Rectángulo_337548" data-name="Rectángulo 337548" width="0.674" height="11.252" transform="matrix(0.997, -0.081, 0.081, 0.997, 0, 0.054)" fill="#635b6a"/>
            </g>
            <g id="Grupo_946385" data-name="Grupo 946385" transform="translate(105.519 1.46)">
              <rect id="Rectángulo_337549" data-name="Rectángulo 337549" width="0.674" height="11.251" transform="translate(0 0.054) rotate(-4.625)" fill="#635b6a"/>
            </g>
            <g id="Grupo_946386" data-name="Grupo 946386" transform="translate(3.666 9.447)">
              <rect id="Rectángulo_337550" data-name="Rectángulo 337550" width="0.674" height="20.436" transform="translate(0 0.59) rotate(-61.218)" fill="#635b6a"/>
            </g>
            <g id="Grupo_946387" data-name="Grupo 946387" transform="translate(4.531 8.099)">
              <rect id="Rectángulo_337551" data-name="Rectángulo 337551" width="20.436" height="0.673" transform="translate(0 12.597) rotate(-38.055)" fill="#635b6a"/>
            </g>
            <g id="Grupo_946388" data-name="Grupo 946388" transform="translate(20.671 8.071)">
              <rect id="Rectángulo_337552" data-name="Rectángulo 337552" width="0.674" height="20.436" transform="translate(0 0.59) rotate(-61.22)" fill="#635b6a"/>
            </g>
            <g id="Grupo_946389" data-name="Grupo 946389" transform="translate(21.536 6.722)">
              <rect id="Rectángulo_337553" data-name="Rectángulo 337553" width="20.436" height="0.673" transform="matrix(0.787, -0.616, 0.616, 0.787, 0, 12.598)" fill="#635b6a"/>
            </g>
            <g id="Grupo_946390" data-name="Grupo 946390" transform="translate(37.675 6.696)">
              <rect id="Rectángulo_337554" data-name="Rectángulo 337554" width="0.674" height="20.436" transform="matrix(0.481, -0.876, 0.876, 0.481, 0, 0.59)" fill="#635b6a"/>
            </g>
            <g id="Grupo_946391" data-name="Grupo 946391" transform="translate(38.54 5.347)">
              <rect id="Rectángulo_337555" data-name="Rectángulo 337555" width="20.436" height="0.673" transform="translate(0 12.597) rotate(-38.055)" fill="#635b6a"/>
            </g>
            <g id="Grupo_946392" data-name="Grupo 946392" transform="translate(54.679 5.32)">
              <rect id="Rectángulo_337556" data-name="Rectángulo 337556" width="0.674" height="20.436" transform="translate(0 0.59) rotate(-61.22)" fill="#635b6a"/>
            </g>
            <g id="Grupo_946393" data-name="Grupo 946393" transform="translate(55.544 3.971)">
              <rect id="Rectángulo_337557" data-name="Rectángulo 337557" width="20.436" height="0.673" transform="translate(0 12.597) rotate(-38.055)" fill="#635b6a"/>
            </g>
            <g id="Grupo_946394" data-name="Grupo 946394" transform="translate(71.684 3.944)">
              <rect id="Rectángulo_337558" data-name="Rectángulo 337558" width="0.674" height="20.437" transform="translate(0 0.59) rotate(-61.219)" fill="#635b6a"/>
            </g>
            <g id="Grupo_946395" data-name="Grupo 946395" transform="translate(72.548 2.595)">
              <rect id="Rectángulo_337559" data-name="Rectángulo 337559" width="20.436" height="0.673" transform="translate(0 12.597) rotate(-38.055)" fill="#635b6a"/>
            </g>
            <g id="Grupo_946396" data-name="Grupo 946396" transform="translate(88.688 2.568)">
              <rect id="Rectángulo_337560" data-name="Rectángulo 337560" width="0.674" height="20.436" transform="translate(0 0.59) rotate(-61.22)" fill="#635b6a"/>
            </g>
            <g id="Grupo_946397" data-name="Grupo 946397" transform="translate(89.554 1.218)">
              <rect id="Rectángulo_337561" data-name="Rectángulo 337561" width="20.436" height="0.673" transform="translate(0 12.6) rotate(-38.063)" fill="#635b6a"/>
            </g>
            <g id="Grupo_946398" data-name="Grupo 946398" transform="translate(4.233 20.917)">
              <rect id="Rectángulo_337562" data-name="Rectángulo 337562" width="1.01" height="75.395" transform="matrix(0.997, -0.081, 0.081, 0.997, 0, 0.081)" fill="#635b6a"/>
            </g>
            <g id="Grupo_946399" data-name="Grupo 946399" transform="translate(21.237 19.541)">
              <rect id="Rectángulo_337563" data-name="Rectángulo 337563" width="1.01" height="75.395" transform="translate(0 0.081) rotate(-4.626)" fill="#635b6a"/>
            </g>
            <g id="Grupo_946400" data-name="Grupo 946400" transform="translate(38.241 18.165)">
              <rect id="Rectángulo_337564" data-name="Rectángulo 337564" width="1.01" height="75.395" transform="translate(0 0.081) rotate(-4.626)" fill="#635b6a"/>
            </g>
            <g id="Grupo_946401" data-name="Grupo 946401" transform="translate(55.246 16.789)">
              <rect id="Rectángulo_337565" data-name="Rectángulo 337565" width="1.01" height="75.395" transform="translate(0 0.081) rotate(-4.626)" fill="#635b6a"/>
            </g>
            <g id="Grupo_946402" data-name="Grupo 946402" transform="translate(72.25 15.413)">
              <rect id="Rectángulo_337566" data-name="Rectángulo 337566" width="1.01" height="75.395" transform="translate(0 0.081) rotate(-4.626)" fill="#635b6a"/>
            </g>
            <g id="Grupo_946403" data-name="Grupo 946403" transform="translate(89.254 14.038)">
              <rect id="Rectángulo_337567" data-name="Rectángulo 337567" width="1.01" height="75.394" transform="translate(0 0.081) rotate(-4.626)" fill="#635b6a"/>
            </g>
            <g id="Grupo_946404" data-name="Grupo 946404" transform="translate(106.258 12.661)">
              <rect id="Rectángulo_337568" data-name="Rectángulo 337568" width="1.01" height="75.395" transform="translate(0 0.081) rotate(-4.626)" fill="#635b6a"/>
            </g>
          </g>
        </g>
      </g>
      <g id="Grupo_946410" data-name="Grupo 946410" transform="translate(0 0.087)">
        <g id="Grupo_946409" data-name="Grupo 946409" clip-path="url(#clip-path-3)">
          <g id="Grupo_946408" data-name="Grupo 946408" transform="translate(-6.459 218.638)">
            <path id="Trazado_684748" data-name="Trazado 684748" d="M38.04,364.042s21.886,15.152,79.295,9.091S264,357.243,287.217,369.565l-2.37,6.342s-37.717-6.724-97.985,2.827S79.118,399.06,46.289,390.978s-6.229-27.322-6.229-27.322Z" transform="translate(-29.887 -363.656)" fill="#122b20"/>
            <path id="Trazado_684749" data-name="Trazado 684749" d="M284.9,399.673s-36.993-5.689-73.044-1.087-99.522,16.742-126.261,16.742S78.7,438.879,78.7,438.879s143.821-.337,160.025-3.03S284.9,399.673,284.9,399.673Z" transform="translate(-44.415 -375.192)" fill="#122b20"/>
          </g>
        </g>
      </g>
      <g id="Grupo_946413" data-name="Grupo 946413" transform="translate(0 0.087)">
        <g id="Grupo_946412" data-name="Grupo 946412" clip-path="url(#clip-path-3)">
          <g id="Grupo_946411" data-name="Grupo 946411" transform="translate(65.757 73.658)">
            <path id="Trazado_684751" data-name="Trazado 684751" d="M230.421,150.909s14.513-14.366,30.675-8.081,18.554,28.327,18.709,33.939,1.235,12.488.9,20.233-6.369,24.618-6.552,32.251,8.572,29.405,8.123,39.171c0,0,6.638,35.855-21.934,46.492,0,0,6.221-17.886-1.86-33.592s-27.279-48.7-21.945-66.437S235.247,163.58,230.421,150.909Z" transform="translate(-171.923 -141.236)" fill="#8b6748"/>
            <path id="Trazado_684752" data-name="Trazado 684752" d="M269.214,168.337c-1.6,6.005-9.677,9.066-18.036,6.835s-13.834-8.907-12.232-14.913,9.678-9.065,18.036-6.834S270.817,162.331,269.214,168.337Z" transform="translate(-174.795 -145.226)" fill="#fff2f2"/>
            <path id="Trazado_684753" data-name="Trazado 684753" d="M284.508,221.032s-4.119,22.644-5.971,27.694-4.194,16.5-3.107,23.907S279.6,289,277.806,289.654s-20.3,4.06-22.832-2.019-3.877-9.783-2.025-19.885,1.7-14.806,7.239-22.222,9.294-13.278,13.34-17.21S284.508,221.032,284.508,221.032Z" transform="translate(-179.466 -169.019)" fill="#77583d"/>
            <path id="Trazado_684754" data-name="Trazado 684754" d="M261.876,142.827c-13.116-5.1-25.146,3.4-29.214,6.785l4.477,1.177s7.081-7.961,17.407-7.737a34.456,34.456,0,0,1,13.72,3.575A22.71,22.71,0,0,0,261.876,142.827Z" transform="translate(-172.703 -141.236)" fill="#a27854"/>
            <path id="Trazado_684755" data-name="Trazado 684755" d="M284.913,239.363s3.142-3.03,5.724-1.01,2.694,9.54,0,13.356a17.25,17.25,0,0,1-7.183,5.5Z" transform="translate(-190.388 -174.808)" fill="#ffd2c6"/>
            <path id="Trazado_684756" data-name="Trazado 684756" d="M187.972,238.782s-5.051-4.938-7.183-1.684-.561,10.663.785,13.356,7.632,5.387,7.632,5.387Z" transform="translate(-154.278 -174.226)" fill="#ffd2c6"/>
            <path id="Trazado_684757" data-name="Trazado 684757" d="M199.407,249.619s-6.65-10.27-7.66-21.718-.252-20.358-.589-28.957,9.6-26.936,30.809-26.6,31.819,20.048,32.324,32.079c0,0-.336,10.01,0,12.535s-3.367,33.671-18.519,38.722S205.3,256.858,199.407,249.619Z" transform="translate(-158.25 -152.065)" fill="#ffd2c6"/>
            <ellipse id="Elipse_5439" data-name="Elipse 5439" cx="3.968" cy="6.471" rx="3.968" ry="6.471" transform="translate(74.812 68.653) rotate(-81.411)" fill="#ffb5b5"/>
            <path id="Trazado_684758" data-name="Trazado 684758" d="M216.072,239.78c.521,2.128-1.968,4.567-5.56,5.447s-6.926-.134-7.447-2.262,1.968-4.567,5.56-5.447S215.55,237.651,216.072,239.78Z" transform="translate(-162.374 -174.648)" fill="#ffb5b5"/>
            <path id="Trazado_684759" data-name="Trazado 684759" d="M190.9,248.824s10.1-6.9,28.789-9.26,34.681,7.576,34.681,7.576S252.016,269.7,239.9,279.3s-30.472,4.041-37.879-1.515S191.241,256.063,190.9,248.824Z" transform="translate(-158.165 -175.345)" fill="#f1e5e5"/>
            <path id="Trazado_684760" data-name="Trazado 684760" d="M191.221,252.349a66.668,66.668,0,0,1,31.525-10.272c14.215-.679,26.466,5.345,31.395,8.182.028-.177.054-.34.078-.5-5.08-2.9-17.322-8.832-31.5-8.156a67.207,67.207,0,0,0-31.561,10.218C191.181,252,191.2,252.173,191.221,252.349Z" transform="translate(-158.255 -176.164)" fill="#d8cdcd"/>
            <path id="Trazado_684761" data-name="Trazado 684761" d="M260.194,268.187c-1.493,1.224-6.2,6.439-10.027,8.347s-15.7,4.264-15.7,4.264-7.071-4.152-1.235-6.734,5.469-6.622,5.469-6.622-11.417,1.122-14.778,3.457-3.15,4.064-4.5,9.451c-1.131,4.524-2.564,6.761-.54,11.111,8.847,3.415,21.353,4.689,30.395-2.469,6.746-5.34,10.465-14.693,12.44-21.94C261.16,267.444,260.615,267.842,260.194,268.187Z" transform="translate(-167.554 -185.041)" fill="#d8cdcd"/>
            <path id="Trazado_684762" data-name="Trazado 684762" d="M239.535,299.97s-1.515,10.438-1.01,11.616,24.916,3.03,24.916,3.03-4.041,12.829-14.478,15.337-27.6,7.267-39.395,3.171-19.7-19.854-19.7-19.854l22.055-3.669-1.01-11.017Z" transform="translate(-157.805 -196.02)" fill="#ffd2c6"/>
            <path id="Trazado_684763" data-name="Trazado 684763" d="M232.3,318.409c3.8-.8,9.815-3.154,14.682-5.219-4.521-.509-8.258-1.062-8.452-1.516-.505-1.178,1.01-11.616,1.01-11.616l-25.259-1.223c-1.09.068-2.2.122-3.331.166l.98,10.688-22.055,3.669s5.676,11.307,14.58,17.255c2.452-.312,4.107-.571,4.107-.571a50.387,50.387,0,0,1,7.576-6.245C219.5,321.775,225.057,319.923,232.3,318.409Z" transform="translate(-157.805 -196.107)" fill="#f1b4a7"/>
            <path id="Trazado_684764" data-name="Trazado 684764" d="M172.743,321.115s-20.876,5.752-25.59,12.389-9.26,33.317-4.378,52.384,71.888,16.284,90.743,12.288,42.593-12.537,42.593-12.537,2.021-42.471-2.357-50.476c0,0-6.4-9.5-27.441-12.7,0,0-16.008,16.037-42.425,14.066C182.676,334.946,172.743,321.115,172.743,321.115Z" transform="translate(-140.677 -203.864)" fill="#4a62c2"/>
            <path id="Trazado_684765" data-name="Trazado 684765" d="M177.089,338.14c-2.862,4.907-11.617,23.039-15.489,32.449-2.126,5.165-4.4,16.968-6.025,26.569,7.793,4.067,20.443,6.067,33.758,6.787.246-10.7.857-33.177,1.785-40.842,1.235-10.2,8.332-24.744,8.332-24.744-.01-.113-.033-.224-.051-.336a44.666,44.666,0,0,1-15.366-7.733A37.521,37.521,0,0,0,177.089,338.14Z" transform="translate(-145.864 -207.059)" fill="#364ca6"/>
            <path id="Trazado_684766" data-name="Trazado 684766" d="M321.893,408.095c-.836-7.3-3.451-22.426-11.406-35.374,0,0,4.882,14.961,5.556,23.658a118.373,118.373,0,0,1,.192,13.486C318.218,409.259,320.113,408.664,321.893,408.095Z" transform="translate(-199.8 -221.832)" fill="#364ca6"/>
            <path id="Trazado_684767" data-name="Trazado 684767" d="M211.364,250.1a3.352,3.352,0,0,0-3.865-.388c-.056.1-.119.216-.183.329h0a80.321,80.321,0,0,1-5.686,9.446,67.635,67.635,0,0,1-4.862,6.637l-.012.019.01-.017c-.3.315-.453.4-.5.339-.156-.216,1.984-4.067,1.984-4.067a108.382,108.382,0,0,0,6.408-13.246h0c.108-.5.116-.836,0-.961-.947-.99-1.935-1.491-2.817-.984s-2.82,3.5-6.806,10.8-9.361,15.177-9.361,15.177-3.758.138-.049-5.9c2.087-3.4,2.278-6.927,1.175-8-1.914-1.856-2.279-.77-2.279-.77-2.278,4.719-6.491,8.578-7.657,12.7-3.031,10.721,1.611,4.223-3.1,18.589S146.6,365.45,146.6,365.45c.364,5.051,23.542,16.414,27.413,5.724s7.66-36.954,12.29-52.779,20.385-33.017,23.376-36.465,11.479-18.182,10.28-20.7-2.68-.885-2.68-.885a136.655,136.655,0,0,1-8.626,10.733,9.9,9.9,0,0,1-1.886,1.63l-.048.056.039-.052c-.729.39-.383-.505-.383-.505l1.955-2.88a55.151,55.151,0,0,0,6.853-11.114c.6-1.6.7-2.549.3-2.881-1.612-1.363-2.651-.347-2.651-.347-.506.854-1.065,1.726-1.654,2.6h0c-1.414,2.77-7.355,9.9-8.718,11.509s-1.6.564-1.6.564,4.115-5.957,7.471-11.216,3.451-7.6,3.451-7.6h0A1.119,1.119,0,0,0,211.364,250.1Z" transform="translate(-142.738 -178.062)" fill="#ffd2c6"/>
            <path id="Trazado_684768" data-name="Trazado 684768" d="M250.7,207.836l.04.677a3.747,3.747,0,0,1,4.292.018,3.206,3.206,0,0,1,.494.5c2.028-4.03,6.324-14.011,4.893-23.9-1.852-12.795-11.616-26.6-25.758-27.273,0,0-14.923-14.488-38.553,2.126-19.118,13.441-15.274,37.686-12.942,46.772,1.42-.066,3.066.967,4.145,1.8h0c1.451-.649,3.363-2.345,5.093-6.585,3.367-8.249,17-31.818,35.86-30.3,0,0,5.428,18.447,22.58,26.985Z" transform="translate(-154.785 -144.985)" fill="#a27854"/>
            <path id="Trazado_684769" data-name="Trazado 684769" d="M196.11,159.983c-19.071,13.408-15.293,37.564-12.96,46.7l.431.089a4.392,4.392,0,0,1,1.077.249c-.945-5.7-3.376-23.454,1.238-32.386a44.623,44.623,0,0,1,11.392-13.389c15.533-11.133,27.77-8.355,27.77-8.355h0C218.354,151.115,208.413,151.332,196.11,159.983Z" transform="translate(-154.785 -144.986)" fill="#bc9472"/>
            <path id="Trazado_684770" data-name="Trazado 684770" d="M275.148,208.7c-10.589-8.4-21.74-26.543-21.74-26.543S258.665,199.991,275.148,208.7Z" transform="translate(-179.926 -155.485)" fill="#bc9472"/>
            <path id="Trazado_684771" data-name="Trazado 684771" d="M193.423,227.988s2.357,19.024-1.768,26.179c0,0-2.205-17.761-.766-23.906S193.423,227.988,193.423,227.988Z" transform="translate(-157.99 -171.022)" fill="#a27854"/>
            <path id="Trazado_684772" data-name="Trazado 684772" d="M286.286,221.032s-1.936,21.3-1.094,32.492c0,0,6.075-20.118,3.375-31.9Z" transform="translate(-190.919 -169.019)" fill="#a27854"/>
            <path id="Trazado_684773" data-name="Trazado 684773" d="M183.313,399.788a39.121,39.121,0,0,1-8.038,14.565c4.209.4,7.851-.658,9.188-4.351,3.873-10.691,7.192-37.767,11.822-53.592C197.251,353.108,186.68,388.115,183.313,399.788Z" transform="translate(-152.723 -216.077)" fill="#f1b4a7"/>
            <path id="Trazado_684774" data-name="Trazado 684774" d="M192.2,195.566s3.872-24.244,27.947-27.61C220.143,167.956,200.613,171.66,192.2,195.566Z" transform="translate(-158.614 -150.539)" fill="#bc9472"/>
          </g>
        </g>
      </g>
      <path id="Trazado_684776" data-name="Trazado 684776" d="M340.019,288.1a1.852,1.852,0,1,1-1.852-1.852A1.852,1.852,0,0,1,340.019,288.1Z" transform="translate(-143.035 -117.98)" fill="#ded2e7"/>
      <path id="Trazado_684777" data-name="Trazado 684777" d="M370.362,318.768a1.01,1.01,0,1,1-1.01-1.01A1.01,1.01,0,0,1,370.362,318.768Z" transform="translate(-154.186 -128.952)" fill="#ded2e7"/>
      <path id="Trazado_684778" data-name="Trazado 684778" d="M221.593,415.364a1.01,1.01,0,1,1-1.01-1.01A1.009,1.009,0,0,1,221.593,415.364Z" transform="translate(-102.389 -162.583)" fill="#ded2e7"/>
      <circle id="Elipse_5440" data-name="Elipse 5440" cx="1.684" cy="1.684" r="1.684" transform="translate(134.693 235.609)" fill="#ded2e7"/>
      <path id="Trazado_684779" data-name="Trazado 684779" d="M106.221,340.115a1.179,1.179,0,1,1-1.179-1.179A1.178,1.178,0,0,1,106.221,340.115Z" transform="translate(-62.103 -136.325)" fill="#ded2e7"/>
      <circle id="Elipse_5441" data-name="Elipse 5441" cx="2.189" cy="2.189" r="2.189" transform="translate(25.263 129.882)" fill="#ded2e7"/>
      <circle id="Elipse_5442" data-name="Elipse 5442" cx="1.684" cy="1.684" r="1.684" transform="translate(65.331 131.229)" fill="#ded2e7"/>
      <circle id="Elipse_5443" data-name="Elipse 5443" cx="1.515" cy="1.515" r="1.515" transform="translate(74.422 87.12)" fill="#ded2e7"/>
      <circle id="Elipse_5444" data-name="Elipse 5444" cx="1.01" cy="1.01" r="1.01" transform="translate(239.746 142.34)" fill="#ded2e7"/>
      <path id="Trazado_684780" data-name="Trazado 684780" d="M319.2,172.57a1.516,1.516,0,1,1-1.516-1.516A1.515,1.515,0,0,1,319.2,172.57Z" transform="translate(-136.021 -77.874)" fill="#ded2e7"/>
      <path id="Trazado_684781" data-name="Trazado 684781" d="M354.349,110.595a1.01,1.01,0,1,1-1.01-1.01A1.01,1.01,0,0,1,354.349,110.595Z" transform="translate(-148.611 -56.472)" fill="#ded2e7"/>
      <circle id="Elipse_5445" data-name="Elipse 5445" cx="1.347" cy="1.347" r="1.347" transform="translate(211.126 66.581)" fill="#ded2e7"/>
      <path id="Trazado_684782" data-name="Trazado 684782" d="M208.479,225.332s2.951,4.35,7.314,2.287a6.862,6.862,0,0,0,4.3-5.912S216.178,229.581,208.479,225.332Z" transform="translate(-98.526 -95.51)" fill="#77583d"/>
      <path id="Trazado_684783" data-name="Trazado 684783" d="M264.094,224.729s-2.95,4.35-7.314,2.288a6.862,6.862,0,0,1-4.3-5.912S256.4,228.979,264.094,224.729Z" transform="translate(-113.846 -95.3)" fill="#77583d"/>
      <g id="Grupo_946414" data-name="Grupo 946414" transform="translate(139.857 117.592)">
        <path id="Trazado_684784" data-name="Trazado 684784" d="M255.536,210.95a9.6,9.6,0,0,1,6.2,2.329c1.187,1.021,2.923-.7,1.729-1.729a12.272,12.272,0,0,0-7.924-3.045,1.223,1.223,0,0,0,0,2.444Z" transform="translate(-254.356 -208.506)" fill="#a27854"/>
      </g>
      <g id="Grupo_946415" data-name="Grupo 946415" transform="translate(110.055 117.527)">
        <path id="Trazado_684785" data-name="Trazado 684785" d="M210.694,213.225a7.674,7.674,0,0,1,6.233-2.361c1.572.08,1.568-2.365,0-2.444a10.029,10.029,0,0,0-7.961,3.077c-1.055,1.162.668,2.9,1.728,1.728Z" transform="translate(-208.636 -208.405)" fill="#a27854"/>
      </g>
    </g>
    <g id="Grupo_946417" data-name="Grupo 946417" transform="translate(665.207 3030.148)">
      <path id="Trazado_684786" data-name="Trazado 684786" d="M349.063,358.985a4.953,4.953,0,1,1-4.953-4.953A4.954,4.954,0,0,1,349.063,358.985Z" transform="translate(-155.799 -300.729)" fill="#badc61"/>
      <path id="Trazado_684787" data-name="Trazado 684787" d="M64.728,337.32a3.637,3.637,0,0,1-5.254,4.562,2.752,2.752,0,0,1-1.079-1.079,3.638,3.638,0,0,1,4.562-5.255A3.24,3.24,0,0,1,64.728,337.32Z" transform="translate(-57.862 -294.187)" fill="#badc61"/>
      <path id="Trazado_684788" data-name="Trazado 684788" d="M421.362,275.875a5.517,5.517,0,0,1-7.045,7.045,5.246,5.246,0,0,1-3.309-3.308,5.517,5.517,0,0,1,7.045-7.045A5.247,5.247,0,0,1,421.362,275.875Z" transform="translate(-180.709 -272.258)" fill="#badc61"/>
      <path id="Trazado_684789" data-name="Trazado 684789" d="M101.273,385.81a16.691,16.691,0,1,1-16.691-16.691A16.691,16.691,0,0,1,101.273,385.81Z" transform="translate(-61.353 -305.982)" fill="#badc61"/>
    </g>
    <path id="Trazado_725465" data-name="Trazado 725465" d="M10,0H125a10,10,0,0,1,10,10V53a10,10,0,0,1-10,10H10A10,10,0,0,1,0,53V10A10,10,0,0,1,10,0Z" transform="translate(735.432 2780)" fill="#34bc85"/>
    <path id="Trazado_725457" data-name="Trazado 725457" d="M10,0H145a10,10,0,0,1,10,10V53a10,10,0,0,1-10,10H10A10,10,0,0,1,0,53V10A10,10,0,0,1,10,0Z" transform="translate(931.432 2904)" fill="#34bc85"/>
    <path id="Trazado_725451" data-name="Trazado 725451" d="M10,0H177a10,10,0,0,1,10,10V53a10,10,0,0,1-10,10H10A10,10,0,0,1,0,53V10A10,10,0,0,1,10,0Z" transform="translate(892.647 3068)" fill="#34bc85"/>
    <path id="Trazado_725452" data-name="Trazado 725452" d="M10,0H117a10,10,0,0,1,10,10V53a10,10,0,0,1-10,10H10A10,10,0,0,1,0,53V10A10,10,0,0,1,10,0Z" transform="translate(730.432 3166)" fill="#34bc85"/>
    <path id="Trazado_725458" data-name="Trazado 725458" d="M10,0H131a10,10,0,0,1,10,10V35a10,10,0,0,1-10,10H10A10,10,0,0,1,0,35V10A10,10,0,0,1,10,0Z" transform="translate(527.431 2904.998)" fill="#34bc85"/>
    <path id="Trazado_725466" data-name="Trazado 725466" d="M5.722-4.526H4.052V0H.967V-12.8H6a5.621,5.621,0,0,1,3.56,1.01,3.421,3.421,0,0,1,1.283,2.853,4.155,4.155,0,0,1-.541,2.213A3.837,3.837,0,0,1,8.613-5.3L11.285-.132V0H7.98ZM4.052-6.9H6a1.751,1.751,0,0,0,1.323-.463A1.788,1.788,0,0,0,7.77-8.653a1.809,1.809,0,0,0-.448-1.3A1.735,1.735,0,0,0,6-10.424H4.052ZM17.174.176a4.889,4.889,0,0,1-3.542-1.305,4.507,4.507,0,0,1-1.354-3.4v-.246a5.84,5.84,0,0,1,.541-2.575A3.955,3.955,0,0,1,14.4-9.075a4.763,4.763,0,0,1,2.461-.611,4.117,4.117,0,0,1,3.164,1.244,4.887,4.887,0,0,1,1.16,3.467v1.151H15.293a2.135,2.135,0,0,0,.694,1.257,2.066,2.066,0,0,0,1.389.457,2.662,2.662,0,0,0,2.2-.984l1.354,1.6A3.784,3.784,0,0,1,19.358-.277,5.3,5.3,0,0,1,17.174.176ZM16.84-7.4q-1.3,0-1.547,1.723h2.988v-.229a1.467,1.467,0,0,0-.36-1.1A1.434,1.434,0,0,0,16.84-7.4Zm5.186,2.575A6.421,6.421,0,0,1,22.5-7.374a3.821,3.821,0,0,1,1.362-1.709,3.591,3.591,0,0,1,2.065-.6,2.855,2.855,0,0,1,2.32,1l.105-.826h2.689V-.36a4.009,4.009,0,0,1-.584,2.184,3.75,3.75,0,0,1-1.692,1.424,6.219,6.219,0,0,1-2.566.5,5.365,5.365,0,0,1-2.026-.4,3.657,3.657,0,0,1-1.5-1.028L23.915.58a2.716,2.716,0,0,0,2.18.976A1.764,1.764,0,0,0,28.063-.466v-.3a2.781,2.781,0,0,1-2.153.94A3.437,3.437,0,0,1,23.1-1.156,5.517,5.517,0,0,1,22.025-4.72ZM25-4.641a3.383,3.383,0,0,0,.439,1.85,1.386,1.386,0,0,0,1.23.681,1.573,1.573,0,0,0,1.4-.642v-4a1.534,1.534,0,0,0-1.38-.65,1.4,1.4,0,0,0-1.239.708A3.858,3.858,0,0,0,25-4.641ZM38.391-1.028a3.054,3.054,0,0,1-2.54,1.2,3,3,0,0,1-2.369-.91,3.826,3.826,0,0,1-.8-2.615V-9.51H35.64v6.179a1.065,1.065,0,0,0,1.187,1.222,1.548,1.548,0,0,0,1.45-.729V-9.51h2.979V0H38.479ZM46,0H43.031V-13.5H46Zm7.181,0A3.344,3.344,0,0,1,52.9-.853,2.754,2.754,0,0,1,50.616.176a3.374,3.374,0,0,1-2.285-.813,2.588,2.588,0,0,1-.94-2.043,2.66,2.66,0,0,1,1.143-2.338,5.821,5.821,0,0,1,3.322-.791h.914v-.5q0-1.316-1.134-1.316a.927.927,0,0,0-1.055,1.042H47.619a2.655,2.655,0,0,1,1.173-2.239,4.931,4.931,0,0,1,2.993-.86,4.323,4.323,0,0,1,2.874.888A3.086,3.086,0,0,1,55.74-6.363v4.21a4.311,4.311,0,0,0,.4,2V0ZM51.328-1.934a1.652,1.652,0,0,0,.918-.237,1.487,1.487,0,0,0,.523-.536V-4.228h-.861q-1.547,0-1.547,1.389a.848.848,0,0,0,.272.655A.986.986,0,0,0,51.328-1.934ZM61.4-2.109a1.317,1.317,0,0,0,.967-.338,1.241,1.241,0,0,0,.334-.945h2.777A3.288,3.288,0,0,1,64.358-.826a4.168,4.168,0,0,1-2.887,1,4.22,4.22,0,0,1-3.27-1.3,5.125,5.125,0,0,1-1.2-3.6v-.123A5.792,5.792,0,0,1,57.538-7.4a3.872,3.872,0,0,1,1.534-1.7,4.573,4.573,0,0,1,2.373-.593,4.116,4.116,0,0,1,2.944,1.028,3.647,3.647,0,0,1,1.09,2.786H62.7A1.626,1.626,0,0,0,62.341-7a1.244,1.244,0,0,0-.967-.4q-1.151,0-1.345,1.468a10.357,10.357,0,0,0-.062,1.283,4.068,4.068,0,0,0,.343,1.986A1.187,1.187,0,0,0,61.4-2.109ZM69.855,0H66.885V-9.51h2.971ZM66.709-11.971a1.334,1.334,0,0,1,.457-1.043,1.718,1.718,0,0,1,1.187-.407,1.718,1.718,0,0,1,1.187.407A1.334,1.334,0,0,1,70-11.971a1.334,1.334,0,0,1-.457,1.043,1.718,1.718,0,0,1-1.187.407,1.718,1.718,0,0,1-1.187-.407A1.334,1.334,0,0,1,66.709-11.971Zm4.6,7.128a5.613,5.613,0,0,1,.554-2.536A3.96,3.96,0,0,1,73.45-9.088a4.791,4.791,0,0,1,2.435-.6,4.373,4.373,0,0,1,3.366,1.323,5.076,5.076,0,0,1,1.23,3.6v.105a4.925,4.925,0,0,1-1.235,3.529A4.384,4.384,0,0,1,75.9.176a4.434,4.434,0,0,1-3.261-1.217,4.761,4.761,0,0,1-1.327-3.3Zm2.962.185a3.538,3.538,0,0,0,.413,1.934,1.376,1.376,0,0,0,1.222.615q1.582,0,1.617-2.435v-.3q0-2.558-1.635-2.558-1.485,0-1.608,2.206ZM76.289-13.5h3.129l-2.443,2.76-2.417,0Zm8.218,3.99.1,1.116a3.225,3.225,0,0,1,2.716-1.292,2.713,2.713,0,0,1,2.219.888,4.226,4.226,0,0,1,.76,2.672V0H87.328V-6a1.6,1.6,0,0,0-.29-1.059A1.342,1.342,0,0,0,85.983-7.4a1.413,1.413,0,0,0-1.292.686V0H81.729V-9.51ZM8.235,22.609H4.008L3.27,25h-3.3L4.667,12.2h2.9L12.3,25H8.982ZM4.746,20.228H7.5l-1.38-4.438ZM15.469,15.49l.1,1.116a3.27,3.27,0,0,1,2.716-1.292,2.407,2.407,0,0,1,2.435,1.433,3.165,3.165,0,0,1,2.795-1.433q2.892,0,2.971,3.5V25H23.511V19a1.813,1.813,0,0,0-.246-1.063,1.048,1.048,0,0,0-.9-.334,1.4,1.4,0,0,0-1.31.782l.009.123V25H18.1V19.015a1.906,1.906,0,0,0-.237-1.081,1.045,1.045,0,0,0-.905-.334,1.42,1.42,0,0,0-1.3.782V25H12.691V15.49ZM37,20.324a5.8,5.8,0,0,1-.967,3.595,3.238,3.238,0,0,1-2.725,1.257,2.81,2.81,0,0,1-2.338-1.151L30.85,25H28.2V11.5h2.962v4.755a2.711,2.711,0,0,1,2.136-.94,3.239,3.239,0,0,1,2.742,1.274A5.826,5.826,0,0,1,37,20.175Zm-2.971-.189a3.866,3.866,0,0,0-.365-1.952,1.229,1.229,0,0,0-1.121-.584,1.418,1.418,0,0,0-1.389.763v3.773a1.426,1.426,0,0,0,1.406.755,1.258,1.258,0,0,0,1.327-1.018A7.309,7.309,0,0,0,34.031,20.135ZM41.432,25H38.461V15.49h2.971ZM38.285,13.029a1.334,1.334,0,0,1,.457-1.043,1.934,1.934,0,0,1,2.373,0,1.42,1.42,0,0,1,0,2.087,1.934,1.934,0,0,1-2.373,0A1.334,1.334,0,0,1,38.285,13.029Zm9.571,12.146a4.889,4.889,0,0,1-3.542-1.305,4.507,4.507,0,0,1-1.354-3.4v-.246a5.84,5.84,0,0,1,.541-2.575,3.955,3.955,0,0,1,1.578-1.727,4.763,4.763,0,0,1,2.461-.611A4.117,4.117,0,0,1,50.7,16.558a4.887,4.887,0,0,1,1.16,3.467v1.151H45.976a2.135,2.135,0,0,0,.694,1.257,2.066,2.066,0,0,0,1.389.457,2.662,2.662,0,0,0,2.2-.984l1.354,1.6a3.784,3.784,0,0,1-1.569,1.217A5.3,5.3,0,0,1,47.856,25.176ZM47.522,17.6q-1.3,0-1.547,1.723h2.988v-.229a1.467,1.467,0,0,0-.36-1.1A1.434,1.434,0,0,0,47.522,17.6Zm8.253-2.109.1,1.116a3.225,3.225,0,0,1,2.716-1.292,2.713,2.713,0,0,1,2.219.888,4.226,4.226,0,0,1,.76,2.672V25H58.6V19a1.6,1.6,0,0,0-.29-1.059,1.342,1.342,0,0,0-1.055-.338,1.413,1.413,0,0,0-1.292.686V25H53V15.49Zm10.881-2.364V15.49h1.564v2.057H66.656V21.9a1.111,1.111,0,0,0,.193.747,1.037,1.037,0,0,0,.765.211,4.345,4.345,0,0,0,.738-.053v2.118a5.466,5.466,0,0,1-1.67.255,3.1,3.1,0,0,1-2.259-.721,2.954,2.954,0,0,1-.729-2.188v-4.72H62.481V15.49h1.213V13.126ZM74.742,25a3.344,3.344,0,0,1-.281-.853,2.754,2.754,0,0,1-2.285,1.028,3.374,3.374,0,0,1-2.285-.813,2.588,2.588,0,0,1-.94-2.043,2.66,2.66,0,0,1,1.143-2.338,5.821,5.821,0,0,1,3.322-.791h.914v-.5q0-1.316-1.134-1.316a.927.927,0,0,0-1.055,1.042H69.179a2.655,2.655,0,0,1,1.173-2.239,4.931,4.931,0,0,1,2.993-.86,4.323,4.323,0,0,1,2.874.888A3.086,3.086,0,0,1,77.3,18.637v4.21a4.311,4.311,0,0,0,.4,2V25Zm-1.854-1.934a1.652,1.652,0,0,0,.918-.237,1.487,1.487,0,0,0,.523-.536V20.772h-.861q-1.547,0-1.547,1.389a.848.848,0,0,0,.272.655A.986.986,0,0,0,72.888,23.066ZM82.063,25H79.093V11.5h2.971Z" transform="translate(749.432 2806)" fill="#12263f"/>
    <path id="Trazado_725459" data-name="Trazado 725459" d="M-52.181-4.333a4.673,4.673,0,0,1-.721,2.36,4.35,4.35,0,0,1-1.85,1.586,6.3,6.3,0,0,1-2.72.563,5.025,5.025,0,0,1-3.973-1.644,6.786,6.786,0,0,1-1.45-4.641v-.633a7.746,7.746,0,0,1,.655-3.292,4.961,4.961,0,0,1,1.885-2.18,5.26,5.26,0,0,1,2.848-.769,5.516,5.516,0,0,1,3.744,1.226,4.844,4.844,0,0,1,1.608,3.379H-55.23a2.292,2.292,0,0,0-.589-1.679,2.422,2.422,0,0,0-1.687-.51,1.843,1.843,0,0,0-1.687.861,5.536,5.536,0,0,0-.562,2.751v.905a6.126,6.126,0,0,0,.514,2.927,1.882,1.882,0,0,0,1.771.879,2.369,2.369,0,0,0,1.626-.5,2.126,2.126,0,0,0,.6-1.591Zm.949-.51a5.613,5.613,0,0,1,.554-2.536,3.96,3.96,0,0,1,1.591-1.709,4.791,4.791,0,0,1,2.435-.6,4.373,4.373,0,0,1,3.366,1.323,5.076,5.076,0,0,1,1.23,3.6v.105a4.925,4.925,0,0,1-1.235,3.529A4.384,4.384,0,0,1-46.635.176,4.434,4.434,0,0,1-49.9-1.042a4.761,4.761,0,0,1-1.327-3.3Zm2.962.185a3.538,3.538,0,0,0,.413,1.934,1.376,1.376,0,0,0,1.222.615q1.582,0,1.617-2.435v-.3q0-2.558-1.635-2.558-1.485,0-1.608,2.206ZM-38.03-9.51l.1,1.116a3.225,3.225,0,0,1,2.716-1.292A2.713,2.713,0,0,1-33-8.8a4.226,4.226,0,0,1,.76,2.672V0h-2.971V-6a1.6,1.6,0,0,0-.29-1.059A1.342,1.342,0,0,0-36.554-7.4a1.413,1.413,0,0,0-1.292.686V0h-2.962V-9.51Zm10.881-2.364V-9.51h1.564v2.057h-1.564V-3.1a1.111,1.111,0,0,0,.193.747,1.037,1.037,0,0,0,.765.211,4.345,4.345,0,0,0,.738-.053V-.079a5.466,5.466,0,0,1-1.67.255,3.1,3.1,0,0,1-2.259-.721,2.954,2.954,0,0,1-.729-2.188v-4.72h-1.213V-9.51h1.213v-2.364ZM-19.063,0a3.344,3.344,0,0,1-.281-.853A2.754,2.754,0,0,1-21.63.176a3.374,3.374,0,0,1-2.285-.813,2.588,2.588,0,0,1-.94-2.043,2.66,2.66,0,0,1,1.143-2.338,5.821,5.821,0,0,1,3.322-.791h.914v-.5q0-1.316-1.134-1.316a.927.927,0,0,0-1.055,1.042h-2.962a2.655,2.655,0,0,1,1.173-2.239,4.931,4.931,0,0,1,2.993-.86,4.323,4.323,0,0,1,2.874.888,3.086,3.086,0,0,1,1.081,2.435v4.21a4.311,4.311,0,0,0,.4,2V0Zm-1.854-1.934A1.652,1.652,0,0,0-20-2.171a1.487,1.487,0,0,0,.523-.536V-4.228h-.861q-1.547,0-1.547,1.389a.848.848,0,0,0,.272.655A.986.986,0,0,0-20.918-1.934Zm8.851-7.576.1,1.116A3.27,3.27,0,0,1-9.255-9.686,2.407,2.407,0,0,1-6.82-8.253,3.165,3.165,0,0,1-4.025-9.686q2.892,0,2.971,3.5V0H-4.025V-6a1.813,1.813,0,0,0-.246-1.063,1.048,1.048,0,0,0-.9-.334,1.4,1.4,0,0,0-1.31.782l.009.123V0H-9.439V-5.985a1.906,1.906,0,0,0-.237-1.081,1.045,1.045,0,0,0-.905-.334,1.42,1.42,0,0,0-1.3.782V0h-2.962V-9.51ZM3.762,0H.791V-9.51H3.762ZM.615-11.971a1.334,1.334,0,0,1,.457-1.043,1.718,1.718,0,0,1,1.187-.407,1.718,1.718,0,0,1,1.187.407A1.334,1.334,0,0,1,3.9-11.971a1.334,1.334,0,0,1-.457,1.043,1.718,1.718,0,0,1-1.187.407,1.718,1.718,0,0,1-1.187-.407A1.334,1.334,0,0,1,.615-11.971ZM8.306-9.51l.1,1.116a3.225,3.225,0,0,1,2.716-1.292,2.713,2.713,0,0,1,2.219.888,4.226,4.226,0,0,1,.76,2.672V0H11.127V-6a1.6,1.6,0,0,0-.29-1.059A1.342,1.342,0,0,0,9.782-7.4a1.413,1.413,0,0,0-1.292.686V0H5.528V-9.51ZM21.094,0a3.344,3.344,0,0,1-.281-.853A2.754,2.754,0,0,1,18.527.176a3.374,3.374,0,0,1-2.285-.813,2.588,2.588,0,0,1-.94-2.043,2.66,2.66,0,0,1,1.143-2.338,5.821,5.821,0,0,1,3.322-.791h.914v-.5q0-1.316-1.134-1.316a.927.927,0,0,0-1.055,1.042H15.53A2.655,2.655,0,0,1,16.7-8.825a4.931,4.931,0,0,1,2.993-.86A4.323,4.323,0,0,1,22.57-8.8a3.086,3.086,0,0,1,1.081,2.435v4.21a4.311,4.311,0,0,0,.4,2V0ZM19.239-1.934a1.652,1.652,0,0,0,.918-.237,1.487,1.487,0,0,0,.523-.536V-4.228h-.861q-1.547,0-1.547,1.389a.848.848,0,0,0,.272.655A.986.986,0,0,0,19.239-1.934Zm10.072-.176a1.317,1.317,0,0,0,.967-.338,1.241,1.241,0,0,0,.334-.945H33.39A3.288,3.288,0,0,1,32.269-.826a4.168,4.168,0,0,1-2.887,1,4.22,4.22,0,0,1-3.27-1.3,5.125,5.125,0,0,1-1.2-3.6v-.123A5.792,5.792,0,0,1,25.449-7.4a3.872,3.872,0,0,1,1.534-1.7,4.573,4.573,0,0,1,2.373-.593A4.116,4.116,0,0,1,32.3-8.657a3.647,3.647,0,0,1,1.09,2.786H30.612A1.626,1.626,0,0,0,30.252-7a1.244,1.244,0,0,0-.967-.4q-1.151,0-1.345,1.468a10.357,10.357,0,0,0-.062,1.283,4.068,4.068,0,0,0,.343,1.986A1.187,1.187,0,0,0,29.312-2.109ZM37.767,0H34.8V-9.51h2.971ZM34.62-11.971a1.334,1.334,0,0,1,.457-1.043,1.718,1.718,0,0,1,1.187-.407,1.718,1.718,0,0,1,1.187.407,1.334,1.334,0,0,1,.457,1.043,1.334,1.334,0,0,1-.457,1.043,1.718,1.718,0,0,1-1.187.407,1.718,1.718,0,0,1-1.187-.407A1.334,1.334,0,0,1,34.62-11.971Zm4.6,7.128a5.613,5.613,0,0,1,.554-2.536,3.96,3.96,0,0,1,1.591-1.709,4.791,4.791,0,0,1,2.435-.6,4.373,4.373,0,0,1,3.366,1.323,5.076,5.076,0,0,1,1.23,3.6v.105a4.925,4.925,0,0,1-1.235,3.529A4.384,4.384,0,0,1,43.813.176a4.434,4.434,0,0,1-3.261-1.217,4.761,4.761,0,0,1-1.327-3.3Zm2.962.185a3.538,3.538,0,0,0,.413,1.934,1.376,1.376,0,0,0,1.222.615q1.582,0,1.617-2.435v-.3Q45.431-7.4,43.8-7.4q-1.485,0-1.608,2.206ZM44.2-13.5h3.129l-2.443,2.76-2.417,0Zm8.218,3.99.1,1.116A3.225,3.225,0,0,1,55.23-9.686,2.713,2.713,0,0,1,57.45-8.8a4.226,4.226,0,0,1,.76,2.672V0H55.239V-6a1.6,1.6,0,0,0-.29-1.059A1.342,1.342,0,0,0,53.895-7.4a1.413,1.413,0,0,0-1.292.686V0H49.641V-9.51ZM-33.293,22.609h-4.228L-38.259,25h-3.3l4.693-12.8h2.9L-29.232,25h-3.313Zm-3.489-2.382h2.751l-1.38-4.438ZM-26.06,15.49l.1,1.116a3.27,3.27,0,0,1,2.716-1.292,2.407,2.407,0,0,1,2.435,1.433,3.165,3.165,0,0,1,2.795-1.433q2.892,0,2.971,3.5V25h-2.971V19a1.813,1.813,0,0,0-.246-1.063,1.048,1.048,0,0,0-.9-.334,1.4,1.4,0,0,0-1.31.782l.009.123V25h-2.971V19.015a1.906,1.906,0,0,0-.237-1.081,1.045,1.045,0,0,0-.905-.334,1.42,1.42,0,0,0-1.3.782V25h-2.962V15.49Zm21.533,4.834a5.8,5.8,0,0,1-.967,3.595,3.238,3.238,0,0,1-2.725,1.257,2.81,2.81,0,0,1-2.338-1.151l-.123.976h-2.654V11.5h2.962v4.755a2.711,2.711,0,0,1,2.136-.94,3.239,3.239,0,0,1,2.742,1.274,5.826,5.826,0,0,1,.967,3.586ZM-7.5,20.135a3.866,3.866,0,0,0-.365-1.952A1.229,1.229,0,0,0-8.982,17.6a1.418,1.418,0,0,0-1.389.763v3.773a1.426,1.426,0,0,0,1.406.755,1.258,1.258,0,0,0,1.327-1.018A7.309,7.309,0,0,0-7.5,20.135ZM-.1,25H-3.067V15.49H-.1ZM-3.243,13.029a1.334,1.334,0,0,1,.457-1.043A1.718,1.718,0,0,1-1.6,11.579a1.718,1.718,0,0,1,1.187.407,1.334,1.334,0,0,1,.457,1.043,1.334,1.334,0,0,1-.457,1.043,1.718,1.718,0,0,1-1.187.407,1.718,1.718,0,0,1-1.187-.407A1.334,1.334,0,0,1-3.243,13.029ZM6.328,25.176a4.889,4.889,0,0,1-3.542-1.305,4.507,4.507,0,0,1-1.354-3.4v-.246a5.84,5.84,0,0,1,.541-2.575,3.955,3.955,0,0,1,1.578-1.727,4.763,4.763,0,0,1,2.461-.611,4.117,4.117,0,0,1,3.164,1.244,4.887,4.887,0,0,1,1.16,3.467v1.151H4.447a2.135,2.135,0,0,0,.694,1.257,2.066,2.066,0,0,0,1.389.457,2.662,2.662,0,0,0,2.2-.984l1.354,1.6a3.784,3.784,0,0,1-1.569,1.217A5.3,5.3,0,0,1,6.328,25.176ZM5.994,17.6q-1.3,0-1.547,1.723H7.436v-.229a1.467,1.467,0,0,0-.36-1.1A1.434,1.434,0,0,0,5.994,17.6Zm8.253-2.109.1,1.116a3.225,3.225,0,0,1,2.716-1.292,2.713,2.713,0,0,1,2.219.888,4.226,4.226,0,0,1,.76,2.672V25H17.068V19a1.6,1.6,0,0,0-.29-1.059,1.342,1.342,0,0,0-1.055-.338,1.413,1.413,0,0,0-1.292.686V25H11.47V15.49Zm10.881-2.364V15.49h1.564v2.057H25.128V21.9a1.111,1.111,0,0,0,.193.747,1.037,1.037,0,0,0,.765.211,4.345,4.345,0,0,0,.738-.053v2.118a5.466,5.466,0,0,1-1.67.255,3.1,3.1,0,0,1-2.259-.721,2.954,2.954,0,0,1-.729-2.188v-4.72H20.953V15.49h1.213V13.126ZM33.214,25a3.344,3.344,0,0,1-.281-.853,2.754,2.754,0,0,1-2.285,1.028,3.374,3.374,0,0,1-2.285-.813,2.588,2.588,0,0,1-.94-2.043,2.66,2.66,0,0,1,1.143-2.338,5.821,5.821,0,0,1,3.322-.791H32.8v-.5q0-1.316-1.134-1.316a.927.927,0,0,0-1.055,1.042H27.65a2.655,2.655,0,0,1,1.173-2.239,4.931,4.931,0,0,1,2.993-.86,4.323,4.323,0,0,1,2.874.888,3.086,3.086,0,0,1,1.081,2.435v4.21a4.311,4.311,0,0,0,.4,2V25Zm-1.854-1.934a1.652,1.652,0,0,0,.918-.237,1.487,1.487,0,0,0,.523-.536V20.772h-.861q-1.547,0-1.547,1.389a.848.848,0,0,0,.272.655A.986.986,0,0,0,31.359,23.066ZM40.535,25H37.564V11.5h2.971Z" transform="translate(1003.432 2931)" fill="#12263f"/>
    <path id="Trazado_725453" data-name="Trazado 725453" d="M-47.294-2.373h5.37V0h-8.455V-12.8h3.085Zm6.161-2.47a5.613,5.613,0,0,1,.554-2.536,3.96,3.96,0,0,1,1.591-1.709,4.791,4.791,0,0,1,2.435-.6,4.373,4.373,0,0,1,3.366,1.323,5.076,5.076,0,0,1,1.23,3.6v.105a4.925,4.925,0,0,1-1.235,3.529A4.384,4.384,0,0,1-36.536.176,4.434,4.434,0,0,1-39.8-1.042a4.761,4.761,0,0,1-1.327-3.3Zm2.962.185a3.538,3.538,0,0,0,.413,1.934,1.376,1.376,0,0,0,1.222.615q1.582,0,1.617-2.435v-.3q0-2.558-1.635-2.558-1.485,0-1.608,2.206Zm12.5,1.986a.684.684,0,0,0-.4-.606,6.016,6.016,0,0,0-1.5-.475A6.853,6.853,0,0,1-29.4-4.4a3.062,3.062,0,0,1-1.1-.971,2.319,2.319,0,0,1-.378-1.31,2.628,2.628,0,0,1,1.081-2.158,4.453,4.453,0,0,1,2.83-.848,4.934,4.934,0,0,1,3.023.853A2.666,2.666,0,0,1-22.8-6.592H-25.77q0-1.143-1.2-1.143a1.194,1.194,0,0,0-.782.259.8.8,0,0,0-.316.646.737.737,0,0,0,.387.642,3.654,3.654,0,0,0,1.235.4,10.671,10.671,0,0,1,1.49.378A2.706,2.706,0,0,1-22.816-2.76,2.491,2.491,0,0,1-23.972-.642a5.068,5.068,0,0,1-2.993.817,5.172,5.172,0,0,1-2.18-.439,3.645,3.645,0,0,1-1.494-1.2,2.707,2.707,0,0,1-.536-1.591h2.769a1.145,1.145,0,0,0,.439.962,1.808,1.808,0,0,0,1.081.3,1.422,1.422,0,0,0,.91-.246A.787.787,0,0,0-25.673-2.672Zm8.35-2.171a5.613,5.613,0,0,1,.554-2.536,3.96,3.96,0,0,1,1.591-1.709,4.791,4.791,0,0,1,2.435-.6A4.373,4.373,0,0,1-9.378-8.363a5.076,5.076,0,0,1,1.23,3.6v.105A4.925,4.925,0,0,1-9.382-1.129,4.384,4.384,0,0,1-12.727.176a4.434,4.434,0,0,1-3.261-1.217,4.761,4.761,0,0,1-1.327-3.3Zm2.962.185a3.538,3.538,0,0,0,.413,1.934,1.376,1.376,0,0,0,1.222.615q1.582,0,1.617-2.435v-.3q0-2.558-1.635-2.558-1.485,0-1.608,2.206ZM-3.718,0H-6.688V-13.5h2.971Zm1.45-4.843a5.613,5.613,0,0,1,.554-2.536A3.96,3.96,0,0,1-.123-9.088a4.791,4.791,0,0,1,2.435-.6A4.373,4.373,0,0,1,5.678-8.363a5.076,5.076,0,0,1,1.23,3.6v.105A4.925,4.925,0,0,1,5.673-1.129,4.384,4.384,0,0,1,2.329.176,4.434,4.434,0,0,1-.932-1.042a4.761,4.761,0,0,1-1.327-3.3Zm2.962.185a3.538,3.538,0,0,0,.413,1.934,1.376,1.376,0,0,0,1.222.615q1.582,0,1.617-2.435v-.3Q3.946-7.4,2.312-7.4.826-7.4.7-5.194ZM13.966-6.829,12.99-6.9a1.752,1.752,0,0,0-1.793.879V0H8.235V-9.51h2.777l.1,1.222a2.294,2.294,0,0,1,2.083-1.4,2.888,2.888,0,0,1,.826.105Zm5.5,7a4.889,4.889,0,0,1-3.542-1.305,4.507,4.507,0,0,1-1.354-3.4v-.246a5.84,5.84,0,0,1,.541-2.575A3.955,3.955,0,0,1,16.69-9.075a4.763,4.763,0,0,1,2.461-.611,4.117,4.117,0,0,1,3.164,1.244,4.887,4.887,0,0,1,1.16,3.467v1.151H17.587a2.135,2.135,0,0,0,.694,1.257,2.066,2.066,0,0,0,1.389.457,2.662,2.662,0,0,0,2.2-.984l1.354,1.6A3.784,3.784,0,0,1,21.652-.277,5.3,5.3,0,0,1,19.468.176ZM19.134-7.4q-1.3,0-1.547,1.723h2.988v-.229a1.467,1.467,0,0,0-.36-1.1A1.434,1.434,0,0,0,19.134-7.4ZM29.646-2.672a.684.684,0,0,0-.4-.606,6.016,6.016,0,0,0-1.5-.475A6.853,6.853,0,0,1,25.919-4.4a3.062,3.062,0,0,1-1.1-.971,2.319,2.319,0,0,1-.378-1.31,2.628,2.628,0,0,1,1.081-2.158,4.453,4.453,0,0,1,2.83-.848,4.934,4.934,0,0,1,3.023.853A2.666,2.666,0,0,1,32.52-6.592H29.549q0-1.143-1.2-1.143a1.194,1.194,0,0,0-.782.259.8.8,0,0,0-.316.646.737.737,0,0,0,.387.642,3.654,3.654,0,0,0,1.235.4,10.671,10.671,0,0,1,1.49.378A2.706,2.706,0,0,1,32.5-2.76,2.491,2.491,0,0,1,31.346-.642a5.068,5.068,0,0,1-2.993.817,5.172,5.172,0,0,1-2.18-.439,3.645,3.645,0,0,1-1.494-1.2,2.707,2.707,0,0,1-.536-1.591h2.769a1.145,1.145,0,0,0,.439.962,1.808,1.808,0,0,0,1.081.3,1.422,1.422,0,0,0,.91-.246A.787.787,0,0,0,29.646-2.672ZM42.17-4.148,43.752-9.51h3.173l-3.876,11.1-.167.4a2.944,2.944,0,0,1-2.918,1.846,4.642,4.642,0,0,1-1.222-.175V1.556h.387a2.026,2.026,0,0,0,.954-.18A1.094,1.094,0,0,0,40.57.729L40.808.1,37.5-9.51h3.164ZM-59.388,25h-2.971V11.5h2.971Zm7.181,0a3.344,3.344,0,0,1-.281-.853,2.754,2.754,0,0,1-2.285,1.028,3.374,3.374,0,0,1-2.285-.813A2.588,2.588,0,0,1-58,22.319a2.66,2.66,0,0,1,1.143-2.338,5.821,5.821,0,0,1,3.322-.791h.914v-.5q0-1.316-1.134-1.316a.927.927,0,0,0-1.055,1.042h-2.962A2.655,2.655,0,0,1-56.6,16.175a4.931,4.931,0,0,1,2.993-.86,4.323,4.323,0,0,1,2.874.888,3.086,3.086,0,0,1,1.081,2.435v4.21a4.311,4.311,0,0,0,.4,2V25Zm-1.854-1.934a1.652,1.652,0,0,0,.918-.237,1.487,1.487,0,0,0,.523-.536V20.772h-.861q-1.547,0-1.547,1.389a.848.848,0,0,0,.272.655A.986.986,0,0,0-54.062,23.066Zm15.513-.738a.684.684,0,0,0-.4-.606,6.016,6.016,0,0,0-1.5-.475,6.853,6.853,0,0,1-1.828-.646,3.062,3.062,0,0,1-1.1-.971,2.319,2.319,0,0,1-.378-1.31,2.628,2.628,0,0,1,1.081-2.158,4.453,4.453,0,0,1,2.83-.848,4.934,4.934,0,0,1,3.023.853,2.666,2.666,0,0,1,1.143,2.241h-2.971q0-1.143-1.2-1.143a1.194,1.194,0,0,0-.782.259.8.8,0,0,0-.316.646.737.737,0,0,0,.387.642,3.654,3.654,0,0,0,1.235.4,10.671,10.671,0,0,1,1.49.378,2.706,2.706,0,0,1,2.145,2.646,2.491,2.491,0,0,1-1.156,2.118,5.068,5.068,0,0,1-2.993.817,5.172,5.172,0,0,1-2.18-.439,3.645,3.645,0,0,1-1.494-1.2,2.707,2.707,0,0,1-.536-1.591h2.769a1.145,1.145,0,0,0,.439.962,1.808,1.808,0,0,0,1.081.3,1.422,1.422,0,0,0,.91-.246A.787.787,0,0,0-38.549,22.328Zm9.6,2.672a3.344,3.344,0,0,1-.281-.853,2.754,2.754,0,0,1-2.285,1.028,3.374,3.374,0,0,1-2.285-.813,2.588,2.588,0,0,1-.94-2.043A2.66,2.66,0,0,1-33.6,19.981a5.821,5.821,0,0,1,3.322-.791h.914v-.5q0-1.316-1.134-1.316a.927.927,0,0,0-1.055,1.042h-2.962a2.655,2.655,0,0,1,1.173-2.239,4.931,4.931,0,0,1,2.993-.86,4.323,4.323,0,0,1,2.874.888,3.086,3.086,0,0,1,1.081,2.435v4.21a4.311,4.311,0,0,0,.4,2V25Zm-1.854-1.934a1.652,1.652,0,0,0,.918-.237,1.487,1.487,0,0,0,.523-.536V20.772h-.861q-1.547,0-1.547,1.389a.848.848,0,0,0,.272.655A.986.986,0,0,0-30.806,23.066ZM-21.63,25H-24.6V11.5h2.971Zm7.488-1.028a3.054,3.054,0,0,1-2.54,1.2,3,3,0,0,1-2.369-.91,3.826,3.826,0,0,1-.8-2.615V15.49h2.962v6.179a1.065,1.065,0,0,0,1.187,1.222,1.548,1.548,0,0,0,1.45-.729V15.49h2.979V25h-2.777Zm4.113-3.8a5.809,5.809,0,0,1,.976-3.56,3.211,3.211,0,0,1,2.725-1.3,2.731,2.731,0,0,1,2.145,1V11.5h2.971V25H-3.876l-.149-1.02a2.8,2.8,0,0,1-2.32,1.2,3.205,3.205,0,0,1-2.689-1.3A5.993,5.993,0,0,1-10.028,20.175Zm2.962.185q0,2.531,1.477,2.531a1.458,1.458,0,0,0,1.406-.826V18.443A1.419,1.419,0,0,0-5.572,17.6q-1.371,0-1.485,2.215Zm20.848-.044a5.735,5.735,0,0,1-1,3.538,3.2,3.2,0,0,1-2.694,1.323,2.742,2.742,0,0,1-2.153-.958v4.438H4.975V15.49H7.743l.088.879a2.742,2.742,0,0,1,2.241-1.055,3.224,3.224,0,0,1,2.733,1.3,5.805,5.805,0,0,1,.976,3.564Zm-2.962-.185q0-2.531-1.477-2.531a1.394,1.394,0,0,0-1.406.756V22.1a1.439,1.439,0,0,0,1.424.791q1.415,0,1.459-2.443Zm9.932,3.841a3.054,3.054,0,0,1-2.54,1.2,3,3,0,0,1-2.369-.91,3.826,3.826,0,0,1-.8-2.615V15.49H18v6.179a1.065,1.065,0,0,0,1.187,1.222,1.548,1.548,0,0,0,1.45-.729V15.49h2.979V25H20.839ZM19.7,11.5h3.129l-2.443,2.76-2.417,0Zm14.37,8.824a5.8,5.8,0,0,1-.967,3.595,3.238,3.238,0,0,1-2.725,1.257,2.81,2.81,0,0,1-2.338-1.151L27.914,25H25.26V11.5h2.962v4.755a2.711,2.711,0,0,1,2.136-.94A3.239,3.239,0,0,1,33.1,16.589a5.826,5.826,0,0,1,.967,3.586ZM31.1,20.135a3.866,3.866,0,0,0-.365-1.952A1.229,1.229,0,0,0,29.61,17.6a1.418,1.418,0,0,0-1.389.763v3.773a1.426,1.426,0,0,0,1.406.755,1.258,1.258,0,0,0,1.327-1.018A7.309,7.309,0,0,0,31.1,20.135ZM38.5,25H35.525V11.5H38.5Zm4.948,0H40.474V15.49h2.971ZM40.3,13.029a1.334,1.334,0,0,1,.457-1.043,1.934,1.934,0,0,1,2.373,0,1.42,1.42,0,0,1,0,2.087,1.934,1.934,0,0,1-2.373,0A1.334,1.334,0,0,1,40.3,13.029Zm8.991,9.861a1.317,1.317,0,0,0,.967-.338,1.241,1.241,0,0,0,.334-.945h2.777a3.288,3.288,0,0,1-1.121,2.566,4.168,4.168,0,0,1-2.887,1,4.22,4.22,0,0,1-3.27-1.3,5.125,5.125,0,0,1-1.2-3.6v-.123a5.792,5.792,0,0,1,.532-2.544,3.872,3.872,0,0,1,1.534-1.7,4.573,4.573,0,0,1,2.373-.593,4.116,4.116,0,0,1,2.944,1.028,3.647,3.647,0,0,1,1.09,2.786H50.59A1.626,1.626,0,0,0,50.229,18a1.244,1.244,0,0,0-.967-.4q-1.151,0-1.345,1.468a10.357,10.357,0,0,0-.062,1.283,4.068,4.068,0,0,0,.343,1.986A1.187,1.187,0,0,0,49.289,22.891ZM59.977,25a3.344,3.344,0,0,1-.281-.853,2.754,2.754,0,0,1-2.285,1.028,3.374,3.374,0,0,1-2.285-.813,2.588,2.588,0,0,1-.94-2.043,2.66,2.66,0,0,1,1.143-2.338,5.821,5.821,0,0,1,3.322-.791h.914v-.5q0-1.316-1.134-1.316a.927.927,0,0,0-1.055,1.042H54.413a2.655,2.655,0,0,1,1.173-2.239,4.931,4.931,0,0,1,2.993-.86,4.323,4.323,0,0,1,2.874.888,3.086,3.086,0,0,1,1.081,2.435v4.21a4.311,4.311,0,0,0,.4,2V25Zm-1.854-1.934a1.652,1.652,0,0,0,.918-.237,1.487,1.487,0,0,0,.523-.536V20.772H58.7q-1.547,0-1.547,1.389a.848.848,0,0,0,.272.655A.986.986,0,0,0,58.122,23.066Z" transform="translate(976.647 3093)" fill="#12263f"/>
    <path id="Trazado_725454" data-name="Trazado 725454" d="M11.8-6.135a7.546,7.546,0,0,1-.694,3.313A5.132,5.132,0,0,1,9.136-.6,5.494,5.494,0,0,1,6.223.176a5.572,5.572,0,0,1-2.9-.751A5.123,5.123,0,0,1,1.349-2.725,7.329,7.329,0,0,1,.606-5.933v-.721A7.58,7.58,0,0,1,1.3-9.971,5.119,5.119,0,0,1,3.274-12.19a5.533,5.533,0,0,1,2.931-.782,5.479,5.479,0,0,1,2.9.773A5.211,5.211,0,0,1,11.087-10,7.362,7.362,0,0,1,11.8-6.724ZM8.666-6.671a5.381,5.381,0,0,0-.637-2.9,2.044,2.044,0,0,0-1.824-.989q-2.32,0-2.452,3.48l-.009.94a5.535,5.535,0,0,0,.624,2.892A2.041,2.041,0,0,0,6.223-2.232a2.016,2.016,0,0,0,1.8-.993,5.383,5.383,0,0,0,.642-2.856Zm10.345-.158-.976-.07a1.752,1.752,0,0,0-1.793.879V0H13.28V-9.51h2.777l.1,1.222a2.294,2.294,0,0,1,2.083-1.4,2.888,2.888,0,0,1,.826.105ZM23.309,0H20.329V-9.51h2.979ZM22.2-13.324H25.33l-2.443,2.76-2.417,0Zm2.663,8.5a6.421,6.421,0,0,1,.475-2.549A3.821,3.821,0,0,1,26.7-9.083a3.591,3.591,0,0,1,2.065-.6,2.855,2.855,0,0,1,2.32,1l.105-.826h2.689V-.36A4.009,4.009,0,0,1,33.3,1.824a3.75,3.75,0,0,1-1.692,1.424,6.219,6.219,0,0,1-2.566.5,5.365,5.365,0,0,1-2.026-.4,3.657,3.657,0,0,1-1.5-1.028L26.754.58a2.716,2.716,0,0,0,2.18.976A1.764,1.764,0,0,0,30.9-.466v-.3a2.781,2.781,0,0,1-2.153.94,3.437,3.437,0,0,1-2.812-1.332A5.517,5.517,0,0,1,24.864-4.72Zm2.971.185a3.383,3.383,0,0,0,.439,1.85,1.386,1.386,0,0,0,1.23.681,1.573,1.573,0,0,0,1.4-.642v-4a1.534,1.534,0,0,0-1.38-.65,1.4,1.4,0,0,0-1.239.708A3.858,3.858,0,0,0,27.835-4.641ZM40.166.176a4.889,4.889,0,0,1-3.542-1.305,4.507,4.507,0,0,1-1.354-3.4v-.246a5.84,5.84,0,0,1,.541-2.575,3.955,3.955,0,0,1,1.578-1.727,4.763,4.763,0,0,1,2.461-.611,4.117,4.117,0,0,1,3.164,1.244,4.887,4.887,0,0,1,1.16,3.467v1.151H38.285a2.135,2.135,0,0,0,.694,1.257,2.066,2.066,0,0,0,1.389.457,2.662,2.662,0,0,0,2.2-.984l1.354,1.6A3.784,3.784,0,0,1,42.35-.277,5.3,5.3,0,0,1,40.166.176ZM39.832-7.4q-1.3,0-1.547,1.723h2.988v-.229a1.467,1.467,0,0,0-.36-1.1A1.434,1.434,0,0,0,39.832-7.4ZM48.085-9.51l.1,1.116A3.225,3.225,0,0,1,50.9-9.686a2.713,2.713,0,0,1,2.219.888,4.226,4.226,0,0,1,.76,2.672V0H50.906V-6a1.6,1.6,0,0,0-.29-1.059A1.342,1.342,0,0,0,49.562-7.4a1.413,1.413,0,0,0-1.292.686V0H45.308V-9.51ZM60.117.176a4.889,4.889,0,0,1-3.542-1.305,4.507,4.507,0,0,1-1.354-3.4v-.246a5.84,5.84,0,0,1,.541-2.575A3.955,3.955,0,0,1,57.34-9.075,4.763,4.763,0,0,1,59.8-9.686a4.117,4.117,0,0,1,3.164,1.244,4.887,4.887,0,0,1,1.16,3.467v1.151H58.236a2.135,2.135,0,0,0,.694,1.257,2.066,2.066,0,0,0,1.389.457,2.662,2.662,0,0,0,2.2-.984l1.354,1.6A3.784,3.784,0,0,1,62.3-.277,5.3,5.3,0,0,1,60.117.176ZM59.783-7.4q-1.3,0-1.547,1.723h2.988v-.229a1.467,1.467,0,0,0-.36-1.1A1.434,1.434,0,0,0,59.783-7.4ZM70.295-2.672a.684.684,0,0,0-.4-.606,6.016,6.016,0,0,0-1.5-.475A6.853,6.853,0,0,1,66.568-4.4a3.062,3.062,0,0,1-1.1-.971,2.319,2.319,0,0,1-.378-1.31,2.628,2.628,0,0,1,1.081-2.158A4.453,4.453,0,0,1,69-9.686a4.934,4.934,0,0,1,3.023.853,2.666,2.666,0,0,1,1.143,2.241H70.2q0-1.143-1.2-1.143a1.194,1.194,0,0,0-.782.259.8.8,0,0,0-.316.646.737.737,0,0,0,.387.642,3.654,3.654,0,0,0,1.235.4,10.671,10.671,0,0,1,1.49.378A2.706,2.706,0,0,1,73.151-2.76,2.491,2.491,0,0,1,72-.642,5.068,5.068,0,0,1,69,.176a5.172,5.172,0,0,1-2.18-.439,3.645,3.645,0,0,1-1.494-1.2,2.707,2.707,0,0,1-.536-1.591h2.769A1.145,1.145,0,0,0,68-2.087a1.808,1.808,0,0,0,1.081.3,1.422,1.422,0,0,0,.91-.246A.787.787,0,0,0,70.295-2.672Z" transform="translate(758.432 3194)" fill="#12263f"/>
    <path id="Trazado_725460" data-name="Trazado 725460" d="M11.8-6.135a7.546,7.546,0,0,1-.694,3.313A5.132,5.132,0,0,1,9.136-.6,5.494,5.494,0,0,1,6.223.176a5.572,5.572,0,0,1-2.9-.751A5.123,5.123,0,0,1,1.349-2.725,7.329,7.329,0,0,1,.606-5.933v-.721A7.58,7.58,0,0,1,1.3-9.971,5.119,5.119,0,0,1,3.274-12.19a5.533,5.533,0,0,1,2.931-.782,5.479,5.479,0,0,1,2.9.773A5.211,5.211,0,0,1,11.087-10,7.362,7.362,0,0,1,11.8-6.724ZM8.666-6.671a5.381,5.381,0,0,0-.637-2.9,2.044,2.044,0,0,0-1.824-.989q-2.32,0-2.452,3.48l-.009.94a5.535,5.535,0,0,0,.624,2.892A2.041,2.041,0,0,0,6.223-2.232a2.016,2.016,0,0,0,1.8-.993,5.383,5.383,0,0,0,.642-2.856ZM16.383,0H13.412V-13.5h2.971Zm2.479,0V-7.453h-1.38V-9.51h1.38v-.756a3.286,3.286,0,0,1,.958-2.522,3.785,3.785,0,0,1,2.689-.9A5.89,5.89,0,0,1,23.9-13.5l.009,2.18a2.706,2.706,0,0,0-.729-.079q-1.345,0-1.345,1.16v.729h1.854v2.057H21.832V0ZM30.085,0A3.344,3.344,0,0,1,29.8-.853,2.754,2.754,0,0,1,27.519.176a3.374,3.374,0,0,1-2.285-.813,2.588,2.588,0,0,1-.94-2.043,2.66,2.66,0,0,1,1.143-2.338,5.821,5.821,0,0,1,3.322-.791h.914v-.5q0-1.316-1.134-1.316a.927.927,0,0,0-1.055,1.042H24.521a2.655,2.655,0,0,1,1.173-2.239,4.931,4.931,0,0,1,2.993-.86,4.323,4.323,0,0,1,2.874.888,3.086,3.086,0,0,1,1.081,2.435v4.21a4.311,4.311,0,0,0,.4,2V0ZM28.23-1.934a1.652,1.652,0,0,0,.918-.237,1.487,1.487,0,0,0,.523-.536V-4.228h-.861q-1.547,0-1.547,1.389a.848.848,0,0,0,.272.655A.986.986,0,0,0,28.23-1.934Zm9.5-9.94V-9.51H39.3v2.057H37.731V-3.1a1.111,1.111,0,0,0,.193.747,1.037,1.037,0,0,0,.765.211,4.345,4.345,0,0,0,.738-.053V-.079a5.466,5.466,0,0,1-1.67.255A3.1,3.1,0,0,1,35.5-.545a2.954,2.954,0,0,1-.729-2.188v-4.72H33.557V-9.51H34.77v-2.364Zm2.092,7.031a5.613,5.613,0,0,1,.554-2.536,3.96,3.96,0,0,1,1.591-1.709,4.791,4.791,0,0,1,2.435-.6,4.373,4.373,0,0,1,3.366,1.323A5.076,5.076,0,0,1,49-4.764v.105a4.925,4.925,0,0,1-1.235,3.529A4.384,4.384,0,0,1,44.42.176a4.434,4.434,0,0,1-3.261-1.217,4.761,4.761,0,0,1-1.327-3.3Zm2.962.185A3.538,3.538,0,0,0,43.2-2.725a1.376,1.376,0,0,0,1.222.615q1.582,0,1.617-2.435v-.3Q46.037-7.4,44.4-7.4q-1.485,0-1.608,2.206ZM53.1-9.51l.1,1.116a3.27,3.27,0,0,1,2.716-1.292,2.407,2.407,0,0,1,2.435,1.433,3.165,3.165,0,0,1,2.795-1.433q2.892,0,2.971,3.5V0H61.146V-6A1.813,1.813,0,0,0,60.9-7.066,1.048,1.048,0,0,0,60-7.4a1.4,1.4,0,0,0-1.31.782L58.7-6.5V0H55.731V-5.985a1.906,1.906,0,0,0-.237-1.081,1.045,1.045,0,0,0-.905-.334,1.42,1.42,0,0,0-1.3.782V0H50.326V-9.51ZM70.409.176a4.889,4.889,0,0,1-3.542-1.305,4.507,4.507,0,0,1-1.354-3.4v-.246a5.84,5.84,0,0,1,.541-2.575,3.955,3.955,0,0,1,1.578-1.727,4.763,4.763,0,0,1,2.461-.611,4.117,4.117,0,0,1,3.164,1.244,4.887,4.887,0,0,1,1.16,3.467v1.151H68.528a2.135,2.135,0,0,0,.694,1.257,2.066,2.066,0,0,0,1.389.457,2.662,2.662,0,0,0,2.2-.984l1.354,1.6A3.784,3.784,0,0,1,72.593-.277,5.3,5.3,0,0,1,70.409.176ZM70.075-7.4q-1.3,0-1.547,1.723h2.988v-.229a1.467,1.467,0,0,0-.36-1.1A1.434,1.434,0,0,0,70.075-7.4Zm8.982-4.474V-9.51h1.564v2.057H79.058V-3.1a1.111,1.111,0,0,0,.193.747,1.037,1.037,0,0,0,.765.211,4.345,4.345,0,0,0,.738-.053V-.079a5.466,5.466,0,0,1-1.67.255,3.1,3.1,0,0,1-2.259-.721A2.954,2.954,0,0,1,76.1-2.733v-4.72H74.883V-9.51H76.1v-2.364Zm8.481,5.045-.976-.07a1.752,1.752,0,0,0-1.793.879V0H81.809V-9.51h2.777l.1,1.222a2.294,2.294,0,0,1,2.083-1.4,2.888,2.888,0,0,1,.826.105ZM91.837,0H88.857V-9.51h2.979ZM90.729-13.324h3.129l-2.443,2.76-2.417,0ZM99.1,0a3.344,3.344,0,0,1-.281-.853A2.754,2.754,0,0,1,96.53.176a3.374,3.374,0,0,1-2.285-.813,2.588,2.588,0,0,1-.94-2.043,2.66,2.66,0,0,1,1.143-2.338A5.821,5.821,0,0,1,97.77-5.81h.914v-.5q0-1.316-1.134-1.316A.927.927,0,0,0,96.5-6.587H93.533a2.655,2.655,0,0,1,1.173-2.239,4.931,4.931,0,0,1,2.993-.86,4.323,4.323,0,0,1,2.874.888,3.086,3.086,0,0,1,1.081,2.435v4.21a4.311,4.311,0,0,0,.4,2V0ZM97.242-1.934a1.652,1.652,0,0,0,.918-.237,1.487,1.487,0,0,0,.523-.536V-4.228h-.861q-1.547,0-1.547,1.389a.848.848,0,0,0,.272.655A.986.986,0,0,0,97.242-1.934Z" transform="translate(541.431 2933.998)" fill="#12263f"/>
    <path id="Trazado_725455" data-name="Trazado 725455" d="M29.248,57.916H0V19.584H29.248V0L65.5,38.751,29.248,77.5Z" transform="translate(686.865 3223.462) rotate(-139)" fill="#badc61"/>
    <path id="Trazado_725461" data-name="Trazado 725461" d="M29.248,57.916H0V19.584H29.248V0L65.5,38.751,29.248,77.5Z" transform="translate(926.2 2811.27) rotate(41)" fill="#badc61"/>
    <path id="Trazado_725462" data-name="Trazado 725462" d="M29.248,57.916H0V19.584H29.248V0L65.5,38.751,29.248,77.5Z" transform="translate(1041.932 2991.98) rotate(90)" fill="#badc61"/>
    <path id="Trazado_725463" data-name="Trazado 725463" d="M29.248,19.584H0V57.916H29.248V77.5L65.5,38.749,29.248,0Z" transform="translate(550.432 3043.479) rotate(-90)" fill="#badc61"/>
    <path id="Trazado_725456" data-name="Trazado 725456" d="M29.249,19.584H0V57.917H29.248V77.5L65.5,38.748,29.249,0Z" transform="translate(944.432 3181.76) rotate(139)" fill="#badc61"/>
    <path id="Trazado_725464" data-name="Trazado 725464" d="M29.249,19.584H0V57.917H29.248V77.5L65.5,38.748,29.249,0Z" transform="translate(635.293 2840.51) rotate(-41)" fill="#badc61"/>
    <path id="Trazado_725467" data-name="Trazado 725467" d="M10,0H119a10,10,0,0,1,10,10V53a10,10,0,0,1-10,10H10A10,10,0,0,1,0,53V10A10,10,0,0,1,10,0Z" transform="translate(518.216 3068.553)" fill="#34bc85"/>
    <path id="Trazado_725468" data-name="Trazado 725468" d="M-32.779-5.432H-37.63v3.059h5.73V0h-8.815V-12.8h8.833v2.382H-37.63v2.7h4.852Zm10.828.747a5.735,5.735,0,0,1-1,3.538A3.2,3.2,0,0,1-25.642.176,2.742,2.742,0,0,1-27.8-.782V3.656h-2.962V-9.51h2.769l.088.879A2.742,2.742,0,0,1-25.66-9.686a3.224,3.224,0,0,1,2.733,1.3,5.805,5.805,0,0,1,.976,3.564Zm-2.962-.185q0-2.531-1.477-2.531a1.394,1.394,0,0,0-1.406.756V-2.9a1.439,1.439,0,0,0,1.424.791q1.415,0,1.459-2.443ZM-17.521,0h-2.971V-9.51h2.971Zm-3.146-11.971a1.334,1.334,0,0,1,.457-1.043,1.718,1.718,0,0,1,1.187-.407,1.718,1.718,0,0,1,1.187.407,1.334,1.334,0,0,1,.457,1.043,1.334,1.334,0,0,1-.457,1.043,1.718,1.718,0,0,1-1.187.407,1.718,1.718,0,0,1-1.187-.407A1.334,1.334,0,0,1-20.667-11.971Zm9.949,9.3a.684.684,0,0,0-.4-.606,6.016,6.016,0,0,0-1.5-.475A6.853,6.853,0,0,1-14.445-4.4a3.062,3.062,0,0,1-1.1-.971,2.319,2.319,0,0,1-.378-1.31A2.628,2.628,0,0,1-14.84-8.837a4.453,4.453,0,0,1,2.83-.848,4.934,4.934,0,0,1,3.023.853A2.666,2.666,0,0,1-7.844-6.592h-2.971q0-1.143-1.2-1.143a1.194,1.194,0,0,0-.782.259.8.8,0,0,0-.316.646.737.737,0,0,0,.387.642,3.654,3.654,0,0,0,1.235.4,10.671,10.671,0,0,1,1.49.378A2.706,2.706,0,0,1-7.862-2.76,2.491,2.491,0,0,1-9.018-.642,5.068,5.068,0,0,1-12.01.176a5.172,5.172,0,0,1-2.18-.439,3.645,3.645,0,0,1-1.494-1.2A2.707,2.707,0,0,1-16.22-3.05h2.769a1.145,1.145,0,0,0,.439.962,1.808,1.808,0,0,0,1.081.3,1.422,1.422,0,0,0,.91-.246A.787.787,0,0,0-10.718-2.672Zm3.867-2.171A5.613,5.613,0,0,1-6.3-7.378,3.96,3.96,0,0,1-4.707-9.088a4.791,4.791,0,0,1,2.435-.6A4.373,4.373,0,0,1,1.094-8.363a5.076,5.076,0,0,1,1.23,3.6v.105A4.925,4.925,0,0,1,1.09-1.129,4.384,4.384,0,0,1-2.254.176,4.434,4.434,0,0,1-5.515-1.042a4.761,4.761,0,0,1-1.327-3.3Zm2.962.185a3.538,3.538,0,0,0,.413,1.934,1.376,1.376,0,0,0,1.222.615q1.582,0,1.617-2.435v-.3Q-.637-7.4-2.272-7.4q-1.485,0-1.608,2.206Zm7.146-.167a5.809,5.809,0,0,1,.976-3.56,3.211,3.211,0,0,1,2.725-1.3,2.731,2.731,0,0,1,2.145,1V-13.5h2.971V0H9.409L9.259-1.02a2.8,2.8,0,0,1-2.32,1.2,3.205,3.205,0,0,1-2.689-1.3A5.993,5.993,0,0,1,3.256-4.825Zm2.962.185q0,2.531,1.477,2.531A1.458,1.458,0,0,0,9.1-2.936V-6.557A1.419,1.419,0,0,0,7.712-7.4q-1.371,0-1.485,2.215ZM16.879,0H13.909V-9.51h2.971ZM13.733-11.971a1.334,1.334,0,0,1,.457-1.043,1.718,1.718,0,0,1,1.187-.407,1.718,1.718,0,0,1,1.187.407,1.334,1.334,0,0,1,.457,1.043,1.334,1.334,0,0,1-.457,1.043,1.718,1.718,0,0,1-1.187.407,1.718,1.718,0,0,1-1.187-.407A1.334,1.334,0,0,1,13.733-11.971Zm4.6,7.128a5.613,5.613,0,0,1,.554-2.536,3.96,3.96,0,0,1,1.591-1.709,4.791,4.791,0,0,1,2.435-.6,4.373,4.373,0,0,1,3.366,1.323,5.076,5.076,0,0,1,1.23,3.6v.105a4.925,4.925,0,0,1-1.235,3.529A4.384,4.384,0,0,1,22.926.176a4.434,4.434,0,0,1-3.261-1.217,4.761,4.761,0,0,1-1.327-3.3Zm2.962.185A3.538,3.538,0,0,0,21.7-2.725a1.376,1.376,0,0,0,1.222.615q1.582,0,1.617-2.435v-.3q0-2.558-1.635-2.558-1.485,0-1.608,2.206Zm12.5,1.986a.684.684,0,0,0-.4-.606,6.016,6.016,0,0,0-1.5-.475A6.853,6.853,0,0,1,30.063-4.4a3.062,3.062,0,0,1-1.1-.971,2.319,2.319,0,0,1-.378-1.31,2.628,2.628,0,0,1,1.081-2.158,4.453,4.453,0,0,1,2.83-.848,4.934,4.934,0,0,1,3.023.853,2.666,2.666,0,0,1,1.143,2.241H33.693q0-1.143-1.2-1.143a1.194,1.194,0,0,0-.782.259.8.8,0,0,0-.316.646.737.737,0,0,0,.387.642,3.654,3.654,0,0,0,1.235.4,10.671,10.671,0,0,1,1.49.378A2.706,2.706,0,0,1,36.646-2.76,2.491,2.491,0,0,1,35.49-.642,5.068,5.068,0,0,1,32.5.176a5.172,5.172,0,0,1-2.18-.439,3.645,3.645,0,0,1-1.494-1.2,2.707,2.707,0,0,1-.536-1.591h2.769a1.145,1.145,0,0,0,.439.962,1.808,1.808,0,0,0,1.081.3,1.422,1.422,0,0,0,.91-.246A.787.787,0,0,0,33.79-2.672ZM-28.9,20.175a5.809,5.809,0,0,1,.976-3.56,3.211,3.211,0,0,1,2.725-1.3,2.731,2.731,0,0,1,2.145,1V11.5h2.971V25h-2.663l-.149-1.02a2.8,2.8,0,0,1-2.32,1.2,3.205,3.205,0,0,1-2.689-1.3A5.993,5.993,0,0,1-28.9,20.175Zm2.962.185q0,2.531,1.477,2.531a1.458,1.458,0,0,0,1.406-.826V18.443a1.419,1.419,0,0,0-1.389-.844q-1.371,0-1.485,2.215ZM-13.8,25.176a4.889,4.889,0,0,1-3.542-1.305,4.507,4.507,0,0,1-1.354-3.4v-.246a5.84,5.84,0,0,1,.541-2.575,3.955,3.955,0,0,1,1.578-1.727,4.763,4.763,0,0,1,2.461-.611,4.117,4.117,0,0,1,3.164,1.244,4.887,4.887,0,0,1,1.16,3.467v1.151H-15.68a2.135,2.135,0,0,0,.694,1.257,2.066,2.066,0,0,0,1.389.457,2.662,2.662,0,0,0,2.2-.984l1.354,1.6a3.784,3.784,0,0,1-1.569,1.217A5.3,5.3,0,0,1-13.8,25.176Zm-.334-7.576q-1.3,0-1.547,1.723h2.988v-.229a1.467,1.467,0,0,0-.36-1.1A1.434,1.434,0,0,0-14.133,17.6ZM6.855,18.865a7.546,7.546,0,0,1-.694,3.313A5.132,5.132,0,0,1,4.188,24.4a5.494,5.494,0,0,1-2.914.778,5.572,5.572,0,0,1-2.9-.751A5.123,5.123,0,0,1-3.6,22.275a7.329,7.329,0,0,1-.743-3.208v-.721a7.58,7.58,0,0,1,.69-3.318A5.119,5.119,0,0,1-1.674,12.81a5.533,5.533,0,0,1,2.931-.782,5.479,5.479,0,0,1,2.9.773A5.211,5.211,0,0,1,6.139,15a7.362,7.362,0,0,1,.716,3.274Zm-3.138-.536a5.381,5.381,0,0,0-.637-2.9,2.044,2.044,0,0,0-1.824-.989q-2.32,0-2.452,3.48l-.009.94A5.535,5.535,0,0,0-.58,21.757a2.041,2.041,0,0,0,1.854,1.011,2.016,2.016,0,0,0,1.8-.993,5.383,5.383,0,0,0,.642-2.856ZM11.435,25H8.464V11.5h2.971Zm1.45-4.843a5.613,5.613,0,0,1,.554-2.536,3.96,3.96,0,0,1,1.591-1.709,4.791,4.791,0,0,1,2.435-.6,4.373,4.373,0,0,1,3.366,1.323,5.076,5.076,0,0,1,1.23,3.6v.105a4.925,4.925,0,0,1-1.235,3.529,4.384,4.384,0,0,1-3.344,1.305,4.434,4.434,0,0,1-3.261-1.217,4.761,4.761,0,0,1-1.327-3.3Zm2.962.185a3.538,3.538,0,0,0,.413,1.934,1.376,1.376,0,0,0,1.222.615q1.582,0,1.617-2.435v-.3q0-2.558-1.635-2.558-1.485,0-1.608,2.206Zm13.271-2.171-.976-.07a1.752,1.752,0,0,0-1.793.879V25H23.388V15.49h2.777l.1,1.222a2.294,2.294,0,0,1,2.083-1.4,2.888,2.888,0,0,1,.826.105Z" transform="translate(593.216 3093.553)" fill="#12263f"/>
  </g>
</svg>
