<svg xmlns="http://www.w3.org/2000/svg" width="400" height="189" viewBox="0 0 400 189">
  <g id="Grupo_983775" data-name="Grupo 983775" transform="translate(-390 -9424.5)">
    <g id="Trazado_725464" data-name="Trazado 725464" transform="translate(390 9424.5)" fill="#fff">
      <path d="M 380 188.5 L 20 188.5 C 17.36730003356934 188.5 14.81359958648682 187.9844970703125 12.40985012054443 186.9678039550781 C 10.08790016174316 185.9857025146484 8.002400398254395 184.5796051025391 6.211400032043457 182.7886047363281 C 4.420400142669678 180.9976043701172 3.014300107955933 178.9120941162109 2.03220009803772 176.5901489257812 C 1.015499949455261 174.1864013671875 0.5 171.6327056884766 0.5 169 L 0.5 20 C 0.5 17.36730003356934 1.015499949455261 14.81359958648682 2.03220009803772 12.40985012054443 C 3.014300107955933 10.08790016174316 4.420400142669678 8.002400398254395 6.211400032043457 6.211400032043457 C 8.002400398254395 4.420400142669678 10.08790016174316 3.014300107955933 12.40985012054443 2.03220009803772 C 14.81359958648682 1.015499949455261 17.36730003356934 0.5 20 0.5 L 380 0.5 C 382.6326904296875 0.5 385.1864013671875 1.015499949455261 387.5901489257812 2.03220009803772 C 389.912109375 3.014300107955933 391.9975891113281 4.420400142669678 393.7886047363281 6.211400032043457 C 395.57958984375 8.002400398254395 396.9856872558594 10.08790016174316 397.9678039550781 12.40985012054443 C 398.9844970703125 14.81359958648682 399.5 17.36730003356934 399.5 20 L 399.5 169 C 399.5 171.6327056884766 398.9844970703125 174.1864013671875 397.9678039550781 176.5901489257812 C 396.9856872558594 178.9120941162109 395.57958984375 180.9976043701172 393.7886047363281 182.7886047363281 C 391.9975891113281 184.5796051025391 389.912109375 185.9857025146484 387.5901489257812 186.9678039550781 C 385.1864013671875 187.9844970703125 382.6326904296875 188.5 380 188.5 Z" stroke="none"/>
      <path d="M 20 1 C 17.43453979492188 1 14.9464111328125 1.502197265625 12.60464477539062 2.492706298828125 C 10.34225463867188 3.449600219726562 8.310211181640625 4.8197021484375 6.56494140625 6.564956665039062 C 4.8197021484375 8.310195922851562 3.4495849609375 10.34225463867188 2.492706298828125 12.60464477539062 C 1.502197265625 14.94639587402344 1 17.43455505371094 1 20 L 1 169 C 1 171.5654449462891 1.502197265625 174.0536041259766 2.492706298828125 176.3953552246094 C 3.4495849609375 178.6577453613281 4.8197021484375 180.6898040771484 6.56494140625 182.4350433349609 C 8.310211181640625 184.1802978515625 10.34225463867188 185.5503997802734 12.60464477539062 186.5072937011719 C 14.9464111328125 187.497802734375 17.43453979492188 188 20 188 L 380 188 C 382.5654602050781 188 385.0535888671875 187.497802734375 387.3953552246094 186.5072937011719 C 389.6577453613281 185.5503997802734 391.6897888183594 184.1802978515625 393.43505859375 182.4350433349609 C 395.1802978515625 180.6898040771484 396.5504150390625 178.6577453613281 397.5072937011719 176.3953552246094 C 398.497802734375 174.0536041259766 399 171.5654449462891 399 169 L 399 20 C 399 17.43455505371094 398.497802734375 14.94639587402344 397.5072937011719 12.60464477539062 C 396.5504150390625 10.34225463867188 395.1802978515625 8.310195922851562 393.43505859375 6.564956665039062 C 391.6897888183594 4.8197021484375 389.6577453613281 3.449600219726562 387.3953552246094 2.492706298828125 C 385.0535888671875 1.502197265625 382.5654602050781 1 380 1 L 20 1 M 20 0 L 380 0 C 391.0457153320312 0 400 8.954299926757812 400 20 L 400 169 C 400 180.0457000732422 391.0457153320312 189 380 189 L 20 189 C 8.954315185546875 189 0 180.0457000732422 0 169 L 0 20 C 0 8.954299926757812 8.954315185546875 0 20 0 Z" stroke="none" fill="#000"/>
    </g>
    <path id="Trazado_725465" data-name="Trazado 725465" d="M.381,21,2.842,6.781l3.848.01a5.267,5.267,0,0,1,3.062.884,4.969,4.969,0,0,1,1.86,2.441,7.277,7.277,0,0,1,.352,3.433l-.107.771A8.525,8.525,0,0,1,10.562,17.8,6.961,6.961,0,0,1,7.979,20.16,7.3,7.3,0,0,1,4.5,21ZM4.912,8.773,3.135,19.027l1.426.01a4.442,4.442,0,0,0,3.208-1.226A5.886,5.886,0,0,0,9.4,14.428,11.409,11.409,0,0,0,9.59,11.84a3.484,3.484,0,0,0-.825-2.217,2.762,2.762,0,0,0-2.046-.84ZM17.715,21.2a4.427,4.427,0,0,1-2.388-.693,3.945,3.945,0,0,1-1.494-1.816,5.4,5.4,0,0,1-.366-2.568l.029-.4a7.072,7.072,0,0,1,.942-2.9,5.378,5.378,0,0,1,1.909-1.948,4.642,4.642,0,0,1,2.48-.635A3.462,3.462,0,0,1,21.8,11.715a5.421,5.421,0,0,1,.747,3.746l-.137,1.017h-6.65A2.87,2.87,0,0,0,16.27,18.5a2.012,2.012,0,0,0,1.641.788,3.559,3.559,0,0,0,2.754-1.3l1.172,1.23a4.454,4.454,0,0,1-1.748,1.47A5.207,5.207,0,0,1,17.715,21.2Zm.986-9.062q-1.836-.059-2.754,2.6l4.385.01.039-.205a3.064,3.064,0,0,0,.01-.879,1.8,1.8,0,0,0-.547-1.094A1.731,1.731,0,0,0,18.7,12.133Zm8.711-1.709-.234,1.24a4.032,4.032,0,0,1,3.135-1.426,2.554,2.554,0,0,1,2.2,1.06,4.229,4.229,0,0,1,.527,2.876L31.895,21H29.58l1.152-6.855a3.508,3.508,0,0,0,.01-.781,1.245,1.245,0,0,0-1.387-1.191,2.813,2.813,0,0,0-2.314,1.3L25.723,21H23.408l1.826-10.566ZM40.645,18.07q.166-.967-1.255-1.343a15.954,15.954,0,0,1-1.938-.6,2.673,2.673,0,0,1-1.943-2.617A2.972,2.972,0,0,1,36.8,11.151a4.742,4.742,0,0,1,2.983-.913,4.082,4.082,0,0,1,2.739.947,3.021,3.021,0,0,1,1.04,2.432l-2.295-.01a1.481,1.481,0,0,0-.4-1.147,1.633,1.633,0,0,0-1.152-.435,2.272,2.272,0,0,0-1.323.381,1.419,1.419,0,0,0-.64,1q-.137.889,1.25,1.235a13.72,13.72,0,0,1,2.051.64,2.674,2.674,0,0,1,1.865,2.656,2.92,2.92,0,0,1-.659,1.753,3.847,3.847,0,0,1-1.636,1.143,5.6,5.6,0,0,1-2.178.366,4.3,4.3,0,0,1-2.866-1.006,3.14,3.14,0,0,1-1.118-2.529l2.236.01a1.7,1.7,0,0,0,.508,1.289,1.962,1.962,0,0,0,1.338.449,2.657,2.657,0,0,0,1.431-.356A1.367,1.367,0,0,0,40.645,18.07ZM46.895,21H44.58l1.836-10.566H48.73ZM46.748,7.729a1.305,1.305,0,0,1,.352-.918,1.288,1.288,0,0,1,.947-.4,1.231,1.231,0,0,1,.942.347,1.2,1.2,0,0,1,.376.894A1.235,1.235,0,0,1,49,8.568a1.342,1.342,0,0,1-.933.381,1.252,1.252,0,0,1-.937-.337A1.162,1.162,0,0,1,46.748,7.729Zm3.242,7.979a8.371,8.371,0,0,1,.879-2.93,4.96,4.96,0,0,1,1.689-1.938,3.9,3.9,0,0,1,2.236-.61,3.122,3.122,0,0,1,2.52,1.2L58.33,6h2.324L58.047,21h-2.07l.156-1.094a3.683,3.683,0,0,1-2.891,1.3,2.906,2.906,0,0,1-2.358-1.138,4.968,4.968,0,0,1-.952-2.974,7.9,7.9,0,0,1,.029-1.182Zm2.246.908a3.253,3.253,0,0,0,.376,1.924,1.5,1.5,0,0,0,1.323.732,2.718,2.718,0,0,0,2.314-1.3l.791-4.541a1.807,1.807,0,0,0-1.777-1.26,2.377,2.377,0,0,0-2.139,1.172A6.247,6.247,0,0,0,52.236,16.615ZM66.807,21a3.134,3.134,0,0,1-.1-.986A3.918,3.918,0,0,1,63.887,21.2a3.236,3.236,0,0,1-2.28-.884,2.725,2.725,0,0,1-.845-2.192,3.236,3.236,0,0,1,1.445-2.627,6.293,6.293,0,0,1,3.672-.957l1.5.02.137-.723a2.181,2.181,0,0,0,0-.713,1.272,1.272,0,0,0-1.4-1.084,2.106,2.106,0,0,0-1.3.376,1.627,1.627,0,0,0-.688,1.06l-2.314.02a2.9,2.9,0,0,1,.693-1.714,4.111,4.111,0,0,1,1.66-1.147,5.621,5.621,0,0,1,2.188-.391,3.7,3.7,0,0,1,2.7,1.04,3.082,3.082,0,0,1,.8,2.593l-.811,4.951-.078.879a3.122,3.122,0,0,0,.146,1.123L69.1,21Zm-2.383-1.7a2.552,2.552,0,0,0,1.357-.337,3.577,3.577,0,0,0,1.064-.923l.361-2-1.1-.01a3.878,3.878,0,0,0-2.09.493,1.808,1.808,0,0,0-.889,1.353,1.2,1.2,0,0,0,.288,1.03A1.409,1.409,0,0,0,64.424,19.3Zm7.207-3.594a8.371,8.371,0,0,1,.879-2.93A4.96,4.96,0,0,1,74.2,10.839a3.9,3.9,0,0,1,2.236-.61,3.122,3.122,0,0,1,2.52,1.2L79.971,6h2.324L79.688,21h-2.07l.156-1.094a3.683,3.683,0,0,1-2.891,1.3,2.906,2.906,0,0,1-2.358-1.138,4.968,4.968,0,0,1-.952-2.974,7.9,7.9,0,0,1,.029-1.182Zm2.246.908a3.253,3.253,0,0,0,.376,1.924,1.5,1.5,0,0,0,1.323.732,2.718,2.718,0,0,0,2.314-1.3l.791-4.541a1.807,1.807,0,0,0-1.777-1.26,2.377,2.377,0,0,0-2.139,1.172A6.247,6.247,0,0,0,73.877,16.615Zm14.316-1.357a17.255,17.255,0,0,1,2.153-6.343A9.006,9.006,0,0,1,94.4,5.063l.352,1.406q-3.34,2.578-4.336,8.086a22.6,22.6,0,0,0-.371,3.877,10.724,10.724,0,0,0,.469,3.462,5.221,5.221,0,0,0,1.445,2.329l-.547,1.3A6.549,6.549,0,0,1,88.853,22.3a12.51,12.51,0,0,1-.815-5.1,15.156,15.156,0,0,1,.137-1.777Zm13.857,2.012q.215-1.406-1.533-2.09l-.791-.293a7.39,7.39,0,0,1-3.135-1.826,3.266,3.266,0,0,1-.84-2.451,3.687,3.687,0,0,1,.825-2.134,4.812,4.812,0,0,1,1.968-1.421,6.44,6.44,0,0,1,2.6-.469,5.2,5.2,0,0,1,2.363.581A3.823,3.823,0,0,1,105.088,8.7a4.247,4.247,0,0,1,.508,2.241l-2.4-.01A2.254,2.254,0,0,0,102.7,9.2a2.266,2.266,0,0,0-1.694-.645,3.155,3.155,0,0,0-1.929.537,2.149,2.149,0,0,0-.923,1.5q-.2,1.24,1.66,1.953l.732.264a7.11,7.11,0,0,1,3.125,1.88,3.471,3.471,0,0,1,.781,2.554,3.846,3.846,0,0,1-.791,2.095,4.442,4.442,0,0,1-1.919,1.382,6.979,6.979,0,0,1-2.7.469,5.617,5.617,0,0,1-2.534-.586,4.059,4.059,0,0,1-2.3-3.916l2.412.01a2.264,2.264,0,0,0,.6,1.865,2.728,2.728,0,0,0,1.934.674,3.381,3.381,0,0,0,1.958-.5A2.091,2.091,0,0,0,102.051,17.27Zm2.871,8.271-.361-1.348a10.73,10.73,0,0,0,3.242-4.341,19.77,19.77,0,0,0,1.426-6.47l.039-1.211q0-4.111-1.914-5.791l.557-1.309a6,6,0,0,1,1.919,1.919,9.089,9.089,0,0,1,1.182,2.935,14.185,14.185,0,0,1,.347,3.467,18,18,0,0,1-.962,5.278,14.13,14.13,0,0,1-2.29,4.316A8.625,8.625,0,0,1,104.922,25.541Z" transform="translate(414 9481.5)" fill="#12263f"/>
    <path id="Trazado_725466" data-name="Trazado 725466" d="M11.807,12.289H10.293l-.967,5.742a2.023,2.023,0,0,0-.01.439q.059.635.781.664a4.453,4.453,0,0,0,.83-.088L10.762,20.9a4.975,4.975,0,0,1-1.455.205A2.172,2.172,0,0,1,7.5,20.292a2.988,2.988,0,0,1-.474-2.144l.957-5.859H4.854L3.34,21H1.025l1.514-8.711H.908l.332-1.855H12.129Z" transform="translate(632.5 9515.5)" fill="#12263f"/>
    <path id="Trazado_725467" data-name="Trazado 725467" d="M9.854,13.383H1.67l.352-1.973H10.2Zm-.723,4.141H.957L1.3,15.561H9.482Z" transform="translate(538 9481.5)" fill="#12263f"/>
    <path id="Trazado_725468" data-name="Trazado 725468" d="M9.854,13.383H1.67l.352-1.973H10.2Zm-.723,4.141H.957L1.3,15.561H9.482Z" transform="translate(605 9481.5)" fill="#12263f"/>
    <path id="Trazado_725469" data-name="Trazado 725469" d="M.381,21,2.842,6.781l3.848.01a5.267,5.267,0,0,1,3.062.884,4.969,4.969,0,0,1,1.86,2.441,7.277,7.277,0,0,1,.352,3.433l-.107.771A8.525,8.525,0,0,1,10.562,17.8,6.961,6.961,0,0,1,7.979,20.16,7.3,7.3,0,0,1,4.5,21ZM4.912,8.773,3.135,19.027l1.426.01a4.442,4.442,0,0,0,3.208-1.226A5.886,5.886,0,0,0,9.4,14.428,11.409,11.409,0,0,0,9.59,11.84a3.484,3.484,0,0,0-.825-2.217,2.762,2.762,0,0,0-2.046-.84Z" transform="translate(676.251 9502)" fill="#12263f"/>
    <path id="Trazado_725470" data-name="Trazado 725470" d="M11.826,17.465,15.615,6.781h2.451L12.656,21h-2.3L9.365,10.648,5.068,21H2.744L1.787,6.781H4.121L4.59,17.416,8.877,6.781H10.9Z" transform="translate(567.5 9466.5)" fill="#12263f"/>
    <path id="Trazado_725471" data-name="Trazado 725471" d="M3.563,43.635A49.177,49.177,0,0,1,9.7,25.558q4.662-7.918,11.564-10.98l1,4.008Q12.747,25.934,9.908,41.631A64.415,64.415,0,0,0,8.851,52.68a30.563,30.563,0,0,0,1.336,9.866,14.88,14.88,0,0,0,4.119,6.638l-1.559,3.7A18.665,18.665,0,0,1,5.441,63.7,35.654,35.654,0,0,1,3.117,49.173a43.193,43.193,0,0,1,.39-5.065ZM45.7,72.942,44.67,69.1a30.58,30.58,0,0,0,9.24-12.371,56.344,56.344,0,0,0,4.063-18.439l.111-3.451q0-11.717-5.455-16.5l1.586-3.729a17.094,17.094,0,0,1,5.469,5.469,25.9,25.9,0,0,1,3.368,8.364,40.427,40.427,0,0,1,.988,9.88A51.3,51.3,0,0,1,61.3,53.362a40.271,40.271,0,0,1-6.527,12.3A24.58,24.58,0,0,1,45.7,72.942Z" transform="translate(650.5 9488)" fill="#12263f"/>
    <path id="Trazado_725472" data-name="Trazado 725472" d="M11.826,17.465,15.615,6.781h2.451L12.656,21h-2.3L9.365,10.648,5.068,21H2.744L1.787,6.781H4.121L4.59,17.416,8.877,6.781H10.9Z" transform="translate(688 9466.5)" fill="#12263f"/>
    <path id="Trazado_725473" data-name="Trazado 725473" d="M1.25,15.258A17.255,17.255,0,0,1,3.4,8.915,9.006,9.006,0,0,1,7.461,5.063l.352,1.406q-3.34,2.578-4.336,8.086a22.6,22.6,0,0,0-.371,3.877,10.724,10.724,0,0,0,.469,3.462A5.221,5.221,0,0,0,5.02,24.223l-.547,1.3A6.549,6.549,0,0,1,1.909,22.3a12.51,12.51,0,0,1-.815-5.1,15.155,15.155,0,0,1,.137-1.777ZM18.213,21h-2.4L16.9,14.691H10.752L9.658,21H7.246L9.717,6.781h2.412L11.094,12.7h6.152l1.025-5.918h2.412Zm1.836,4.541-.361-1.348a10.73,10.73,0,0,0,3.242-4.341,19.77,19.77,0,0,0,1.426-6.47l.039-1.211q0-4.111-1.914-5.791l.557-1.309a6,6,0,0,1,1.919,1.919,9.089,9.089,0,0,1,1.182,2.935,14.185,14.185,0,0,1,.347,3.467,18,18,0,0,1-.962,5.278,14.13,14.13,0,0,1-2.29,4.316A8.625,8.625,0,0,1,20.049,25.541Z" transform="translate(736 9515.5)" fill="#12263f"/>
    <path id="Trazado_725474" data-name="Trazado 725474" d="M9.395,21H.107l.273-1.729L6.289,13.6a5.393,5.393,0,0,0,1.816-2.92A2.094,2.094,0,0,0,7.793,9.13a1.6,1.6,0,0,0-1.318-.659,2.394,2.394,0,0,0-1.826.679,3.178,3.178,0,0,0-.9,1.958l-2.3.01a4.8,4.8,0,0,1,.8-2.354A4.753,4.753,0,0,1,4.1,7.138a5.243,5.243,0,0,1,2.5-.552A4.2,4.2,0,0,1,9.536,7.66a3.305,3.305,0,0,1,.952,2.773A7.082,7.082,0,0,1,8.1,14.643l-.605.6L3.379,19.105H9.7Z" transform="translate(676.251 9532)" fill="#12263f"/>
    <path id="Trazado_725475" data-name="Trazado 725475" d="M5.791,17.885l5.234-11.1H13.76L6.572,21H4.238L1.514,6.781H4.072Z" transform="translate(567.5 9496.5)" fill="#12263f"/>
    <path id="Trazado_725476" data-name="Trazado 725476" d="M6.576,15H.075l.191-1.21L4.4,9.818A3.775,3.775,0,0,0,5.674,7.774a1.466,1.466,0,0,0-.219-1.083,1.122,1.122,0,0,0-.923-.461A1.676,1.676,0,0,0,3.254,6.7a2.224,2.224,0,0,0-.629,1.371l-1.613.007a3.363,3.363,0,0,1,.557-1.647A3.327,3.327,0,0,1,2.868,5.3,3.67,3.67,0,0,1,4.621,4.91a2.938,2.938,0,0,1,2.054.752A2.314,2.314,0,0,1,7.342,7.6,4.957,4.957,0,0,1,5.667,10.55l-.424.417L2.365,13.674H6.788Z" transform="translate(716.25 9500.5)" fill="#12263f"/>
    <path id="Trazado_725477" data-name="Trazado 725477" d="M4.614,8.636,7.2,5.047H9.235L5.482,10.058,7.656,15H5.783l-1.5-3.644L1.627,15H-.417L3.418,9.907,1.292,5.047H3.151Z" transform="translate(725 9520.5)" fill="#12263f"/>
    <path id="Trazado_720982" data-name="Trazado 720982" d="M12555.877-5586h29.5" transform="translate(-11886.127 15116)" fill="none" stroke="#000" stroke-width="2"/>
    <path id="Trazado_720987" data-name="Trazado 720987" d="M12555.877-5586h29.5" transform="translate(-11994.877 15080.5)" fill="none" stroke="#000" stroke-width="2"/>
    <path id="Trazado_720986" data-name="Trazado 720986" d="M12555.88-5586h133.5" transform="translate(-11923.379 15080.5)" fill="none" stroke="#000" stroke-width="2"/>
  </g>
</svg>
