<svg xmlns="http://www.w3.org/2000/svg" width="400" height="141" viewBox="0 0 400 141">
  <g id="Grupo_983773" data-name="Grupo 983773" transform="translate(-305 -6417)">
    <g id="Trazado_725452" data-name="Trazado 725452" transform="translate(305 6417)" fill="#fff">
      <path d="M 380 140.5 L 20 140.5 C 17.36730003356934 140.5 14.81359958648682 139.9844970703125 12.40985012054443 138.9678039550781 C 10.08790016174316 137.9857025146484 8.002400398254395 136.5796051025391 6.211400032043457 134.7886047363281 C 4.420400142669678 132.9976043701172 3.014300107955933 130.9120941162109 2.03220009803772 128.5901489257812 C 1.015499949455261 126.1864013671875 0.5 123.632698059082 0.5 121 L 0.5 20 C 0.5 17.36730003356934 1.015499949455261 14.81359958648682 2.03220009803772 12.40985012054443 C 3.014300107955933 10.08790016174316 4.420400142669678 8.002400398254395 6.211400032043457 6.211400032043457 C 8.002400398254395 4.420400142669678 10.08790016174316 3.014300107955933 12.40985012054443 2.03220009803772 C 14.81359958648682 1.015499949455261 17.36730003356934 0.5 20 0.5 L 380 0.5 C 382.6326904296875 0.5 385.1864013671875 1.015499949455261 387.5901489257812 2.03220009803772 C 389.912109375 3.014300107955933 391.9975891113281 4.420400142669678 393.7886047363281 6.211400032043457 C 395.57958984375 8.002400398254395 396.9856872558594 10.08790016174316 397.9678039550781 12.40985012054443 C 398.9844970703125 14.81359958648682 399.5 17.36730003356934 399.5 20 L 399.5 121 C 399.5 123.632698059082 398.9844970703125 126.1864013671875 397.9678039550781 128.5901489257812 C 396.9856872558594 130.9120941162109 395.57958984375 132.9976043701172 393.7886047363281 134.7886047363281 C 391.9975891113281 136.5796051025391 389.912109375 137.9857025146484 387.5901489257812 138.9678039550781 C 385.1864013671875 139.9844970703125 382.6326904296875 140.5 380 140.5 Z" stroke="none"/>
      <path d="M 20 1 C 17.43453979492188 1 14.9464111328125 1.502197265625 12.60464477539062 2.492706298828125 C 10.34225463867188 3.449600219726562 8.310211181640625 4.8197021484375 6.56494140625 6.564956665039062 C 4.8197021484375 8.310195922851562 3.4495849609375 10.34225463867188 2.492706298828125 12.60464477539062 C 1.502197265625 14.94640350341797 1 17.43454742431641 1 20 L 1 121 C 1 123.5654525756836 1.502197265625 126.0536041259766 2.492706298828125 128.3953552246094 C 3.4495849609375 130.6577453613281 4.8197021484375 132.6898040771484 6.56494140625 134.4350433349609 C 8.310211181640625 136.1802978515625 10.34225463867188 137.5503997802734 12.60464477539062 138.5072937011719 C 14.9464111328125 139.497802734375 17.43453979492188 140 20 140 L 380 140 C 382.5654602050781 140 385.0535888671875 139.497802734375 387.3953552246094 138.5072937011719 C 389.6577453613281 137.5503997802734 391.6897888183594 136.1802978515625 393.43505859375 134.4350433349609 C 395.1802978515625 132.6898040771484 396.5504150390625 130.6577453613281 397.5072937011719 128.3953552246094 C 398.497802734375 126.0536041259766 399 123.5654525756836 399 121 L 399 20 C 399 17.43454742431641 398.497802734375 14.94640350341797 397.5072937011719 12.60464477539062 C 396.5504150390625 10.34225463867188 395.1802978515625 8.310195922851562 393.43505859375 6.564956665039062 C 391.6897888183594 4.8197021484375 389.6577453613281 3.449600219726562 387.3953552246094 2.492706298828125 C 385.0535888671875 1.502197265625 382.5654602050781 1 380 1 L 20 1 M 20 0 L 380 0 C 391.0457153320312 0 400 8.954299926757812 400 20 L 400 121 C 400 132.0457000732422 391.0457153320312 141 380 141 L 20 141 C 8.954315185546875 141 0 132.0457000732422 0 121 L 0 20 C 0 8.954299926757812 8.954315185546875 0 20 0 Z" stroke="none" fill="#000"/>
    </g>
    <path id="Trazado_725453" data-name="Trazado 725453" d="M5.146,6.566a2.6,2.6,0,0,1,1.992.869,2.8,2.8,0,0,1,.635,2.08l-.059.752a3.248,3.248,0,0,1-1.05,2.148,2.994,2.994,0,0,1-2.173.771,2.591,2.591,0,0,1-1.978-.85,2.709,2.709,0,0,1-.669-2.07l.068-.723A3.267,3.267,0,0,1,2.935,7.377,3.056,3.056,0,0,1,5.146,6.566Zm-1.67,3.711a1.572,1.572,0,0,0,.205,1.05.972.972,0,0,0,.84.444,1.329,1.329,0,0,0,1.016-.405,1.931,1.931,0,0,0,.537-1.108L6.162,9.5a1.61,1.61,0,0,0-.205-1.064.978.978,0,0,0-.85-.449,1.329,1.329,0,0,0-1.035.435,1.935,1.935,0,0,0-.518,1.177ZM10.4,14.584a2.6,2.6,0,0,1,1.987.869,2.755,2.755,0,0,1,.64,2.061l-.059.762a3.238,3.238,0,0,1-1.045,2.144,2.981,2.981,0,0,1-2.178.786,2.615,2.615,0,0,1-1.963-.83,2.768,2.768,0,0,1-.693-2.1l.049-.635a3.278,3.278,0,0,1,1.011-2.231A3.1,3.1,0,0,1,10.4,14.584Zm-1.68,3.7a1.627,1.627,0,0,0,.234,1.076.987.987,0,0,0,.82.424,1.328,1.328,0,0,0,1.011-.385,1.967,1.967,0,0,0,.532-1.135l.1-.77a1.628,1.628,0,0,0-.234-1.091,1,1,0,0,0-.82-.409,1.335,1.335,0,0,0-1.055.433A1.936,1.936,0,0,0,8.8,17.588ZM3.652,19.916,2.48,19.145,11.064,8.139l1.172.771ZM30.625,21h-2.4l1.094-6.309H23.164L22.07,21H19.658L22.129,6.781h2.412L23.506,12.7h6.152l1.025-5.918H33.1Zm9.219-1.045a3.832,3.832,0,0,1-3.008,1.24,2.944,2.944,0,0,1-1.7-.508,2.641,2.641,0,0,1-.967-1.362,4.987,4.987,0,0,1-.171-2.056l1.143-6.836h2.314L36.3,17.3a3.639,3.639,0,0,0-.01.7,1.188,1.188,0,0,0,1.221,1.26,2.8,2.8,0,0,0,2.48-1.23l1.328-7.6h2.314L41.807,21H39.639Zm8.34-9.531-.205,1.123A4.074,4.074,0,0,1,51.1,10.238a3.033,3.033,0,0,1,1.655.459,2.173,2.173,0,0,1,.894,1.162,4.258,4.258,0,0,1,3.359-1.621A2.743,2.743,0,0,1,59.3,11.3a4.043,4.043,0,0,1,.562,2.856L58.721,21H56.406l1.152-6.865a3.6,3.6,0,0,0,.01-.791,1.292,1.292,0,0,0-1.445-1.172,2.436,2.436,0,0,0-2.266,1.572l-.029.215L52.617,21H50.293l1.152-6.836a3.508,3.508,0,0,0,.01-.781,1.3,1.3,0,0,0-1.445-1.211,2.552,2.552,0,0,0-2.168,1.162L46.5,21H44.189l1.826-10.566ZM65.957,21.2a4.427,4.427,0,0,1-2.388-.693,3.945,3.945,0,0,1-1.494-1.816,5.4,5.4,0,0,1-.366-2.568l.029-.4a7.072,7.072,0,0,1,.942-2.9,5.378,5.378,0,0,1,1.909-1.948,4.642,4.642,0,0,1,2.48-.635,3.462,3.462,0,0,1,2.974,1.477,5.421,5.421,0,0,1,.747,3.746l-.137,1.017H64a2.87,2.87,0,0,0,.508,2.024,2.012,2.012,0,0,0,1.641.788,3.559,3.559,0,0,0,2.754-1.3l1.172,1.23a4.454,4.454,0,0,1-1.748,1.47A5.207,5.207,0,0,1,65.957,21.2Zm.986-9.062q-1.836-.059-2.754,2.6l4.385.01.039-.205a3.064,3.064,0,0,0,.01-.879,1.8,1.8,0,0,0-.547-1.094A1.731,1.731,0,0,0,66.943,12.133Zm5.244,3.574a8.371,8.371,0,0,1,.879-2.93,4.96,4.96,0,0,1,1.689-1.938,3.9,3.9,0,0,1,2.236-.61,3.122,3.122,0,0,1,2.52,1.2L80.527,6h2.324L80.244,21h-2.07l.156-1.094a3.683,3.683,0,0,1-2.891,1.3,2.906,2.906,0,0,1-2.358-1.138,4.968,4.968,0,0,1-.952-2.974,7.9,7.9,0,0,1,.029-1.182Zm2.246.908a3.253,3.253,0,0,0,.376,1.924,1.5,1.5,0,0,0,1.323.732,2.718,2.718,0,0,0,2.314-1.3l.791-4.541a1.807,1.807,0,0,0-1.777-1.26,2.377,2.377,0,0,0-2.139,1.172A6.247,6.247,0,0,0,74.434,16.615ZM89,21a3.134,3.134,0,0,1-.1-.986A3.918,3.918,0,0,1,86.084,21.2a3.236,3.236,0,0,1-2.28-.884,2.725,2.725,0,0,1-.845-2.192A3.236,3.236,0,0,1,84.4,15.492a6.293,6.293,0,0,1,3.672-.957l1.5.02.137-.723a2.181,2.181,0,0,0,0-.713,1.272,1.272,0,0,0-1.4-1.084,2.106,2.106,0,0,0-1.3.376,1.627,1.627,0,0,0-.688,1.06l-2.314.02a2.9,2.9,0,0,1,.693-1.714,4.111,4.111,0,0,1,1.66-1.147,5.621,5.621,0,0,1,2.188-.391,3.7,3.7,0,0,1,2.7,1.04,3.082,3.082,0,0,1,.8,2.593l-.811,4.951-.078.879a3.122,3.122,0,0,0,.146,1.123L91.3,21Zm-2.383-1.7a2.552,2.552,0,0,0,1.357-.337,3.577,3.577,0,0,0,1.064-.923l.361-2-1.1-.01a3.878,3.878,0,0,0-2.09.493,1.808,1.808,0,0,0-.889,1.353,1.2,1.2,0,0,0,.288,1.03A1.409,1.409,0,0,0,86.621,19.3Zm7.207-3.594a8.371,8.371,0,0,1,.879-2.93A4.96,4.96,0,0,1,96.4,10.839a3.9,3.9,0,0,1,2.236-.61,3.122,3.122,0,0,1,2.52,1.2L102.168,6h2.324l-2.607,15h-2.07l.156-1.094a3.683,3.683,0,0,1-2.891,1.3,2.906,2.906,0,0,1-2.358-1.138,4.968,4.968,0,0,1-.952-2.974,7.9,7.9,0,0,1,.029-1.182Zm2.246.908a3.253,3.253,0,0,0,.376,1.924,1.5,1.5,0,0,0,1.323.732,2.718,2.718,0,0,0,2.314-1.3l.791-4.541a1.807,1.807,0,0,0-1.777-1.26,2.377,2.377,0,0,0-2.139,1.172A6.247,6.247,0,0,0,96.074,16.615Z" transform="translate(360 6475)" fill="#12263f"/>
    <path id="Trazado_725454" data-name="Trazado 725454" d="M6.26,21h-2.3L5.928,9.633,2.334,10.824l.361-2.1L8.32,6.732h.352Zm9.541.2a3.4,3.4,0,0,1-2.793-1.274,5.454,5.454,0,0,1-.918-3.462,13.471,13.471,0,0,1,.1-1.445l.381-2.539a8.411,8.411,0,0,1,1.846-4.463,4.455,4.455,0,0,1,3.535-1.426,3.433,3.433,0,0,1,2.788,1.25,5.33,5.33,0,0,1,.923,3.438,13.247,13.247,0,0,1-.1,1.445l-.381,2.471a8.836,8.836,0,0,1-1.851,4.556A4.389,4.389,0,0,1,15.8,21.2Zm3.506-8.857q.127-1.113.127-1.582-.049-2.207-1.611-2.275a2.191,2.191,0,0,0-1.914.869,6.243,6.243,0,0,0-1.016,2.92l-.449,3.1a12.715,12.715,0,0,0-.107,1.592q0,2.285,1.6,2.354,2.207.127,2.842-3.447ZM26.924,21.2a3.4,3.4,0,0,1-2.793-1.274,5.454,5.454,0,0,1-.918-3.462,13.47,13.47,0,0,1,.1-1.445l.381-2.539a8.411,8.411,0,0,1,1.846-4.463,4.455,4.455,0,0,1,3.535-1.426,3.433,3.433,0,0,1,2.788,1.25,5.33,5.33,0,0,1,.923,3.438,13.247,13.247,0,0,1-.1,1.445L32.3,15.189a8.836,8.836,0,0,1-1.851,4.556A4.389,4.389,0,0,1,26.924,21.2Zm3.506-8.857q.127-1.113.127-1.582-.049-2.207-1.611-2.275a2.191,2.191,0,0,0-1.914.869,6.243,6.243,0,0,0-1.016,2.92l-.449,3.1a12.716,12.716,0,0,0-.107,1.592q0,2.285,1.6,2.354,2.207.127,2.842-3.447Z" transform="translate(615 6475)" fill="#12263f"/>
    <path id="Trazado_725455" data-name="Trazado 725455" d="M9.854,13.383H1.67l.352-1.973H10.2Zm-.723,4.141H.957L1.3,15.561H9.482Z" transform="translate(477 6475)" fill="#12263f"/>
    <path id="Trazado_725456" data-name="Trazado 725456" d="M3.74,11.454,1.006,10.6l.771-1.571L4.5,10.186l.439-3.4H6.66l-.732,3.356L8.877,9.045,9.111,10.8,6,11.659l1.475,2.646-1.455.957L4.8,12.44l-2.148,2.7L1.348,14.062Z" transform="translate(592 6475)" fill="#12263f"/>
    <path id="Trazado_725340" data-name="Trazado 725340" d="M8.613,15.68H3.574L1.982,19H-.469L6.621,4.781H8.877L11.65,19H9.2ZM4.531,13.7h3.73L7.285,8.111,7.227,8.1Zm25.41.215H24.18L24.473,12h5.762ZM42.217,19,44.346,4.781H49a5.464,5.464,0,0,1,3.491.981,2.9,2.9,0,0,1,.942,2.9,3.331,3.331,0,0,1-.781,1.714,3.983,3.983,0,0,1-1.631,1.118,2.639,2.639,0,0,1,1.9,1.191,3.259,3.259,0,0,1,.4,2.236A4.366,4.366,0,0,1,51.572,18a6.48,6.48,0,0,1-3.779,1Zm3.34-6.465-.684,4.57h3.2a3.214,3.214,0,0,0,1.953-.566,2.375,2.375,0,0,0,.938-1.621,2.037,2.037,0,0,0-.4-1.729,2.358,2.358,0,0,0-1.748-.654H45.557Zm.264-1.768h2.539a3.016,3.016,0,0,0,1.8-.527,2.135,2.135,0,0,0,.884-1.475,1.638,1.638,0,0,0-.43-1.587,2.93,2.93,0,0,0-1.895-.493H46.436Z" transform="translate(511 6460)" fill="#12263f"/>
    <path id="Trazado_725341" data-name="Trazado 725341" d="M8.613,15.68H3.574L1.982,19H-.469L6.621,4.781H8.877L11.65,19H9.2ZM4.531,13.7h3.73L7.285,8.111,7.227,8.1Zm25.41.215H24.18L24.473,12h5.762Zm23.35.439.02.059a5.158,5.158,0,0,1-1.9,3.511,6.345,6.345,0,0,1-4.082,1.284A4.494,4.494,0,0,1,43.6,17.516a5.292,5.292,0,0,1-.952-4.268l.41-2.705a7.127,7.127,0,0,1,2.158-4.336,6.01,6.01,0,0,1,4.238-1.631A5.015,5.015,0,0,1,53.159,5.87a3.761,3.761,0,0,1,.923,3.491l-.029.059H51.758a2.607,2.607,0,0,0-.43-2.207A2.784,2.784,0,0,0,49.16,6.48a3.2,3.2,0,0,0-2.437,1.162,5.353,5.353,0,0,0-1.3,2.881l-.41,2.725a4.3,4.3,0,0,0,.415,2.949,2.377,2.377,0,0,0,2.183,1.113,3.4,3.4,0,0,0,2.295-.771,3.445,3.445,0,0,0,1.113-2.187Z" transform="translate(511 6490)" fill="#12263f"/>
    <path id="Trazado_720982" data-name="Trazado 720982" d="M12555.878-5586h67.1" transform="translate(-12051.378 12074)" fill="none" stroke="#000" stroke-width="2"/>
  </g>
</svg>
