<svg xmlns="http://www.w3.org/2000/svg" xmlns:xlink="http://www.w3.org/1999/xlink" width="610" height="138.07" viewBox="0 0 610 138.07">
  <defs>
    <linearGradient id="linear-gradient" y1="0.5" x2="1" y2="0.5" gradientUnits="objectBoundingBox">
      <stop offset="0" stop-color="#ef1c24"/>
      <stop offset="0.022" stop-color="#ef1e24"/>
      <stop offset="0.037" stop-color="#ef2724"/>
      <stop offset="0.05" stop-color="#f03624"/>
      <stop offset="0.061" stop-color="#f14b24"/>
      <stop offset="0.072" stop-color="#f36724"/>
      <stop offset="0.094" stop-color="#f36923"/>
      <stop offset="0.111" stop-color="#f37322"/>
      <stop offset="0.125" stop-color="#f3831f"/>
      <stop offset="0.139" stop-color="#f4991c"/>
      <stop offset="0.151" stop-color="#f5b617"/>
      <stop offset="0.157" stop-color="#f6c615"/>
      <stop offset="0.179" stop-color="#f6c915"/>
      <stop offset="0.199" stop-color="#f6d418"/>
      <stop offset="0.219" stop-color="#f6e71c"/>
      <stop offset="0.225" stop-color="#f7ee1e"/>
      <stop offset="0.245" stop-color="#f1eb1f"/>
      <stop offset="0.269" stop-color="#e2e524"/>
      <stop offset="0.296" stop-color="#c9db2c"/>
      <stop offset="0.314" stop-color="#b6d333"/>
      <stop offset="0.336" stop-color="#abcf36"/>
      <stop offset="0.374" stop-color="#90c540"/>
      <stop offset="0.386" stop-color="#87c244"/>
      <stop offset="0.466" stop-color="#88c145"/>
      <stop offset="0.525" stop-color="#4fb849"/>
      <stop offset="0.576" stop-color="#35aa45"/>
      <stop offset="0.636" stop-color="#25b46f"/>
      <stop offset="0.699" stop-color="#0abab7"/>
      <stop offset="0.75" stop-color="#4690ce"/>
      <stop offset="0.801" stop-color="#3a54a2"/>
      <stop offset="0.877" stop-color="#59519d"/>
      <stop offset="0.936" stop-color="#64459d"/>
      <stop offset="1" stop-color="#462c82"/>
    </linearGradient>
  </defs>
  <g id="Grupo_983776" data-name="Grupo 983776" transform="translate(-495 -13865.863)">
    <path id="Trazado_719164" data-name="Trazado 719164" d="M50.667,105.077A20.334,20.334,0,1,1,30.333,84.743,20.334,20.334,0,0,1,50.667,105.077Z" transform="translate(485 13842.824)" fill="#ef1c24"/>
    <path id="Trazado_719165" data-name="Trazado 719165" d="M79.333,105.077A20.333,20.333,0,1,1,59,84.743,20.333,20.333,0,0,1,79.333,105.077Z" transform="translate(497 13842.824)" fill="#ff7a19"/>
    <path id="Trazado_719166" data-name="Trazado 719166" d="M108,105.077A20.334,20.334,0,1,1,87.667,84.743,20.334,20.334,0,0,1,108,105.077Z" transform="translate(509 13842.824)" fill="#f6c615"/>
    <path id="Trazado_719167" data-name="Trazado 719167" d="M136.667,105.077a20.333,20.333,0,1,1-20.333-20.334A20.333,20.333,0,0,1,136.667,105.077Z" transform="translate(521 13842.824)" fill="#f5e500"/>
    <path id="Trazado_719168" data-name="Trazado 719168" d="M165.334,105.077A20.334,20.334,0,1,1,145,84.743,20.333,20.333,0,0,1,165.334,105.077Z" transform="translate(533 13842.824)" fill="#b6d333"/>
    <path id="Trazado_719169" data-name="Trazado 719169" d="M194,105.077a20.334,20.334,0,1,1-20.333-20.334A20.333,20.333,0,0,1,194,105.077Z" transform="translate(545 13842.824)" fill="#86c144"/>
    <path id="Trazado_719170" data-name="Trazado 719170" d="M222.67,105.077a20.334,20.334,0,1,1-20.334-20.334A20.334,20.334,0,0,1,222.67,105.077Z" transform="translate(557 13842.824)" fill="#4fb849"/>
    <path id="Trazado_719171" data-name="Trazado 719171" d="M251.333,105.077A20.332,20.332,0,1,1,231,84.743,20.332,20.332,0,0,1,251.333,105.077Z" transform="translate(569.001 13842.824)" fill="#34a944"/>
    <path id="Trazado_719172" data-name="Trazado 719172" d="M280,105.077A20.334,20.334,0,1,1,259.67,84.743,20.334,20.334,0,0,1,280,105.077Z" transform="translate(581 13842.824)" fill="#25b46f"/>
    <path id="Trazado_719173" data-name="Trazado 719173" d="M308.669,105.077a20.334,20.334,0,1,1-20.333-20.334A20.334,20.334,0,0,1,308.669,105.077Z" transform="translate(593.001 13842.824)" fill="#0abab7"/>
    <path id="Trazado_719174" data-name="Trazado 719174" d="M337.336,105.077A20.334,20.334,0,1,1,317,84.743,20.334,20.334,0,0,1,337.336,105.077Z" transform="translate(605.001 13842.824)" fill="#4690ce"/>
    <path id="Trazado_719175" data-name="Trazado 719175" d="M366,105.077a20.332,20.332,0,1,1-20.333-20.334A20.334,20.334,0,0,1,366,105.077Z" transform="translate(617.001 13842.824)" fill="#3a54a2"/>
    <path id="Trazado_719176" data-name="Trazado 719176" d="M394.668,105.077a20.334,20.334,0,1,1-20.333-20.334A20.334,20.334,0,0,1,394.668,105.077Z" transform="translate(629 13842.824)" fill="#59519d"/>
    <path id="Trazado_719177" data-name="Trazado 719177" d="M423.335,105.077A20.334,20.334,0,1,1,403,84.743,20.334,20.334,0,0,1,423.335,105.077Z" transform="translate(641 13842.824)" fill="#64459d"/>
    <path id="Trazado_719178" data-name="Trazado 719178" d="M452,105.077a20.332,20.332,0,1,1-20.333-20.334A20.334,20.334,0,0,1,452,105.077Z" transform="translate(653 13842.824)" fill="#422e82"/>
    <path id="Trazado_719179" data-name="Trazado 719179" d="M269.714,91.57h-2.128V73.517a13.138,13.138,0,0,0-13.122-13.122H38.833A13.137,13.137,0,0,0,25.711,73.517V91.57H23.583V73.517a15.266,15.266,0,0,1,15.25-15.25H254.464a15.266,15.266,0,0,1,15.25,15.25Z" transform="translate(490.686 13831.742)" fill="gray"/>
    <path id="Trazado_719180" data-name="Trazado 719180" d="M499.048,91.57H496.92V73.517A13.138,13.138,0,0,0,483.8,60.395H268.167a13.137,13.137,0,0,0-13.122,13.122V91.57h-2.128V73.517a15.266,15.266,0,0,1,15.25-15.25H483.8a15.267,15.267,0,0,1,15.25,15.25Z" transform="translate(586.686 13831.742)" fill="gray"/>
    <path id="Trazado_725481" data-name="Trazado 725481" d="M0,0H2.128V32.239H0Z" transform="translate(798.939 13891.073)" fill="gray"/>
    <path id="Trazado_719181" data-name="Trazado 719181" d="M29.323,102.692a4.776,4.776,0,0,1-1.043,3.25,3.534,3.534,0,0,1-2.806,1.2,3.548,3.548,0,0,1-2.806-1.2,4.751,4.751,0,0,1-1.051-3.25V99.134a4.785,4.785,0,0,1,1.043-3.241,3.516,3.516,0,0,1,2.8-1.2,3.55,3.55,0,0,1,2.815,1.2,4.76,4.76,0,0,1,1.051,3.241Zm-1.637-3.9a3.3,3.3,0,0,0-.583-2.061,1.952,1.952,0,0,0-1.646-.756,1.92,1.92,0,0,0-1.629.756,3.331,3.331,0,0,0-.575,2.061v4.232a3.311,3.311,0,0,0,.587,2.068,2.132,2.132,0,0,0,3.27,0,3.361,3.361,0,0,0,.575-2.073Z" transform="translate(489.863 13846.987)" fill="#fff"/>
    <path id="Trazado_719182" data-name="Trazado 719182" d="M55.045,106.965H53.4V96.375l-2.634.026V95.136l4.28-.448Z" transform="translate(502.064 13846.987)" fill="#fff"/>
    <path id="Trazado_719183" data-name="Trazado 719183" d="M86.712,106.965H79.2v-1.122l3.8-4.53a11.54,11.54,0,0,0,1.375-1.958,3.269,3.269,0,0,0,.362-1.468,1.96,1.96,0,0,0-.489-1.375,1.745,1.745,0,0,0-1.355-.536,2.03,2.03,0,0,0-1.634.657,2.434,2.434,0,0,0-.56,1.637h-1.58l-.016-.05a3.261,3.261,0,0,1,.989-2.507,3.8,3.8,0,0,1,2.8-1.026,3.518,3.518,0,0,1,2.551.9,3.078,3.078,0,0,1,.932,2.319,3.683,3.683,0,0,1-.529,1.87,20.618,20.618,0,0,1-1.607,2.3l-3.051,3.573.017.043h5.511Z" transform="translate(513.924 13846.987)" fill="#fff"/>
    <path id="Trazado_719184" data-name="Trazado 719184" d="M111.475,100.082a1.917,1.917,0,0,0,1.549-.545,2.315,2.315,0,0,0,.454-1.525,2.155,2.155,0,0,0-.5-1.475,1.854,1.854,0,0,0-1.467-.56,2.187,2.187,0,0,0-1.568.586,1.934,1.934,0,0,0-.619,1.467h-1.563l-.024-.05a2.889,2.889,0,0,1,1.03-2.328,3.949,3.949,0,0,1,2.744-.963,3.834,3.834,0,0,1,2.643.851,3.185,3.185,0,0,1,.956,2.507,2.836,2.836,0,0,1-.444,1.546,2.992,2.992,0,0,1-1.243,1.088,2.871,2.871,0,0,1,1.392,1.109,3.259,3.259,0,0,1,.478,1.8,3.325,3.325,0,0,1-1.051,2.606,3.937,3.937,0,0,1-2.731.943,4.321,4.321,0,0,1-2.722-.911,2.787,2.787,0,0,1-1.135-2.406l.017-.05h1.562a1.966,1.966,0,0,0,.637,1.484,2.287,2.287,0,0,0,1.641.6,2.034,2.034,0,0,0,1.57-.62,2.283,2.283,0,0,0,.575-1.617,2.42,2.42,0,0,0-.528-1.7,2.177,2.177,0,0,0-1.658-.565h-1.348v-1.272Z" transform="translate(525.88 13846.987)" fill="#fff"/>
    <path id="Trazado_719185" data-name="Trazado 719185" d="M142.868,102.84h1.671v1.28h-1.671v2.793H141.24V104.12h-5.195V103.2l5.1-8.387h1.728Zm-5.07,0h3.442V97.163l-.05-.009-.159.416Z" transform="translate(537.763 13847.04)" fill="#fff"/>
    <path id="Trazado_719186" data-name="Trazado 719186" d="M165.359,101.535l.7-6.724h6.059v1.454h-4.68l-.39,3.483a3.725,3.725,0,0,1,.864-.478,3.045,3.045,0,0,1,1.081-.2,3.3,3.3,0,0,1,2.63,1.053,4.929,4.929,0,0,1-.024,5.856,3.6,3.6,0,0,1-2.847,1.105,3.9,3.9,0,0,1-2.561-.84,2.9,2.9,0,0,1-.98-2.468l.017-.05h1.48a2.019,2.019,0,0,0,.569,1.534,2.046,2.046,0,0,0,1.475.545,1.933,1.933,0,0,0,1.613-.732,3.17,3.17,0,0,0,.573-2,2.89,2.89,0,0,0-.577-1.871,1.954,1.954,0,0,0-1.609-.714,2.565,2.565,0,0,0-1.4.291,1.7,1.7,0,0,0-.641.9Z" transform="translate(549.971 13847.04)" fill="#fff"/>
    <path id="Trazado_719187" data-name="Trazado 719187" d="M197.949,94.688a7.145,7.145,0,0,1,1.413.14,5.166,5.166,0,0,1,1.155.357l-.349,1.255a5.968,5.968,0,0,0-1-.336,5.113,5.113,0,0,0-1.221-.129,2.192,2.192,0,0,0-1.85.972,4.062,4.062,0,0,0-.711,2.461v.939a3.717,3.717,0,0,1,1.2-.8,3.839,3.839,0,0,1,1.492-.291,3.109,3.109,0,0,1,2.473,1.047,4.053,4.053,0,0,1,.909,2.752,4.229,4.229,0,0,1-1.017,2.972,3.549,3.549,0,0,1-2.748,1.109,3.6,3.6,0,0,1-2.809-1.275,5.068,5.068,0,0,1-1.131-3.487V99.592a5.162,5.162,0,0,1,1.209-3.517A3.8,3.8,0,0,1,197.949,94.688Zm-.392,5.794a2.553,2.553,0,0,0-1.325.328,2.193,2.193,0,0,0-.844.885v.84a3.967,3.967,0,0,0,.67,2.431,1.99,1.99,0,0,0,1.641.894,1.815,1.815,0,0,0,1.575-.777,3.416,3.416,0,0,0,.553-2.024,2.8,2.8,0,0,0-.594-1.878A2.08,2.08,0,0,0,197.558,100.482Z" transform="translate(561.923 13846.987)" fill="#fff"/>
    <path id="Trazado_719188" data-name="Trazado 719188" d="M230.221,96.1a18,18,0,0,0-3.1,4.812,12.894,12.894,0,0,0-.806,4.68v1.322h-1.638v-1.322a11.715,11.715,0,0,1,1.01-4.941A21.637,21.637,0,0,1,228.61,96.1h-6.418V94.811h8.029Z" transform="translate(573.825 13847.04)" fill="#fff"/>
    <path id="Trazado_719189" data-name="Trazado 719189" d="M258.436,97.954a2.726,2.726,0,0,1-.532,1.667,3.222,3.222,0,0,1-1.413,1.077,3.542,3.542,0,0,1,1.654,1.139,2.808,2.808,0,0,1,.623,1.8,3.2,3.2,0,0,1-1.084,2.585,4.142,4.142,0,0,1-2.765.915,4.456,4.456,0,0,1-2.9-.915,3.136,3.136,0,0,1-1.126-2.585,2.772,2.772,0,0,1,.636-1.8,3.66,3.66,0,0,1,1.717-1.148,3.184,3.184,0,0,1-1.471-1.068,2.7,2.7,0,0,1-.54-1.667,2.965,2.965,0,0,1,1.019-2.427,4.04,4.04,0,0,1,2.656-.838,3.791,3.791,0,0,1,2.539.843A3,3,0,0,1,258.436,97.954Zm-1.3,5.653a2.2,2.2,0,0,0-.644-1.63,2.169,2.169,0,0,0-1.592-.64,2.37,2.37,0,0,0-1.7.64,2.15,2.15,0,0,0-.674,1.63,2.115,2.115,0,0,0,.67,1.637,2.446,2.446,0,0,0,1.724.616,2.15,2.15,0,0,0,2.22-2.253Zm-.34-5.628a1.99,1.99,0,0,0-.545-1.438,1.8,1.8,0,0,0-1.351-.565,2.047,2.047,0,0,0-1.464.543,1.921,1.921,0,0,0-.573,1.46,1.978,1.978,0,0,0,2.053,2.07,1.765,1.765,0,0,0,1.343-.573A2.106,2.106,0,0,0,256.8,97.979Z" transform="translate(585.837 13846.987)" fill="#fff"/>
    <path id="Trazado_719190" data-name="Trazado 719190" d="M282.895,105.86a2.435,2.435,0,0,0,1.907-.816,3.352,3.352,0,0,0,.728-2.311V101.7a2.656,2.656,0,0,1-.993.894,2.833,2.833,0,0,1-1.3.3,3.542,3.542,0,0,1-2.739-1.077,4.872,4.872,0,0,1,.062-5.977,3.387,3.387,0,0,1,2.61-1.159,3.857,3.857,0,0,1,2.91,1.138,4.452,4.452,0,0,1,1.1,3.217v3.674a4.336,4.336,0,0,1-1.2,3.254,4.227,4.227,0,0,1-3.083,1.167,6.649,6.649,0,0,1-1.309-.133,5.88,5.88,0,0,1-1.251-.39l.25-1.247a4.644,4.644,0,0,0,1.075.377A5.962,5.962,0,0,0,282.895,105.86Zm.34-4.24a2.534,2.534,0,0,0,1.441-.39,2.29,2.29,0,0,0,.853-1V98.8a3.206,3.206,0,0,0-.607-2.091,2.087,2.087,0,0,0-1.7-.735,1.789,1.789,0,0,0-1.484.793,3.929,3.929,0,0,0-.045,4.081A1.787,1.787,0,0,0,283.235,101.619Z" transform="translate(597.815 13846.987)" fill="#fff"/>
    <path id="Trazado_719191" data-name="Trazado 719191" d="M309.67,106.965h-1.646V96.375l-2.634.026V95.136l4.28-.448Z" transform="translate(608.651 13846.987)" fill="#fff"/>
    <path id="Trazado_719192" data-name="Trazado 719192" d="M319.371,102.692a4.769,4.769,0,0,1-1.044,3.25,3.885,3.885,0,0,1-5.611,0,4.751,4.751,0,0,1-1.051-3.25V99.134a4.785,4.785,0,0,1,1.043-3.241,3.869,3.869,0,0,1,5.611,0,4.753,4.753,0,0,1,1.053,3.241Zm-1.638-3.9a3.3,3.3,0,0,0-.582-2.061,1.952,1.952,0,0,0-1.646-.756,1.92,1.92,0,0,0-1.629.756,3.331,3.331,0,0,0-.575,2.061v4.232a3.32,3.32,0,0,0,.586,2.068,2.133,2.133,0,0,0,3.271,0,3.36,3.36,0,0,0,.573-2.073Z" transform="translate(611.278 13846.987)" fill="#fff"/>
    <path id="Trazado_719193" data-name="Trazado 719193" d="M338.337,106.965h-1.646V96.375l-2.634.026V95.136l4.28-.448Z" transform="translate(620.652 13846.987)" fill="#fff"/>
    <path id="Trazado_719194" data-name="Trazado 719194" d="M345.093,106.965h-1.646V96.375l-2.636.026V95.136l4.281-.448Z" transform="translate(623.479 13846.987)" fill="#fff"/>
    <path id="Trazado_719195" data-name="Trazado 719195" d="M367,106.965h-1.646V96.375l-2.634.026V95.136l4.28-.448Z" transform="translate(632.652 13846.987)" fill="#fff"/>
    <path id="Trazado_719196" data-name="Trazado 719196" d="M376.76,106.965h-7.514v-1.122l3.8-4.53a11.547,11.547,0,0,0,1.375-1.958,3.27,3.27,0,0,0,.362-1.468,1.955,1.955,0,0,0-.491-1.375,1.741,1.741,0,0,0-1.355-.536,2.027,2.027,0,0,0-1.633.657,2.428,2.428,0,0,0-.562,1.637h-1.579l-.017-.05a3.268,3.268,0,0,1,.99-2.507,3.793,3.793,0,0,1,2.8-1.026,3.52,3.52,0,0,1,2.552.9,3.077,3.077,0,0,1,.931,2.319,3.7,3.7,0,0,1-.528,1.87,21.025,21.025,0,0,1-1.607,2.3l-3.051,3.573.017.043h5.511Z" transform="translate(635.339 13846.987)" fill="#fff"/>
    <path id="Trazado_719197" data-name="Trazado 719197" d="M395.671,106.965h-1.646V96.375l-2.634.026V95.136l4.28-.448Z" transform="translate(644.652 13846.987)" fill="#fff"/>
    <path id="Trazado_719198" data-name="Trazado 719198" d="M401.522,100.082a1.919,1.919,0,0,0,1.551-.545,2.315,2.315,0,0,0,.454-1.525,2.155,2.155,0,0,0-.5-1.475,1.856,1.856,0,0,0-1.467-.56,2.185,2.185,0,0,0-1.568.586,1.934,1.934,0,0,0-.619,1.467h-1.563l-.024-.05a2.889,2.889,0,0,1,1.03-2.328,3.949,3.949,0,0,1,2.744-.963,3.834,3.834,0,0,1,2.643.851,3.185,3.185,0,0,1,.956,2.507,2.825,2.825,0,0,1-.445,1.546,2.992,2.992,0,0,1-1.243,1.088,2.868,2.868,0,0,1,1.393,1.109,3.27,3.27,0,0,1,.478,1.8A3.325,3.325,0,0,1,404.3,106.2a3.939,3.939,0,0,1-2.731.943,4.321,4.321,0,0,1-2.722-.911,2.784,2.784,0,0,1-1.135-2.406l.017-.05h1.562a1.966,1.966,0,0,0,.637,1.484,2.287,2.287,0,0,0,1.641.6,2.036,2.036,0,0,0,1.57-.62,2.282,2.282,0,0,0,.573-1.617,2.419,2.419,0,0,0-.528-1.7,2.173,2.173,0,0,0-1.658-.565h-1.346v-1.272Z" transform="translate(647.295 13846.987)" fill="#fff"/>
    <path id="Trazado_719199" data-name="Trazado 719199" d="M424.338,106.965h-1.646V96.375l-2.634.026V95.136l4.28-.448Z" transform="translate(656.652 13846.987)" fill="#fff"/>
    <path id="Trazado_719200" data-name="Trazado 719200" d="M432.917,102.84h1.671v1.28h-1.671v2.793h-1.629V104.12h-5.2V103.2l5.1-8.387h1.728Zm-5.07,0h3.442V97.163l-.05-.009-.159.416Z" transform="translate(659.178 13847.039)" fill="#fff"/>
    <path id="Trazado_725482" data-name="Trazado 725482" d="M0,0H569.34V2.4H0Z" transform="translate(515.333 14001.531)" fill="url(#linear-gradient)"/>
    <path id="Trazado_725478" data-name="Trazado 725478" d="M11.669,14.021H6.712L5.675,17H3.364L8.2,4.2h2L15.035,17h-2.32ZM7.336,12.228h3.709L9.191,6.919ZM9.859.775h2.435L9.859,3.438l-1.714,0Zm10.327,14.7A1.931,1.931,0,0,0,21.513,15a1.591,1.591,0,0,0,.563-1.151h2.013a3.137,3.137,0,0,1-.554,1.657,3.632,3.632,0,0,1-1.406,1.217,4.191,4.191,0,0,1-1.916.448,4.055,4.055,0,0,1-3.164-1.292,5.124,5.124,0,0,1-1.169-3.568V12.1a5.039,5.039,0,0,1,1.16-3.476A4.018,4.018,0,0,1,20.2,7.314a3.907,3.907,0,0,1,2.764.989,3.542,3.542,0,0,1,1.121,2.6H22.076a1.956,1.956,0,0,0-.558-1.345,1.8,1.8,0,0,0-1.332-.527,1.879,1.879,0,0,0-1.6.751,3.834,3.834,0,0,0-.571,2.281V12.4a3.9,3.9,0,0,0,.558,2.307A1.878,1.878,0,0,0,20.186,15.471ZM27.973,17H25.837V7.49h2.136ZM25.705,5.012a1.147,1.147,0,0,1,.312-.824,1.173,1.173,0,0,1,.892-.328,1.188,1.188,0,0,1,.9.328,1.138,1.138,0,0,1,.316.824,1.112,1.112,0,0,1-.316.811,1.2,1.2,0,0,1-.9.323,1.182,1.182,0,0,1-.892-.323A1.12,1.12,0,0,1,25.705,5.012ZM29.9,12.175a5.654,5.654,0,0,1,1.02-3.529,3.267,3.267,0,0,1,2.733-1.332,3.1,3.1,0,0,1,2.443,1.055V3.5H38.23V17H36.3l-.105-.984a3.148,3.148,0,0,1-2.558,1.16,3.248,3.248,0,0,1-2.7-1.345A5.861,5.861,0,0,1,29.9,12.175Zm2.136.185a3.958,3.958,0,0,0,.558,2.263,1.811,1.811,0,0,0,1.586.813,2.017,2.017,0,0,0,1.916-1.169V10.206a1.986,1.986,0,0,0-1.9-1.143,1.824,1.824,0,0,0-1.6.822A4.408,4.408,0,0,0,32.034,12.359Zm8.024-.2a5.607,5.607,0,0,1,.554-2.518,4.044,4.044,0,0,1,1.556-1.723,4.383,4.383,0,0,1,2.3-.6,4.154,4.154,0,0,1,3.125,1.239,4.874,4.874,0,0,1,1.3,3.287l.009.5a5.658,5.658,0,0,1-.541,2.514,4,4,0,0,1-1.547,1.714,4.415,4.415,0,0,1-2.325.606,4.125,4.125,0,0,1-3.221-1.34,5.133,5.133,0,0,1-1.208-3.573Zm2.136.185a3.832,3.832,0,0,0,.606,2.3,1.971,1.971,0,0,0,1.688.831,1.95,1.95,0,0,0,1.683-.844,4.232,4.232,0,0,0,.6-2.47,3.782,3.782,0,0,0-.62-2.285,2.089,2.089,0,0,0-3.344-.013A4.152,4.152,0,0,0,42.194,12.342Z" transform="translate(611.174 13865.088)" fill="#12263f"/>
    <path id="Trazado_725479" data-name="Trazado 725479" d="M9.6,14.021H4.643L3.605,17H1.294L6.128,4.2h2L12.966,17h-2.32ZM5.267,12.228H8.976L7.121,6.919ZM16.481,17H14.346V3.5h2.136Zm6.231-1.529A1.931,1.931,0,0,0,24.04,15a1.591,1.591,0,0,0,.563-1.151h2.013a3.137,3.137,0,0,1-.554,1.657,3.632,3.632,0,0,1-1.406,1.217,4.191,4.191,0,0,1-1.916.448,4.055,4.055,0,0,1-3.164-1.292,5.124,5.124,0,0,1-1.169-3.568V12.1a5.039,5.039,0,0,1,1.16-3.476A4.018,4.018,0,0,1,22.73,7.314a3.907,3.907,0,0,1,2.764.989,3.542,3.542,0,0,1,1.121,2.6H24.6a1.956,1.956,0,0,0-.558-1.345,1.8,1.8,0,0,0-1.332-.527,1.879,1.879,0,0,0-1.6.751,3.834,3.834,0,0,0-.571,2.281V12.4A3.9,3.9,0,0,0,21.1,14.71,1.878,1.878,0,0,0,22.713,15.471ZM33.91,17a3.3,3.3,0,0,1-.246-.888,3.593,3.593,0,0,1-4.834.246,2.615,2.615,0,0,1-.905-2.021A2.7,2.7,0,0,1,29.054,12a5.473,5.473,0,0,1,3.23-.813h1.31v-.624a1.666,1.666,0,0,0-.413-1.182,1.638,1.638,0,0,0-1.257-.444,1.881,1.881,0,0,0-1.2.365,1.129,1.129,0,0,0-.466.927H28.127a2.37,2.37,0,0,1,.519-1.463A3.455,3.455,0,0,1,30.056,7.7a4.955,4.955,0,0,1,1.991-.387,3.99,3.99,0,0,1,2.663.839,2.993,2.993,0,0,1,1.02,2.36V14.8a4.861,4.861,0,0,0,.36,2.048V17Zm-2.347-1.538a2.429,2.429,0,0,0,1.191-.308,2.055,2.055,0,0,0,.839-.826V12.535H32.442a3.148,3.148,0,0,0-1.784.413,1.338,1.338,0,0,0-.6,1.169,1.248,1.248,0,0,0,.409.98A1.583,1.583,0,0,0,31.563,15.462ZM40.238,17H38.1V3.5h2.136Zm4.6,0H42.7V7.49h2.136ZM42.567,5.012a1.147,1.147,0,0,1,.312-.824,1.173,1.173,0,0,1,.892-.328,1.188,1.188,0,0,1,.9.328,1.138,1.138,0,0,1,.316.824,1.112,1.112,0,0,1-.316.811,1.2,1.2,0,0,1-.9.323,1.182,1.182,0,0,1-.892-.323A1.12,1.12,0,0,1,42.567,5.012ZM49.142,7.49l.062,1.1a3.419,3.419,0,0,1,2.769-1.274q2.971,0,3.023,3.4V17H52.859V10.839a1.958,1.958,0,0,0-.391-1.34,1.645,1.645,0,0,0-1.279-.435,2.058,2.058,0,0,0-1.925,1.169V17H47.129V7.49Zm7.629,4.667a5.607,5.607,0,0,1,.554-2.518A4.044,4.044,0,0,1,58.88,7.917a4.383,4.383,0,0,1,2.3-.6,4.154,4.154,0,0,1,3.125,1.239,4.874,4.874,0,0,1,1.3,3.287l.009.5a5.658,5.658,0,0,1-.541,2.514,4,4,0,0,1-1.547,1.714,4.415,4.415,0,0,1-2.325.606,4.125,4.125,0,0,1-3.221-1.34,5.133,5.133,0,0,1-1.208-3.573Zm2.136.185a3.832,3.832,0,0,0,.606,2.3,1.971,1.971,0,0,0,1.688.831,1.95,1.95,0,0,0,1.683-.844,4.232,4.232,0,0,0,.6-2.47,3.782,3.782,0,0,0-.62-2.285,2.089,2.089,0,0,0-3.344-.013A4.152,4.152,0,0,0,58.906,12.342Z" transform="translate(932.54 13865.088)" fill="#12263f"/>
    <path id="Trazado_725480" data-name="Trazado 725480" d="M12.978,17H10.755L5.05,7.921V17H2.827V4.2H5.05l5.722,9.114V4.2h2.206Zm6.609.176A4.419,4.419,0,0,1,16.3,15.9a4.639,4.639,0,0,1-1.261-3.406v-.264a5.706,5.706,0,0,1,.549-2.544,4.181,4.181,0,0,1,1.542-1.745,4.078,4.078,0,0,1,2.215-.624,3.733,3.733,0,0,1,3,1.239A5.24,5.24,0,0,1,23.4,12.061v.861H17.188a2.856,2.856,0,0,0,.787,1.863,2.362,2.362,0,0,0,1.736.686A2.892,2.892,0,0,0,22.1,14.284l1.151,1.1a3.845,3.845,0,0,1-1.525,1.323A4.774,4.774,0,0,1,19.588,17.176Zm-.255-8.147a1.8,1.8,0,0,0-1.419.615,3.189,3.189,0,0,0-.69,1.714h4.069V11.2a2.6,2.6,0,0,0-.571-1.622A1.785,1.785,0,0,0,19.333,9.028Zm11.487,7.04a3.312,3.312,0,0,1-2.672,1.107,2.952,2.952,0,0,1-2.342-.905,3.851,3.851,0,0,1-.8-2.619V7.49h2.136v6.135q0,1.811,1.5,1.811a2.111,2.111,0,0,0,2.1-1.116V7.49h2.136V17H30.873Zm6.917-10.89V7.49h1.679V9.072H37.737v5.309a1.169,1.169,0,0,0,.215.787,1,1,0,0,0,.769.242,3.29,3.29,0,0,0,.747-.088v1.652a5.26,5.26,0,0,1-1.406.2q-2.461,0-2.461-2.716V9.072H34.037V7.49H35.6V5.179Zm8.288,4.263a5.285,5.285,0,0,0-.87-.07A1.959,1.959,0,0,0,43.177,10.5V17H41.042V7.49h2.039l.053,1.063a2.406,2.406,0,0,1,2.145-1.239,2,2,0,0,1,.756.123ZM52.793,17a3.3,3.3,0,0,1-.246-.888,3.593,3.593,0,0,1-4.834.246,2.615,2.615,0,0,1-.905-2.021A2.7,2.7,0,0,1,47.937,12a5.473,5.473,0,0,1,3.23-.813h1.31v-.624a1.666,1.666,0,0,0-.413-1.182,1.638,1.638,0,0,0-1.257-.444,1.881,1.881,0,0,0-1.2.365,1.129,1.129,0,0,0-.466.927H47.009a2.37,2.37,0,0,1,.519-1.463A3.455,3.455,0,0,1,48.939,7.7a4.955,4.955,0,0,1,1.991-.387,3.99,3.99,0,0,1,2.663.839,2.993,2.993,0,0,1,1.02,2.36V14.8a4.861,4.861,0,0,0,.36,2.048V17Zm-2.347-1.538a2.429,2.429,0,0,0,1.191-.308,2.055,2.055,0,0,0,.839-.826V12.535H51.325a3.148,3.148,0,0,0-1.784.413,1.338,1.338,0,0,0-.6,1.169,1.248,1.248,0,0,0,.409.98A1.583,1.583,0,0,0,50.446,15.462ZM29.708,42H27.572V28.5h2.136Z" transform="translate(771.36 13865.088)" fill="#12263f"/>
  </g>
</svg>
